<?xml version="1.0" encoding="us-ascii" standalone="no"?><svg xmlns="http://www.w3.org/2000/svg" xmlns:xlink="http://www.w3.org/1999/xlink" contentStyleType="text/css" height="342px" preserveAspectRatio="none" style="width:914px;height:342px;background:#FFFFFF;" version="1.1" viewBox="0 0 914 342" width="914px" zoomAndPan="magnify"><defs/><g><!--cluster crearGrado--><g id="cluster_crearGrado"><path d="M151,6.602 L239,6.602 A3.75,3.75 0 0 1 241.5,9.102 L248.5,31.6699 L534,31.6699 A2.5,2.5 0 0 1 536.5,34.1699 L536.5,333.102 A2.5,2.5 0 0 1 534,335.602 L151,335.602 A2.5,2.5 0 0 1 148.5,333.102 L148.5,9.102 A2.5,2.5 0 0 1 151,6.602 " fill="none" style="stroke:#000000;stroke-width:1.5;"/><line style="stroke:#000000;stroke-width:1.5;" x1="148.5" x2="248.5" y1="31.6699" y2="31.6699"/><text fill="#000000" font-family="sans-serif" font-size="14" font-weight="bold" lengthAdjust="spacing" textLength="87" x="152.5" y="23.5679">crearGrado()</text></g><!--entity CrearGradoView--><g id="elem_CrearGradoView"><rect fill="#629EF9" height="39.0679" rx="2.5" ry="2.5" style="stroke:#181818;stroke-width:0.5;" width="129" x="317" y="44.602"/><text fill="#000000" font-family="sans-serif" font-size="14" lengthAdjust="spacing" textLength="109" x="327" y="69.5679">CrearGradoView</text></g><!--entity GradoController--><g id="elem_GradoController"><rect fill="#B5BD68" height="39.0679" rx="2.5" ry="2.5" style="stroke:#181818;stroke-width:0.5;" width="128" x="201.5" y="162.602"/><text fill="#000000" font-family="sans-serif" font-size="14" lengthAdjust="spacing" textLength="108" x="211.5" y="187.5679">GradoController</text></g><!--entity GradoRepository--><g id="elem_GradoRepository"><rect fill="#F2AC4E" height="39.0679" rx="2.5" ry="2.5" style="stroke:#181818;stroke-width:0.5;" width="132" x="262.5" y="280.602"/><text fill="#000000" font-family="sans-serif" font-size="14" lengthAdjust="spacing" textLength="112" x="272.5" y="305.5679">GradoRepository</text></g><!--entity Grado--><g id="elem_Grado"><rect fill="#F2AC4E" height="39.0679" rx="2.5" ry="2.5" style="stroke:#181818;stroke-width:0.5;" width="61" x="417" y="162.602"/><text fill="#000000" font-family="sans-serif" font-size="14" lengthAdjust="spacing" textLength="41" x="427" y="187.5679">Grado</text></g><!--entity GradosAbierto--><g id="elem_GradosAbierto"><rect fill="#CDEBA5" height="39.0679" rx="2.5" ry="2.5" style="stroke:#181818;stroke-width:0.5;" width="125" x="7" y="44.602"/><text fill="#000000" font-family="sans-serif" font-size="14" lengthAdjust="spacing" textLength="105" x="17" y="69.5679">:Grados Abierto</text></g><!--entity GradoAbierto--><g id="elem_GradoAbierto"><rect fill="#CDEBA5" height="39.0679" rx="2.5" ry="2.5" style="stroke:#181818;stroke-width:0.5;" width="118" x="552.5" y="162.602"/><text fill="#000000" font-family="sans-serif" font-size="14" lengthAdjust="spacing" textLength="98" x="562.5" y="187.5679">:Grado Abierto</text></g><!--entity GradosAbiertoSalida--><g id="elem_GradosAbiertoSalida"><rect fill="#CDEBA5" height="39.0679" rx="2.5" ry="2.5" style="stroke:#181818;stroke-width:0.5;" width="125" x="783" y="162.602"/><text fill="#000000" font-family="sans-serif" font-size="14" lengthAdjust="spacing" textLength="105" x="793" y="187.5679">:Grados Abierto</text></g><!--link GradosAbierto to CrearGradoView--><g id="link_GradosAbierto_CrearGradoView"><path d="M132.26,64.102 C185.91,64.102 256.8,64.102 310.96,64.102 " fill="none" id="GradosAbierto-to-CrearGradoView" style="stroke:#181818;stroke-width:1.0;"/><polygon fill="#181818" points="316.96,64.102,307.96,60.102,311.96,64.102,307.96,68.102,316.96,64.102" style="stroke:#181818;stroke-width:1.0;"/><text fill="#000000" font-family="sans-serif" font-size="13" lengthAdjust="spacing" textLength="75" x="187" y="56.999">crearGrado()</text></g><!--link CrearGradoView to GradoController--><g id="link_CrearGradoView_GradoController"><path d="M345.43,83.712 C318.92,97.392 287.5,113.602 287.5,113.602 C287.5,113.602 279.9988,136.6172 273.4888,156.5972 " fill="none" id="CrearGradoView-to-GradoController" style="stroke:#181818;stroke-width:1.0;"/><polygon fill="#181818" points="271.63,162.302,278.2214,154.9839,273.179,157.548,270.615,152.5056,271.63,162.302" style="stroke:#181818;stroke-width:1.0;"/><text fill="#000000" font-family="sans-serif" font-size="13" lengthAdjust="spacing" textLength="253" x="288.5" y="128.499">crear(codigo, nombre, descripcion) : Grado</text></g><!--link GradoController to GradoRepository--><g id="link_GradoController_GradoRepository"><path d="M239.02,201.712 C219.56,215.392 196.5,231.602 196.5,231.602 C196.5,231.602 196.5,250.602 196.5,250.602 C196.5,250.602 234.9883,264.7421 272.2083,278.4221 " fill="none" id="GradoController-to-GradoRepository" style="stroke:#181818;stroke-width:1.0;"/><polygon fill="#181818" points="277.84,280.492,270.7724,273.6327,273.147,278.7671,268.0126,281.1416,277.84,280.492" style="stroke:#181818;stroke-width:1.0;"/><text fill="#000000" font-family="sans-serif" font-size="13" lengthAdjust="spacing" textLength="185" x="197.5" y="246.499">existeCodigo(codigo) : Boolean</text></g><!--link GradoController to GradoRepository--><g id="link_GradoController_GradoRepository"><path d="M312.32,201.712 C346.72,215.392 387.5,231.602 387.5,231.602 C387.5,231.602 387.5,250.602 387.5,250.602 C387.5,250.602 372.4148,263.0016 355.7748,276.6816 " fill="none" id="GradoController-to-GradoRepository-1" style="stroke:#181818;stroke-width:1.0;"/><polygon fill="#181818" points="351.14,280.492,360.6324,277.8663,355.0023,277.3167,355.552,271.6866,351.14,280.492" style="stroke:#181818;stroke-width:1.0;"/><text fill="#000000" font-family="sans-serif" font-size="13" lengthAdjust="spacing" textLength="92" x="388.5" y="246.499">guardar(grado)</text></g><!--link GradoController to Grado--><g id="link_GradoController_Grado"><path d="M329.67,182.102 C359.35,182.102 387.21,182.102 410.99,182.102 " fill="none" id="GradoController-to-Grado" style="stroke:#181818;stroke-width:1.0;"/><polygon fill="#181818" points="416.99,182.102,407.99,178.102,411.99,182.102,407.99,186.102,416.99,182.102" style="stroke:#181818;stroke-width:1.0;"/><text fill="#000000" font-family="sans-serif" font-size="13" lengthAdjust="spacing" textLength="51" x="347.75" y="174.999">&#171;create&#187;</text></g><!--link CrearGradoView to GradoAbierto--><g id="link_CrearGradoView_GradoAbierto"><path d="M444.82,83.712 C491.35,97.392 546.5,113.602 546.5,113.602 C546.5,113.602 569.9993,137.999 589.2293,157.979 " fill="none" id="CrearGradoView-to-GradoAbierto" style="stroke:#181818;stroke-width:1.0;stroke-dasharray:7.0,7.0;"/><polygon fill="#181818" points="593.39,162.302,590.0309,153.0437,589.9227,158.6995,584.2669,158.5913,593.39,162.302" style="stroke:#181818;stroke-width:1.0;"/><text fill="#000000" font-family="sans-serif" font-size="13" lengthAdjust="spacing" textLength="218" x="564.5" y="128.499">&#171;finalizar&#187; editarGrado(nuevoGrado)</text></g><!--link CrearGradoView to GradosAbiertoSalida--><g id="link_CrearGradoView_GradosAbiertoSalida"><path d="M446.01,72.732 C561.48,86.392 791.5,113.602 791.5,113.602 C791.5,113.602 810.7324,137.6363 826.7124,157.6163 " fill="none" id="CrearGradoView-to-GradosAbiertoSalida" style="stroke:#181818;stroke-width:1.0;stroke-dasharray:7.0,7.0;"/><polygon fill="#181818" points="830.46,162.302,827.9624,152.7751,827.337,158.3973,821.7148,157.7719,830.46,162.302" style="stroke:#181818;stroke-width:1.0;"/><text fill="#000000" font-family="sans-serif" font-size="13" lengthAdjust="spacing" textLength="63" x="806.5" y="128.499">&#171;cancelar&#187;</text></g><!--SRC=[dP51Jy9048Nl-oiczGA9S212f25De09tJRnFTyTcmxBRJ1SLZV_TBYr2IoJ6tdRcpJVpNikDjWKoRi5eItvV41JExCD322RfqUQ6u2PzM2xcOuZYDQDo9SmpJUnT15X2NMegGXGeDvWJI2RaGo-8ejEpru_WKq3rdIsOZARBrHJI7zMpfhUkA1jdQd9VBqoTzUoC8UwgLgDvUhUiLOzKk59xn_jhAl5rnUobrwFL_-JpX4Oh5A9LX04Faext6CuJ4wBTXO6g9Zf1D2CzwPJEtIrOjysORa5HALaNKZlRXxYnB3h3PyHJQ37GkouzfGTY0mwCXNE6q5v2-0Y9OJOBvtXAaZ_kodV8ghe_3urBoyDXqie_R7ZHjWhq0pb9W9Jsny3iZbxTkkRyXcd_aiEzQ2MP01FV]--></g></svg>