<?xml version="1.0" encoding="us-ascii" standalone="no"?><svg xmlns="http://www.w3.org/2000/svg" xmlns:xlink="http://www.w3.org/1999/xlink" contentStyleType="text/css" height="696px" preserveAspectRatio="none" style="width:723px;height:696px;background:#FFFFFF;" version="1.1" viewBox="0 0 723 696" width="723px" zoomAndPan="magnify"><defs/><g><path d="M48.5,7 L659.5,7 A12.5,12.5 0 0 1 672,19.5 L672,34.6094 L36,34.6094 L36,19.5 A12.5,12.5 0 0 1 48.5,7 " fill="#F1F1F1" style="stroke:#F1F1F1;stroke-width:1.0;"/><rect fill="none" height="536.6094" rx="12.5" ry="12.5" style="stroke:#181818;stroke-width:0.5;" width="636" x="36" y="7"/><line style="stroke:#181818;stroke-width:0.5;" x1="36" x2="672" y1="34.6094" y2="34.6094"/><text fill="#000000" font-family="sans-serif" font-size="14" lengthAdjust="spacing" textLength="137" x="285.5" y="26.5332">consultarCalendario()</text><g id="consultarCalendario.MostrandoCalendario"><rect fill="#F1F1F1" height="50" rx="12.5" ry="12.5" style="stroke:#181818;stroke-width:0.5;" width="50" x="179" y="137.6094"/><line style="stroke:#181818;stroke-width:0.5;" x1="179" x2="229" y1="165.2188" y2="165.2188"/><text fill="#000000" font-family="sans-serif" font-size="14" lengthAdjust="spacing" textLength="4" x="202" y="157.1426">&#160;</text></g><g id="consultarCalendario.FiltrandoVista"><rect fill="#F1F1F1" height="50" rx="12.5" ry="12.5" style="stroke:#181818;stroke-width:0.5;" width="50" x="179" y="373.6094"/><line style="stroke:#181818;stroke-width:0.5;" x1="179" x2="229" y1="401.2188" y2="401.2188"/><text fill="#000000" font-family="sans-serif" font-size="14" lengthAdjust="spacing" textLength="4" x="202" y="393.1426">&#160;</text></g><ellipse cx="204" cy="55.6094" fill="#222222" rx="10" ry="10" style="stroke:#222222;stroke-width:1.0;"/><ellipse cx="204" cy="522.6094" fill="none" rx="11" ry="11" style="stroke:#222222;stroke-width:1.0;"/><ellipse cx="204" cy="522.6094" fill="#222222" rx="6" ry="6" style="stroke:#222222;stroke-width:1.0;"/><!--link *start*consultarCalendario to MostrandoCalendario--><g id="link_*start*consultarCalendario_MostrandoCalendario"><path d="M204,65.9294 C204,81.7894 204,108.5194 204,131.2494 " fill="none" id="*start*consultarCalendario-to-MostrandoCalendario" style="stroke:#008000;stroke-width:1.0;"/><polygon fill="#008000" points="204,137.2494,208,128.2494,204,132.2494,200,128.2494,204,137.2494" style="stroke:#008000;stroke-width:1.0;"/><path d="M209,88.6094 L209,114.6094 L448,114.6094 L448,98.6094 L438,88.6094 L209,88.6094 " fill="#FEFFDD" style="stroke:#181818;stroke-width:0.5;"/><path d="M438,88.6094 L438,98.6094 L448,98.6094 L438,88.6094 " fill="#FEFFDD" style="stroke:#181818;stroke-width:0.5;"/><text fill="#000000" font-family="sans-serif" font-size="13" font-weight="bold" lengthAdjust="spacing" textLength="53" x="215" y="107.1045">Profesor</text><text fill="#000000" font-family="sans-serif" font-size="13" lengthAdjust="spacing" textLength="161" x="272" y="107.1045">solicita consultar calendario</text></g><!--link MostrandoCalendario to FiltrandoVista--><g id="link_MostrandoCalendario_FiltrandoVista"><path d="M178.78,170.3594 C134.39,182.2294 47,205.6094 47,205.6094 C47,205.6094 47,355.6094 47,355.6094 C47,355.6094 128.5937,377.4394 172.9837,389.3094 " fill="none" id="MostrandoCalendario-to-FiltrandoVista" style="stroke:#008000;stroke-width:1.0;"/><polygon fill="#008000" points="178.78,390.8594,171.1188,384.6702,173.9497,389.5677,169.0522,392.3987,178.78,390.8594" style="stroke:#008000;stroke-width:1.0;"/><path d="M52,210.6094 L52,350.6094 L336,350.6094 L336,220.6094 L326,210.6094 L52,210.6094 " fill="#FEFFDD" style="stroke:#181818;stroke-width:0.5;"/><path d="M326,210.6094 L326,220.6094 L336,220.6094 L326,210.6094 " fill="#FEFFDD" style="stroke:#181818;stroke-width:0.5;"/><text fill="#000000" font-family="sans-serif" font-size="13" font-weight="bold" lengthAdjust="spacing" textLength="51" x="58" y="229.1045">Sistema</text><text fill="#000000" font-family="sans-serif" font-size="13" lengthAdjust="spacing" textLength="197" x="113" y="229.1045">presenta calendario personalizado</text><text fill="#000000" font-family="sans-serif" font-size="13" lengthAdjust="spacing" textLength="247" x="58" y="245.4561">&#8226; Muestra ex&#225;menes asignados al profesor</text><text fill="#000000" font-family="sans-serif" font-size="13" lengthAdjust="spacing" textLength="263" x="58" y="261.8076">&#8226; Muestra fecha, hora y aula de cada examen</text><text fill="#000000" font-family="sans-serif" font-size="13" lengthAdjust="spacing" textLength="167" x="58" y="278.1592">&#8226; Muestra asignatura y grado</text><text fill="#000000" font-family="sans-serif" font-size="13" lengthAdjust="spacing" textLength="192" x="58" y="294.5107">&#8226; Permite solicitar filtrar por fecha</text><text fill="#000000" font-family="sans-serif" font-size="13" lengthAdjust="spacing" textLength="227" x="58" y="310.8623">&#8226; Permite solicitar descargar calendario</text><text fill="#000000" font-family="sans-serif" font-size="13" lengthAdjust="spacing" textLength="229" x="58" y="327.2139">&#8226; Permite solicitar comunicar incidencia</text><text fill="#000000" font-family="sans-serif" font-size="13" lengthAdjust="spacing" textLength="193" x="58" y="343.5654">&#8226; Permite solicitar cerrar consulta</text></g><!--link FiltrandoVista to MostrandoCalendario--><g id="link_FiltrandoVista_MostrandoCalendario"><path d="M229.13,389.9094 C268.68,377.7794 341,355.6094 341,355.6094 C341,355.6094 341,205.6094 341,205.6094 C341,205.6094 274.4163,185.1987 234.8663,173.0687 " fill="none" id="FiltrandoVista-to-MostrandoCalendario" style="stroke:#008000;stroke-width:1.0;"/><polygon fill="#008000" points="229.13,171.3094,236.5615,177.7725,233.9102,172.7755,238.9073,170.1242,229.13,171.3094" style="stroke:#008000;stroke-width:1.0;"/><path d="M346,251.1094 L346,310.1094 L663,310.1094 L663,261.1094 L653,251.1094 L346,251.1094 " fill="#FEFFDD" style="stroke:#181818;stroke-width:0.5;"/><path d="M653,251.1094 L653,261.1094 L663,261.1094 L653,251.1094 " fill="#FEFFDD" style="stroke:#181818;stroke-width:0.5;"/><text fill="#000000" font-family="sans-serif" font-size="13" font-weight="bold" lengthAdjust="spacing" textLength="53" x="352" y="269.6045">Profesor</text><text fill="#000000" font-family="sans-serif" font-size="13" lengthAdjust="spacing" textLength="175" x="409" y="269.6045">solicita aplicar filtros por fecha</text><text fill="#000000" font-family="sans-serif" font-size="13" font-weight="bold" lengthAdjust="spacing" textLength="51" x="352" y="285.9561">Sistema</text><text fill="#000000" font-family="sans-serif" font-size="13" lengthAdjust="spacing" textLength="241" x="407" y="285.9561">visualiza y aplica los filtros seleccionados</text><text fill="#000000" font-family="sans-serif" font-size="13" font-weight="bold" lengthAdjust="spacing" textLength="51" x="352" y="302.3076">Sistema</text><text fill="#000000" font-family="sans-serif" font-size="13" lengthAdjust="spacing" textLength="155" x="407" y="302.3076">presenta calendario filtrado</text></g><!--link FiltrandoVista to *end*consultarCalendario--><g id="link_FiltrandoVista_*end*consultarCalendario"><path d="M204,423.7094 C204,450.3794 204,486.1094 204,505.3094 " fill="none" id="FiltrandoVista-to-*end*consultarCalendario" style="stroke:#008000;stroke-width:1.0;"/><polygon fill="#008000" points="204,511.3094,208,502.3094,204,506.3094,200,502.3094,204,511.3094" style="stroke:#008000;stroke-width:1.0;"/><path d="M209,446.6094 L209,488.6094 L509,488.6094 L509,456.6094 L499,446.6094 L209,446.6094 " fill="#FEFFDD" style="stroke:#181818;stroke-width:0.5;"/><path d="M499,446.6094 L499,456.6094 L509,456.6094 L499,446.6094 " fill="#FEFFDD" style="stroke:#181818;stroke-width:0.5;"/><text fill="#000000" font-family="sans-serif" font-size="13" font-weight="bold" lengthAdjust="spacing" textLength="53" x="215" y="465.1045">Profesor</text><text fill="#000000" font-family="sans-serif" font-size="13" lengthAdjust="spacing" textLength="131" x="272" y="465.1045">solicita cerrar consulta</text><text fill="#000000" font-family="sans-serif" font-size="13" font-weight="bold" lengthAdjust="spacing" textLength="51" x="215" y="481.4561">Sistema</text><text fill="#000000" font-family="sans-serif" font-size="13" lengthAdjust="spacing" textLength="224" x="270" y="481.4561">visualiza y cierra la vista del calendario</text></g><g id="CALENDARIO_ABIERTO"><rect fill="#F1F1F1" height="50" rx="12.5" ry="12.5" style="stroke:#181818;stroke-width:0.5;" width="176" x="7" y="640"/><line style="stroke:#181818;stroke-width:0.5;" x1="7" x2="183" y1="667.6094" y2="667.6094"/><text fill="#000000" font-family="sans-serif" font-size="14" lengthAdjust="spacing" textLength="156" x="17" y="659.5332">CALENDARIO_ABIERTO</text></g><g id="INCIDENCIAS_ABIERTO"><rect fill="#F1F1F1" height="50" rx="12.5" ry="12.5" style="stroke:#181818;stroke-width:0.5;" width="172" x="268" y="640"/><line style="stroke:#181818;stroke-width:0.5;" x1="268" x2="440" y1="667.6094" y2="667.6094"/><text fill="#000000" font-family="sans-serif" font-size="14" lengthAdjust="spacing" textLength="152" x="278" y="659.5332">INCIDENCIAS_ABIERTO</text></g><g id="SISTEMA_DISPONIBLE"><rect fill="#F1F1F1" height="50" rx="12.5" ry="12.5" style="stroke:#181818;stroke-width:0.5;" width="167" x="515.5" y="640"/><line style="stroke:#181818;stroke-width:0.5;" x1="515.5" x2="682.5" y1="667.6094" y2="667.6094"/><text fill="#000000" font-family="sans-serif" font-size="14" lengthAdjust="spacing" textLength="147" x="525.5" y="659.5332">SISTEMA_DISPONIBLE</text></g><!--link consultarCalendario to CALENDARIO_ABIERTO--><g id="link_consultarCalendario_CALENDARIO_ABIERTO"><path d="M147.11,544.11 C132.86,562.54 124,574 124,574 C124,574 113.2001,607.5091 104.6101,634.1691 " fill="none" id="consultarCalendario-to-CALENDARIO_ABIERTO" style="stroke:#008000;stroke-width:1.0;"/><polygon fill="#008000" points="102.77,639.88,109.3374,632.5404,104.3034,635.1209,101.7229,630.087,102.77,639.88" style="stroke:#008000;stroke-width:1.0;"/><path d="M129,579 L129,605 L338,605 L338,589 L328,579 L129,579 " fill="#FEFFDD" style="stroke:#181818;stroke-width:0.5;"/><path d="M328,579 L328,589 L338,589 L328,579 " fill="#FEFFDD" style="stroke:#181818;stroke-width:0.5;"/><text fill="#000000" font-family="sans-serif" font-size="13" lengthAdjust="spacing" textLength="188" x="135" y="597.4951">descargarCalendarioExamenes()</text></g><!--link consultarCalendario to INCIDENCIAS_ABIERTO--><g id="link_consultarCalendario_INCIDENCIAS_ABIERTO"><path d="M351.3,544.11 C351.12,562.54 351,574 351,574 C351,574 351,610 351,610 C351,610 351.5265,619.4793 352.3265,633.8493 " fill="none" id="consultarCalendario-to-INCIDENCIAS_ABIERTO" style="stroke:#008000;stroke-width:1.0;"/><polygon fill="#008000" points="352.66,639.84,356.1535,630.6316,352.3821,634.8477,348.1659,631.0763,352.66,639.84" style="stroke:#008000;stroke-width:1.0;"/><path d="M356,579 L356,605 L551,605 L551,589 L541,579 L356,579 " fill="#FEFFDD" style="stroke:#181818;stroke-width:0.5;"/><path d="M541,579 L541,589 L551,589 L541,579 " fill="#FEFFDD" style="stroke:#181818;stroke-width:0.5;"/><text fill="#000000" font-family="sans-serif" font-size="13" lengthAdjust="spacing" textLength="174" x="362" y="597.4951">comunicarIncidenciasHorario()</text></g><!--link consultarCalendario to SISTEMA_DISPONIBLE--><g id="link_consultarCalendario_SISTEMA_DISPONIBLE"><path d="M539.3,544.11 C552.06,562.54 560,574 560,574 C560,574 574.6148,607.7145 586.1648,634.3745 " fill="none" id="consultarCalendario-to-SISTEMA_DISPONIBLE" style="stroke:#008000;stroke-width:1.0;"/><polygon fill="#008000" points="588.55,639.88,588.6426,630.0316,586.5623,635.2921,581.3019,633.2118,588.55,639.88" style="stroke:#008000;stroke-width:1.0;"/><path d="M579,579 L579,605 L716,605 L716,589 L706,579 L579,579 " fill="#FEFFDD" style="stroke:#181818;stroke-width:0.5;"/><path d="M706,579 L706,589 L716,589 L706,579 " fill="#FEFFDD" style="stroke:#181818;stroke-width:0.5;"/><text fill="#000000" font-family="sans-serif" font-size="13" lengthAdjust="spacing" textLength="116" x="585" y="597.4951">completarConsulta()</text></g><!--SRC=[hLJjQjim5FslfxXaVzgniXSe0JVncA7ve2xxKqgvbMzIKLaoabsMZS5UPNkLlScUP5To4yUPksKm3BOidtlE_JYoVrIcGeSbQ6MetbG4bTMRy2A4hx4caDRuHjVe9gZ95EYK1VGm6jW_EHt1vstSY2_6pQol7Ph2Th0-u9tIBU23udqXRbxVmjdDgxKZChTduq42OpdUcf3qepY_7o-TNP6txlpj_HYyrKgg6hlCGNQX_8GGBiG0SK_u8B53pPntgSGeMJdoP89aHrMHyzQWLf-miEBdr-ymQoWe0dtyyQqaGvxBLsl3dtcbcQGjeeTTaNp0D_1WURq1R3H2mJF18j0Wi_JGBL_THF3QROMNv4h5sMyxus0LQtCyRDTAl80ho4jqwtuBXw7IberHZ0Pbf2g8Ro-nId8kHhJpsPj9l-V_oGTOwPXNB9fxtHLzCCOdvPiuiD3g60IQyTiuJvgaL3PEx1WBj5qkx745il6FDVP1__vGXbG12soRfoXOa1uy3L-463he-_bDaijqFaskiiLTSf6bLzUBVhexhtJnQRGe-PFJlHRyJIURJx9fohSa7nRQEItR6Ss_vmCI_q3_89Hd-NKwI-wcMRvSpBEBo_GtdKfJY7ycscV_1G00]--></g></svg>