<?xml version="1.0" encoding="us-ascii" standalone="no"?><svg xmlns="http://www.w3.org/2000/svg" xmlns:xlink="http://www.w3.org/1999/xlink" contentStyleType="text/css" height="342px" preserveAspectRatio="none" style="width:715px;height:342px;background:#FFFFFF;" version="1.1" viewBox="0 0 715 342" width="715px" zoomAndPan="magnify"><defs/><g><!--cluster editarGrado--><g id="cluster_editarGrado"><path d="M151,6.602 L245,6.602 A3.75,3.75 0 0 1 247.5,9.102 L254.5,31.6699 L543,31.6699 A2.5,2.5 0 0 1 545.5,34.1699 L545.5,333.102 A2.5,2.5 0 0 1 543,335.602 L151,335.602 A2.5,2.5 0 0 1 148.5,333.102 L148.5,9.102 A2.5,2.5 0 0 1 151,6.602 " fill="none" style="stroke:#000000;stroke-width:1.5;"/><line style="stroke:#000000;stroke-width:1.5;" x1="148.5" x2="254.5" y1="31.6699" y2="31.6699"/><text fill="#000000" font-family="sans-serif" font-size="14" font-weight="bold" lengthAdjust="spacing" textLength="93" x="152.5" y="23.5679">editarGrado()</text></g><!--entity EditarGradoView--><g id="elem_EditarGradoView"><rect fill="#629EF9" height="39.0679" rx="2.5" ry="2.5" style="stroke:#181818;stroke-width:0.5;" width="132" x="340.5" y="44.602"/><text fill="#000000" font-family="sans-serif" font-size="14" lengthAdjust="spacing" textLength="112" x="350.5" y="69.5679">EditarGradoView</text></g><!--entity GradoController--><g id="elem_GradoController"><rect fill="#B5BD68" height="39.0679" rx="2.5" ry="2.5" style="stroke:#181818;stroke-width:0.5;" width="128" x="164.5" y="162.602"/><text fill="#000000" font-family="sans-serif" font-size="14" lengthAdjust="spacing" textLength="108" x="174.5" y="187.5679">GradoController</text></g><!--entity GradoRepository--><g id="elem_GradoRepository"><rect fill="#F2AC4E" height="39.0679" rx="2.5" ry="2.5" style="stroke:#181818;stroke-width:0.5;" width="132" x="262.5" y="280.602"/><text fill="#000000" font-family="sans-serif" font-size="14" lengthAdjust="spacing" textLength="112" x="272.5" y="305.5679">GradoRepository</text></g><!--entity Grado--><g id="elem_Grado"><rect fill="#F2AC4E" height="39.0679" rx="2.5" ry="2.5" style="stroke:#181818;stroke-width:0.5;" width="61" x="386" y="162.602"/><text fill="#000000" font-family="sans-serif" font-size="14" lengthAdjust="spacing" textLength="41" x="396" y="187.5679">Grado</text></g><!--entity GradosAbierto--><g id="elem_GradosAbierto"><rect fill="#CDEBA5" height="39.0679" rx="2.5" ry="2.5" style="stroke:#181818;stroke-width:0.5;" width="125" x="7" y="44.602"/><text fill="#000000" font-family="sans-serif" font-size="14" lengthAdjust="spacing" textLength="105" x="17" y="69.5679">:Grados Abierto</text></g><!--entity GradosAbiertoSalida--><g id="elem_GradosAbiertoSalida"><rect fill="#CDEBA5" height="39.0679" rx="2.5" ry="2.5" style="stroke:#181818;stroke-width:0.5;" width="125" x="584" y="162.602"/><text fill="#000000" font-family="sans-serif" font-size="14" lengthAdjust="spacing" textLength="105" x="594" y="187.5679">:Grados Abierto</text></g><!--link GradosAbierto to EditarGradoView--><g id="link_GradosAbierto_EditarGradoView"><path d="M132.1,64.102 C191.39,64.102 274.11,64.102 334.5,64.102 " fill="none" id="GradosAbierto-to-EditarGradoView" style="stroke:#181818;stroke-width:1.0;"/><polygon fill="#181818" points="340.5,64.102,331.5,60.102,335.5,64.102,331.5,68.102,340.5,64.102" style="stroke:#181818;stroke-width:1.0;"/><text fill="#000000" font-family="sans-serif" font-size="13" lengthAdjust="spacing" textLength="116" x="178.25" y="56.999">editarGrado(grado)</text></g><!--link EditarGradoView to GradoController--><g id="link_EditarGradoView_GradoController"><path d="M340.43,80.582 C279.85,94.772 199.5,113.602 199.5,113.602 C199.5,113.602 199.5,132.602 199.5,132.602 C199.5,132.602 206.1108,143.6624 214.2908,157.3424 " fill="none" id="EditarGradoView-to-GradoController" style="stroke:#181818;stroke-width:1.0;"/><polygon fill="#181818" points="217.37,162.492,216.1842,152.7148,214.804,158.2006,209.3181,156.8204,217.37,162.492" style="stroke:#181818;stroke-width:1.0;"/><text fill="#000000" font-family="sans-serif" font-size="13" lengthAdjust="spacing" textLength="322" x="200.5" y="128.499">actualizar(grado, codigo, nombre, descripcion) : Grado</text></g><!--link GradoController to GradoRepository--><g id="link_GradoController_GradoRepository"><path d="M216.22,201.712 C207.2,215.392 196.5,231.602 196.5,231.602 C196.5,231.602 196.5,250.602 196.5,250.602 C196.5,250.602 234.9883,264.7421 272.2083,278.4221 " fill="none" id="GradoController-to-GradoRepository" style="stroke:#181818;stroke-width:1.0;"/><polygon fill="#181818" points="277.84,280.492,270.7724,273.6327,273.147,278.7671,268.0126,281.1416,277.84,280.492" style="stroke:#181818;stroke-width:1.0;"/><text fill="#000000" font-family="sans-serif" font-size="13" lengthAdjust="spacing" textLength="185" x="197.5" y="246.499">existeCodigo(codigo) : Boolean</text></g><!--link GradoController to GradoRepository--><g id="link_GradoController_GradoRepository"><path d="M289.52,201.712 C334.36,215.392 387.5,231.602 387.5,231.602 C387.5,231.602 387.5,250.602 387.5,250.602 C387.5,250.602 372.4148,263.0016 355.7748,276.6816 " fill="none" id="GradoController-to-GradoRepository-1" style="stroke:#181818;stroke-width:1.0;"/><polygon fill="#181818" points="351.14,280.492,360.6324,277.8663,355.0023,277.3167,355.552,271.6866,351.14,280.492" style="stroke:#181818;stroke-width:1.0;"/><text fill="#000000" font-family="sans-serif" font-size="13" lengthAdjust="spacing" textLength="101" x="388.5" y="246.499">actualizar(grado)</text></g><!--link GradoController to Grado--><g id="link_GradoController_Grado"><path d="M292.67,182.102 C324.16,182.102 354.63,182.102 379.79,182.102 " fill="none" id="GradoController-to-Grado" style="stroke:#181818;stroke-width:1.0;"/><polygon fill="#181818" points="385.79,182.102,376.79,178.102,380.79,182.102,376.79,186.102,385.79,182.102" style="stroke:#181818;stroke-width:1.0;"/><text fill="#000000" font-family="sans-serif" font-size="13" lengthAdjust="spacing" textLength="57" x="310.75" y="174.999">&#171;update&#187;</text></g><!--link EditarGradoView to GradosAbiertoSalida--><g id="link_EditarGradoView_GradosAbiertoSalida"><path d="M452.94,83.712 C487.06,97.392 527.5,113.602 527.5,113.602 C527.5,113.602 573.2209,139.5421 608.4509,159.5221 " fill="none" id="EditarGradoView-to-GradosAbiertoSalida" style="stroke:#181818;stroke-width:1.0;stroke-dasharray:7.0,7.0;"/><polygon fill="#181818" points="613.67,162.482,607.8146,154.5627,609.3208,160.0154,603.8681,161.5215,613.67,162.482" style="stroke:#181818;stroke-width:1.0;"/><text fill="#000000" font-family="sans-serif" font-size="13" lengthAdjust="spacing" textLength="60" x="559.5" y="128.499">&#171;finalizar&#187;</text></g><!--link EditarGradoView to GradosAbiertoSalida--><g id="link_EditarGradoView_GradosAbiertoSalida"><path d="M472.51,79.522 C537.95,93.822 628.5,113.602 628.5,113.602 C628.5,113.602 634.6135,136.5247 639.9435,156.5047 " fill="none" id="EditarGradoView-to-GradosAbiertoSalida-1" style="stroke:#181818;stroke-width:1.0;stroke-dasharray:7.0,7.0;"/><polygon fill="#181818" points="641.49,162.302,643.0351,152.5751,640.2012,157.4709,635.3054,154.6371,641.49,162.302" style="stroke:#181818;stroke-width:1.0;"/><text fill="#000000" font-family="sans-serif" font-size="13" lengthAdjust="spacing" textLength="63" x="633.5" y="128.499">&#171;cancelar&#187;</text></g><!--SRC=[dL1TJy8m57tlhxYPBv003qI8B6G9pE6x9hxVjTUbeRJDNOcYyR-xCGop4gFseKrlpqVFgRVQUcJSWT6Mmi4JU6SExKK89XdGLeRWAhyjrgiP9EaTet8rh4fD75m2M4CtEas4y2YtM16GqW7v-DYYajvzC4pWJK2pUXRpwQBOBA0umnurFSUeSbQg-KtdcJiRs1b37ACsqrL-NNIeU_Akri7nuIUKUFzVtWSqMg4GNuOmvd4M9qdxZGogTXyA4O5Wh1fcb2u5b67V6BqYTyGHIATqrPpMxKgc4IYg9MiljRD3I4-PH2JKKp-tqlphHTU1ygFYe1DkDTRE6KBxNOG_HL9OBlTUOQ0i-wLNdEH21PD9TgdZrkn9suxS-Fs19j5ACaVM1m00]--></g></svg>