<?xml version="1.0" encoding="UTF-8" standalone="no"?><svg xmlns="http://www.w3.org/2000/svg" xmlns:xlink="http://www.w3.org/1999/xlink" contentScriptType="application/ecmascript" contentStyleType="text/css" height="365px" preserveAspectRatio="none" style="width:719px;height:365px;" version="1.1" viewBox="0 0 719 365" width="719px" zoomAndPan="magnify"><defs><filter height="300%" id="fr47cf928izm" width="300%" x="-1" y="-1"><feGaussianBlur result="blurOut" stdDeviation="2.0"/><feColorMatrix in="blurOut" result="blurOut2" type="matrix" values="0 0 0 0 0 0 0 0 0 0 0 0 0 0 0 0 0 0 .4 0"/><feOffset dx="4.0" dy="4.0" in="blurOut2" result="blurOut3"/><feBlend in="SourceGraphic" in2="blurOut3" mode="normal"/></filter></defs><g><!--MD5=[013887e6c9ed553c446f2c66e804d716]
cluster editarGrado--><polygon fill="#FFFFFF" filter="url(#fr47cf928izm)" points="147.5,24,246.5,24,253.5,49.0679,544.5,49.0679,544.5,353,147.5,353,147.5,24" style="stroke: #000000; stroke-width: 1.5;"/><line style="stroke: #000000; stroke-width: 1.5;" x1="147.5" x2="253.5" y1="49.0679" y2="49.0679"/><text fill="#000000" font-family="sans-serif" font-size="14" font-weight="bold" lengthAdjust="spacingAndGlyphs" textLength="93" x="151.5" y="40.9659">editarGrado()</text><!--MD5=[db334035c44e15322f35afc7429967df]
entity EditarGradoView--><rect fill="#629EF9" filter="url(#fr47cf928izm)" height="39.0679" style="stroke: #000000; stroke-width: 1.5;" width="132" x="339.5" y="62"/><text fill="#000000" font-family="sans-serif" font-size="14" lengthAdjust="spacingAndGlyphs" textLength="112" x="349.5" y="86.9659">EditarGradoView</text><!--MD5=[a3e98a5f49c68695f130a43f280d8ecf]
entity GradoController--><rect fill="#B5BD68" filter="url(#fr47cf928izm)" height="39.0679" style="stroke: #000000; stroke-width: 1.5;" width="128" x="163.5" y="180"/><text fill="#000000" font-family="sans-serif" font-size="14" lengthAdjust="spacingAndGlyphs" textLength="108" x="173.5" y="204.9659">GradoController</text><!--MD5=[9db62e2c3b018035cc77fb2476be44ee]
entity GradoRepository--><rect fill="#F2AC4E" filter="url(#fr47cf928izm)" height="39.0679" style="stroke: #000000; stroke-width: 1.5;" width="132" x="261.5" y="298"/><text fill="#000000" font-family="sans-serif" font-size="14" lengthAdjust="spacingAndGlyphs" textLength="112" x="271.5" y="322.9659">GradoRepository</text><!--MD5=[cbab0994e6ada9fe76b72748ce5407a5]
entity Grado--><rect fill="#F2AC4E" filter="url(#fr47cf928izm)" height="39.0679" style="stroke: #000000; stroke-width: 1.5;" width="61" x="385" y="180"/><text fill="#000000" font-family="sans-serif" font-size="14" lengthAdjust="spacingAndGlyphs" textLength="41" x="395" y="204.9659">Grado</text><!--MD5=[3e6950dcd7c5974da44e54c6a1f84818]
entity GradosAbierto--><rect fill="#CDEBA5" filter="url(#fr47cf928izm)" height="39.0679" style="stroke: #000000; stroke-width: 1.5;" width="125" x="6" y="62"/><text fill="#000000" font-family="sans-serif" font-size="14" lengthAdjust="spacingAndGlyphs" textLength="105" x="16" y="86.9659">:Grados Abierto</text><!--MD5=[8e378021382d6056b9e85f89fdf49294]
entity GradosAbiertoSalida--><rect fill="#CDEBA5" filter="url(#fr47cf928izm)" height="39.0679" style="stroke: #000000; stroke-width: 1.5;" width="125" x="583" y="180"/><text fill="#000000" font-family="sans-serif" font-size="14" lengthAdjust="spacingAndGlyphs" textLength="105" x="593" y="204.9659">:Grados Abierto</text><!--MD5=[aef31c956222b603dd8d3923abf29217]
link GradosAbierto to EditarGradoView--><path d="M131.1,81.5 C188.77,81.5 274.28,81.5 334.48,81.5 " fill="none" id="GradosAbierto-&gt;EditarGradoView" style="stroke: #A80036; stroke-width: 1.0;"/><polygon fill="#A80036" points="339.5,81.5,330.5,77.5,334.5,81.5,330.5,85.5,339.5,81.5" style="stroke: #A80036; stroke-width: 1.0;"/><text fill="#000000" font-family="sans-serif" font-size="13" lengthAdjust="spacingAndGlyphs" textLength="116" x="177.25" y="74.397">editarGrado(grado)</text><!--MD5=[124eb22bfe595ed965bb354c7a1ce16f]
link EditarGradoView to GradoController--><path d="M339.43,97.98 C278.85,112.17 198.5,131 198.5,131 C198.5,131 198.5,150 198.5,150 C198.5,150 206.19,162.86 213.65,175.33 " fill="none" id="EditarGradoView-&gt;GradoController" style="stroke: #A80036; stroke-width: 1.0;"/><polygon fill="#A80036" points="216.37,179.89,215.2078,170.11,213.8143,175.5925,208.3318,174.199,216.37,179.89" style="stroke: #A80036; stroke-width: 1.0;"/><text fill="#000000" font-family="sans-serif" font-size="13" lengthAdjust="spacingAndGlyphs" textLength="322" x="199.5" y="145.897">actualizar(grado, codigo, nombre, descripcion) : Grado</text><!--MD5=[e1d8aaea052639662974e84b9c6de6e8]
link GradoController to GradoRepository--><path d="M215.22,219.11 C206.2,232.79 195.5,249 195.5,249 C195.5,249 195.5,268 195.5,268 C195.5,268 235.91,282.85 272.01,296.11 " fill="none" id="GradoController-&gt;GradoRepository" style="stroke: #A80036; stroke-width: 1.0;"/><polygon fill="#A80036" points="276.84,297.89,269.7555,291.0482,272.1427,296.1767,267.0142,298.5639,276.84,297.89" style="stroke: #A80036; stroke-width: 1.0;"/><text fill="#000000" font-family="sans-serif" font-size="13" lengthAdjust="spacingAndGlyphs" textLength="185" x="196.5" y="263.897">existeCodigo(codigo) : Boolean</text><!--MD5=[e1d8aaea052639662974e84b9c6de6e8]
link GradoController to GradoRepository--><path d="M288.52,219.11 C333.36,232.79 386.5,249 386.5,249 C386.5,249 386.5,268 386.5,268 C386.5,268 369.74,281.78 354.09,294.64 " fill="none" id="GradoController-&gt;GradoRepository-1" style="stroke: #A80036; stroke-width: 1.0;"/><polygon fill="#A80036" points="350.14,297.89,359.6264,295.2428,353.9951,294.706,354.532,289.0746,350.14,297.89" style="stroke: #A80036; stroke-width: 1.0;"/><text fill="#000000" font-family="sans-serif" font-size="13" lengthAdjust="spacingAndGlyphs" textLength="101" x="387.5" y="263.897">actualizar(grado)</text><!--MD5=[93bfaa4fffc67940d12682b33dd034b6]
link GradoController to Grado--><path d="M291.67,199.5 C321.07,199.5 354.8,199.5 379.63,199.5 " fill="none" id="GradoController-&gt;Grado" style="stroke: #A80036; stroke-width: 1.0;"/><polygon fill="#A80036" points="384.79,199.5,375.79,195.5,379.79,199.5,375.79,203.5,384.79,199.5" style="stroke: #A80036; stroke-width: 1.0;"/><text fill="#000000" font-family="sans-serif" font-size="13" lengthAdjust="spacingAndGlyphs" textLength="57" x="309.75" y="192.397">«update»</text><!--MD5=[dc2d74d47bbcbc75a85bdddc426c7a98]
link EditarGradoView to GradosAbiertoSalida--><path d="M451.94,101.11 C486.06,114.79 526.5,131 526.5,131 C526.5,131 573.16,157.47 608.05,177.25 " fill="none" id="EditarGradoView-&gt;GradosAbiertoSalida" style="stroke: #A80036; stroke-width: 1.0; stroke-dasharray: 7.0,7.0;"/><polygon fill="#A80036" points="612.67,179.88,606.8066,171.9667,608.3183,177.4178,602.8671,178.9295,612.67,179.88" style="stroke: #A80036; stroke-width: 1.0;"/><text fill="#000000" font-family="sans-serif" font-size="13" lengthAdjust="spacingAndGlyphs" textLength="60" x="558.5" y="145.897">«finalizar»</text><!--MD5=[dc2d74d47bbcbc75a85bdddc426c7a98]
link EditarGradoView to GradosAbiertoSalida--><path d="M471.51,96.92 C536.95,111.22 627.5,131 627.5,131 C627.5,131 633.9,155 639.07,174.38 " fill="none" id="EditarGradoView-&gt;GradosAbiertoSalida-1" style="stroke: #A80036; stroke-width: 1.0; stroke-dasharray: 7.0,7.0;"/><polygon fill="#A80036" points="640.49,179.7,642.0396,169.9738,639.2035,174.8684,634.3089,172.0323,640.49,179.7" style="stroke: #A80036; stroke-width: 1.0;"/><text fill="#000000" font-family="sans-serif" font-size="13" lengthAdjust="spacingAndGlyphs" textLength="63" x="632.5" y="145.897">«cancelar»</text><!--MD5=[4547bbaef1cc01c6abd995e617bbe6c6]
@startuml editarGrado-analisis
skinparam linetype polyline

rectangle #CDEBA5 ":Grados Abierto" as GradosAbierto

package editarGrado as "editarGrado()" {
    rectangle #629EF9 EditarGradoView
    rectangle #b5bd68 GradoController
    rectangle #F2AC4E GradoRepository
    rectangle #F2AC4E Grado
}

rectangle #CDEBA5 ":Grados Abierto" as GradosAbiertoSalida

GradosAbierto -r-> EditarGradoView: editarGrado(grado)

EditarGradoView -d-> GradoController: actualizar(grado, codigo, nombre, descripcion) : Grado

GradoController -d-> GradoRepository: existeCodigo(codigo) : Boolean
GradoController -r-> Grado: <<update>>
GradoController -d-> GradoRepository: actualizar(grado)

EditarGradoView ..> GradosAbiertoSalida: <<finalizar>>
EditarGradoView ..> GradosAbiertoSalida: <<cancelar>>

@enduml

PlantUML version 1.2020.02(Sun Mar 01 11:22:07 CET 2020)
(GPL source distribution)
Java Runtime: OpenJDK Runtime Environment
JVM: OpenJDK 64-Bit Server VM
Java Version: 21.0.10+7-Ubuntu-125.10
Operating System: Linux
Default Encoding: UTF-8
Language: es
Country: ES
--></g></svg>