<?xml version="1.0" encoding="us-ascii" standalone="no"?><svg xmlns="http://www.w3.org/2000/svg" xmlns:xlink="http://www.w3.org/1999/xlink" contentStyleType="text/css" height="328px" preserveAspectRatio="none" style="width:1014px;height:328px;background:#FFFFFF;" version="1.1" viewBox="0 0 1014 328" width="1014px" zoomAndPan="magnify"><defs/><g><!--cluster editarGrado--><g id="cluster_editarGrado"><path d="M8.5,6.016 L89.5,6.016 A3.75,3.75 0 0 1 92,8.516 L99,28.3601 L382.5,28.3601 A2.5,2.5 0 0 1 385,30.8601 L385,318.516 A2.5,2.5 0 0 1 382.5,321.016 L8.5,321.016 A2.5,2.5 0 0 1 6,318.516 L6,8.516 A2.5,2.5 0 0 1 8.5,6.016 " fill="none" style="stroke:#000000;stroke-width:1.5;"/><line style="stroke:#000000;stroke-width:1.5;" x1="6" x2="99" y1="28.3601" y2="28.3601"/><text fill="#000000" font-family="sans-serif" font-size="12" font-weight="bold" lengthAdjust="spacing" textLength="80" x="10" y="20.8441">editarGrado()</text></g><!--entity EditarGradoView--><g id="elem_EditarGradoView"><rect fill="#629EF9" height="36.3441" rx="2.5" ry="2.5" style="stroke:#181818;stroke-width:0.5;" width="114" x="255" y="41.016"/><text fill="#000000" font-family="sans-serif" font-size="12" lengthAdjust="spacing" textLength="94" x="265" y="63.8441">EditarGradoView</text></g><!--entity GradoController--><g id="elem_GradoController"><rect fill="#B5BD68" height="36.3441" rx="2.5" ry="2.5" style="stroke:#181818;stroke-width:0.5;" width="111" x="21.5" y="155.016"/><text fill="#000000" font-family="sans-serif" font-size="12" lengthAdjust="spacing" textLength="91" x="31.5" y="177.8441">GradoController</text></g><!--entity GradoRepository--><g id="elem_GradoRepository"><rect fill="#F2AC4E" height="36.3441" rx="2.5" ry="2.5" style="stroke:#181818;stroke-width:0.5;" width="114" x="118" y="269.016"/><text fill="#000000" font-family="sans-serif" font-size="12" lengthAdjust="spacing" textLength="94" x="128" y="291.8441">GradoRepository</text></g><!--entity Grado--><g id="elem_Grado"><rect fill="#F2AC4E" height="36.3441" rx="2.5" ry="2.5" style="stroke:#181818;stroke-width:0.5;" width="55" x="220.5" y="155.016"/><text fill="#000000" font-family="sans-serif" font-size="12" lengthAdjust="spacing" textLength="35" x="230.5" y="177.8441">Grado</text></g><!--entity GradosAbierto--><g id="elem_GradosAbierto"><rect fill="#CDEBA5" height="36.3441" rx="2.5" ry="2.5" style="stroke:#181818;stroke-width:0.5;" width="108" x="499" y="155.016"/><text fill="#000000" font-family="sans-serif" font-size="12" lengthAdjust="spacing" textLength="88" x="509" y="177.8441">:Grados Abierto</text></g><!--entity GradoAbierto--><g id="elem_GradoAbierto"><rect fill="#CDEBA5" height="36.3441" rx="2.5" ry="2.5" style="stroke:#181818;stroke-width:0.5;" width="102" x="782" y="155.016"/><text fill="#000000" font-family="sans-serif" font-size="12" lengthAdjust="spacing" textLength="82" x="792" y="177.8441">:Grado Abierto</text></g><!--link GradosAbierto to EditarGradoView--><g id="link_GradosAbierto_EditarGradoView"><path d="M498.71,155.446 C454.37,141.916 399,125.016 399,125.016 C399,125.016 365.436,99.948 339.666,80.688 " fill="none" id="GradosAbierto-to-EditarGradoView" style="stroke:#181818;stroke-width:1.0;"/><polygon fill="#181818" points="334.86,77.096,339.6744,85.688,338.865,80.0893,344.4637,79.2799,334.86,77.096" style="stroke:#181818;stroke-width:1.0;"/><text fill="#000000" font-family="sans-serif" font-size="12" lengthAdjust="spacing" textLength="109" x="400" y="120.8441">editarGrado(grado)</text></g><!--link EditarGradoView to GradosAbierto--><g id="link_EditarGradoView_GradosAbierto"><path d="M369.08,73.296 C428.81,87.196 514,107.016 514,107.016 C514,107.016 528.1142,130.5304 539.6642,149.7904 " fill="none" id="EditarGradoView-to-GradosAbierto" style="stroke:#181818;stroke-width:1.0;stroke-dasharray:7.0,7.0;"/><polygon fill="#181818" points="542.75,154.936,541.5517,145.1603,540.1785,150.648,534.6909,149.2747,542.75,154.936" style="stroke:#181818;stroke-width:1.0;"/><text fill="#000000" font-family="sans-serif" font-size="12" lengthAdjust="spacing" textLength="136" x="526" y="120.8441">&#171;finalizar&#187; abrirGrados()</text></g><!--link EditarGradoView to GradosAbierto--><g id="link_EditarGradoView_GradosAbierto"><path d="M369.28,67.516 C470.64,80.786 671,107.016 671,107.016 C671,107.016 671,125.016 671,125.016 C671,125.016 635.244,139.2557 601.504,152.6957 " fill="none" id="EditarGradoView-to-GradosAbierto-1" style="stroke:#181818;stroke-width:1.0;stroke-dasharray:7.0,7.0;"/><polygon fill="#181818" points="595.93,154.916,605.7713,155.3015,600.575,153.0657,602.8108,147.8694,595.93,154.916" style="stroke:#181818;stroke-width:1.0;"/><text fill="#000000" font-family="sans-serif" font-size="12" lengthAdjust="spacing" textLength="60" x="672" y="120.8441">&#171;cancelar&#187;</text></g><!--link EditarGradoView to GradoController--><g id="link_EditarGradoView_GradoController"><path d="M254.74,70.446 C178.73,84.296 54,107.016 54,107.016 C54,107.016 54,125.016 54,125.016 C54,125.016 59.3618,135.9772 65.9318,149.3972 " fill="none" id="EditarGradoView-to-GradoController" style="stroke:#181818;stroke-width:1.0;"/><polygon fill="#181818" points="68.57,154.786,68.2053,144.9439,66.3715,150.2953,61.0201,148.4615,68.57,154.786" style="stroke:#181818;stroke-width:1.0;"/><text fill="#000000" font-family="sans-serif" font-size="12" lengthAdjust="spacing" textLength="303" x="55" y="120.8441">actualizar(grado, codigo, nombre, descripcion) : Grado</text></g><!--link GradoController to GradoRepository--><g id="link_GradoController_GradoRepository"><path d="M68.57,191.246 C62,204.666 54,221.016 54,221.016 C54,221.016 54,239.016 54,239.016 C54,239.016 90.7873,253.303 125.3773,266.743 " fill="none" id="GradoController-to-GradoRepository" style="stroke:#181818;stroke-width:1.0;"/><polygon fill="#181818" points="130.97,268.916,124.0297,261.928,126.3094,267.1052,121.1323,269.3849,130.97,268.916" style="stroke:#181818;stroke-width:1.0;"/><text fill="#000000" font-family="sans-serif" font-size="12" lengthAdjust="spacing" textLength="172" x="55" y="234.8441">existeCodigo(codigo) : Boolean</text></g><!--link GradoController to GradoRepository--><g id="link_GradoController_GradoRepository"><path d="M132.52,190.856 C177,204.336 232,221.016 232,221.016 C232,221.016 232,239.016 232,239.016 C232,239.016 216.7986,251.5482 200.5286,264.9682 " fill="none" id="GradoController-to-GradoRepository-1" style="stroke:#181818;stroke-width:1.0;"/><polygon fill="#181818" points="195.9,268.786,205.3882,266.145,199.7572,265.6045,200.2977,259.9735,195.9,268.786" style="stroke:#181818;stroke-width:1.0;"/><text fill="#000000" font-family="sans-serif" font-size="12" lengthAdjust="spacing" textLength="96" x="233" y="234.8441">actualizar(grado)</text></g><!--link GradoController to Grado--><g id="link_GradoController_Grado"><path d="M132.52,173.016 C161.78,173.016 190.39,173.016 214.05,173.016 " fill="none" id="GradoController-to-Grado" style="stroke:#181818;stroke-width:1.0;"/><polygon fill="#181818" points="220.05,173.016,211.05,169.016,215.05,173.016,211.05,177.016,220.05,173.016" style="stroke:#181818;stroke-width:1.0;"/><text fill="#000000" font-family="sans-serif" font-size="12" lengthAdjust="spacing" textLength="51" x="151" y="165.8441">&#171;update&#187;</text></g><!--link EditarGradoView to GradoAbierto--><g id="link_EditarGradoView_GradoAbierto"><path d="M369.41,66.306 C486.31,79.116 741,107.016 741,107.016 C741,107.016 776.6697,132.2138 803.9297,151.4738 " fill="none" id="EditarGradoView-to-GradoAbierto" style="stroke:#181818;stroke-width:1.0;stroke-dasharray:7.0,7.0;"/><polygon fill="#181818" points="808.83,154.936,803.7877,146.4758,804.7464,152.0508,799.1714,153.0096,808.83,154.936" style="stroke:#181818;stroke-width:1.0;"/><text fill="#000000" font-family="sans-serif" font-size="12" lengthAdjust="spacing" textLength="45" x="766" y="120.8441">&#171;editar&#187;</text></g><!--link GradoAbierto to GradoAbierto--><g id="link_GradoAbierto_GradoAbierto"><path d="M884.21,162.536 C903.29,162.196 919,165.686 919,173.016 C919,180.346 909.289,183.9429 890.209,183.6029 " fill="none" id="GradoAbierto-to-GradoAbierto" style="stroke:#181818;stroke-width:1.0;"/><polygon fill="#181818" points="884.21,183.496,893.1373,187.6557,889.2092,183.5851,893.2798,179.657,884.21,183.496" style="stroke:#181818;stroke-width:1.0;"/><text fill="#000000" font-family="sans-serif" font-size="12" lengthAdjust="spacing" textLength="76" x="925" y="177.8441">editarGrado()</text></g><!--SRC=[ZLBTQy8m47_FNt5qBmfJc4oPHGfQTUyRxFtQdZKOavAaE1txtvSQFsfrOXuIaljztH6puh90ZMj8C5tbMfKoYvLG6ZPBRecPKzqiCLCRBdDOe33rofGMM0exLz9wQYASrct09zyHlFHgHS4bsMr1K2YnhIwCQKejobmGFCNJsMJSXo1yryxUm3ZXfAqA00tufyFB_wHhpf722fSJSmBAk4NjqGuKrEwjTW0_3Dog6Gnwmzby2BCpx8lJfebA-aasUFEMiUjTAo58Dr7ptZX-dNdK1nNASAlqzXwA_J9sqJjqT2TgfWdhNRNoQcyprW119tFCHi8GCBKb2hv3xOdFaAgCv-wKQfreUeQCJAfvaN8bsn0USh66K4tzt9dBzSsDfNYlsFB2bSP4AK4ehqNqKII4qQWiChGKHGzwDJkvCO9kDxhu5fMB7ztHvJJcJXDvyL7kI9kQze9BdoYA01FDFTuu_aFq56LAOX_k3m00]--></g></svg>