<?xml version="1.0" encoding="us-ascii" standalone="no"?><svg xmlns="http://www.w3.org/2000/svg" xmlns:xlink="http://www.w3.org/1999/xlink" contentStyleType="text/css" height="425px" preserveAspectRatio="none" style="width:1161px;height:425px;background:#FFFFFF;" version="1.1" viewBox="0 0 1161 425" width="1161px" zoomAndPan="magnify"><defs/><g><!--cluster importarAulas--><g id="cluster_importarAulas"><path d="M123.5,6.016 L218.5,6.016 A3.75,3.75 0 0 1 221,8.516 L228,28.3601 L895.5,28.3601 A2.5,2.5 0 0 1 898,30.8601 L898,415.516 A2.5,2.5 0 0 1 895.5,418.016 L123.5,418.016 A2.5,2.5 0 0 1 121,415.516 L121,8.516 A2.5,2.5 0 0 1 123.5,6.016 " fill="none" style="stroke:#000000;stroke-width:1.5;"/><line style="stroke:#000000;stroke-width:1.5;" x1="121" x2="228" y1="28.3601" y2="28.3601"/><text fill="#000000" font-family="sans-serif" font-size="12" font-weight="bold" lengthAdjust="spacing" textLength="94" x="125" y="20.8441">importarAulas()</text></g><!--entity ImportarAulasView--><g id="elem_ImportarAulasView"><rect fill="#629EF9" height="36.3441" rx="2.5" ry="2.5" style="stroke:#181818;stroke-width:0.5;" width="127" x="492.5" y="41.016"/><text fill="#000000" font-family="sans-serif" font-size="12" lengthAdjust="spacing" textLength="107" x="502.5" y="63.8441">ImportarAulasView</text></g><!--entity AulaController--><g id="elem_AulaController"><rect fill="#B5BD68" height="36.3441" rx="2.5" ry="2.5" style="stroke:#181818;stroke-width:0.5;" width="101" x="361.5" y="155.016"/><text fill="#000000" font-family="sans-serif" font-size="12" lengthAdjust="spacing" textLength="81" x="371.5" y="177.8441">AulaController</text></g><!--entity AulaRepository--><g id="elem_AulaRepository"><rect fill="#F2AC4E" height="36.3441" rx="2.5" ry="2.5" style="stroke:#181818;stroke-width:0.5;" width="104" x="360" y="269.016"/><text fill="#000000" font-family="sans-serif" font-size="12" lengthAdjust="spacing" textLength="84" x="370" y="291.8441">AulaRepository</text></g><!--entity Aula--><g id="elem_Aula"><rect fill="#F2AC4E" height="36.3441" rx="2.5" ry="2.5" style="stroke:#181818;stroke-width:0.5;" width="45" x="389.5" y="366.016"/><text fill="#000000" font-family="sans-serif" font-size="12" lengthAdjust="spacing" textLength="25" x="399.5" y="388.8441">Aula</text></g><!--entity AulasAbierto--><g id="elem_AulasAbierto"><rect fill="#CDEBA5" height="36.3441" rx="2.5" ry="2.5" style="stroke:#181818;stroke-width:0.5;" width="98" x="7" y="41.016"/><text fill="#000000" font-family="sans-serif" font-size="12" lengthAdjust="spacing" textLength="78" x="17" y="63.8441">:Aulas Abierto</text></g><!--entity AulasAbiertoSalida--><g id="elem_AulasAbiertoSalida"><rect fill="#CDEBA5" height="36.3441" rx="2.5" ry="2.5" style="stroke:#181818;stroke-width:0.5;" width="98" x="975" y="155.016"/><text fill="#000000" font-family="sans-serif" font-size="12" lengthAdjust="spacing" textLength="78" x="985" y="177.8441">:Aulas Abierto</text></g><!--link AulasAbierto to ImportarAulasView--><g id="link_AulasAbierto_ImportarAulasView"><path d="M105.31,59.016 C196.47,59.016 385.24,59.016 486.26,59.016 " fill="none" id="AulasAbierto-to-ImportarAulasView" style="stroke:#181818;stroke-width:1.0;"/><polygon fill="#181818" points="492.26,59.016,483.26,55.016,487.26,59.016,483.26,63.016,492.26,59.016" style="stroke:#181818;stroke-width:1.0;"/><text fill="#000000" font-family="sans-serif" font-size="12" lengthAdjust="spacing" textLength="88" x="254.75" y="51.8441">importarAulas()</text></g><!--link ImportarAulasView to AulaController--><g id="link_ImportarAulasView_AulaController"><path d="M492.09,67.776 C382.18,81.126 169,107.016 169,107.016 C169,107.016 169,125.016 169,125.016 C169,125.016 284.2491,147.3071 355.4691,161.0771 " fill="none" id="ImportarAulasView-to-AulaController" style="stroke:#181818;stroke-width:1.0;"/><polygon fill="#181818" points="361.36,162.216,353.283,156.5803,356.4509,161.2669,351.7643,164.4348,361.36,162.216" style="stroke:#181818;stroke-width:1.0;"/><text fill="#000000" font-family="sans-serif" font-size="12" lengthAdjust="spacing" textLength="198" x="170" y="120.8441">obtenerFormatoRequerido() : String</text></g><!--link ImportarAulasView to AulaController--><g id="link_ImportarAulasView_AulaController"><path d="M502.51,77.116 C460.48,90.556 409,107.016 409,107.016 C409,107.016 409,125.016 409,125.016 C409,125.016 409.6563,135.3783 410.5163,148.7983 " fill="none" id="ImportarAulasView-to-AulaController-1" style="stroke:#181818;stroke-width:1.0;"/><polygon fill="#181818" points="410.9,154.786,414.3162,145.5486,410.5802,149.7963,406.3326,146.0603,410.9,154.786" style="stroke:#181818;stroke-width:1.0;"/><text fill="#000000" font-family="sans-serif" font-size="12" lengthAdjust="spacing" textLength="247" x="410" y="120.8441">obtenerTiposAulaDisponibles() : List&lt;String&gt;</text></g><!--link ImportarAulasView to AulaController--><g id="link_ImportarAulasView_AulaController"><path d="M594.57,77.116 C624.88,90.556 662,107.016 662,107.016 C662,107.016 662,125.016 662,125.016 C662,125.016 541.5367,147.6677 468.4867,161.3977 " fill="none" id="ImportarAulasView-to-AulaController-2" style="stroke:#181818;stroke-width:1.0;"/><polygon fill="#181818" points="462.59,162.506,472.174,164.7747,467.504,161.5824,470.6962,156.9124,462.59,162.506" style="stroke:#181818;stroke-width:1.0;"/><text fill="#000000" font-family="sans-serif" font-size="12" lengthAdjust="spacing" textLength="179" x="663" y="120.8441">importar(archivo) : ImportResult</text></g><!--link AulaController to AulaRepository--><g id="link_AulaController_AulaRepository"><path d="M412,191.026 C412,212.076 412,241.716 412,262.846 " fill="none" id="AulaController-to-AulaRepository" style="stroke:#181818;stroke-width:1.0;"/><polygon fill="#181818" points="412,268.846,416,259.846,412,263.846,408,259.846,412,268.846" style="stroke:#181818;stroke-width:1.0;"/><text fill="#000000" font-family="sans-serif" font-size="12" lengthAdjust="spacing" textLength="174" x="413" y="234.8441">guardarLote(aulas) : List&lt;Aula&gt;</text></g><!--link AulaRepository to Aula--><g id="link_AulaRepository_Aula"><path d="M412,305.436 C412,322.586 412,348.596 412,365.706 " fill="none" id="AulaRepository-Aula" style="stroke:#181818;stroke-width:1.0;"/></g><!--link ImportarAulasView to AulasAbiertoSalida--><g id="link_ImportarAulasView_AulasAbiertoSalida"><path d="M619.65,70.156 C706.37,83.976 851,107.016 851,107.016 C851,107.016 921.6734,133.5657 972.9334,152.8257 " fill="none" id="ImportarAulasView-to-AulasAbiertoSalida" style="stroke:#181818;stroke-width:1.0;stroke-dasharray:7.0,7.0;"/><polygon fill="#181818" points="978.55,154.936,971.532,148.0261,973.8695,153.1774,968.7182,155.5149,978.55,154.936" style="stroke:#181818;stroke-width:1.0;"/><text fill="#000000" font-family="sans-serif" font-size="12" lengthAdjust="spacing" textLength="121" x="898" y="120.8441">finalizarImportacion()</text></g><!--link ImportarAulasView to AulasAbiertoSalida--><g id="link_ImportarAulasView_AulasAbiertoSalida"><path d="M619.66,66.356 C748.49,79.186 1028,107.016 1028,107.016 C1028,107.016 1028,125.016 1028,125.016 C1028,125.016 1027.1179,135.3876 1025.9779,148.8076 " fill="none" id="ImportarAulasView-to-AulasAbiertoSalida-1" style="stroke:#181818;stroke-width:1.0;stroke-dasharray:7.0,7.0;"/><polygon fill="#181818" points="1025.47,154.786,1030.2174,146.1569,1025.8932,149.804,1022.2461,145.4798,1025.47,154.786" style="stroke:#181818;stroke-width:1.0;"/><text fill="#000000" font-family="sans-serif" font-size="12" lengthAdjust="spacing" textLength="124" x="1029" y="120.8441">cancelarImportacion()</text></g><!--SRC=[dL9DJ-D03BtFhx2wbt88qbQ085fLAlsGa3YrYBkJkAd5T1my4wg2-EzC6g2XL2jsenncxFUU_Upn3-mgL5n3Xlb3gLAxOYnM53Oh3cJyPzwli90DknAMQ7qtCw4brZRCn8MMcjceTHomu6U2tuDEqhAZiAq8Ah7RvcACKXxGbPRWrtWolHwTGoyTrHOzZ38c3TA3vjn4tWF6LB4abWIyhaG3QekFV-zBf7_IWnS3yUiKkHXSJMTNSDC5tZDj3d7PULPSNEuAZwCN5Mj93q6pmMXyDjs1vbI9vo2w_Gl8lFwFuGLQBj2ORWmIJORVNQHmC05Zlc4WAIBrgx4K90laI6UYQmmofyUQb0lfdq0AYw3nBVoZqXt7WJIv2VjA76UM_4xjbdtuqqeEVzpUXwq-QhxY9sc4MkgSV7nlxNJsZBtAVZ4fb3LgWNehWVhO5Fpifq4EMv4z0PAaNTkHBazFXqUMbCAINJmzexvJSXONr_1pWHnTJlQG_mO0]--></g></svg>