<?xml version="1.0" encoding="us-ascii" standalone="no"?><svg xmlns="http://www.w3.org/2000/svg" xmlns:xlink="http://www.w3.org/1999/xlink" contentStyleType="text/css" height="342px" preserveAspectRatio="none" style="width:1385px;height:342px;background:#FFFFFF;" version="1.1" viewBox="0 0 1385 342" width="1385px" zoomAndPan="magnify"><defs/><g><!--cluster crearExamen--><g id="cluster_crearExamen"><path d="M171,6.602 L272,6.602 A3.75,3.75 0 0 1 274.5,9.102 L281.5,31.6699 L970,31.6699 A2.5,2.5 0 0 1 972.5,34.1699 L972.5,333.102 A2.5,2.5 0 0 1 970,335.602 L171,335.602 A2.5,2.5 0 0 1 168.5,333.102 L168.5,9.102 A2.5,2.5 0 0 1 171,6.602 " fill="none" style="stroke:#000000;stroke-width:1.5;"/><line style="stroke:#000000;stroke-width:1.5;" x1="168.5" x2="281.5" y1="31.6699" y2="31.6699"/><text fill="#000000" font-family="sans-serif" font-size="14" font-weight="bold" lengthAdjust="spacing" textLength="100" x="172.5" y="23.5679">crearExamen()</text></g><!--entity CrearExamenView--><g id="elem_CrearExamenView"><rect fill="#629EF9" height="39.0679" rx="2.5" ry="2.5" style="stroke:#181818;stroke-width:0.5;" width="141" x="564" y="44.602"/><text fill="#000000" font-family="sans-serif" font-size="14" lengthAdjust="spacing" textLength="121" x="574" y="69.5679">CrearExamenView</text></g><!--entity ExamenController--><g id="elem_ExamenController"><rect fill="#B5BD68" height="39.0679" rx="2.5" ry="2.5" style="stroke:#181818;stroke-width:0.5;" width="140" x="376.5" y="162.602"/><text fill="#000000" font-family="sans-serif" font-size="14" lengthAdjust="spacing" textLength="120" x="386.5" y="187.5679">ExamenController</text></g><!--entity ExamenRepository--><g id="elem_ExamenRepository"><rect fill="#F2AC4E" height="39.0679" rx="2.5" ry="2.5" style="stroke:#181818;stroke-width:0.5;" width="144" x="257.5" y="280.602"/><text fill="#000000" font-family="sans-serif" font-size="14" lengthAdjust="spacing" textLength="124" x="267.5" y="305.5679">ExamenRepository</text></g><!--entity AsignaturaRepository--><g id="elem_AsignaturaRepository"><rect fill="#F2AC4E" height="39.0679" rx="2.5" ry="2.5" style="stroke:#181818;stroke-width:0.5;" width="165" x="510" y="280.602"/><text fill="#000000" font-family="sans-serif" font-size="14" lengthAdjust="spacing" textLength="145" x="520" y="305.5679">AsignaturaRepository</text></g><!--entity Examen--><g id="elem_Examen"><rect fill="#F2AC4E" height="39.0679" rx="2.5" ry="2.5" style="stroke:#181818;stroke-width:0.5;" width="73" x="604" y="162.602"/><text fill="#000000" font-family="sans-serif" font-size="14" lengthAdjust="spacing" textLength="53" x="614" y="187.5679">Examen</text></g><!--entity ExamenesAbierto--><g id="elem_ExamenesAbierto"><rect fill="#CDEBA5" height="39.0679" rx="2.5" ry="2.5" style="stroke:#181818;stroke-width:0.5;" width="145" x="7" y="44.602"/><text fill="#000000" font-family="sans-serif" font-size="14" lengthAdjust="spacing" textLength="125" x="17" y="69.5679">:Ex&#225;menes Abierto</text></g><!--entity ExamenAbierto--><g id="elem_ExamenAbierto"><rect fill="#CDEBA5" height="39.0679" rx="2.5" ry="2.5" style="stroke:#181818;stroke-width:0.5;" width="130" x="988.5" y="162.602"/><text fill="#000000" font-family="sans-serif" font-size="14" lengthAdjust="spacing" textLength="110" x="998.5" y="187.5679">:Examen Abierto</text></g><!--entity ExamenesAbiertoSalida--><g id="elem_ExamenesAbiertoSalida"><rect fill="#CDEBA5" height="39.0679" rx="2.5" ry="2.5" style="stroke:#181818;stroke-width:0.5;" width="145" x="1234" y="162.602"/><text fill="#000000" font-family="sans-serif" font-size="14" lengthAdjust="spacing" textLength="125" x="1244" y="187.5679">:Ex&#225;menes Abierto</text></g><!--link ExamenesAbierto to CrearExamenView--><g id="link_ExamenesAbierto_CrearExamenView"><path d="M152.06,64.102 C259.01,64.102 451.73,64.102 557.68,64.102 " fill="none" id="ExamenesAbierto-to-CrearExamenView" style="stroke:#181818;stroke-width:1.0;"/><polygon fill="#181818" points="563.68,64.102,554.68,60.102,558.68,64.102,554.68,68.102,563.68,64.102" style="stroke:#181818;stroke-width:1.0;"/><text fill="#000000" font-family="sans-serif" font-size="13" lengthAdjust="spacing" textLength="86" x="315" y="56.999">crearExamen()</text></g><!--link CrearExamenView to ExamenController--><g id="link_CrearExamenView_ExamenController"><path d="M563.93,73.332 C445.24,87.162 218.5,113.602 218.5,113.602 C218.5,113.602 218.5,132.602 218.5,132.602 C218.5,132.602 303.3713,150.6536 370.3613,164.9036 " fill="none" id="CrearExamenView-to-ExamenController" style="stroke:#181818;stroke-width:1.0;"/><polygon fill="#181818" points="376.23,166.152,368.2592,160.367,371.3394,165.1117,366.5947,168.1919,376.23,166.152" style="stroke:#181818;stroke-width:1.0;"/><text fill="#000000" font-family="sans-serif" font-size="13" lengthAdjust="spacing" textLength="371" x="219.5" y="128.499">buscarAsignaturas(criterio, pagina) : PagedResult&lt;Asignatura&gt;</text></g><!--link CrearExamenView to ExamenController--><g id="link_CrearExamenView_ExamenController"><path d="M623.64,83.902 C612.1,103.882 595.5,132.602 595.5,132.602 C595.5,132.602 551.4053,146.9546 509.3853,160.6346 " fill="none" id="CrearExamenView-to-ExamenController-1" style="stroke:#181818;stroke-width:1.0;"/><polygon fill="#181818" points="503.68,162.492,513.4762,163.5094,508.4344,160.9441,510.9996,155.9024,503.68,162.492" style="stroke:#181818;stroke-width:1.0;"/><text fill="#000000" font-family="sans-serif" font-size="13" lengthAdjust="spacing" textLength="320" x="606.5" y="128.499">crear(codigo, fecha, duracion, id_asignatura) : Examen</text></g><!--link ExamenController to AsignaturaRepository--><g id="link_ExamenController_AsignaturaRepository"><path d="M479.12,201.712 C503.09,215.392 531.5,231.602 531.5,231.602 C531.5,231.602 553.4378,255.8698 571.4878,275.8498 " fill="none" id="ExamenController-to-AsignaturaRepository" style="stroke:#181818;stroke-width:1.0;"/><polygon fill="#181818" points="575.51,280.302,572.4449,270.9422,572.1582,276.5918,566.5086,276.3051,575.51,280.302" style="stroke:#181818;stroke-width:1.0;"/><text fill="#000000" font-family="sans-serif" font-size="13" lengthAdjust="spacing" textLength="362" x="548.5" y="246.499">buscarPaginadas(criterio, pagina) : PagedResult&lt;Asignatura&gt;</text></g><!--link ExamenController to ExamenRepository--><g id="link_ExamenController_ExamenRepository"><path d="M376.24,197.922 C308.6,212.182 216.5,231.602 216.5,231.602 C216.5,231.602 216.5,250.602 216.5,250.602 C216.5,250.602 248.7567,264.4447 280.6167,278.1247 " fill="none" id="ExamenController-to-ExamenRepository" style="stroke:#181818;stroke-width:1.0;"/><polygon fill="#181818" points="286.13,280.492,279.4383,273.2656,281.5356,278.5193,276.2819,280.6166,286.13,280.492" style="stroke:#181818;stroke-width:1.0;"/><text fill="#000000" font-family="sans-serif" font-size="13" lengthAdjust="spacing" textLength="185" x="217.5" y="246.499">existeCodigo(codigo) : Boolean</text></g><!--link ExamenController to ExamenRepository--><g id="link_ExamenController_ExamenRepository"><path d="M435.64,201.902 C424.1,221.882 407.5,250.602 407.5,250.602 C407.5,250.602 386.5253,263.6437 364.5253,277.3237 " fill="none" id="ExamenController-to-ExamenRepository-1" style="stroke:#181818;stroke-width:1.0;"/><polygon fill="#181818" points="359.43,280.492,369.1851,279.1363,363.6761,277.8517,364.9607,272.3426,359.43,280.492" style="stroke:#181818;stroke-width:1.0;"/><text fill="#000000" font-family="sans-serif" font-size="13" lengthAdjust="spacing" textLength="104" x="418.5" y="246.499">guardar(examen)</text></g><!--link ExamenController to Examen--><g id="link_ExamenController_Examen"><path d="M516.54,182.102 C546.06,182.102 573.2,182.102 597.78,182.102 " fill="none" id="ExamenController-to-Examen" style="stroke:#181818;stroke-width:1.0;"/><polygon fill="#181818" points="603.78,182.102,594.78,178.102,598.78,182.102,594.78,186.102,603.78,182.102" style="stroke:#181818;stroke-width:1.0;"/><text fill="#000000" font-family="sans-serif" font-size="13" lengthAdjust="spacing" textLength="51" x="534.75" y="174.999">&#171;create&#187;</text></g><!--link CrearExamenView to ExamenAbierto--><g id="link_CrearExamenView_ExamenAbierto"><path d="M705.07,76.472 C794.04,90.812 935.5,113.602 935.5,113.602 C935.5,113.602 980.8122,139.5223 1015.7322,159.5023 " fill="none" id="CrearExamenView-to-ExamenAbierto" style="stroke:#181818;stroke-width:1.0;stroke-dasharray:7.0,7.0;"/><polygon fill="#181818" points="1020.94,162.482,1015.1148,154.5405,1016.6002,159.9989,1011.1418,161.4843,1020.94,162.482" style="stroke:#181818;stroke-width:1.0;"/><text fill="#000000" font-family="sans-serif" font-size="13" lengthAdjust="spacing" textLength="240" x="967.5" y="128.499">&#171;finalizar&#187; editarExamen(nuevoExamen)</text></g><!--link CrearExamenView to ExamenesAbiertoSalida--><g id="link_CrearExamenView_ExamenesAbiertoSalida"><path d="M705.28,71.002 C860.39,83.922 1216.5,113.602 1216.5,113.602 C1216.5,113.602 1250.0006,138.7211 1276.6306,158.7011 " fill="none" id="CrearExamenView-to-ExamenesAbiertoSalida" style="stroke:#181818;stroke-width:1.0;stroke-dasharray:7.0,7.0;"/><polygon fill="#181818" points="1281.43,162.302,1276.6315,153.7011,1277.4305,159.3013,1271.8304,160.1003,1281.43,162.302" style="stroke:#181818;stroke-width:1.0;"/><text fill="#000000" font-family="sans-serif" font-size="13" lengthAdjust="spacing" textLength="63" x="1241.5" y="128.499">&#171;cancelar&#187;</text></g><!--SRC=[dPBHJi8m58Rl-nGdU0C9S664o4AMp3cl3IRUcaDxd8sbNTfEGUF3-2o-cDiOe1KYkhls_Fl-dlySzoXrWHONeAGcloe82gDMzO4nIzoZpXN1INgPNIGZw4JPykDzGPeS97D9rfiEe8DiYSrbUyTOWVmHSm9k2UswMkiwNyxTNWTU6LJV5v_nwIIxca2wazrAUWvLyz5SZCzRrzHeRurIP4FPrMcIdcMjR4Q5ST8RkpeWIvpCDVhIug_IDP6z7OgeQVTdFfjq_fth3IefaB7W6WPs48UPHV0jQyQ2EWn4zLCOOGJpqd6qkp1SbrlfoKhJXm9pgR474LnNmnKpSgNoqvqsPY5lxR8lsetJTSCKV_GvjficWoutGkOLzvxu0_P1L0WkZUw357UufTP-xMGFz15kKWIqbCvJsl1RcnfpOOmYr7imTek9O3gjd-SfZe_soqkqekg8cigUgGw7yVTjgstkgpILV44Rnq12-krQw9AUJDQo3gE21MnUZfgJgedi4m00]--></g></svg>