<?xml version="1.0" encoding="UTF-8" standalone="no"?><svg xmlns="http://www.w3.org/2000/svg" xmlns:xlink="http://www.w3.org/1999/xlink" contentScriptType="application/ecmascript" contentStyleType="text/css" height="365px" preserveAspectRatio="none" style="width:1389px;height:365px;" version="1.1" viewBox="0 0 1389 365" width="1389px" zoomAndPan="magnify"><defs><filter height="300%" id="f3xpyqp7w5o0f" width="300%" x="-1" y="-1"><feGaussianBlur result="blurOut" stdDeviation="2.0"/><feColorMatrix in="blurOut" result="blurOut2" type="matrix" values="0 0 0 0 0 0 0 0 0 0 0 0 0 0 0 0 0 0 .4 0"/><feOffset dx="4.0" dy="4.0" in="blurOut2" result="blurOut3"/><feBlend in="SourceGraphic" in2="blurOut3" mode="normal"/></filter></defs><g><!--MD5=[b3e30544df09e9d1ace9719bc1926bab]
cluster crearExamen--><polygon fill="#FFFFFF" filter="url(#f3xpyqp7w5o0f)" points="167.5,24,273.5,24,280.5,49.0679,971.5,49.0679,971.5,353,167.5,353,167.5,24" style="stroke: #000000; stroke-width: 1.5;"/><line style="stroke: #000000; stroke-width: 1.5;" x1="167.5" x2="280.5" y1="49.0679" y2="49.0679"/><text fill="#000000" font-family="sans-serif" font-size="14" font-weight="bold" lengthAdjust="spacingAndGlyphs" textLength="100" x="171.5" y="40.9659">crearExamen()</text><!--MD5=[e0acae49827f12de0b265e124f64f41d]
entity CrearExamenView--><rect fill="#629EF9" filter="url(#f3xpyqp7w5o0f)" height="39.0679" style="stroke: #000000; stroke-width: 1.5;" width="141" x="563" y="62"/><text fill="#000000" font-family="sans-serif" font-size="14" lengthAdjust="spacingAndGlyphs" textLength="121" x="573" y="86.9659">CrearExamenView</text><!--MD5=[a0cc848f358757d9ed156c143613f0f9]
entity ExamenController--><rect fill="#B5BD68" filter="url(#f3xpyqp7w5o0f)" height="39.0679" style="stroke: #000000; stroke-width: 1.5;" width="140" x="375.5" y="180"/><text fill="#000000" font-family="sans-serif" font-size="14" lengthAdjust="spacingAndGlyphs" textLength="120" x="385.5" y="204.9659">ExamenController</text><!--MD5=[97050d334ed30f4c908ad0f304c354e6]
entity ExamenRepository--><rect fill="#F2AC4E" filter="url(#f3xpyqp7w5o0f)" height="39.0679" style="stroke: #000000; stroke-width: 1.5;" width="144" x="256.5" y="298"/><text fill="#000000" font-family="sans-serif" font-size="14" lengthAdjust="spacingAndGlyphs" textLength="124" x="266.5" y="322.9659">ExamenRepository</text><!--MD5=[e2226bdb67ed4b44a20a11abd64e4519]
entity AsignaturaRepository--><rect fill="#F2AC4E" filter="url(#f3xpyqp7w5o0f)" height="39.0679" style="stroke: #000000; stroke-width: 1.5;" width="165" x="509" y="298"/><text fill="#000000" font-family="sans-serif" font-size="14" lengthAdjust="spacingAndGlyphs" textLength="145" x="519" y="322.9659">AsignaturaRepository</text><!--MD5=[36e1cd41f0b9a6266d1c26662ca7763f]
entity Examen--><rect fill="#F2AC4E" filter="url(#f3xpyqp7w5o0f)" height="39.0679" style="stroke: #000000; stroke-width: 1.5;" width="73" x="603" y="180"/><text fill="#000000" font-family="sans-serif" font-size="14" lengthAdjust="spacingAndGlyphs" textLength="53" x="613" y="204.9659">Examen</text><!--MD5=[1b59c6b49b3ec9d0c99e18c672ed8f68]
entity ExamenesAbierto--><rect fill="#CDEBA5" filter="url(#f3xpyqp7w5o0f)" height="39.0679" style="stroke: #000000; stroke-width: 1.5;" width="145" x="6" y="62"/><text fill="#000000" font-family="sans-serif" font-size="14" lengthAdjust="spacingAndGlyphs" textLength="125" x="16" y="86.9659">:Exámenes Abierto</text><!--MD5=[04175f18adc45297680a96689e02c961]
entity ExamenAbierto--><rect fill="#CDEBA5" filter="url(#f3xpyqp7w5o0f)" height="39.0679" style="stroke: #000000; stroke-width: 1.5;" width="130" x="987.5" y="180"/><text fill="#000000" font-family="sans-serif" font-size="14" lengthAdjust="spacingAndGlyphs" textLength="110" x="997.5" y="204.9659">:Examen Abierto</text><!--MD5=[042054d2ac44d5dab263878681d8c220]
entity ExamenesAbiertoSalida--><rect fill="#CDEBA5" filter="url(#f3xpyqp7w5o0f)" height="39.0679" style="stroke: #000000; stroke-width: 1.5;" width="145" x="1233" y="180"/><text fill="#000000" font-family="sans-serif" font-size="14" lengthAdjust="spacingAndGlyphs" textLength="125" x="1243" y="204.9659">:Exámenes Abierto</text><!--MD5=[c5d2b06b7b59bf337def50d508f945f4]
link ExamenesAbierto to CrearExamenView--><path d="M151.06,81.5 C256.34,81.5 450.54,81.5 557.65,81.5 " fill="none" id="ExamenesAbierto-&gt;CrearExamenView" style="stroke: #A80036; stroke-width: 1.0;"/><polygon fill="#A80036" points="562.68,81.5,553.68,77.5,557.68,81.5,553.68,85.5,562.68,81.5" style="stroke: #A80036; stroke-width: 1.0;"/><text fill="#000000" font-family="sans-serif" font-size="13" lengthAdjust="spacingAndGlyphs" textLength="86" x="314" y="74.397">crearExamen()</text><!--MD5=[d963f8168c06659bd7380ff68064f5a2]
link CrearExamenView to ExamenController--><path d="M562.93,90.73 C444.24,104.56 217.5,131 217.5,131 C217.5,131 217.5,150 217.5,150 C217.5,150 303.69,168.33 370.09,182.46 " fill="none" id="CrearExamenView-&gt;ExamenController" style="stroke: #A80036; stroke-width: 1.0;"/><polygon fill="#A80036" points="375.23,183.55,367.2633,177.7594,370.3402,182.5063,365.5933,185.5831,375.23,183.55" style="stroke: #A80036; stroke-width: 1.0;"/><text fill="#000000" font-family="sans-serif" font-size="13" lengthAdjust="spacingAndGlyphs" textLength="371" x="218.5" y="145.897">buscarAsignaturas(criterio, pagina) : PagedResult&lt;Asignatura&gt;</text><!--MD5=[d963f8168c06659bd7380ff68064f5a2]
link CrearExamenView to ExamenController--><path d="M622.64,101.3 C611.1,121.28 594.5,150 594.5,150 C594.5,150 548.51,164.97 507.64,178.27 " fill="none" id="CrearExamenView-&gt;ExamenController-1" style="stroke: #A80036; stroke-width: 1.0;"/><polygon fill="#A80036" points="502.68,179.89,512.4787,180.883,507.4305,178.3303,509.9832,173.2822,502.68,179.89" style="stroke: #A80036; stroke-width: 1.0;"/><text fill="#000000" font-family="sans-serif" font-size="13" lengthAdjust="spacingAndGlyphs" textLength="320" x="605.5" y="145.897">crear(codigo, fecha, duracion, id_asignatura) : Examen</text><!--MD5=[afdd2eaf9ae4ab60538e204ba0ac2006]
link ExamenController to AsignaturaRepository--><path d="M478.12,219.11 C502.09,232.79 530.5,249 530.5,249 C530.5,249 553.32,274.25 571.04,293.86 " fill="none" id="ExamenController-&gt;AsignaturaRepository" style="stroke: #A80036; stroke-width: 1.0;"/><polygon fill="#A80036" points="574.51,297.7,571.4247,288.3469,571.1502,293.9971,565.5,293.7226,574.51,297.7" style="stroke: #A80036; stroke-width: 1.0;"/><text fill="#000000" font-family="sans-serif" font-size="13" lengthAdjust="spacingAndGlyphs" textLength="362" x="547.5" y="263.897">buscarPaginadas(criterio, pagina) : PagedResult&lt;Asignatura&gt;</text><!--MD5=[25dbe8fda5b022b223b27082467dfbc5]
link ExamenController to ExamenRepository--><path d="M375.24,215.32 C307.6,229.58 215.5,249 215.5,249 C215.5,249 215.5,268 215.5,268 C215.5,268 249.53,282.61 280.24,295.79 " fill="none" id="ExamenController-&gt;ExamenRepository" style="stroke: #A80036; stroke-width: 1.0;"/><polygon fill="#A80036" points="285.13,297.89,278.4415,290.6606,280.5365,295.9152,275.2819,298.0102,285.13,297.89" style="stroke: #A80036; stroke-width: 1.0;"/><text fill="#000000" font-family="sans-serif" font-size="13" lengthAdjust="spacingAndGlyphs" textLength="185" x="216.5" y="263.897">existeCodigo(codigo) : Boolean</text><!--MD5=[25dbe8fda5b022b223b27082467dfbc5]
link ExamenController to ExamenRepository--><path d="M434.64,219.3 C423.1,239.28 406.5,268 406.5,268 C406.5,268 383.78,282.13 362.86,295.13 " fill="none" id="ExamenController-&gt;ExamenRepository-1" style="stroke: #A80036; stroke-width: 1.0;"/><polygon fill="#A80036" points="358.43,297.89,368.1873,296.5505,362.6804,295.2567,363.9741,289.7498,358.43,297.89" style="stroke: #A80036; stroke-width: 1.0;"/><text fill="#000000" font-family="sans-serif" font-size="13" lengthAdjust="spacingAndGlyphs" textLength="104" x="417.5" y="263.897">guardar(examen)</text><!--MD5=[bd7382ca98c26930cd008fdd9aea203c]
link ExamenController to Examen--><path d="M515.54,199.5 C543.1,199.5 573.81,199.5 597.78,199.5 " fill="none" id="ExamenController-&gt;Examen" style="stroke: #A80036; stroke-width: 1.0;"/><polygon fill="#A80036" points="602.78,199.5,593.78,195.5,597.78,199.5,593.78,203.5,602.78,199.5" style="stroke: #A80036; stroke-width: 1.0;"/><text fill="#000000" font-family="sans-serif" font-size="13" lengthAdjust="spacingAndGlyphs" textLength="51" x="533.75" y="192.397">«create»</text><!--MD5=[402be4b5b7bab86287fbf2588a91e2c1]
link CrearExamenView to ExamenAbierto--><path d="M704.07,93.87 C793.04,108.21 934.5,131 934.5,131 C934.5,131 980.77,157.47 1015.36,177.25 " fill="none" id="CrearExamenView-&gt;ExamenAbierto" style="stroke: #A80036; stroke-width: 1.0; stroke-dasharray: 7.0,7.0;"/><polygon fill="#A80036" points="1019.94,179.88,1014.116,171.9377,1015.6005,177.3962,1010.142,178.8808,1019.94,179.88" style="stroke: #A80036; stroke-width: 1.0;"/><text fill="#000000" font-family="sans-serif" font-size="13" lengthAdjust="spacingAndGlyphs" textLength="240" x="966.5" y="145.897">«finalizar» editarExamen(nuevoExamen)</text><!--MD5=[b1884325b7d25b2339df49a855cf295b]
link CrearExamenView to ExamenesAbiertoSalida--><path d="M704.28,88.4 C859.39,101.32 1215.5,131 1215.5,131 C1215.5,131 1250.01,156.88 1276.29,176.59 " fill="none" id="CrearExamenView-&gt;ExamenesAbiertoSalida" style="stroke: #A80036; stroke-width: 1.0; stroke-dasharray: 7.0,7.0;"/><polygon fill="#A80036" points="1280.43,179.7,1275.63,171.1,1276.43,176.7,1270.83,177.5,1280.43,179.7" style="stroke: #A80036; stroke-width: 1.0;"/><text fill="#000000" font-family="sans-serif" font-size="13" lengthAdjust="spacingAndGlyphs" textLength="63" x="1240.5" y="145.897">«cancelar»</text><!--MD5=[ce7f024d736016bc7b3b3bde0071c0e7]
@startuml crearExamen-analisis
skinparam linetype polyline

rectangle #CDEBA5 ":Exámenes Abierto" as ExamenesAbierto

package crearExamen as "crearExamen()" {
    rectangle #629EF9 CrearExamenView
    rectangle #b5bd68 ExamenController
    rectangle #F2AC4E ExamenRepository
    rectangle #F2AC4E AsignaturaRepository
    rectangle #F2AC4E Examen
}

rectangle #CDEBA5 ":Examen Abierto" as ExamenAbierto
rectangle #CDEBA5 ":Exámenes Abierto" as ExamenesAbiertoSalida

ExamenesAbierto -r-> CrearExamenView: crearExamen()

CrearExamenView -d-> ExamenController: buscarAsignaturas(criterio, pagina) : PagedResult<Asignatura>
ExamenController -d-> AsignaturaRepository: buscarPaginadas(criterio, pagina) : PagedResult<Asignatura>

CrearExamenView -d-> ExamenController: crear(codigo, fecha, duracion, id_asignatura) : Examen

ExamenController -d-> ExamenRepository: existeCodigo(codigo) : Boolean
ExamenController -r-> Examen: <<create>>
ExamenController -d-> ExamenRepository: guardar(examen)

CrearExamenView ..> ExamenAbierto: <<finalizar>> editarExamen(nuevoExamen)
CrearExamenView ..> ExamenesAbiertoSalida: <<cancelar>>

@enduml

PlantUML version 1.2020.02(Sun Mar 01 11:22:07 CET 2020)
(GPL source distribution)
Java Runtime: OpenJDK Runtime Environment
JVM: OpenJDK 64-Bit Server VM
Java Version: 21.0.10+7-Ubuntu-125.10
Operating System: Linux
Default Encoding: UTF-8
Language: es
Country: ES
--></g></svg>