<?xml version="1.0" encoding="us-ascii" standalone="no"?><svg xmlns="http://www.w3.org/2000/svg" xmlns:xlink="http://www.w3.org/1999/xlink" contentStyleType="text/css" height="681px" preserveAspectRatio="none" style="width:769px;height:681px;background:#FFFFFF;" version="1.1" viewBox="0 0 769 681" width="769px" zoomAndPan="magnify"><defs/><g><path d="M19.5,7 L743.5,7 A12.5,12.5 0 0 1 756,19.5 L756,34.6094 L7,34.6094 L7,19.5 A12.5,12.5 0 0 1 19.5,7 " fill="#F1F1F1" style="stroke:#F1F1F1;stroke-width:1.0;"/><rect fill="none" height="521.6094" rx="12.5" ry="12.5" style="stroke:#181818;stroke-width:0.5;" width="749" x="7" y="7"/><line style="stroke:#181818;stroke-width:0.5;" x1="7" x2="756" y1="34.6094" y2="34.6094"/><text fill="#000000" font-family="sans-serif" font-size="14" lengthAdjust="spacing" textLength="109" x="327" y="26.5332">eliminarExamen()</text><g id="eliminarExamen.MostrandoConfirmacion"><rect fill="#F1F1F1" height="50" rx="12.5" ry="12.5" style="stroke:#181818;stroke-width:0.5;" width="50" x="190" y="137.6094"/><line style="stroke:#181818;stroke-width:0.5;" x1="190" x2="240" y1="165.2188" y2="165.2188"/><text fill="#000000" font-family="sans-serif" font-size="14" lengthAdjust="spacing" textLength="4" x="213" y="157.1426">&#160;</text></g><g id="eliminarExamen.ConfirmandoEliminacion"><rect fill="#F1F1F1" height="50" rx="12.5" ry="12.5" style="stroke:#181818;stroke-width:0.5;" width="50" x="190" y="341.6094"/><line style="stroke:#181818;stroke-width:0.5;" x1="190" x2="240" y1="369.2188" y2="369.2188"/><text fill="#000000" font-family="sans-serif" font-size="14" lengthAdjust="spacing" textLength="4" x="213" y="361.1426">&#160;</text></g><ellipse cx="215" cy="55.6094" fill="#222222" rx="10" ry="10" style="stroke:#222222;stroke-width:1.0;"/><ellipse cx="215" cy="507.6094" fill="none" rx="11" ry="11" style="stroke:#222222;stroke-width:1.0;"/><ellipse cx="215" cy="507.6094" fill="#222222" rx="6" ry="6" style="stroke:#222222;stroke-width:1.0;"/><!--link *start*eliminarExamen to MostrandoConfirmacion--><g id="link_*start*eliminarExamen_MostrandoConfirmacion"><path d="M215,65.9294 C215,81.7894 215,108.5194 215,131.2494 " fill="none" id="*start*eliminarExamen-to-MostrandoConfirmacion" style="stroke:#008000;stroke-width:1.0;"/><polygon fill="#008000" points="215,137.2494,219,128.2494,215,132.2494,211,128.2494,215,137.2494" style="stroke:#008000;stroke-width:1.0;"/><path d="M220,88.6094 L220,114.6094 L474,114.6094 L474,98.6094 L464,88.6094 L220,88.6094 " fill="#FEFFDD" style="stroke:#181818;stroke-width:0.5;"/><path d="M464,88.6094 L464,98.6094 L474,98.6094 L464,88.6094 " fill="#FEFFDD" style="stroke:#181818;stroke-width:0.5;"/><text fill="#000000" font-family="sans-serif" font-size="13" font-weight="bold" lengthAdjust="spacing" textLength="89" x="226" y="107.1045">Administrador</text><text fill="#000000" font-family="sans-serif" font-size="13" lengthAdjust="spacing" textLength="140" x="319" y="107.1045">solicita eliminar examen</text></g><!--link MostrandoConfirmacion to ConfirmandoEliminacion--><g id="link_MostrandoConfirmacion_ConfirmandoEliminacion"><path d="M215,187.9794 C215,226.9094 215,296.6894 215,335.4694 " fill="none" id="MostrandoConfirmacion-to-ConfirmandoEliminacion" style="stroke:#008000;stroke-width:1.0;"/><polygon fill="#008000" points="215,341.4694,219,332.4694,215,336.4694,211,332.4694,215,341.4694" style="stroke:#008000;stroke-width:1.0;"/><path d="M220,210.6094 L220,318.6094 L510,318.6094 L510,220.6094 L500,210.6094 L220,210.6094 " fill="#FEFFDD" style="stroke:#181818;stroke-width:0.5;"/><path d="M500,210.6094 L500,220.6094 L510,220.6094 L500,210.6094 " fill="#FEFFDD" style="stroke:#181818;stroke-width:0.5;"/><text fill="#000000" font-family="sans-serif" font-size="13" font-weight="bold" lengthAdjust="spacing" textLength="51" x="226" y="229.1045">Sistema</text><text fill="#000000" font-family="sans-serif" font-size="13" lengthAdjust="spacing" textLength="214" x="281" y="229.1045">presenta confirmaci&#243;n de eliminaci&#243;n</text><text fill="#000000" font-family="sans-serif" font-size="13" lengthAdjust="spacing" textLength="223" x="226" y="245.4561">&#8226; Muestra datos del examen a eliminar</text><text fill="#000000" font-family="sans-serif" font-size="13" lengthAdjust="spacing" textLength="203" x="226" y="261.8076">&#8226; Muestra fecha y hora programada</text><text fill="#000000" font-family="sans-serif" font-size="13" lengthAdjust="spacing" textLength="208" x="226" y="278.1592">&#8226; Muestra aula y profesor asignados</text><text fill="#000000" font-family="sans-serif" font-size="13" lengthAdjust="spacing" textLength="229" x="226" y="294.5107">&#8226; Permite solicitar confirmar eliminaci&#243;n</text><text fill="#000000" font-family="sans-serif" font-size="13" lengthAdjust="spacing" textLength="225" x="226" y="310.8623">&#8226; Permite solicitar cancelar eliminaci&#243;n</text></g><!--link ConfirmandoEliminacion to *end*eliminarExamen--><g id="link_ConfirmandoEliminacion_*end*eliminarExamen"><path d="M189.65,373.0094 C136.44,384.3594 18,409.6094 18,409.6094 C18,409.6094 18,478.6094 18,478.6094 C18,478.6094 156.8897,498.3451 198.1897,504.2151 " fill="none" id="ConfirmandoEliminacion-to-*end*eliminarExamen" style="stroke:#008000;stroke-width:1.0;"/><polygon fill="#008000" points="204.13,505.0594,195.7824,499.8327,199.1798,504.3558,194.6567,507.7531,204.13,505.0594" style="stroke:#008000;stroke-width:1.0;"/><path d="M23,414.6094 L23,473.6094 L386,473.6094 L386,424.6094 L376,414.6094 L23,414.6094 " fill="#FEFFDD" style="stroke:#181818;stroke-width:0.5;"/><path d="M376,414.6094 L376,424.6094 L386,424.6094 L376,414.6094 " fill="#FEFFDD" style="stroke:#181818;stroke-width:0.5;"/><text fill="#000000" font-family="sans-serif" font-size="13" font-weight="bold" lengthAdjust="spacing" textLength="89" x="29" y="433.1045">Administrador</text><text fill="#000000" font-family="sans-serif" font-size="13" lengthAdjust="spacing" textLength="167" x="122" y="433.1045">solicita confirmar eliminaci&#243;n</text><text fill="#000000" font-family="sans-serif" font-size="13" font-weight="bold" lengthAdjust="spacing" textLength="51" x="29" y="449.4561">Sistema</text><text fill="#000000" font-family="sans-serif" font-size="13" lengthAdjust="spacing" textLength="287" x="84" y="449.4561">visualiza y elimina el examen de la base de datos</text><text fill="#000000" font-family="sans-serif" font-size="13" font-weight="bold" lengthAdjust="spacing" textLength="51" x="29" y="465.8076">Sistema</text><text fill="#000000" font-family="sans-serif" font-size="13" lengthAdjust="spacing" textLength="226" x="84" y="465.8076">visualiza y actualiza lista de ex&#225;menes</text></g><!--link ConfirmandoEliminacion to *end*eliminarExamen--><g id="link_ConfirmandoEliminacion_*end*eliminarExamen"><path d="M240.22,373.6294 C288.88,385.2394 391,409.6094 391,409.6094 C391,409.6094 391,478.6094 391,478.6094 C391,478.6094 269.8855,497.8768 231.6655,503.9568 " fill="none" id="ConfirmandoEliminacion-to-*end*eliminarExamen-1" style="stroke:#FF0000;stroke-width:1.0;"/><polygon fill="#FF0000" points="225.74,504.8994,235.2567,507.4358,230.6779,504.1139,233.9998,499.5351,225.74,504.8994" style="stroke:#FF0000;stroke-width:1.0;"/><path d="M396,423.1094 L396,465.1094 L747,465.1094 L747,433.1094 L737,423.1094 L396,423.1094 " fill="#FEFFDD" style="stroke:#181818;stroke-width:0.5;"/><path d="M737,423.1094 L737,433.1094 L747,433.1094 L737,423.1094 " fill="#FEFFDD" style="stroke:#181818;stroke-width:0.5;"/><text fill="#000000" font-family="sans-serif" font-size="13" font-weight="bold" lengthAdjust="spacing" textLength="89" x="402" y="441.6045">Administrador</text><text fill="#000000" font-family="sans-serif" font-size="13" lengthAdjust="spacing" textLength="163" x="495" y="441.6045">solicita cancelar eliminaci&#243;n</text><text fill="#000000" font-family="sans-serif" font-size="13" font-weight="bold" lengthAdjust="spacing" textLength="51" x="402" y="457.9561">Sistema</text><text fill="#000000" font-family="sans-serif" font-size="13" lengthAdjust="spacing" textLength="275" x="457" y="457.9561">visualiza y descarta la operaci&#243;n de eliminaci&#243;n</text></g><g id="EXAMENES_ABIERTO"><rect fill="#F1F1F1" height="50" rx="12.5" ry="12.5" style="stroke:#181818;stroke-width:0.5;" width="161" x="301" y="625"/><line style="stroke:#181818;stroke-width:0.5;" x1="301" x2="462" y1="652.6094" y2="652.6094"/><text fill="#000000" font-family="sans-serif" font-size="14" lengthAdjust="spacing" textLength="141" x="311" y="644.5332">EXAMENES_ABIERTO</text></g><!--link eliminarExamen to EXAMENES_ABIERTO--><g id="link_eliminarExamen_EXAMENES_ABIERTO"><path d="M304.38,529.06 C298.91,547.49 295.5,559 295.5,559 C295.5,559 295.5,595 295.5,595 C295.5,595 315.0478,607.2808 337.9478,621.6508 " fill="none" id="eliminarExamen-to-EXAMENES_ABIERTO" style="stroke:#008000;stroke-width:1.0;"/><polygon fill="#008000" points="343.03,624.84,337.5327,616.6681,338.7948,622.1824,333.2805,623.4444,343.03,624.84" style="stroke:#008000;stroke-width:1.0;"/><path d="M300.5,564 L300.5,590 L416.5,590 L416.5,574 L406.5,564 L300.5,564 " fill="#FEFFDD" style="stroke:#181818;stroke-width:0.5;"/><path d="M406.5,564 L406.5,574 L416.5,574 L406.5,564 " fill="#FEFFDD" style="stroke:#181818;stroke-width:0.5;"/><text fill="#000000" font-family="sans-serif" font-size="13" lengthAdjust="spacing" textLength="95" x="306.5" y="582.4951">abrirExamenes()</text></g><!--link eliminarExamen to EXAMENES_ABIERTO--><g id="link_eliminarExamen_EXAMENES_ABIERTO"><path d="M420.96,529.06 C423.75,547.49 425.5,559 425.5,559 C425.5,559 425.5,595 425.5,595 C425.5,595 416.6922,605.8204 404.9722,620.1904 " fill="none" id="eliminarExamen-to-EXAMENES_ABIERTO-1" style="stroke:#FF0000;stroke-width:1.0;"/><polygon fill="#FF0000" points="401.18,624.84,409.9681,620.3937,404.3402,620.9653,403.7685,615.3374,401.18,624.84" style="stroke:#FF0000;stroke-width:1.0;"/><path d="M430.5,564 L430.5,590 L569.5,590 L569.5,574 L559.5,564 L430.5,564 " fill="#FEFFDD" style="stroke:#181818;stroke-width:0.5;"/><path d="M559.5,564 L559.5,574 L569.5,574 L559.5,564 " fill="#FEFFDD" style="stroke:#181818;stroke-width:0.5;"/><text fill="#000000" font-family="sans-serif" font-size="13" lengthAdjust="spacing" textLength="118" x="436.5" y="582.4951">cancelar eliminaci&#243;n</text></g><!--SRC=[dPDVJi904CRVznGJV04JuWK82Pe- -80QyS6443Fj3h1Xkzli5WCQ4w-YL_08tCIJEAsbK2Zu9ttPxVxscs- -QVrCcGGTng2LeNIP42HMBxED43x5b82qYfL15omm9WFeeL5zrMmru7bDD_XXf6zzwj18Us7DMBaO8sLD5LcVC1Hyw-MC69wEe3qycJWYCsft3qWPoqhMPBPdeXDsUv8LL4PAwpfdOHUyrIfIAPOD0ELs1Ha9sNKXQgKhnG-OtAq-uCeKOrutSUJ9SDse55rz691balbUVBw-GtzEcG6Gc5hFX2uimiPqXHjJD4LOmjJo9d5smeD3YHK6vpf3-7HCtZfEMaqCX-9pwePShDZxEXnNkdJxzcfWD17fNNOJQ7rSbKHvl7yPtW5xEva_AZz7hPwopWiEDcboz9n9Y9woPHxsCG6CqcAjcS1ySelL6okH_rMlZkH_EgtDzeXFIJv2npUvEPkGE_2XbOvVXDZvbxVd4jpt-i5LC7ZedLy6jtVNLUiOEbNS8jziRSMmBrcqVrpmXo_f2m00]--></g></svg>