<?xml version="1.0" encoding="us-ascii" standalone="no"?><svg xmlns="http://www.w3.org/2000/svg" xmlns:xlink="http://www.w3.org/1999/xlink" contentStyleType="text/css" height="354px" preserveAspectRatio="none" style="width:174px;height:354px;background:#FFFFFF;" version="1.1" viewBox="0 0 174 354" width="174px" zoomAndPan="magnify"><defs/><g><ellipse cx="51" cy="16" fill="#222222" rx="10" ry="10" style="stroke:#222222;stroke-width:1.0;"/><g id="SinAsignar"><rect fill="#F1F1F1" height="50" rx="12.5" ry="12.5" style="stroke:#181818;stroke-width:0.5;" width="88" x="7" y="87"/><line style="stroke:#181818;stroke-width:0.5;" x1="7" x2="95" y1="114.6094" y2="114.6094"/><text fill="#000000" font-family="sans-serif" font-size="14" lengthAdjust="spacing" textLength="68" x="17" y="106.5332">SinAsignar</text></g><g id="Asignado"><rect fill="#F1F1F1" height="50" rx="12.5" ry="12.5" style="stroke:#181818;stroke-width:0.5;" width="79" x="11.5" y="215"/><line style="stroke:#181818;stroke-width:0.5;" x1="11.5" x2="90.5" y1="242.6094" y2="242.6094"/><text fill="#000000" font-family="sans-serif" font-size="14" lengthAdjust="spacing" textLength="59" x="21.5" y="234.5332">Asignado</text></g><ellipse cx="51" cy="337" fill="none" rx="11" ry="11" style="stroke:#222222;stroke-width:1.0;"/><ellipse cx="51" cy="337" fill="#222222" rx="6" ry="6" style="stroke:#222222;stroke-width:1.0;"/><!--link *start* to SinAsignar--><g id="link_*start*_SinAsignar"><path d="M51,26.01 C51,39.89 51,60.97 51,80.84 " fill="none" id="*start*-to-SinAsignar" style="stroke:#181818;stroke-width:1.0;"/><polygon fill="#181818" points="51,86.84,55,77.84,51,81.84,47,77.84,51,86.84" style="stroke:#181818;stroke-width:1.0;"/></g><!--link SinAsignar to Asignado--><g id="link_SinAsignar_Asignado"><path d="M51,137.29 C51,159.61 51,186.49 51,208.78 " fill="none" id="SinAsignar-to-Asignado" style="stroke:#181818;stroke-width:1.0;"/><polygon fill="#181818" points="51,214.78,55,205.78,51,209.78,47,205.78,51,214.78" style="stroke:#181818;stroke-width:1.0;"/><text fill="#000000" font-family="sans-serif" font-size="13" lengthAdjust="spacing" textLength="114" x="52" y="181.4951">realizarAsignaci&#243;n()</text></g><!--link Asignado to *end*--><g id="link_Asignado_*end*"><path d="M51,265.46 C51,285.04 51,305.49 51,319.8 " fill="none" id="Asignado-to-*end*" style="stroke:#181818;stroke-width:1.0;"/><polygon fill="#181818" points="51,325.8,55,316.8,51,320.8,47,316.8,51,325.8" style="stroke:#181818;stroke-width:1.0;"/></g><!--SRC=[YzQALT3LjLC8pinpBCvCpqiiuk92iC5I47PAleALGb5gOavcLM8HH2Wvy_3cF0rDBYwu2f3oQArOBW00]--></g></svg>