<?xml version="1.0" encoding="us-ascii" standalone="no"?><svg xmlns="http://www.w3.org/2000/svg" xmlns:xlink="http://www.w3.org/1999/xlink" contentStyleType="text/css" height="819px" preserveAspectRatio="none" style="width:469px;height:819px;background:#FFFFFF;" version="1.1" viewBox="0 0 469 819" width="469px" zoomAndPan="magnify"><defs/><g><path d="M19.5,7 L443.5,7 A12.5,12.5 0 0 1 456,19.5 L456,34.6094 L7,34.6094 L7,19.5 A12.5,12.5 0 0 1 19.5,7 " fill="#F1F1F1" style="stroke:#F1F1F1;stroke-width:1.0;"/><rect fill="none" height="659.6094" rx="12.5" ry="12.5" style="stroke:#181818;stroke-width:0.5;" width="449" x="7" y="7"/><line style="stroke:#181818;stroke-width:0.5;" x1="7" x2="456" y1="34.6094" y2="34.6094"/><text fill="#000000" font-family="sans-serif" font-size="14" lengthAdjust="spacing" textLength="97" x="183" y="26.5332">crearProfesor()</text><g id="crearProfesor.MostrandoFormulario"><rect fill="#F1F1F1" height="50" rx="12.5" ry="12.5" style="stroke:#181818;stroke-width:0.5;" width="50" x="19" y="137.6094"/><line style="stroke:#181818;stroke-width:0.5;" x1="19" x2="69" y1="165.2188" y2="165.2188"/><text fill="#000000" font-family="sans-serif" font-size="14" lengthAdjust="spacing" textLength="4" x="42" y="157.1426">&#160;</text></g><g id="crearProfesor.GuardandoDatos"><rect fill="#F1F1F1" height="50" rx="12.5" ry="12.5" style="stroke:#181818;stroke-width:0.5;" width="50" x="19" y="512.6094"/><line style="stroke:#181818;stroke-width:0.5;" x1="19" x2="69" y1="540.2188" y2="540.2188"/><text fill="#000000" font-family="sans-serif" font-size="14" lengthAdjust="spacing" textLength="4" x="42" y="532.1426">&#160;</text></g><g id="crearProfesor.ValidandoDatos"><rect fill="#F1F1F1" height="50" rx="12.5" ry="12.5" style="stroke:#181818;stroke-width:0.5;" width="50" x="19" y="357.6094"/><line style="stroke:#181818;stroke-width:0.5;" x1="19" x2="69" y1="385.2188" y2="385.2188"/><text fill="#000000" font-family="sans-serif" font-size="14" lengthAdjust="spacing" textLength="4" x="42" y="377.1426">&#160;</text></g><ellipse cx="44" cy="55.6094" fill="#222222" rx="10" ry="10" style="stroke:#222222;stroke-width:1.0;"/><ellipse cx="44" cy="645.6094" fill="none" rx="11" ry="11" style="stroke:#222222;stroke-width:1.0;"/><ellipse cx="44" cy="645.6094" fill="#222222" rx="6" ry="6" style="stroke:#222222;stroke-width:1.0;"/><!--link *start*crearProfesor to MostrandoFormulario--><g id="link_*start*crearProfesor_MostrandoFormulario"><path d="M44,65.9294 C44,81.7894 44,108.5194 44,131.2494 " fill="none" id="*start*crearProfesor-to-MostrandoFormulario" style="stroke:#008000;stroke-width:1.0;"/><polygon fill="#008000" points="44,137.2494,48,128.2494,44,132.2494,40,128.2494,44,137.2494" style="stroke:#008000;stroke-width:1.0;"/><path d="M49,88.6094 L49,114.6094 L287,114.6094 L287,98.6094 L277,88.6094 L49,88.6094 " fill="#FEFFDD" style="stroke:#181818;stroke-width:0.5;"/><path d="M277,88.6094 L277,98.6094 L287,98.6094 L277,88.6094 " fill="#FEFFDD" style="stroke:#181818;stroke-width:0.5;"/><text fill="#000000" font-family="sans-serif" font-size="13" font-weight="bold" lengthAdjust="spacing" textLength="89" x="55" y="107.1045">Administrador</text><text fill="#000000" font-family="sans-serif" font-size="13" lengthAdjust="spacing" textLength="124" x="148" y="107.1045">solicita crear profesor</text></g><!--link MostrandoFormulario to ValidandoDatos--><g id="link_MostrandoFormulario_ValidandoDatos"><path d="M44,187.7694 C44,229.6794 44,309.3594 44,351.3394 " fill="none" id="MostrandoFormulario-to-ValidandoDatos" style="stroke:#008000;stroke-width:1.0;"/><polygon fill="#008000" points="44,357.3394,48,348.3394,44,352.3394,40,348.3394,44,357.3394" style="stroke:#008000;stroke-width:1.0;"/><path d="M49,210.6094 L49,334.6094 L306,334.6094 L306,220.6094 L296,210.6094 L49,210.6094 " fill="#FEFFDD" style="stroke:#181818;stroke-width:0.5;"/><path d="M296,210.6094 L296,220.6094 L306,220.6094 L296,210.6094 " fill="#FEFFDD" style="stroke:#181818;stroke-width:0.5;"/><text fill="#000000" font-family="sans-serif" font-size="13" font-weight="bold" lengthAdjust="spacing" textLength="51" x="55" y="229.1045">Sistema</text><text fill="#000000" font-family="sans-serif" font-size="13" lengthAdjust="spacing" textLength="181" x="110" y="229.1045">presenta formulario de creaci&#243;n</text><text fill="#000000" font-family="sans-serif" font-size="13" lengthAdjust="spacing" textLength="221" x="55" y="245.4561">&#8226; Permite introducir c&#243;digo de profesor</text><text fill="#000000" font-family="sans-serif" font-size="13" lengthAdjust="spacing" textLength="215" x="55" y="261.8076">&#8226; Permite introducir nombre completo</text><text fill="#000000" font-family="sans-serif" font-size="13" lengthAdjust="spacing" textLength="146" x="55" y="278.1592">&#8226; Permite introducir email</text><text fill="#000000" font-family="sans-serif" font-size="13" lengthAdjust="spacing" textLength="194" x="55" y="294.5107">&#8226; Permite introducir departamento</text><text fill="#000000" font-family="sans-serif" font-size="13" lengthAdjust="spacing" textLength="200" x="55" y="310.8623">&#8226; Permite solicitar guardar profesor</text><text fill="#000000" font-family="sans-serif" font-size="13" lengthAdjust="spacing" textLength="209" x="55" y="327.2139">&#8226; Permite solicitar cancelar creaci&#243;n</text></g><!--link ValidandoDatos to GuardandoDatos--><g id="link_ValidandoDatos_GuardandoDatos"><path d="M44,407.8494 C44,436.4994 44,477.8794 44,506.4794 " fill="none" id="ValidandoDatos-to-GuardandoDatos" style="stroke:#008000;stroke-width:1.0;"/><polygon fill="#008000" points="44,512.4794,48,503.4794,44,507.4794,40,503.4794,44,512.4794" style="stroke:#008000;stroke-width:1.0;"/><path d="M49,430.6094 L49,489.6094 L387,489.6094 L387,440.6094 L377,430.6094 L49,430.6094 " fill="#FEFFDD" style="stroke:#181818;stroke-width:0.5;"/><path d="M377,430.6094 L377,440.6094 L387,440.6094 L377,430.6094 " fill="#FEFFDD" style="stroke:#181818;stroke-width:0.5;"/><text fill="#000000" font-family="sans-serif" font-size="13" font-weight="bold" lengthAdjust="spacing" textLength="89" x="55" y="449.1045">Administrador</text><text fill="#000000" font-family="sans-serif" font-size="13" lengthAdjust="spacing" textLength="192" x="148" y="449.1045">introduce datos y solicita guardar</text><text fill="#000000" font-family="sans-serif" font-size="13" font-weight="bold" lengthAdjust="spacing" textLength="51" x="55" y="465.4561">Sistema</text><text fill="#000000" font-family="sans-serif" font-size="13" lengthAdjust="spacing" textLength="242" x="110" y="465.4561">presenta validaci&#243;n de campos requeridos</text><text fill="#000000" font-family="sans-serif" font-size="13" font-weight="bold" lengthAdjust="spacing" textLength="51" x="55" y="481.8076">Sistema</text><text fill="#000000" font-family="sans-serif" font-size="13" lengthAdjust="spacing" textLength="262" x="110" y="481.8076">presenta validaci&#243;n de que el email sea &#250;nico</text></g><!--link GuardandoDatos to *end*crearProfesor--><g id="link_GuardandoDatos_*end*crearProfesor"><path d="M44,562.6594 C44,585.2594 44,611.9894 44,628.4094 " fill="none" id="GuardandoDatos-to-*end*crearProfesor" style="stroke:#008000;stroke-width:1.0;"/><polygon fill="#008000" points="44,634.4094,48,625.4094,44,629.4094,40,625.4094,44,634.4094" style="stroke:#008000;stroke-width:1.0;"/><path d="M49,585.6094 L49,611.6094 L447,611.6094 L447,595.6094 L437,585.6094 L49,585.6094 " fill="#FEFFDD" style="stroke:#181818;stroke-width:0.5;"/><path d="M437,585.6094 L437,595.6094 L447,595.6094 L437,585.6094 " fill="#FEFFDD" style="stroke:#181818;stroke-width:0.5;"/><text fill="#000000" font-family="sans-serif" font-size="13" font-weight="bold" lengthAdjust="spacing" textLength="51" x="55" y="604.1045">Sistema</text><text fill="#000000" font-family="sans-serif" font-size="13" lengthAdjust="spacing" textLength="322" x="110" y="604.1045">visualiza y guarda el nuevo profesor en la base de datos</text></g><g id="PROFESOR_ABIERTO"><rect fill="#F1F1F1" height="50" rx="12.5" ry="12.5" style="stroke:#181818;stroke-width:0.5;" width="166" x="43.5" y="763"/><line style="stroke:#181818;stroke-width:0.5;" x1="43.5" x2="209.5" y1="790.6094" y2="790.6094"/><text fill="#000000" font-family="sans-serif" font-size="14" lengthAdjust="spacing" textLength="146" x="53.5" y="782.5332">PROFESOR_ABIERTO</text></g><g id="PROFESORES_ABIERTO"><rect fill="#F1F1F1" height="50" rx="12.5" ry="12.5" style="stroke:#181818;stroke-width:0.5;" width="184" x="244.5" y="763"/><line style="stroke:#181818;stroke-width:0.5;" x1="244.5" x2="428.5" y1="790.6094" y2="790.6094"/><text fill="#000000" font-family="sans-serif" font-size="14" lengthAdjust="spacing" textLength="164" x="254.5" y="782.5332">PROFESORES_ABIERTO</text></g><!--link crearProfesor to PROFESOR_ABIERTO--><g id="link_crearProfesor_PROFESOR_ABIERTO"><path d="M154.5,667.27 C145.16,707.21 138.5162,735.6076 133.4862,757.1176 " fill="none" id="crearProfesor-to-PROFESOR_ABIERTO" style="stroke:#008000;stroke-width:1.0;"/><polygon fill="#008000" points="132.12,762.96,138.0642,755.1072,133.2585,758.0913,130.2744,753.2856,132.12,762.96" style="stroke:#008000;stroke-width:1.0;"/><path d="M152.5,702 L152.5,728 L261.5,728 L261.5,712 L251.5,702 L152.5,702 " fill="#FEFFDD" style="stroke:#181818;stroke-width:0.5;"/><path d="M251.5,702 L251.5,712 L261.5,712 L251.5,702 " fill="#FEFFDD" style="stroke:#181818;stroke-width:0.5;"/><text fill="#000000" font-family="sans-serif" font-size="13" lengthAdjust="spacing" textLength="88" x="158.5" y="720.4951">editarProfesor()</text></g><!--link crearProfesor to PROFESORES_ABIERTO--><g id="link_crearProfesor_PROFESORES_ABIERTO"><path d="M308.5,667.27 C317.84,707.21 324.4838,735.6076 329.5138,757.1176 " fill="none" id="crearProfesor-to-PROFESORES_ABIERTO" style="stroke:#008000;stroke-width:1.0;"/><polygon fill="#008000" points="330.88,762.96,332.7256,753.2856,329.7415,758.0913,324.9358,755.1072,330.88,762.96" style="stroke:#008000;stroke-width:1.0;"/><path d="M327.5,702 L327.5,728 L443.5,728 L443.5,712 L433.5,702 L327.5,702 " fill="#FEFFDD" style="stroke:#181818;stroke-width:0.5;"/><path d="M433.5,702 L433.5,712 L443.5,712 L433.5,702 " fill="#FEFFDD" style="stroke:#181818;stroke-width:0.5;"/><text fill="#000000" font-family="sans-serif" font-size="13" lengthAdjust="spacing" textLength="95" x="333.5" y="720.4951">abrirProfesores()</text></g><!--SRC=[ZLDDQjj05DxFAHxkfYs4N20OKkgKB8ADNRe9eJnfNioG-L7VZ0nkAUGikK9stVecFKcVnh6bCNOJQIDfllb-tZUA3yOtoEZ06azftH0qmQwx5wLYmaHGCo7FEDnJ30mOOLHyUVzX1Bzss97SWhW9CJ5w7Qu2kzOYcr02lhJ8kWDynXHYkVODhHcigTkFTt1s-sx9HFxkR7oC79GFGX1yb-91NLJZI-sCDnrG1xuuhyOGWpMrIRZD0ysBVKLUGzujbrB7o8VY1-OEPHSYIGwpOCCKoOlWVK-bj-EipURPgx-FJp0ZTaOuZ4yST5iRXdhphCqoO_ScJq1zS1KBPN2DfHHEmSIHiQSMDKd_2PrOBGbs0sDOvhRuk9qULgEloNOF-uYxuIfL3gwOwS5XUBtAdNi2dSdMVRalLazsiSesihbS1hf629X-jCH6Y_eRDmeUo6ud2v4GDd-ygSCWS9cg22md-hydPsLYAt8_KP9j0tLQlgLLs7S097iHAepK-Sc3wDL_ArN-jaFvsNnwDLbCvzylFrrFvb-dfHVINPdztps8z3hbP76S52is-vqKXwp_0000]--></g></svg>