<?xml version="1.0" encoding="us-ascii" standalone="no"?><svg xmlns="http://www.w3.org/2000/svg" xmlns:xlink="http://www.w3.org/1999/xlink" contentStyleType="text/css" height="705px" preserveAspectRatio="none" style="width:776px;height:705px;background:#FFFFFF;" version="1.1" viewBox="0 0 776 705" width="776px" zoomAndPan="magnify"><defs/><g><g id="elem_Universidad"><rect fill="#F1F1F1" height="47.2188" style="stroke:#181818;stroke-width:0.5;" width="164" x="323" y="7"/><text fill="#000000" font-family="sans-serif" font-size="14" lengthAdjust="spacing" textLength="74" x="368" y="23.5332">Universidad</text><line style="stroke:#181818;stroke-width:0.5;" x1="324" x2="486" y1="28.6094" y2="28.6094"/><text fill="#000000" font-family="sans-serif" font-size="14" lengthAdjust="spacing" textLength="152" x="329" y="47.1426">nombre = "Uneatlantico"</text></g><g id="elem_Facultad"><rect fill="#F1F1F1" height="47.2188" style="stroke:#181818;stroke-width:0.5;" width="210" x="300" y="115"/><text fill="#000000" font-family="sans-serif" font-size="14" lengthAdjust="spacing" textLength="55" x="377.5" y="131.5332">Facultad</text><line style="stroke:#181818;stroke-width:0.5;" x1="301" x2="509" y1="136.6094" y2="136.6094"/><text fill="#000000" font-family="sans-serif" font-size="14" lengthAdjust="spacing" textLength="198" x="306" y="155.1426">nombre = "Polit&#233;cnica superior"</text></g><g id="elem_Grado"><rect fill="#F1F1F1" height="47.2188" style="stroke:#181818;stroke-width:0.5;" width="140" x="335" y="223"/><text fill="#000000" font-family="sans-serif" font-size="14" lengthAdjust="spacing" textLength="40" x="385" y="239.5332">Grado</text><line style="stroke:#181818;stroke-width:0.5;" x1="336" x2="474" y1="244.6094" y2="244.6094"/><text fill="#000000" font-family="sans-serif" font-size="14" lengthAdjust="spacing" textLength="128" x="341" y="263.1426">nombre = "3&#186; grado"</text></g><g id="elem_Asignatura"><rect fill="#F1F1F1" height="64.8281" style="stroke:#181818;stroke-width:0.5;" width="227" x="291.5" y="331"/><text fill="#000000" font-family="sans-serif" font-size="14" lengthAdjust="spacing" textLength="68" x="371" y="347.5332">Asignatura</text><line style="stroke:#181818;stroke-width:0.5;" x1="292.5" x2="517.5" y1="352.6094" y2="352.6094"/><text fill="#000000" font-family="sans-serif" font-size="14" lengthAdjust="spacing" textLength="215" x="297.5" y="371.1426">nombre = "Ingenier&#237;a de Software"</text><text fill="#000000" font-family="sans-serif" font-size="14" lengthAdjust="spacing" textLength="111" x="297.5" y="388.752">codigo = "IDSW1"</text></g><g id="elem_Examen"><rect fill="#F1F1F1" height="82.4375" style="stroke:#181818;stroke-width:0.5;" width="246" x="282" y="474"/><text fill="#000000" font-family="sans-serif" font-size="14" lengthAdjust="spacing" textLength="50" x="380" y="490.5332">Examen</text><line style="stroke:#181818;stroke-width:0.5;" x1="283" x2="527" y1="495.6094" y2="495.6094"/><text fill="#000000" font-family="sans-serif" font-size="14" lengthAdjust="spacing" textLength="234" x="288" y="514.1426">asignatura = "Ingenier&#237;a de Software"</text><text fill="#000000" font-family="sans-serif" font-size="14" lengthAdjust="spacing" textLength="80" x="288" y="531.752">tipo = "Final"</text><text fill="#000000" font-family="sans-serif" font-size="14" lengthAdjust="spacing" textLength="135" x="288" y="549.3613">fecha = "2026-01-16"</text></g><g id="elem_Profesor"><rect fill="#F1F1F1" height="47.2188" style="stroke:#181818;stroke-width:0.5;" width="180" x="7" y="643"/><text fill="#000000" font-family="sans-serif" font-size="14" lengthAdjust="spacing" textLength="54" x="70" y="659.5332">Profesor</text><line style="stroke:#181818;stroke-width:0.5;" x1="8" x2="186" y1="664.6094" y2="664.6094"/><text fill="#000000" font-family="sans-serif" font-size="14" lengthAdjust="spacing" textLength="168" x="13" y="683.1426">nombre = "Manuel Mas&#237;as"</text></g><g id="elem_FranjaHoraria"><rect fill="#F1F1F1" height="47.2188" style="stroke:#181818;stroke-width:0.5;" width="195" x="222.5" y="643"/><text fill="#000000" font-family="sans-serif" font-size="14" lengthAdjust="spacing" textLength="87" x="276.5" y="659.5332">FranjaHoraria</text><line style="stroke:#181818;stroke-width:0.5;" x1="223.5" x2="416.5" y1="664.6094" y2="664.6094"/><text fill="#000000" font-family="sans-serif" font-size="14" lengthAdjust="spacing" textLength="183" x="228.5" y="683.1426">descripcion = "11:30 - 13:30"</text></g><g id="elem_Aula"><rect fill="#F1F1F1" height="64.8281" style="stroke:#181818;stroke-width:0.5;" width="137" x="452.5" y="634"/><text fill="#000000" font-family="sans-serif" font-size="14" lengthAdjust="spacing" textLength="28" x="507" y="650.5332">Aula</text><line style="stroke:#181818;stroke-width:0.5;" x1="453.5" x2="588.5" y1="655.6094" y2="655.6094"/><text fill="#000000" font-family="sans-serif" font-size="14" lengthAdjust="spacing" textLength="125" x="458.5" y="674.1426">codigo = "Aula -2.6"</text><text fill="#000000" font-family="sans-serif" font-size="14" lengthAdjust="spacing" textLength="97" x="458.5" y="691.752">capacidad = 50</text></g><g id="elem_Alumno"><rect fill="#F1F1F1" height="47.2188" style="stroke:#181818;stroke-width:0.5;" width="145" x="624.5" y="643"/><text fill="#000000" font-family="sans-serif" font-size="14" lengthAdjust="spacing" textLength="47" x="673.5" y="659.5332">Alumno</text><line style="stroke:#181818;stroke-width:0.5;" x1="625.5" x2="768.5" y1="664.6094" y2="664.6094"/><text fill="#000000" font-family="sans-serif" font-size="14" lengthAdjust="spacing" textLength="133" x="630.5" y="683.1426">cantidadAlumno = 50</text></g><!--link Universidad to Facultad--><g id="link_Universidad_Facultad"><path codeLine="42" d="M405,54.24 C405,72.12 405,90.92 405,108.8 " fill="none" id="Universidad-to-Facultad" style="stroke:#181818;stroke-width:1.0;"/><polygon fill="#181818" points="405,114.8,409,105.8,405,109.8,401,105.8,405,114.8" style="stroke:#181818;stroke-width:1.0;"/></g><!--link Facultad to Grado--><g id="link_Facultad_Grado"><path codeLine="43" d="M405,162.24 C405,180.12 405,198.92 405,216.8 " fill="none" id="Facultad-to-Grado" style="stroke:#181818;stroke-width:1.0;"/><polygon fill="#181818" points="405,222.8,409,213.8,405,217.8,401,213.8,405,222.8" style="stroke:#181818;stroke-width:1.0;"/></g><!--link Grado to Asignatura--><g id="link_Grado_Asignatura"><path codeLine="44" d="M405,270.22 C405,287.5 405,305.5 405,324.69 " fill="none" id="Grado-to-Asignatura" style="stroke:#181818;stroke-width:1.0;"/><polygon fill="#181818" points="405,330.69,409,321.69,405,325.69,401,321.69,405,330.69" style="stroke:#181818;stroke-width:1.0;"/></g><!--link Asignatura to Profesor--><g id="link_Asignatura_Profesor"><path codeLine="46" d="M309.84,396.04 C268.02,413.7 220.84,439.26 187,474 C138.68,523.6 114.2585,598.1806 103.9285,637.1206 " fill="none" id="Asignatura-to-Profesor" style="stroke:#181818;stroke-width:1.0;"/><polygon fill="#181818" points="102.39,642.92,108.564,635.2465,103.6721,638.0872,100.8314,633.1952,102.39,642.92" style="stroke:#181818;stroke-width:1.0;"/><text fill="#000000" font-family="sans-serif" font-size="13" lengthAdjust="spacing" textLength="75" x="188" y="520.4951">impartida por</text></g><!--link Alumno to Asignatura--><g id="link_Alumno_Asignatura"><path codeLine="47" d="M694.06,642.98 C691.13,626.33 685.5,603.58 675,586 C623.7,500.11 531.541,435.9631 468.821,399.0531 " fill="none" id="Alumno-to-Asignatura" style="stroke:#181818;stroke-width:1.0;"/><polygon fill="#181818" points="463.65,396.01,469.3778,404.022,467.9592,398.5459,473.4353,397.1273,463.65,396.01" style="stroke:#181818;stroke-width:1.0;"/><text fill="#000000" font-family="sans-serif" font-size="13" lengthAdjust="spacing" textLength="67" x="656" y="520.4951">inscritos en</text></g><!--link Asignatura to Examen--><g id="link_Asignatura_Examen"><path codeLine="48" d="M405,396.21 C405,418.83 405,443.44 405,467.79 " fill="none" id="Asignatura-to-Examen" style="stroke:#181818;stroke-width:1.0;"/><polygon fill="#181818" points="405,473.79,409,464.79,405,468.79,401,464.79,405,473.79" style="stroke:#181818;stroke-width:1.0;"/><text fill="#000000" font-family="sans-serif" font-size="13" lengthAdjust="spacing" textLength="93" x="406" y="440.4951">eval&#250;a mediante</text></g><!--link Examen to FranjaHoraria--><g id="link_Examen_FranjaHoraria"><path codeLine="50" d="M360.58,556.11 C352.44,565.25 344.72,575.42 339,586 C329.42,603.73 325.471,620.3107 323.101,636.8507 " fill="none" id="Examen-to-FranjaHoraria" style="stroke:#181818;stroke-width:1.0;"/><polygon fill="#181818" points="322.25,642.79,327.4861,634.4484,322.9592,637.8406,319.567,633.3136,322.25,642.79" style="stroke:#181818;stroke-width:1.0;"/><text fill="#000000" font-family="sans-serif" font-size="13" lengthAdjust="spacing" textLength="86" x="340" y="600.4951">programado en</text></g><!--link Examen to Profesor--><g id="link_Examen_Profesor"><path codeLine="51" d="M298.7,556.13 C276.39,565.35 253.21,575.53 232,586 C197,603.27 163.9054,622.9759 137.1054,639.7559 " fill="none" id="Examen-to-Profesor" style="stroke:#181818;stroke-width:1.0;"/><polygon fill="#181818" points="132.02,642.94,141.7709,641.5542,136.2579,640.2866,137.5254,634.7736,132.02,642.94" style="stroke:#181818;stroke-width:1.0;"/><text fill="#000000" font-family="sans-serif" font-size="13" lengthAdjust="spacing" textLength="90" x="233" y="600.4951">supervisado por</text></g><!--link Examen to Alumno--><g id="link_Examen_Alumno"><path codeLine="52" d="M487.43,556.12 C507.01,565.8 527.79,576.18 547,586 C583.74,604.79 619.8625,623.9641 649.8625,640.0541 " fill="none" id="Examen-to-Alumno" style="stroke:#181818;stroke-width:1.0;"/><polygon fill="#181818" points="655.15,642.89,649.1093,635.1112,650.7437,640.5268,645.3281,642.1612,655.15,642.89" style="stroke:#181818;stroke-width:1.0;"/><text fill="#000000" font-family="sans-serif" font-size="13" lengthAdjust="spacing" textLength="86" x="582" y="600.4951">presentado por</text></g><!--link Examen to Aula--><g id="link_Examen_Aula"><path codeLine="54" d="M431.9,556.08 C442.49,571.34 454.97,588.73 467,604 C474.82,613.93 479.7761,619.8858 488.0661,629.3058 " fill="none" id="Examen-to-Aula" style="stroke:#181818;stroke-width:1.0;"/><polygon fill="#181818" points="492.03,633.81,489.087,624.4111,488.7268,630.0565,483.0814,629.6963,492.03,633.81" style="stroke:#181818;stroke-width:1.0;"/><text fill="#000000" font-family="sans-serif" font-size="13" lengthAdjust="spacing" textLength="74" x="468" y="600.4951">se realiza en</text></g><!--SRC=[VPBFZjCm4CRlVefHxq5DAtgej4X8iC1XfPLMAywpphJCoXb7OwSW40_4WHVO8tqnRAT_t2AHIvJ9xviPVv_zqpFP28_2EzB07NRmmm28xv-Ku0PcZq8O7KfawsVcfp5-KjoY7Lty1x_tZkF-bnMs264SIDbhhVkWsFahqVBF2snplGRV1juAnb7nYluaMn8ctVz6w0WU_2P-HQLPWgplUEiBzExXSrktU_yDUvBS2S-D_zyjyb1wtRAWouKDsIz5j9WlLisyRTfLFU9U_OQ2rwjzxr16Sd278Sq85nugoZD-z8hAc4KT1QiyMFQIbMsxNiwXWNQPtXVUZ6vovNpWKceMhrR51npGbZ1luFMy5hgnbyb-cpDDoA5q1EkRq3HlJZcRK-2vMb8qKvRv-noMCLLm-TV9bJLmFw3ceJ1uDOV1b_9CIJOX-W0aSDrjYX4WSRH3jtz1wAdZT1Oovl2ph5rRc-11VRfXVTwNf0PFwvLdFTtP7OTCvYqhzB0m7D51AP348tc1vZHICm8bTFmTyzI_]--></g></svg>