<?xml version="1.0" encoding="us-ascii" standalone="no"?><svg xmlns="http://www.w3.org/2000/svg" xmlns:xlink="http://www.w3.org/1999/xlink" contentStyleType="text/css" height="664px" preserveAspectRatio="none" style="width:742px;height:664px;background:#FFFFFF;" version="1.1" viewBox="0 0 742 664" width="742px" zoomAndPan="magnify"><defs/><g><path d="M19.5,7 L716.5,7 A12.5,12.5 0 0 1 729,19.5 L729,34.6094 L7,34.6094 L7,19.5 A12.5,12.5 0 0 1 19.5,7 " fill="#F1F1F1" style="stroke:#F1F1F1;stroke-width:1.0;"/><rect fill="none" height="504.6094" rx="12.5" ry="12.5" style="stroke:#181818;stroke-width:0.5;" width="722" x="7" y="7"/><line style="stroke:#181818;stroke-width:0.5;" x1="7" x2="729" y1="34.6094" y2="34.6094"/><text fill="#000000" font-family="sans-serif" font-size="14" lengthAdjust="spacing" textLength="86" x="325" y="26.5332">editarGrado()</text><g id="editarGrado.EditandoDatos"><rect fill="#F1F1F1" height="50" rx="12.5" ry="12.5" style="stroke:#181818;stroke-width:0.5;" width="50" x="188" y="137.6094"/><line style="stroke:#181818;stroke-width:0.5;" x1="188" x2="238" y1="165.2188" y2="165.2188"/><text fill="#000000" font-family="sans-serif" font-size="14" lengthAdjust="spacing" textLength="4" x="211" y="157.1426">&#160;</text></g><g id="editarGrado.GuardandoDatos"><rect fill="#F1F1F1" height="50" rx="12.5" ry="12.5" style="stroke:#181818;stroke-width:0.5;" width="50" x="188" y="341.6094"/><line style="stroke:#181818;stroke-width:0.5;" x1="188" x2="238" y1="369.2188" y2="369.2188"/><text fill="#000000" font-family="sans-serif" font-size="14" lengthAdjust="spacing" textLength="4" x="211" y="361.1426">&#160;</text></g><ellipse cx="213" cy="55.6094" fill="#222222" rx="10" ry="10" style="stroke:#222222;stroke-width:1.0;"/><ellipse cx="213" cy="490.6094" fill="none" rx="11" ry="11" style="stroke:#222222;stroke-width:1.0;"/><ellipse cx="213" cy="490.6094" fill="#222222" rx="6" ry="6" style="stroke:#222222;stroke-width:1.0;"/><!--link *start*editarGrado to EditandoDatos--><g id="link_*start*editarGrado_EditandoDatos"><path d="M213,65.9294 C213,81.7894 213,108.5194 213,131.2494 " fill="none" id="*start*editarGrado-to-EditandoDatos" style="stroke:#008000;stroke-width:1.0;"/><polygon fill="#008000" points="213,137.2494,217,128.2494,213,132.2494,209,128.2494,213,137.2494" style="stroke:#008000;stroke-width:1.0;"/><path d="M218,88.6094 L218,114.6094 L445,114.6094 L445,98.6094 L435,88.6094 L218,88.6094 " fill="#FEFFDD" style="stroke:#181818;stroke-width:0.5;"/><path d="M435,88.6094 L435,98.6094 L445,98.6094 L435,88.6094 " fill="#FEFFDD" style="stroke:#181818;stroke-width:0.5;"/><text fill="#000000" font-family="sans-serif" font-size="13" font-weight="bold" lengthAdjust="spacing" textLength="89" x="224" y="107.1045">Administrador</text><text fill="#000000" font-family="sans-serif" font-size="13" lengthAdjust="spacing" textLength="113" x="317" y="107.1045">solicita editar grado</text></g><!--link EditandoDatos to GuardandoDatos--><g id="link_EditandoDatos_GuardandoDatos"><path d="M187.92,171.4094 C148.88,183.5594 78,205.6094 78,205.6094 C78,205.6094 78,323.6094 78,323.6094 C78,323.6094 143.151,343.8764 182.191,356.0264 " fill="none" id="EditandoDatos-to-GuardandoDatos" style="stroke:#008000;stroke-width:1.0;"/><polygon fill="#008000" points="187.92,357.8094,180.5152,351.3156,183.1459,356.3236,178.1379,358.9542,187.92,357.8094" style="stroke:#008000;stroke-width:1.0;"/><path d="M83,210.6094 L83,318.6094 L322,318.6094 L322,220.6094 L312,210.6094 L83,210.6094 " fill="#FEFFDD" style="stroke:#181818;stroke-width:0.5;"/><path d="M312,210.6094 L312,220.6094 L322,220.6094 L312,210.6094 " fill="#FEFFDD" style="stroke:#181818;stroke-width:0.5;"/><text fill="#000000" font-family="sans-serif" font-size="13" font-weight="bold" lengthAdjust="spacing" textLength="51" x="89" y="229.1045">Sistema</text><text fill="#000000" font-family="sans-serif" font-size="13" lengthAdjust="spacing" textLength="149" x="144" y="229.1045">presenta datos de edici&#243;n</text><text fill="#000000" font-family="sans-serif" font-size="13" lengthAdjust="spacing" textLength="190" x="89" y="245.4561">&#8226; Permite introducir nuevo c&#243;digo</text><text fill="#000000" font-family="sans-serif" font-size="13" lengthAdjust="spacing" textLength="195" x="89" y="261.8076">&#8226; Permite introducir nuevo nombre</text><text fill="#000000" font-family="sans-serif" font-size="13" lengthAdjust="spacing" textLength="218" x="89" y="278.1592">&#8226; Permite introducir nueva descripci&#243;n</text><text fill="#000000" font-family="sans-serif" font-size="13" lengthAdjust="spacing" textLength="203" x="89" y="294.5107">&#8226; Permite solicitar guardar cambios</text><text fill="#000000" font-family="sans-serif" font-size="13" lengthAdjust="spacing" textLength="201" x="89" y="310.8623">&#8226; Permite solicitar cancelar edici&#243;n</text></g><!--link GuardandoDatos to EditandoDatos--><g id="link_GuardandoDatos_EditandoDatos"><path d="M238.02,356.3894 C271.58,344.0294 327,323.6094 327,323.6094 C327,323.6094 327,205.6094 327,205.6094 C327,205.6094 277.2103,187.263 243.6503,174.903 " fill="none" id="GuardandoDatos-to-EditandoDatos" style="stroke:#008000;stroke-width:1.0;"/><polygon fill="#008000" points="238.02,172.8294,245.083,179.6933,242.7119,174.5574,247.8478,172.1863,238.02,172.8294" style="stroke:#008000;stroke-width:1.0;"/><path d="M332,243.6094 L332,285.6094 L596,285.6094 L596,253.6094 L586,243.6094 L332,243.6094 " fill="#FEFFDD" style="stroke:#181818;stroke-width:0.5;"/><path d="M586,243.6094 L586,253.6094 L596,253.6094 L586,243.6094 " fill="#FEFFDD" style="stroke:#181818;stroke-width:0.5;"/><text fill="#000000" font-family="sans-serif" font-size="13" font-weight="bold" lengthAdjust="spacing" textLength="89" x="338" y="262.1045">Administrador</text><text fill="#000000" font-family="sans-serif" font-size="13" lengthAdjust="spacing" textLength="147" x="431" y="262.1045">solicita modificar campos</text><text fill="#000000" font-family="sans-serif" font-size="13" font-weight="bold" lengthAdjust="spacing" textLength="51" x="338" y="278.4561">Sistema</text><text fill="#000000" font-family="sans-serif" font-size="13" lengthAdjust="spacing" textLength="188" x="393" y="278.4561">permite introducir nuevos valores</text></g><!--link GuardandoDatos to *end*editarGrado--><g id="link_GuardandoDatos_*end*editarGrado"><path d="M187.91,373.0094 C135.24,384.3594 18,409.6094 18,409.6094 C18,409.6094 18,461.6094 18,461.6094 C18,461.6094 155.4209,481.3366 196.3009,487.2066 " fill="none" id="GuardandoDatos-to-*end*editarGrado" style="stroke:#008000;stroke-width:1.0;"/><polygon fill="#008000" points="202.24,488.0594,193.8999,482.8208,197.2908,487.3487,192.7628,490.7396,202.24,488.0594" style="stroke:#008000;stroke-width:1.0;"/><path d="M23,414.6094 L23,456.6094 L383,456.6094 L383,424.6094 L373,414.6094 L23,414.6094 " fill="#FEFFDD" style="stroke:#181818;stroke-width:0.5;"/><path d="M373,414.6094 L373,424.6094 L383,424.6094 L373,414.6094 " fill="#FEFFDD" style="stroke:#181818;stroke-width:0.5;"/><text fill="#000000" font-family="sans-serif" font-size="13" font-weight="bold" lengthAdjust="spacing" textLength="89" x="29" y="433.1045">Administrador</text><text fill="#000000" font-family="sans-serif" font-size="13" lengthAdjust="spacing" textLength="127" x="122" y="433.1045">solicita guardar y salir</text><text fill="#000000" font-family="sans-serif" font-size="13" font-weight="bold" lengthAdjust="spacing" textLength="51" x="29" y="449.4561">Sistema</text><text fill="#000000" font-family="sans-serif" font-size="13" lengthAdjust="spacing" textLength="284" x="84" y="449.4561">visualiza y actualiza el grado en la base de datos</text></g><!--link GuardandoDatos to *end*editarGrado--><g id="link_GuardandoDatos_*end*editarGrado"><path d="M238.07,373.6294 C286.46,385.2394 388,409.6094 388,409.6094 C388,409.6094 388,461.6094 388,461.6094 C388,461.6094 267.6046,480.8714 229.6046,486.9514 " fill="none" id="GuardandoDatos-to-*end*editarGrado-1" style="stroke:#FF0000;stroke-width:1.0;"/><polygon fill="#FF0000" points="223.68,487.8994,233.1989,490.4272,228.6172,487.1094,231.935,482.5277,223.68,487.8994" style="stroke:#FF0000;stroke-width:1.0;"/><path d="M393,414.6094 L393,456.6094 L720,456.6094 L720,424.6094 L710,414.6094 L393,414.6094 " fill="#FEFFDD" style="stroke:#181818;stroke-width:0.5;"/><path d="M710,414.6094 L710,424.6094 L720,424.6094 L710,414.6094 " fill="#FEFFDD" style="stroke:#181818;stroke-width:0.5;"/><text fill="#000000" font-family="sans-serif" font-size="13" font-weight="bold" lengthAdjust="spacing" textLength="89" x="399" y="433.1045">Administrador</text><text fill="#000000" font-family="sans-serif" font-size="13" lengthAdjust="spacing" textLength="139" x="492" y="433.1045">solicita cancelar edici&#243;n</text><text fill="#000000" font-family="sans-serif" font-size="13" font-weight="bold" lengthAdjust="spacing" textLength="51" x="399" y="449.4561">Sistema</text><text fill="#000000" font-family="sans-serif" font-size="13" lengthAdjust="spacing" textLength="251" x="454" y="449.4561">visualiza y descarta los cambios realizados</text></g><g id="GRADOS_ABIERTO"><rect fill="#F1F1F1" height="50" rx="12.5" ry="12.5" style="stroke:#181818;stroke-width:0.5;" width="148" x="294" y="608"/><line style="stroke:#181818;stroke-width:0.5;" x1="294" x2="442" y1="635.6094" y2="635.6094"/><text fill="#000000" font-family="sans-serif" font-size="14" lengthAdjust="spacing" textLength="128" x="304" y="627.5332">GRADOS_ABIERTO</text></g><!--link editarGrado to GRADOS_ABIERTO--><g id="link_editarGrado_GRADOS_ABIERTO"><path d="M300.06,512.14 C295.11,530.5 292,542 292,542 C292,542 292,578 292,578 C292,578 308.8785,589.9954 329.1085,604.3654 " fill="none" id="editarGrado-to-GRADOS_ABIERTO" style="stroke:#008000;stroke-width:1.0;"/><polygon fill="#008000" points="334,607.84,328.9791,599.3671,329.9237,604.9445,324.3463,605.8891,334,607.84" style="stroke:#008000;stroke-width:1.0;"/><path d="M297,547 L297,573 L393,573 L393,557 L383,547 L297,547 " fill="#FEFFDD" style="stroke:#181818;stroke-width:0.5;"/><path d="M383,547 L383,557 L393,557 L383,547 " fill="#FEFFDD" style="stroke:#181818;stroke-width:0.5;"/><text fill="#000000" font-family="sans-serif" font-size="13" lengthAdjust="spacing" textLength="75" x="303" y="565.4951">abrirGrados()</text></g><!--link editarGrado to GRADOS_ABIERTO--><g id="link_editarGrado_GRADOS_ABIERTO"><path d="M398.39,512.14 C400.61,530.5 402,542 402,542 C402,542 402,578 402,578 C402,578 395.4574,588.393 386.4074,602.763 " fill="none" id="editarGrado-to-GRADOS_ABIERTO-1" style="stroke:#FF0000;stroke-width:1.0;"/><polygon fill="#FF0000" points="383.21,607.84,391.3909,602.3561,385.8745,603.6091,384.6215,598.0928,383.21,607.84" style="stroke:#FF0000;stroke-width:1.0;"/><path d="M407,547 L407,573 L522,573 L522,557 L512,547 L407,547 " fill="#FEFFDD" style="stroke:#181818;stroke-width:0.5;"/><path d="M512,547 L512,557 L522,557 L512,547 " fill="#FEFFDD" style="stroke:#181818;stroke-width:0.5;"/><text fill="#000000" font-family="sans-serif" font-size="13" lengthAdjust="spacing" textLength="94" x="413" y="565.4951">cancelar edici&#243;n</text></g><!--SRC=[dLDTIiD047xVKmprnGhY1KgXKYa-AUfR4PdiZcKmsGspQQ6Au5cyGe_GctWI9-aFIQh1chnaC_FDzytCj_65VOw26QJigLZc17b8b-N1c5XWGK2E2vI9e0k04Ngrysc_1s-xl9w-6hygmzw5CHOXDaEJEOhRny2OwTaZd4zFPaBa7y-7JImO7nGRV2djnGoIuSXbx3aM9RKCBf8Xn92oLSnM9CpAa27leCBgOqopQ9skgUU0xbwfACEAA1UAv9N8LLLSDHRBwvKtNn-VS4kIiQBP5nBStBA0dzCYW5sl7Cz2Tv8FMIAgjYjBcIbQuVoGT3S4RRzgIC1Ybh1sz7EMHMyfrOzz2xk16TDQqQ_BEMOtMN3yp7QZArTiUxQ_p2N20jEWW_-RFZNJCQfsirf2n9IbBMh1SQx_Nr4Jq1RRRqet5WDI3eG48vLUg4pHgLB8_KFZuQOwL9R-G55KgfHR1u1G5NPrUU_6rEzquqRSZSOtzq-Zo-khkuURfbHCX3UGUDglDTkgjUsqgrA70Ry1]--></g></svg>