<?xml version="1.0" encoding="us-ascii" standalone="no"?><svg xmlns="http://www.w3.org/2000/svg" xmlns:xlink="http://www.w3.org/1999/xlink" contentStyleType="text/css" height="400px" preserveAspectRatio="none" style="width:848px;height:400px;background:#FFFFFF;" version="1.1" viewBox="0 0 848 400" width="848px" zoomAndPan="magnify"><defs/><g><!--cluster eliminarGrado--><g id="cluster_eliminarGrado"><path d="M151,42.309 L261,42.309 A3.75,3.75 0 0 1 263.5,44.809 L270.5,67.3769 L623,67.3769 A2.5,2.5 0 0 1 625.5,69.8769 L625.5,390.809 A2.5,2.5 0 0 1 623,393.309 L151,393.309 A2.5,2.5 0 0 1 148.5,390.809 L148.5,44.809 A2.5,2.5 0 0 1 151,42.309 " fill="none" style="stroke:#000000;stroke-width:1.5;"/><line style="stroke:#000000;stroke-width:1.5;" x1="148.5" x2="270.5" y1="67.3769" y2="67.3769"/><text fill="#000000" font-family="sans-serif" font-size="14" font-weight="bold" lengthAdjust="spacing" textLength="109" x="152.5" y="59.2749">eliminarGrado()</text></g><!--entity EliminarGradoView--><g id="elem_EliminarGradoView"><rect fill="#629EF9" height="39.0679" rx="2.5" ry="2.5" style="stroke:#181818;stroke-width:0.5;" width="148" x="396.5" y="102.309"/><text fill="#000000" font-family="sans-serif" font-size="14" lengthAdjust="spacing" textLength="128" x="406.5" y="127.2749">EliminarGradoView</text></g><!--entity GradoController--><g id="elem_GradoController"><rect fill="#B5BD68" height="39.0679" rx="2.5" ry="2.5" style="stroke:#181818;stroke-width:0.5;" width="128" x="451.5" y="220.309"/><text fill="#000000" font-family="sans-serif" font-size="14" lengthAdjust="spacing" textLength="108" x="461.5" y="245.2749">GradoController</text></g><!--entity GradoRepository--><g id="elem_GradoRepository"><rect fill="#F2AC4E" height="39.0679" rx="2.5" ry="2.5" style="stroke:#181818;stroke-width:0.5;" width="132" x="449.5" y="338.309"/><text fill="#000000" font-family="sans-serif" font-size="14" lengthAdjust="spacing" textLength="112" x="459.5" y="363.2749">GradoRepository</text></g><!--entity Grado--><g id="elem_Grado"><rect fill="#F2AC4E" height="39.0679" rx="2.5" ry="2.5" style="stroke:#181818;stroke-width:0.5;" width="61" x="256" y="102.309"/><text fill="#000000" font-family="sans-serif" font-size="14" lengthAdjust="spacing" textLength="41" x="266" y="127.2749">Grado</text></g><!--entity GradosAbierto--><g id="elem_GradosAbierto"><rect fill="#CDEBA5" height="39.0679" rx="2.5" ry="2.5" style="stroke:#181818;stroke-width:0.5;" width="125" x="7" y="102.309"/><text fill="#000000" font-family="sans-serif" font-size="14" lengthAdjust="spacing" textLength="105" x="17" y="127.2749">:Grados Abierto</text></g><!--entity AsignaturaRepository--><g id="elem_AsignaturaRepository"><rect fill="#F2AC4E" height="39.0679" rx="2.5" ry="2.5" style="stroke:#181818;stroke-width:0.5;" width="165" x="642" y="338.309"/><text fill="#000000" font-family="sans-serif" font-size="14" lengthAdjust="spacing" textLength="145" x="652" y="363.2749">AsignaturaRepository</text></g><!--entity GradosAbiertoSalida--><g id="elem_GradosAbiertoSalida"><rect fill="#CDEBA5" height="39.0679" rx="2.5" ry="2.5" style="stroke:#181818;stroke-width:0.5;" width="125" x="665" y="220.309"/><text fill="#000000" font-family="sans-serif" font-size="14" lengthAdjust="spacing" textLength="105" x="675" y="245.2749">:Grados Abierto</text></g><!--link GradosAbierto to EliminarGradoView--><g id="link_GradosAbierto_EliminarGradoView"><path d="M87.43,102.179 C110.73,76.659 148.5,35.309 148.5,35.309 C148.5,35.309 334.5,35.309 334.5,35.309 C334.5,35.309 394.447,73.4393 434.577,98.9593 " fill="none" id="GradosAbierto-to-EliminarGradoView" style="stroke:#181818;stroke-width:1.0;"/><polygon fill="#181818" points="439.64,102.179,434.192,93.9741,435.4209,99.4959,429.8991,100.7248,439.64,102.179" style="stroke:#181818;stroke-width:1.0;"/><text fill="#000000" font-family="sans-serif" font-size="13" lengthAdjust="spacing" textLength="129" x="133" y="22.206">eliminarGrado(grado)</text></g><!--link EliminarGradoView to GradoController--><g id="link_EliminarGradoView_GradoController"><path d="M396.35,135.929 C315.21,150.299 196.5,171.309 196.5,171.309 C196.5,171.309 196.5,190.309 196.5,190.309 C196.5,190.309 352.2481,213.9873 445.3981,228.1473 " fill="none" id="EliminarGradoView-to-GradoController" style="stroke:#181818;stroke-width:1.0;"/><polygon fill="#181818" points="451.33,229.049,443.0334,223.7419,446.3868,228.2976,441.8311,231.651,451.33,229.049" style="stroke:#181818;stroke-width:1.0;"/><text fill="#000000" font-family="sans-serif" font-size="13" lengthAdjust="spacing" textLength="274" x="197.5" y="186.206">verificarAsignaturasAsociadas(grado) : Integer</text></g><!--link EliminarGradoView to GradoController--><g id="link_EliminarGradoView_GradoController"><path d="M477.73,141.449 C486.13,163.089 497.7302,192.9951 506.1202,214.6251 " fill="none" id="EliminarGradoView-to-GradoController-1" style="stroke:#181818;stroke-width:1.0;"/><polygon fill="#181818" points="508.29,220.219,508.7646,210.3816,506.4818,215.5574,501.306,213.2747,508.29,220.219" style="stroke:#181818;stroke-width:1.0;"/><text fill="#000000" font-family="sans-serif" font-size="13" lengthAdjust="spacing" textLength="92" x="496.5" y="186.206">eliminar(grado)</text></g><!--link GradoController to AsignaturaRepository--><g id="link_GradoController_AsignaturaRepository"><path d="M554.64,259.419 C583.41,273.099 617.5,289.309 617.5,289.309 C617.5,289.309 658.2355,315.0076 689.9055,334.9876 " fill="none" id="GradoController-to-AsignaturaRepository" style="stroke:#181818;stroke-width:1.0;"/><polygon fill="#181818" points="694.98,338.189,689.5025,330.0038,690.7512,335.5211,685.2339,336.7699,694.98,338.189" style="stroke:#181818;stroke-width:1.0;"/><text fill="#000000" font-family="sans-serif" font-size="13" lengthAdjust="spacing" textLength="194" x="646.5" y="304.206">contarPorGrado(grado) : Integer</text></g><!--link GradoController to GradoRepository--><g id="link_GradoController_GradoRepository"><path d="M515.5,259.449 C515.5,281.089 515.5,310.589 515.5,332.219 " fill="none" id="GradoController-to-GradoRepository" style="stroke:#181818;stroke-width:1.0;"/><polygon fill="#181818" points="515.5,338.219,519.5,329.219,515.5,333.219,511.5,329.219,515.5,338.219" style="stroke:#181818;stroke-width:1.0;"/><text fill="#000000" font-family="sans-serif" font-size="13" lengthAdjust="spacing" textLength="92" x="516.5" y="304.206">eliminar(grado)</text></g><!--link EliminarGradoView to GradosAbiertoSalida--><g id="link_EliminarGradoView_GradosAbiertoSalida"><path d="M519.24,141.419 C555.05,155.099 597.5,171.309 597.5,171.309 C597.5,171.309 647.825,197.4441 686.305,217.4241 " fill="none" id="EliminarGradoView-to-GradosAbiertoSalida" style="stroke:#181818;stroke-width:1.0;stroke-dasharray:7.0,7.0;"/><polygon fill="#181818" points="691.63,220.189,685.4858,212.4917,687.1925,217.8849,681.7993,219.5917,691.63,220.189" style="stroke:#181818;stroke-width:1.0;"/><text fill="#000000" font-family="sans-serif" font-size="13" lengthAdjust="spacing" textLength="60" x="632.5" y="186.206">&#171;finalizar&#187;</text></g><!--link EliminarGradoView to GradosAbiertoSalida--><g id="link_EliminarGradoView_GradosAbiertoSalida"><path d="M544.54,138.359 C612.11,152.539 701.5,171.309 701.5,171.309 C701.5,171.309 710.4024,194.4304 718.1024,214.4104 " fill="none" id="EliminarGradoView-to-GradosAbiertoSalida-1" style="stroke:#181818;stroke-width:1.0;stroke-dasharray:7.0,7.0;"/><polygon fill="#181818" points="720.26,220.009,720.756,210.1726,718.462,215.3435,713.2911,213.0495,720.26,220.009" style="stroke:#181818;stroke-width:1.0;"/><text fill="#000000" font-family="sans-serif" font-size="13" lengthAdjust="spacing" textLength="63" x="708.5" y="186.206">&#171;cancelar&#187;</text></g><!--SRC=[dP51IyD048Nl-ok6U6aFxQ7Oeg44Oat5coXudswcOUXsDyokIXN_ksbJDKc3g3aiPFQRD_FU-WtR4WMtODXIs9K4fJEx_OzIGZgWBGp1sU8wkqgd4CKtWhdpaAwO9BW8q4DTEbQKAb5li20WmrksA8VhFHUrAeDX16yAggynPZQvp9QNa3N1HwQNBhUQhlBPHJrvuMmGPmn9brfEqiLvLbFtL3hFmSdk9qgzjrmVhrBFXSNm9DXG-Kyu3sWuHwLQHHZ9A3cr7BS371JxSwZK2GYZlEhlH173CmclMQDyR-zJxpHZZlwe1Z7Ssa155Ptg2DIgVSvZq1M5SkTQcpMrVhlZfyClSxrBTDwlf-rqtdYSz4KVmto-haZ3hoX9yhT6ZLQJEVHz0000]--></g></svg>