<?xml version="1.0" encoding="UTF-8" standalone="no"?><svg xmlns="http://www.w3.org/2000/svg" xmlns:xlink="http://www.w3.org/1999/xlink" contentScriptType="application/ecmascript" contentStyleType="text/css" height="470px" preserveAspectRatio="none" style="width:851px;height:470px;" version="1.1" viewBox="0 0 851 470" width="851px" zoomAndPan="magnify"><defs><filter height="300%" id="f1qbltc0h5uncv" width="300%" x="-1" y="-1"><feGaussianBlur result="blurOut" stdDeviation="2.0"/><feColorMatrix in="blurOut" result="blurOut2" type="matrix" values="0 0 0 0 0 0 0 0 0 0 0 0 0 0 0 0 0 0 .4 0"/><feOffset dx="4.0" dy="4.0" in="blurOut2" result="blurOut3"/><feBlend in="SourceGraphic" in2="blurOut3" mode="normal"/></filter></defs><g><!--MD5=[8597a28dd8fa766dfa0ec39a3498aab5]
cluster eliminarGrado--><polygon fill="#FFFFFF" filter="url(#f1qbltc0h5uncv)" points="147.5,107,262.5,107,269.5,132.0679,624.5,132.0679,624.5,458,147.5,458,147.5,107" style="stroke: #000000; stroke-width: 1.5;"/><line style="stroke: #000000; stroke-width: 1.5;" x1="147.5" x2="269.5" y1="132.0679" y2="132.0679"/><text fill="#000000" font-family="sans-serif" font-size="14" font-weight="bold" lengthAdjust="spacingAndGlyphs" textLength="109" x="151.5" y="123.9659">eliminarGrado()</text><!--MD5=[22b7cbf87321b09a0b61d8d7fb400d51]
entity EliminarGradoView--><rect fill="#629EF9" filter="url(#f1qbltc0h5uncv)" height="39.0679" style="stroke: #000000; stroke-width: 1.5;" width="148" x="395.5" y="167"/><text fill="#000000" font-family="sans-serif" font-size="14" lengthAdjust="spacingAndGlyphs" textLength="128" x="405.5" y="191.9659">EliminarGradoView</text><!--MD5=[a3e98a5f49c68695f130a43f280d8ecf]
entity GradoController--><rect fill="#B5BD68" filter="url(#f1qbltc0h5uncv)" height="39.0679" style="stroke: #000000; stroke-width: 1.5;" width="128" x="450.5" y="285"/><text fill="#000000" font-family="sans-serif" font-size="14" lengthAdjust="spacingAndGlyphs" textLength="108" x="460.5" y="309.9659">GradoController</text><!--MD5=[9db62e2c3b018035cc77fb2476be44ee]
entity GradoRepository--><rect fill="#F2AC4E" filter="url(#f1qbltc0h5uncv)" height="39.0679" style="stroke: #000000; stroke-width: 1.5;" width="132" x="448.5" y="403"/><text fill="#000000" font-family="sans-serif" font-size="14" lengthAdjust="spacingAndGlyphs" textLength="112" x="458.5" y="427.9659">GradoRepository</text><!--MD5=[cbab0994e6ada9fe76b72748ce5407a5]
entity Grado--><rect fill="#F2AC4E" filter="url(#f1qbltc0h5uncv)" height="39.0679" style="stroke: #000000; stroke-width: 1.5;" width="61" x="255" y="167"/><text fill="#000000" font-family="sans-serif" font-size="14" lengthAdjust="spacingAndGlyphs" textLength="41" x="265" y="191.9659">Grado</text><!--MD5=[3e6950dcd7c5974da44e54c6a1f84818]
entity GradosAbierto--><rect fill="#CDEBA5" filter="url(#f1qbltc0h5uncv)" height="39.0679" style="stroke: #000000; stroke-width: 1.5;" width="125" x="6" y="167"/><text fill="#000000" font-family="sans-serif" font-size="14" lengthAdjust="spacingAndGlyphs" textLength="105" x="16" y="191.9659">:Grados Abierto</text><!--MD5=[e2226bdb67ed4b44a20a11abd64e4519]
entity AsignaturaRepository--><rect fill="#F2AC4E" filter="url(#f1qbltc0h5uncv)" height="39.0679" style="stroke: #000000; stroke-width: 1.5;" width="165" x="641" y="403"/><text fill="#000000" font-family="sans-serif" font-size="14" lengthAdjust="spacingAndGlyphs" textLength="145" x="651" y="427.9659">AsignaturaRepository</text><!--MD5=[8e378021382d6056b9e85f89fdf49294]
entity GradosAbiertoSalida--><rect fill="#CDEBA5" filter="url(#f1qbltc0h5uncv)" height="39.0679" style="stroke: #000000; stroke-width: 1.5;" width="125" x="664" y="285"/><text fill="#000000" font-family="sans-serif" font-size="14" lengthAdjust="spacingAndGlyphs" textLength="105" x="674" y="309.9659">:Grados Abierto</text><!--MD5=[909983f4ed6e48b1c3c0a5aa2be27ffe]
link GradosAbierto to EliminarGradoView--><path d="M86.43,166.87 C109.73,141.35 147.5,100 147.5,100 C147.5,100 333.5,100 333.5,100 C333.5,100 394.02,138.49 434.32,164.12 " fill="none" id="GradosAbierto-&gt;EliminarGradoView" style="stroke: #A80036; stroke-width: 1.0;"/><polygon fill="#A80036" points="438.64,166.87,433.1874,158.6682,434.4193,164.1893,428.8983,165.4213,438.64,166.87" style="stroke: #A80036; stroke-width: 1.0;"/><text fill="#000000" font-family="sans-serif" font-size="13" lengthAdjust="spacingAndGlyphs" textLength="129" x="132" y="86.897">eliminarGrado(grado)</text><!--MD5=[3f2bc1e1ab38a8a5d4c6c91d55f3f349]
link EliminarGradoView to GradoController--><path d="M395.35,200.62 C314.21,214.99 195.5,236 195.5,236 C195.5,236 195.5,255 195.5,255 C195.5,255 351.54,278.72 445.35,292.99 " fill="none" id="EliminarGradoView-&gt;GradoController" style="stroke: #A80036; stroke-width: 1.0;"/><polygon fill="#A80036" points="450.33,293.74,442.0394,288.4234,445.3876,292.9829,440.8281,296.3312,450.33,293.74" style="stroke: #A80036; stroke-width: 1.0;"/><text fill="#000000" font-family="sans-serif" font-size="13" lengthAdjust="spacingAndGlyphs" textLength="274" x="196.5" y="250.897">verificarAsignaturasAsociadas(grado) : Integer</text><!--MD5=[3f2bc1e1ab38a8a5d4c6c91d55f3f349]
link EliminarGradoView to GradoController--><path d="M476.73,206.14 C484.54,226.26 496.99,258.36 505.44,280.15 " fill="none" id="EliminarGradoView-&gt;GradoController-1" style="stroke: #A80036; stroke-width: 1.0;"/><polygon fill="#A80036" points="507.29,284.91,507.7502,275.0719,505.475,280.2511,500.2959,277.9759,507.29,284.91" style="stroke: #A80036; stroke-width: 1.0;"/><text fill="#000000" font-family="sans-serif" font-size="13" lengthAdjust="spacingAndGlyphs" textLength="92" x="495.5" y="250.897">eliminar(grado)</text><!--MD5=[7c40e05cad8c4a561ce9329f8babf92d]
link GradoController to AsignaturaRepository--><path d="M553.64,324.11 C582.41,337.79 616.5,354 616.5,354 C616.5,354 658.11,380.25 689.44,400.01 " fill="none" id="GradoController-&gt;AsignaturaRepository" style="stroke: #A80036; stroke-width: 1.0;"/><polygon fill="#A80036" points="693.98,402.88,688.4878,394.7047,689.7464,400.2197,684.2314,401.4784,693.98,402.88" style="stroke: #A80036; stroke-width: 1.0;"/><text fill="#000000" font-family="sans-serif" font-size="13" lengthAdjust="spacingAndGlyphs" textLength="194" x="645.5" y="368.897">contarPorGrado(grado) : Integer</text><!--MD5=[e1d8aaea052639662974e84b9c6de6e8]
link GradoController to GradoRepository--><path d="M514.5,324.14 C514.5,344.18 514.5,376.09 514.5,397.88 " fill="none" id="GradoController-&gt;GradoRepository" style="stroke: #A80036; stroke-width: 1.0;"/><polygon fill="#A80036" points="514.5,402.91,518.5,393.91,514.5,397.91,510.5,393.91,514.5,402.91" style="stroke: #A80036; stroke-width: 1.0;"/><text fill="#000000" font-family="sans-serif" font-size="13" lengthAdjust="spacingAndGlyphs" textLength="92" x="515.5" y="368.897">eliminar(grado)</text><!--MD5=[5fa6829ac7dc452eda6ad5e9da746814]
link EliminarGradoView to GradosAbiertoSalida--><path d="M518.24,206.11 C554.05,219.79 596.5,236 596.5,236 C596.5,236 647.89,262.68 686.05,282.5 " fill="none" id="EliminarGradoView-&gt;GradosAbiertoSalida" style="stroke: #A80036; stroke-width: 1.0; stroke-dasharray: 7.0,7.0;"/><polygon fill="#A80036" points="690.63,284.88,684.4764,277.1902,686.1897,282.5813,680.7986,284.2946,690.63,284.88" style="stroke: #A80036; stroke-width: 1.0;"/><text fill="#000000" font-family="sans-serif" font-size="13" lengthAdjust="spacingAndGlyphs" textLength="60" x="631.5" y="250.897">«finalizar»</text><!--MD5=[5fa6829ac7dc452eda6ad5e9da746814]
link EliminarGradoView to GradosAbiertoSalida--><path d="M543.54,203.05 C611.11,217.23 700.5,236 700.5,236 C700.5,236 709.9,260.41 717.4,279.87 " fill="none" id="EliminarGradoView-&gt;GradosAbiertoSalida-1" style="stroke: #A80036; stroke-width: 1.0; stroke-dasharray: 7.0,7.0;"/><polygon fill="#A80036" points="719.26,284.7,719.7464,274.8632,717.4574,280.0362,712.2844,277.7473,719.26,284.7" style="stroke: #A80036; stroke-width: 1.0;"/><text fill="#000000" font-family="sans-serif" font-size="13" lengthAdjust="spacingAndGlyphs" textLength="63" x="707.5" y="250.897">«cancelar»</text><!--MD5=[546a31796b5f0f74cae0c2d163759a08]
@startuml eliminarGrado-analisis
skinparam linetype polyline

rectangle #CDEBA5 ":Grados Abierto" as GradosAbierto

package eliminarGrado as "eliminarGrado()" {
    rectangle #629EF9 EliminarGradoView
    rectangle #b5bd68 GradoController
    rectangle #F2AC4E GradoRepository
    rectangle #F2AC4E Grado
}

rectangle #F2AC4E AsignaturaRepository
rectangle #CDEBA5 ":Grados Abierto" as GradosAbiertoSalida

GradosAbierto -r-> EliminarGradoView: eliminarGrado(grado)

EliminarGradoView -d-> GradoController: verificarAsignaturasAsociadas(grado) : Integer

GradoController -d-> AsignaturaRepository: contarPorGrado(grado) : Integer

EliminarGradoView -d-> GradoController: eliminar(grado)

GradoController -d-> GradoRepository: eliminar(grado)

EliminarGradoView ..> GradosAbiertoSalida: <<finalizar>>
EliminarGradoView ..> GradosAbiertoSalida: <<cancelar>>

@enduml

PlantUML version 1.2020.02(Sun Mar 01 11:22:07 CET 2020)
(GPL source distribution)
Java Runtime: OpenJDK Runtime Environment
JVM: OpenJDK 64-Bit Server VM
Java Version: 21.0.10+7-Ubuntu-125.10
Operating System: Linux
Default Encoding: UTF-8
Language: es
Country: ES
--></g></svg>