<?xml version="1.0" encoding="us-ascii" standalone="no"?><svg xmlns="http://www.w3.org/2000/svg" xmlns:xlink="http://www.w3.org/1999/xlink" contentStyleType="text/css" height="762px" preserveAspectRatio="none" style="width:713px;height:762px;background:#FFFFFF;" version="1.1" viewBox="0 0 713 762" width="713px" zoomAndPan="magnify"><defs/><g><path d="M19.5,7 L687.5,7 A12.5,12.5 0 0 1 700,19.5 L700,34.6094 L7,34.6094 L7,19.5 A12.5,12.5 0 0 1 19.5,7 " fill="#F1F1F1" style="stroke:#F1F1F1;stroke-width:1.0;"/><rect fill="none" height="602.6094" rx="12.5" ry="12.5" style="stroke:#181818;stroke-width:0.5;" width="693" x="7" y="7"/><line style="stroke:#181818;stroke-width:0.5;" x1="7" x2="700" y1="34.6094" y2="34.6094"/><text fill="#000000" font-family="sans-serif" font-size="14" lengthAdjust="spacing" textLength="208" x="249.5" y="26.5332">descargarCalendarioExamenes()</text><g id="descargarCalendarioExamenes.SeleccionandoFormato"><rect fill="#F1F1F1" height="50" rx="12.5" ry="12.5" style="stroke:#181818;stroke-width:0.5;" width="50" x="169" y="137.6094"/><line style="stroke:#181818;stroke-width:0.5;" x1="169" x2="219" y1="165.2188" y2="165.2188"/><text fill="#000000" font-family="sans-serif" font-size="14" lengthAdjust="spacing" textLength="4" x="192" y="157.1426">&#160;</text></g><g id="descargarCalendarioExamenes.GenerandoArchivo"><rect fill="#F1F1F1" height="50" rx="12.5" ry="12.5" style="stroke:#181818;stroke-width:0.5;" width="50" x="169" y="357.6094"/><line style="stroke:#181818;stroke-width:0.5;" x1="169" x2="219" y1="385.2188" y2="385.2188"/><text fill="#000000" font-family="sans-serif" font-size="14" lengthAdjust="spacing" textLength="4" x="192" y="377.1426">&#160;</text></g><ellipse cx="194" cy="55.6094" fill="#222222" rx="10" ry="10" style="stroke:#222222;stroke-width:1.0;"/><ellipse cx="194" cy="588.6094" fill="none" rx="11" ry="11" style="stroke:#222222;stroke-width:1.0;"/><ellipse cx="194" cy="588.6094" fill="#222222" rx="6" ry="6" style="stroke:#222222;stroke-width:1.0;"/><!--link *start*descargarCalendarioExamenes to SeleccionandoFormato--><g id="link_*start*descargarCalendarioExamenes_SeleccionandoFormato"><path d="M194,65.9294 C194,81.7894 194,108.5194 194,131.2494 " fill="none" id="*start*descargarCalendarioExamenes-to-SeleccionandoFormato" style="stroke:#008000;stroke-width:1.0;"/><polygon fill="#008000" points="194,137.2494,198,128.2494,194,132.2494,190,128.2494,194,137.2494" style="stroke:#008000;stroke-width:1.0;"/><path d="M199,88.6094 L199,114.6094 L438,114.6094 L438,98.6094 L428,88.6094 L199,88.6094 " fill="#FEFFDD" style="stroke:#181818;stroke-width:0.5;"/><path d="M428,88.6094 L428,98.6094 L438,98.6094 L428,88.6094 " fill="#FEFFDD" style="stroke:#181818;stroke-width:0.5;"/><text fill="#000000" font-family="sans-serif" font-size="13" font-weight="bold" lengthAdjust="spacing" textLength="49" x="205" y="107.1045">Alumno</text><text fill="#000000" font-family="sans-serif" font-size="13" lengthAdjust="spacing" textLength="165" x="258" y="107.1045">solicita descargar calendario</text></g><!--link SeleccionandoFormato to GenerandoArchivo--><g id="link_SeleccionandoFormato_GenerandoArchivo"><path d="M194,187.7694 C194,229.6794 194,309.3594 194,351.3394 " fill="none" id="SeleccionandoFormato-to-GenerandoArchivo" style="stroke:#008000;stroke-width:1.0;"/><polygon fill="#008000" points="194,357.3394,198,348.3394,194,352.3394,190,348.3394,194,357.3394" style="stroke:#008000;stroke-width:1.0;"/><path d="M199,210.6094 L199,334.6094 L550,334.6094 L550,220.6094 L540,210.6094 L199,210.6094 " fill="#FEFFDD" style="stroke:#181818;stroke-width:0.5;"/><path d="M540,210.6094 L540,220.6094 L550,220.6094 L540,210.6094 " fill="#FEFFDD" style="stroke:#181818;stroke-width:0.5;"/><text fill="#000000" font-family="sans-serif" font-size="13" font-weight="bold" lengthAdjust="spacing" textLength="51" x="205" y="229.1045">Sistema</text><text fill="#000000" font-family="sans-serif" font-size="13" lengthAdjust="spacing" textLength="234" x="260" y="229.1045">presenta opciones de descarga personal</text><text fill="#000000" font-family="sans-serif" font-size="13" lengthAdjust="spacing" textLength="246" x="205" y="245.4561">&#8226; Permite seleccionar formato (PDF/Excel)</text><text fill="#000000" font-family="sans-serif" font-size="13" lengthAdjust="spacing" textLength="232" x="205" y="261.8076">&#8226; Permite seleccionar per&#237;odo espec&#237;fico</text><text fill="#000000" font-family="sans-serif" font-size="13" lengthAdjust="spacing" textLength="243" x="205" y="278.1592">&#8226; Permite seleccionar informaci&#243;n a incluir</text><text fill="#000000" font-family="sans-serif" font-size="13" lengthAdjust="spacing" textLength="247" x="205" y="294.5107">&#8226; Permite solicitar generar archivo personal</text><text fill="#000000" font-family="sans-serif" font-size="13" lengthAdjust="spacing" textLength="213" x="205" y="310.8623">&#8226; Permite solicitar cancelar descarga</text><text fill="#000000" font-family="sans-serif" font-size="13" font-weight="bold" lengthAdjust="spacing" textLength="51" x="205" y="327.2139">Sistema</text><text fill="#000000" font-family="sans-serif" font-size="13" lengthAdjust="spacing" textLength="275" x="260" y="327.2139">muestra solo opciones disponibles para alumno</text></g><!--link GenerandoArchivo to *end*descargarCalendarioExamenes--><g id="link_GenerandoArchivo_*end*descargarCalendarioExamenes"><path d="M168.78,389.6294 C120.12,401.2394 18,425.6094 18,425.6094 C18,425.6094 18,559.6094 18,559.6094 C18,559.6094 139.1145,578.8768 177.3345,584.9568 " fill="none" id="GenerandoArchivo-to-*end*descargarCalendarioExamenes" style="stroke:#008000;stroke-width:1.0;"/><polygon fill="#008000" points="183.26,585.8994,175.0002,580.5351,178.3221,585.1139,173.7433,588.4358,183.26,585.8994" style="stroke:#008000;stroke-width:1.0;"/><path d="M23,430.6094 L23,554.6094 L345,554.6094 L345,440.6094 L335,430.6094 L23,430.6094 " fill="#FEFFDD" style="stroke:#181818;stroke-width:0.5;"/><path d="M335,430.6094 L335,440.6094 L345,440.6094 L335,430.6094 " fill="#FEFFDD" style="stroke:#181818;stroke-width:0.5;"/><text fill="#000000" font-family="sans-serif" font-size="13" font-weight="bold" lengthAdjust="spacing" textLength="49" x="29" y="449.1045">Alumno</text><text fill="#000000" font-family="sans-serif" font-size="13" lengthAdjust="spacing" textLength="244" x="82" y="449.1045">introduce preferencias y solicita descargar</text><text fill="#000000" font-family="sans-serif" font-size="13" font-weight="bold" lengthAdjust="spacing" textLength="51" x="29" y="465.4561">Sistema</text><text fill="#000000" font-family="sans-serif" font-size="13" lengthAdjust="spacing" textLength="200" x="84" y="465.4561">visualiza y genera archivo personal</text><text fill="#000000" font-family="sans-serif" font-size="13" font-weight="bold" lengthAdjust="spacing" textLength="51" x="29" y="481.8076">Sistema</text><text fill="#000000" font-family="sans-serif" font-size="13" lengthAdjust="spacing" textLength="206" x="84" y="481.8076">muestra solo ex&#225;menes del alumno</text><text fill="#000000" font-family="sans-serif" font-size="13" font-weight="bold" lengthAdjust="spacing" textLength="51" x="29" y="498.1592">Sistema</text><text fill="#000000" font-family="sans-serif" font-size="13" lengthAdjust="spacing" textLength="180" x="84" y="498.1592">presenta archivo para descarga</text><text fill="#000000" font-family="sans-serif" font-size="13" font-weight="bold" lengthAdjust="spacing" textLength="51" x="29" y="514.5107">Sistema</text><text fill="#000000" font-family="sans-serif" font-size="13" lengthAdjust="spacing" textLength="210" x="84" y="514.5107">presenta enlace de descarga seguro</text><text fill="#000000" font-family="sans-serif" font-size="13" font-weight="bold" lengthAdjust="spacing" textLength="49" x="29" y="530.8623">Alumno</text><text fill="#000000" font-family="sans-serif" font-size="13" lengthAdjust="spacing" textLength="199" x="82" y="530.8623">solicita descargar archivo personal</text><text fill="#000000" font-family="sans-serif" font-size="13" font-weight="bold" lengthAdjust="spacing" textLength="51" x="29" y="547.2139">Sistema</text><text fill="#000000" font-family="sans-serif" font-size="13" lengthAdjust="spacing" textLength="246" x="84" y="547.2139">visualiza y registra descarga en el sistema</text></g><!--link GenerandoArchivo to *end*descargarCalendarioExamenes--><g id="link_GenerandoArchivo_*end*descargarCalendarioExamenes"><path d="M219.06,390.3594 C263.16,402.2294 350,425.6094 350,425.6094 C350,425.6094 350,559.6094 350,559.6094 C350,559.6094 245.8755,578.2989 210.6255,584.6289 " fill="none" id="GenerandoArchivo-to-*end*descargarCalendarioExamenes-1" style="stroke:#FF0000;stroke-width:1.0;"/><polygon fill="#FF0000" points="204.72,585.6894,214.2853,588.0357,209.6413,584.8056,212.8713,580.1616,204.72,585.6894" style="stroke:#FF0000;stroke-width:1.0;"/><path d="M355,463.1094 L355,522.1094 L691,522.1094 L691,473.1094 L681,463.1094 L355,463.1094 " fill="#FEFFDD" style="stroke:#181818;stroke-width:0.5;"/><path d="M681,463.1094 L681,473.1094 L691,473.1094 L681,463.1094 " fill="#FEFFDD" style="stroke:#181818;stroke-width:0.5;"/><text fill="#000000" font-family="sans-serif" font-size="13" font-weight="bold" lengthAdjust="spacing" textLength="49" x="361" y="481.6045">Alumno</text><text fill="#000000" font-family="sans-serif" font-size="13" lengthAdjust="spacing" textLength="151" x="414" y="481.6045">solicita cancelar descarga</text><text fill="#000000" font-family="sans-serif" font-size="13" font-weight="bold" lengthAdjust="spacing" textLength="51" x="361" y="497.9561">Sistema</text><text fill="#000000" font-family="sans-serif" font-size="13" lengthAdjust="spacing" textLength="260" x="416" y="497.9561">visualiza y descarta la generaci&#243;n del archivo</text><text fill="#000000" font-family="sans-serif" font-size="13" font-weight="bold" lengthAdjust="spacing" textLength="51" x="361" y="514.3076">Sistema</text><text fill="#000000" font-family="sans-serif" font-size="13" lengthAdjust="spacing" textLength="246" x="416" y="514.3076">visualiza y regresa a la vista del calendario</text></g><g id="CALENDARIO_ABIERTO"><rect fill="#F1F1F1" height="50" rx="12.5" ry="12.5" style="stroke:#181818;stroke-width:0.5;" width="176" x="265.5" y="706"/><line style="stroke:#181818;stroke-width:0.5;" x1="265.5" x2="441.5" y1="733.6094" y2="733.6094"/><text fill="#000000" font-family="sans-serif" font-size="14" lengthAdjust="spacing" textLength="156" x="275.5" y="725.5332">CALENDARIO_ABIERTO</text></g><!--link descargarCalendarioExamenes to CALENDARIO_ABIERTO--><g id="link_descargarCalendarioExamenes_CALENDARIO_ABIERTO"><path d="M263.46,610.09 C257.91,628.62 254.5,640 254.5,640 C254.5,640 254.5,676 254.5,676 C254.5,676 277.5819,688.5981 303.9419,702.9681 " fill="none" id="descargarCalendarioExamenes-to-CALENDARIO_ABIERTO" style="stroke:#008000;stroke-width:1.0;"/><polygon fill="#008000" points="309.21,705.84,303.2225,698.0202,304.8199,703.4468,299.3933,705.0443,309.21,705.84" style="stroke:#008000;stroke-width:1.0;"/><path d="M259.5,645 L259.5,671 L402.5,671 L402.5,655 L392.5,645 L259.5,645 " fill="#FEFFDD" style="stroke:#181818;stroke-width:0.5;"/><path d="M392.5,645 L392.5,655 L402.5,655 L392.5,645 " fill="#FEFFDD" style="stroke:#181818;stroke-width:0.5;"/><text fill="#000000" font-family="sans-serif" font-size="13" lengthAdjust="spacing" textLength="122" x="265.5" y="663.4951">consultarCalendario()</text></g><!--link descargarCalendarioExamenes to CALENDARIO_ABIERTO--><g id="link_descargarCalendarioExamenes_CALENDARIO_ABIERTO"><path d="M406.25,610.09 C409.5,628.62 411.5,640 411.5,640 C411.5,640 411.5,676 411.5,676 C411.5,676 399.2821,687.3823 383.8421,701.7523 " fill="none" id="descargarCalendarioExamenes-to-CALENDARIO_ABIERTO-1" style="stroke:#FF0000;stroke-width:1.0;"/><polygon fill="#FF0000" points="379.45,705.84,388.7633,702.6365,383.1101,702.4336,383.313,696.7804,379.45,705.84" style="stroke:#FF0000;stroke-width:1.0;"/><path d="M416.5,645 L416.5,671 L543.5,671 L543.5,655 L533.5,645 L416.5,645 " fill="#FEFFDD" style="stroke:#181818;stroke-width:0.5;"/><path d="M533.5,645 L533.5,655 L543.5,655 L533.5,645 " fill="#FEFFDD" style="stroke:#181818;stroke-width:0.5;"/><text fill="#000000" font-family="sans-serif" font-size="13" lengthAdjust="spacing" textLength="106" x="422.5" y="663.4951">cancelar descarga</text></g><!--SRC=[ZLJ1Qjj04BtlLopknIw4_40mg8bJ0YK9IMyXbF5gh2nPxOfPATWfXVvAUy-fd-0_wPTqLf8LoRQaeeCazisRUM-Uv9-rpO0WbKPRp3SPoioPJNWHmkUGeupHAw04w1mCsXX8kyKQKhJe9NWv6JYVpYRo-uvdmXVZxz6WKjfPiB6xT9H2xhg8prnAuJGYzQHVd10F7n_boSE7X13juydyE8TrJE5i4F8ipfRpo1IfTMUdoxdqpcYbStZN8bKphE2x3CL27EFjD3uORR_flVOvfb1spGWzMkxgii39TiNlRieCoNCZ8_x-_2rlaLBDJBuPWEIgxZ-zlRWyNQmLcbalbicsRovs4ds6QlksqihrWhKjgPNU_h4I-5MPGbCNNXj6CYaLauHASC_O3Lo1vK7vOQTptvIqG9yJX1BNCaRxp5czDFmSuYYXN5vhDVlETzR2-HXQlxOvkRXG65QoGaAhDETiSoGN- -E-Q5-0qQ_0wCgAGoU65E9w-wlwL68qErLzEMcOWmDz1ZPej0OKTZBbCId8ZOT_J49RDM6YIprD5xIIjVWAFx8YmlW_5jICE1gVzcGLXgiCrBkf8bqwNN-VmyBOIdOzrFD1wP0v-cFu8SJGNx0TnVFeo-Bw8hgxklaMVRfQt7szwGfNplh2v6sUwQnbuaYVsi_HBWS-DXt-0G00]--></g></svg>