<?xml version="1.0" encoding="us-ascii" standalone="no"?><svg xmlns="http://www.w3.org/2000/svg" xmlns:xlink="http://www.w3.org/1999/xlink" contentStyleType="text/css" height="696px" preserveAspectRatio="none" style="width:756px;height:696px;background:#FFFFFF;" version="1.1" viewBox="0 0 756 696" width="756px" zoomAndPan="magnify"><defs/><g><path d="M19.5,7 L730.5,7 A12.5,12.5 0 0 1 743,19.5 L743,34.6094 L7,34.6094 L7,19.5 A12.5,12.5 0 0 1 19.5,7 " fill="#F1F1F1" style="stroke:#F1F1F1;stroke-width:1.0;"/><rect fill="none" height="536.6094" rx="12.5" ry="12.5" style="stroke:#181818;stroke-width:0.5;" width="736" x="7" y="7"/><line style="stroke:#181818;stroke-width:0.5;" x1="7" x2="743" y1="34.6094" y2="34.6094"/><text fill="#000000" font-family="sans-serif" font-size="14" lengthAdjust="spacing" textLength="96" x="327" y="26.5332">editarExamen()</text><g id="editarExamen.EditandoDatos"><rect fill="#F1F1F1" height="50" rx="12.5" ry="12.5" style="stroke:#181818;stroke-width:0.5;" width="50" x="195" y="137.6094"/><line style="stroke:#181818;stroke-width:0.5;" x1="195" x2="245" y1="165.2188" y2="165.2188"/><text fill="#000000" font-family="sans-serif" font-size="14" lengthAdjust="spacing" textLength="4" x="218" y="157.1426">&#160;</text></g><g id="editarExamen.GuardandoDatos"><rect fill="#F1F1F1" height="50" rx="12.5" ry="12.5" style="stroke:#181818;stroke-width:0.5;" width="50" x="195" y="373.6094"/><line style="stroke:#181818;stroke-width:0.5;" x1="195" x2="245" y1="401.2188" y2="401.2188"/><text fill="#000000" font-family="sans-serif" font-size="14" lengthAdjust="spacing" textLength="4" x="218" y="393.1426">&#160;</text></g><ellipse cx="220" cy="55.6094" fill="#222222" rx="10" ry="10" style="stroke:#222222;stroke-width:1.0;"/><ellipse cx="220" cy="522.6094" fill="none" rx="11" ry="11" style="stroke:#222222;stroke-width:1.0;"/><ellipse cx="220" cy="522.6094" fill="#222222" rx="6" ry="6" style="stroke:#222222;stroke-width:1.0;"/><!--link *start*editarExamen to EditandoDatos--><g id="link_*start*editarExamen_EditandoDatos"><path d="M220,65.9294 C220,81.7894 220,108.5194 220,131.2494 " fill="none" id="*start*editarExamen-to-EditandoDatos" style="stroke:#008000;stroke-width:1.0;"/><polygon fill="#008000" points="220,137.2494,224,128.2494,220,132.2494,216,128.2494,220,137.2494" style="stroke:#008000;stroke-width:1.0;"/><path d="M225,88.6094 L225,114.6094 L466,114.6094 L466,98.6094 L456,88.6094 L225,88.6094 " fill="#FEFFDD" style="stroke:#181818;stroke-width:0.5;"/><path d="M456,88.6094 L456,98.6094 L466,98.6094 L456,88.6094 " fill="#FEFFDD" style="stroke:#181818;stroke-width:0.5;"/><text fill="#000000" font-family="sans-serif" font-size="13" font-weight="bold" lengthAdjust="spacing" textLength="89" x="231" y="107.1045">Administrador</text><text fill="#000000" font-family="sans-serif" font-size="13" lengthAdjust="spacing" textLength="127" x="324" y="107.1045">solicita editar examen</text></g><!--link EditandoDatos to GuardandoDatos--><g id="link_EditandoDatos_GuardandoDatos"><path d="M194.69,170.1694 C149.12,181.9894 58,205.6094 58,205.6094 C58,205.6094 58,355.6094 58,355.6094 C58,355.6094 143.3122,377.7229 188.8822,389.5429 " fill="none" id="EditandoDatos-to-GuardandoDatos" style="stroke:#008000;stroke-width:1.0;"/><polygon fill="#008000" points="194.69,391.0494,186.9826,384.9178,189.8502,389.794,184.974,392.6616,194.69,391.0494" style="stroke:#008000;stroke-width:1.0;"/><path d="M63,210.6094 L63,350.6094 L357,350.6094 L357,220.6094 L347,210.6094 L63,210.6094 " fill="#FEFFDD" style="stroke:#181818;stroke-width:0.5;"/><path d="M347,210.6094 L347,220.6094 L357,220.6094 L347,210.6094 " fill="#FEFFDD" style="stroke:#181818;stroke-width:0.5;"/><text fill="#000000" font-family="sans-serif" font-size="13" font-weight="bold" lengthAdjust="spacing" textLength="51" x="69" y="229.1045">Sistema</text><text fill="#000000" font-family="sans-serif" font-size="13" lengthAdjust="spacing" textLength="149" x="124" y="229.1045">presenta datos de edici&#243;n</text><text fill="#000000" font-family="sans-serif" font-size="13" lengthAdjust="spacing" textLength="190" x="69" y="245.4561">&#8226; Permite introducir nuevo c&#243;digo</text><text fill="#000000" font-family="sans-serif" font-size="13" lengthAdjust="spacing" textLength="223" x="69" y="261.8076">&#8226; Permite introducir nueva fecha y hora</text><text fill="#000000" font-family="sans-serif" font-size="13" lengthAdjust="spacing" textLength="201" x="69" y="278.1592">&#8226; Permite introducir nueva duraci&#243;n</text><text fill="#000000" font-family="sans-serif" font-size="13" lengthAdjust="spacing" textLength="273" x="69" y="294.5107">&#8226; Permite solicitar cambiar asignatura asociada</text><text fill="#000000" font-family="sans-serif" font-size="13" lengthAdjust="spacing" textLength="237" x="69" y="310.8623">&#8226; Permite solicitar cambiar aula asignada</text><text fill="#000000" font-family="sans-serif" font-size="13" lengthAdjust="spacing" textLength="203" x="69" y="327.2139">&#8226; Permite solicitar guardar cambios</text><text fill="#000000" font-family="sans-serif" font-size="13" lengthAdjust="spacing" textLength="201" x="69" y="343.5654">&#8226; Permite solicitar cancelar edici&#243;n</text></g><!--link GuardandoDatos to EditandoDatos--><g id="link_GuardandoDatos_EditandoDatos"><path d="M245.06,390.1994 C285.83,378.1394 362,355.6094 362,355.6094 C362,355.6094 362,205.6094 362,205.6094 C362,205.6094 291.5836,184.7813 250.8136,172.7213 " fill="none" id="GuardandoDatos-to-EditandoDatos" style="stroke:#008000;stroke-width:1.0;"/><polygon fill="#008000" points="245.06,171.0194,252.5557,177.408,249.8546,172.4377,254.825,169.7366,245.06,171.0194" style="stroke:#008000;stroke-width:1.0;"/><path d="M367,259.6094 L367,301.6094 L631,301.6094 L631,269.6094 L621,259.6094 L367,259.6094 " fill="#FEFFDD" style="stroke:#181818;stroke-width:0.5;"/><path d="M621,259.6094 L621,269.6094 L631,269.6094 L621,259.6094 " fill="#FEFFDD" style="stroke:#181818;stroke-width:0.5;"/><text fill="#000000" font-family="sans-serif" font-size="13" font-weight="bold" lengthAdjust="spacing" textLength="89" x="373" y="278.1045">Administrador</text><text fill="#000000" font-family="sans-serif" font-size="13" lengthAdjust="spacing" textLength="147" x="466" y="278.1045">solicita modificar campos</text><text fill="#000000" font-family="sans-serif" font-size="13" font-weight="bold" lengthAdjust="spacing" textLength="51" x="373" y="294.4561">Sistema</text><text fill="#000000" font-family="sans-serif" font-size="13" lengthAdjust="spacing" textLength="188" x="428" y="294.4561">permite introducir nuevos valores</text></g><!--link GuardandoDatos to *end*editarExamen--><g id="link_GuardandoDatos_*end*editarExamen"><path d="M194.82,404.8394 C140.68,416.0994 18,441.6094 18,441.6094 C18,441.6094 18,493.6094 18,493.6094 C18,493.6094 161.2367,513.4664 203.1967,519.2764 " fill="none" id="GuardandoDatos-to-*end*editarExamen" style="stroke:#008000;stroke-width:1.0;"/><polygon fill="#008000" points="209.14,520.0994,200.7737,514.9028,204.1873,519.4136,199.6764,522.8272,209.14,520.0994" style="stroke:#008000;stroke-width:1.0;"/><path d="M23,446.6094 L23,488.6094 L397,488.6094 L397,456.6094 L387,446.6094 L23,446.6094 " fill="#FEFFDD" style="stroke:#181818;stroke-width:0.5;"/><path d="M387,446.6094 L387,456.6094 L397,456.6094 L387,446.6094 " fill="#FEFFDD" style="stroke:#181818;stroke-width:0.5;"/><text fill="#000000" font-family="sans-serif" font-size="13" font-weight="bold" lengthAdjust="spacing" textLength="89" x="29" y="465.1045">Administrador</text><text fill="#000000" font-family="sans-serif" font-size="13" lengthAdjust="spacing" textLength="127" x="122" y="465.1045">solicita guardar y salir</text><text fill="#000000" font-family="sans-serif" font-size="13" font-weight="bold" lengthAdjust="spacing" textLength="51" x="29" y="481.4561">Sistema</text><text fill="#000000" font-family="sans-serif" font-size="13" lengthAdjust="spacing" textLength="298" x="84" y="481.4561">visualiza y actualiza el examen en la base de datos</text></g><!--link GuardandoDatos to *end*editarExamen--><g id="link_GuardandoDatos_*end*editarExamen"><path d="M245.31,405.4494 C295.31,416.9894 402,441.6094 402,441.6094 C402,441.6094 402,493.6094 402,493.6094 C402,493.6094 275.9502,512.9967 236.7702,519.0267 " fill="none" id="GuardandoDatos-to-*end*editarExamen-1" style="stroke:#FF0000;stroke-width:1.0;"/><polygon fill="#FF0000" points="230.84,519.9394,240.3437,522.5238,235.7818,519.1788,239.1268,514.6169,230.84,519.9394" style="stroke:#FF0000;stroke-width:1.0;"/><path d="M407,446.6094 L407,488.6094 L734,488.6094 L734,456.6094 L724,446.6094 L407,446.6094 " fill="#FEFFDD" style="stroke:#181818;stroke-width:0.5;"/><path d="M724,446.6094 L724,456.6094 L734,456.6094 L724,446.6094 " fill="#FEFFDD" style="stroke:#181818;stroke-width:0.5;"/><text fill="#000000" font-family="sans-serif" font-size="13" font-weight="bold" lengthAdjust="spacing" textLength="89" x="413" y="465.1045">Administrador</text><text fill="#000000" font-family="sans-serif" font-size="13" lengthAdjust="spacing" textLength="139" x="506" y="465.1045">solicita cancelar edici&#243;n</text><text fill="#000000" font-family="sans-serif" font-size="13" font-weight="bold" lengthAdjust="spacing" textLength="51" x="413" y="481.4561">Sistema</text><text fill="#000000" font-family="sans-serif" font-size="13" lengthAdjust="spacing" textLength="251" x="468" y="481.4561">visualiza y descarta los cambios realizados</text></g><g id="EXAMENES_ABIERTO"><rect fill="#F1F1F1" height="50" rx="12.5" ry="12.5" style="stroke:#181818;stroke-width:0.5;" width="161" x="294.5" y="640"/><line style="stroke:#181818;stroke-width:0.5;" x1="294.5" x2="455.5" y1="667.6094" y2="667.6094"/><text fill="#000000" font-family="sans-serif" font-size="14" lengthAdjust="spacing" textLength="141" x="304.5" y="659.5332">EXAMENES_ABIERTO</text></g><!--link editarExamen to EXAMENES_ABIERTO--><g id="link_editarExamen_EXAMENES_ABIERTO"><path d="M297.64,544.11 C292.31,562.54 289,574 289,574 C289,574 289,610 289,610 C289,610 308.5478,622.2808 331.4478,636.6508 " fill="none" id="editarExamen-to-EXAMENES_ABIERTO" style="stroke:#008000;stroke-width:1.0;"/><polygon fill="#008000" points="336.53,639.84,331.0327,631.6681,332.2948,637.1824,326.7805,638.4444,336.53,639.84" style="stroke:#008000;stroke-width:1.0;"/><path d="M294,579 L294,605 L410,605 L410,589 L400,579 L294,579 " fill="#FEFFDD" style="stroke:#181818;stroke-width:0.5;"/><path d="M400,579 L400,589 L410,589 L400,579 " fill="#FEFFDD" style="stroke:#181818;stroke-width:0.5;"/><text fill="#000000" font-family="sans-serif" font-size="13" lengthAdjust="spacing" textLength="95" x="300" y="597.4951">abrirExamenes()</text></g><!--link editarExamen to EXAMENES_ABIERTO--><g id="link_editarExamen_EXAMENES_ABIERTO"><path d="M414.58,544.11 C417.3,562.54 419,574 419,574 C419,574 419,610 419,610 C419,610 410.1922,620.8204 398.4722,635.1904 " fill="none" id="editarExamen-to-EXAMENES_ABIERTO-1" style="stroke:#FF0000;stroke-width:1.0;"/><polygon fill="#FF0000" points="394.68,639.84,403.4681,635.3937,397.8402,635.9653,397.2685,630.3374,394.68,639.84" style="stroke:#FF0000;stroke-width:1.0;"/><path d="M424,579 L424,605 L539,605 L539,589 L529,579 L424,579 " fill="#FEFFDD" style="stroke:#181818;stroke-width:0.5;"/><path d="M529,579 L529,589 L539,589 L529,579 " fill="#FEFFDD" style="stroke:#181818;stroke-width:0.5;"/><text fill="#000000" font-family="sans-serif" font-size="13" lengthAdjust="spacing" textLength="94" x="430" y="597.4951">cancelar edici&#243;n</text></g><!--SRC=[hLHHQjmm4FtNAORjJn88lK1Os58J-f6sDFa8X136qcGpH9RCI5ww2OMUfLV84NAJdgHZnqlM3kicfTXWMJDlvkczGUcMGus25NWEbDSrGHtzklqn9cNC1EGuenJViQ80c62slR6tFuFxJUPC7qqesdXmyIFcc8QXumR5FSVCnS4b75wyMmfHk3oSZw0XAZA6bjgjEIhd2rTnu9G5NPIZz-KSKlHi5TAJ1Ef86GeEMh0nWuA3LYCgurwdseSgxBhKGec2Td5T5TTfOldn8PZVFt_1LvAA5SqXItIDPO7Gq2g2VNnml8nJIGZNP6yGrd0J1QSpNIFuikj60W6BLSdwnSJBW5cpTHajeyE_8HgFFMndxhBJgyUeOBig1ak-TMAZqBCNGyN_Z-zLT7pDzebNhTYnTJkyIR127zNNr_7JENqBgurMQqZeMSQaLfmQtRzhRKUR-pNvVdn1N_MZn4Jjh7L3DqbJoFq3oPTMJT1qb5HaHNbjsOy027LXjqtlXp632sFWyldYfFXSd5ujFdmglfrz6RB5KhX7KThRtphnk61_tkbo4vFu1m00]--></g></svg>