<?xml version="1.0" encoding="us-ascii" standalone="no"?><svg xmlns="http://www.w3.org/2000/svg" xmlns:xlink="http://www.w3.org/1999/xlink" contentStyleType="text/css" height="682px" preserveAspectRatio="none" style="width:783px;height:682px;background:#FFFFFF;" version="1.1" viewBox="0 0 783 682" width="783px" zoomAndPan="magnify"><defs/><g><path d="M173.5,7 L474.5,7 A12.5,12.5 0 0 1 487,19.5 L487,34.6094 L161,34.6094 L161,19.5 A12.5,12.5 0 0 1 173.5,7 " fill="#F1F1F1" style="stroke:#F1F1F1;stroke-width:1.0;"/><rect fill="none" height="522.6094" rx="12.5" ry="12.5" style="stroke:#181818;stroke-width:0.5;" width="326" x="161" y="7"/><line style="stroke:#181818;stroke-width:0.5;" x1="161" x2="487" y1="34.6094" y2="34.6094"/><text fill="#000000" font-family="sans-serif" font-size="14" lengthAdjust="spacing" textLength="108" x="270" y="26.5332">abrirProfesores()</text><g id="abrirProfesores.MostrandoLista"><rect fill="#F1F1F1" height="50" rx="12.5" ry="12.5" style="stroke:#181818;stroke-width:0.5;" width="50" x="173" y="137.6094"/><line style="stroke:#181818;stroke-width:0.5;" x1="173" x2="223" y1="165.2188" y2="165.2188"/><text fill="#000000" font-family="sans-serif" font-size="14" lengthAdjust="spacing" textLength="4" x="196" y="157.1426">&#160;</text></g><g id="abrirProfesores.FiltrandoLista"><rect fill="#F1F1F1" height="50" rx="12.5" ry="12.5" style="stroke:#181818;stroke-width:0.5;" width="50" x="173" y="374.6094"/><line style="stroke:#181818;stroke-width:0.5;" x1="173" x2="223" y1="402.2188" y2="402.2188"/><text fill="#000000" font-family="sans-serif" font-size="14" lengthAdjust="spacing" textLength="4" x="196" y="394.1426">&#160;</text></g><ellipse cx="198" cy="55.6094" fill="#222222" rx="10" ry="10" style="stroke:#222222;stroke-width:1.0;"/><ellipse cx="198" cy="508.6094" fill="none" rx="11" ry="11" style="stroke:#222222;stroke-width:1.0;"/><ellipse cx="198" cy="508.6094" fill="#222222" rx="6" ry="6" style="stroke:#222222;stroke-width:1.0;"/><!--link *start*abrirProfesores to MostrandoLista--><g id="link_*start*abrirProfesores_MostrandoLista"><path d="M198,65.9294 C198,81.7894 198,108.5194 198,131.2494 " fill="none" id="*start*abrirProfesores-to-MostrandoLista" style="stroke:#008000;stroke-width:1.0;"/><polygon fill="#008000" points="198,137.2494,202,128.2494,198,132.2494,194,128.2494,198,137.2494" style="stroke:#008000;stroke-width:1.0;"/><path d="M203,88.6094 L203,114.6094 L451,114.6094 L451,98.6094 L441,88.6094 L203,88.6094 " fill="#FEFFDD" style="stroke:#181818;stroke-width:0.5;"/><path d="M441,88.6094 L441,98.6094 L451,98.6094 L441,88.6094 " fill="#FEFFDD" style="stroke:#181818;stroke-width:0.5;"/><text fill="#000000" font-family="sans-serif" font-size="13" font-weight="bold" lengthAdjust="spacing" textLength="89" x="209" y="107.1045">Administrador</text><text fill="#000000" font-family="sans-serif" font-size="13" lengthAdjust="spacing" textLength="134" x="302" y="107.1045">solicita abrir profesores</text></g><!--link MostrandoLista to FiltrandoLista--><g id="link_MostrandoLista_FiltrandoLista"><path d="M198,187.8694 C198,233.0194 198,323.4294 198,368.4794 " fill="none" id="MostrandoLista-to-FiltrandoLista" style="stroke:#008000;stroke-width:1.0;"/><polygon fill="#008000" points="198,374.4794,202,365.4794,198,369.4794,194,365.4794,198,374.4794" style="stroke:#008000;stroke-width:1.0;"/><path d="M203,210.6094 L203,350.6094 L463,350.6094 L463,220.6094 L453,210.6094 L203,210.6094 " fill="#FEFFDD" style="stroke:#181818;stroke-width:0.5;"/><path d="M453,210.6094 L453,220.6094 L463,220.6094 L453,210.6094 " fill="#FEFFDD" style="stroke:#181818;stroke-width:0.5;"/><text fill="#000000" font-family="sans-serif" font-size="13" font-weight="bold" lengthAdjust="spacing" textLength="51" x="209" y="229.1045">Sistema</text><text fill="#000000" font-family="sans-serif" font-size="13" lengthAdjust="spacing" textLength="160" x="264" y="229.1045">presenta lista de profesores</text><text fill="#000000" font-family="sans-serif" font-size="13" lengthAdjust="spacing" textLength="239" x="209" y="245.4561">&#8226; C&#243;digo, nombre, email de cada profesor</text><text fill="#000000" font-family="sans-serif" font-size="13" lengthAdjust="spacing" textLength="237" x="209" y="261.8076">&#8226; Departamento, asignaturas que imparte</text><text fill="#000000" font-family="sans-serif" font-size="13" lengthAdjust="spacing" textLength="163" x="209" y="278.1592">&#8226; Permite solicitar filtrar lista</text><text fill="#000000" font-family="sans-serif" font-size="13" lengthAdjust="spacing" textLength="223" x="209" y="294.5107">&#8226; Permite solicitar crear profesor nuevo</text><text fill="#000000" font-family="sans-serif" font-size="13" lengthAdjust="spacing" textLength="202" x="209" y="310.8623">&#8226; Permite solicitar eliminar profesor</text><text fill="#000000" font-family="sans-serif" font-size="13" lengthAdjust="spacing" textLength="189" x="209" y="327.2139">&#8226; Permite solicitar editar profesor</text><text fill="#000000" font-family="sans-serif" font-size="13" lengthAdjust="spacing" textLength="218" x="209" y="343.5654">&#8226; Permite solicitar importar profesores</text></g><!--link FiltrandoLista to FiltrandoLista--><g id="link_FiltrandoLista_FiltrandoLista"><path d="M223.18,388.0294 C232.91,387.5194 241,391.3794 241,399.6094 C241,407.8394 238.9018,412.0134 229.1718,411.5034 " fill="none" id="FiltrandoLista-to-FiltrandoLista" style="stroke:#008000;stroke-width:1.0;"/><polygon fill="#008000" points="223.18,411.1894,231.9583,415.655,228.1731,411.4511,232.377,407.6659,223.18,411.1894" style="stroke:#008000;stroke-width:1.0;"/><path d="M246,378.6094 L246,420.6094 L461,420.6094 L461,388.6094 L451,378.6094 L246,378.6094 " fill="#FEFFDD" style="stroke:#181818;stroke-width:0.5;"/><path d="M451,378.6094 L451,388.6094 L461,388.6094 L451,378.6094 " fill="#FEFFDD" style="stroke:#181818;stroke-width:0.5;"/><text fill="#000000" font-family="sans-serif" font-size="13" font-weight="bold" lengthAdjust="spacing" textLength="89" x="252" y="397.1045">Administrador</text><text fill="#000000" font-family="sans-serif" font-size="13" lengthAdjust="spacing" textLength="101" x="345" y="397.1045">solicita filtrar lista</text><text fill="#000000" font-family="sans-serif" font-size="13" font-weight="bold" lengthAdjust="spacing" textLength="51" x="252" y="413.4561">Sistema</text><text fill="#000000" font-family="sans-serif" font-size="13" lengthAdjust="spacing" textLength="120" x="307" y="413.4561">presenta lista filtrada</text></g><!--link FiltrandoLista to *end*abrirProfesores--><g id="link_FiltrandoLista_*end*abrirProfesores"><path d="M198,424.6194 C198,447.5394 198,474.9694 198,491.5294 " fill="none" id="FiltrandoLista-to-*end*abrirProfesores" style="stroke:#008000;stroke-width:1.0;"/><polygon fill="#008000" points="198,497.5294,202,488.5294,198,492.5294,194,488.5294,198,497.5294" style="stroke:#008000;stroke-width:1.0;"/><path d="M203,448.6094 L203,474.6094 L478,474.6094 L478,458.6094 L468,448.6094 L203,448.6094 " fill="#FEFFDD" style="stroke:#181818;stroke-width:0.5;"/><path d="M468,448.6094 L468,458.6094 L478,458.6094 L468,448.6094 " fill="#FEFFDD" style="stroke:#181818;stroke-width:0.5;"/><text fill="#000000" font-family="sans-serif" font-size="13" font-weight="bold" lengthAdjust="spacing" textLength="89" x="209" y="467.1045">Administrador</text><text fill="#000000" font-family="sans-serif" font-size="13" lengthAdjust="spacing" textLength="161" x="302" y="467.1045">solicita una de las opciones</text></g><g id="PROFESOR_ABIERTO"><rect fill="#F1F1F1" height="50" rx="12.5" ry="12.5" style="stroke:#181818;stroke-width:0.5;" width="166" x="32" y="626"/><line style="stroke:#181818;stroke-width:0.5;" x1="32" x2="198" y1="653.6094" y2="653.6094"/><text fill="#000000" font-family="sans-serif" font-size="14" lengthAdjust="spacing" textLength="146" x="42" y="645.5332">PROFESOR_ABIERTO</text></g><g id="PROFESORES_ABIERTO"><rect fill="#F1F1F1" height="50" rx="12.5" ry="12.5" style="stroke:#181818;stroke-width:0.5;" width="184" x="285" y="626"/><line style="stroke:#181818;stroke-width:0.5;" x1="285" x2="469" y1="653.6094" y2="653.6094"/><text fill="#000000" font-family="sans-serif" font-size="14" lengthAdjust="spacing" textLength="164" x="295" y="645.5332">PROFESORES_ABIERTO</text></g><g id="SISTEMA_DISPONIBLE"><rect fill="#F1F1F1" height="50" rx="12.5" ry="12.5" style="stroke:#181818;stroke-width:0.5;" width="167" x="600.5" y="626"/><line style="stroke:#181818;stroke-width:0.5;" x1="600.5" x2="767.5" y1="653.6094" y2="653.6094"/><text fill="#000000" font-family="sans-serif" font-size="14" lengthAdjust="spacing" textLength="147" x="610.5" y="645.5332">SISTEMA_DISPONIBLE</text></g><!--link abrirProfesores to PROFESOR_ABIERTO--><g id="link_abrirProfesores_PROFESOR_ABIERTO"><path d="M160.81,418.58 C82.73,489.91 6,560 6,560 C6,560 6,596 6,596 C6,596 31.8431,608.8075 60.8631,623.1775 " fill="none" id="abrirProfesores-to-PROFESOR_ABIERTO" style="stroke:#008000;stroke-width:1.0;"/><polygon fill="#008000" points="66.24,625.84,59.9497,618.2616,61.7593,623.6212,56.3996,625.4308,66.24,625.84" style="stroke:#008000;stroke-width:1.0;"/><path d="M11,565 L11,591 L120,591 L120,575 L110,565 L11,565 " fill="#FEFFDD" style="stroke:#181818;stroke-width:0.5;"/><path d="M110,565 L110,575 L120,575 L110,565 " fill="#FEFFDD" style="stroke:#181818;stroke-width:0.5;"/><text fill="#000000" font-family="sans-serif" font-size="13" lengthAdjust="spacing" textLength="88" x="17" y="583.4951">editarProfesor()</text></g><!--link abrirProfesores to PROFESOR_ABIERTO--><g id="link_abrirProfesores_PROFESOR_ABIERTO"><path d="M180.84,530.13 C159.25,569.44 143.1078,598.8207 131.1378,620.6207 " fill="none" id="abrirProfesores-to-PROFESOR_ABIERTO-1" style="stroke:#008000;stroke-width:1.0;"/><polygon fill="#008000" points="128.25,625.88,136.0879,619.9162,130.6565,621.4972,129.0755,616.0658,128.25,625.88" style="stroke:#008000;stroke-width:1.0;"/><path d="M166,565 L166,591 L272,591 L272,575 L262,565 L166,565 " fill="#FEFFDD" style="stroke:#181818;stroke-width:0.5;"/><path d="M262,565 L262,575 L272,575 L262,565 " fill="#FEFFDD" style="stroke:#181818;stroke-width:0.5;"/><text fill="#000000" font-family="sans-serif" font-size="13" lengthAdjust="spacing" textLength="85" x="172" y="583.4951">crearProfesor()</text></g><!--link abrirProfesores to PROFESORES_ABIERTO--><g id="link_abrirProfesores_PROFESORES_ABIERTO"><path d="M321.31,530.01 C321.12,548.47 321,560 321,560 C321,560 321,596 321,596 C321,596 332.7198,607.3063 347.6298,621.6763 " fill="none" id="abrirProfesores-to-PROFESORES_ABIERTO" style="stroke:#008000;stroke-width:1.0;"/><polygon fill="#008000" points="351.95,625.84,348.2456,616.7144,348.3499,622.3703,342.694,622.4746,351.95,625.84" style="stroke:#008000;stroke-width:1.0;"/><path d="M326,565 L326,591 L448,591 L448,575 L438,565 L326,565 " fill="#FEFFDD" style="stroke:#181818;stroke-width:0.5;"/><path d="M438,565 L438,575 L448,575 L438,565 " fill="#FEFFDD" style="stroke:#181818;stroke-width:0.5;"/><text fill="#000000" font-family="sans-serif" font-size="13" lengthAdjust="spacing" textLength="101" x="332" y="583.4951">eliminarProfesor()</text></g><!--link abrirProfesores to PROFESORES_ABIERTO--><g id="link_abrirProfesores_PROFESORES_ABIERTO"><path d="M443.27,530.01 C451.72,548.47 457,560 457,560 C457,560 457,596 457,596 C457,596 439.0639,608.1144 417.7639,622.4844 " fill="none" id="abrirProfesores-to-PROFESORES_ABIERTO-1" style="stroke:#008000;stroke-width:1.0;"/><polygon fill="#008000" points="412.79,625.84,422.4879,624.1225,416.9349,623.0436,418.0138,617.4906,412.79,625.84" style="stroke:#008000;stroke-width:1.0;"/><path d="M462,565 L462,591 L600,591 L600,575 L590,565 L462,565 " fill="#FEFFDD" style="stroke:#181818;stroke-width:0.5;"/><path d="M590,565 L590,575 L600,575 L590,565 " fill="#FEFFDD" style="stroke:#181818;stroke-width:0.5;"/><text fill="#000000" font-family="sans-serif" font-size="13" lengthAdjust="spacing" textLength="117" x="468" y="583.4951">importarProfesores()</text></g><!--link abrirProfesores to SISTEMA_DISPONIBLE--><g id="link_abrirProfesores_SISTEMA_DISPONIBLE"><path d="M487.08,433.43 C552.63,499.32 613,560 613,560 C613,560 640.224,594.5092 661.254,621.1692 " fill="none" id="abrirProfesores-to-SISTEMA_DISPONIBLE" style="stroke:#008000;stroke-width:1.0;"/><polygon fill="#008000" points="664.97,625.88,662.5366,616.3365,661.8734,621.9543,656.2555,621.2911,664.97,625.88" style="stroke:#008000;stroke-width:1.0;"/><path d="M645,565 L645,591 L776,591 L776,575 L766,565 L645,565 " fill="#FEFFDD" style="stroke:#181818;stroke-width:0.5;"/><path d="M766,565 L766,575 L776,575 L766,565 " fill="#FEFFDD" style="stroke:#181818;stroke-width:0.5;"/><text fill="#000000" font-family="sans-serif" font-size="13" lengthAdjust="spacing" textLength="110" x="651" y="583.4951">completarGestion()</text></g><!--SRC=[hPJHQi8m58RlynJ1tUXGzW8YwAoZeAjOxqGaDaS9facNr86CmPvbhx17s9liINOQfui5dShQYzBaE__vSyvfxKgeZ1cMKYaKv9iCQARbfdWXnEOi1yhcHfYXqGkmse2bpD9AQQrQgz2N7L_16vc1jhbXYkk-mFN3lPwG_XwPt4vfOtApD01gscYLOYbH6cErAZokI7FUQlDKA54mN9lctRn5hPOY4SWwPpJRMoEWE7NnU15IKlQJbaoLSyQu2YbpsJ8K1eNnqgbmy1D-lRtJ-yyFBfQwZfdJkO4wnKWX2p1XdErfntO16v2p50KnW5cnL2nV6opJqngeI8jTSEGGJ2hGrUwmXYwSPxFrSOH93B3VYb2rXcTz10KfiB0UVOpZxl47XTQryJcl6uGSblkIJfpe_c4zJdTjot9sdYSSqKkCh9KR2ubTr5aYjFBF_af8-QFoKmr7KI-8ez6itGc3qJWwpBkj_IwqMlFiNo_gPkHgpI0-OlLddFvTU3TP_X_eJEauZCV1e3thXl4mUWmx_Q1K2Prc4b3x0MoEVVE5lm40]--></g></svg>