<?xml version="1.0" encoding="us-ascii" standalone="no"?><svg xmlns="http://www.w3.org/2000/svg" xmlns:xlink="http://www.w3.org/1999/xlink" contentStyleType="text/css" height="661px" preserveAspectRatio="none" style="width:541px;height:661px;background:#FFFFFF;" version="1.1" viewBox="0 0 541 661" width="541px" zoomAndPan="magnify"><defs/><g><!--cluster cerrarSesion--><g id="cluster_cerrarSesion"><path d="M178,7 L470,7 A12.5,12.5 0 0 1 482.5,19.5 L482.5,29.6094 L165.5,29.6094 L165.5,19.5 A12.5,12.5 0 0 1 178,7 " fill="#F1F1F1" style="stroke:#F1F1F1;stroke-width:1.0;"/><rect fill="none" height="500" rx="12.5" ry="12.5" style="stroke:#181818;stroke-width:0.5;" width="317" x="165.5" y="7"/><line style="stroke:#181818;stroke-width:0.5;" x1="165.5" x2="482.5" y1="29.6094" y2="29.6094"/><text fill="#000000" font-family="sans-serif" font-size="14" lengthAdjust="spacing" textLength="91" x="278.5" y="25.5332">cerrarSesion()</text></g><g id="cerrarSesion.SolicitandoCierre"><rect fill="#F1F1F1" height="50" rx="12.5" ry="12.5" style="stroke:#181818;stroke-width:0.5;" width="50" x="191.5" y="159"/><line style="stroke:#181818;stroke-width:0.5;" x1="191.5" x2="241.5" y1="186.6094" y2="186.6094"/><text fill="#000000" font-family="sans-serif" font-size="14" lengthAdjust="spacing" textLength="4" x="214.5" y="178.5332">&#160;</text></g><g id="cerrarSesion.ConfirmandoCierre"><rect fill="#F1F1F1" height="50" rx="12.5" ry="12.5" style="stroke:#181818;stroke-width:0.5;" width="50" x="191.5" y="321"/><line style="stroke:#181818;stroke-width:0.5;" x1="191.5" x2="241.5" y1="348.6094" y2="348.6094"/><text fill="#000000" font-family="sans-serif" font-size="14" lengthAdjust="spacing" textLength="4" x="214.5" y="340.5332">&#160;</text></g><g id="elem_c"><polygon fill="#F1F1F1" points="216.5,467,228.5,479,216.5,491,204.5,479,216.5,467" style="stroke:#181818;stroke-width:0.5;"/></g><ellipse cx="216.5" cy="53" fill="#222222" rx="10" ry="10" style="stroke:#222222;stroke-width:1.0;"/><g id="SISTEMA_DISPONIBLE"><rect fill="#F1F1F1" height="50" rx="12.5" ry="12.5" style="stroke:#181818;stroke-width:0.5;" width="167" x="7" y="605"/><line style="stroke:#181818;stroke-width:0.5;" x1="7" x2="174" y1="632.6094" y2="632.6094"/><text fill="#000000" font-family="sans-serif" font-size="14" lengthAdjust="spacing" textLength="147" x="17" y="624.5332">SISTEMA_DISPONIBLE</text></g><g id="SESION_CERRADA"><rect fill="#F1F1F1" height="50" rx="12.5" ry="12.5" style="stroke:#181818;stroke-width:0.5;" width="145" x="271" y="605"/><line style="stroke:#181818;stroke-width:0.5;" x1="271" x2="416" y1="632.6094" y2="632.6094"/><text fill="#000000" font-family="sans-serif" font-size="14" lengthAdjust="spacing" textLength="125" x="281" y="624.5332">SESION_CERRADA</text></g><!--link *start*cerrarSesion to SolicitandoCierre--><g id="link_*start*cerrarSesion_SolicitandoCierre"><path d="M216.5,63.28 C216.5,83.09 216.5,124.09 216.5,152.96 " fill="none" id="*start*cerrarSesion-to-SolicitandoCierre" style="stroke:#008000;stroke-width:1.0;"/><polygon fill="#008000" points="216.5,158.96,220.5,149.96,216.5,153.96,212.5,149.96,216.5,158.96" style="stroke:#008000;stroke-width:1.0;"/><path d="M221.5,98 L221.5,124 L414.5,124 L414.5,108 L404.5,98 L221.5,98 " fill="#FEFFDD" style="stroke:#181818;stroke-width:0.5;"/><path d="M404.5,98 L404.5,108 L414.5,108 L404.5,98 " fill="#FEFFDD" style="stroke:#181818;stroke-width:0.5;"/><text fill="#000000" font-family="sans-serif" font-size="13" font-weight="bold" lengthAdjust="spacing" textLength="48" x="227.5" y="116.4951">Usuario</text><text fill="#000000" font-family="sans-serif" font-size="13" lengthAdjust="spacing" textLength="120" x="279.5" y="116.4951">solicita cerrar sesi&#243;n</text></g><!--link SolicitandoCierre to ConfirmandoCierre--><g id="link_SolicitandoCierre_ConfirmandoCierre"><path d="M216.5,209.3 C216.5,239.55 216.5,284.89 216.5,315 " fill="none" id="SolicitandoCierre-to-ConfirmandoCierre" style="stroke:#008000;stroke-width:1.0;"/><polygon fill="#008000" points="216.5,321,220.5,312,216.5,316,212.5,312,216.5,321" style="stroke:#008000;stroke-width:1.0;"/><path d="M221.5,244 L221.5,286 L424.5,286 L424.5,254 L414.5,244 L221.5,244 " fill="#FEFFDD" style="stroke:#181818;stroke-width:0.5;"/><path d="M414.5,244 L414.5,254 L424.5,254 L414.5,244 " fill="#FEFFDD" style="stroke:#181818;stroke-width:0.5;"/><text fill="#000000" font-family="sans-serif" font-size="13" font-weight="bold" lengthAdjust="spacing" textLength="51" x="227.5" y="262.4951">Sistema</text><text fill="#000000" font-family="sans-serif" font-size="13" lengthAdjust="spacing" textLength="127" x="282.5" y="262.4951">presenta confirmaci&#243;n</text><text fill="#000000" font-family="sans-serif" font-size="13" lengthAdjust="spacing" textLength="182" x="227.5" y="278.8467">&#191;Desea cerrar la sesi&#243;n activa?</text></g><!--link ConfirmandoCierre to c--><g id="link_ConfirmandoCierre_c"><path d="M216.5,371.03 C216.5,399.54 216.5,439.86 216.5,460.93 " fill="none" id="ConfirmandoCierre-to-c" style="stroke:#008000;stroke-width:1.0;"/><polygon fill="#008000" points="216.5,466.93,220.5,457.93,216.5,461.93,212.5,457.93,216.5,466.93" style="stroke:#008000;stroke-width:1.0;"/><path d="M221.5,406 L221.5,432 L461.5,432 L461.5,416 L451.5,406 L221.5,406 " fill="#FEFFDD" style="stroke:#181818;stroke-width:0.5;"/><path d="M451.5,406 L451.5,416 L461.5,416 L451.5,406 " fill="#FEFFDD" style="stroke:#181818;stroke-width:0.5;"/><text fill="#000000" font-family="sans-serif" font-size="13" font-weight="bold" lengthAdjust="spacing" textLength="51" x="227.5" y="424.4951">Sistema</text><text fill="#000000" font-family="sans-serif" font-size="13" lengthAdjust="spacing" textLength="164" x="282.5" y="424.4951">permite confirmar y cancelar</text></g><!--link c to SISTEMA_DISPONIBLE--><g id="link_c_SISTEMA_DISPONIBLE"><path d="M208.04,482.82 C179.34,492.39 87.5,523 87.5,523 C87.5,523 87.5,575 87.5,575 C87.5,575 88.0265,584.4793 88.8265,598.8493 " fill="none" id="c-to-SISTEMA_DISPONIBLE" style="stroke:#FF0000;stroke-width:1.0;"/><polygon fill="#FF0000" points="89.16,604.84,92.6535,595.6316,88.8821,599.8477,84.6659,596.0763,89.16,604.84" style="stroke:#FF0000;stroke-width:1.0;"/><path d="M92.5,536 L92.5,562 L295.5,562 L295.5,546 L285.5,536 L92.5,536 " fill="#FEFFDD" style="stroke:#181818;stroke-width:0.5;"/><path d="M285.5,536 L285.5,546 L295.5,546 L285.5,536 " fill="#FEFFDD" style="stroke:#181818;stroke-width:0.5;"/><text fill="#000000" font-family="sans-serif" font-size="13" font-weight="bold" lengthAdjust="spacing" textLength="48" x="98.5" y="554.4951">Usuario</text><text fill="#000000" font-family="sans-serif" font-size="13" lengthAdjust="spacing" textLength="130" x="150.5" y="554.4951">solicita cancelar cierre</text></g><!--link c to SESION_CERRADA--><g id="link_c_SESION_CERRADA"><path d="M224,483.67 C245.28,494.06 304.5,523 304.5,523 C304.5,523 321.068,568.0391 332.578,599.3191 " fill="none" id="c-to-SESION_CERRADA" style="stroke:#008000;stroke-width:1.0;"/><polygon fill="#008000" points="334.65,604.95,335.296,595.1223,332.9234,600.2576,327.7881,597.885,334.65,604.95" style="stroke:#008000;stroke-width:1.0;"/><path d="M328.5,528 L328.5,570 L534.5,570 L534.5,538 L524.5,528 L328.5,528 " fill="#FEFFDD" style="stroke:#181818;stroke-width:0.5;"/><path d="M524.5,528 L524.5,538 L534.5,538 L524.5,528 " fill="#FEFFDD" style="stroke:#181818;stroke-width:0.5;"/><text fill="#000000" font-family="sans-serif" font-size="13" lengthAdjust="spacing" textLength="185" x="334.5" y="546.4951">Usuario &#8594; UsuarioNoRegistrado</text><text fill="#000000" font-family="sans-serif" font-size="13" lengthAdjust="spacing" textLength="82" x="334.5" y="562.8467">iniciarSesion()</text></g><!--SRC=[bPBVIiCm5CRl-nI7UQF2y0LAPMwzA6WdhLwDCSxIindM9YMfmX1lVG1VnGSGz4ry4jCqMpiwGLled-Gx-NxVIVI6Yn8L5f1pGTMs92Xblgr_F4zNM14mKWfLIffB0QXXq1quFHl0i-U1kHhrmDn6bCgSCrwXoEIO6ptr9MCfLbmLhGIW8sBW- -n1SaP1qAm_Ev_3S7QoLaHYFWpw5asvaARQa9e86plWBuDx_OYAI_zY6O1sPIuNQ9FZwrrOAOcigGV7OXzzeov6ByQl52dN5HLeAKf5caHDuShP7kBpOsBczdmvxX01MSMVyF80jSNizxEBoVw6HQhWTVVTMWgsm50mob4TiVLUx9lLJeeokojHUXVUZ1QJABsTnj7LTVZFNN5kmDfczhEomvCGfj4qNep391bDHiVzd1bylxxjlcEPqDg4LvX9g-72CBGd-z3x1m00]--></g></svg>