<?xml version="1.0" encoding="us-ascii" standalone="no"?><svg xmlns="http://www.w3.org/2000/svg" xmlns:xlink="http://www.w3.org/1999/xlink" contentStyleType="text/css" height="664px" preserveAspectRatio="none" style="width:783px;height:664px;background:#FFFFFF;" version="1.1" viewBox="0 0 783 664" width="783px" zoomAndPan="magnify"><defs/><g><path d="M19.5,7 L757.5,7 A12.5,12.5 0 0 1 770,19.5 L770,34.6094 L7,34.6094 L7,19.5 A12.5,12.5 0 0 1 19.5,7 " fill="#F1F1F1" style="stroke:#F1F1F1;stroke-width:1.0;"/><rect fill="none" height="504.6094" rx="12.5" ry="12.5" style="stroke:#181818;stroke-width:0.5;" width="763" x="7" y="7"/><line style="stroke:#181818;stroke-width:0.5;" x1="7" x2="770" y1="34.6094" y2="34.6094"/><text fill="#000000" font-family="sans-serif" font-size="14" lengthAdjust="spacing" textLength="127" x="325" y="26.5332">eliminarAsignatura()</text><g id="eliminarAsignatura.MostrandoConfirmacion"><rect fill="#F1F1F1" height="50" rx="12.5" ry="12.5" style="stroke:#181818;stroke-width:0.5;" width="50" x="197" y="137.6094"/><line style="stroke:#181818;stroke-width:0.5;" x1="197" x2="247" y1="165.2188" y2="165.2188"/><text fill="#000000" font-family="sans-serif" font-size="14" lengthAdjust="spacing" textLength="4" x="220" y="157.1426">&#160;</text></g><g id="eliminarAsignatura.ConfirmandoEliminacion"><rect fill="#F1F1F1" height="50" rx="12.5" ry="12.5" style="stroke:#181818;stroke-width:0.5;" width="50" x="197" y="324.6094"/><line style="stroke:#181818;stroke-width:0.5;" x1="197" x2="247" y1="352.2188" y2="352.2188"/><text fill="#000000" font-family="sans-serif" font-size="14" lengthAdjust="spacing" textLength="4" x="220" y="344.1426">&#160;</text></g><ellipse cx="222" cy="55.6094" fill="#222222" rx="10" ry="10" style="stroke:#222222;stroke-width:1.0;"/><ellipse cx="222" cy="490.6094" fill="none" rx="11" ry="11" style="stroke:#222222;stroke-width:1.0;"/><ellipse cx="222" cy="490.6094" fill="#222222" rx="6" ry="6" style="stroke:#222222;stroke-width:1.0;"/><!--link *start*eliminarAsignatura to MostrandoConfirmacion--><g id="link_*start*eliminarAsignatura_MostrandoConfirmacion"><path d="M222,65.9294 C222,81.7894 222,108.5194 222,131.2494 " fill="none" id="*start*eliminarAsignatura-to-MostrandoConfirmacion" style="stroke:#008000;stroke-width:1.0;"/><polygon fill="#008000" points="222,137.2494,226,128.2494,222,132.2494,218,128.2494,222,137.2494" style="stroke:#008000;stroke-width:1.0;"/><path d="M227,88.6094 L227,114.6094 L495,114.6094 L495,98.6094 L485,88.6094 L227,88.6094 " fill="#FEFFDD" style="stroke:#181818;stroke-width:0.5;"/><path d="M485,88.6094 L485,98.6094 L495,98.6094 L485,88.6094 " fill="#FEFFDD" style="stroke:#181818;stroke-width:0.5;"/><text fill="#000000" font-family="sans-serif" font-size="13" font-weight="bold" lengthAdjust="spacing" textLength="89" x="233" y="107.1045">Administrador</text><text fill="#000000" font-family="sans-serif" font-size="13" lengthAdjust="spacing" textLength="154" x="326" y="107.1045">solicita eliminar asignatura</text></g><!--link MostrandoConfirmacion to ConfirmandoEliminacion--><g id="link_MostrandoConfirmacion_ConfirmandoEliminacion"><path d="M222,187.7994 C222,223.2494 222,282.9594 222,318.4194 " fill="none" id="MostrandoConfirmacion-to-ConfirmandoEliminacion" style="stroke:#008000;stroke-width:1.0;"/><polygon fill="#008000" points="222,324.4194,226,315.4194,222,319.4194,218,315.4194,222,324.4194" style="stroke:#008000;stroke-width:1.0;"/><path d="M227,210.6094 L227,301.6094 L536,301.6094 L536,220.6094 L526,210.6094 L227,210.6094 " fill="#FEFFDD" style="stroke:#181818;stroke-width:0.5;"/><path d="M526,210.6094 L526,220.6094 L536,220.6094 L526,210.6094 " fill="#FEFFDD" style="stroke:#181818;stroke-width:0.5;"/><text fill="#000000" font-family="sans-serif" font-size="13" font-weight="bold" lengthAdjust="spacing" textLength="51" x="233" y="229.1045">Sistema</text><text fill="#000000" font-family="sans-serif" font-size="13" lengthAdjust="spacing" textLength="214" x="288" y="229.1045">presenta confirmaci&#243;n de eliminaci&#243;n</text><text fill="#000000" font-family="sans-serif" font-size="13" lengthAdjust="spacing" textLength="248" x="233" y="245.4561">&#8226; Muestra datos de la asignatura a eliminar</text><text fill="#000000" font-family="sans-serif" font-size="13" lengthAdjust="spacing" textLength="288" x="233" y="261.8076">&#8226; Muestra advertencia sobre ex&#225;menes asociados</text><text fill="#000000" font-family="sans-serif" font-size="13" lengthAdjust="spacing" textLength="229" x="233" y="278.1592">&#8226; Permite solicitar confirmar eliminaci&#243;n</text><text fill="#000000" font-family="sans-serif" font-size="13" lengthAdjust="spacing" textLength="225" x="233" y="294.5107">&#8226; Permite solicitar cancelar eliminaci&#243;n</text></g><!--link ConfirmandoEliminacion to *end*eliminarAsignatura--><g id="link_ConfirmandoEliminacion_*end*eliminarAsignatura"><path d="M196.99,355.7594 C142.51,366.9794 18,392.6094 18,392.6094 C18,392.6094 18,461.6094 18,461.6094 C18,461.6094 162.7156,481.4743 205.0856,487.2843 " fill="none" id="ConfirmandoEliminacion-to-*end*eliminarAsignatura" style="stroke:#008000;stroke-width:1.0;"/><polygon fill="#008000" points="211.03,488.0994,202.6569,482.9138,206.0764,487.4201,201.57,490.8396,211.03,488.0994" style="stroke:#008000;stroke-width:1.0;"/><path d="M23,397.6094 L23,456.6094 L400,456.6094 L400,407.6094 L390,397.6094 L23,397.6094 " fill="#FEFFDD" style="stroke:#181818;stroke-width:0.5;"/><path d="M390,397.6094 L390,407.6094 L400,407.6094 L390,397.6094 " fill="#FEFFDD" style="stroke:#181818;stroke-width:0.5;"/><text fill="#000000" font-family="sans-serif" font-size="13" font-weight="bold" lengthAdjust="spacing" textLength="89" x="29" y="416.1045">Administrador</text><text fill="#000000" font-family="sans-serif" font-size="13" lengthAdjust="spacing" textLength="167" x="122" y="416.1045">solicita confirmar eliminaci&#243;n</text><text fill="#000000" font-family="sans-serif" font-size="13" font-weight="bold" lengthAdjust="spacing" textLength="51" x="29" y="432.4561">Sistema</text><text fill="#000000" font-family="sans-serif" font-size="13" lengthAdjust="spacing" textLength="301" x="84" y="432.4561">visualiza y elimina la asignatura de la base de datos</text><text fill="#000000" font-family="sans-serif" font-size="13" font-weight="bold" lengthAdjust="spacing" textLength="51" x="29" y="448.8076">Sistema</text><text fill="#000000" font-family="sans-serif" font-size="13" lengthAdjust="spacing" textLength="233" x="84" y="448.8076">visualiza y actualiza lista de asignaturas</text></g><!--link ConfirmandoEliminacion to *end*eliminarAsignatura--><g id="link_ConfirmandoEliminacion_*end*eliminarAsignatura"><path d="M247.06,356.3594 C297.18,367.8594 405,392.6094 405,392.6094 C405,392.6094 405,461.6094 405,461.6094 C405,461.6094 278.2309,481.0017 238.8309,487.0317 " fill="none" id="ConfirmandoEliminacion-to-*end*eliminarAsignatura-1" style="stroke:#FF0000;stroke-width:1.0;"/><polygon fill="#FF0000" points="232.9,487.9394,242.4015,490.5318,237.8425,487.183,241.1913,482.6239,232.9,487.9394" style="stroke:#FF0000;stroke-width:1.0;"/><path d="M410,406.1094 L410,448.1094 L761,448.1094 L761,416.1094 L751,406.1094 L410,406.1094 " fill="#FEFFDD" style="stroke:#181818;stroke-width:0.5;"/><path d="M751,406.1094 L751,416.1094 L761,416.1094 L751,406.1094 " fill="#FEFFDD" style="stroke:#181818;stroke-width:0.5;"/><text fill="#000000" font-family="sans-serif" font-size="13" font-weight="bold" lengthAdjust="spacing" textLength="89" x="416" y="424.6045">Administrador</text><text fill="#000000" font-family="sans-serif" font-size="13" lengthAdjust="spacing" textLength="163" x="509" y="424.6045">solicita cancelar eliminaci&#243;n</text><text fill="#000000" font-family="sans-serif" font-size="13" font-weight="bold" lengthAdjust="spacing" textLength="51" x="416" y="440.9561">Sistema</text><text fill="#000000" font-family="sans-serif" font-size="13" lengthAdjust="spacing" textLength="275" x="471" y="440.9561">visualiza y descarta la operaci&#243;n de eliminaci&#243;n</text></g><g id="ASIGNATURAS_ABIERTO"><rect fill="#F1F1F1" height="50" rx="12.5" ry="12.5" style="stroke:#181818;stroke-width:0.5;" width="184" x="296.5" y="608"/><line style="stroke:#181818;stroke-width:0.5;" x1="296.5" x2="480.5" y1="635.6094" y2="635.6094"/><text fill="#000000" font-family="sans-serif" font-size="14" lengthAdjust="spacing" textLength="164" x="306.5" y="627.5332">ASIGNATURAS_ABIERTO</text></g><!--link eliminarAsignatura to ASIGNATURAS_ABIERTO--><g id="link_eliminarAsignatura_ASIGNATURAS_ABIERTO"><path d="M308.94,512.14 C303.14,530.5 299.5,542 299.5,542 C299.5,542 299.5,578 299.5,578 C299.5,578 319.8594,590.3592 343.5594,604.7292 " fill="none" id="eliminarAsignatura-to-ASIGNATURAS_ABIERTO" style="stroke:#008000;stroke-width:1.0;"/><polygon fill="#008000" points="348.69,607.84,343.068,599.7534,344.4145,605.2477,338.9203,606.5942,348.69,607.84" style="stroke:#008000;stroke-width:1.0;"/><path d="M304.5,547 L304.5,573 L427.5,573 L427.5,557 L417.5,547 L304.5,547 " fill="#FEFFDD" style="stroke:#181818;stroke-width:0.5;"/><path d="M417.5,547 L417.5,557 L427.5,557 L417.5,547 " fill="#FEFFDD" style="stroke:#181818;stroke-width:0.5;"/><text fill="#000000" font-family="sans-serif" font-size="13" lengthAdjust="spacing" textLength="102" x="310.5" y="565.4951">abrirAsignaturas()</text></g><!--link eliminarAsignatura to ASIGNATURAS_ABIERTO--><g id="link_eliminarAsignatura_ASIGNATURAS_ABIERTO"><path d="M431.41,512.14 C434.54,530.5 436.5,542 436.5,542 C436.5,542 436.5,578 436.5,578 C436.5,578 426.7373,588.9866 413.9573,603.3566 " fill="none" id="eliminarAsignatura-to-ASIGNATURAS_ABIERTO-1" style="stroke:#FF0000;stroke-width:1.0;"/><polygon fill="#FF0000" points="409.97,607.84,418.94,603.7731,413.2928,604.1038,412.9621,598.4566,409.97,607.84" style="stroke:#FF0000;stroke-width:1.0;"/><path d="M441.5,547 L441.5,573 L580.5,573 L580.5,557 L570.5,547 L441.5,547 " fill="#FEFFDD" style="stroke:#181818;stroke-width:0.5;"/><path d="M570.5,547 L570.5,557 L580.5,557 L570.5,547 " fill="#FEFFDD" style="stroke:#181818;stroke-width:0.5;"/><text fill="#000000" font-family="sans-serif" font-size="13" lengthAdjust="spacing" textLength="118" x="447.5" y="565.4951">cancelar eliminaci&#243;n</text></g><!--SRC=[dPDHJi9048RVznGRV04JuWK8IJN4y80Qm2T2pBGxaWtjRZEx4D6OU1MzWaVW9fx4RQ6bhIsewSjs-yy_t_oxDKkfOY28U2WLsasCFDRX9dbXp5Ymo36KaLH0df4B1NP5mC7mri_jTgV5NxAgbdkSRAID9L12NsdrA2c2G6fLbcHVd6YmyqmrR7O-vztPsO8GrRpRRx1IsZbfbU0lMS_lUy8vo4GfDFKk_3utEfI1j90Fuffco0oLu8a5OxNs9O06q2h1n7N72DBUCQ51vNe7kUdsKt6Hfvg-iw-t3pvQOGB01LXj4aK81L1-m2-fGQoHBAf0WXlK9sVyj7sFKA5nrTfj2stIYZkaI3hIB0xAcUWdJ8qOL81XLNk8hpwSKdxkGFzoN0rubOJNqgmWbC_0DvckajmkIXyC9iiqtcCc4DZzEdIAjFnWPdurCQ7upxor2HyX5MW289lEgsEaXikL4xyoLlCl5q_8cmolRxpf_TYRF7YNmy5uUbkU07oIXMBJxXG2gJVVXt7I-iG5-mO0]--></g></svg>