<?xml version="1.0" encoding="us-ascii" standalone="no"?><svg xmlns="http://www.w3.org/2000/svg" xmlns:xlink="http://www.w3.org/1999/xlink" contentStyleType="text/css" height="903px" preserveAspectRatio="none" style="width:810px;height:903px;background:#FFFFFF;" version="1.1" viewBox="0 0 810 903" width="810px" zoomAndPan="magnify"><defs/><g><path d="M19.5,7 L784.4505,7 A12.5,12.5 0 0 1 796.9505,19.5 L796.9505,34.6094 L7,34.6094 L7,19.5 A12.5,12.5 0 0 1 19.5,7 " fill="#F1F1F1" style="stroke:#F1F1F1;stroke-width:1.0;"/><rect fill="none" height="743.6094" rx="12.5" ry="12.5" style="stroke:#181818;stroke-width:0.5;" width="789.9505" x="7" y="7"/><line style="stroke:#181818;stroke-width:0.5;" x1="7" x2="796.9505" y1="34.6094" y2="34.6094"/><text fill="#000000" font-family="sans-serif" font-size="14" lengthAdjust="spacing" textLength="137" x="333.4753" y="26.5332">importarAsignaturas()</text><g id="importarAsignaturas.SeleccionandoArchivo"><rect fill="#F1F1F1" height="50" rx="12.5" ry="12.5" style="stroke:#181818;stroke-width:0.5;" width="50" x="213.9505" y="137.6094"/><line style="stroke:#181818;stroke-width:0.5;" x1="213.9505" x2="263.9505" y1="165.2188" y2="165.2188"/><text fill="#000000" font-family="sans-serif" font-size="14" lengthAdjust="spacing" textLength="4" x="236.9505" y="157.1426">&#160;</text></g><g id="importarAsignaturas.ProcesandoImportacion"><rect fill="#F1F1F1" height="50" rx="12.5" ry="12.5" style="stroke:#181818;stroke-width:0.5;" width="50" x="213.9505" y="341.6094"/><line style="stroke:#181818;stroke-width:0.5;" x1="213.9505" x2="263.9505" y1="369.2188" y2="369.2188"/><text fill="#000000" font-family="sans-serif" font-size="14" lengthAdjust="spacing" textLength="4" x="236.9505" y="361.1426">&#160;</text></g><g id="importarAsignaturas.MostrandoResultados"><rect fill="#F1F1F1" height="50" rx="12.5" ry="12.5" style="stroke:#181818;stroke-width:0.5;" width="50" x="22.9505" y="497.6094"/><line style="stroke:#181818;stroke-width:0.5;" x1="22.9505" x2="72.9505" y1="525.2188" y2="525.2188"/><text fill="#000000" font-family="sans-serif" font-size="14" lengthAdjust="spacing" textLength="4" x="45.9505" y="517.1426">&#160;</text></g><ellipse cx="238.9505" cy="55.6094" fill="#222222" rx="10" ry="10" style="stroke:#222222;stroke-width:1.0;"/><ellipse cx="261.9505" cy="729.6094" fill="none" rx="11" ry="11" style="stroke:#222222;stroke-width:1.0;"/><ellipse cx="261.9505" cy="729.6094" fill="#222222" rx="6" ry="6" style="stroke:#222222;stroke-width:1.0;"/><!--link *start*importarAsignaturas to SeleccionandoArchivo--><g id="link_*start*importarAsignaturas_SeleccionandoArchivo"><path d="M238.9505,65.9294 C238.9505,81.7894 238.9505,108.5194 238.9505,131.2494 " fill="none" id="*start*importarAsignaturas-to-SeleccionandoArchivo" style="stroke:#008000;stroke-width:1.0;"/><polygon fill="#008000" points="238.9505,137.2494,242.9505,128.2494,238.9505,132.2494,234.9505,128.2494,238.9505,137.2494" style="stroke:#008000;stroke-width:1.0;"/><path d="M243.9505,88.6094 L243.9505,114.6094 L520.9505,114.6094 L520.9505,98.6094 L510.9505,88.6094 L243.9505,88.6094 " fill="#FEFFDD" style="stroke:#181818;stroke-width:0.5;"/><path d="M510.9505,88.6094 L510.9505,98.6094 L520.9505,98.6094 L510.9505,88.6094 " fill="#FEFFDD" style="stroke:#181818;stroke-width:0.5;"/><text fill="#000000" font-family="sans-serif" font-size="13" font-weight="bold" lengthAdjust="spacing" textLength="89" x="249.9505" y="107.1045">Administrador</text><text fill="#000000" font-family="sans-serif" font-size="13" lengthAdjust="spacing" textLength="163" x="342.9505" y="107.1045">solicita importar asignaturas</text></g><!--link SeleccionandoArchivo to ProcesandoImportacion--><g id="link_SeleccionandoArchivo_ProcesandoImportacion"><path d="M238.9505,187.9794 C238.9505,226.9094 238.9505,296.6894 238.9505,335.4694 " fill="none" id="SeleccionandoArchivo-to-ProcesandoImportacion" style="stroke:#008000;stroke-width:1.0;"/><polygon fill="#008000" points="238.9505,341.4694,242.9505,332.4694,238.9505,336.4694,234.9505,332.4694,238.9505,341.4694" style="stroke:#008000;stroke-width:1.0;"/><path d="M243.9505,210.6094 L243.9505,318.6094 L507.9505,318.6094 L507.9505,220.6094 L497.9505,210.6094 L243.9505,210.6094 " fill="#FEFFDD" style="stroke:#181818;stroke-width:0.5;"/><path d="M497.9505,210.6094 L497.9505,220.6094 L507.9505,220.6094 L497.9505,210.6094 " fill="#FEFFDD" style="stroke:#181818;stroke-width:0.5;"/><text fill="#000000" font-family="sans-serif" font-size="13" font-weight="bold" lengthAdjust="spacing" textLength="51" x="249.9505" y="229.1045">Sistema</text><text fill="#000000" font-family="sans-serif" font-size="13" lengthAdjust="spacing" textLength="185" x="304.9505" y="229.1045">presenta interfaz de importaci&#243;n</text><text fill="#000000" font-family="sans-serif" font-size="13" lengthAdjust="spacing" textLength="236" x="249.9505" y="245.4561">&#8226; Permite seleccionar archivo CSV/Excel</text><text fill="#000000" font-family="sans-serif" font-size="13" lengthAdjust="spacing" textLength="222" x="249.9505" y="261.8076">&#8226; Muestra formato de archivo requerido</text><text fill="#000000" font-family="sans-serif" font-size="13" lengthAdjust="spacing" textLength="243" x="249.9505" y="278.1592">&#8226; Muestra grados disponibles para asociar</text><text fill="#000000" font-family="sans-serif" font-size="13" lengthAdjust="spacing" textLength="212" x="249.9505" y="294.5107">&#8226; Permite solicitar iniciar importaci&#243;n</text><text fill="#000000" font-family="sans-serif" font-size="13" lengthAdjust="spacing" textLength="227" x="249.9505" y="310.8623">&#8226; Permite solicitar cancelar importaci&#243;n</text></g><!--link ProcesandoImportacion to MostrandoResultados--><g id="link_ProcesandoImportacion_MostrandoResultados"><path d="M213.6805,372.5894 C157.2605,383.7194 25.9505,409.6094 25.9505,409.6094 C25.9505,409.6094 25.9505,478.6094 25.9505,478.6094 C25.9505,478.6094 27.8875,482.408 32.9275,492.258 " fill="none" id="ProcesandoImportacion-to-MostrandoResultados" style="stroke:#008000;stroke-width:1.0;"/><polygon fill="#008000" points="35.6605,497.5994,35.1218,487.7653,33.383,493.1482,28,491.4093,35.6605,497.5994" style="stroke:#008000;stroke-width:1.0;"/><path d="M30.9505,414.6094 L30.9505,473.6094 L434.9505,473.6094 L434.9505,424.6094 L424.9505,414.6094 L30.9505,414.6094 " fill="#FEFFDD" style="stroke:#181818;stroke-width:0.5;"/><path d="M424.9505,414.6094 L424.9505,424.6094 L434.9505,424.6094 L424.9505,414.6094 " fill="#FEFFDD" style="stroke:#181818;stroke-width:0.5;"/><text fill="#000000" font-family="sans-serif" font-size="13" font-weight="bold" lengthAdjust="spacing" textLength="89" x="36.9505" y="433.1045">Administrador</text><text fill="#000000" font-family="sans-serif" font-size="13" lengthAdjust="spacing" textLength="281" x="129.9505" y="433.1045">introduce selecci&#243;n de archivo y solicita importar</text><text fill="#000000" font-family="sans-serif" font-size="13" font-weight="bold" lengthAdjust="spacing" textLength="51" x="36.9505" y="449.4561">Sistema</text><text fill="#000000" font-family="sans-serif" font-size="13" lengthAdjust="spacing" textLength="248" x="91.9505" y="449.4561">visualiza y procesa el archivo seleccionado</text><text fill="#000000" font-family="sans-serif" font-size="13" font-weight="bold" lengthAdjust="spacing" textLength="51" x="36.9505" y="465.8076">Sistema</text><text fill="#000000" font-family="sans-serif" font-size="13" lengthAdjust="spacing" textLength="328" x="91.9505" y="465.8076">muestra y asigna asignaturas a grados correspondientes</text></g><!--link MostrandoResultados to *end*importarAsignaturas--><g id="link_MostrandoResultados_*end*importarAsignaturas"><path d="M57.4005,547.8494 C76.3005,596.3294 116.9505,700.6094 116.9505,700.6094 C116.9505,700.6094 211.4396,718.8503 245.1596,725.3703 " fill="none" id="MostrandoResultados-to-*end*importarAsignaturas" style="stroke:#008000;stroke-width:1.0;"/><polygon fill="#008000" points="251.0505,726.5094,242.9735,720.8735,246.1414,725.5602,241.4548,728.7281,251.0505,726.5094" style="stroke:#008000;stroke-width:1.0;"/><path d="M121.9505,571.6094 L121.9505,695.6094 L434.9505,695.6094 L434.9505,581.6094 L424.9505,571.6094 L121.9505,571.6094 " fill="#FEFFDD" style="stroke:#181818;stroke-width:0.5;"/><path d="M424.9505,571.6094 L424.9505,581.6094 L434.9505,581.6094 L424.9505,571.6094 " fill="#FEFFDD" style="stroke:#181818;stroke-width:0.5;"/><text fill="#000000" font-family="sans-serif" font-size="13" font-weight="bold" lengthAdjust="spacing" textLength="51" x="127.9505" y="590.1045">Sistema</text><text fill="#000000" font-family="sans-serif" font-size="13" lengthAdjust="spacing" textLength="203" x="182.9505" y="590.1045">presenta resultados de importaci&#243;n</text><text fill="#000000" font-family="sans-serif" font-size="13" lengthAdjust="spacing" textLength="260" x="127.9505" y="606.4561">&#8226; Muestra n&#250;mero de asignaturas importadas</text><text fill="#000000" font-family="sans-serif" font-size="13" lengthAdjust="spacing" textLength="292" x="127.9505" y="622.8076">&#8226; Muestra asignaturas que no se pudieron importar</text><text fill="#000000" font-family="sans-serif" font-size="13" lengthAdjust="spacing" textLength="192" x="127.9505" y="639.1592">&#8226; Muestra grados no encontrados</text><text fill="#000000" font-family="sans-serif" font-size="13" lengthAdjust="spacing" textLength="188" x="127.9505" y="655.5107">&#8226; Permite solicitar revisar errores</text><text fill="#000000" font-family="sans-serif" font-size="13" lengthAdjust="spacing" textLength="222" x="127.9505" y="671.8623">&#8226; Permite solicitar finalizar importaci&#243;n</text><text fill="#000000" font-family="sans-serif" font-size="13" font-weight="bold" lengthAdjust="spacing" textLength="89" x="127.9505" y="688.2139">Administrador</text><text fill="#000000" font-family="sans-serif" font-size="13" lengthAdjust="spacing" textLength="160" x="220.9505" y="688.2139">solicita finalizar importaci&#243;n</text></g><!--link ProcesandoImportacion to *end*importarAsignaturas--><g id="link_ProcesandoImportacion_*end*importarAsignaturas"><path d="M264.0005,372.8394 C317.8805,384.0994 439.9505,409.6094 439.9505,409.6094 C439.9505,409.6094 439.9505,700.6094 439.9505,700.6094 C439.9505,700.6094 317.3876,719.8868 278.7476,725.9668 " fill="none" id="ProcesandoImportacion-to-*end*importarAsignaturas" style="stroke:#FF0000;stroke-width:1.0;"/><polygon fill="#FF0000" points="272.8205,726.8994,282.3329,729.4518,277.7597,726.1222,281.0894,721.5491,272.8205,726.8994" style="stroke:#FF0000;stroke-width:1.0;"/><path d="M444.9505,501.6094 L444.9505,543.6094 L787.9505,543.6094 L787.9505,511.6094 L777.9505,501.6094 L444.9505,501.6094 " fill="#FEFFDD" style="stroke:#181818;stroke-width:0.5;"/><path d="M777.9505,501.6094 L777.9505,511.6094 L787.9505,511.6094 L777.9505,501.6094 " fill="#FEFFDD" style="stroke:#181818;stroke-width:0.5;"/><text fill="#000000" font-family="sans-serif" font-size="13" font-weight="bold" lengthAdjust="spacing" textLength="89" x="450.9505" y="520.1045">Administrador</text><text fill="#000000" font-family="sans-serif" font-size="13" lengthAdjust="spacing" textLength="165" x="543.9505" y="520.1045">solicita cancelar importaci&#243;n</text><text fill="#000000" font-family="sans-serif" font-size="13" font-weight="bold" lengthAdjust="spacing" textLength="51" x="450.9505" y="536.4561">Sistema</text><text fill="#000000" font-family="sans-serif" font-size="13" lengthAdjust="spacing" textLength="267" x="505.9505" y="536.4561">visualiza y descarta el proceso de importaci&#243;n</text></g><g id="ASIGNATURAS_ABIERTO"><rect fill="#F1F1F1" height="50" rx="12.5" ry="12.5" style="stroke:#181818;stroke-width:0.5;" width="184" x="310" y="847"/><line style="stroke:#181818;stroke-width:0.5;" x1="310" x2="494" y1="874.6094" y2="874.6094"/><text fill="#000000" font-family="sans-serif" font-size="14" lengthAdjust="spacing" textLength="164" x="320" y="866.5332">ASIGNATURAS_ABIERTO</text></g><!--link importarAsignaturas to ASIGNATURAS_ABIERTO--><g id="link_importarAsignaturas_ASIGNATURAS_ABIERTO"><path d="M319.62,751.19 C315.48,769.82 313,781 313,781 C313,781 313,817 313,817 C313,817 333.3594,829.3592 357.0594,843.7292 " fill="none" id="importarAsignaturas-to-ASIGNATURAS_ABIERTO" style="stroke:#008000;stroke-width:1.0;"/><polygon fill="#008000" points="362.19,846.84,356.568,838.7534,357.9145,844.2477,352.4203,845.5942,362.19,846.84" style="stroke:#008000;stroke-width:1.0;"/><path d="M318,786 L318,812 L441,812 L441,796 L431,786 L318,786 " fill="#FEFFDD" style="stroke:#181818;stroke-width:0.5;"/><path d="M431,786 L431,796 L441,796 L431,786 " fill="#FEFFDD" style="stroke:#181818;stroke-width:0.5;"/><text fill="#000000" font-family="sans-serif" font-size="13" lengthAdjust="spacing" textLength="102" x="324" y="804.4951">abrirAsignaturas()</text></g><!--link importarAsignaturas to ASIGNATURAS_ABIERTO--><g id="link_importarAsignaturas_ASIGNATURAS_ABIERTO"><path d="M446.43,751.19 C448.66,769.82 450,781 450,781 C450,781 450,817 450,817 C450,817 440.2373,827.9866 427.4573,842.3566 " fill="none" id="importarAsignaturas-to-ASIGNATURAS_ABIERTO-1" style="stroke:#FF0000;stroke-width:1.0;"/><polygon fill="#FF0000" points="423.47,846.84,432.44,842.7731,426.7928,843.1038,426.4621,837.4566,423.47,846.84" style="stroke:#FF0000;stroke-width:1.0;"/><path d="M455,786 L455,812 L596,812 L596,796 L586,786 L455,786 " fill="#FEFFDD" style="stroke:#181818;stroke-width:0.5;"/><path d="M586,786 L586,796 L596,796 L586,786 " fill="#FEFFDD" style="stroke:#181818;stroke-width:0.5;"/><text fill="#000000" font-family="sans-serif" font-size="13" lengthAdjust="spacing" textLength="120" x="461" y="804.4951">cancelar importaci&#243;n</text></g><!--SRC=[ZPJ1Qjj048Rl-nIBSsaB8IyG36e9mOSqmKfx2Q6iTyVk46b7dPL2dLBei_GLUkirRz8dwQmjovApjeCDHjQ_C_zyyqlX0Nrbs9IwG0_riW9TKR6C5qg5sjIWiQo8QyDPm8KtTSCcQFcE4l-_UJlIFpRdHl8HNGu5M8laZNUKiVsAZpHKt31P2F7sP5qogeUIAmerHyKKGbFKnb5GwkxTlJwzEramWBy_7QSxUP8gvEDu3-fyDivSYHvZDKTyVZORwq05MgnDDwWqx2PIu9sEDPHAbH_qJy-nQo2Nvb2QLUkA8O2FhNqDF3TFsdMyBJx_yUhVhz_w1hX4AH8w0sAnxVyX_tnsyTr2iL9UDH0dqtFYqjGKgss43DyQO7Gq42uYXg0TXeeypWe8EgP12915myFsBISMjnZl7d3QIQtnOcvNkuMQP3QWcbhzyQKAK2RNs8wQjEtZMBvS- -vo7Z4qfi0d8-9gRLD3qLNORaEOxXmjMxpBDahzHEcEkYMM_GjuXn82w6SjCVG0YaJ_TS7YxVbKj3OvyCz_I-1rO7fMMxsJvw2lxaiaLU9PQEYgaJbO37L04qaJANXBVhMgi2Sq3C9UVe6PP80zgZdwrNfsidNu6Tzpw1M1P73xo1_ebyx_WQGv2DQ8C4PjdJfwiRdExK-bKc_dVbAoV7BvCRlzDCtoBzdxoSNqzdhetymOX-_m7eqzrLiMHsiVUVh_0m00]--></g></svg>