<?xml version="1.0" encoding="us-ascii" standalone="no"?><svg xmlns="http://www.w3.org/2000/svg" xmlns:xlink="http://www.w3.org/1999/xlink" contentStyleType="text/css" height="696px" preserveAspectRatio="none" style="width:645px;height:696px;background:#FFFFFF;" version="1.1" viewBox="0 0 645 696" width="645px" zoomAndPan="magnify"><defs/><g><path d="M19.5,7 L619.5,7 A12.5,12.5 0 0 1 632,19.5 L632,34.6094 L7,34.6094 L7,19.5 A12.5,12.5 0 0 1 19.5,7 " fill="#F1F1F1" style="stroke:#F1F1F1;stroke-width:1.0;"/><rect fill="none" height="536.6094" rx="12.5" ry="12.5" style="stroke:#181818;stroke-width:0.5;" width="625" x="7" y="7"/><line style="stroke:#181818;stroke-width:0.5;" x1="7" x2="632" y1="34.6094" y2="34.6094"/><text fill="#000000" font-family="sans-serif" font-size="14" lengthAdjust="spacing" textLength="137" x="251" y="26.5332">consultarCalendario()</text><g id="consultarCalendario.MostrandoCalendario"><rect fill="#F1F1F1" height="50" rx="12.5" ry="12.5" style="stroke:#181818;stroke-width:0.5;" width="50" x="145" y="137.6094"/><line style="stroke:#181818;stroke-width:0.5;" x1="145" x2="195" y1="165.2188" y2="165.2188"/><text fill="#000000" font-family="sans-serif" font-size="14" lengthAdjust="spacing" textLength="4" x="168" y="157.1426">&#160;</text></g><g id="consultarCalendario.FiltrandoVista"><rect fill="#F1F1F1" height="50" rx="12.5" ry="12.5" style="stroke:#181818;stroke-width:0.5;" width="50" x="145" y="373.6094"/><line style="stroke:#181818;stroke-width:0.5;" x1="145" x2="195" y1="401.2188" y2="401.2188"/><text fill="#000000" font-family="sans-serif" font-size="14" lengthAdjust="spacing" textLength="4" x="168" y="393.1426">&#160;</text></g><ellipse cx="170" cy="55.6094" fill="#222222" rx="10" ry="10" style="stroke:#222222;stroke-width:1.0;"/><ellipse cx="170" cy="522.6094" fill="none" rx="11" ry="11" style="stroke:#222222;stroke-width:1.0;"/><ellipse cx="170" cy="522.6094" fill="#222222" rx="6" ry="6" style="stroke:#222222;stroke-width:1.0;"/><!--link *start*consultarCalendario to MostrandoCalendario--><g id="link_*start*consultarCalendario_MostrandoCalendario"><path d="M170,65.9294 C170,81.7894 170,108.5194 170,131.2494 " fill="none" id="*start*consultarCalendario-to-MostrandoCalendario" style="stroke:#008000;stroke-width:1.0;"/><polygon fill="#008000" points="170,137.2494,174,128.2494,170,132.2494,166,128.2494,170,137.2494" style="stroke:#008000;stroke-width:1.0;"/><path d="M175,88.6094 L175,114.6094 L450,114.6094 L450,98.6094 L440,88.6094 L175,88.6094 " fill="#FEFFDD" style="stroke:#181818;stroke-width:0.5;"/><path d="M440,88.6094 L440,98.6094 L450,98.6094 L440,88.6094 " fill="#FEFFDD" style="stroke:#181818;stroke-width:0.5;"/><text fill="#000000" font-family="sans-serif" font-size="13" font-weight="bold" lengthAdjust="spacing" textLength="89" x="181" y="107.1045">Administrador</text><text fill="#000000" font-family="sans-serif" font-size="13" lengthAdjust="spacing" textLength="161" x="274" y="107.1045">solicita consultar calendario</text></g><!--link MostrandoCalendario to FiltrandoVista--><g id="link_MostrandoCalendario_FiltrandoVista"><path d="M144.9,170.5494 C101.73,182.4694 18,205.6094 18,205.6094 C18,205.6094 18,355.6094 18,355.6094 C18,355.6094 95.9464,377.1524 139.1164,389.0724 " fill="none" id="MostrandoCalendario-to-FiltrandoVista" style="stroke:#008000;stroke-width:1.0;"/><polygon fill="#008000" points="144.9,390.6694,137.2893,384.4182,140.0804,389.3386,135.16,392.1297,144.9,390.6694" style="stroke:#008000;stroke-width:1.0;"/><path d="M23,210.6094 L23,350.6094 L296,350.6094 L296,220.6094 L286,210.6094 L23,210.6094 " fill="#FEFFDD" style="stroke:#181818;stroke-width:0.5;"/><path d="M286,210.6094 L286,220.6094 L296,220.6094 L286,210.6094 " fill="#FEFFDD" style="stroke:#181818;stroke-width:0.5;"/><text fill="#000000" font-family="sans-serif" font-size="13" font-weight="bold" lengthAdjust="spacing" textLength="51" x="29" y="229.1045">Sistema</text><text fill="#000000" font-family="sans-serif" font-size="13" lengthAdjust="spacing" textLength="195" x="84" y="229.1045">presenta calendario de ex&#225;menes</text><text fill="#000000" font-family="sans-serif" font-size="13" lengthAdjust="spacing" textLength="227" x="29" y="245.4561">&#8226; Muestra vista mensual/semanal/diaria</text><text fill="#000000" font-family="sans-serif" font-size="13" lengthAdjust="spacing" textLength="252" x="29" y="261.8076">&#8226; Muestra ex&#225;menes con fecha, hora y aula</text><text fill="#000000" font-family="sans-serif" font-size="13" lengthAdjust="spacing" textLength="183" x="29" y="278.1592">&#8226; Muestra profesores asignados</text><text fill="#000000" font-family="sans-serif" font-size="13" lengthAdjust="spacing" textLength="193" x="29" y="294.5107">&#8226; Permite solicitar filtrar por grado</text><text fill="#000000" font-family="sans-serif" font-size="13" lengthAdjust="spacing" textLength="221" x="29" y="310.8623">&#8226; Permite solicitar filtrar por asignatura</text><text fill="#000000" font-family="sans-serif" font-size="13" lengthAdjust="spacing" textLength="227" x="29" y="327.2139">&#8226; Permite solicitar descargar calendario</text><text fill="#000000" font-family="sans-serif" font-size="13" lengthAdjust="spacing" textLength="193" x="29" y="343.5654">&#8226; Permite solicitar cerrar consulta</text></g><!--link FiltrandoVista to MostrandoCalendario--><g id="link_FiltrandoVista_MostrandoCalendario"><path d="M195.26,389.5094 C233.33,377.3094 301,355.6094 301,355.6094 C301,355.6094 301,205.6094 301,205.6094 C301,205.6094 239.0438,185.7404 200.9738,173.5404 " fill="none" id="FiltrandoVista-to-MostrandoCalendario" style="stroke:#008000;stroke-width:1.0;"/><polygon fill="#008000" points="195.26,171.7094,202.61,178.2651,200.0215,173.2353,205.0514,170.6468,195.26,171.7094" style="stroke:#008000;stroke-width:1.0;"/><path d="M306,251.1094 L306,310.1094 L623,310.1094 L623,261.1094 L613,251.1094 L306,251.1094 " fill="#FEFFDD" style="stroke:#181818;stroke-width:0.5;"/><path d="M613,251.1094 L613,261.1094 L623,261.1094 L613,251.1094 " fill="#FEFFDD" style="stroke:#181818;stroke-width:0.5;"/><text fill="#000000" font-family="sans-serif" font-size="13" font-weight="bold" lengthAdjust="spacing" textLength="89" x="312" y="269.6045">Administrador</text><text fill="#000000" font-family="sans-serif" font-size="13" lengthAdjust="spacing" textLength="118" x="405" y="269.6045">solicita aplicar filtros</text><text fill="#000000" font-family="sans-serif" font-size="13" font-weight="bold" lengthAdjust="spacing" textLength="51" x="312" y="285.9561">Sistema</text><text fill="#000000" font-family="sans-serif" font-size="13" lengthAdjust="spacing" textLength="241" x="367" y="285.9561">visualiza y aplica los filtros seleccionados</text><text fill="#000000" font-family="sans-serif" font-size="13" font-weight="bold" lengthAdjust="spacing" textLength="51" x="312" y="302.3076">Sistema</text><text fill="#000000" font-family="sans-serif" font-size="13" lengthAdjust="spacing" textLength="155" x="367" y="302.3076">presenta calendario filtrado</text></g><!--link FiltrandoVista to *end*consultarCalendario--><g id="link_FiltrandoVista_*end*consultarCalendario"><path d="M170,423.7094 C170,450.3794 170,486.1094 170,505.3094 " fill="none" id="FiltrandoVista-to-*end*consultarCalendario" style="stroke:#008000;stroke-width:1.0;"/><polygon fill="#008000" points="170,511.3094,174,502.3094,170,506.3094,166,502.3094,170,511.3094" style="stroke:#008000;stroke-width:1.0;"/><path d="M175,446.6094 L175,488.6094 L475,488.6094 L475,456.6094 L465,446.6094 L175,446.6094 " fill="#FEFFDD" style="stroke:#181818;stroke-width:0.5;"/><path d="M465,446.6094 L465,456.6094 L475,456.6094 L465,446.6094 " fill="#FEFFDD" style="stroke:#181818;stroke-width:0.5;"/><text fill="#000000" font-family="sans-serif" font-size="13" font-weight="bold" lengthAdjust="spacing" textLength="89" x="181" y="465.1045">Administrador</text><text fill="#000000" font-family="sans-serif" font-size="13" lengthAdjust="spacing" textLength="131" x="274" y="465.1045">solicita cerrar consulta</text><text fill="#000000" font-family="sans-serif" font-size="13" font-weight="bold" lengthAdjust="spacing" textLength="51" x="181" y="481.4561">Sistema</text><text fill="#000000" font-family="sans-serif" font-size="13" lengthAdjust="spacing" textLength="224" x="236" y="481.4561">visualiza y cierra la vista del calendario</text></g><g id="CALENDARIO_ABIERTO"><rect fill="#F1F1F1" height="50" rx="12.5" ry="12.5" style="stroke:#181818;stroke-width:0.5;" width="176" x="102.5" y="640"/><line style="stroke:#181818;stroke-width:0.5;" x1="102.5" x2="278.5" y1="667.6094" y2="667.6094"/><text fill="#000000" font-family="sans-serif" font-size="14" lengthAdjust="spacing" textLength="156" x="112.5" y="659.5332">CALENDARIO_ABIERTO</text></g><g id="SISTEMA_DISPONIBLE"><rect fill="#F1F1F1" height="50" rx="12.5" ry="12.5" style="stroke:#181818;stroke-width:0.5;" width="167" x="366" y="640"/><line style="stroke:#181818;stroke-width:0.5;" x1="366" x2="533" y1="667.6094" y2="667.6094"/><text fill="#000000" font-family="sans-serif" font-size="14" lengthAdjust="spacing" textLength="147" x="376" y="659.5332">SISTEMA_DISPONIBLE</text></g><!--link consultarCalendario to CALENDARIO_ABIERTO--><g id="link_consultarCalendario_CALENDARIO_ABIERTO"><path d="M200.76,544.11 C192.59,562.54 187.5,574 187.5,574 C187.5,574 187.5,610 187.5,610 C187.5,610 188.0265,619.4793 188.8265,633.8493 " fill="none" id="consultarCalendario-to-CALENDARIO_ABIERTO" style="stroke:#008000;stroke-width:1.0;"/><polygon fill="#008000" points="189.16,639.84,192.6535,630.6316,188.8821,634.8477,184.6659,631.0763,189.16,639.84" style="stroke:#008000;stroke-width:1.0;"/><path d="M192.5,579 L192.5,605 L401.5,605 L401.5,589 L391.5,579 L192.5,579 " fill="#FEFFDD" style="stroke:#181818;stroke-width:0.5;"/><path d="M391.5,579 L391.5,589 L401.5,589 L391.5,579 " fill="#FEFFDD" style="stroke:#181818;stroke-width:0.5;"/><text fill="#000000" font-family="sans-serif" font-size="13" lengthAdjust="spacing" textLength="188" x="198.5" y="597.4951">descargarCalendarioExamenes()</text></g><!--link consultarCalendario to SISTEMA_DISPONIBLE--><g id="link_consultarCalendario_SISTEMA_DISPONIBLE"><path d="M409.26,544.05 C422.49,583.49 432.2009,612.4518 439.5109,634.2318 " fill="none" id="consultarCalendario-to-SISTEMA_DISPONIBLE" style="stroke:#008000;stroke-width:1.0;"/><polygon fill="#008000" points="441.42,639.92,442.3484,630.115,439.8291,635.1799,434.7642,632.6605,441.42,639.92" style="stroke:#008000;stroke-width:1.0;"/><path d="M435.5,579 L435.5,605 L572.5,605 L572.5,589 L562.5,579 L435.5,579 " fill="#FEFFDD" style="stroke:#181818;stroke-width:0.5;"/><path d="M562.5,579 L562.5,589 L572.5,589 L562.5,579 " fill="#FEFFDD" style="stroke:#181818;stroke-width:0.5;"/><text fill="#000000" font-family="sans-serif" font-size="13" lengthAdjust="spacing" textLength="116" x="441.5" y="597.4951">completarConsulta()</text></g><!--SRC=[hLDHIkH04FtlKnJZZowA5v21g142ZYEE-2CYPNVDsDZf3jt9ugm8NcNtAjx4asnrOinaYEuiI3uwgRnwh-fLTNZGja2FEHXjgLmM18Kpo_WXH2Yn993EXigKw8_Ga5NejGCCC1g8R- -CuAdD6_73k8aBfKUhN0Vh0qwqQG1NckD2NF-uWRthhOKdiZTxuq42wpZVsLZqWpYu6oSgrrP7d7B-OFzk3C4PBNM9NVaWktm-8N88CS3UKr-hRbrunb7AiPOiF0MoKRAZKWJq-Fex9qj1lBtyWKb5KH1-HZhWUAZGx0Vci7mgpLdO0twanqvWJl8UT-7UyPybO6NwuCAxEGN7XR2pUc7PZaRsd7okkVJM5W_pkZ7Fu_QmYBvjW6iuoyhZ9s15GQ9VzCqUXahoaROTpyf8-fP_vovWmIzjJ-pCsW1v9ZmC_QksjeQ2SQ55Go13KchNkBh1y1lhbDkiDzxx_zhhDV- -w4NgY0NJRfqYCtWPdeKOkkohHHubf-dPSNAHJM-Jmoozk9psQ_vOW2u_VSHwVxTtLdpubyuicrsca-JsE9kTJy-omzEqhoDTNXYA-Uz4g-n_0G00]--></g></svg>