<?xml version="1.0" encoding="us-ascii" standalone="no"?><svg xmlns="http://www.w3.org/2000/svg" xmlns:xlink="http://www.w3.org/1999/xlink" contentStyleType="text/css" height="680px" preserveAspectRatio="none" style="width:770px;height:680px;background:#FFFFFF;" version="1.1" viewBox="0 0 770 680" width="770px" zoomAndPan="magnify"><defs/><g><path d="M19.5,7 L744.5,7 A12.5,12.5 0 0 1 757,19.5 L757,34.6094 L7,34.6094 L7,19.5 A12.5,12.5 0 0 1 19.5,7 " fill="#F1F1F1" style="stroke:#F1F1F1;stroke-width:1.0;"/><rect fill="none" height="520.6094" rx="12.5" ry="12.5" style="stroke:#181818;stroke-width:0.5;" width="750" x="7" y="7"/><line style="stroke:#181818;stroke-width:0.5;" x1="7" x2="757" y1="34.6094" y2="34.6094"/><text fill="#000000" font-family="sans-serif" font-size="14" lengthAdjust="spacing" textLength="114" x="325" y="26.5332">editarAsignatura()</text><g id="editarAsignatura.EditandoDatos"><rect fill="#F1F1F1" height="50" rx="12.5" ry="12.5" style="stroke:#181818;stroke-width:0.5;" width="50" x="202" y="137.6094"/><line style="stroke:#181818;stroke-width:0.5;" x1="202" x2="252" y1="165.2188" y2="165.2188"/><text fill="#000000" font-family="sans-serif" font-size="14" lengthAdjust="spacing" textLength="4" x="225" y="157.1426">&#160;</text></g><g id="editarAsignatura.GuardandoDatos"><rect fill="#F1F1F1" height="50" rx="12.5" ry="12.5" style="stroke:#181818;stroke-width:0.5;" width="50" x="202" y="357.6094"/><line style="stroke:#181818;stroke-width:0.5;" x1="202" x2="252" y1="385.2188" y2="385.2188"/><text fill="#000000" font-family="sans-serif" font-size="14" lengthAdjust="spacing" textLength="4" x="225" y="377.1426">&#160;</text></g><ellipse cx="227" cy="55.6094" fill="#222222" rx="10" ry="10" style="stroke:#222222;stroke-width:1.0;"/><ellipse cx="227" cy="506.6094" fill="none" rx="11" ry="11" style="stroke:#222222;stroke-width:1.0;"/><ellipse cx="227" cy="506.6094" fill="#222222" rx="6" ry="6" style="stroke:#222222;stroke-width:1.0;"/><!--link *start*editarAsignatura to EditandoDatos--><g id="link_*start*editarAsignatura_EditandoDatos"><path d="M227,65.9294 C227,81.7894 227,108.5194 227,131.2494 " fill="none" id="*start*editarAsignatura-to-EditandoDatos" style="stroke:#008000;stroke-width:1.0;"/><polygon fill="#008000" points="227,137.2494,231,128.2494,227,132.2494,223,128.2494,227,137.2494" style="stroke:#008000;stroke-width:1.0;"/><path d="M232,88.6094 L232,114.6094 L487,114.6094 L487,98.6094 L477,88.6094 L232,88.6094 " fill="#FEFFDD" style="stroke:#181818;stroke-width:0.5;"/><path d="M477,88.6094 L477,98.6094 L487,98.6094 L477,88.6094 " fill="#FEFFDD" style="stroke:#181818;stroke-width:0.5;"/><text fill="#000000" font-family="sans-serif" font-size="13" font-weight="bold" lengthAdjust="spacing" textLength="89" x="238" y="107.1045">Administrador</text><text fill="#000000" font-family="sans-serif" font-size="13" lengthAdjust="spacing" textLength="141" x="331" y="107.1045">solicita editar asignatura</text></g><!--link EditandoDatos to GuardandoDatos--><g id="link_EditandoDatos_GuardandoDatos"><path d="M201.89,170.7294 C159.67,182.7194 79,205.6094 79,205.6094 C79,205.6094 79,339.6094 79,339.6094 C79,339.6094 153.8982,360.8603 196.1182,372.8503 " fill="none" id="EditandoDatos-to-GuardandoDatos" style="stroke:#008000;stroke-width:1.0;"/><polygon fill="#008000" points="201.89,374.4894,194.3251,368.1829,197.0802,373.1234,192.1396,375.8785,201.89,374.4894" style="stroke:#008000;stroke-width:1.0;"/><path d="M84,210.6094 L84,334.6094 L350,334.6094 L350,220.6094 L340,210.6094 L84,210.6094 " fill="#FEFFDD" style="stroke:#181818;stroke-width:0.5;"/><path d="M340,210.6094 L340,220.6094 L350,220.6094 L340,210.6094 " fill="#FEFFDD" style="stroke:#181818;stroke-width:0.5;"/><text fill="#000000" font-family="sans-serif" font-size="13" font-weight="bold" lengthAdjust="spacing" textLength="51" x="90" y="229.1045">Sistema</text><text fill="#000000" font-family="sans-serif" font-size="13" lengthAdjust="spacing" textLength="149" x="145" y="229.1045">presenta datos de edici&#243;n</text><text fill="#000000" font-family="sans-serif" font-size="13" lengthAdjust="spacing" textLength="190" x="90" y="245.4561">&#8226; Permite introducir nuevo c&#243;digo</text><text fill="#000000" font-family="sans-serif" font-size="13" lengthAdjust="spacing" textLength="195" x="90" y="261.8076">&#8226; Permite introducir nuevo nombre</text><text fill="#000000" font-family="sans-serif" font-size="13" lengthAdjust="spacing" textLength="205" x="90" y="278.1592">&#8226; Permite introducir nuevos cr&#233;ditos</text><text fill="#000000" font-family="sans-serif" font-size="13" lengthAdjust="spacing" textLength="245" x="90" y="294.5107">&#8226; Permite solicitar cambiar grado asociado</text><text fill="#000000" font-family="sans-serif" font-size="13" lengthAdjust="spacing" textLength="203" x="90" y="310.8623">&#8226; Permite solicitar guardar cambios</text><text fill="#000000" font-family="sans-serif" font-size="13" lengthAdjust="spacing" textLength="201" x="90" y="327.2139">&#8226; Permite solicitar cancelar edici&#243;n</text></g><!--link GuardandoDatos to EditandoDatos--><g id="link_GuardandoDatos_EditandoDatos"><path d="M252.29,373.3094 C289.59,361.0694 355,339.6094 355,339.6094 C355,339.6094 355,205.6094 355,205.6094 C355,205.6094 295.2909,186.0201 257.9909,173.7801 " fill="none" id="GuardandoDatos-to-EditandoDatos" style="stroke:#008000;stroke-width:1.0;"/><polygon fill="#008000" points="252.29,171.9094,259.5942,178.5161,257.0408,173.4683,262.0885,170.9149,252.29,171.9094" style="stroke:#008000;stroke-width:1.0;"/><path d="M360,251.6094 L360,293.6094 L624,293.6094 L624,261.6094 L614,251.6094 L360,251.6094 " fill="#FEFFDD" style="stroke:#181818;stroke-width:0.5;"/><path d="M614,251.6094 L614,261.6094 L624,261.6094 L614,251.6094 " fill="#FEFFDD" style="stroke:#181818;stroke-width:0.5;"/><text fill="#000000" font-family="sans-serif" font-size="13" font-weight="bold" lengthAdjust="spacing" textLength="89" x="366" y="270.1045">Administrador</text><text fill="#000000" font-family="sans-serif" font-size="13" lengthAdjust="spacing" textLength="147" x="459" y="270.1045">solicita modificar campos</text><text fill="#000000" font-family="sans-serif" font-size="13" font-weight="bold" lengthAdjust="spacing" textLength="51" x="366" y="286.4561">Sistema</text><text fill="#000000" font-family="sans-serif" font-size="13" lengthAdjust="spacing" textLength="188" x="421" y="286.4561">permite introducir nuevos valores</text></g><!--link GuardandoDatos to *end*editarAsignatura--><g id="link_GuardandoDatos_*end*editarAsignatura"><path d="M201.79,388.6794 C146.2,399.8494 18,425.6094 18,425.6094 C18,425.6094 18,477.6094 18,477.6094 C18,477.6094 167.1031,497.583 210.1131,503.343 " fill="none" id="GuardandoDatos-to-*end*editarAsignatura" style="stroke:#008000;stroke-width:1.0;"/><polygon fill="#008000" points="216.06,504.1394,207.6706,498.9801,211.1042,503.4757,206.6087,506.9093,216.06,504.1394" style="stroke:#008000;stroke-width:1.0;"/><path d="M23,430.6094 L23,472.6094 L411,472.6094 L411,440.6094 L401,430.6094 L23,430.6094 " fill="#FEFFDD" style="stroke:#181818;stroke-width:0.5;"/><path d="M401,430.6094 L401,440.6094 L411,440.6094 L401,430.6094 " fill="#FEFFDD" style="stroke:#181818;stroke-width:0.5;"/><text fill="#000000" font-family="sans-serif" font-size="13" font-weight="bold" lengthAdjust="spacing" textLength="89" x="29" y="449.1045">Administrador</text><text fill="#000000" font-family="sans-serif" font-size="13" lengthAdjust="spacing" textLength="127" x="122" y="449.1045">solicita guardar y salir</text><text fill="#000000" font-family="sans-serif" font-size="13" font-weight="bold" lengthAdjust="spacing" textLength="51" x="29" y="465.4561">Sistema</text><text fill="#000000" font-family="sans-serif" font-size="13" lengthAdjust="spacing" textLength="312" x="84" y="465.4561">visualiza y actualiza la asignatura en la base de datos</text></g><!--link GuardandoDatos to *end*editarAsignatura--><g id="link_GuardandoDatos_*end*editarAsignatura"><path d="M252.1,389.1894 C303.51,400.6094 416,425.6094 416,425.6094 C416,425.6094 416,477.6094 416,477.6094 C416,477.6094 283.6153,497.2205 243.6353,503.1405 " fill="none" id="GuardandoDatos-to-*end*editarAsignatura-1" style="stroke:#FF0000;stroke-width:1.0;"/><polygon fill="#FF0000" points="237.7,504.0194,247.1888,506.6579,242.6461,503.287,246.017,498.7442,237.7,504.0194" style="stroke:#FF0000;stroke-width:1.0;"/><path d="M421,430.6094 L421,472.6094 L748,472.6094 L748,440.6094 L738,430.6094 L421,430.6094 " fill="#FEFFDD" style="stroke:#181818;stroke-width:0.5;"/><path d="M738,430.6094 L738,440.6094 L748,440.6094 L738,430.6094 " fill="#FEFFDD" style="stroke:#181818;stroke-width:0.5;"/><text fill="#000000" font-family="sans-serif" font-size="13" font-weight="bold" lengthAdjust="spacing" textLength="89" x="427" y="449.1045">Administrador</text><text fill="#000000" font-family="sans-serif" font-size="13" lengthAdjust="spacing" textLength="139" x="520" y="449.1045">solicita cancelar edici&#243;n</text><text fill="#000000" font-family="sans-serif" font-size="13" font-weight="bold" lengthAdjust="spacing" textLength="51" x="427" y="465.4561">Sistema</text><text fill="#000000" font-family="sans-serif" font-size="13" lengthAdjust="spacing" textLength="251" x="482" y="465.4561">visualiza y descarta los cambios realizados</text></g><g id="ASIGNATURAS_ABIERTO"><rect fill="#F1F1F1" height="50" rx="12.5" ry="12.5" style="stroke:#181818;stroke-width:0.5;" width="184" x="290" y="624"/><line style="stroke:#181818;stroke-width:0.5;" x1="290" x2="474" y1="651.6094" y2="651.6094"/><text fill="#000000" font-family="sans-serif" font-size="14" lengthAdjust="spacing" textLength="164" x="300" y="643.5332">ASIGNATURAS_ABIERTO</text></g><!--link editarAsignatura to ASIGNATURAS_ABIERTO--><g id="link_editarAsignatura_ASIGNATURAS_ABIERTO"><path d="M302.19,528.11 C296.53,546.51 293,558 293,558 C293,558 293,594 293,594 C293,594 313.3594,606.3592 337.0594,620.7292 " fill="none" id="editarAsignatura-to-ASIGNATURAS_ABIERTO" style="stroke:#008000;stroke-width:1.0;"/><polygon fill="#008000" points="342.19,623.84,336.568,615.7534,337.9145,621.2477,332.4203,622.5942,342.19,623.84" style="stroke:#008000;stroke-width:1.0;"/><path d="M298,563 L298,589 L421,589 L421,573 L411,563 L298,563 " fill="#FEFFDD" style="stroke:#181818;stroke-width:0.5;"/><path d="M411,563 L411,573 L421,573 L411,563 " fill="#FEFFDD" style="stroke:#181818;stroke-width:0.5;"/><text fill="#000000" font-family="sans-serif" font-size="13" lengthAdjust="spacing" textLength="102" x="304" y="581.4951">abrirAsignaturas()</text></g><!--link editarAsignatura to ASIGNATURAS_ABIERTO--><g id="link_editarAsignatura_ASIGNATURAS_ABIERTO"><path d="M425.04,528.11 C428.09,546.51 430,558 430,558 C430,558 430,594 430,594 C430,594 420.2373,604.9866 407.4573,619.3566 " fill="none" id="editarAsignatura-to-ASIGNATURAS_ABIERTO-1" style="stroke:#FF0000;stroke-width:1.0;"/><polygon fill="#FF0000" points="403.47,623.84,412.44,619.7731,406.7928,620.1038,406.4621,614.4566,403.47,623.84" style="stroke:#FF0000;stroke-width:1.0;"/><path d="M435,563 L435,589 L550,589 L550,573 L540,563 L435,563 " fill="#FEFFDD" style="stroke:#181818;stroke-width:0.5;"/><path d="M540,563 L540,573 L550,573 L540,563 " fill="#FEFFDD" style="stroke:#181818;stroke-width:0.5;"/><text fill="#000000" font-family="sans-serif" font-size="13" lengthAdjust="spacing" textLength="94" x="441" y="581.4951">cancelar edici&#243;n</text></g><!--SRC=[hLJ1Jjn03BtFLrZR2rH2_G6qKb0HuW8LIqy8LSwC6raaCv5dijAsgjHluSQPJzW_uKjmmcv90eI2K0wPUFpiv-Udn2lsDGfMKBAdjAe9wb2ksWzZOi94G8uJIXQvy9WQGS08it5mPtS6lxU8cJwQTDZcU1U-OWfnU7NKeBZ7EtFn-HBsBZuLGkGlz-OZg0-A3BwbU6NsytdcAlOSaw0BilybdqCC9Lk5RCXgYoqnGzv1My2OGT51kn6TSR-5zg8AkqwrK2IldLnNnNNwM5xVUdFtzng-aLIiQFP9Wcii2_Y6bW7i-jPn4QQJVAXoeScS25RMDpg9ykpdRHKGi5ZbhE-YbKUL29Rry49oqKs-0KsKz9PAFVoRzL7LeNOViyKgEFx9ze5NhTZn4buKPubbq0tz7pzrtLjORRLQGSIIPKngoR7H-2_K1BHfSownPqOWtmPoZDGwfxFG95KXzmwYJzSrGTLHLA4LLRRUUh0127NNha_lZp5FVWLzDRF5yT59TlxzB5lyo0wE3y_EJuUaCHVkWUFERc_svqflfd-ry8Gzxm40]--></g></svg>