<?xml version="1.0" encoding="us-ascii" standalone="no"?><svg xmlns="http://www.w3.org/2000/svg" xmlns:xlink="http://www.w3.org/1999/xlink" contentStyleType="text/css" height="382px" preserveAspectRatio="none" style="width:919px;height:382px;background:#FFFFFF;" version="1.1" viewBox="0 0 919 382" width="919px" zoomAndPan="magnify"><defs/><g><!--cluster eliminarAsignatura--><g id="cluster_eliminarAsignatura"><path d="M159.5,41.016 L285.5,41.016 A3.75,3.75 0 0 1 288,43.516 L295,63.3601 L658.5,63.3601 A2.5,2.5 0 0 1 661,65.8601 L661,372.516 A2.5,2.5 0 0 1 658.5,375.016 L159.5,375.016 A2.5,2.5 0 0 1 157,372.516 L157,43.516 A2.5,2.5 0 0 1 159.5,41.016 " fill="none" style="stroke:#000000;stroke-width:1.5;"/><line style="stroke:#000000;stroke-width:1.5;" x1="157" x2="295" y1="63.3601" y2="63.3601"/><text fill="#000000" font-family="sans-serif" font-size="12" font-weight="bold" lengthAdjust="spacing" textLength="125" x="161" y="55.8441">eliminarAsignatura()</text></g><!--entity EliminarAsignaturaView--><g id="elem_EliminarAsignaturaView"><rect fill="#629EF9" height="36.3441" rx="2.5" ry="2.5" style="stroke:#181818;stroke-width:0.5;" width="153" x="418.5" y="95.016"/><text fill="#000000" font-family="sans-serif" font-size="12" lengthAdjust="spacing" textLength="133" x="428.5" y="117.8441">EliminarAsignaturaView</text></g><!--entity AsignaturaController--><g id="elem_AsignaturaController"><rect fill="#B5BD68" height="36.3441" rx="2.5" ry="2.5" style="stroke:#181818;stroke-width:0.5;" width="137" x="460.5" y="209.016"/><text fill="#000000" font-family="sans-serif" font-size="12" lengthAdjust="spacing" textLength="117" x="470.5" y="231.8441">AsignaturaController</text></g><!--entity AsignaturaRepository--><g id="elem_AsignaturaRepository"><rect fill="#F2AC4E" height="36.3441" rx="2.5" ry="2.5" style="stroke:#181818;stroke-width:0.5;" width="140" x="459" y="323.016"/><text fill="#000000" font-family="sans-serif" font-size="12" lengthAdjust="spacing" textLength="120" x="469" y="345.8441">AsignaturaRepository</text></g><!--entity Asignatura--><g id="elem_Asignatura"><rect fill="#F2AC4E" height="36.3441" rx="2.5" ry="2.5" style="stroke:#181818;stroke-width:0.5;" width="81" x="239.5" y="95.016"/><text fill="#000000" font-family="sans-serif" font-size="12" lengthAdjust="spacing" textLength="61" x="249.5" y="117.8441">Asignatura</text></g><!--entity AsignaturasAbierto--><g id="elem_AsignaturasAbierto"><rect fill="#CDEBA5" height="36.3441" rx="2.5" ry="2.5" style="stroke:#181818;stroke-width:0.5;" width="134" x="7" y="95.016"/><text fill="#000000" font-family="sans-serif" font-size="12" lengthAdjust="spacing" textLength="114" x="17" y="117.8441">:Asignaturas Abierta</text></g><!--entity ExamenRepository--><g id="elem_ExamenRepository"><rect fill="#F2AC4E" height="36.3441" rx="2.5" ry="2.5" style="stroke:#181818;stroke-width:0.5;" width="124" x="677" y="323.016"/><text fill="#000000" font-family="sans-serif" font-size="12" lengthAdjust="spacing" textLength="104" x="687" y="345.8441">ExamenRepository</text></g><!--entity AsignaturasAbiertoSalida--><g id="elem_AsignaturasAbiertoSalida"><rect fill="#CDEBA5" height="36.3441" rx="2.5" ry="2.5" style="stroke:#181818;stroke-width:0.5;" width="134" x="697" y="209.016"/><text fill="#000000" font-family="sans-serif" font-size="12" lengthAdjust="spacing" textLength="114" x="707" y="231.8441">:Asignaturas Abierta</text></g><!--link AsignaturasAbierto to EliminarAsignaturaView--><g id="link_AsignaturasAbierto_EliminarAsignaturaView"><path d="M92.83,94.866 C117.32,71.256 157,33.016 157,33.016 C157,33.016 338,33.016 338,33.016 C338,33.016 407.7044,68.5313 454.0244,92.1413 " fill="none" id="AsignaturasAbierto-to-EliminarAsignaturaView" style="stroke:#181818;stroke-width:1.0;"/><polygon fill="#181818" points="459.37,94.866,453.1681,87.2152,454.9153,92.5954,449.5351,94.3427,459.37,94.866" style="stroke:#181818;stroke-width:1.0;"/><text fill="#000000" font-family="sans-serif" font-size="12" lengthAdjust="spacing" textLength="175" x="208.5" y="20.8441">eliminarAsignatura(asignatura)</text></g><!--link EliminarAsignaturaView to AsignaturaController--><g id="link_EliminarAsignaturaView_AsignaturaController"><path d="M418.43,126.426 C332.51,140.346 205,161.016 205,161.016 C205,161.016 205,179.016 205,179.016 C205,179.016 359.2421,201.3951 454.3521,215.1851 " fill="none" id="EliminarAsignaturaView-to-AsignaturaController" style="stroke:#181818;stroke-width:1.0;"/><polygon fill="#181818" points="460.29,216.046,451.9571,210.796,455.3417,215.3286,450.8092,218.7132,460.29,216.046" style="stroke:#181818;stroke-width:1.0;"/><text fill="#000000" font-family="sans-serif" font-size="12" lengthAdjust="spacing" textLength="279" x="206" y="174.8441">verificarExamenesAsociados(asignatura) : Integer</text></g><!--link EliminarAsignaturaView to AsignaturaController--><g id="link_EliminarAsignaturaView_AsignaturaController"><path d="M500.16,131.026 C506.55,152.076 515.6257,181.9752 522.0457,203.1052 " fill="none" id="EliminarAsignaturaView-to-AsignaturaController-1" style="stroke:#181818;stroke-width:1.0;"/><polygon fill="#181818" points="523.79,208.846,525.0008,199.0719,522.3364,204.062,517.3464,201.3976,523.79,208.846" style="stroke:#181818;stroke-width:1.0;"/><text fill="#000000" font-family="sans-serif" font-size="12" lengthAdjust="spacing" textLength="114" x="515" y="174.8441">eliminar(asignatura)</text></g><!--link AsignaturaController to ExamenRepository--><g id="link_AsignaturaController_ExamenRepository"><path d="M574.12,245.116 C609.57,258.556 653,275.016 653,275.016 C653,275.016 686.1336,300.058 711.6136,319.318 " fill="none" id="AsignaturaController-to-ExamenRepository" style="stroke:#181818;stroke-width:1.0;"/><polygon fill="#181818" points="716.4,322.936,711.6323,314.3181,712.4113,319.921,706.8083,320.7,716.4,322.936" style="stroke:#181818;stroke-width:1.0;"/><text fill="#000000" font-family="sans-serif" font-size="12" lengthAdjust="spacing" textLength="234" x="677" y="288.8441">contarPorAsignatura(asignatura) : Integer</text></g><!--link AsignaturaController to AsignaturaRepository--><g id="link_AsignaturaController_AsignaturaRepository"><path d="M529,245.026 C529,266.076 529,295.716 529,316.846 " fill="none" id="AsignaturaController-to-AsignaturaRepository" style="stroke:#181818;stroke-width:1.0;"/><polygon fill="#181818" points="529,322.846,533,313.846,529,317.846,525,313.846,529,322.846" style="stroke:#181818;stroke-width:1.0;"/><text fill="#000000" font-family="sans-serif" font-size="12" lengthAdjust="spacing" textLength="114" x="530" y="288.8441">eliminar(asignatura)</text></g><!--link EliminarAsignaturaView to AsignaturasAbiertoSalida--><g id="link_EliminarAsignaturaView_AsignaturasAbiertoSalida"><path d="M547.03,131.116 C587.92,144.556 638,161.016 638,161.016 C638,161.016 688.2279,186.925 725.5579,206.185 " fill="none" id="EliminarAsignaturaView-to-AsignaturasAbiertoSalida" style="stroke:#181818;stroke-width:1.0;stroke-dasharray:7.0,7.0;"/><polygon fill="#181818" points="730.89,208.936,724.7258,201.2547,726.4466,206.6435,721.0578,208.3642,730.89,208.936" style="stroke:#181818;stroke-width:1.0;"/><text fill="#000000" font-family="sans-serif" font-size="12" lengthAdjust="spacing" textLength="57" x="672" y="174.8441">&#171;finalizar&#187;</text></g><!--link EliminarAsignaturaView to AsignaturasAbiertoSalida--><g id="link_EliminarAsignaturaView_AsignaturasAbiertoSalida"><path d="M571.55,128.826 C642.78,142.596 738,161.016 738,161.016 C738,161.016 747.2427,184.1048 754.9427,203.3648 " fill="none" id="EliminarAsignaturaView-to-AsignaturasAbiertoSalida-1" style="stroke:#181818;stroke-width:1.0;stroke-dasharray:7.0,7.0;"/><polygon fill="#181818" points="757.17,208.936,757.5432,199.0942,755.3139,204.2933,750.1148,202.064,757.17,208.936" style="stroke:#181818;stroke-width:1.0;"/><text fill="#000000" font-family="sans-serif" font-size="12" lengthAdjust="spacing" textLength="60" x="745" y="174.8441">&#171;cancelar&#187;</text></g><!--SRC=[fLBHJi8m57tlLzpW2pn08X6Y2raonqXyCvBuVhVTZORIBcqHmVZl5gTGO8jH-zJUS-wvfwSrIouhrBY25BDbgTLQvh4IIiDcmIqnSy3D0dEruRA40eNnaIaLk1PsfgIjMrFXj9e9SxuZk1vweE2IxBOYg9JOxW-CQSeiob8GNCNJv3uQGIU832ybshL60r7AILlim7v_hDTbnLZbncD9G8Alk4HzvEmxEfVbRgy3RmpSyaQFXtV9x0wI2_OpfyqvEHsb-VZMSnExoseb1EbpwcmOnJU9HtsYIXbkbTx-I6Nl9-byuSahhaXwClyBS8w2vyZO9G9ztGzR4WaQukxYOTjZhBaF-hdJR0ekW1VIlE0Pwlg6P2AZCkx-eV6L8O07QQbqKRCcdNh2UKW1P8w1-b6r6FPbVs_zEupJ2DhjDNs7DfKMDuD1sFgQ0KmcXUiHV8Sw3FygaQ7CI7mgV000]--></g></svg>