<?xml version="1.0" encoding="us-ascii" standalone="no"?><svg xmlns="http://www.w3.org/2000/svg" xmlns:xlink="http://www.w3.org/1999/xlink" contentStyleType="text/css" height="415px" preserveAspectRatio="none" style="width:589px;height:415px;background:#FFFFFF;" version="1.1" viewBox="0 0 589 415" width="589px" zoomAndPan="magnify"><defs/><g><!--cluster Administraci?n Acad?mica--><g id="cluster_Administraci&#243;n Acad&#233;mica"><path d="M8.5,6 L192.5,6 A3.75,3.75 0 0 1 195,8.5 L202,29.6094 L579.5,29.6094 A2.5,2.5 0 0 1 582,32.1094 L582,405.5 A2.5,2.5 0 0 1 579.5,408 L8.5,408 A2.5,2.5 0 0 1 6,405.5 L6,8.5 A2.5,2.5 0 0 1 8.5,6 " fill="none" style="stroke:#000000;stroke-width:1.5;"/><line style="stroke:#000000;stroke-width:1.5;" x1="6" x2="202" y1="29.6094" y2="29.6094"/><text fill="#000000" font-family="sans-serif" font-size="14" font-weight="bold" lengthAdjust="spacing" textLength="183" x="10" y="22.5332">Administraci&#243;n Acad&#233;mica</text></g><!--entity admin--><g id="elem_admin"><ellipse cx="305.5" cy="193.5" fill="#F1F1F1" rx="8" ry="8" style="stroke:#181818;stroke-width:0.5;"/><path d="M305.5,201.5 L305.5,228.5 M292.5,209.5 L318.5,209.5 M305.5,228.5 L292.5,243.5 M305.5,228.5 L318.5,243.5 " fill="none" style="stroke:#181818;stroke-width:0.5;"/><text fill="#000000" font-family="sans-serif" font-size="14" lengthAdjust="spacing" textLength="87" x="262" y="259.5332">Administrador</text></g><g id="elem_abrirGrados"><ellipse cx="487.957" cy="288.7914" fill="#F1F1F1" rx="69.457" ry="16.2914" style="stroke:#181818;stroke-width:0.5;"/><text fill="#000000" font-family="sans-serif" font-size="14" lengthAdjust="spacing" textLength="86" x="441.957" y="293.308">abrirGrados()</text></g><g id="elem_crearGrado"><ellipse cx="487.9277" cy="221.0855" fill="#F1F1F1" rx="68.4277" ry="16.0855" style="stroke:#181818;stroke-width:0.5;"/><text fill="#000000" font-family="sans-serif" font-size="14" lengthAdjust="spacing" textLength="83" x="443.4277" y="225.6021">crearGrado()</text></g><g id="elem_editarGrado"><ellipse cx="487.957" cy="152.7914" fill="#F1F1F1" rx="69.457" ry="16.2914" style="stroke:#181818;stroke-width:0.5;"/><text fill="#000000" font-family="sans-serif" font-size="14" lengthAdjust="spacing" textLength="86" x="441.957" y="157.308">editarGrado()</text></g><g id="elem_eliminarGrado"><ellipse cx="488.1111" cy="375.2222" fill="#F1F1F1" rx="74.1111" ry="17.2222" style="stroke:#181818;stroke-width:0.5;"/><text fill="#000000" font-family="sans-serif" font-size="14" lengthAdjust="spacing" textLength="99" x="435.6111" y="379.7388">eliminarGrado()</text></g><g id="elem_importarGrados"><ellipse cx="487.896" cy="82.9792" fill="#F1F1F1" rx="77.896" ry="17.9792" style="stroke:#181818;stroke-width:0.5;"/><text fill="#000000" font-family="sans-serif" font-size="14" lengthAdjust="spacing" textLength="109" x="431.4355" y="87.2466">importarGrados()</text></g><g id="elem_abrirAsignaturas"><ellipse cx="111.3789" cy="60.8758" fill="#F1F1F1" rx="79.8789" ry="18.3758" style="stroke:#181818;stroke-width:0.5;"/><text fill="#000000" font-family="sans-serif" font-size="14" lengthAdjust="spacing" textLength="114" x="53.3373" y="64.9024">abrirAsignaturas()</text></g><g id="elem_crearAsignatura"><ellipse cx="111.6819" cy="225.1364" fill="#F1F1F1" rx="78.6819" ry="18.1364" style="stroke:#181818;stroke-width:0.5;"/><text fill="#000000" font-family="sans-serif" font-size="14" lengthAdjust="spacing" textLength="111" x="54.5947" y="229.3083">crearAsignatura()</text></g><g id="elem_editarAsignatura"><ellipse cx="111.3789" cy="296.8758" fill="#F1F1F1" rx="79.8789" ry="18.3758" style="stroke:#181818;stroke-width:0.5;"/><text fill="#000000" font-family="sans-serif" font-size="14" lengthAdjust="spacing" textLength="114" x="53.3373" y="300.9024">editarAsignatura()</text></g><g id="elem_eliminarAsignatura"><ellipse cx="111.2698" cy="151.954" fill="#F1F1F1" rx="85.2698" ry="19.454" style="stroke:#181818;stroke-width:0.5;"/><text fill="#000000" font-family="sans-serif" font-size="14" lengthAdjust="spacing" textLength="127" x="47.7698" y="155.6825">eliminarAsignatura()</text></g><g id="elem_importarAsignaturas"><ellipse cx="111.535" cy="370.807" fill="#F1F1F1" rx="89.535" ry="20.307" style="stroke:#181818;stroke-width:0.5;"/><text fill="#000000" font-family="sans-serif" font-size="14" lengthAdjust="spacing" textLength="137" x="43.035" y="374.5355">importarAsignaturas()</text></g><!--link admin to abrirGrados--><g id="link_admin_abrirGrados"><path d="M349.28,239.4 C379.51,250.29 414.0344,262.7284 443.1844,273.2184 " fill="none" id="admin-to-abrirGrados" style="stroke:#181818;stroke-width:1.0;"/><polygon fill="#181818" points="448.83,275.25,441.7161,268.4388,444.1254,273.557,439.0072,275.9663,448.83,275.25" style="stroke:#181818;stroke-width:1.0;"/></g><!--link admin to crearGrado--><g id="link_admin_crearGrado"><path d="M349.28,223.29 C370.23,222.94 389.9608,222.6095 413.4808,222.2195 " fill="none" id="admin-to-crearGrado" style="stroke:#181818;stroke-width:1.0;"/><polygon fill="#181818" points="419.48,222.12,410.4149,218.2698,414.4807,222.2029,410.5476,226.2687,419.48,222.12" style="stroke:#181818;stroke-width:1.0;"/></g><!--link admin to editarGrado--><g id="link_admin_editarGrado"><path d="M349.28,207.17 C380.34,194.95 416.3165,180.8064 445.6265,169.2764 " fill="none" id="admin-to-editarGrado" style="stroke:#181818;stroke-width:1.0;"/><polygon fill="#181818" points="451.21,167.08,441.3704,166.6523,446.5571,168.9104,444.299,174.097,451.21,167.08" style="stroke:#181818;stroke-width:1.0;"/></g><!--link admin to eliminarGrado--><g id="link_admin_eliminarGrado"><path d="M344.39,263.23 C363.38,282.11 387.16,304.58 410,323 C426.2,336.06 440.567,345.9246 455.857,355.7146 " fill="none" id="admin-to-eliminarGrado" style="stroke:#181818;stroke-width:1.0;"/><polygon fill="#181818" points="460.91,358.95,455.4875,350.7283,456.6992,356.2539,451.1736,357.4656,460.91,358.95" style="stroke:#181818;stroke-width:1.0;"/></g><!--link admin to importarGrados--><g id="link_admin_importarGrados"><path d="M338.86,184.92 C357.97,163.54 383.55,137.68 410,119 C421.33,111 429.256,106.4988 441.666,100.8688 " fill="none" id="admin-to-importarGrados" style="stroke:#181818;stroke-width:1.0;"/><polygon fill="#181818" points="447.13,98.39,437.2814,98.4656,442.5767,100.4557,440.5865,105.7509,447.13,98.39" style="stroke:#181818;stroke-width:1.0;"/></g><!--reverse link abrirAsignaturas to admin--><g id="link_abrirAsignaturas_admin"><path d="M150.2055,81.0286 C167.5555,90.8186 183.64,100.97 201,115 C226.88,135.91 252.65,163.03 272.01,184.99 " fill="none" id="abrirAsignaturas-backto-admin" style="stroke:#181818;stroke-width:1.0;"/><polygon fill="#181818" points="144.98,78.08,150.8525,85.9865,149.3346,80.5371,154.784,79.0192,144.98,78.08" style="stroke:#181818;stroke-width:1.0;"/></g><!--reverse link crearAsignatura to admin--><g id="link_crearAsignatura_admin"><path d="M196.0399,224.5682 C220.5999,224.4382 240.84,224.33 261.99,224.22 " fill="none" id="crearAsignatura-backto-admin" style="stroke:#181818;stroke-width:1.0;"/><polygon fill="#181818" points="190.04,224.6,199.061,228.5523,195.0399,224.5735,199.0187,220.5524,190.04,224.6" style="stroke:#181818;stroke-width:1.0;"/></g><!--reverse link editarAsignatura to admin--><g id="link_editarAsignatura_admin"><path d="M159.7684,279.0278 C191.6484,266.9078 229.83,252.39 261.92,240.19 " fill="none" id="editarAsignatura-backto-admin" style="stroke:#181818;stroke-width:1.0;"/><polygon fill="#181818" points="154.16,281.16,163.994,281.7007,158.8336,279.3832,161.1511,274.2228,154.16,281.16" style="stroke:#181818;stroke-width:1.0;"/></g><!--reverse link eliminarAsignatura to admin--><g id="link_eliminarAsignatura_admin"><path d="M162.6479,170.8069 C194.2179,182.6469 230.72,196.33 261.86,208.01 " fill="none" id="eliminarAsignatura-backto-admin" style="stroke:#181818;stroke-width:1.0;"/><polygon fill="#181818" points="157.03,168.7,164.0522,175.6057,161.7116,170.4558,166.8615,168.1151,157.03,168.7" style="stroke:#181818;stroke-width:1.0;"/></g><!--reverse link importarAsignaturas to admin--><g id="link_importarAsignaturas_admin"><path d="M167.6544,351.4955 C180.8544,345.8355 189.2,341.22 201,333 C228.84,313.61 255.09,285.8 274.19,263.13 " fill="none" id="importarAsignaturas-backto-admin" style="stroke:#181818;stroke-width:1.0;"/><polygon fill="#181818" points="162.14,353.86,171.988,353.9895,166.7354,351.8896,168.8353,346.6369,162.14,353.86" style="stroke:#181818;stroke-width:1.0;"/></g><!--link eliminarGrado to abrirGrados--><g id="link_eliminarGrado_abrirGrados"><path d="M488,357.6 C488,342.38 488,326.44 488,311.5 " fill="none" id="eliminarGrado-to-abrirGrados" style="stroke:#181818;stroke-width:1.0;stroke-dasharray:7.0,7.0;"/><polygon fill="#181818" points="488,305.5,484,314.5,488,310.5,492,314.5,488,305.5" style="stroke:#181818;stroke-width:1.0;"/><text fill="#000000" font-family="sans-serif" font-size="13" lengthAdjust="spacing" textLength="55" x="448.5" y="337.2451">&#171;include&#187;</text></g><!--link eliminarAsignatura to abrirAsignaturas--><g id="link_eliminarAsignatura_abrirAsignaturas"><path d="M111.5,132.25 C111.5,116.68 111.5,101.09 111.5,85.77 " fill="none" id="eliminarAsignatura-to-abrirAsignaturas" style="stroke:#181818;stroke-width:1.0;stroke-dasharray:7.0,7.0;"/><polygon fill="#181818" points="111.5,79.77,107.5,88.77,111.5,84.77,115.5,88.77,111.5,79.77" style="stroke:#181818;stroke-width:1.0;"/><text fill="#000000" font-family="sans-serif" font-size="13" lengthAdjust="spacing" textLength="55" x="72" y="111.4951">&#171;include&#187;</text></g><!--SRC=[TLCnReGm4EpzYfKhACW38eH4bNTiR8Ui0kPac-gK1wNE4-vZEI0dTesFRcTcaMV67jr7WZH3eE4pWQNWJABPAtL1yuM30ztRYJp55D3GxTT3Rz3UVYOogE6g5Dm_D6aEN6dde04Zu8hicYKwWz41lWSARwiahWhDvghMGcg2mvtQbCUO2vsbn9LiFab7kXz9Y3cIoscwpE7nh_t04beNplxwI8F7j0Ha9XbOT7hmXzq3AtlETdBmcVjyxGG_oo4tLi2tHBwLshg7fkcWOXtN73yQ5J2hJ-AyAS78JcgbgZpn6jgc-R-FLHQjuF889NaAIj25D3YlvELxwSHZU8Ms9M_6nRgkKuMc7dhUWLpw0m00]--></g></svg>