<?xml version="1.0" encoding="us-ascii" standalone="no"?><svg xmlns="http://www.w3.org/2000/svg" xmlns:xlink="http://www.w3.org/1999/xlink" contentStyleType="text/css" height="264px" preserveAspectRatio="none" style="width:1025px;height:264px;background:#FFFFFF;" version="1.1" viewBox="0 0 1025 264" width="1025px" zoomAndPan="magnify"><defs/><g><!--cluster Administraci?n de Ex?menes--><g id="cluster_Administraci&#243;n de Ex&#225;menes"><path d="M8.5,6 L211.5,6 A3.75,3.75 0 0 1 214,8.5 L221,29.6094 L1015.5,29.6094 A2.5,2.5 0 0 1 1018,32.1094 L1018,254.5 A2.5,2.5 0 0 1 1015.5,257 L8.5,257 A2.5,2.5 0 0 1 6,254.5 L6,8.5 A2.5,2.5 0 0 1 8.5,6 " fill="none" style="stroke:#000000;stroke-width:1.5;"/><line style="stroke:#000000;stroke-width:1.5;" x1="6" x2="221" y1="29.6094" y2="29.6094"/><text fill="#000000" font-family="sans-serif" font-size="14" font-weight="bold" lengthAdjust="spacing" textLength="202" x="10" y="22.5332">Administraci&#243;n de Ex&#225;menes</text></g><!--entity admin--><g id="elem_admin"><ellipse cx="298.5" cy="117.5" fill="#F1F1F1" rx="8" ry="8" style="stroke:#181818;stroke-width:0.5;"/><path d="M298.5,125.5 L298.5,152.5 M285.5,133.5 L311.5,133.5 M298.5,152.5 L285.5,167.5 M298.5,152.5 L311.5,167.5 " fill="none" style="stroke:#181818;stroke-width:0.5;"/><text fill="#000000" font-family="sans-serif" font-size="14" lengthAdjust="spacing" textLength="87" x="255" y="183.5332">Administrador</text></g><g id="elem_abrirExamenes"><ellipse cx="107.9763" cy="60.0953" fill="#F1F1F1" rx="75.9763" ry="17.5953" style="stroke:#181818;stroke-width:0.5;"/><text fill="#000000" font-family="sans-serif" font-size="14" lengthAdjust="spacing" textLength="104" x="53.0467" y="64.5957">abrirExamenes()</text></g><g id="elem_crearExamen"><ellipse cx="492.4259" cy="216.7852" fill="#F1F1F1" rx="71.9259" ry="16.7852" style="stroke:#181818;stroke-width:0.5;"/><text fill="#000000" font-family="sans-serif" font-size="14" lengthAdjust="spacing" textLength="93" x="442.9259" y="221.3018">crearExamen()</text></g><g id="elem_editarExamen"><ellipse cx="492.5109" cy="148.0022" fill="#F1F1F1" rx="73.0109" ry="17.0022" style="stroke:#181818;stroke-width:0.5;"/><text fill="#000000" font-family="sans-serif" font-size="14" lengthAdjust="spacing" textLength="96" x="441.5109" y="152.5188">editarExamen()</text></g><g id="elem_eliminarExamen"><ellipse cx="107.896" cy="147.9792" fill="#F1F1F1" rx="77.896" ry="17.9792" style="stroke:#181818;stroke-width:0.5;"/><text fill="#000000" font-family="sans-serif" font-size="14" lengthAdjust="spacing" textLength="109" x="51.4355" y="152.2466">eliminarExamen()</text></g><g id="elem_generarCalendario"><ellipse cx="108.1163" cy="221.1233" fill="#F1F1F1" rx="86.1163" ry="19.6233" style="stroke:#181818;stroke-width:0.5;"/><text fill="#000000" font-family="sans-serif" font-size="14" lengthAdjust="spacing" textLength="129" x="43.6163" y="224.8518">generarCalendario()</text></g><g id="elem_consultarCalendario"><ellipse cx="492.535" cy="74.807" fill="#F1F1F1" rx="89.535" ry="20.307" style="stroke:#181818;stroke-width:0.5;"/><text fill="#000000" font-family="sans-serif" font-size="14" lengthAdjust="spacing" textLength="137" x="424.035" y="78.5355">consultarCalendario()</text></g><g id="elem_descargarCalendarioExamenes"><ellipse cx="880.4823" cy="103.1965" fill="#F1F1F1" rx="121.4823" ry="26.6965" style="stroke:#181818;stroke-width:0.5;"/><text fill="#000000" font-family="sans-serif" font-size="14" lengthAdjust="spacing" textLength="208" x="776.4823" y="106.925">descargarCalendarioExamenes()</text></g><!--link admin to consultarCalendario--><g id="link_admin_consultarCalendario"><path d="M342.11,131.8 C372.71,120.16 408.3214,106.6216 439.7114,94.6916 " fill="none" id="admin-to-consultarCalendario" style="stroke:#181818;stroke-width:1.0;"/><polygon fill="#181818" points="445.32,92.56,435.486,92.0183,440.6462,94.3363,438.3282,99.4964,445.32,92.56" style="stroke:#181818;stroke-width:1.0;"/></g><!--link admin to crearExamen--><g id="link_admin_crearExamen"><path d="M342.11,163.31 C374.92,175.11 414.2939,189.2498 446.3039,200.7598 " fill="none" id="admin-to-crearExamen" style="stroke:#181818;stroke-width:1.0;"/><polygon fill="#181818" points="451.95,202.79,444.8343,195.9807,447.2449,201.0982,442.1274,203.5088,451.95,202.79" style="stroke:#181818;stroke-width:1.0;"/></g><!--link admin to editarExamen--><g id="link_admin_editarExamen"><path d="M342.11,148 C364.76,148 387.22,148 413.21,148 " fill="none" id="admin-to-editarExamen" style="stroke:#181818;stroke-width:1.0;"/><polygon fill="#181818" points="419.21,148,410.21,144,414.21,148,410.21,152,419.21,148" style="stroke:#181818;stroke-width:1.0;"/></g><!--reverse link abrirExamenes to admin--><g id="link_abrirExamenes_admin"><path d="M148.1364,78.2687 C179.4864,92.9087 220.89,112.23 254.83,128.08 " fill="none" id="abrirExamenes-backto-admin" style="stroke:#181818;stroke-width:1.0;"/><polygon fill="#181818" points="142.7,75.73,149.1622,83.1624,147.2304,77.8456,152.5471,75.9138,142.7,75.73" style="stroke:#181818;stroke-width:1.0;"/></g><!--reverse link eliminarExamen to admin--><g id="link_eliminarExamen_admin"><path d="M192.21,148 C215.7,148 234.65,148 254.96,148 " fill="none" id="eliminarExamen-backto-admin" style="stroke:#181818;stroke-width:1.0;"/><polygon fill="#181818" points="186.21,148,195.21,152,191.21,148,195.21,144,186.21,148" style="stroke:#181818;stroke-width:1.0;"/></g><!--reverse link generarCalendario to admin--><g id="link_generarCalendario_admin"><path d="M157.8452,202.0836 C188.6052,190.1736 224.14,176.41 254.78,164.54 " fill="none" id="generarCalendario-backto-admin" style="stroke:#181818;stroke-width:1.0;"/><polygon fill="#181818" points="152.25,204.25,162.0871,204.7305,156.9127,202.4446,159.1986,197.2702,152.25,204.25" style="stroke:#181818;stroke-width:1.0;"/></g><!--link consultarCalendario to descargarCalendarioExamenes--><!--link descargarCalendarioExamenes to consultarCalendario--><g id="link_descargarCalendarioExamenes_consultarCalendario"><path d="M764.97,94.69 C705.07,90.35 639.0042,85.5545 584.1942,81.5745 " fill="none" id="descargarCalendarioExamenes-to-consultarCalendario" style="stroke:#181818;stroke-width:1.0;stroke-dasharray:7.0,7.0;"/><polygon fill="#181818" points="578.21,81.14,586.8967,85.7813,583.1969,81.5021,587.4761,77.8023,578.21,81.14" style="stroke:#181818;stroke-width:1.0;"/><text fill="#000000" font-family="sans-serif" font-size="13" lengthAdjust="spacing" textLength="53" x="644" y="82.4951">&#171;extend&#187;</text></g><!--link eliminarExamen to abrirExamenes--><g id="link_eliminarExamen_abrirExamenes"><path d="M108,129.77 C108,114.46 108,98.74 108,83.61 " fill="none" id="eliminarExamen-to-abrirExamenes" style="stroke:#181818;stroke-width:1.0;stroke-dasharray:7.0,7.0;"/><polygon fill="#181818" points="108,77.61,104,86.61,108,82.61,112,86.61,108,77.61" style="stroke:#181818;stroke-width:1.0;"/><text fill="#000000" font-family="sans-serif" font-size="13" lengthAdjust="spacing" textLength="55" x="68.5" y="109.2451">&#171;include&#187;</text></g><!--SRC=[VP51JiGm34NtEONL5Imo1q1L9OJc58Y5IKp7efCW9vKg8Gx36JZ2N8oaZ9YahPfTljztx9-1tY943yBzAO9b8HFPEwK-qBnZJz0ysZCx3b7GyEN7WIKuJfVlCpaA3Nmg1UcWYLvArdff00DWLlwOCP31G82lmdASSEwGcQPIxkwR2ZT2U2tES75VecGvLcmfhE21qsWrNadPK3dwD9wWFE50pgAmdqqhTRM0Ts4SuigueI-jbe91wKka2cwddbjzAJNd3rftMsEKrLkgXLhcbtfL7zTgVVtTHPB_1L3hn6ukjPMBVZwnjUHUykixswczP0w7pMtX0TgMffYkNRSSEbdgzJBCpWoZfKJ_0W00]--></g></svg>