<?xml version="1.0" encoding="us-ascii" standalone="no"?><svg xmlns="http://www.w3.org/2000/svg" xmlns:xlink="http://www.w3.org/1999/xlink" contentStyleType="text/css" height="249px" preserveAspectRatio="none" style="width:541px;height:249px;background:#FFFFFF;" version="1.1" viewBox="0 0 541 249" width="541px" zoomAndPan="magnify"><defs/><g><!--cluster Administraci?n de Aulas--><g id="cluster_Administraci&#243;n de Aulas"><path d="M8.5,6 L177.5,6 A3.75,3.75 0 0 1 180,8.5 L187,29.6094 L531.5,29.6094 A2.5,2.5 0 0 1 534,32.1094 L534,239.5 A2.5,2.5 0 0 1 531.5,242 L8.5,242 A2.5,2.5 0 0 1 6,239.5 L6,8.5 A2.5,2.5 0 0 1 8.5,6 " fill="none" style="stroke:#000000;stroke-width:1.5;"/><line style="stroke:#000000;stroke-width:1.5;" x1="6" x2="187" y1="29.6094" y2="29.6094"/><text fill="#000000" font-family="sans-serif" font-size="14" font-weight="bold" lengthAdjust="spacing" textLength="168" x="10" y="22.5332">Administraci&#243;n de Aulas</text></g><!--entity admin--><g id="elem_admin"><ellipse cx="266.5" cy="112.5" fill="#F1F1F1" rx="8" ry="8" style="stroke:#181818;stroke-width:0.5;"/><path d="M266.5,120.5 L266.5,147.5 M253.5,128.5 L279.5,128.5 M266.5,147.5 L253.5,162.5 M266.5,147.5 L279.5,162.5 " fill="none" style="stroke:#181818;stroke-width:0.5;"/><text fill="#000000" font-family="sans-serif" font-size="14" lengthAdjust="spacing" textLength="87" x="223" y="178.5332">Administrador</text></g><g id="elem_abrirAulas"><ellipse cx="92.102" cy="58.1136" fill="#F1F1F1" rx="64.602" ry="15.6136" style="stroke:#181818;stroke-width:0.5;"/><text fill="#000000" font-family="sans-serif" font-size="14" lengthAdjust="spacing" textLength="74" x="52.102" y="62.6302">abrirAulas()</text></g><g id="elem_crearAula"><ellipse cx="91.8852" cy="210.0992" fill="#F1F1F1" rx="62.3852" ry="15.5992" style="stroke:#181818;stroke-width:0.5;"/><text fill="#000000" font-family="sans-serif" font-size="14" lengthAdjust="spacing" textLength="71" x="53.3852" y="214.6158">crearAula()</text></g><g id="elem_editarAula"><ellipse cx="444.602" cy="180.1136" fill="#F1F1F1" rx="64.602" ry="15.6136" style="stroke:#181818;stroke-width:0.5;"/><text fill="#000000" font-family="sans-serif" font-size="14" lengthAdjust="spacing" textLength="74" x="404.602" y="184.6302">editarAula()</text></g><g id="elem_eliminarAula"><ellipse cx="91.8041" cy="142.8608" fill="#F1F1F1" rx="69.8041" ry="16.3608" style="stroke:#181818;stroke-width:0.5;"/><text fill="#000000" font-family="sans-serif" font-size="14" lengthAdjust="spacing" textLength="87" x="45.3041" y="147.3774">eliminarAula()</text></g><g id="elem_importarAulas"><ellipse cx="444.376" cy="112.0752" fill="#F1F1F1" rx="73.376" ry="17.0752" style="stroke:#181818;stroke-width:0.5;"/><text fill="#000000" font-family="sans-serif" font-size="14" lengthAdjust="spacing" textLength="97" x="392.876" y="116.5918">importarAulas()</text></g><!--link admin to editarAula--><g id="link_admin_editarAula"><path d="M310.1,151.96 C335.84,157.37 362.8485,163.0449 389.5185,168.6549 " fill="none" id="admin-to-editarAula" style="stroke:#181818;stroke-width:1.0;"/><polygon fill="#181818" points="395.39,169.89,387.4061,164.1231,390.4971,168.8608,385.7594,171.9517,395.39,169.89" style="stroke:#181818;stroke-width:1.0;"/></g><!--link admin to importarAulas--><g id="link_admin_importarAulas"><path d="M310.1,135.5 C332.69,131.52 354.8607,127.6094 379.4207,123.2894 " fill="none" id="admin-to-importarAulas" style="stroke:#181818;stroke-width:1.0;"/><polygon fill="#181818" points="385.33,122.25,375.7731,119.8696,380.4056,123.1162,377.159,127.7486,385.33,122.25" style="stroke:#181818;stroke-width:1.0;"/></g><!--reverse link abrirAulas to admin--><g id="link_abrirAulas_admin"><path d="M126.4825,74.5012 C154.0725,88.0912 191.14,106.36 222.88,122 " fill="none" id="abrirAulas-backto-admin" style="stroke:#181818;stroke-width:1.0;"/><polygon fill="#181818" points="121.1,71.85,127.4062,79.4152,125.5854,74.0594,130.9412,72.2385,121.1,71.85" style="stroke:#181818;stroke-width:1.0;"/></g><!--reverse link eliminarAula to admin--><g id="link_eliminarAula_admin"><path d="M168.17,143 C188.7,143 204.57,143 222.88,143 " fill="none" id="eliminarAula-backto-admin" style="stroke:#181818;stroke-width:1.0;"/><polygon fill="#181818" points="162.17,143,171.17,147,167.17,143,171.17,139,162.17,143" style="stroke:#181818;stroke-width:1.0;"/></g><!--reverse link crearAula to admin--><g id="link_crearAula_admin"><path d="M132.2631,194.748 C159.7131,184.088 193.07,171.13 222.73,159.61 " fill="none" id="crearAula-backto-admin" style="stroke:#181818;stroke-width:1.0;"/><polygon fill="#181818" points="126.67,196.92,136.5076,197.3907,131.3309,195.11,133.6116,189.9333,126.67,196.92" style="stroke:#181818;stroke-width:1.0;"/></g><!--link eliminarAula to abrirAulas--><g id="link_eliminarAula_abrirAulas"><path d="M92,126.21 C92,110.92 92,94.52 92,79.61 " fill="none" id="eliminarAula-to-abrirAulas" style="stroke:#181818;stroke-width:1.0;stroke-dasharray:7.0,7.0;"/><polygon fill="#181818" points="92,73.61,88,82.61,92,78.61,96,82.61,92,73.61" style="stroke:#181818;stroke-width:1.0;"/><text fill="#000000" font-family="sans-serif" font-size="13" lengthAdjust="spacing" textLength="55" x="52.5" y="105.4951">&#171;include&#187;</text></g><!--SRC=[PP1B3i8m34JtEOML5IpA0L1LgKSnYIaMQOEST8Ku5KVWOlGdafJiPlmSpTZHDKBq8DpT8bWMCf7zeDG3pHqx0jtQdWSEKT3mvps09MX7Xq73KocO7fhe9UUi5mqO06TdPSP01WC1NeHbMPy1dUJXg0lG2E4oMRYVscDaEMPSad-WuobCZcR67kR-uMNxQ0rQE3F-Kcgf1rNLP2aoirYPwDIyhghjDaMgPAVooIlPKvEVyWnrpODnewMcKLy0]--></g></svg>