<?xml version="1.0" encoding="us-ascii" standalone="no"?><svg xmlns="http://www.w3.org/2000/svg" xmlns:xlink="http://www.w3.org/1999/xlink" contentStyleType="text/css" height="705px" preserveAspectRatio="none" style="width:1742px;height:705px;background:#FFFFFF;" version="1.1" viewBox="0 0 1742 705" width="1742px" zoomAndPan="magnify"><defs/><g><g id="elem_Universidad"><rect fill="#F1F1F1" height="47.2188" style="stroke:#181818;stroke-width:0.5;" width="164" x="656" y="7"/><text fill="#000000" font-family="sans-serif" font-size="14" lengthAdjust="spacing" textLength="74" x="701" y="23.5332">Universidad</text><line style="stroke:#181818;stroke-width:0.5;" x1="657" x2="819" y1="28.6094" y2="28.6094"/><text fill="#000000" font-family="sans-serif" font-size="14" lengthAdjust="spacing" textLength="152" x="662" y="47.1426">nombre = "Uneatlantico"</text></g><g id="elem_Facultad"><rect fill="#F1F1F1" height="47.2188" style="stroke:#181818;stroke-width:0.5;" width="210" x="633" y="115"/><text fill="#000000" font-family="sans-serif" font-size="14" lengthAdjust="spacing" textLength="55" x="710.5" y="131.5332">Facultad</text><line style="stroke:#181818;stroke-width:0.5;" x1="634" x2="842" y1="136.6094" y2="136.6094"/><text fill="#000000" font-family="sans-serif" font-size="14" lengthAdjust="spacing" textLength="198" x="639" y="155.1426">nombre = "Polit&#233;cnica superior"</text></g><g id="elem_Grado"><rect fill="#F1F1F1" height="47.2188" style="stroke:#181818;stroke-width:0.5;" width="140" x="668" y="223"/><text fill="#000000" font-family="sans-serif" font-size="14" lengthAdjust="spacing" textLength="40" x="718" y="239.5332">Grado</text><line style="stroke:#181818;stroke-width:0.5;" x1="669" x2="807" y1="244.6094" y2="244.6094"/><text fill="#000000" font-family="sans-serif" font-size="14" lengthAdjust="spacing" textLength="128" x="674" y="263.1426">nombre = "3&#186; grado"</text></g><g id="elem_Asignatura"><rect fill="#F1F1F1" height="64.8281" style="stroke:#181818;stroke-width:0.5;" width="227" x="495.5" y="331"/><text fill="#000000" font-family="sans-serif" font-size="14" lengthAdjust="spacing" textLength="68" x="575" y="347.5332">Asignatura</text><line style="stroke:#181818;stroke-width:0.5;" x1="496.5" x2="721.5" y1="352.6094" y2="352.6094"/><text fill="#000000" font-family="sans-serif" font-size="14" lengthAdjust="spacing" textLength="215" x="501.5" y="371.1426">nombre = "Ingenier&#237;a de Software"</text><text fill="#000000" font-family="sans-serif" font-size="14" lengthAdjust="spacing" textLength="111" x="501.5" y="388.752">codigo = "IDSW1"</text></g><g id="elem_Asignatura2"><rect fill="#F1F1F1" height="64.8281" style="stroke:#181818;stroke-width:0.5;" width="221" x="854.5" y="331"/><text fill="#000000" font-family="sans-serif" font-size="14" lengthAdjust="spacing" textLength="76" x="927" y="347.5332">Asignatura2</text><line style="stroke:#181818;stroke-width:0.5;" x1="855.5" x2="1074.5" y1="352.6094" y2="352.6094"/><text fill="#000000" font-family="sans-serif" font-size="14" lengthAdjust="spacing" textLength="209" x="860.5" y="371.1426">nombre = "Sistemas Distribuidos"</text><text fill="#000000" font-family="sans-serif" font-size="14" lengthAdjust="spacing" textLength="105" x="860.5" y="388.752">codigo = "SSDB"</text></g><g id="elem_Examen"><rect fill="#F1F1F1" height="82.4375" style="stroke:#181818;stroke-width:0.5;" width="246" x="372" y="474"/><text fill="#000000" font-family="sans-serif" font-size="14" lengthAdjust="spacing" textLength="50" x="470" y="490.5332">Examen</text><line style="stroke:#181818;stroke-width:0.5;" x1="373" x2="617" y1="495.6094" y2="495.6094"/><text fill="#000000" font-family="sans-serif" font-size="14" lengthAdjust="spacing" textLength="234" x="378" y="514.1426">asignatura = "Ingenier&#237;a de Software"</text><text fill="#000000" font-family="sans-serif" font-size="14" lengthAdjust="spacing" textLength="80" x="378" y="531.752">tipo = "Final"</text><text fill="#000000" font-family="sans-serif" font-size="14" lengthAdjust="spacing" textLength="135" x="378" y="549.3613">fecha = "2026-01-16"</text></g><g id="elem_Examen2"><rect fill="#F1F1F1" height="82.4375" style="stroke:#181818;stroke-width:0.5;" width="240" x="1104" y="474"/><text fill="#000000" font-family="sans-serif" font-size="14" lengthAdjust="spacing" textLength="58" x="1195" y="490.5332">Examen2</text><line style="stroke:#181818;stroke-width:0.5;" x1="1105" x2="1343" y1="495.6094" y2="495.6094"/><text fill="#000000" font-family="sans-serif" font-size="14" lengthAdjust="spacing" textLength="228" x="1110" y="514.1426">asignatura = "Sistemas Distribuidos"</text><text fill="#000000" font-family="sans-serif" font-size="14" lengthAdjust="spacing" textLength="80" x="1110" y="531.752">tipo = "Final"</text><text fill="#000000" font-family="sans-serif" font-size="14" lengthAdjust="spacing" textLength="135" x="1110" y="549.3613">fecha = "2026-01-12"</text></g><g id="elem_Profesor"><rect fill="#F1F1F1" height="47.2188" style="stroke:#181818;stroke-width:0.5;" width="180" x="7" y="643"/><text fill="#000000" font-family="sans-serif" font-size="14" lengthAdjust="spacing" textLength="54" x="70" y="659.5332">Profesor</text><line style="stroke:#181818;stroke-width:0.5;" x1="8" x2="186" y1="664.6094" y2="664.6094"/><text fill="#000000" font-family="sans-serif" font-size="14" lengthAdjust="spacing" textLength="168" x="13" y="683.1426">nombre = "Manuel Mas&#237;as"</text></g><g id="elem_Profesor2"><rect fill="#F1F1F1" height="47.2188" style="stroke:#181818;stroke-width:0.5;" width="177" x="804.5" y="643"/><text fill="#000000" font-family="sans-serif" font-size="14" lengthAdjust="spacing" textLength="62" x="862" y="659.5332">Profesor2</text><line style="stroke:#181818;stroke-width:0.5;" x1="805.5" x2="980.5" y1="664.6094" y2="664.6094"/><text fill="#000000" font-family="sans-serif" font-size="14" lengthAdjust="spacing" textLength="165" x="810.5" y="683.1426">nombre = "Daniel Iglesias"</text></g><g id="elem_FranjaHoraria"><rect fill="#F1F1F1" height="47.2188" style="stroke:#181818;stroke-width:0.5;" width="195" x="222.5" y="643"/><text fill="#000000" font-family="sans-serif" font-size="14" lengthAdjust="spacing" textLength="87" x="276.5" y="659.5332">FranjaHoraria</text><line style="stroke:#181818;stroke-width:0.5;" x1="223.5" x2="416.5" y1="664.6094" y2="664.6094"/><text fill="#000000" font-family="sans-serif" font-size="14" lengthAdjust="spacing" textLength="183" x="228.5" y="683.1426">descripcion = "11:30 - 13:30"</text></g><g id="elem_FranjaHoraria2"><rect fill="#F1F1F1" height="47.2188" style="stroke:#181818;stroke-width:0.5;" width="195" x="1016.5" y="643"/><text fill="#000000" font-family="sans-serif" font-size="14" lengthAdjust="spacing" textLength="95" x="1066.5" y="659.5332">FranjaHoraria2</text><line style="stroke:#181818;stroke-width:0.5;" x1="1017.5" x2="1210.5" y1="664.6094" y2="664.6094"/><text fill="#000000" font-family="sans-serif" font-size="14" lengthAdjust="spacing" textLength="183" x="1022.5" y="683.1426">descripcion = "08:30 - 10:30"</text></g><g id="elem_Aula1"><rect fill="#F1F1F1" height="64.8281" style="stroke:#181818;stroke-width:0.5;" width="137" x="452.5" y="634"/><text fill="#000000" font-family="sans-serif" font-size="14" lengthAdjust="spacing" textLength="36" x="503" y="650.5332">Aula1</text><line style="stroke:#181818;stroke-width:0.5;" x1="453.5" x2="588.5" y1="655.6094" y2="655.6094"/><text fill="#000000" font-family="sans-serif" font-size="14" lengthAdjust="spacing" textLength="125" x="458.5" y="674.1426">codigo = "Aula -2.6"</text><text fill="#000000" font-family="sans-serif" font-size="14" lengthAdjust="spacing" textLength="97" x="458.5" y="691.752">capacidad = 50</text></g><g id="elem_Aula2"><rect fill="#F1F1F1" height="64.8281" style="stroke:#181818;stroke-width:0.5;" width="137" x="1246.5" y="634"/><text fill="#000000" font-family="sans-serif" font-size="14" lengthAdjust="spacing" textLength="36" x="1297" y="650.5332">Aula2</text><line style="stroke:#181818;stroke-width:0.5;" x1="1247.5" x2="1382.5" y1="655.6094" y2="655.6094"/><text fill="#000000" font-family="sans-serif" font-size="14" lengthAdjust="spacing" textLength="125" x="1252.5" y="674.1426">codigo = "Aula -2.4"</text><text fill="#000000" font-family="sans-serif" font-size="14" lengthAdjust="spacing" textLength="97" x="1252.5" y="691.752">capacidad = 40</text></g><g id="elem_Aula3"><rect fill="#F1F1F1" height="64.8281" style="stroke:#181818;stroke-width:0.5;" width="137" x="1418.5" y="634"/><text fill="#000000" font-family="sans-serif" font-size="14" lengthAdjust="spacing" textLength="36" x="1469" y="650.5332">Aula3</text><line style="stroke:#181818;stroke-width:0.5;" x1="1419.5" x2="1554.5" y1="655.6094" y2="655.6094"/><text fill="#000000" font-family="sans-serif" font-size="14" lengthAdjust="spacing" textLength="125" x="1424.5" y="674.1426">codigo = "Aula -2.2"</text><text fill="#000000" font-family="sans-serif" font-size="14" lengthAdjust="spacing" textLength="97" x="1424.5" y="691.752">capacidad = 35</text></g><g id="elem_Alumno"><rect fill="#F1F1F1" height="47.2188" style="stroke:#181818;stroke-width:0.5;" width="145" x="624.5" y="643"/><text fill="#000000" font-family="sans-serif" font-size="14" lengthAdjust="spacing" textLength="47" x="673.5" y="659.5332">Alumno</text><line style="stroke:#181818;stroke-width:0.5;" x1="625.5" x2="768.5" y1="664.6094" y2="664.6094"/><text fill="#000000" font-family="sans-serif" font-size="14" lengthAdjust="spacing" textLength="133" x="630.5" y="683.1426">cantidadAlumno = 50</text></g><g id="elem_Alumno2"><rect fill="#F1F1F1" height="47.2188" style="stroke:#181818;stroke-width:0.5;" width="145" x="1590.5" y="643"/><text fill="#000000" font-family="sans-serif" font-size="14" lengthAdjust="spacing" textLength="55" x="1635.5" y="659.5332">Alumno2</text><line style="stroke:#181818;stroke-width:0.5;" x1="1591.5" x2="1734.5" y1="664.6094" y2="664.6094"/><text fill="#000000" font-family="sans-serif" font-size="14" lengthAdjust="spacing" textLength="133" x="1596.5" y="683.1426">cantidadAlumno = 45</text></g><!--link Universidad to Facultad--><g id="link_Universidad_Facultad"><path codeLine="75" d="M738,54.24 C738,72.12 738,90.92 738,108.8 " fill="none" id="Universidad-to-Facultad" style="stroke:#181818;stroke-width:1.0;"/><polygon fill="#181818" points="738,114.8,742,105.8,738,109.8,734,105.8,738,114.8" style="stroke:#181818;stroke-width:1.0;"/></g><!--link Facultad to Grado--><g id="link_Facultad_Grado"><path codeLine="76" d="M738,162.24 C738,180.12 738,198.92 738,216.8 " fill="none" id="Facultad-to-Grado" style="stroke:#181818;stroke-width:1.0;"/><polygon fill="#181818" points="738,222.8,742,213.8,738,217.8,734,213.8,738,222.8" style="stroke:#181818;stroke-width:1.0;"/></g><!--link Grado to Asignatura--><g id="link_Grado_Asignatura"><path codeLine="77" d="M712.51,270.22 C693.13,287.5 670.6881,307.5067 649.1681,326.6967 " fill="none" id="Grado-to-Asignatura" style="stroke:#181818;stroke-width:1.0;"/><polygon fill="#181818" points="644.69,330.69,654.0694,327.6855,648.4218,327.3623,648.745,321.7147,644.69,330.69" style="stroke:#181818;stroke-width:1.0;"/></g><!--link Grado to Asignatura2--><g id="link_Grado_Asignatura2"><path codeLine="78" d="M782.58,270.08 C816.79,287.42 859.1073,308.8592 897.1373,328.1192 " fill="none" id="Grado-to-Asignatura2" style="stroke:#181818;stroke-width:1.0;"/><polygon fill="#181818" points="902.49,330.83,896.2682,323.1953,898.0294,328.571,892.6537,330.3322,902.49,330.83" style="stroke:#181818;stroke-width:1.0;"/></g><!--link Asignatura to Profesor--><g id="link_Asignatura_Profesor"><path codeLine="80" d="M495.24,387.15 C428.11,404.02 343.53,431.59 277,474 C204.09,520.47 143.9534,598.1805 115.8334,637.9605 " fill="none" id="Asignatura-to-Profesor" style="stroke:#181818;stroke-width:1.0;"/><polygon fill="#181818" points="112.37,642.86,120.8314,637.8197,115.2562,638.7771,114.2988,633.2018,112.37,642.86" style="stroke:#181818;stroke-width:1.0;"/><text fill="#000000" font-family="sans-serif" font-size="13" lengthAdjust="spacing" textLength="75" x="278" y="520.4951">impartida por</text></g><!--link Alumno to Asignatura--><g id="link_Alumno_Asignatura"><path codeLine="81" d="M698.38,642.73 C699.01,631.14 699.69,616.82 700,604 C701.97,523.13 698.8,498.04 662,426 C656.61,415.46 652.9668,409.7638 645.2368,400.7538 " fill="none" id="Alumno-to-Asignatura" style="stroke:#181818;stroke-width:1.0;"/><polygon fill="#181818" points="641.33,396.2,644.1544,405.6352,644.5857,399.9948,650.2261,400.4261,641.33,396.2" style="stroke:#181818;stroke-width:1.0;"/><text fill="#000000" font-family="sans-serif" font-size="13" lengthAdjust="spacing" textLength="67" x="702" y="520.4951">inscritos en</text></g><!--link Asignatura to Examen--><g id="link_Asignatura_Examen"><path codeLine="82" d="M584.82,396.21 C567.57,418.83 547.8684,444.6691 529.2984,469.0191 " fill="none" id="Asignatura-to-Examen" style="stroke:#181818;stroke-width:1.0;"/><polygon fill="#181818" points="525.66,473.79,534.2983,469.0592,528.692,469.8142,527.937,464.208,525.66,473.79" style="stroke:#181818;stroke-width:1.0;"/><text fill="#000000" font-family="sans-serif" font-size="13" lengthAdjust="spacing" textLength="93" x="560" y="440.4951">eval&#250;a mediante</text></g><!--link Asignatura2 to Profesor2--><g id="link_Asignatura2_Profesor2"><path codeLine="84" d="M957.43,396.14 C942.84,457.12 912.5563,583.7447 899.8363,636.9047 " fill="none" id="Asignatura2-to-Profesor2" style="stroke:#181818;stroke-width:1.0;"/><polygon fill="#181818" points="898.44,642.74,904.4246,634.9179,899.6035,637.8773,896.6442,633.0562,898.44,642.74" style="stroke:#181818;stroke-width:1.0;"/><text fill="#000000" font-family="sans-serif" font-size="13" lengthAdjust="spacing" textLength="75" x="940" y="520.4951">impartida por</text></g><!--link Alumno2 to Asignatura2--><g id="link_Alumno2_Asignatura2"><path codeLine="85" d="M1654.13,642.68 C1646.34,625.2 1633.52,601.53 1616,586 C1469.64,456.23 1394.25,479.13 1206,426 C1163.61,414.04 1122.5583,403.3055 1081.5083,392.9655 " fill="none" id="Alumno2-to-Asignatura2" style="stroke:#181818;stroke-width:1.0;"/><polygon fill="#181818" points="1075.69,391.5,1083.4404,397.5772,1080.5386,392.7213,1085.3944,389.8195,1075.69,391.5" style="stroke:#181818;stroke-width:1.0;"/><text fill="#000000" font-family="sans-serif" font-size="13" lengthAdjust="spacing" textLength="67" x="1580" y="520.4951">inscritos en</text></g><!--link Asignatura2 to Examen2--><g id="link_Asignatura2_Examen2"><path codeLine="86" d="M1019.61,396.02 C1058.94,418.72 1107.1136,446.5305 1149.4536,470.9705 " fill="none" id="Asignatura2-to-Examen2" style="stroke:#181818;stroke-width:1.0;"/><polygon fill="#181818" points="1154.65,473.97,1148.8551,466.0064,1150.3197,471.4704,1144.8557,472.935,1154.65,473.97" style="stroke:#181818;stroke-width:1.0;"/><text fill="#000000" font-family="sans-serif" font-size="13" lengthAdjust="spacing" textLength="93" x="1104" y="440.4951">eval&#250;a mediante</text></g><!--link Examen to FranjaHoraria--><g id="link_Examen_FranjaHoraria"><path codeLine="88" d="M432.54,556.16 C419.41,565.46 405.94,575.67 394,586 C373.76,603.53 357.1144,621.5228 342.8244,638.1228 " fill="none" id="Examen-to-FranjaHoraria" style="stroke:#181818;stroke-width:1.0;"/><polygon fill="#181818" points="338.91,642.67,347.8131,638.4588,342.172,638.8807,341.7502,633.2396,338.91,642.67" style="stroke:#181818;stroke-width:1.0;"/><text fill="#000000" font-family="sans-serif" font-size="13" lengthAdjust="spacing" textLength="86" x="395" y="600.4951">programado en</text></g><!--link Examen to Profesor--><g id="link_Examen_Profesor"><path codeLine="89" d="M372,553 C340.78,563.07 307.47,574.42 277,586 C231.34,603.36 185.9606,623.6003 150.0006,640.3203 " fill="none" id="Examen-to-Profesor" style="stroke:#181818;stroke-width:1.0;"/><polygon fill="#181818" points="144.56,642.85,154.4074,642.6826,149.0939,640.7419,151.0345,635.4284,144.56,642.85" style="stroke:#181818;stroke-width:1.0;"/><text fill="#000000" font-family="sans-serif" font-size="13" lengthAdjust="spacing" textLength="90" x="278" y="600.4951">supervisado por</text></g><!--link Examen to Alumno--><g id="link_Examen_Alumno"><path codeLine="90" d="M545.16,556.05 C564.59,571.31 587.15,588.7 608,604 C626.02,617.22 641.5621,628.0608 658.3321,639.4908 " fill="none" id="Examen-to-Alumno" style="stroke:#181818;stroke-width:1.0;"/><polygon fill="#181818" points="663.29,642.87,658.1059,634.4959,659.1584,640.054,653.6003,641.1065,663.29,642.87" style="stroke:#181818;stroke-width:1.0;"/><text fill="#000000" font-family="sans-serif" font-size="13" lengthAdjust="spacing" textLength="86" x="609" y="600.4951">presentado por</text></g><!--link Examen to Aula1--><g id="link_Examen_Aula1"><path codeLine="91" d="M489.38,556.26 C488.37,571.39 488.56,588.64 492,604 C494.27,614.14 495.827,619.1544 500.277,628.4844 " fill="none" id="Examen-to-Aula1" style="stroke:#181818;stroke-width:1.0;"/><polygon fill="#181818" points="502.86,633.9,502.5959,624.0547,500.7075,629.387,495.3752,627.4987,502.86,633.9" style="stroke:#181818;stroke-width:1.0;"/><text fill="#000000" font-family="sans-serif" font-size="13" lengthAdjust="spacing" textLength="74" x="493" y="600.4951">se realiza en</text></g><!--link Examen2 to Aula2--><g id="link_Examen2_Aula2"><path codeLine="92" d="M1248.39,556.06 C1263.23,580.45 1278.8085,606.0559 1292.6185,628.7259 " fill="none" id="Examen2-to-Aula2" style="stroke:#181818;stroke-width:1.0;"/><polygon fill="#181818" points="1295.74,633.85,1294.4739,624.0829,1293.1388,629.5799,1287.6417,628.2448,1295.74,633.85" style="stroke:#181818;stroke-width:1.0;"/><text fill="#000000" font-family="sans-serif" font-size="13" lengthAdjust="spacing" textLength="74" x="1276" y="600.4951">se realiza en</text></g><!--link Examen2 to FranjaHoraria2--><g id="link_Examen2_FranjaHoraria2"><path codeLine="94" d="M1193.27,556.21 C1185.93,565.93 1178.14,576.31 1171,586 C1157,605 1144.8752,621.9189 1133.5352,637.8789 " fill="none" id="Examen2-to-FranjaHoraria2" style="stroke:#181818;stroke-width:1.0;"/><polygon fill="#181818" points="1130.06,642.77,1138.5336,637.7502,1132.956,638.6941,1132.0121,633.1165,1130.06,642.77" style="stroke:#181818;stroke-width:1.0;"/><text fill="#000000" font-family="sans-serif" font-size="13" lengthAdjust="spacing" textLength="86" x="1172" y="600.4951">programado en</text></g><!--link Examen2 to Profesor2--><g id="link_Examen2_Profesor2"><path codeLine="95" d="M1127.27,556.17 C1104.78,565.75 1080.98,576.08 1059,586 C1018.08,604.47 977.4604,623.9749 944.2804,640.1949 " fill="none" id="Examen2-to-Profesor2" style="stroke:#181818;stroke-width:1.0;"/><polygon fill="#181818" points="938.89,642.83,948.7323,642.471,943.382,640.6341,945.2189,635.2838,938.89,642.83" style="stroke:#181818;stroke-width:1.0;"/><text fill="#000000" font-family="sans-serif" font-size="13" lengthAdjust="spacing" textLength="90" x="1060" y="600.4951">supervisado por</text></g><!--link Examen2 to Alumno2--><g id="link_Examen2_Alumno2"><path codeLine="96" d="M1344.1,546.79 C1385.01,558.1 1430.8,571.67 1472,586 C1520.85,602.99 1569.6935,623.5914 1607.8735,640.4914 " fill="none" id="Examen2-to-Alumno2" style="stroke:#181818;stroke-width:1.0;"/><polygon fill="#181818" points="1613.36,642.92,1606.7492,635.6195,1608.7879,640.8962,1603.5112,642.9348,1613.36,642.92" style="stroke:#181818;stroke-width:1.0;"/><text fill="#000000" font-family="sans-serif" font-size="13" lengthAdjust="spacing" textLength="86" x="1521" y="600.4951">presentado por</text></g><!--link Examen2 to Aula3--><g id="link_Examen2_Aula3"><path codeLine="97" d="M1303.79,556.07 C1322.07,565.61 1341.33,575.95 1359,586 C1385.49,601.07 1409.3102,615.6711 1432.9302,630.6211 " fill="none" id="Examen2-to-Aula3" style="stroke:#181818;stroke-width:1.0;"/><polygon fill="#181818" points="1438,633.83,1432.5345,625.6368,1433.7752,631.1559,1428.256,632.3966,1438,633.83" style="stroke:#181818;stroke-width:1.0;"/><text fill="#000000" font-family="sans-serif" font-size="13" lengthAdjust="spacing" textLength="74" x="1389" y="600.4951">se realiza en</text></g><!--SRC=[XLJ1Rjim3BthAuZSFTXoMWm1Eg13cgw70WM2OcT6PZ8LjcH8TZOis0Vji1_eSVcnIKwMI8xT-cARVk_naIQbLoya6dXMSal6oW8Bs36bgvKXk879io9iIbID57h2VZ6c3_W5YhPiUk0dNSfc_rieAH1iMvEHseIiUuE5ZYZvtrVO-6W8kxLoex1f3KRO1xKX9Sdi_o0K14kzRhwZeGaJkf0RtK7cow_Pi1IFj9RIDbIXXRbxC7BLoaBRK6cvd7yEXUv-O4Lgn_3ixIrBZQmxcOLKM4xOciItZi1JVfsaMP9TNuhpllg8oNUrUQZzPFIQh3PH-O-eMYhX4QrpReVWSRlcwAeiuM5JafKnOM5GlU0NRT18tB62h32o5b8hJyooMPv20bdkxgCqVi5BFnvvQOztsvQOEM_dF-KZaF0FhgC2QnJT3D_0LTfZyK7MD6PD-wnyaCLZLduLiigsKdxAXLyR1pW6-fQwA1_2JJkvS2MJvDDfvTXfztoqMobsM2p_VXxumI1dBDWk_-qq7pEGLOt6Mu5Q6tQq4_CzIla_rMWBfFfYXq46S33QOhb_HQYeaAv02XFpA3CVIStxtiUJyo0x7qb_zDQrCXm-1wwDTeTGvTlbP0FWgJdTDJiSQbjfFT8R3Q37Ti5_Q6t8acg6aDq8Ep42GrZAdtZEoay8Ve688F7-ZDJGx_ERLV2W3FvE7MUR-ONDVm00]--></g></svg>