<?xml version="1.0" encoding="us-ascii" standalone="no"?><svg xmlns="http://www.w3.org/2000/svg" xmlns:xlink="http://www.w3.org/1999/xlink" contentStyleType="text/css" height="268px" preserveAspectRatio="none" style="width:644px;height:268px;background:#FFFFFF;" version="1.1" viewBox="0 0 644 268" width="644px" zoomAndPan="magnify"><defs/><g><!--cluster Consulta de Calendario de Ex?menes--><g id="cluster_Consulta de Calendario de Ex&#225;menes"><path d="M8.5,6 L271.5,6 A3.75,3.75 0 0 1 274,8.5 L281,29.6094 L634.5,29.6094 A2.5,2.5 0 0 1 637,32.1094 L637,258.5 A2.5,2.5 0 0 1 634.5,261 L8.5,261 A2.5,2.5 0 0 1 6,258.5 L6,8.5 A2.5,2.5 0 0 1 8.5,6 " fill="none" style="stroke:#000000;stroke-width:1.5;"/><line style="stroke:#000000;stroke-width:1.5;" x1="6" x2="281" y1="29.6094" y2="29.6094"/><text fill="#000000" font-family="sans-serif" font-size="14" font-weight="bold" lengthAdjust="spacing" textLength="262" x="10" y="22.5332">Consulta de Calendario de Ex&#225;menes</text></g><!--entity Profesor--><g id="elem_Profesor"><ellipse cx="289.5" cy="175.5" fill="#F1F1F1" rx="8" ry="8" style="stroke:#181818;stroke-width:0.5;"/><path d="M289.5,183.5 L289.5,210.5 M276.5,191.5 L302.5,191.5 M289.5,210.5 L276.5,225.5 M289.5,210.5 L302.5,225.5 " fill="none" style="stroke:#181818;stroke-width:0.5;"/><text fill="#000000" font-family="sans-serif" font-size="14" lengthAdjust="spacing" textLength="54" x="262.5" y="241.5332">Profesor</text></g><g id="elem_comunicarIncidencias"><ellipse cx="499.6359" cy="206.1272" fill="#F1F1F1" rx="113.6359" ry="25.1272" style="stroke:#181818;stroke-width:0.5;"/><text fill="#000000" font-family="sans-serif" font-size="14" lengthAdjust="spacing" textLength="191" x="404.1359" y="209.8557">comunicarIncidenciasHorario()</text></g><g id="elem_consultarCalendario"><ellipse cx="111.535" cy="130.807" fill="#F1F1F1" rx="89.535" ry="20.307" style="stroke:#181818;stroke-width:0.5;"/><text fill="#000000" font-family="sans-serif" font-size="14" lengthAdjust="spacing" textLength="137" x="43.035" y="134.5355">consultarCalendario()</text></g><g id="elem_descargarCalendario"><ellipse cx="499.4823" cy="94.1965" fill="#F1F1F1" rx="121.4823" ry="26.6965" style="stroke:#181818;stroke-width:0.5;"/><text fill="#000000" font-family="sans-serif" font-size="14" lengthAdjust="spacing" textLength="208" x="395.4823" y="97.925">descargarCalendarioExamenes()</text></g><!--link Profesor to comunicarIncidencias--><g id="link_Profesor_comunicarIncidencias"><path d="M316.84,206 C334.77,206 353.85,206 379.66,206 " fill="none" id="Profesor-to-comunicarIncidencias" style="stroke:#181818;stroke-width:1.0;"/><polygon fill="#181818" points="385.66,206,376.66,202,380.66,206,376.66,210,385.66,206" style="stroke:#181818;stroke-width:1.0;"/></g><!--reverse link consultarCalendario to Profesor--><g id="link_consultarCalendario_Profesor"><path d="M160.1794,151.313 C193.6294,165.573 233.84,182.71 262.25,194.81 " fill="none" id="consultarCalendario-backto-Profesor" style="stroke:#181818;stroke-width:1.0;"/><polygon fill="#181818" points="154.66,148.96,161.3704,156.169,159.2595,150.9208,164.5077,148.8098,154.66,148.96" style="stroke:#181818;stroke-width:1.0;"/></g><!--link consultarCalendario to descargarCalendario--><!--link descargarCalendario to consultarCalendario--><g id="link_descargarCalendario_consultarCalendario"><path d="M378.54,97.08 C341.13,98.85 299.78,101.63 262,106 C248.14,107.6 244.77,108.73 231,111 C215.77,113.51 205.3569,115.255 189.8369,117.865 " fill="none" id="descargarCalendario-to-consultarCalendario" style="stroke:#181818;stroke-width:1.0;stroke-dasharray:7.0,7.0;"/><polygon fill="#181818" points="183.92,118.86,193.4587,121.312,188.8508,118.0308,192.132,113.4228,183.92,118.86" style="stroke:#181818;stroke-width:1.0;"/><text fill="#000000" font-family="sans-serif" font-size="13" lengthAdjust="spacing" textLength="53" x="263" y="97.4951">&#171;extend&#187;</text></g><!--SRC=[RP1DQWCn38NtEiLZLkt2EK0PPXC2xQxxq8MmbOdfn2go1mPA3zEpz6Brf3_fZxKmI7xwzAH93WL5ON4y5eHeualKHFJ4_f57GRVLbEUfC89WovEam1PrpNRBs-j9akGEpuGQx8iQxaqFajNeN9kpUCwLu_Kqf-ZPxfAFGUh3-LPjXLrTT-2Cbk8luyEBNOnyz_xx-TqQ95Vo-5EmM_Xi_nFHKD0BqTSwS6veMWHHOpfwvowdQ0dS_XX3PJoiuDPmQXInsGojPN63lfUbr7GOw1q0]--></g></svg>