<?xml version="1.0" encoding="us-ascii" standalone="no"?><svg xmlns="http://www.w3.org/2000/svg" xmlns:xlink="http://www.w3.org/1999/xlink" contentStyleType="text/css" height="682px" preserveAspectRatio="none" style="width:688px;height:682px;background:#FFFFFF;" version="1.1" viewBox="0 0 688 682" width="688px" zoomAndPan="magnify"><defs/><g><path d="M129.5,7 L430.5,7 A12.5,12.5 0 0 1 443,19.5 L443,34.6094 L117,34.6094 L117,19.5 A12.5,12.5 0 0 1 129.5,7 " fill="#F1F1F1" style="stroke:#F1F1F1;stroke-width:1.0;"/><rect fill="none" height="522.6094" rx="12.5" ry="12.5" style="stroke:#181818;stroke-width:0.5;" width="326" x="117" y="7"/><line style="stroke:#181818;stroke-width:0.5;" x1="117" x2="443" y1="34.6094" y2="34.6094"/><text fill="#000000" font-family="sans-serif" font-size="14" lengthAdjust="spacing" textLength="74" x="243" y="26.5332">abrirAulas()</text><g id="abrirAulas.MostrandoLista"><rect fill="#F1F1F1" height="50" rx="12.5" ry="12.5" style="stroke:#181818;stroke-width:0.5;" width="50" x="129" y="137.6094"/><line style="stroke:#181818;stroke-width:0.5;" x1="129" x2="179" y1="165.2188" y2="165.2188"/><text fill="#000000" font-family="sans-serif" font-size="14" lengthAdjust="spacing" textLength="4" x="152" y="157.1426">&#160;</text></g><g id="abrirAulas.FiltrandoLista"><rect fill="#F1F1F1" height="50" rx="12.5" ry="12.5" style="stroke:#181818;stroke-width:0.5;" width="50" x="129" y="374.6094"/><line style="stroke:#181818;stroke-width:0.5;" x1="129" x2="179" y1="402.2188" y2="402.2188"/><text fill="#000000" font-family="sans-serif" font-size="14" lengthAdjust="spacing" textLength="4" x="152" y="394.1426">&#160;</text></g><ellipse cx="154" cy="55.6094" fill="#222222" rx="10" ry="10" style="stroke:#222222;stroke-width:1.0;"/><ellipse cx="154" cy="508.6094" fill="none" rx="11" ry="11" style="stroke:#222222;stroke-width:1.0;"/><ellipse cx="154" cy="508.6094" fill="#222222" rx="6" ry="6" style="stroke:#222222;stroke-width:1.0;"/><!--link *start*abrirAulas to MostrandoLista--><g id="link_*start*abrirAulas_MostrandoLista"><path d="M154,65.9294 C154,81.7894 154,108.5194 154,131.2494 " fill="none" id="*start*abrirAulas-to-MostrandoLista" style="stroke:#008000;stroke-width:1.0;"/><polygon fill="#008000" points="154,137.2494,158,128.2494,154,132.2494,150,128.2494,154,137.2494" style="stroke:#008000;stroke-width:1.0;"/><path d="M159,88.6094 L159,114.6094 L378,114.6094 L378,98.6094 L368,88.6094 L159,88.6094 " fill="#FEFFDD" style="stroke:#181818;stroke-width:0.5;"/><path d="M368,88.6094 L368,98.6094 L378,98.6094 L368,88.6094 " fill="#FEFFDD" style="stroke:#181818;stroke-width:0.5;"/><text fill="#000000" font-family="sans-serif" font-size="13" font-weight="bold" lengthAdjust="spacing" textLength="89" x="165" y="107.1045">Administrador</text><text fill="#000000" font-family="sans-serif" font-size="13" lengthAdjust="spacing" textLength="105" x="258" y="107.1045">solicita abrir aulas</text></g><!--link MostrandoLista to FiltrandoLista--><g id="link_MostrandoLista_FiltrandoLista"><path d="M154,187.8694 C154,233.0194 154,323.4294 154,368.4794 " fill="none" id="MostrandoLista-to-FiltrandoLista" style="stroke:#008000;stroke-width:1.0;"/><polygon fill="#008000" points="154,374.4794,158,365.4794,154,369.4794,150,365.4794,154,374.4794" style="stroke:#008000;stroke-width:1.0;"/><path d="M159,210.6094 L159,350.6094 L425,350.6094 L425,220.6094 L415,210.6094 L159,210.6094 " fill="#FEFFDD" style="stroke:#181818;stroke-width:0.5;"/><path d="M415,210.6094 L415,220.6094 L425,220.6094 L415,210.6094 " fill="#FEFFDD" style="stroke:#181818;stroke-width:0.5;"/><text fill="#000000" font-family="sans-serif" font-size="13" font-weight="bold" lengthAdjust="spacing" textLength="51" x="165" y="229.1045">Sistema</text><text fill="#000000" font-family="sans-serif" font-size="13" lengthAdjust="spacing" textLength="131" x="220" y="229.1045">presenta lista de aulas</text><text fill="#000000" font-family="sans-serif" font-size="13" lengthAdjust="spacing" textLength="245" x="165" y="245.4561">&#8226; C&#243;digo, nombre, capacidad de cada aula</text><text fill="#000000" font-family="sans-serif" font-size="13" lengthAdjust="spacing" textLength="169" x="165" y="261.8076">&#8226; Edificio, planta, tipo de aula</text><text fill="#000000" font-family="sans-serif" font-size="13" lengthAdjust="spacing" textLength="163" x="165" y="278.1592">&#8226; Permite solicitar filtrar lista</text><text fill="#000000" font-family="sans-serif" font-size="13" lengthAdjust="spacing" textLength="201" x="165" y="294.5107">&#8226; Permite solicitar crear aula nueva</text><text fill="#000000" font-family="sans-serif" font-size="13" lengthAdjust="spacing" textLength="180" x="165" y="310.8623">&#8226; Permite solicitar eliminar aula</text><text fill="#000000" font-family="sans-serif" font-size="13" lengthAdjust="spacing" textLength="167" x="165" y="327.2139">&#8226; Permite solicitar editar aula</text><text fill="#000000" font-family="sans-serif" font-size="13" lengthAdjust="spacing" textLength="189" x="165" y="343.5654">&#8226; Permite solicitar importar aulas</text></g><!--link FiltrandoLista to FiltrandoLista--><g id="link_FiltrandoLista_FiltrandoLista"><path d="M179.18,388.0294 C188.91,387.5194 197,391.3794 197,399.6094 C197,407.8394 194.9018,412.0134 185.1718,411.5034 " fill="none" id="FiltrandoLista-to-FiltrandoLista" style="stroke:#008000;stroke-width:1.0;"/><polygon fill="#008000" points="179.18,411.1894,187.9583,415.655,184.1731,411.4511,188.377,407.6659,179.18,411.1894" style="stroke:#008000;stroke-width:1.0;"/><path d="M202,378.6094 L202,420.6094 L417,420.6094 L417,388.6094 L407,378.6094 L202,378.6094 " fill="#FEFFDD" style="stroke:#181818;stroke-width:0.5;"/><path d="M407,378.6094 L407,388.6094 L417,388.6094 L407,378.6094 " fill="#FEFFDD" style="stroke:#181818;stroke-width:0.5;"/><text fill="#000000" font-family="sans-serif" font-size="13" font-weight="bold" lengthAdjust="spacing" textLength="89" x="208" y="397.1045">Administrador</text><text fill="#000000" font-family="sans-serif" font-size="13" lengthAdjust="spacing" textLength="101" x="301" y="397.1045">solicita filtrar lista</text><text fill="#000000" font-family="sans-serif" font-size="13" font-weight="bold" lengthAdjust="spacing" textLength="51" x="208" y="413.4561">Sistema</text><text fill="#000000" font-family="sans-serif" font-size="13" lengthAdjust="spacing" textLength="120" x="263" y="413.4561">presenta lista filtrada</text></g><!--link FiltrandoLista to *end*abrirAulas--><g id="link_FiltrandoLista_*end*abrirAulas"><path d="M154,424.6194 C154,447.5394 154,474.9694 154,491.5294 " fill="none" id="FiltrandoLista-to-*end*abrirAulas" style="stroke:#008000;stroke-width:1.0;"/><polygon fill="#008000" points="154,497.5294,158,488.5294,154,492.5294,150,488.5294,154,497.5294" style="stroke:#008000;stroke-width:1.0;"/><path d="M159,448.6094 L159,474.6094 L434,474.6094 L434,458.6094 L424,448.6094 L159,448.6094 " fill="#FEFFDD" style="stroke:#181818;stroke-width:0.5;"/><path d="M424,448.6094 L424,458.6094 L434,458.6094 L424,448.6094 " fill="#FEFFDD" style="stroke:#181818;stroke-width:0.5;"/><text fill="#000000" font-family="sans-serif" font-size="13" font-weight="bold" lengthAdjust="spacing" textLength="89" x="165" y="467.1045">Administrador</text><text fill="#000000" font-family="sans-serif" font-size="13" lengthAdjust="spacing" textLength="161" x="258" y="467.1045">solicita una de las opciones</text></g><g id="AULA_ABIERTA"><rect fill="#F1F1F1" height="50" rx="12.5" ry="12.5" style="stroke:#181818;stroke-width:0.5;" width="121" x="44.5" y="626"/><line style="stroke:#181818;stroke-width:0.5;" x1="44.5" x2="165.5" y1="653.6094" y2="653.6094"/><text fill="#000000" font-family="sans-serif" font-size="14" lengthAdjust="spacing" textLength="101" x="54.5" y="645.5332">AULA_ABIERTA</text></g><g id="AULAS_ABIERTO"><rect fill="#F1F1F1" height="50" rx="12.5" ry="12.5" style="stroke:#181818;stroke-width:0.5;" width="132" x="255" y="626"/><line style="stroke:#181818;stroke-width:0.5;" x1="255" x2="387" y1="653.6094" y2="653.6094"/><text fill="#000000" font-family="sans-serif" font-size="14" lengthAdjust="spacing" textLength="112" x="265" y="645.5332">AULAS_ABIERTO</text></g><g id="SISTEMA_DISPONIBLE"><rect fill="#F1F1F1" height="50" rx="12.5" ry="12.5" style="stroke:#181818;stroke-width:0.5;" width="167" x="505.5" y="626"/><line style="stroke:#181818;stroke-width:0.5;" x1="505.5" x2="672.5" y1="653.6094" y2="653.6094"/><text fill="#000000" font-family="sans-serif" font-size="14" lengthAdjust="spacing" textLength="147" x="515.5" y="645.5332">SISTEMA_DISPONIBLE</text></g><!--link abrirAulas to AULA_ABIERTA--><g id="link_abrirAulas_AULA_ABIERTA"><path d="M116.66,442.68 C57.98,504.89 6,560 6,560 C6,560 6,596 6,596 C6,596 29.0819,608.5981 55.4419,622.9681 " fill="none" id="abrirAulas-to-AULA_ABIERTA" style="stroke:#008000;stroke-width:1.0;"/><polygon fill="#008000" points="60.71,625.84,54.7225,618.0202,56.3199,623.4468,50.8933,625.0443,60.71,625.84" style="stroke:#008000;stroke-width:1.0;"/><path d="M11,565 L11,591 L98,591 L98,575 L88,565 L11,565 " fill="#FEFFDD" style="stroke:#181818;stroke-width:0.5;"/><path d="M88,565 L88,575 L98,575 L88,565 " fill="#FEFFDD" style="stroke:#181818;stroke-width:0.5;"/><text fill="#000000" font-family="sans-serif" font-size="13" lengthAdjust="spacing" textLength="66" x="17" y="583.4951">editarAula()</text></g><!--link abrirAulas to AULA_ABIERTA--><g id="link_abrirAulas_AULA_ABIERTA"><path d="M160.13,530.13 C142.05,569.44 128.6278,598.6292 118.5978,620.4292 " fill="none" id="abrirAulas-to-AULA_ABIERTA-1" style="stroke:#008000;stroke-width:1.0;"/><polygon fill="#008000" points="116.09,625.88,123.4856,619.3758,118.1799,621.3377,116.2179,616.032,116.09,625.88" style="stroke:#008000;stroke-width:1.0;"/><path d="M148,565 L148,591 L232,591 L232,575 L222,565 L148,565 " fill="#FEFFDD" style="stroke:#181818;stroke-width:0.5;"/><path d="M222,565 L222,575 L232,575 L222,565 " fill="#FEFFDD" style="stroke:#181818;stroke-width:0.5;"/><text fill="#000000" font-family="sans-serif" font-size="13" lengthAdjust="spacing" textLength="63" x="154" y="583.4951">crearAula()</text></g><!--link abrirAulas to AULAS_ABIERTO--><g id="link_abrirAulas_AULAS_ABIERTO"><path d="M277.31,530.01 C277.12,548.47 277,560 277,560 C277,560 277,596 277,596 C277,596 285.8078,606.8204 297.5278,621.1904 " fill="none" id="abrirAulas-to-AULAS_ABIERTO" style="stroke:#008000;stroke-width:1.0;"/><polygon fill="#008000" points="301.32,625.84,298.7315,616.3374,298.1598,621.9653,292.5319,621.3937,301.32,625.84" style="stroke:#008000;stroke-width:1.0;"/><path d="M282,565 L282,591 L382,591 L382,575 L372,565 L282,565 " fill="#FEFFDD" style="stroke:#181818;stroke-width:0.5;"/><path d="M372,565 L372,575 L382,575 L372,565 " fill="#FEFFDD" style="stroke:#181818;stroke-width:0.5;"/><text fill="#000000" font-family="sans-serif" font-size="13" lengthAdjust="spacing" textLength="79" x="288" y="583.4951">eliminarAula()</text></g><!--link abrirAulas to AULAS_ABIERTO--><g id="link_abrirAulas_AULAS_ABIERTO"><path d="M379.54,530.01 C386.59,548.47 391,560 391,560 C391,560 391,596 391,596 C391,596 375.7019,607.8067 357.0619,622.1767 " fill="none" id="abrirAulas-to-AULAS_ABIERTO-1" style="stroke:#008000;stroke-width:1.0;"/><polygon fill="#008000" points="352.31,625.84,361.88,623.5129,356.2699,622.7872,356.9956,617.1771,352.31,625.84" style="stroke:#008000;stroke-width:1.0;"/><path d="M396,565 L396,591 L505,591 L505,575 L495,565 L396,565 " fill="#FEFFDD" style="stroke:#181818;stroke-width:0.5;"/><path d="M495,565 L495,575 L505,575 L495,565 " fill="#FEFFDD" style="stroke:#181818;stroke-width:0.5;"/><text fill="#000000" font-family="sans-serif" font-size="13" lengthAdjust="spacing" textLength="88" x="402" y="583.4951">importarAulas()</text></g><!--link abrirAulas to SISTEMA_DISPONIBLE--><g id="link_abrirAulas_SISTEMA_DISPONIBLE"><path d="M443.02,468.48 C484.71,519.36 518,560 518,560 C518,560 545.224,594.5092 566.254,621.1692 " fill="none" id="abrirAulas-to-SISTEMA_DISPONIBLE" style="stroke:#008000;stroke-width:1.0;"/><polygon fill="#008000" points="569.97,625.88,567.5366,616.3365,566.8734,621.9543,561.2555,621.2911,569.97,625.88" style="stroke:#008000;stroke-width:1.0;"/><path d="M550,565 L550,591 L681,591 L681,575 L671,565 L550,565 " fill="#FEFFDD" style="stroke:#181818;stroke-width:0.5;"/><path d="M671,565 L671,575 L681,575 L671,565 " fill="#FEFFDD" style="stroke:#181818;stroke-width:0.5;"/><text fill="#000000" font-family="sans-serif" font-size="13" lengthAdjust="spacing" textLength="110" x="556" y="583.4951">completarGestion()</text></g><!--SRC=[hLJHQi8m57tFLmJteaFP3uXGjsuKTChgdaGaRQuIJ9EGre6CmRvblx1Fs9_iItQRjjWMT1FM5agISyyvzzuawKuemonBg1GAieC1QhGyv0D2qenbG5baXVNsagKKlyvnsErrw6k5wk2BorETPfOfhYS2vvjhzqBMryZoUaK7owkj1L2hmQWLIudI6AjLxcn7Xj78uubG8iTmROStqOYcMefO8DQPeYntHK1nwaBn8QH5MjTh-MdBXJWB2ND2na8A2kEbO-5GQds_Vz3RhqykjhgFeabaeKzZPbWiEECvBcQSER33-bniq362ZMJ8rwUPCBhYSv0vs4IWaoetIpVEfosqJs1Y2wme05LxU3a50ocmXYNo58Qxtnc4I8os5UPOS4AQ5Rsas6Twsqp_V6CAB6T_yuGRy18ZU-Kwdny4RR292cgvln5IEoXr5UzvugszSU0_BRocN57fFABRgpc-cCSr_nAQiEIPjVoKk-CVgAejKbuKltE5GRZmfzxwBWZdiyTWFF5REUh4I4361qWph7sTymS0]--></g></svg>