<?xml version="1.0" encoding="us-ascii" standalone="no"?><svg xmlns="http://www.w3.org/2000/svg" xmlns:xlink="http://www.w3.org/1999/xlink" contentStyleType="text/css" height="900px" preserveAspectRatio="none" style="width:724px;height:900px;background:#FFFFFF;" version="1.1" viewBox="0 0 724 900" width="724px" zoomAndPan="magnify"><defs/><g><path d="M19.5,7 L698.5,7 A12.5,12.5 0 0 1 711,19.5 L711,34.6094 L7,34.6094 L7,19.5 A12.5,12.5 0 0 1 19.5,7 " fill="#F1F1F1" style="stroke:#F1F1F1;stroke-width:1.0;"/><rect fill="none" height="740.6094" rx="12.5" ry="12.5" style="stroke:#181818;stroke-width:0.5;" width="704" x="7" y="7"/><line style="stroke:#181818;stroke-width:0.5;" x1="7" x2="711" y1="34.6094" y2="34.6094"/><text fill="#000000" font-family="sans-serif" font-size="14" lengthAdjust="spacing" textLength="191" x="263.5" y="26.5332">comunicarIncidenciasHorario()</text><g id="comunicarIncidenciasHorario.SeleccionandoExamen"><rect fill="#F1F1F1" height="50" rx="12.5" ry="12.5" style="stroke:#181818;stroke-width:0.5;" width="50" x="179" y="137.6094"/><line style="stroke:#181818;stroke-width:0.5;" x1="179" x2="229" y1="165.2188" y2="165.2188"/><text fill="#000000" font-family="sans-serif" font-size="14" lengthAdjust="spacing" textLength="4" x="202" y="157.1426">&#160;</text></g><g id="comunicarIncidenciasHorario.DescribiendoIncidencia"><rect fill="#F1F1F1" height="50" rx="12.5" ry="12.5" style="stroke:#181818;stroke-width:0.5;" width="50" x="179" y="341.6094"/><line style="stroke:#181818;stroke-width:0.5;" x1="179" x2="229" y1="369.2188" y2="369.2188"/><text fill="#000000" font-family="sans-serif" font-size="14" lengthAdjust="spacing" textLength="4" x="202" y="361.1426">&#160;</text></g><g id="comunicarIncidenciasHorario.EnviandoReporte"><rect fill="#F1F1F1" height="50" rx="12.5" ry="12.5" style="stroke:#181818;stroke-width:0.5;" width="50" x="179" y="528.6094"/><line style="stroke:#181818;stroke-width:0.5;" x1="179" x2="229" y1="556.2188" y2="556.2188"/><text fill="#000000" font-family="sans-serif" font-size="14" lengthAdjust="spacing" textLength="4" x="202" y="548.1426">&#160;</text></g><ellipse cx="204" cy="55.6094" fill="#222222" rx="10" ry="10" style="stroke:#222222;stroke-width:1.0;"/><ellipse cx="204" cy="726.6094" fill="none" rx="11" ry="11" style="stroke:#222222;stroke-width:1.0;"/><ellipse cx="204" cy="726.6094" fill="#222222" rx="6" ry="6" style="stroke:#222222;stroke-width:1.0;"/><!--link *start*comunicarIncidenciasHorario to SeleccionandoExamen--><g id="link_*start*comunicarIncidenciasHorario_SeleccionandoExamen"><path d="M204,65.9294 C204,81.7894 204,108.5194 204,131.2494 " fill="none" id="*start*comunicarIncidenciasHorario-to-SeleccionandoExamen" style="stroke:#008000;stroke-width:1.0;"/><polygon fill="#008000" points="204,137.2494,208,128.2494,204,132.2494,200,128.2494,204,137.2494" style="stroke:#008000;stroke-width:1.0;"/><path d="M209,88.6094 L209,114.6094 L454,114.6094 L454,98.6094 L444,88.6094 L209,88.6094 " fill="#FEFFDD" style="stroke:#181818;stroke-width:0.5;"/><path d="M444,88.6094 L444,98.6094 L454,98.6094 L444,88.6094 " fill="#FEFFDD" style="stroke:#181818;stroke-width:0.5;"/><text fill="#000000" font-family="sans-serif" font-size="13" font-weight="bold" lengthAdjust="spacing" textLength="53" x="215" y="107.1045">Profesor</text><text fill="#000000" font-family="sans-serif" font-size="13" lengthAdjust="spacing" textLength="167" x="272" y="107.1045">solicita comunicar incidencia</text></g><!--link SeleccionandoExamen to DescribiendoIncidencia--><g id="link_SeleccionandoExamen_DescribiendoIncidencia"><path d="M204,187.9794 C204,226.9094 204,296.6894 204,335.4694 " fill="none" id="SeleccionandoExamen-to-DescribiendoIncidencia" style="stroke:#008000;stroke-width:1.0;"/><polygon fill="#008000" points="204,341.4694,208,332.4694,204,336.4694,200,332.4694,204,341.4694" style="stroke:#008000;stroke-width:1.0;"/><path d="M209,210.6094 L209,318.6094 L491,318.6094 L491,220.6094 L481,210.6094 L209,210.6094 " fill="#FEFFDD" style="stroke:#181818;stroke-width:0.5;"/><path d="M481,210.6094 L481,220.6094 L491,220.6094 L481,210.6094 " fill="#FEFFDD" style="stroke:#181818;stroke-width:0.5;"/><text fill="#000000" font-family="sans-serif" font-size="13" font-weight="bold" lengthAdjust="spacing" textLength="51" x="215" y="229.1045">Sistema</text><text fill="#000000" font-family="sans-serif" font-size="13" lengthAdjust="spacing" textLength="158" x="270" y="229.1045">presenta interfaz de reporte</text><text fill="#000000" font-family="sans-serif" font-size="13" lengthAdjust="spacing" textLength="261" x="215" y="245.4561">&#8226; Permite seleccionar examen con incidencia</text><text fill="#000000" font-family="sans-serif" font-size="13" lengthAdjust="spacing" textLength="243" x="215" y="261.8076">&#8226; Muestra datos del examen seleccionado</text><text fill="#000000" font-family="sans-serif" font-size="13" lengthAdjust="spacing" textLength="229" x="215" y="278.1592">&#8226; Permite seleccionar tipo de incidencia</text><text fill="#000000" font-family="sans-serif" font-size="13" lengthAdjust="spacing" textLength="218" x="215" y="294.5107">&#8226; Permite solicitar describir incidencia</text><text fill="#000000" font-family="sans-serif" font-size="13" lengthAdjust="spacing" textLength="200" x="215" y="310.8623">&#8226; Permite solicitar cancelar reporte</text></g><!--link DescribiendoIncidencia to EnviandoReporte--><g id="link_DescribiendoIncidencia_EnviandoReporte"><path d="M204,391.7994 C204,427.2494 204,486.9594 204,522.4194 " fill="none" id="DescribiendoIncidencia-to-EnviandoReporte" style="stroke:#008000;stroke-width:1.0;"/><polygon fill="#008000" points="204,528.4194,208,519.4194,204,523.4194,200,519.4194,204,528.4194" style="stroke:#008000;stroke-width:1.0;"/><path d="M209,414.6094 L209,505.6094 L504,505.6094 L504,424.6094 L494,414.6094 L209,414.6094 " fill="#FEFFDD" style="stroke:#181818;stroke-width:0.5;"/><path d="M494,414.6094 L494,424.6094 L504,424.6094 L494,414.6094 " fill="#FEFFDD" style="stroke:#181818;stroke-width:0.5;"/><text fill="#000000" font-family="sans-serif" font-size="13" font-weight="bold" lengthAdjust="spacing" textLength="53" x="215" y="433.1045">Profesor</text><text fill="#000000" font-family="sans-serif" font-size="13" lengthAdjust="spacing" textLength="217" x="272" y="433.1045">introduce descripci&#243;n de la incidencia</text><text fill="#000000" font-family="sans-serif" font-size="13" font-weight="bold" lengthAdjust="spacing" textLength="51" x="215" y="449.4561">Sistema</text><text fill="#000000" font-family="sans-serif" font-size="13" lengthAdjust="spacing" textLength="180" x="270" y="449.4561">visualiza y valida la descripci&#243;n</text><text fill="#000000" font-family="sans-serif" font-size="13" font-weight="bold" lengthAdjust="spacing" textLength="51" x="215" y="465.8076">Sistema</text><text fill="#000000" font-family="sans-serif" font-size="13" lengthAdjust="spacing" textLength="206" x="270" y="465.8076">permite solicitar adjuntar evidencias</text><text fill="#000000" font-family="sans-serif" font-size="13" font-weight="bold" lengthAdjust="spacing" textLength="51" x="215" y="482.1592">Sistema</text><text fill="#000000" font-family="sans-serif" font-size="13" lengthAdjust="spacing" textLength="173" x="270" y="482.1592">permite solicitar enviar reporte</text><text fill="#000000" font-family="sans-serif" font-size="13" font-weight="bold" lengthAdjust="spacing" textLength="51" x="215" y="498.5107">Sistema</text><text fill="#000000" font-family="sans-serif" font-size="13" lengthAdjust="spacing" textLength="145" x="270" y="498.5107">permite solicitar cancelar</text></g><!--link EnviandoReporte to *end*comunicarIncidenciasHorario--><g id="link_EnviandoReporte_*end*comunicarIncidenciasHorario"><path d="M178.92,560.2694 C128.15,571.7394 18,596.6094 18,596.6094 C18,596.6094 18,697.6094 18,697.6094 C18,697.6094 147.5667,717.1171 187.2667,723.0871 " fill="none" id="EnviandoReporte-to-*end*comunicarIncidenciasHorario" style="stroke:#008000;stroke-width:1.0;"/><polygon fill="#008000" points="193.2,723.9794,184.8949,718.6855,188.2556,723.2358,183.7052,726.5965,193.2,723.9794" style="stroke:#008000;stroke-width:1.0;"/><path d="M23,601.6094 L23,692.6094 L364,692.6094 L364,611.6094 L354,601.6094 L23,601.6094 " fill="#FEFFDD" style="stroke:#181818;stroke-width:0.5;"/><path d="M354,601.6094 L354,611.6094 L364,611.6094 L354,601.6094 " fill="#FEFFDD" style="stroke:#181818;stroke-width:0.5;"/><text fill="#000000" font-family="sans-serif" font-size="13" font-weight="bold" lengthAdjust="spacing" textLength="53" x="29" y="620.1045">Profesor</text><text fill="#000000" font-family="sans-serif" font-size="13" lengthAdjust="spacing" textLength="122" x="86" y="620.1045">solicita enviar reporte</text><text fill="#000000" font-family="sans-serif" font-size="13" font-weight="bold" lengthAdjust="spacing" textLength="51" x="29" y="636.4561">Sistema</text><text fill="#000000" font-family="sans-serif" font-size="13" lengthAdjust="spacing" textLength="169" x="84" y="636.4561">visualiza y env&#237;a la incidencia</text><text fill="#000000" font-family="sans-serif" font-size="13" font-weight="bold" lengthAdjust="spacing" textLength="51" x="29" y="652.8076">Sistema</text><text fill="#000000" font-family="sans-serif" font-size="13" lengthAdjust="spacing" textLength="201" x="84" y="652.8076">visualiza y notifica al administrador</text><text fill="#000000" font-family="sans-serif" font-size="13" font-weight="bold" lengthAdjust="spacing" textLength="51" x="29" y="669.1592">Sistema</text><text fill="#000000" font-family="sans-serif" font-size="13" lengthAdjust="spacing" textLength="192" x="84" y="669.1592">visualiza y confirma env&#237;o exitoso</text><text fill="#000000" font-family="sans-serif" font-size="13" font-weight="bold" lengthAdjust="spacing" textLength="51" x="29" y="685.5107">Sistema</text><text fill="#000000" font-family="sans-serif" font-size="13" lengthAdjust="spacing" textLength="265" x="84" y="685.5107">visualiza y registra la incidencia en el sistema</text></g><!--link EnviandoReporte to *end*comunicarIncidenciasHorario--><g id="link_EnviandoReporte_*end*comunicarIncidenciasHorario"><path d="M229.06,560.9894 C275.22,572.7394 369,596.6094 369,596.6094 C369,596.6094 369,697.6094 369,697.6094 C369,697.6094 257.4454,716.5352 220.7454,722.7652 " fill="none" id="EnviandoReporte-to-*end*comunicarIncidenciasHorario-1" style="stroke:#FF0000;stroke-width:1.0;"/><polygon fill="#FF0000" points="214.83,723.7694,224.3725,726.2067,219.7595,722.9326,223.0336,718.3195,214.83,723.7694" style="stroke:#FF0000;stroke-width:1.0;"/><path d="M374,626.1094 L374,668.1094 L702,668.1094 L702,636.1094 L692,626.1094 L374,626.1094 " fill="#FEFFDD" style="stroke:#181818;stroke-width:0.5;"/><path d="M692,626.1094 L692,636.1094 L702,636.1094 L692,626.1094 " fill="#FEFFDD" style="stroke:#181818;stroke-width:0.5;"/><text fill="#000000" font-family="sans-serif" font-size="13" font-weight="bold" lengthAdjust="spacing" textLength="53" x="380" y="644.6045">Profesor</text><text fill="#000000" font-family="sans-serif" font-size="13" lengthAdjust="spacing" textLength="138" x="437" y="644.6045">solicita cancelar reporte</text><text fill="#000000" font-family="sans-serif" font-size="13" font-weight="bold" lengthAdjust="spacing" textLength="51" x="380" y="660.9561">Sistema</text><text fill="#000000" font-family="sans-serif" font-size="13" lengthAdjust="spacing" textLength="252" x="435" y="660.9561">visualiza y descarta el reporte de incidencia</text></g><g id="SISTEMA_DISPONIBLE"><rect fill="#F1F1F1" height="50" rx="12.5" ry="12.5" style="stroke:#181818;stroke-width:0.5;" width="167" x="275.5" y="844"/><line style="stroke:#181818;stroke-width:0.5;" x1="275.5" x2="442.5" y1="871.6094" y2="871.6094"/><text fill="#000000" font-family="sans-serif" font-size="14" lengthAdjust="spacing" textLength="147" x="285.5" y="863.5332">SISTEMA_DISPONIBLE</text></g><!--link comunicarIncidenciasHorario to SISTEMA_DISPONIBLE--><g id="link_comunicarIncidenciasHorario_SISTEMA_DISPONIBLE"><path d="M255.33,748.3 C250.12,766.86 247,778 247,778 C247,778 247,814 247,814 C247,814 273.6749,826.8653 303.4949,841.2353 " fill="none" id="comunicarIncidenciasHorario-to-SISTEMA_DISPONIBLE" style="stroke:#008000;stroke-width:1.0;"/><polygon fill="#008000" points="308.9,843.84,302.5287,836.3295,304.3957,841.6694,299.0558,843.5364,308.9,843.84" style="stroke:#008000;stroke-width:1.0;"/><path d="M252,783 L252,809 L420,809 L420,793 L410,783 L252,783 " fill="#FEFFDD" style="stroke:#181818;stroke-width:0.5;"/><path d="M410,783 L410,793 L420,793 L410,783 " fill="#FEFFDD" style="stroke:#181818;stroke-width:0.5;"/><text fill="#000000" font-family="sans-serif" font-size="13" lengthAdjust="spacing" textLength="147" x="258" y="801.4951">completarComunicacion()</text></g><!--link comunicarIncidenciasHorario to SISTEMA_DISPONIBLE--><g id="link_comunicarIncidenciasHorario_SISTEMA_DISPONIBLE"><path d="M423.8,748.3 C427.05,766.86 429,778 429,778 C429,778 429,814 429,814 C429,814 413.7019,825.8067 395.0619,840.1767 " fill="none" id="comunicarIncidenciasHorario-to-SISTEMA_DISPONIBLE-1" style="stroke:#FF0000;stroke-width:1.0;"/><polygon fill="#FF0000" points="390.31,843.84,399.88,841.5129,394.2699,840.7872,394.9956,835.1771,390.31,843.84" style="stroke:#FF0000;stroke-width:1.0;"/><path d="M434,783 L434,809 L588,809 L588,793 L578,783 L434,783 " fill="#FEFFDD" style="stroke:#181818;stroke-width:0.5;"/><path d="M578,783 L578,793 L588,793 L578,783 " fill="#FEFFDD" style="stroke:#181818;stroke-width:0.5;"/><text fill="#000000" font-family="sans-serif" font-size="13" lengthAdjust="spacing" textLength="133" x="440" y="801.4951">cancelar comunicaci&#243;n</text></g><!--SRC=[bLHRQXj14FpVKmpoZnqmle0H9B4WWZWHKVwC2QsPbkbuTcRfcHMHGo1doN- -SWJV92T9ZxLloIi7WPXbgwkgQxett9ChW25NbXp6RO6gy7QR7h8iH8YejCzBHnfuxZGPb3y8xpm3arSGr6Ja_UdPH7slUIRo4_mIBMfDte4pVlODSdHzm1K6pRGYbFSjPHypSnjAzP-my1p5wishMtL-StB7YExsV7fGnNaXy2vrUfzThgOBzciCdYylLbCLl2LD4Tfs5RNYuaMbyYmxGDmJViRzK7j98M8EJz85Oq0dqkGYyXeUb475LMT_V_vI2-ISf3uqsgnm9ws5i-CpeQzB39516OW-29MjiMsvyS_oHYfyqX-GDj0g9XRChb4-3jNWD5evr4srSHwEgvVeyAv7hr4YP6zAZPM_GjFZ7vSQij0rEhY23OKIB3s0sggD70maV9TYxzBskWJpjNJfW9jw3OuNOMgk3UOelewo4-4WdrvsiXOl7Fjn8zry1Fdu6rwUf-ZJMXPAWPMCSdAKnjDu7YkIkLuJvx1JypB29DFinqeOxvwO-yw4GCaAX5tHU6oCvlz2snli4Njfc81JqhQ63_QiyVOZoyO-khtlt7pvUNRz-ilLVBdu-67-vlsiRrru2eioEMyhmhJcfsUT78ueLPaSrQcJq8rEMff6vXy0]--></g></svg>