<?xml version="1.0" encoding="us-ascii" standalone="no"?><svg xmlns="http://www.w3.org/2000/svg" xmlns:xlink="http://www.w3.org/1999/xlink" contentStyleType="text/css" height="331px" preserveAspectRatio="none" style="width:621px;height:331px;background:#FFFFFF;" version="1.1" viewBox="0 0 621 331" width="621px" zoomAndPan="magnify"><defs/><g><!--cluster Administraci?n de Profesores--><g id="cluster_Administraci&#243;n de Profesores"><path d="M8.5,6 L217.5,6 A3.75,3.75 0 0 1 220,8.5 L227,29.6094 L611.5,29.6094 A2.5,2.5 0 0 1 614,32.1094 L614,321.5 A2.5,2.5 0 0 1 611.5,324 L8.5,324 A2.5,2.5 0 0 1 6,321.5 L6,8.5 A2.5,2.5 0 0 1 8.5,6 " fill="none" style="stroke:#000000;stroke-width:1.5;"/><line style="stroke:#000000;stroke-width:1.5;" x1="6" x2="227" y1="29.6094" y2="29.6094"/><text fill="#000000" font-family="sans-serif" font-size="14" font-weight="bold" lengthAdjust="spacing" textLength="208" x="10" y="22.5332">Administraci&#243;n de Profesores</text></g><!--entity admin--><g id="elem_admin"><ellipse cx="285.5" cy="149.5" fill="#F1F1F1" rx="8" ry="8" style="stroke:#181818;stroke-width:0.5;"/><path d="M285.5,157.5 L285.5,184.5 M272.5,165.5 L298.5,165.5 M285.5,184.5 L272.5,199.5 M285.5,184.5 L298.5,199.5 " fill="none" style="stroke:#181818;stroke-width:0.5;"/><text fill="#000000" font-family="sans-serif" font-size="14" lengthAdjust="spacing" textLength="87" x="242" y="215.5332">Administrador</text></g><g id="elem_abrirProfesores"><ellipse cx="101.5069" cy="59.9014" fill="#F1F1F1" rx="77.5069" ry="17.9014" style="stroke:#181818;stroke-width:0.5;"/><text fill="#000000" font-family="sans-serif" font-size="14" lengthAdjust="spacing" textLength="108" x="45.3567" y="64.216">abrirProfesores()</text></g><g id="elem_crearProfesor"><ellipse cx="101.376" cy="220.0752" fill="#F1F1F1" rx="73.376" ry="17.0752" style="stroke:#181818;stroke-width:0.5;"/><text fill="#000000" font-family="sans-serif" font-size="14" lengthAdjust="spacing" textLength="97" x="49.876" y="224.5918">crearProfesor()</text></g><g id="elem_editarProfesor"><ellipse cx="101.481" cy="289.7962" fill="#F1F1F1" rx="74.481" ry="17.2962" style="stroke:#181818;stroke-width:0.5;"/><text fill="#000000" font-family="sans-serif" font-size="14" lengthAdjust="spacing" textLength="100" x="48.481" y="294.3128">editarProfesor()</text></g><g id="elem_eliminarProfesor"><ellipse cx="101.4775" cy="148.7955" fill="#F1F1F1" rx="79.4775" ry="18.2955" style="stroke:#181818;stroke-width:0.5;"/><text fill="#000000" font-family="sans-serif" font-size="14" lengthAdjust="spacing" textLength="113" x="43.756" y="152.8709">eliminarProfesor()</text></g><g id="elem_importarProfesores"><ellipse cx="493.9661" cy="257.7932" fill="#F1F1F1" rx="86.9661" ry="19.7932" style="stroke:#181818;stroke-width:0.5;"/><text fill="#000000" font-family="sans-serif" font-size="14" lengthAdjust="spacing" textLength="131" x="428.4661" y="261.5217">importarProfesores()</text></g><g id="elem_listarConflictosExamenes"><ellipse cx="494.2412" cy="179.9482" fill="#F1F1F1" rx="102.7412" ry="22.9482" style="stroke:#181818;stroke-width:0.5;"/><text fill="#000000" font-family="sans-serif" font-size="14" lengthAdjust="spacing" textLength="167" x="410.7412" y="183.6768">listarConflictosExamenes()</text></g><g id="elem_asignarProfesorAExamen"><ellipse cx="494.0894" cy="99.2179" fill="#F1F1F1" rx="104.0894" ry="23.2179" style="stroke:#181818;stroke-width:0.5;"/><text fill="#000000" font-family="sans-serif" font-size="14" lengthAdjust="spacing" textLength="170" x="409.0894" y="102.9464">asignarProfesorAExamen()</text></g><!--link admin to importarProfesores--><g id="link_admin_importarProfesores"><path d="M329.25,196.69 C347.88,203.92 370,212.44 390,220 C408.54,227 423.3889,232.5187 441.1689,239.0587 " fill="none" id="admin-to-importarProfesores" style="stroke:#181818;stroke-width:1.0;"/><polygon fill="#181818" points="446.8,241.13,439.7342,234.269,442.1074,239.4039,436.9724,241.7771,446.8,241.13" style="stroke:#181818;stroke-width:1.0;"/></g><!--link admin to listarConflictosExamenes--><g id="link_admin_listarConflictosExamenes"><path d="M329.04,180 C347.22,180 363.3,180 385.28,180 " fill="none" id="admin-to-listarConflictosExamenes" style="stroke:#181818;stroke-width:1.0;"/><polygon fill="#181818" points="391.28,180,382.28,176,386.28,180,382.28,184,391.28,180" style="stroke:#181818;stroke-width:1.0;"/></g><!--link admin to asignarProfesorAExamen--><g id="link_admin_asignarProfesorAExamen"><path d="M329.03,163.08 C347.72,155.66 369.94,146.87 390,139 C406.7,132.45 419.3469,127.5219 435.7769,121.1419 " fill="none" id="admin-to-asignarProfesorAExamen" style="stroke:#181818;stroke-width:1.0;"/><polygon fill="#181818" points="441.37,118.97,431.5324,118.4991,436.7091,120.7799,434.4283,125.9566,441.37,118.97" style="stroke:#181818;stroke-width:1.0;"/></g><!--reverse link abrirProfesores to admin--><g id="link_abrirProfesores_admin"><path d="M133.1995,80.2423 C162.6895,99.6823 206.52,128.59 241.77,151.82 " fill="none" id="abrirProfesores-backto-admin" style="stroke:#181818;stroke-width:1.0;"/><polygon fill="#181818" points="128.19,76.94,133.5027,85.2331,132.3646,79.6919,137.9057,78.5538,128.19,76.94" style="stroke:#181818;stroke-width:1.0;"/></g><!--reverse link crearProfesor to admin--><g id="link_crearProfesor_admin"><path d="M161.4902,207.0324 C188.9802,200.9924 216.22,195.01 241.99,189.34 " fill="none" id="crearProfesor-backto-admin" style="stroke:#181818;stroke-width:1.0;"/><polygon fill="#181818" points="155.63,208.32,165.2787,210.2954,160.5135,207.247,163.5619,202.4818,155.63,208.32" style="stroke:#181818;stroke-width:1.0;"/></g><!--reverse link editarProfesor to admin--><g id="link_editarProfesor_admin"><path d="M145.0612,272.2994 C158.4012,266.3594 167.9,261.59 181,254 C201.83,241.93 223.69,226.72 241.92,213.23 " fill="none" id="editarProfesor-backto-admin" style="stroke:#181818;stroke-width:1.0;"/><polygon fill="#181818" points="139.58,274.74,149.4289,274.7332,144.1476,272.7061,146.1747,267.4249,139.58,274.74" style="stroke:#181818;stroke-width:1.0;"/></g><!--reverse link eliminarProfesor to admin--><g id="link_eliminarProfesor_admin"><path d="M172.0649,160.8471 C197.0849,165.1071 219.22,168.88 241.73,172.71 " fill="none" id="eliminarProfesor-backto-admin" style="stroke:#181818;stroke-width:1.0;"/><polygon fill="#181818" points="166.15,159.84,174.3509,165.2939,171.0791,160.6792,175.6937,157.4074,166.15,159.84" style="stroke:#181818;stroke-width:1.0;"/></g><!--link eliminarProfesor to abrirProfesores--><g id="link_eliminarProfesor_abrirProfesores"><path d="M101.5,130.13 C101.5,114.82 101.5,99.37 101.5,84.24 " fill="none" id="eliminarProfesor-to-abrirProfesores" style="stroke:#181818;stroke-width:1.0;stroke-dasharray:7.0,7.0;"/><polygon fill="#181818" points="101.5,78.24,97.5,87.24,101.5,83.24,105.5,87.24,101.5,78.24" style="stroke:#181818;stroke-width:1.0;"/><text fill="#000000" font-family="sans-serif" font-size="13" lengthAdjust="spacing" textLength="55" x="62" y="109.7451">&#171;include&#187;</text></g><!--SRC=[TLBBJSGm4BsxYb5ES0W5e2ZI2d6dXLbx4aOuzchibP0GLL42ZU5i8c8xMH_VPtxFbeO8qOFm-1x1i92Ex9rI5zGVE18q9pEnun05DV_-E304R-872bueDF2b5AI7Edh9nSPB0nW0PsJHN0Df30Hu5fQjngngAkpXiIaiMWZ_wPkXG6ev6OwLleHs1ijfpDfIWRM9fukNhEYwoXwUZONJfXEXl7WtM4w72w-VE95R_VV8kZq67hFfJejkkUOXDHVuLkgM2BHjVx10HjuR8vCSjqaTge2xjbt_GPdZXbU1PKGTp4RjkQT-zxUUeUlOQNirrFVg3m00]--></g></svg>