<?xml version="1.0" encoding="us-ascii" standalone="no"?><svg xmlns="http://www.w3.org/2000/svg" xmlns:xlink="http://www.w3.org/1999/xlink" contentStyleType="text/css" height="2648px" preserveAspectRatio="none" style="width:809px;height:2648px;background:#FFFFFF;" version="1.1" viewBox="0 0 809 2648" width="809px" zoomAndPan="magnify"><defs/><g><!--cluster Administraci?n Acad?mica--><g id="cluster_Administraci&#243;n Acad&#233;mica"><path d="M157,6 L341,6 A3.75,3.75 0 0 1 343.5,8.5 L350.5,29.6094 L363,29.6094 A2.5,2.5 0 0 1 365.5,32.1094 L365.5,766.5 A2.5,2.5 0 0 1 363,769 L157,769 A2.5,2.5 0 0 1 154.5,766.5 L154.5,8.5 A2.5,2.5 0 0 1 157,6 " fill="none" style="stroke:#000000;stroke-width:1.5;"/><line style="stroke:#000000;stroke-width:1.5;" x1="154.5" x2="350.5" y1="29.6094" y2="29.6094"/><text fill="#000000" font-family="sans-serif" font-size="14" font-weight="bold" lengthAdjust="spacing" textLength="183" x="158.5" y="22.5332">Administraci&#243;n Acad&#233;mica</text></g><!--cluster Administraci?n de Ex?menes--><g id="cluster_Administraci&#243;n de Ex&#225;menes"><path d="M157,793 L360,793 A3.75,3.75 0 0 1 362.5,795.5 L369.5,816.6094 L799.5,816.6094 A2.5,2.5 0 0 1 802,819.1094 L802,1255.5 A2.5,2.5 0 0 1 799.5,1258 L157,1258 A2.5,2.5 0 0 1 154.5,1255.5 L154.5,795.5 A2.5,2.5 0 0 1 157,793 " fill="none" style="stroke:#000000;stroke-width:1.5;"/><line style="stroke:#000000;stroke-width:1.5;" x1="154.5" x2="369.5" y1="816.6094" y2="816.6094"/><text fill="#000000" font-family="sans-serif" font-size="14" font-weight="bold" lengthAdjust="spacing" textLength="202" x="158.5" y="809.5332">Administraci&#243;n de Ex&#225;menes</text></g><!--cluster Administraci?n de Profesores--><g id="cluster_Administraci&#243;n de Profesores"><path d="M142.5,1282 L351.5,1282 A3.75,3.75 0 0 1 354,1284.5 L361,1305.6094 L377.5,1305.6094 A2.5,2.5 0 0 1 380,1308.1094 L380,1834.5 A2.5,2.5 0 0 1 377.5,1837 L142.5,1837 A2.5,2.5 0 0 1 140,1834.5 L140,1284.5 A2.5,2.5 0 0 1 142.5,1282 " fill="none" style="stroke:#000000;stroke-width:1.5;"/><line style="stroke:#000000;stroke-width:1.5;" x1="140" x2="361" y1="1305.6094" y2="1305.6094"/><text fill="#000000" font-family="sans-serif" font-size="14" font-weight="bold" lengthAdjust="spacing" textLength="208" x="144" y="1298.5332">Administraci&#243;n de Profesores</text></g><!--cluster Administraci?n de Aulas--><g id="cluster_Administraci&#243;n de Aulas"><path d="M171,1861 L340,1861 A3.75,3.75 0 0 1 342.5,1863.5 L349.5,1884.6094 L350,1884.6094 A2.5,2.5 0 0 1 352.5,1887.1094 L352.5,2229.5 A2.5,2.5 0 0 1 350,2232 L171,2232 A2.5,2.5 0 0 1 168.5,2229.5 L168.5,1863.5 A2.5,2.5 0 0 1 171,1861 " fill="none" style="stroke:#000000;stroke-width:1.5;"/><line style="stroke:#000000;stroke-width:1.5;" x1="168.5" x2="349.5" y1="1884.6094" y2="1884.6094"/><text fill="#000000" font-family="sans-serif" font-size="14" font-weight="bold" lengthAdjust="spacing" textLength="168" x="172.5" y="1877.5332">Administraci&#243;n de Aulas</text></g><!--cluster Administraci?n de Alumnos--><g id="cluster_Administraci&#243;n de Alumnos"><path d="M160,2256 L351,2256 A3.75,3.75 0 0 1 353.5,2258.5 L360.5,2279.6094 L361,2279.6094 A2.5,2.5 0 0 1 363.5,2282.1094 L363.5,2638.5 A2.5,2.5 0 0 1 361,2641 L160,2641 A2.5,2.5 0 0 1 157.5,2638.5 L157.5,2258.5 A2.5,2.5 0 0 1 160,2256 " fill="none" style="stroke:#000000;stroke-width:1.5;"/><line style="stroke:#000000;stroke-width:1.5;" x1="157.5" x2="360.5" y1="2279.6094" y2="2279.6094"/><text fill="#000000" font-family="sans-serif" font-size="14" font-weight="bold" lengthAdjust="spacing" textLength="190" x="161.5" y="2272.5332">Administraci&#243;n de Alumnos</text></g><g id="elem_abrirGrados"><ellipse cx="259.957" cy="144.7914" fill="#F1F1F1" rx="69.457" ry="16.2914" style="stroke:#181818;stroke-width:0.5;"/><text fill="#000000" font-family="sans-serif" font-size="14" lengthAdjust="spacing" textLength="86" x="213.957" y="149.308">abrirGrados()</text></g><g id="elem_crearGrado"><ellipse cx="259.9277" cy="377.0855" fill="#F1F1F1" rx="68.4277" ry="16.0855" style="stroke:#181818;stroke-width:0.5;"/><text fill="#000000" font-family="sans-serif" font-size="14" lengthAdjust="spacing" textLength="83" x="215.4277" y="381.6021">crearGrado()</text></g><g id="elem_editarGrado"><ellipse cx="259.957" cy="444.7914" fill="#F1F1F1" rx="69.457" ry="16.2914" style="stroke:#181818;stroke-width:0.5;"/><text fill="#000000" font-family="sans-serif" font-size="14" lengthAdjust="spacing" textLength="86" x="213.957" y="449.308">editarGrado()</text></g><g id="elem_eliminarGrado"><ellipse cx="260.1111" cy="59.2222" fill="#F1F1F1" rx="74.1111" ry="17.2222" style="stroke:#181818;stroke-width:0.5;"/><text fill="#000000" font-family="sans-serif" font-size="14" lengthAdjust="spacing" textLength="99" x="207.6111" y="63.7388">eliminarGrado()</text></g><g id="elem_importarGrados"><ellipse cx="259.896" cy="514.9792" fill="#F1F1F1" rx="77.896" ry="17.9792" style="stroke:#181818;stroke-width:0.5;"/><text fill="#000000" font-family="sans-serif" font-size="14" lengthAdjust="spacing" textLength="109" x="203.4355" y="519.2466">importarGrados()</text></g><g id="elem_abrirAsignaturas"><ellipse cx="259.8789" cy="306.8758" fill="#F1F1F1" rx="79.8789" ry="18.3758" style="stroke:#181818;stroke-width:0.5;"/><text fill="#000000" font-family="sans-serif" font-size="14" lengthAdjust="spacing" textLength="114" x="201.8373" y="310.9024">abrirAsignaturas()</text></g><g id="elem_crearAsignatura"><ellipse cx="260.1819" cy="586.1364" fill="#F1F1F1" rx="78.6819" ry="18.1364" style="stroke:#181818;stroke-width:0.5;"/><text fill="#000000" font-family="sans-serif" font-size="14" lengthAdjust="spacing" textLength="111" x="203.0947" y="590.3083">crearAsignatura()</text></g><g id="elem_editarAsignatura"><ellipse cx="259.8789" cy="657.8758" fill="#F1F1F1" rx="79.8789" ry="18.3758" style="stroke:#181818;stroke-width:0.5;"/><text fill="#000000" font-family="sans-serif" font-size="14" lengthAdjust="spacing" textLength="114" x="201.8373" y="661.9024">editarAsignatura()</text></g><g id="elem_eliminarAsignatura"><ellipse cx="259.7698" cy="215.954" fill="#F1F1F1" rx="85.2698" ry="19.454" style="stroke:#181818;stroke-width:0.5;"/><text fill="#000000" font-family="sans-serif" font-size="14" lengthAdjust="spacing" textLength="127" x="196.2698" y="219.6825">eliminarAsignatura()</text></g><g id="elem_importarAsignaturas"><ellipse cx="260.035" cy="731.807" fill="#F1F1F1" rx="89.535" ry="20.307" style="stroke:#181818;stroke-width:0.5;"/><text fill="#000000" font-family="sans-serif" font-size="14" lengthAdjust="spacing" textLength="137" x="191.535" y="735.5355">importarAsignaturas()</text></g><g id="elem_abrirExamenes"><ellipse cx="259.9763" cy="935.0953" fill="#F1F1F1" rx="75.9763" ry="17.5953" style="stroke:#181818;stroke-width:0.5;"/><text fill="#000000" font-family="sans-serif" font-size="14" lengthAdjust="spacing" textLength="104" x="205.0467" y="939.5957">abrirExamenes()</text></g><g id="elem_crearExamen"><ellipse cx="259.9259" cy="1004.7852" fill="#F1F1F1" rx="71.9259" ry="16.7852" style="stroke:#181818;stroke-width:0.5;"/><text fill="#000000" font-family="sans-serif" font-size="14" lengthAdjust="spacing" textLength="93" x="210.4259" y="1009.3018">crearExamen()</text></g><g id="elem_editarExamen"><ellipse cx="260.0109" cy="1074.0022" fill="#F1F1F1" rx="73.0109" ry="17.0022" style="stroke:#181818;stroke-width:0.5;"/><text fill="#000000" font-family="sans-serif" font-size="14" lengthAdjust="spacing" textLength="96" x="209.0109" y="1078.5188">editarExamen()</text></g><g id="elem_eliminarExamen"><ellipse cx="259.896" cy="846.9792" fill="#F1F1F1" rx="77.896" ry="17.9792" style="stroke:#181818;stroke-width:0.5;"/><text fill="#000000" font-family="sans-serif" font-size="14" lengthAdjust="spacing" textLength="109" x="203.4355" y="851.2466">eliminarExamen()</text></g><g id="elem_generarCalendario"><ellipse cx="260.1163" cy="1146.1233" fill="#F1F1F1" rx="86.1163" ry="19.6233" style="stroke:#181818;stroke-width:0.5;"/><text fill="#000000" font-family="sans-serif" font-size="14" lengthAdjust="spacing" textLength="129" x="195.6163" y="1149.8518">generarCalendario()</text></g><g id="elem_consultarCalendario"><ellipse cx="260.035" cy="1220.807" fill="#F1F1F1" rx="89.535" ry="20.307" style="stroke:#181818;stroke-width:0.5;"/><text fill="#000000" font-family="sans-serif" font-size="14" lengthAdjust="spacing" textLength="137" x="191.535" y="1224.5355">consultarCalendario()</text></g><g id="elem_descargarCalendarioExamenes"><ellipse cx="664.4823" cy="1187.1965" fill="#F1F1F1" rx="121.4823" ry="26.6965" style="stroke:#181818;stroke-width:0.5;"/><text fill="#000000" font-family="sans-serif" font-size="14" lengthAdjust="spacing" textLength="208" x="560.4823" y="1190.925">descargarCalendarioExamenes()</text></g><g id="elem_abrirProfesores"><ellipse cx="260.0069" cy="1425.9014" fill="#F1F1F1" rx="77.5069" ry="17.9014" style="stroke:#181818;stroke-width:0.5;"/><text fill="#000000" font-family="sans-serif" font-size="14" lengthAdjust="spacing" textLength="108" x="203.8567" y="1430.216">abrirProfesores()</text></g><g id="elem_crearProfesor"><ellipse cx="259.876" cy="1496.0752" fill="#F1F1F1" rx="73.376" ry="17.0752" style="stroke:#181818;stroke-width:0.5;"/><text fill="#000000" font-family="sans-serif" font-size="14" lengthAdjust="spacing" textLength="97" x="208.376" y="1500.5918">crearProfesor()</text></g><g id="elem_editarProfesor"><ellipse cx="259.981" cy="1565.7962" fill="#F1F1F1" rx="74.481" ry="17.2962" style="stroke:#181818;stroke-width:0.5;"/><text fill="#000000" font-family="sans-serif" font-size="14" lengthAdjust="spacing" textLength="100" x="206.981" y="1570.3128">editarProfesor()</text></g><g id="elem_eliminarProfesor"><ellipse cx="259.9775" cy="1336.7955" fill="#F1F1F1" rx="79.4775" ry="18.2955" style="stroke:#181818;stroke-width:0.5;"/><text fill="#000000" font-family="sans-serif" font-size="14" lengthAdjust="spacing" textLength="113" x="202.256" y="1340.8709">eliminarProfesor()</text></g><g id="elem_importarProfesores"><ellipse cx="259.9661" cy="1638.7932" fill="#F1F1F1" rx="86.9661" ry="19.7932" style="stroke:#181818;stroke-width:0.5;"/><text fill="#000000" font-family="sans-serif" font-size="14" lengthAdjust="spacing" textLength="131" x="194.4661" y="1642.5217">importarProfesores()</text></g><g id="elem_listarConflictosExamenes"><ellipse cx="260.2412" cy="1716.9482" fill="#F1F1F1" rx="102.7412" ry="22.9482" style="stroke:#181818;stroke-width:0.5;"/><text fill="#000000" font-family="sans-serif" font-size="14" lengthAdjust="spacing" textLength="167" x="176.7412" y="1720.6768">listarConflictosExamenes()</text></g><g id="elem_asignarProfesorAExamen"><ellipse cx="260.0894" cy="1798.2179" fill="#F1F1F1" rx="104.0894" ry="23.2179" style="stroke:#181818;stroke-width:0.5;"/><text fill="#000000" font-family="sans-serif" font-size="14" lengthAdjust="spacing" textLength="170" x="175.0894" y="1801.9464">asignarProfesorAExamen()</text></g><g id="elem_abrirAulas"><ellipse cx="260.102" cy="1999.1136" fill="#F1F1F1" rx="64.602" ry="15.6136" style="stroke:#181818;stroke-width:0.5;"/><text fill="#000000" font-family="sans-serif" font-size="14" lengthAdjust="spacing" textLength="74" x="220.102" y="2003.6302">abrirAulas()</text></g><g id="elem_crearAula"><ellipse cx="259.8852" cy="2065.0992" fill="#F1F1F1" rx="62.3852" ry="15.5992" style="stroke:#181818;stroke-width:0.5;"/><text fill="#000000" font-family="sans-serif" font-size="14" lengthAdjust="spacing" textLength="71" x="221.3852" y="2069.6158">crearAula()</text></g><g id="elem_editarAula"><ellipse cx="260.102" cy="2131.1136" fill="#F1F1F1" rx="64.602" ry="15.6136" style="stroke:#181818;stroke-width:0.5;"/><text fill="#000000" font-family="sans-serif" font-size="14" lengthAdjust="spacing" textLength="74" x="220.102" y="2135.6302">editarAula()</text></g><g id="elem_eliminarAula"><ellipse cx="259.8041" cy="1913.8608" fill="#F1F1F1" rx="69.8041" ry="16.3608" style="stroke:#181818;stroke-width:0.5;"/><text fill="#000000" font-family="sans-serif" font-size="14" lengthAdjust="spacing" textLength="87" x="213.3041" y="1918.3774">eliminarAula()</text></g><g id="elem_importarAulas"><ellipse cx="259.876" cy="2199.0752" fill="#F1F1F1" rx="73.376" ry="17.0752" style="stroke:#181818;stroke-width:0.5;"/><text fill="#000000" font-family="sans-serif" font-size="14" lengthAdjust="spacing" textLength="97" x="208.376" y="2203.5918">importarAulas()</text></g><g id="elem_abrirAlumnos"><ellipse cx="259.9259" cy="2396.7852" fill="#F1F1F1" rx="71.9259" ry="16.7852" style="stroke:#181818;stroke-width:0.5;"/><text fill="#000000" font-family="sans-serif" font-size="14" lengthAdjust="spacing" textLength="93" x="210.4259" y="2401.3018">abrirAlumnos()</text></g><g id="elem_crearAlumno"><ellipse cx="259.8567" cy="2466.0713" fill="#F1F1F1" rx="70.8567" ry="16.5713" style="stroke:#181818;stroke-width:0.5;"/><text fill="#000000" font-family="sans-serif" font-size="14" lengthAdjust="spacing" textLength="90" x="211.8567" y="2470.5879">crearAlumno()</text></g><g id="elem_editarAlumno"><ellipse cx="259.9259" cy="2534.7852" fill="#F1F1F1" rx="71.9259" ry="16.7852" style="stroke:#181818;stroke-width:0.5;"/><text fill="#000000" font-family="sans-serif" font-size="14" lengthAdjust="spacing" textLength="93" x="210.4259" y="2539.3018">editarAlumno()</text></g><g id="elem_eliminarAlumno"><ellipse cx="260.2363" cy="2310.2473" fill="#F1F1F1" rx="76.7363" ry="17.7473" style="stroke:#181818;stroke-width:0.5;"/><text fill="#000000" font-family="sans-serif" font-size="14" lengthAdjust="spacing" textLength="106" x="204.7006" y="2314.6555">eliminarAlumno()</text></g><g id="elem_importarAlumnos"><ellipse cx="260.1887" cy="2606.0377" fill="#F1F1F1" rx="80.6887" ry="18.5377" style="stroke:#181818;stroke-width:0.5;"/><text fill="#000000" font-family="sans-serif" font-size="14" lengthAdjust="spacing" textLength="116" x="201.5015" y="2609.9661">importarAlumnos()</text></g><!--entity admin--><g id="elem_admin"><ellipse cx="49.5" cy="1306.5" fill="#F1F1F1" rx="8" ry="8" style="stroke:#181818;stroke-width:0.5;"/><path d="M49.5,1314.5 L49.5,1341.5 M36.5,1322.5 L62.5,1322.5 M49.5,1341.5 L36.5,1356.5 M49.5,1341.5 L62.5,1356.5 " fill="none" style="stroke:#181818;stroke-width:0.5;"/><text fill="#000000" font-family="sans-serif" font-size="14" lengthAdjust="spacing" textLength="87" x="6" y="1372.5332">Administrador</text></g><!--link admin to abrirGrados--><g id="link_admin_abrirGrados"><path d="M52.95,1297.74 C61.66,1159.01 92.26,678.91 123,283 C126.59,236.74 102.19,214.55 132,179 C146.67,161.51 163.3709,153.6982 185.4509,149.1982 " fill="none" id="admin-to-abrirGrados" style="stroke:#181818;stroke-width:1.0;"/><polygon fill="#181818" points="191.33,148,181.7125,145.8779,186.4307,148.9985,183.3101,153.7167,191.33,148" style="stroke:#181818;stroke-width:1.0;"/></g><!--link admin to crearGrado--><g id="link_admin_crearGrado"><path d="M52.69,1297.87 C59.81,1175.11 84.05,786.71 123,467 C126.05,441.98 115.11,429.71 132,411 C147.52,393.8 164.8178,386.0833 187.1378,381.5933 " fill="none" id="admin-to-crearGrado" style="stroke:#181818;stroke-width:1.0;"/><polygon fill="#181818" points="193.02,380.41,183.4079,378.2635,188.1182,381.3961,184.9856,386.1064,193.02,380.41" style="stroke:#181818;stroke-width:1.0;"/></g><!--link admin to editarGrado--><g id="link_admin_editarGrado"><path d="M51.53,1297.82 C56.11,1137.98 76.8,540.8 132,479 C147.21,461.98 164.0335,454.281 186.0635,449.741 " fill="none" id="admin-to-editarGrado" style="stroke:#181818;stroke-width:1.0;"/><polygon fill="#181818" points="191.94,448.53,182.3179,446.4289,187.0429,449.5392,183.9326,454.2642,191.94,448.53" style="stroke:#181818;stroke-width:1.0;"/></g><!--link admin to eliminarGrado--><g id="link_admin_eliminarGrado"><path d="M52.69,1297.62 C60.8,1152.91 90.38,636.93 123,212 C126.45,167.07 105.25,147.27 132,111 C148.12,89.14 169.316,78.1404 194.256,70.7704 " fill="none" id="admin-to-eliminarGrado" style="stroke:#181818;stroke-width:1.0;"/><polygon fill="#181818" points="200.01,69.07,190.2454,67.7845,195.215,70.487,192.5125,75.4566,200.01,69.07" style="stroke:#181818;stroke-width:1.0;"/></g><!--link admin to importarGrados--><g id="link_admin_importarGrados"><path d="M51.93,1297.79 C57.78,1146.54 82.04,606.62 132,550 C145.69,534.48 159.7629,527.0303 179.7429,521.9803 " fill="none" id="admin-to-importarGrados" style="stroke:#181818;stroke-width:1.0;"/><polygon fill="#181818" points="185.56,520.51,175.8542,518.8374,180.7124,521.7352,177.8146,526.5935,185.56,520.51" style="stroke:#181818;stroke-width:1.0;"/></g><!--link admin to abrirAsignaturas--><g id="link_admin_abrirAsignaturas"><path d="M51.05,1297.75 C53.88,1122.49 69.13,416.82 132,343 C145.22,327.47 158.8024,319.9352 178.4624,314.6952 " fill="none" id="admin-to-abrirAsignaturas" style="stroke:#181818;stroke-width:1.0;"/><polygon fill="#181818" points="184.26,313.15,174.5334,311.6028,179.4287,314.4377,176.5938,319.3329,184.26,313.15" style="stroke:#181818;stroke-width:1.0;"/></g><!--link admin to crearAsignatura--><g id="link_admin_crearAsignatura"><path d="M52.37,1297.78 C59.49,1155.61 86.82,672.94 132,622 C145.84,606.4 160.0814,598.8435 180.1714,593.6435 " fill="none" id="admin-to-crearAsignatura" style="stroke:#181818;stroke-width:1.0;"/><polygon fill="#181818" points="185.98,592.14,176.2648,590.5228,181.1395,593.3929,178.2694,598.2676,185.98,592.14" style="stroke:#181818;stroke-width:1.0;"/></g><!--link admin to editarAsignatura--><g id="link_admin_editarAsignatura"><path d="M50.02,1297.69 C49.3,1172.37 53.58,785.18 132,694 C145.3,678.54 158.9024,671.0152 178.5624,665.7752 " fill="none" id="admin-to-editarAsignatura" style="stroke:#181818;stroke-width:1.0;"/><polygon fill="#181818" points="184.36,664.23,174.6334,662.6828,179.5287,665.5177,176.6938,670.4129,184.36,664.23" style="stroke:#181818;stroke-width:1.0;"/></g><!--link admin to eliminarAsignatura--><g id="link_admin_eliminarAsignatura"><path d="M52.25,1297.59 C58.47,1162.54 81.42,706.05 123,331 C125.97,304.2 115.56,292.38 132,271 C147.82,250.43 167.2166,239.3826 190.9266,231.2226 " fill="none" id="admin-to-eliminarAsignatura" style="stroke:#181818;stroke-width:1.0;"/><polygon fill="#181818" points="196.6,229.27,186.7882,228.4166,191.8722,230.8971,189.3916,235.9811,196.6,229.27" style="stroke:#181818;stroke-width:1.0;"/></g><!--link admin to importarAsignaturas--><g id="link_admin_importarAsignaturas"><path d="M52.45,1297.87 C58.46,1190.41 79.51,893.35 132,813 C151.24,783.55 179.8903,765.243 207.9003,752.073 " fill="none" id="admin-to-importarAsignaturas" style="stroke:#181818;stroke-width:1.0;"/><polygon fill="#181818" points="213.33,749.52,203.4834,749.7297,208.8052,751.6475,206.8874,756.9693,213.33,749.52" style="stroke:#181818;stroke-width:1.0;"/></g><!--link admin to abrirExamenes--><g id="link_admin_abrirExamenes"><path d="M54.13,1297.84 C62.76,1213.21 87.19,1017.12 132,970 C146.66,954.59 161.5907,947.1711 182.1007,942.1711 " fill="none" id="admin-to-abrirExamenes" style="stroke:#181818;stroke-width:1.0;"/><polygon fill="#181818" points="187.93,940.75,178.2387,938.9954,183.0723,941.9342,180.1335,946.7678,187.93,940.75" style="stroke:#181818;stroke-width:1.0;"/></g><!--link admin to crearExamen--><g id="link_admin_crearExamen"><path d="M49.59,1297.87 C50.32,1234.45 61.36,1109.26 132,1039 C147.7,1023.39 163.8724,1016.0195 185.1924,1011.2895 " fill="none" id="admin-to-crearExamen" style="stroke:#181818;stroke-width:1.0;"/><polygon fill="#181818" points="191.05,1009.99,181.3973,1008.0343,186.1687,1011.073,183.13,1015.8444,191.05,1009.99" style="stroke:#181818;stroke-width:1.0;"/></g><!--link admin to editarExamen--><g id="link_admin_editarExamen"><path d="M53.62,1298 C59.8,1247.21 78.08,1159.05 132,1109 C148.26,1093.91 164.5868,1086.5926 185.8568,1081.6326 " fill="none" id="admin-to-editarExamen" style="stroke:#181818;stroke-width:1.0;"/><polygon fill="#181818" points="191.7,1080.27,182.0268,1078.4184,186.8306,1081.4055,183.8436,1086.2094,191.7,1080.27" style="stroke:#181818;stroke-width:1.0;"/></g><!--link admin to eliminarExamen--><g id="link_admin_eliminarExamen"><path d="M53.1,1297.81 C60.14,1202.37 82.51,961.21 132,900 C148.9,879.1 169.7491,868.1388 194.2291,860.3988 " fill="none" id="admin-to-eliminarExamen" style="stroke:#181818;stroke-width:1.0;"/><polygon fill="#181818" points="199.95,858.59,190.1628,857.4893,195.1826,860.0973,192.5746,865.1171,199.95,858.59" style="stroke:#181818;stroke-width:1.0;"/></g><!--link admin to generarCalendario--><g id="link_admin_generarCalendario"><path d="M61.58,1297.83 C73.44,1262.83 95.65,1212.62 132,1183 C147.67,1170.23 161.7958,1163.5006 181.1658,1158.0306 " fill="none" id="admin-to-generarCalendario" style="stroke:#181818;stroke-width:1.0;"/><polygon fill="#181818" points="186.94,1156.4,177.1917,1154.9965,182.1282,1157.7588,179.3658,1162.6954,186.94,1156.4" style="stroke:#181818;stroke-width:1.0;"/></g><!--link admin to consultarCalendario--><g id="link_admin_consultarCalendario"><path d="M93.2,1313.25 C132.15,1291.57 183.737,1262.8773 219.717,1242.8573 " fill="none" id="admin-to-consultarCalendario" style="stroke:#181818;stroke-width:1.0;"/><polygon fill="#181818" points="224.96,1239.94,215.1506,1240.8206,220.5908,1242.3711,219.0404,1247.8113,224.96,1239.94" style="stroke:#181818;stroke-width:1.0;"/></g><!--link admin to abrirProfesores--><g id="link_admin_abrirProfesores"><path d="M93.15,1356.04 C105.65,1361.56 119.35,1367.57 132,1373 C161.75,1385.77 190.0354,1397.5771 215.3054,1408.0271 " fill="none" id="admin-to-abrirProfesores" style="stroke:#181818;stroke-width:1.0;"/><polygon fill="#181818" points="220.85,1410.32,214.0617,1403.1843,216.2295,1408.4093,211.0045,1410.5771,220.85,1410.32" style="stroke:#181818;stroke-width:1.0;"/></g><!--link admin to crearProfesor--><g id="link_admin_crearProfesor"><path d="M67,1376.06 C80.58,1403.68 102.42,1439.47 132,1461 C150.4,1474.39 167.8407,1481.2806 189.4307,1486.3806 " fill="none" id="admin-to-crearProfesor" style="stroke:#181818;stroke-width:1.0;"/><polygon fill="#181818" points="195.27,1487.76,187.4306,1481.7981,190.4039,1486.6105,185.5915,1489.5838,195.27,1487.76" style="stroke:#181818;stroke-width:1.0;"/></g><!--link admin to editarProfesor--><g id="link_admin_editarProfesor"><path d="M56.7,1376.18 C65.67,1419.9 86.48,1489.78 132,1530 C148.66,1544.72 165.1004,1552.0303 186.3304,1557.2003 " fill="none" id="admin-to-editarProfesor" style="stroke:#181818;stroke-width:1.0;"/><polygon fill="#181818" points="192.16,1558.62,184.362,1552.6041,187.302,1557.437,182.4691,1560.3769,192.16,1558.62" style="stroke:#181818;stroke-width:1.0;"/></g><!--link admin to eliminarProfesor--><g id="link_admin_eliminarProfesor"><path d="M93.2,1337 C118.22,1337 144.6,1337 174.11,1337 " fill="none" id="admin-to-eliminarProfesor" style="stroke:#181818;stroke-width:1.0;"/><polygon fill="#181818" points="180.11,1337,171.11,1333,175.11,1337,171.11,1341,180.11,1337" style="stroke:#181818;stroke-width:1.0;"/></g><!--link admin to importarProfesores--><g id="link_admin_importarProfesores"><path d="M51.54,1376.44 C55.22,1433.8 70.51,1540.04 132,1601 C145.97,1614.85 159.0309,1621.9729 177.8809,1627.6029 " fill="none" id="admin-to-importarProfesores" style="stroke:#181818;stroke-width:1.0;"/><polygon fill="#181818" points="183.63,1629.32,176.1511,1622.9117,178.8391,1627.8891,173.8617,1630.5771,183.63,1629.32" style="stroke:#181818;stroke-width:1.0;"/></g><!--link admin to listarConflictosExamenes--><g id="link_admin_listarConflictosExamenes"><path d="M55.03,1376.19 C65.01,1455.95 91.28,1633.33 132,1677 C143.59,1689.43 153.361,1695.9328 169.431,1701.8628 " fill="none" id="admin-to-listarConflictosExamenes" style="stroke:#181818;stroke-width:1.0;"/><polygon fill="#181818" points="175.06,1703.94,168.0013,1697.0716,170.3692,1702.209,165.2318,1704.5769,175.06,1703.94" style="stroke:#181818;stroke-width:1.0;"/></g><!--link admin to asignarProfesorAExamen--><g id="link_admin_asignarProfesorAExamen"><path d="M53.04,1376.07 C59.87,1469.36 81.63,1701.54 132,1758 C143.08,1770.42 152.3587,1776.8956 168.0487,1782.8356 " fill="none" id="admin-to-asignarProfesorAExamen" style="stroke:#181818;stroke-width:1.0;"/><polygon fill="#181818" points="173.66,1784.96,166.6592,1778.0326,168.9839,1783.1897,163.8268,1785.5143,173.66,1784.96" style="stroke:#181818;stroke-width:1.0;"/></g><!--link admin to abrirAulas--><g id="link_admin_abrirAulas"><path d="M50.72,1376.15 C52.13,1496.49 62.22,1858.23 132,1948 C149.79,1970.89 173.6724,1981.9949 199.8624,1988.9749 " fill="none" id="admin-to-abrirAulas" style="stroke:#181818;stroke-width:1.0;"/><polygon fill="#181818" points="205.66,1990.52,197.9937,1984.3372,200.8286,1989.2324,195.9335,1992.0674,205.66,1990.52" style="stroke:#181818;stroke-width:1.0;"/></g><!--link admin to crearAula--><g id="link_admin_crearAula"><path d="M52.53,1376.05 C60.12,1515.34 88.61,1982.19 132,2032 C148.31,2050.72 167.8383,2058.5138 191.6783,2062.4038 " fill="none" id="admin-to-crearAula" style="stroke:#181818;stroke-width:1.0;"/><polygon fill="#181818" points="197.6,2063.37,189.3616,2057.9728,192.6653,2062.5648,188.0733,2065.8684,197.6,2063.37" style="stroke:#181818;stroke-width:1.0;"/></g><!--link admin to editarAula--><g id="link_admin_editarAula"><path d="M52.09,1376.15 C58.46,1524.06 84.09,2043.15 132,2098 C147.96,2116.27 166.7073,2124.03 190.0673,2128.06 " fill="none" id="admin-to-editarAula" style="stroke:#181818;stroke-width:1.0;"/><polygon fill="#181818" points="195.98,2129.08,187.791,2123.6082,191.0528,2128.23,186.431,2131.4917,195.98,2129.08" style="stroke:#181818;stroke-width:1.0;"/></g><!--link admin to eliminarAula--><g id="link_admin_eliminarAula"><path d="M52.69,1376.27 C59.17,1480.53 81.02,1761.46 132,1837 C152.84,1867.88 185.08,1886.136 214.03,1898.176 " fill="none" id="admin-to-eliminarAula" style="stroke:#181818;stroke-width:1.0;"/><polygon fill="#181818" points="219.57,1900.48,212.796,1893.3306,214.9533,1898.56,209.724,1900.7173,219.57,1900.48" style="stroke:#181818;stroke-width:1.0;"/></g><!--link admin to importarAulas--><g id="link_admin_importarAulas"><path d="M51.74,1376.03 C57.04,1531.83 79.93,2103.7 132,2164 C146.35,2180.62 161.9517,2188.3493 183.1517,2193.2093 " fill="none" id="admin-to-importarAulas" style="stroke:#181818;stroke-width:1.0;"/><polygon fill="#181818" points="189,2194.55,181.1214,2188.6401,184.1264,2193.4328,179.3338,2196.4378,189,2194.55" style="stroke:#181818;stroke-width:1.0;"/></g><!--link admin to abrirAlumnos--><g id="link_admin_abrirAlumnos"><path d="M51.27,1376 C55.05,1551.82 73.9,2265.55 132,2345 C148.24,2367.21 169.917,2378.3003 195.147,2385.6103 " fill="none" id="admin-to-abrirAlumnos" style="stroke:#181818;stroke-width:1.0;"/><polygon fill="#181818" points="200.91,2387.28,193.3787,2380.9334,196.1075,2385.8886,191.1524,2388.6174,200.91,2387.28" style="stroke:#181818;stroke-width:1.0;"/></g><!--link admin to crearAlumno--><g id="link_admin_crearAlumno"><path d="M50.74,1376.12 C52.24,1561.93 62.66,2349.82 132,2432 C146.43,2449.1 162.5499,2456.8482 184.1999,2461.4282 " fill="none" id="admin-to-crearAlumno" style="stroke:#181818;stroke-width:1.0;"/><polygon fill="#181818" points="190.07,2462.67,182.0927,2456.8939,185.1783,2461.6352,180.437,2464.7207,190.07,2462.67" style="stroke:#181818;stroke-width:1.0;"/></g><!--link admin to editarAlumno--><g id="link_admin_editarAlumno"><path d="M52.36,1376.09 C59.23,1517.48 84.81,2015.51 123,2425 C126.12,2458.43 110.1,2474.55 132,2500 C146.55,2516.9 162.5732,2524.707 184.1032,2529.497 " fill="none" id="admin-to-editarAlumno" style="stroke:#181818;stroke-width:1.0;"/><polygon fill="#181818" points="189.96,2530.8,182.0435,2524.9409,185.0793,2529.7141,180.3061,2532.75,189.96,2530.8" style="stroke:#181818;stroke-width:1.0;"/></g><!--link admin to eliminarAlumno--><g id="link_admin_eliminarAlumno"><path d="M51.95,1376.03 C58.29,1538.87 85.32,2159.01 132,2232 C151.59,2262.63 182.4101,2280.7783 211.2101,2293.0483 " fill="none" id="admin-to-eliminarAlumno" style="stroke:#181818;stroke-width:1.0;"/><polygon fill="#181818" points="216.73,2295.4,210.0179,2288.1925,212.1301,2293.4402,206.8823,2295.5524,216.73,2295.4" style="stroke:#181818;stroke-width:1.0;"/></g><!--link admin to importarAlumnos--><g id="link_admin_importarAlumnos"><path d="M52.14,1376.05 C58.47,1523 83.01,2056.68 123,2495 C126.05,2528.43 110.19,2544.47 132,2570 C145.17,2585.42 158.6262,2592.9204 178.1662,2598.1804 " fill="none" id="admin-to-importarAlumnos" style="stroke:#181818;stroke-width:1.0;"/><polygon fill="#181818" points="183.96,2599.74,176.3091,2593.5381,179.1319,2598.4403,174.2296,2601.2631,183.96,2599.74" style="stroke:#181818;stroke-width:1.0;"/></g><!--link consultarCalendario to descargarCalendarioExamenes--><!--link descargarCalendarioExamenes to consultarCalendario--><g id="link_descargarCalendarioExamenes_consultarCalendario"><path d="M543.97,1190.4 C533.16,1190.87 522.38,1191.4 512,1192 C474.16,1194.18 464.75,1195.62 427,1199 C413.21,1200.23 409.75,1200.37 396,1202 C376.37,1204.33 361.1316,1206.325 341.4916,1209.085 " fill="none" id="descargarCalendarioExamenes-to-consultarCalendario" style="stroke:#181818;stroke-width:1.0;stroke-dasharray:7.0,7.0;"/><polygon fill="#181818" points="335.55,1209.92,345.0191,1212.6286,340.5013,1209.2242,343.9058,1204.7065,335.55,1209.92" style="stroke:#181818;stroke-width:1.0;"/><text fill="#000000" font-family="sans-serif" font-size="13" lengthAdjust="spacing" textLength="53" x="428" y="1191.4951">&#171;extend&#187;</text></g><!--link eliminarGrado to abrirGrados--><g id="link_eliminarGrado_abrirGrados"><path d="M260,76.12 C260,91.32 260,107.38 260,122.42 " fill="none" id="eliminarGrado-to-abrirGrados" style="stroke:#181818;stroke-width:1.0;stroke-dasharray:7.0,7.0;"/><polygon fill="#181818" points="260,128.42,264,119.42,260,123.42,256,119.42,260,128.42" style="stroke:#181818;stroke-width:1.0;"/><text fill="#000000" font-family="sans-serif" font-size="13" lengthAdjust="spacing" textLength="55" x="220.5" y="107.7451">&#171;include&#187;</text></g><!--link eliminarAsignatura to abrirAsignaturas--><g id="link_eliminarAsignatura_abrirAsignaturas"><path d="M260,235.78 C260,251.32 260,266.84 260,282.14 " fill="none" id="eliminarAsignatura-to-abrirAsignaturas" style="stroke:#181818;stroke-width:1.0;stroke-dasharray:7.0,7.0;"/><polygon fill="#181818" points="260,288.14,264,279.14,260,283.14,256,279.14,260,288.14" style="stroke:#181818;stroke-width:1.0;"/><text fill="#000000" font-family="sans-serif" font-size="13" lengthAdjust="spacing" textLength="55" x="220.5" y="267.4951">&#171;include&#187;</text></g><!--link eliminarExamen to abrirExamenes--><g id="link_eliminarExamen_abrirExamenes"><path d="M260,865.08 C260,880.33 260,896.02 260,911.19 " fill="none" id="eliminarExamen-to-abrirExamenes" style="stroke:#181818;stroke-width:1.0;stroke-dasharray:7.0,7.0;"/><polygon fill="#181818" points="260,917.19,264,908.19,260,912.19,256,908.19,260,917.19" style="stroke:#181818;stroke-width:1.0;"/><text fill="#000000" font-family="sans-serif" font-size="13" lengthAdjust="spacing" textLength="55" x="220.5" y="896.7451">&#171;include&#187;</text></g><!--link eliminarProfesor to abrirProfesores--><g id="link_eliminarProfesor_abrirProfesores"><path d="M260,1355.6 C260,1371 260,1386.75 260,1401.99 " fill="none" id="eliminarProfesor-to-abrirProfesores" style="stroke:#181818;stroke-width:1.0;stroke-dasharray:7.0,7.0;"/><polygon fill="#181818" points="260,1407.99,264,1398.99,260,1402.99,256,1398.99,260,1407.99" style="stroke:#181818;stroke-width:1.0;"/><text fill="#000000" font-family="sans-serif" font-size="13" lengthAdjust="spacing" textLength="55" x="220.5" y="1387.2451">&#171;include&#187;</text></g><!--link eliminarAula to abrirAulas--><g id="link_eliminarAula_abrirAulas"><path d="M260,1930.65 C260,1945.95 260,1962.46 260,1977.41 " fill="none" id="eliminarAula-to-abrirAulas" style="stroke:#181818;stroke-width:1.0;stroke-dasharray:7.0,7.0;"/><polygon fill="#181818" points="260,1983.41,264,1974.41,260,1978.41,256,1974.41,260,1983.41" style="stroke:#181818;stroke-width:1.0;"/><text fill="#000000" font-family="sans-serif" font-size="13" lengthAdjust="spacing" textLength="55" x="220.5" y="1962.4951">&#171;include&#187;</text></g><!--link eliminarAlumno to abrirAlumnos--><g id="link_eliminarAlumno_abrirAlumnos"><path d="M260,2327.75 C260,2342.97 260,2358.76 260,2373.81 " fill="none" id="eliminarAlumno-to-abrirAlumnos" style="stroke:#181818;stroke-width:1.0;stroke-dasharray:7.0,7.0;"/><polygon fill="#181818" points="260,2379.81,264,2370.81,260,2374.81,256,2370.81,260,2379.81" style="stroke:#181818;stroke-width:1.0;"/><text fill="#000000" font-family="sans-serif" font-size="13" lengthAdjust="spacing" textLength="55" x="220.5" y="2359.2451">&#171;include&#187;</text></g><!--SRC=[ZLR1ZjmW3BtdAz2SsiFa0whLI56rwhNtLGyKc2ngGbP0f96gVaoFFVSJviTAO38ORAQR6yyFR3-3dKcTFVCBitfyzKngguJNY-awBlnYsM6GipRQUSlbOW-CEyOtfElUkFZ1HmKPGb__6ZO8Bgz_PYtuWVtiEXQ-rId1dMBykzNsotQKsquwWFM7ZuU2AgpYoHIPULaJbTGUCi4QKISTGYt84AdfUdvRx7vM2hY4jWquly7fqN2_MWwI122PQRRdT3D6vrpjgS5MzlKs1BTqg1CZyAZ8hmUNGohsVBd-dfLHZhuUpnSUhLcx7I65IyOiMbhJWW4k15f2GNe1eRgF8JpBxMS-AIEvrUbo8HGbi1YtJXvj9F1wgrHES3j2IY7S0_jsr7zAzDKkP-KMswfHjkSgPOoiqsxEbTeHkbO5luHQzIgtL63hKbUfO1WLUmfQ1LqNSvvqw96kqBrbhDtp-6RkRWPmrsZJEwesh1Dl52oQG3VQbdGV2XRGWSAgqNjsNbus-ysT2e1cZxa7MY3loNvQPxEqyaz6e402Q0sY3QWGrmqTCXS2JIq0lO2QUe30A-ocIHp7x7WymUaAq3mv0GY694JXD0HuEVMGIz3_Qx_PX9pJ9ZICY32WlpgM_RtLWIGS1O7Xej430shcq0FkroYmt53gq7OB2euoL5sDK8Tqr6fBC4goxU1YRyyHbJc0kC0L25u_LTHuBlAMhZho5s7i4S756wEytixlg55yV7dLKYhpRTlnOA1sZuPntvFtWtrYJq_guiFoTEhA7zE-UCgHgOsOLga05Vp5zVWTDZRTfanVFPO6-pvFUtI7Mq5jhRw7DwL5J7smByjSaVy1]--></g></svg>