<?xml version="1.0" encoding="us-ascii" standalone="no"?><svg xmlns="http://www.w3.org/2000/svg" xmlns:xlink="http://www.w3.org/1999/xlink" contentStyleType="text/css" height="328px" preserveAspectRatio="none" style="width:1227px;height:328px;background:#FFFFFF;" version="1.1" viewBox="0 0 1227 328" width="1227px" zoomAndPan="magnify"><defs/><g><!--cluster crearAsignatura--><g id="cluster_crearAsignatura"><path d="M159.5,6.016 L264.5,6.016 A3.75,3.75 0 0 1 267,8.516 L274,28.3601 L800.5,28.3601 A2.5,2.5 0 0 1 803,30.8601 L803,318.516 A2.5,2.5 0 0 1 800.5,321.016 L159.5,321.016 A2.5,2.5 0 0 1 157,318.516 L157,8.516 A2.5,2.5 0 0 1 159.5,6.016 " fill="none" style="stroke:#000000;stroke-width:1.5;"/><line style="stroke:#000000;stroke-width:1.5;" x1="157" x2="274" y1="28.3601" y2="28.3601"/><text fill="#000000" font-family="sans-serif" font-size="12" font-weight="bold" lengthAdjust="spacing" textLength="104" x="161" y="20.8441">crearAsignatura()</text></g><!--entity CrearAsignaturaView--><g id="elem_CrearAsignaturaView"><rect fill="#629EF9" height="36.3441" rx="2.5" ry="2.5" style="stroke:#181818;stroke-width:0.5;" width="139" x="415.5" y="41.016"/><text fill="#000000" font-family="sans-serif" font-size="12" lengthAdjust="spacing" textLength="119" x="425.5" y="63.8441">CrearAsignaturaView</text></g><!--entity AsignaturaController--><g id="elem_AsignaturaController"><rect fill="#B5BD68" height="36.3441" rx="2.5" ry="2.5" style="stroke:#181818;stroke-width:0.5;" width="137" x="387.5" y="155.016"/><text fill="#000000" font-family="sans-serif" font-size="12" lengthAdjust="spacing" textLength="117" x="397.5" y="177.8441">AsignaturaController</text></g><!--entity AsignaturaRepository--><g id="elem_AsignaturaRepository"><rect fill="#F2AC4E" height="36.3441" rx="2.5" ry="2.5" style="stroke:#181818;stroke-width:0.5;" width="140" x="262" y="269.016"/><text fill="#000000" font-family="sans-serif" font-size="12" lengthAdjust="spacing" textLength="120" x="272" y="291.8441">AsignaturaRepository</text></g><!--entity GradoRepository--><g id="elem_GradoRepository"><rect fill="#F2AC4E" height="36.3441" rx="2.5" ry="2.5" style="stroke:#181818;stroke-width:0.5;" width="114" x="525" y="269.016"/><text fill="#000000" font-family="sans-serif" font-size="12" lengthAdjust="spacing" textLength="94" x="535" y="291.8441">GradoRepository</text></g><!--entity Asignatura--><g id="elem_Asignatura"><rect fill="#F2AC4E" height="36.3441" rx="2.5" ry="2.5" style="stroke:#181818;stroke-width:0.5;" width="81" x="672.5" y="155.016"/><text fill="#000000" font-family="sans-serif" font-size="12" lengthAdjust="spacing" textLength="61" x="682.5" y="177.8441">Asignatura</text></g><!--entity Grado--><g id="elem_Grado"><rect fill="#F2AC4E" height="36.3441" rx="2.5" ry="2.5" style="stroke:#181818;stroke-width:0.5;" width="55" x="725.5" y="269.016"/><text fill="#000000" font-family="sans-serif" font-size="12" lengthAdjust="spacing" textLength="35" x="735.5" y="291.8441">Grado</text></g><!--entity AsignaturasAbierto--><g id="elem_AsignaturasAbierto"><rect fill="#CDEBA5" height="36.3441" rx="2.5" ry="2.5" style="stroke:#181818;stroke-width:0.5;" width="134" x="7" y="41.016"/><text fill="#000000" font-family="sans-serif" font-size="12" lengthAdjust="spacing" textLength="114" x="17" y="63.8441">:Asignaturas Abierta</text></g><!--entity AsignaturaAbierto--><g id="elem_AsignaturaAbierto"><rect fill="#CDEBA5" height="36.3441" rx="2.5" ry="2.5" style="stroke:#181818;stroke-width:0.5;" width="128" x="819" y="155.016"/><text fill="#000000" font-family="sans-serif" font-size="12" lengthAdjust="spacing" textLength="108" x="829" y="177.8441">:Asignatura Abierto</text></g><!--entity AsignaturasAbiertoSalida--><g id="elem_AsignaturasAbiertoSalida"><rect fill="#CDEBA5" height="36.3441" rx="2.5" ry="2.5" style="stroke:#181818;stroke-width:0.5;" width="134" x="1087" y="155.016"/><text fill="#000000" font-family="sans-serif" font-size="12" lengthAdjust="spacing" textLength="114" x="1097" y="177.8441">:Asignaturas Abierta</text></g><!--link AsignaturasAbierto to CrearAsignaturaView--><g id="link_AsignaturasAbierto_CrearAsignaturaView"><path d="M141.41,59.016 C217.02,59.016 333.04,59.016 409.49,59.016 " fill="none" id="AsignaturasAbierto-to-CrearAsignaturaView" style="stroke:#181818;stroke-width:1.0;"/><polygon fill="#181818" points="415.49,59.016,406.49,55.016,410.49,59.016,406.49,63.016,415.49,59.016" style="stroke:#181818;stroke-width:1.0;"/><text fill="#000000" font-family="sans-serif" font-size="12" lengthAdjust="spacing" textLength="99" x="228.75" y="51.8441">crearAsignatura()</text></g><!--link CrearAsignaturaView to AsignaturaController--><g id="link_CrearAsignaturaView_AsignaturaController"><path d="M415.43,71.696 C332.5,85.616 205,107.016 205,107.016 C205,107.016 205,125.016 205,125.016 C205,125.016 307.2026,144.1513 381.5126,158.0713 " fill="none" id="CrearAsignaturaView-to-AsignaturaController" style="stroke:#181818;stroke-width:1.0;"/><polygon fill="#181818" points="387.41,159.176,379.3004,153.5873,382.4955,158.2554,377.8274,161.4506,387.41,159.176" style="stroke:#181818;stroke-width:1.0;"/><text fill="#000000" font-family="sans-serif" font-size="12" lengthAdjust="spacing" textLength="235" x="206" y="120.8441">obtenerGradosDisponibles() : List&lt;Grado&gt;</text></g><!--link CrearAsignaturaView to AsignaturaController--><g id="link_CrearAsignaturaView_AsignaturaController"><path d="M480.6,77.026 C475.14,98.076 467.4237,127.9075 461.9537,149.0375 " fill="none" id="CrearAsignaturaView-to-AsignaturaController-1" style="stroke:#181818;stroke-width:1.0;"/><polygon fill="#181818" points="460.45,154.846,466.5779,147.1357,461.7031,150.0056,458.8332,145.1308,460.45,154.846" style="stroke:#181818;stroke-width:1.0;"/><text fill="#000000" font-family="sans-serif" font-size="12" lengthAdjust="spacing" textLength="300" x="473" y="120.8441">crear(codigo, nombre, creditos, id_grado) : Asignatura</text></g><!--link AsignaturaController to GradoRepository--><g id="link_AsignaturaController_GradoRepository"><path d="M482.77,191.246 C503.6,204.666 529,221.016 529,221.016 C529,221.016 548.579,245.0254 564.279,264.2854 " fill="none" id="AsignaturaController-to-GradoRepository" style="stroke:#181818;stroke-width:1.0;"/><polygon fill="#181818" points="568.07,268.936,565.4839,259.4328,564.9108,265.0605,559.2831,264.4874,568.07,268.936" style="stroke:#181818;stroke-width:1.0;"/><text fill="#000000" font-family="sans-serif" font-size="12" lengthAdjust="spacing" textLength="163" x="544" y="234.8441">obtenerTodos() : List&lt;Grado&gt;</text></g><!--link AsignaturaController to AsignaturaRepository--><g id="link_AsignaturaController_AsignaturaRepository"><path d="M387.48,187.106 C314.69,201.016 210,221.016 210,221.016 C210,221.016 210,239.016 210,239.016 C210,239.016 247.1313,253.3187 282.0113,266.7587 " fill="none" id="AsignaturaController-to-AsignaturaRepository" style="stroke:#181818;stroke-width:1.0;"/><polygon fill="#181818" points="287.61,268.916,280.6501,261.9476,282.9444,267.1183,277.7737,269.4125,287.61,268.916" style="stroke:#181818;stroke-width:1.0;"/><text fill="#000000" font-family="sans-serif" font-size="12" lengthAdjust="spacing" textLength="172" x="211" y="234.8441">existeCodigo(codigo) : Boolean</text></g><!--link AsignaturaController to AsignaturaRepository--><g id="link_AsignaturaController_AsignaturaRepository"><path d="M438.13,191.096 C417.99,210.356 388,239.016 388,239.016 C388,239.016 373.1159,251.5088 357.1259,264.9288 " fill="none" id="AsignaturaController-to-AsignaturaRepository-1" style="stroke:#181818;stroke-width:1.0;"/><polygon fill="#181818" points="352.53,268.786,361.9953,266.0641,356.3599,265.5717,356.8523,259.9363,352.53,268.786" style="stroke:#181818;stroke-width:1.0;"/><text fill="#000000" font-family="sans-serif" font-size="12" lengthAdjust="spacing" textLength="113" x="407" y="234.8441">guardar(asignatura)</text></g><!--link AsignaturaController to Asignatura--><g id="link_AsignaturaController_Asignatura"><path d="M524.53,173.016 C571.67,173.016 626.68,173.016 666.32,173.016 " fill="none" id="AsignaturaController-to-Asignatura" style="stroke:#181818;stroke-width:1.0;"/><polygon fill="#181818" points="672.32,173.016,663.32,169.016,667.32,173.016,663.32,177.016,672.32,173.016" style="stroke:#181818;stroke-width:1.0;"/><text fill="#000000" font-family="sans-serif" font-size="12" lengthAdjust="spacing" textLength="48" x="574.5" y="165.8441">&#171;create&#187;</text></g><!--link Asignatura to Grado--><g id="link_Asignatura_Grado"><path d="M725.83,191.246 C735.82,204.666 748,221.016 748,221.016 C748,221.016 750.2,249.676 751.69,268.936 " fill="none" id="Asignatura-Grado" style="stroke:#181818;stroke-width:1.0;"/></g><!--link CrearAsignaturaView to AsignaturaAbierto--><g id="link_CrearAsignaturaView_AsignaturaAbierto"><path d="M554.63,71.036 C642.42,84.926 782,107.016 782,107.016 C782,107.016 821.4949,132.4284 851.4149,151.6884 " fill="none" id="CrearAsignaturaView-to-AsignaturaAbierto" style="stroke:#181818;stroke-width:1.0;stroke-dasharray:7.0,7.0;"/><polygon fill="#181818" points="856.46,154.936,851.0574,146.7012,852.2558,152.2297,846.7273,153.428,856.46,154.936" style="stroke:#181818;stroke-width:1.0;"/><text fill="#000000" font-family="sans-serif" font-size="12" lengthAdjust="spacing" textLength="257" x="810" y="120.8441">&#171;finalizar&#187; editarAsignatura(nuevaAsignatura)</text></g><!--link CrearAsignaturaView to AsignaturasAbiertoSalida--><g id="link_CrearAsignaturaView_AsignaturasAbiertoSalida"><path d="M554.53,65.546 C710.76,77.966 1076,107.016 1076,107.016 C1076,107.016 1105.7908,131.8347 1128.9008,151.0947 " fill="none" id="CrearAsignaturaView-to-AsignaturasAbiertoSalida" style="stroke:#181818;stroke-width:1.0;stroke-dasharray:7.0,7.0;"/><polygon fill="#181818" points="1133.51,154.936,1129.1571,146.1013,1129.669,151.7349,1124.0354,152.2468,1133.51,154.936" style="stroke:#181818;stroke-width:1.0;"/><text fill="#000000" font-family="sans-serif" font-size="12" lengthAdjust="spacing" textLength="60" x="1097" y="120.8441">&#171;cancelar&#187;</text></g><!--SRC=[fLB1Rfj04BtlLupSYosPIBMQg44M4i5sBpqrLQ_L06EoocO7xIvrdQh_tbtis1YJM54vmSpZlJTlnZvANQF19yYnUAmCDxhCMB61pODq9EoXRn-mv8tK5QnHsMvdGMjib5knThjVS-MvXW7tyfdWuwpJL5AJszO4DQjj-132KE5GLuhWGxPOtgNNC8fJAokDhZ5e8Sqb6OSZ2E_7-gxCGjHU7Yk2mX2Q8o30HxtQU3A2FmByqn6zcTqkLxUGdK9_IDhqaVbrNjvyxfZ8_8o6bIBJXwvcQVPfsO5-evgjT6oshq2_69_uHTIHy2qQyVTIhFjKkPVgIwZ_jvDxLB948Sux49ae6OewXhDL2J60WwZq14CRY85pHvfCcu1TI5kpbhaYEvv035-bTVEsbOYXttV4lIKSEB-pfppZUQ_1TiHnmQMiU0gQdt93qr0jlPgTWYn_Le4vw7GM_ORVeVkAWNvxavIrEdkvG7d7h0ZrAtJcX2w6-JpOTPGaxzQl6ZIbdnGFtKbt28YY_PaE1dXrbPnVPF2pbjeVrZEQ984GsScvw8P-OTeHl4nzUgxjnAWBKa50_0C0]--></g></svg>