<?xml version="1.0" encoding="us-ascii" standalone="no"?><svg xmlns="http://www.w3.org/2000/svg" xmlns:xlink="http://www.w3.org/1999/xlink" contentStyleType="text/css" height="328px" preserveAspectRatio="none" style="width:1341px;height:328px;background:#FFFFFF;" version="1.1" viewBox="0 0 1341 328" width="1341px" zoomAndPan="magnify"><defs/><g><!--cluster crearAsignatura--><g id="cluster_crearAsignatura"><path d="M159.5,6.016 L264.5,6.016 A3.75,3.75 0 0 1 267,8.516 L274,28.3601 L914.5,28.3601 A2.5,2.5 0 0 1 917,30.8601 L917,318.516 A2.5,2.5 0 0 1 914.5,321.016 L159.5,321.016 A2.5,2.5 0 0 1 157,318.516 L157,8.516 A2.5,2.5 0 0 1 159.5,6.016 " fill="none" style="stroke:#000000;stroke-width:1.5;"/><line style="stroke:#000000;stroke-width:1.5;" x1="157" x2="274" y1="28.3601" y2="28.3601"/><text fill="#000000" font-family="sans-serif" font-size="12" font-weight="bold" lengthAdjust="spacing" textLength="104" x="161" y="20.8441">crearAsignatura()</text></g><!--entity CrearAsignaturaView--><g id="elem_CrearAsignaturaView"><rect fill="#629EF9" height="36.3441" rx="2.5" ry="2.5" style="stroke:#181818;stroke-width:0.5;" width="139" x="529.5" y="41.016"/><text fill="#000000" font-family="sans-serif" font-size="12" lengthAdjust="spacing" textLength="119" x="539.5" y="63.8441">CrearAsignaturaView</text></g><!--entity AsignaturaController--><g id="elem_AsignaturaController"><rect fill="#B5BD68" height="36.3441" rx="2.5" ry="2.5" style="stroke:#181818;stroke-width:0.5;" width="137" x="413.5" y="155.016"/><text fill="#000000" font-family="sans-serif" font-size="12" lengthAdjust="spacing" textLength="117" x="423.5" y="177.8441">AsignaturaController</text></g><!--entity AsignaturaRepository--><g id="elem_AsignaturaRepository"><rect fill="#F2AC4E" height="36.3441" rx="2.5" ry="2.5" style="stroke:#181818;stroke-width:0.5;" width="140" x="259" y="269.016"/><text fill="#000000" font-family="sans-serif" font-size="12" lengthAdjust="spacing" textLength="120" x="269" y="291.8441">AsignaturaRepository</text></g><!--entity GradoRepository--><g id="elem_GradoRepository"><rect fill="#F2AC4E" height="36.3441" rx="2.5" ry="2.5" style="stroke:#181818;stroke-width:0.5;" width="114" x="520" y="269.016"/><text fill="#000000" font-family="sans-serif" font-size="12" lengthAdjust="spacing" textLength="94" x="530" y="291.8441">GradoRepository</text></g><!--entity Asignatura--><g id="elem_Asignatura"><rect fill="#F2AC4E" height="36.3441" rx="2.5" ry="2.5" style="stroke:#181818;stroke-width:0.5;" width="81" x="755.5" y="155.016"/><text fill="#000000" font-family="sans-serif" font-size="12" lengthAdjust="spacing" textLength="61" x="765.5" y="177.8441">Asignatura</text></g><!--entity Grado--><g id="elem_Grado"><rect fill="#F2AC4E" height="36.3441" rx="2.5" ry="2.5" style="stroke:#181818;stroke-width:0.5;" width="55" x="845.5" y="269.016"/><text fill="#000000" font-family="sans-serif" font-size="12" lengthAdjust="spacing" textLength="35" x="855.5" y="291.8441">Grado</text></g><!--entity AsignaturasAbierto--><g id="elem_AsignaturasAbierto"><rect fill="#CDEBA5" height="36.3441" rx="2.5" ry="2.5" style="stroke:#181818;stroke-width:0.5;" width="134" x="7" y="41.016"/><text fill="#000000" font-family="sans-serif" font-size="12" lengthAdjust="spacing" textLength="114" x="17" y="63.8441">:Asignaturas Abierta</text></g><!--entity AsignaturaAbierto--><g id="elem_AsignaturaAbierto"><rect fill="#CDEBA5" height="36.3441" rx="2.5" ry="2.5" style="stroke:#181818;stroke-width:0.5;" width="128" x="933" y="155.016"/><text fill="#000000" font-family="sans-serif" font-size="12" lengthAdjust="spacing" textLength="108" x="943" y="177.8441">:Asignatura Abierta</text></g><!--entity AsignaturasAbiertoSalida--><g id="elem_AsignaturasAbiertoSalida"><rect fill="#CDEBA5" height="36.3441" rx="2.5" ry="2.5" style="stroke:#181818;stroke-width:0.5;" width="134" x="1201" y="155.016"/><text fill="#000000" font-family="sans-serif" font-size="12" lengthAdjust="spacing" textLength="114" x="1211" y="177.8441">:Asignaturas Abierta</text></g><!--link AsignaturasAbierto to CrearAsignaturaView--><g id="link_AsignaturasAbierto_CrearAsignaturaView"><path d="M141.02,59.016 C240.96,59.016 422.08,59.016 523.45,59.016 " fill="none" id="AsignaturasAbierto-to-CrearAsignaturaView" style="stroke:#181818;stroke-width:1.0;"/><polygon fill="#181818" points="529.45,59.016,520.45,55.016,524.45,59.016,520.45,63.016,529.45,59.016" style="stroke:#181818;stroke-width:1.0;"/><text fill="#000000" font-family="sans-serif" font-size="12" lengthAdjust="spacing" textLength="99" x="285.75" y="51.8441">crearAsignatura()</text></g><!--link CrearAsignaturaView to AsignaturaController--><g id="link_CrearAsignaturaView_AsignaturaController"><path d="M529.18,69.586 C428.89,83.326 256,107.016 256,107.016 C256,107.016 256,125.016 256,125.016 C256,125.016 340.9057,142.6742 407.3957,156.5042 " fill="none" id="CrearAsignaturaView-to-AsignaturaController" style="stroke:#181818;stroke-width:1.0;"/><polygon fill="#181818" points="413.27,157.726,405.2732,151.9771,408.3748,156.7078,403.644,159.8094,413.27,157.726" style="stroke:#181818;stroke-width:1.0;"/><text fill="#000000" font-family="sans-serif" font-size="12" lengthAdjust="spacing" textLength="298" x="257" y="120.8441">buscarGrados(criterio, pagina) : PagedResult&lt;Grado&gt;</text></g><!--link CrearAsignaturaView to AsignaturaController--><g id="link_CrearAsignaturaView_AsignaturaController"><path d="M588.75,77.096 C577.2,96.356 560,125.016 560,125.016 C560,125.016 537.9984,138.2682 515.7384,151.6882 " fill="none" id="CrearAsignaturaView-to-AsignaturaController-1" style="stroke:#181818;stroke-width:1.0;"/><polygon fill="#181818" points="510.6,154.786,520.3729,153.5649,514.882,152.2045,516.2424,146.7137,510.6,154.786" style="stroke:#181818;stroke-width:1.0;"/><text fill="#000000" font-family="sans-serif" font-size="12" lengthAdjust="spacing" textLength="300" x="571" y="120.8441">crear(codigo, nombre, creditos, id_grado) : Asignatura</text></g><!--link AsignaturaController to GradoRepository--><g id="link_AsignaturaController_GradoRepository"><path d="M502.53,191.246 C518.52,204.666 538,221.016 538,221.016 C538,221.016 552.1142,244.5304 563.6642,263.7904 " fill="none" id="AsignaturaController-to-GradoRepository" style="stroke:#181818;stroke-width:1.0;"/><polygon fill="#181818" points="566.75,268.936,565.5517,259.1603,564.1785,264.648,558.6909,263.2747,566.75,268.936" style="stroke:#181818;stroke-width:1.0;"/><text fill="#000000" font-family="sans-serif" font-size="12" lengthAdjust="spacing" textLength="315" x="549" y="234.8441">buscarPaginados(criterio, pagina) : PagedResult&lt;Grado&gt;</text></g><!--link AsignaturaController to AsignaturaRepository--><g id="link_AsignaturaController_AsignaturaRepository"><path d="M413.17,185.696 C331.14,199.616 205,221.016 205,221.016 C205,221.016 205,239.016 205,239.016 C205,239.016 242.8197,253.349 278.2697,266.789 " fill="none" id="AsignaturaController-to-AsignaturaRepository" style="stroke:#181818;stroke-width:1.0;"/><polygon fill="#181818" points="283.88,268.916,276.8825,261.9853,279.2047,267.1435,274.0465,269.4657,283.88,268.916" style="stroke:#181818;stroke-width:1.0;"/><text fill="#000000" font-family="sans-serif" font-size="12" lengthAdjust="spacing" textLength="172" x="206" y="234.8441">existeCodigo(codigo) : Boolean</text></g><!--link AsignaturaController to AsignaturaRepository--><g id="link_AsignaturaController_AsignaturaRepository"><path d="M457.43,191.246 C438.31,204.666 415,221.016 415,221.016 C415,221.016 381.8664,246.058 356.3864,265.318 " fill="none" id="AsignaturaController-to-AsignaturaRepository-1" style="stroke:#181818;stroke-width:1.0;"/><polygon fill="#181818" points="351.6,268.936,361.1917,266.7,355.5887,265.921,356.3677,260.3181,351.6,268.936" style="stroke:#181818;stroke-width:1.0;"/><text fill="#000000" font-family="sans-serif" font-size="12" lengthAdjust="spacing" textLength="113" x="416" y="234.8441">guardar(asignatura)</text></g><!--link AsignaturaController to Asignatura--><g id="link_AsignaturaController_Asignatura"><path d="M550.52,173.016 C613.14,173.016 697.63,173.016 749.46,173.016 " fill="none" id="AsignaturaController-to-Asignatura" style="stroke:#181818;stroke-width:1.0;"/><polygon fill="#181818" points="755.46,173.016,746.46,169.016,750.46,173.016,746.46,177.016,755.46,173.016" style="stroke:#181818;stroke-width:1.0;"/><text fill="#000000" font-family="sans-serif" font-size="12" lengthAdjust="spacing" textLength="48" x="629" y="165.8441">&#171;create&#187;</text></g><!--link Asignatura to Grado--><g id="link_Asignatura_Grado"><path d="M832.02,191.116 C860.33,204.556 895,221.016 895,221.016 C895,221.016 895,239.016 895,239.016 C895,239.016 887.35,255.366 881.07,268.786 " fill="none" id="Asignatura-Grado" style="stroke:#181818;stroke-width:1.0;"/></g><!--link CrearAsignaturaView to AsignaturaAbierto--><g id="link_CrearAsignaturaView_AsignaturaAbierto"><path d="M668.82,71.696 C752.04,85.616 880,107.016 880,107.016 C880,107.016 926.345,132.7623 961.015,152.0223 " fill="none" id="CrearAsignaturaView-to-AsignaturaAbierto" style="stroke:#181818;stroke-width:1.0;stroke-dasharray:7.0,7.0;"/><polygon fill="#181818" points="966.26,154.936,960.335,147.0688,961.8892,152.5079,956.45,154.0621,966.26,154.936" style="stroke:#181818;stroke-width:1.0;"/><text fill="#000000" font-family="sans-serif" font-size="12" lengthAdjust="spacing" textLength="257" x="912" y="120.8441">&#171;finalizar&#187; editarAsignatura(nuevaAsignatura)</text></g><!--link CrearAsignaturaView to AsignaturasAbiertoSalida--><g id="link_CrearAsignaturaView_AsignaturasAbiertoSalida"><path d="M668.55,65.666 C822.39,78.146 1178,107.016 1178,107.016 C1178,107.016 1212.8264,132.1624 1239.4864,151.4224 " fill="none" id="CrearAsignaturaView-to-AsignaturasAbiertoSalida" style="stroke:#181818;stroke-width:1.0;stroke-dasharray:7.0,7.0;"/><polygon fill="#181818" points="1244.35,154.936,1239.397,146.4232,1240.297,152.008,1234.7122,152.908,1244.35,154.936" style="stroke:#181818;stroke-width:1.0;"/><text fill="#000000" font-family="sans-serif" font-size="12" lengthAdjust="spacing" textLength="60" x="1203" y="120.8441">&#171;cancelar&#187;</text></g><!--SRC=[fLB1Qjj04BtlLmpknGOhKDE4HXY1ezYzXWHwBIFjM5cosHMpgxfEwRztLqvYsPPZJ7IIPfxUctdpt9CoDJ8-Gu7bKyMsCJAtsZAi7fKduTxxxX6bNIbJmHArwtPkQOcDzWjh_ERNGWUkVi23UY7uEkaqjJBarpL1RVKwVWZ1L7eqbIRuaj_ERsQNC4XdJbK6VSFeO5OeOey3YE_R-gPiXQY3F5O49HFo5X3XWxtQS3I0lmB2qn6zcbpF5zUGxq9_Abhj8ulBGbvzxmoHXntPQasy3rrCPlctUGTwJxLrobjU7u7-uE3uITIMy2CQyU-KhKTSVJFrSpTvGAqa2d7OWOIJhC_g50vE9KGF3X8P2Feka4BHk1AvDS0DImw1PcN7K6Eb38uWXRiG4tbFBgHpsi8oqSUqqTYxnnlzNSjsXiAvMxG-34ihLHMeZNqkcCQnAiCSRWnA_geYSvJhfE63JVf2c0BzKSvJtkgyoaNA6sireJb2npjqAKodSLnFMNQsVjKWox0fldT7tIKWILwpt6lWnKLs6Diupp9SGgiNv2o3QDbEfan3lt7M4JnDlPlfTcCq9Uae8Fu3]--></g></svg>