<?xml version="1.0" encoding="us-ascii" standalone="no"?><svg xmlns="http://www.w3.org/2000/svg" xmlns:xlink="http://www.w3.org/1999/xlink" contentStyleType="text/css" height="903px" preserveAspectRatio="none" style="width:801px;height:903px;background:#FFFFFF;" version="1.1" viewBox="0 0 801 903" width="801px" zoomAndPan="magnify"><defs/><g><path d="M19.5,7 L775.4505,7 A12.5,12.5 0 0 1 787.9505,19.5 L787.9505,34.6094 L7,34.6094 L7,19.5 A12.5,12.5 0 0 1 19.5,7 " fill="#F1F1F1" style="stroke:#F1F1F1;stroke-width:1.0;"/><rect fill="none" height="743.6094" rx="12.5" ry="12.5" style="stroke:#181818;stroke-width:0.5;" width="780.9505" x="7" y="7"/><line style="stroke:#181818;stroke-width:0.5;" x1="7" x2="787.9505" y1="34.6094" y2="34.6094"/><text fill="#000000" font-family="sans-serif" font-size="14" lengthAdjust="spacing" textLength="131" x="331.9753" y="26.5332">importarProfesores()</text><g id="importarProfesores.SeleccionandoArchivo"><rect fill="#F1F1F1" height="50" rx="12.5" ry="12.5" style="stroke:#181818;stroke-width:0.5;" width="50" x="209.9505" y="137.6094"/><line style="stroke:#181818;stroke-width:0.5;" x1="209.9505" x2="259.9505" y1="165.2188" y2="165.2188"/><text fill="#000000" font-family="sans-serif" font-size="14" lengthAdjust="spacing" textLength="4" x="232.9505" y="157.1426">&#160;</text></g><g id="importarProfesores.ProcesandoImportacion"><rect fill="#F1F1F1" height="50" rx="12.5" ry="12.5" style="stroke:#181818;stroke-width:0.5;" width="50" x="209.9505" y="341.6094"/><line style="stroke:#181818;stroke-width:0.5;" x1="209.9505" x2="259.9505" y1="369.2188" y2="369.2188"/><text fill="#000000" font-family="sans-serif" font-size="14" lengthAdjust="spacing" textLength="4" x="232.9505" y="361.1426">&#160;</text></g><g id="importarProfesores.MostrandoResultados"><rect fill="#F1F1F1" height="50" rx="12.5" ry="12.5" style="stroke:#181818;stroke-width:0.5;" width="50" x="22.9505" y="497.6094"/><line style="stroke:#181818;stroke-width:0.5;" x1="22.9505" x2="72.9505" y1="525.2188" y2="525.2188"/><text fill="#000000" font-family="sans-serif" font-size="14" lengthAdjust="spacing" textLength="4" x="45.9505" y="517.1426">&#160;</text></g><ellipse cx="234.9505" cy="55.6094" fill="#222222" rx="10" ry="10" style="stroke:#222222;stroke-width:1.0;"/><ellipse cx="256.9505" cy="729.6094" fill="none" rx="11" ry="11" style="stroke:#222222;stroke-width:1.0;"/><ellipse cx="256.9505" cy="729.6094" fill="#222222" rx="6" ry="6" style="stroke:#222222;stroke-width:1.0;"/><!--link *start*importarProfesores to SeleccionandoArchivo--><g id="link_*start*importarProfesores_SeleccionandoArchivo"><path d="M234.9505,65.9294 C234.9505,81.7894 234.9505,108.5194 234.9505,131.2494 " fill="none" id="*start*importarProfesores-to-SeleccionandoArchivo" style="stroke:#008000;stroke-width:1.0;"/><polygon fill="#008000" points="234.9505,137.2494,238.9505,128.2494,234.9505,132.2494,230.9505,128.2494,234.9505,137.2494" style="stroke:#008000;stroke-width:1.0;"/><path d="M239.9505,88.6094 L239.9505,114.6094 L509.9505,114.6094 L509.9505,98.6094 L499.9505,88.6094 L239.9505,88.6094 " fill="#FEFFDD" style="stroke:#181818;stroke-width:0.5;"/><path d="M499.9505,88.6094 L499.9505,98.6094 L509.9505,98.6094 L499.9505,88.6094 " fill="#FEFFDD" style="stroke:#181818;stroke-width:0.5;"/><text fill="#000000" font-family="sans-serif" font-size="13" font-weight="bold" lengthAdjust="spacing" textLength="89" x="245.9505" y="107.1045">Administrador</text><text fill="#000000" font-family="sans-serif" font-size="13" lengthAdjust="spacing" textLength="156" x="338.9505" y="107.1045">solicita importar profesores</text></g><!--link SeleccionandoArchivo to ProcesandoImportacion--><g id="link_SeleccionandoArchivo_ProcesandoImportacion"><path d="M234.9505,187.9794 C234.9505,226.9094 234.9505,296.6894 234.9505,335.4694 " fill="none" id="SeleccionandoArchivo-to-ProcesandoImportacion" style="stroke:#008000;stroke-width:1.0;"/><polygon fill="#008000" points="234.9505,341.4694,238.9505,332.4694,234.9505,336.4694,230.9505,332.4694,234.9505,341.4694" style="stroke:#008000;stroke-width:1.0;"/><path d="M239.9505,210.6094 L239.9505,318.6094 L500.9505,318.6094 L500.9505,220.6094 L490.9505,210.6094 L239.9505,210.6094 " fill="#FEFFDD" style="stroke:#181818;stroke-width:0.5;"/><path d="M490.9505,210.6094 L490.9505,220.6094 L500.9505,220.6094 L490.9505,210.6094 " fill="#FEFFDD" style="stroke:#181818;stroke-width:0.5;"/><text fill="#000000" font-family="sans-serif" font-size="13" font-weight="bold" lengthAdjust="spacing" textLength="51" x="245.9505" y="229.1045">Sistema</text><text fill="#000000" font-family="sans-serif" font-size="13" lengthAdjust="spacing" textLength="185" x="300.9505" y="229.1045">presenta interfaz de importaci&#243;n</text><text fill="#000000" font-family="sans-serif" font-size="13" lengthAdjust="spacing" textLength="236" x="245.9505" y="245.4561">&#8226; Permite seleccionar archivo CSV/Excel</text><text fill="#000000" font-family="sans-serif" font-size="13" lengthAdjust="spacing" textLength="222" x="245.9505" y="261.8076">&#8226; Muestra formato de archivo requerido</text><text fill="#000000" font-family="sans-serif" font-size="13" lengthAdjust="spacing" textLength="215" x="245.9505" y="278.1592">&#8226; Muestra departamentos disponibles</text><text fill="#000000" font-family="sans-serif" font-size="13" lengthAdjust="spacing" textLength="212" x="245.9505" y="294.5107">&#8226; Permite solicitar iniciar importaci&#243;n</text><text fill="#000000" font-family="sans-serif" font-size="13" lengthAdjust="spacing" textLength="227" x="245.9505" y="310.8623">&#8226; Permite solicitar cancelar importaci&#243;n</text></g><!--link ProcesandoImportacion to MostrandoResultados--><g id="link_ProcesandoImportacion_MostrandoResultados"><path d="M209.7405,372.6794 C154.1505,383.8494 25.9505,409.6094 25.9505,409.6094 C25.9505,409.6094 25.9505,478.6094 25.9505,478.6094 C25.9505,478.6094 27.8875,482.408 32.9275,492.258 " fill="none" id="ProcesandoImportacion-to-MostrandoResultados" style="stroke:#008000;stroke-width:1.0;"/><polygon fill="#008000" points="35.6605,497.5994,35.1218,487.7653,33.383,493.1482,28,491.4093,35.6605,497.5994" style="stroke:#008000;stroke-width:1.0;"/><path d="M30.9505,414.6094 L30.9505,473.6094 L425.9505,473.6094 L425.9505,424.6094 L415.9505,414.6094 L30.9505,414.6094 " fill="#FEFFDD" style="stroke:#181818;stroke-width:0.5;"/><path d="M415.9505,414.6094 L415.9505,424.6094 L425.9505,424.6094 L415.9505,414.6094 " fill="#FEFFDD" style="stroke:#181818;stroke-width:0.5;"/><text fill="#000000" font-family="sans-serif" font-size="13" font-weight="bold" lengthAdjust="spacing" textLength="89" x="36.9505" y="433.1045">Administrador</text><text fill="#000000" font-family="sans-serif" font-size="13" lengthAdjust="spacing" textLength="281" x="129.9505" y="433.1045">introduce selecci&#243;n de archivo y solicita importar</text><text fill="#000000" font-family="sans-serif" font-size="13" font-weight="bold" lengthAdjust="spacing" textLength="51" x="36.9505" y="449.4561">Sistema</text><text fill="#000000" font-family="sans-serif" font-size="13" lengthAdjust="spacing" textLength="248" x="91.9505" y="449.4561">visualiza y procesa el archivo seleccionado</text><text fill="#000000" font-family="sans-serif" font-size="13" font-weight="bold" lengthAdjust="spacing" textLength="51" x="36.9505" y="465.8076">Sistema</text><text fill="#000000" font-family="sans-serif" font-size="13" lengthAdjust="spacing" textLength="180" x="91.9505" y="465.8076">visualiza y valida emails &#250;nicos</text></g><!--link MostrandoResultados to *end*importarProfesores--><g id="link_MostrandoResultados_*end*importarProfesores"><path d="M57.1305,547.8494 C75.4805,596.3294 114.9505,700.6094 114.9505,700.6094 C114.9505,700.6094 207.3641,718.8274 240.3941,725.3474 " fill="none" id="MostrandoResultados-to-*end*importarProfesores" style="stroke:#008000;stroke-width:1.0;"/><polygon fill="#008000" points="246.2805,726.5094,238.2255,720.8422,241.3752,725.5411,236.6762,728.6907,246.2805,726.5094" style="stroke:#008000;stroke-width:1.0;"/><path d="M119.9505,571.6094 L119.9505,695.6094 L425.9505,695.6094 L425.9505,581.6094 L415.9505,571.6094 L119.9505,571.6094 " fill="#FEFFDD" style="stroke:#181818;stroke-width:0.5;"/><path d="M415.9505,571.6094 L415.9505,581.6094 L425.9505,581.6094 L415.9505,571.6094 " fill="#FEFFDD" style="stroke:#181818;stroke-width:0.5;"/><text fill="#000000" font-family="sans-serif" font-size="13" font-weight="bold" lengthAdjust="spacing" textLength="51" x="125.9505" y="590.1045">Sistema</text><text fill="#000000" font-family="sans-serif" font-size="13" lengthAdjust="spacing" textLength="203" x="180.9505" y="590.1045">presenta resultados de importaci&#243;n</text><text fill="#000000" font-family="sans-serif" font-size="13" lengthAdjust="spacing" textLength="253" x="125.9505" y="606.4561">&#8226; Muestra n&#250;mero de profesores importados</text><text fill="#000000" font-family="sans-serif" font-size="13" lengthAdjust="spacing" textLength="285" x="125.9505" y="622.8076">&#8226; Muestra profesores que no se pudieron importar</text><text fill="#000000" font-family="sans-serif" font-size="13" lengthAdjust="spacing" textLength="164" x="125.9505" y="639.1592">&#8226; Muestra emails duplicados</text><text fill="#000000" font-family="sans-serif" font-size="13" lengthAdjust="spacing" textLength="188" x="125.9505" y="655.5107">&#8226; Permite solicitar revisar errores</text><text fill="#000000" font-family="sans-serif" font-size="13" lengthAdjust="spacing" textLength="222" x="125.9505" y="671.8623">&#8226; Permite solicitar finalizar importaci&#243;n</text><text fill="#000000" font-family="sans-serif" font-size="13" font-weight="bold" lengthAdjust="spacing" textLength="89" x="125.9505" y="688.2139">Administrador</text><text fill="#000000" font-family="sans-serif" font-size="13" lengthAdjust="spacing" textLength="160" x="218.9505" y="688.2139">solicita finalizar importaci&#243;n</text></g><!--link ProcesandoImportacion to *end*importarProfesores--><g id="link_ProcesandoImportacion_*end*importarProfesores"><path d="M260.1705,373.0094 C313.1105,384.3594 430.9505,409.6094 430.9505,409.6094 C430.9505,409.6094 430.9505,700.6094 430.9505,700.6094 C430.9505,700.6094 311.8543,719.7763 273.7543,725.9063 " fill="none" id="ProcesandoImportacion-to-*end*importarProfesores" style="stroke:#FF0000;stroke-width:1.0;"/><polygon fill="#FF0000" points="267.8305,726.8594,277.3516,729.3789,272.767,726.0651,276.0808,721.4805,267.8305,726.8594" style="stroke:#FF0000;stroke-width:1.0;"/><path d="M435.9505,501.6094 L435.9505,543.6094 L778.9505,543.6094 L778.9505,511.6094 L768.9505,501.6094 L435.9505,501.6094 " fill="#FEFFDD" style="stroke:#181818;stroke-width:0.5;"/><path d="M768.9505,501.6094 L768.9505,511.6094 L778.9505,511.6094 L768.9505,501.6094 " fill="#FEFFDD" style="stroke:#181818;stroke-width:0.5;"/><text fill="#000000" font-family="sans-serif" font-size="13" font-weight="bold" lengthAdjust="spacing" textLength="89" x="441.9505" y="520.1045">Administrador</text><text fill="#000000" font-family="sans-serif" font-size="13" lengthAdjust="spacing" textLength="165" x="534.9505" y="520.1045">solicita cancelar importaci&#243;n</text><text fill="#000000" font-family="sans-serif" font-size="13" font-weight="bold" lengthAdjust="spacing" textLength="51" x="441.9505" y="536.4561">Sistema</text><text fill="#000000" font-family="sans-serif" font-size="13" lengthAdjust="spacing" textLength="267" x="496.9505" y="536.4561">visualiza y descarta el proceso de importaci&#243;n</text></g><g id="PROFESORES_ABIERTO"><rect fill="#F1F1F1" height="50" rx="12.5" ry="12.5" style="stroke:#181818;stroke-width:0.5;" width="184" x="305.5" y="847"/><line style="stroke:#181818;stroke-width:0.5;" x1="305.5" x2="489.5" y1="874.6094" y2="874.6094"/><text fill="#000000" font-family="sans-serif" font-size="14" lengthAdjust="spacing" textLength="164" x="315.5" y="866.5332">PROFESORES_ABIERTO</text></g><!--link importarProfesores to PROFESORES_ABIERTO--><g id="link_importarProfesores_PROFESORES_ABIERTO"><path d="M317.89,751.19 C313.9,769.82 311.5,781 311.5,781 C311.5,781 311.5,817 311.5,817 C311.5,817 331.0478,829.2808 353.9478,843.6508 " fill="none" id="importarProfesores-to-PROFESORES_ABIERTO" style="stroke:#008000;stroke-width:1.0;"/><polygon fill="#008000" points="359.03,846.84,353.5327,838.6681,354.7948,844.1824,349.2805,845.4444,359.03,846.84" style="stroke:#008000;stroke-width:1.0;"/><path d="M316.5,786 L316.5,812 L432.5,812 L432.5,796 L422.5,786 L316.5,786 " fill="#FEFFDD" style="stroke:#181818;stroke-width:0.5;"/><path d="M422.5,786 L422.5,796 L432.5,796 L422.5,786 " fill="#FEFFDD" style="stroke:#181818;stroke-width:0.5;"/><text fill="#000000" font-family="sans-serif" font-size="13" lengthAdjust="spacing" textLength="95" x="322.5" y="804.4951">abrirProfesores()</text></g><!--link importarProfesores to PROFESORES_ABIERTO--><g id="link_importarProfesores_PROFESORES_ABIERTO"><path d="M438.23,751.19 C440.27,769.82 441.5,781 441.5,781 C441.5,781 441.5,817 441.5,817 C441.5,817 432.6922,827.8204 420.9722,842.1904 " fill="none" id="importarProfesores-to-PROFESORES_ABIERTO-1" style="stroke:#FF0000;stroke-width:1.0;"/><polygon fill="#FF0000" points="417.18,846.84,425.9681,842.3937,420.3402,842.9653,419.7685,837.3374,417.18,846.84" style="stroke:#FF0000;stroke-width:1.0;"/><path d="M446.5,786 L446.5,812 L587.5,812 L587.5,796 L577.5,786 L446.5,786 " fill="#FEFFDD" style="stroke:#181818;stroke-width:0.5;"/><path d="M577.5,786 L577.5,796 L587.5,796 L577.5,786 " fill="#FEFFDD" style="stroke:#181818;stroke-width:0.5;"/><text fill="#000000" font-family="sans-serif" font-size="13" lengthAdjust="spacing" textLength="120" x="452.5" y="804.4951">cancelar importaci&#243;n</text></g><!--SRC=[ZLHBRjim4Dtp58IpQGi4kK1Wm2qS88l0WLLq4mG5BOvR8XI76Kf6dQ90pz8hT9UjRzAJTEYF9Dgq7NWXsNxptioRHuOduxmYLKbh7DHB3zAZNSOlGeHQrI1DvP5gHVU4SmX84AGASd3uyxlt0_bpLpNW3yCAi52M1fro6aTKVZSBJ15SNqA8Vzzk62CwXTnXg2aYfX0QMokDGOY73u_oyk7Y6m6unyjXNiaXiw2Bmps9wzbmf2lZJ6JJIDTNiw4CQ4rfQjMEANqxa02dPQGG8iUUoEV7sDSlM1igjLRsh00kAhiQQAvUf6xDBitghnF_Vl-Hzq2LOPBGDa1IRVK_5L-knZzAi6laNGDnC3b7gbIDaMq797XkW8p61AY1Dr-hYfl08BK97fsPMPux4TuQHDmdlyJdqHvRQAaSjxMFxUpCkfNucTlv-MsobOIwALk_MBPlnF9mt_jhMPZGA6jU58Fzfaq9jcNezi1kdYXTy8lcoaeP6-JgbRt3Vg0oyoNpSxpVbXxgwdFvsItRhLuhe7Kgke3luD7SFhY7uE1mnposz8qspE0wv_ebsq5ruzdVbl0m6GJi4Z-1Q7t4ygYvSMiZzm9q-WGVANf3wWZqCSzFwEL3VY8J6a8PJrpCqoPQUB2pjjjVGcHktkJAcKvkniLaEYw-ZZxUZgUV9sdtQaOckPvxLkIfjpwS8pvpkly3]--></g></svg>