<?xml version="1.0" encoding="us-ascii" standalone="no"?><svg xmlns="http://www.w3.org/2000/svg" xmlns:xlink="http://www.w3.org/1999/xlink" contentStyleType="text/css" height="682px" preserveAspectRatio="none" style="width:832px;height:682px;background:#FFFFFF;" version="1.1" viewBox="0 0 832 682" width="832px" zoomAndPan="magnify"><defs/><g><path d="M194.5,7 L509.5,7 A12.5,12.5 0 0 1 522,19.5 L522,34.6094 L182,34.6094 L182,19.5 A12.5,12.5 0 0 1 194.5,7 " fill="#F1F1F1" style="stroke:#F1F1F1;stroke-width:1.0;"/><rect fill="none" height="522.6094" rx="12.5" ry="12.5" style="stroke:#181818;stroke-width:0.5;" width="340" x="182" y="7"/><line style="stroke:#181818;stroke-width:0.5;" x1="182" x2="522" y1="34.6094" y2="34.6094"/><text fill="#000000" font-family="sans-serif" font-size="14" lengthAdjust="spacing" textLength="114" x="295" y="26.5332">abrirAsignaturas()</text><g id="abrirAsignaturas.MostrandoLista"><rect fill="#F1F1F1" height="50" rx="12.5" ry="12.5" style="stroke:#181818;stroke-width:0.5;" width="50" x="194" y="137.6094"/><line style="stroke:#181818;stroke-width:0.5;" x1="194" x2="244" y1="165.2188" y2="165.2188"/><text fill="#000000" font-family="sans-serif" font-size="14" lengthAdjust="spacing" textLength="4" x="217" y="157.1426">&#160;</text></g><g id="abrirAsignaturas.FiltrandoLista"><rect fill="#F1F1F1" height="50" rx="12.5" ry="12.5" style="stroke:#181818;stroke-width:0.5;" width="50" x="194" y="374.6094"/><line style="stroke:#181818;stroke-width:0.5;" x1="194" x2="244" y1="402.2188" y2="402.2188"/><text fill="#000000" font-family="sans-serif" font-size="14" lengthAdjust="spacing" textLength="4" x="217" y="394.1426">&#160;</text></g><ellipse cx="219" cy="55.6094" fill="#222222" rx="10" ry="10" style="stroke:#222222;stroke-width:1.0;"/><ellipse cx="219" cy="508.6094" fill="none" rx="11" ry="11" style="stroke:#222222;stroke-width:1.0;"/><ellipse cx="219" cy="508.6094" fill="#222222" rx="6" ry="6" style="stroke:#222222;stroke-width:1.0;"/><!--link *start*abrirAsignaturas to MostrandoLista--><g id="link_*start*abrirAsignaturas_MostrandoLista"><path d="M219,65.9294 C219,81.7894 219,108.5194 219,131.2494 " fill="none" id="*start*abrirAsignaturas-to-MostrandoLista" style="stroke:#008000;stroke-width:1.0;"/><polygon fill="#008000" points="219,137.2494,223,128.2494,219,132.2494,215,128.2494,219,137.2494" style="stroke:#008000;stroke-width:1.0;"/><path d="M224,88.6094 L224,114.6094 L479,114.6094 L479,98.6094 L469,88.6094 L224,88.6094 " fill="#FEFFDD" style="stroke:#181818;stroke-width:0.5;"/><path d="M469,88.6094 L469,98.6094 L479,98.6094 L469,88.6094 " fill="#FEFFDD" style="stroke:#181818;stroke-width:0.5;"/><text fill="#000000" font-family="sans-serif" font-size="13" font-weight="bold" lengthAdjust="spacing" textLength="89" x="230" y="107.1045">Administrador</text><text fill="#000000" font-family="sans-serif" font-size="13" lengthAdjust="spacing" textLength="141" x="323" y="107.1045">solicita abrir asignaturas</text></g><!--link MostrandoLista to FiltrandoLista--><g id="link_MostrandoLista_FiltrandoLista"><path d="M219,187.8694 C219,233.0194 219,323.4294 219,368.4794 " fill="none" id="MostrandoLista-to-FiltrandoLista" style="stroke:#008000;stroke-width:1.0;"/><polygon fill="#008000" points="219,374.4794,223,365.4794,219,369.4794,215,365.4794,219,374.4794" style="stroke:#008000;stroke-width:1.0;"/><path d="M224,210.6094 L224,350.6094 L513,350.6094 L513,220.6094 L503,210.6094 L224,210.6094 " fill="#FEFFDD" style="stroke:#181818;stroke-width:0.5;"/><path d="M503,210.6094 L503,220.6094 L513,220.6094 L503,210.6094 " fill="#FEFFDD" style="stroke:#181818;stroke-width:0.5;"/><text fill="#000000" font-family="sans-serif" font-size="13" font-weight="bold" lengthAdjust="spacing" textLength="51" x="230" y="229.1045">Sistema</text><text fill="#000000" font-family="sans-serif" font-size="13" lengthAdjust="spacing" textLength="167" x="285" y="229.1045">presenta lista de asignaturas</text><text fill="#000000" font-family="sans-serif" font-size="13" lengthAdjust="spacing" textLength="268" x="230" y="245.4561">&#8226; C&#243;digo, nombre, cr&#233;ditos de cada asignatura</text><text fill="#000000" font-family="sans-serif" font-size="13" lengthAdjust="spacing" textLength="144" x="230" y="261.8076">&#8226; Grado al que pertenece</text><text fill="#000000" font-family="sans-serif" font-size="13" lengthAdjust="spacing" textLength="163" x="230" y="278.1592">&#8226; Permite solicitar filtrar lista</text><text fill="#000000" font-family="sans-serif" font-size="13" lengthAdjust="spacing" textLength="237" x="230" y="294.5107">&#8226; Permite solicitar crear asignatura nueva</text><text fill="#000000" font-family="sans-serif" font-size="13" lengthAdjust="spacing" textLength="216" x="230" y="310.8623">&#8226; Permite solicitar eliminar asignatura</text><text fill="#000000" font-family="sans-serif" font-size="13" lengthAdjust="spacing" textLength="203" x="230" y="327.2139">&#8226; Permite solicitar editar asignatura</text><text fill="#000000" font-family="sans-serif" font-size="13" lengthAdjust="spacing" textLength="225" x="230" y="343.5654">&#8226; Permite solicitar importar asignaturas</text></g><!--link FiltrandoLista to FiltrandoLista--><g id="link_FiltrandoLista_FiltrandoLista"><path d="M244.18,388.0294 C253.91,387.5194 262,391.3794 262,399.6094 C262,407.8394 259.9018,412.0134 250.1718,411.5034 " fill="none" id="FiltrandoLista-to-FiltrandoLista" style="stroke:#008000;stroke-width:1.0;"/><polygon fill="#008000" points="244.18,411.1894,252.9583,415.655,249.1731,411.4511,253.377,407.6659,244.18,411.1894" style="stroke:#008000;stroke-width:1.0;"/><path d="M267,378.6094 L267,420.6094 L482,420.6094 L482,388.6094 L472,378.6094 L267,378.6094 " fill="#FEFFDD" style="stroke:#181818;stroke-width:0.5;"/><path d="M472,378.6094 L472,388.6094 L482,388.6094 L472,378.6094 " fill="#FEFFDD" style="stroke:#181818;stroke-width:0.5;"/><text fill="#000000" font-family="sans-serif" font-size="13" font-weight="bold" lengthAdjust="spacing" textLength="89" x="273" y="397.1045">Administrador</text><text fill="#000000" font-family="sans-serif" font-size="13" lengthAdjust="spacing" textLength="101" x="366" y="397.1045">solicita filtrar lista</text><text fill="#000000" font-family="sans-serif" font-size="13" font-weight="bold" lengthAdjust="spacing" textLength="51" x="273" y="413.4561">Sistema</text><text fill="#000000" font-family="sans-serif" font-size="13" lengthAdjust="spacing" textLength="120" x="328" y="413.4561">presenta lista filtrada</text></g><!--link FiltrandoLista to *end*abrirAsignaturas--><g id="link_FiltrandoLista_*end*abrirAsignaturas"><path d="M219,424.6194 C219,447.5394 219,474.9694 219,491.5294 " fill="none" id="FiltrandoLista-to-*end*abrirAsignaturas" style="stroke:#008000;stroke-width:1.0;"/><polygon fill="#008000" points="219,497.5294,223,488.5294,219,492.5294,215,488.5294,219,497.5294" style="stroke:#008000;stroke-width:1.0;"/><path d="M224,448.6094 L224,474.6094 L499,474.6094 L499,458.6094 L489,448.6094 L224,448.6094 " fill="#FEFFDD" style="stroke:#181818;stroke-width:0.5;"/><path d="M489,448.6094 L489,458.6094 L499,458.6094 L489,448.6094 " fill="#FEFFDD" style="stroke:#181818;stroke-width:0.5;"/><text fill="#000000" font-family="sans-serif" font-size="13" font-weight="bold" lengthAdjust="spacing" textLength="89" x="230" y="467.1045">Administrador</text><text fill="#000000" font-family="sans-serif" font-size="13" lengthAdjust="spacing" textLength="161" x="323" y="467.1045">solicita una de las opciones</text></g><g id="ASIGNATURA_ABIERTO"><rect fill="#F1F1F1" height="50" rx="12.5" ry="12.5" style="stroke:#181818;stroke-width:0.5;" width="175" x="39.5" y="626"/><line style="stroke:#181818;stroke-width:0.5;" x1="39.5" x2="214.5" y1="653.6094" y2="653.6094"/><text fill="#000000" font-family="sans-serif" font-size="14" lengthAdjust="spacing" textLength="155" x="49.5" y="645.5332">ASIGNATURA_ABIERTO</text></g><g id="ASIGNATURAS_ABIERTO"><rect fill="#F1F1F1" height="50" rx="12.5" ry="12.5" style="stroke:#181818;stroke-width:0.5;" width="184" x="314" y="626"/><line style="stroke:#181818;stroke-width:0.5;" x1="314" x2="498" y1="653.6094" y2="653.6094"/><text fill="#000000" font-family="sans-serif" font-size="14" lengthAdjust="spacing" textLength="164" x="324" y="645.5332">ASIGNATURAS_ABIERTO</text></g><g id="SISTEMA_DISPONIBLE"><rect fill="#F1F1F1" height="50" rx="12.5" ry="12.5" style="stroke:#181818;stroke-width:0.5;" width="167" x="649.5" y="626"/><line style="stroke:#181818;stroke-width:0.5;" x1="649.5" x2="816.5" y1="653.6094" y2="653.6094"/><text fill="#000000" font-family="sans-serif" font-size="14" lengthAdjust="spacing" textLength="147" x="659.5" y="645.5332">SISTEMA_DISPONIBLE</text></g><!--link abrirAsignaturas to ASIGNATURA_ABIERTO--><g id="link_abrirAsignaturas_ASIGNATURA_ABIERTO"><path d="M181.79,412.41 C94.37,485.81 6,560 6,560 C6,560 6,596 6,596 C6,596 35.1703,609.0261 67.3903,623.3961 " fill="none" id="abrirAsignaturas-to-ASIGNATURA_ABIERTO" style="stroke:#008000;stroke-width:1.0;"/><polygon fill="#008000" points="72.87,625.84,66.2797,618.521,68.3036,623.8034,63.0212,625.8272,72.87,625.84" style="stroke:#008000;stroke-width:1.0;"/><path d="M11,565 L11,591 L134,591 L134,575 L124,565 L11,565 " fill="#FEFFDD" style="stroke:#181818;stroke-width:0.5;"/><path d="M124,565 L124,575 L134,575 L124,565 " fill="#FEFFDD" style="stroke:#181818;stroke-width:0.5;"/><text fill="#000000" font-family="sans-serif" font-size="13" lengthAdjust="spacing" textLength="102" x="17" y="583.4951">editarAsignatura()</text></g><!--link abrirAsignaturas to ASIGNATURA_ABIERTO--><g id="link_abrirAsignaturas_ASIGNATURA_ABIERTO"><path d="M197.88,530.13 C174.64,569.44 157.2038,598.9153 144.3138,620.7153 " fill="none" id="abrirAsignaturas-to-ASIGNATURA_ABIERTO-1" style="stroke:#008000;stroke-width:1.0;"/><polygon fill="#008000" points="141.26,625.88,149.2839,620.1688,143.8048,621.5761,142.3976,616.0971,141.26,625.88" style="stroke:#008000;stroke-width:1.0;"/><path d="M181,565 L181,591 L301,591 L301,575 L291,565 L181,565 " fill="#FEFFDD" style="stroke:#181818;stroke-width:0.5;"/><path d="M291,565 L291,575 L301,575 L291,565 " fill="#FEFFDD" style="stroke:#181818;stroke-width:0.5;"/><text fill="#000000" font-family="sans-serif" font-size="13" lengthAdjust="spacing" textLength="99" x="187" y="583.4951">crearAsignatura()</text></g><!--link abrirAsignaturas to ASIGNATURAS_ABIERTO--><g id="link_abrirAsignaturas_ASIGNATURAS_ABIERTO"><path d="M349.31,530.01 C349.12,548.47 349,560 349,560 C349,560 349,596 349,596 C349,596 360.9627,607.3452 376.1427,621.7152 " fill="none" id="abrirAsignaturas-to-ASIGNATURAS_ABIERTO" style="stroke:#008000;stroke-width:1.0;"/><polygon fill="#008000" points="380.5,625.84,376.7139,616.7479,376.8689,622.4027,371.2142,622.5577,380.5,625.84" style="stroke:#008000;stroke-width:1.0;"/><path d="M354,565 L354,591 L490,591 L490,575 L480,565 L354,565 " fill="#FEFFDD" style="stroke:#181818;stroke-width:0.5;"/><path d="M480,565 L480,575 L490,575 L480,565 " fill="#FEFFDD" style="stroke:#181818;stroke-width:0.5;"/><text fill="#000000" font-family="sans-serif" font-size="13" lengthAdjust="spacing" textLength="115" x="360" y="583.4951">eliminarAsignatura()</text></g><!--link abrirAsignaturas to ASIGNATURAS_ABIERTO--><g id="link_abrirAsignaturas_ASIGNATURAS_ABIERTO"><path d="M483.82,530.01 C493.17,548.47 499,560 499,560 C499,560 499,596 499,596 C499,596 477.5599,608.4592 452.7899,622.8292 " fill="none" id="abrirAsignaturas-to-ASIGNATURAS_ABIERTO-1" style="stroke:#008000;stroke-width:1.0;"/><polygon fill="#008000" points="447.6,625.84,457.392,624.7837,451.9249,623.331,453.3776,617.8638,447.6,625.84" style="stroke:#008000;stroke-width:1.0;"/><path d="M504,565 L504,591 L649,591 L649,575 L639,565 L504,565 " fill="#FEFFDD" style="stroke:#181818;stroke-width:0.5;"/><path d="M639,565 L639,575 L649,575 L639,565 " fill="#FEFFDD" style="stroke:#181818;stroke-width:0.5;"/><text fill="#000000" font-family="sans-serif" font-size="13" lengthAdjust="spacing" textLength="124" x="510" y="583.4951">importarAsignaturas()</text></g><!--link abrirAsignaturas to SISTEMA_DISPONIBLE--><g id="link_abrirAsignaturas_SISTEMA_DISPONIBLE"><path d="M522.42,429.2 C594.45,496.7 662,560 662,560 C662,560 689.224,594.5092 710.254,621.1692 " fill="none" id="abrirAsignaturas-to-SISTEMA_DISPONIBLE" style="stroke:#008000;stroke-width:1.0;"/><polygon fill="#008000" points="713.97,625.88,711.5366,616.3365,710.8734,621.9543,705.2555,621.2911,713.97,625.88" style="stroke:#008000;stroke-width:1.0;"/><path d="M694,565 L694,591 L825,591 L825,575 L815,565 L694,565 " fill="#FEFFDD" style="stroke:#181818;stroke-width:0.5;"/><path d="M815,565 L815,575 L825,575 L815,565 " fill="#FEFFDD" style="stroke:#181818;stroke-width:0.5;"/><text fill="#000000" font-family="sans-serif" font-size="13" lengthAdjust="spacing" textLength="110" x="700" y="583.4951">completarGestion()</text></g><!--SRC=[jLJTQi8m6BtFKmHteqFP2uXGDoS5_x3kIaHYyqs2QT8bTI1Zi6VPtQxt2Bx9dcHVuvnjHpT5rXPAa_ETSxwVrAw4YfbX4PL2GRA9WSPQRj8FGcp24g1iOOJnh5WgbgmDinIVId6nMglGftr41My4zRLD35DSzmIkv_TkXSpkaUdbZ3Qc5qi3e6QDLY6M4gKnLglKvOeq5osFHqA95CErQLujMjHgAKA1M6SDDRwz4L2SEWAy22bGPrKBhegY0Qv2n9nSRC22mdZfM3Za53zUNkdrzfsBfQwZTBGmKAUXsRvnaMYReaF6MIR4HNJJR2YJz66DRG2JW88GtDO8J2JGpJvBG- -TLxFJBy641bYs55IjuR4C359WJNFuCYHthpzn8egroICFpI0aN-rJ6l5Bz_Db-RrfEondntd24Jt5o5gvgP0ux3eEXLQGoVsPa1_7Aglb1Nvtu4tknjxSQ_kTyMIObzvru11ThMLoE8lPZSnvn469vw_v-XVo_QZbVad7iWT-CEdqlVcD7uo60x_TwnHgegDO0h9tmIROoIpp9m00]--></g></svg>