<?xml version="1.0" encoding="us-ascii" standalone="no"?><svg xmlns="http://www.w3.org/2000/svg" xmlns:xlink="http://www.w3.org/1999/xlink" contentStyleType="text/css" height="442px" preserveAspectRatio="none" style="width:1907px;height:442px;background:#FFFFFF;" version="1.1" viewBox="0 0 1907 442" width="1907px" zoomAndPan="magnify"><defs/><g><!--cluster abrirExamenes--><g id="cluster_abrirExamenes"><path d="M179,6.602 L293,6.602 A3.75,3.75 0 0 1 295.5,9.102 L302.5,31.6699 L977,31.6699 A2.5,2.5 0 0 1 979.5,34.1699 L979.5,433.102 A2.5,2.5 0 0 1 977,435.602 L179,435.602 A2.5,2.5 0 0 1 176.5,433.102 L176.5,9.102 A2.5,2.5 0 0 1 179,6.602 " fill="none" style="stroke:#000000;stroke-width:1.5;"/><line style="stroke:#000000;stroke-width:1.5;" x1="176.5" x2="302.5" y1="31.6699" y2="31.6699"/><text fill="#000000" font-family="sans-serif" font-size="14" font-weight="bold" lengthAdjust="spacing" textLength="113" x="180.5" y="23.5679">abrirExamenes()</text></g><!--entity ListarExamenesView--><g id="elem_ListarExamenesView"><rect fill="#629EF9" height="39.0679" rx="2.5" ry="2.5" style="stroke:#181818;stroke-width:0.5;" width="156" x="807.5" y="44.602"/><text fill="#000000" font-family="sans-serif" font-size="14" lengthAdjust="spacing" textLength="136" x="817.5" y="69.5679">ListarExamenesView</text></g><!--entity ExamenController--><g id="elem_ExamenController"><rect fill="#B5BD68" height="39.0679" rx="2.5" ry="2.5" style="stroke:#181818;stroke-width:0.5;" width="140" x="368.5" y="162.602"/><text fill="#000000" font-family="sans-serif" font-size="14" lengthAdjust="spacing" textLength="120" x="378.5" y="187.5679">ExamenController</text></g><!--entity ExamenRepository--><g id="elem_ExamenRepository"><rect fill="#F2AC4E" height="39.0679" rx="2.5" ry="2.5" style="stroke:#181818;stroke-width:0.5;" width="144" x="367.5" y="280.602"/><text fill="#000000" font-family="sans-serif" font-size="14" lengthAdjust="spacing" textLength="124" x="377.5" y="305.5679">ExamenRepository</text></g><!--entity Examen--><g id="elem_Examen"><rect fill="#F2AC4E" height="39.0679" rx="2.5" ry="2.5" style="stroke:#181818;stroke-width:0.5;" width="73" x="403" y="380.602"/><text fill="#000000" font-family="sans-serif" font-size="14" lengthAdjust="spacing" textLength="53" x="413" y="405.5679">Examen</text></g><!--entity SistemaDisponible--><g id="elem_SistemaDisponible"><rect fill="#CDEBA5" height="39.0679" rx="2.5" ry="2.5" style="stroke:#181818;stroke-width:0.5;" width="153" x="7" y="44.602"/><text fill="#000000" font-family="sans-serif" font-size="14" lengthAdjust="spacing" textLength="133" x="17" y="69.5679">:Sistema Disponible</text></g><!--entity SistemaDisponibleSalida--><g id="elem_SistemaDisponibleSalida"><rect fill="#CDEBA5" height="39.0679" rx="2.5" ry="2.5" style="stroke:#181818;stroke-width:0.5;" width="153" x="996" y="162.602"/><text fill="#000000" font-family="sans-serif" font-size="14" lengthAdjust="spacing" textLength="133" x="1006" y="187.5679">:Sistema Disponible</text></g><!--entity CrearExamen--><g id="elem_CrearExamen"><rect fill="#CDEBA5" height="39.0679" rx="2.5" ry="2.5" style="stroke:#181818;stroke-width:0.5;" width="208" x="1184.5" y="162.602"/><text fill="#000000" font-family="sans-serif" font-size="14" lengthAdjust="spacing" textLength="188" x="1194.5" y="187.5679">:Collaboration CrearExamen</text></g><!--entity EditarExamen--><g id="elem_EditarExamen"><rect fill="#CDEBA5" height="39.0679" rx="2.5" ry="2.5" style="stroke:#181818;stroke-width:0.5;" width="211" x="1428" y="162.602"/><text fill="#000000" font-family="sans-serif" font-size="14" lengthAdjust="spacing" textLength="191" x="1438" y="187.5679">:Collaboration EditarExamen</text></g><!--entity EliminarExamen--><g id="elem_EliminarExamen"><rect fill="#CDEBA5" height="39.0679" rx="2.5" ry="2.5" style="stroke:#181818;stroke-width:0.5;" width="227" x="1674" y="162.602"/><text fill="#000000" font-family="sans-serif" font-size="14" lengthAdjust="spacing" textLength="207" x="1684" y="187.5679">:Collaboration EliminarExamen</text></g><!--link SistemaDisponible to ListarExamenesView--><g id="link_SistemaDisponible_ListarExamenesView"><path d="M160.04,64.102 C312.64,64.102 647.29,64.102 801.27,64.102 " fill="none" id="SistemaDisponible-to-ListarExamenesView" style="stroke:#181818;stroke-width:1.0;"/><polygon fill="#181818" points="807.27,64.102,798.27,60.102,802.27,64.102,798.27,68.102,807.27,64.102" style="stroke:#181818;stroke-width:1.0;"/><text fill="#000000" font-family="sans-serif" font-size="13" lengthAdjust="spacing" textLength="97" x="435.25" y="56.999">abrirExamenes()</text></g><!--link ListarExamenesView to ExamenController--><g id="link_ListarExamenesView_ExamenController"><path d="M807.3,71.122 C638.58,84.112 255.5,113.602 255.5,113.602 C255.5,113.602 255.5,132.602 255.5,132.602 C255.5,132.602 311.0705,147.324 362.7305,161.024 " fill="none" id="ListarExamenesView-to-ExamenController" style="stroke:#181818;stroke-width:1.0;"/><polygon fill="#181818" points="368.53,162.562,360.856,156.3886,363.6971,161.2803,358.8054,164.1213,368.53,162.562" style="stroke:#181818;stroke-width:1.0;"/><text fill="#000000" font-family="sans-serif" font-size="13" lengthAdjust="spacing" textLength="325" x="256.5" y="128.499">listarExamenes(filtros, pagina) : PagedResult&lt;Examen&gt;</text></g><!--link ListarExamenesView to ExamenController--><g id="link_ListarExamenesView_ExamenController"><path d="M807.49,79.652 C730.91,93.942 625.5,113.602 625.5,113.602 C625.5,113.602 586.5,132.602 586.5,132.602 C586.5,132.602 542.7315,146.9429 501.0015,160.6229 " fill="none" id="ListarExamenesView-to-ExamenController-1" style="stroke:#181818;stroke-width:1.0;"/><polygon fill="#181818" points="495.3,162.492,505.0982,163.4894,500.0512,160.9344,502.6061,155.8874,495.3,162.492" style="stroke:#181818;stroke-width:1.0;"/><text fill="#000000" font-family="sans-serif" font-size="13" lengthAdjust="spacing" textLength="336" x="626.5" y="128.499">filtrarExamenes(criterio, pagina) : PagedResult&lt;Examen&gt;</text></g><!--link ExamenController to ExamenRepository--><g id="link_ExamenController_ExamenRepository"><path d="M368.43,198.982 C306.02,213.132 224.5,231.602 224.5,231.602 C224.5,231.602 224.5,250.602 224.5,250.602 C224.5,250.602 298.9971,267.4117 361.4571,281.5017 " fill="none" id="ExamenController-to-ExamenRepository" style="stroke:#181818;stroke-width:1.0;"/><polygon fill="#181818" points="367.31,282.822,359.4108,276.9395,362.4326,281.7217,357.6504,284.7434,367.31,282.822" style="stroke:#181818;stroke-width:1.0;"/><text fill="#000000" font-family="sans-serif" font-size="13" lengthAdjust="spacing" textLength="346" x="225.5" y="246.499">obtenerPaginados(filtros, pagina) : PagedResult&lt;Examen&gt;</text></g><!--link ExamenController to ExamenRepository--><g id="link_ExamenController_ExamenRepository"><path d="M491.46,201.712 C530.38,215.392 576.5,231.602 576.5,231.602 C576.5,231.602 576.5,250.602 576.5,250.602 C576.5,250.602 536.3658,264.8091 497.7358,278.4891 " fill="none" id="ExamenController-to-ExamenRepository-1" style="stroke:#181818;stroke-width:1.0;"/><polygon fill="#181818" points="492.08,280.492,501.899,281.2582,496.7932,278.8229,499.2285,273.7171,492.08,280.492" style="stroke:#181818;stroke-width:1.0;"/><text fill="#000000" font-family="sans-serif" font-size="13" lengthAdjust="spacing" textLength="346" x="577.5" y="246.499">buscarPaginados(criterio, pagina) : PagedResult&lt;Examen&gt;</text></g><!--link ExamenRepository to Examen--><g id="link_ExamenRepository_Examen"><path d="M439.5,320.002 C439.5,337.462 439.5,363.262 439.5,380.592 " fill="none" id="ExamenRepository-Examen" style="stroke:#181818;stroke-width:1.0;"/></g><!--link ListarExamenesView to SistemaDisponibleSalida--><g id="link_ListarExamenesView_SistemaDisponibleSalida"><path d="M918.5,83.712 C942.76,97.392 971.5,113.602 971.5,113.602 C971.5,113.602 1009.7518,139.1676 1039.6418,159.1476 " fill="none" id="ListarExamenesView-to-SistemaDisponibleSalida" style="stroke:#181818;stroke-width:1.0;stroke-dasharray:7.0,7.0;"/><polygon fill="#181818" points="1044.63,162.482,1039.3706,154.155,1040.4732,159.7033,1034.9248,160.8059,1044.63,162.482" style="stroke:#181818;stroke-width:1.0;"/><text fill="#000000" font-family="sans-serif" font-size="13" lengthAdjust="spacing" textLength="115" x="999.5" y="128.499">completarGestion()</text></g><!--link ListarExamenesView to CrearExamen--><g id="link_ListarExamenesView_CrearExamen"><path d="M963.76,81.052 C1033.13,95.182 1123.5,113.602 1123.5,113.602 C1123.5,113.602 1188.5867,140.2302 1237.4267,160.2102 " fill="none" id="ListarExamenesView-to-CrearExamen" style="stroke:#181818;stroke-width:1.0;stroke-dasharray:7.0,7.0;"/><polygon fill="#181818" points="1242.98,162.482,1236.1646,155.3721,1238.3523,160.5888,1233.1355,162.7765,1242.98,162.482" style="stroke:#181818;stroke-width:1.0;"/><text fill="#000000" font-family="sans-serif" font-size="13" lengthAdjust="spacing" textLength="86" x="1168.5" y="128.499">crearExamen()</text></g><!--link ListarExamenesView to EditarExamen--><g id="link_ListarExamenesView_EditarExamen"><path d="M963.82,75.152 C1074.54,89.362 1263.5,113.602 1263.5,113.602 C1263.5,113.602 1373.6093,141.1263 1453.5393,161.1163 " fill="none" id="ListarExamenesView-to-EditarExamen" style="stroke:#181818;stroke-width:1.0;stroke-dasharray:7.0,7.0;"/><polygon fill="#181818" points="1459.36,162.572,1451.5994,156.5079,1454.5094,161.3589,1449.6584,164.2689,1459.36,162.572" style="stroke:#181818;stroke-width:1.0;"/><text fill="#000000" font-family="sans-serif" font-size="13" lengthAdjust="spacing" textLength="91" x="1336.5" y="128.499">editarExamen()</text></g><!--link ListarExamenesView to EliminarExamen--><g id="link_ListarExamenesView_EliminarExamen"><path d="M963.57,71.972 C1115.57,85.352 1436.5,113.602 1436.5,113.602 C1436.5,113.602 1581.318,141.4485 1685.228,161.4385 " fill="none" id="ListarExamenesView-to-EliminarExamen" style="stroke:#181818;stroke-width:1.0;stroke-dasharray:7.0,7.0;"/><polygon fill="#181818" points="1691.12,162.572,1683.0377,156.9438,1686.21,161.6274,1681.5264,164.7997,1691.12,162.572" style="stroke:#181818;stroke-width:1.0;"/><text fill="#000000" font-family="sans-serif" font-size="13" lengthAdjust="spacing" textLength="104" x="1531.5" y="128.499">eliminarExamen()</text></g><!--SRC=[hP9FQy904CNl-oc6zABGU90gDHJ1njXB3wBG-oQPok1cD-okj5BwtRl-tyGebjRRJDxx9SzvPacov9eN84YYNPS8fHBhpS2OninokH08T_4uUHxr88ZcP2mM7CPaIYKf5HW0Dx1VdxQCbJnRyWK2JpNfv9CNAD5ij45bqse7yCN0_RpNzRk3P3A0LqVbH-KRuKTTcFRIlFy8EqcifDLA2DHrsQGxYX-IlMo6fJ9abLvVbR7ll_q3Souevus8s7qaJvNcbfI4MECXv9RapJUuavninUulRl4BAaXM2PKLOsVH8DJXiE4w4THEozYv2CBScUiNYrm1VMNhdOHxPEwXv0ltCMs8OEhgbC_Gh8Hzskc6ZDL141xffqD7e5Bhi7gwXUNgj_mJol4F1MaCrvXj-p8lNAR9eYRrN-dIbScu5-vcVaE2JcTugSmHPAee1JhB2vfDVTo9Bo2y5ZlRQRZiy8iR0NhJ5K-bgivLcPtl1m00]--></g></svg>