<?xml version="1.0" encoding="us-ascii" standalone="no"?><svg xmlns="http://www.w3.org/2000/svg" xmlns:xlink="http://www.w3.org/1999/xlink" contentStyleType="text/css" height="1048px" preserveAspectRatio="none" style="width:2031px;height:1048px;background:#FFFFFF;" version="1.1" viewBox="0 0 2031 1048" width="2031px" zoomAndPan="magnify"><defs/><g><text fill="#000000" font-family="sans-serif" font-size="14" font-weight="bold" lengthAdjust="spacing" textLength="494" x="761.5" y="24.9659">Arquitectura Detallada de Dependencias y Dominio (NestJS + TypeORM)</text><!--cluster Controllers--><g id="cluster_Controllers"><rect fill="#E3F2FD" height="130" rx="2.5" ry="2.5" style="stroke:#000000;stroke-width:1.5;" width="2018" x="7" y="47.0679"/><text fill="#000000" font-family="sans-serif" font-size="12" font-weight="bold" lengthAdjust="spacing" textLength="134" x="949" y="61.896">API Layer (Controllers)</text></g><!--cluster Services--><g id="cluster_Services"><rect fill="#F1F8E9" height="97" rx="2.5" ry="2.5" style="stroke:#000000;stroke-width:1.5;" width="1354" x="308" y="201.0679"/><text fill="#000000" font-family="sans-serif" font-size="12" font-weight="bold" lengthAdjust="spacing" textLength="184" x="893" y="215.896">Business Logic Layer (Services)</text></g><!--cluster Repos--><g id="cluster_Repos"><rect fill="#FFF3E0" height="110" rx="2.5" ry="2.5" style="stroke:#000000;stroke-width:1.5;" width="1723" x="56" y="322.0679"/><text fill="#000000" font-family="sans-serif" font-size="12" font-weight="bold" lengthAdjust="spacing" textLength="191" x="822" y="336.896">Data Access Layer (Repositories)</text></g><!--cluster Domain--><g id="cluster_Domain"><rect fill="#FAFAFA" height="586" rx="2.5" ry="2.5" style="stroke:#000000;stroke-width:1.5;" width="377" x="524" y="456.0679"/><text fill="#000000" font-family="sans-serif" font-size="12" font-weight="bold" lengthAdjust="spacing" textLength="140" x="642.5" y="470.896">Domain Layer (Entities)</text></g><!--class AuthController--><g id="elem_AuthController"><rect codeLine="11" fill="#F1F1F1" height="78.6882" id="AuthController" rx="2.5" ry="2.5" style="stroke:#181818;stroke-width:0.5;" width="134" x="463" y="82.0679"/><ellipse cx="486.9" cy="97.0679" fill="#ADD1B2" rx="10" ry="10" style="stroke:#181818;stroke-width:1.0;"/><path d="M488.7281,101.3179 Q488.3219,101.521 487.8688,101.6304 Q487.4156,101.7398 486.9313,101.7398 Q485.15,101.7398 484.2125,100.5835 Q483.2906,99.4117 483.2906,97.2085 Q483.2906,94.9898 484.2125,93.8335 Q485.15,92.6617 486.9313,92.6617 Q487.4156,92.6617 487.8688,92.771 Q488.3375,92.8648 488.7281,93.0835 L488.7281,95.0054 Q488.2906,94.5992 487.8688,94.4117 Q487.4469,94.2085 487.0094,94.2085 Q486.0563,94.2085 485.5719,94.9742 Q485.0875,95.7242 485.0875,97.2085 Q485.0875,98.6773 485.5719,99.4273 Q486.0563,100.1773 487.0094,100.1773 Q487.4469,100.1773 487.8688,99.9898 Q488.2906,99.8023 488.7281,99.396 L488.7281,101.3179 Z " fill="#000000"/><text fill="#000000" font-family="sans-serif" font-size="12" lengthAdjust="spacing" textLength="82" x="502.1" y="101.7239">AuthController</text><line style="stroke:#181818;stroke-width:0.5;" x1="464" x2="596" y1="112.0679" y2="112.0679"/><line style="stroke:#181818;stroke-width:0.5;" x1="464" x2="596" y1="120.0679" y2="120.0679"/><ellipse cx="474" cy="133.74" fill="#84BE84" rx="3" ry="3" style="stroke:#038048;stroke-width:1.0;"/><text fill="#000000" font-family="sans-serif" font-size="12" lengthAdjust="spacing" textLength="109" x="482" y="136.896">login(dto: LoginDto)</text><ellipse cx="474" cy="150.0841" fill="#84BE84" rx="3" ry="3" style="stroke:#038048;stroke-width:1.0;"/><text fill="#000000" font-family="sans-serif" font-size="12" lengthAdjust="spacing" textLength="43" x="482" y="153.2401">logout()</text></g><!--class GradoController--><g id="elem_GradoController"><rect codeLine="15" fill="#F1F1F1" height="78.6882" id="GradoController" rx="2.5" ry="2.5" style="stroke:#181818;stroke-width:0.5;" width="180" x="248" y="82.0679"/><ellipse cx="288.55" cy="97.0679" fill="#ADD1B2" rx="10" ry="10" style="stroke:#181818;stroke-width:1.0;"/><path d="M290.3781,101.3179 Q289.9719,101.521 289.5188,101.6304 Q289.0656,101.7398 288.5813,101.7398 Q286.8,101.7398 285.8625,100.5835 Q284.9406,99.4117 284.9406,97.2085 Q284.9406,94.9898 285.8625,93.8335 Q286.8,92.6617 288.5813,92.6617 Q289.0656,92.6617 289.5188,92.771 Q289.9875,92.8648 290.3781,93.0835 L290.3781,95.0054 Q289.9406,94.5992 289.5188,94.4117 Q289.0969,94.2085 288.6594,94.2085 Q287.7063,94.2085 287.2219,94.9742 Q286.7375,95.7242 286.7375,97.2085 Q286.7375,98.6773 287.2219,99.4273 Q287.7063,100.1773 288.6594,100.1773 Q289.0969,100.1773 289.5188,99.9898 Q289.9406,99.8023 290.3781,99.396 L290.3781,101.3179 Z " fill="#000000"/><text fill="#000000" font-family="sans-serif" font-size="12" lengthAdjust="spacing" textLength="91" x="307.45" y="101.7239">GradoController</text><line style="stroke:#181818;stroke-width:0.5;" x1="249" x2="427" y1="112.0679" y2="112.0679"/><line style="stroke:#181818;stroke-width:0.5;" x1="249" x2="427" y1="120.0679" y2="120.0679"/><ellipse cx="259" cy="133.74" fill="#84BE84" rx="3" ry="3" style="stroke:#038048;stroke-width:1.0;"/><text fill="#000000" font-family="sans-serif" font-size="12" lengthAdjust="spacing" textLength="43" x="267" y="136.896">findAll()</text><ellipse cx="259" cy="150.0841" fill="#84BE84" rx="3" ry="3" style="stroke:#038048;stroke-width:1.0;"/><text fill="#000000" font-family="sans-serif" font-size="12" lengthAdjust="spacing" textLength="155" x="267" y="153.2401">create(dto: CrearGradoDto)</text></g><!--class AsignaturaController--><g id="elem_AsignaturaController"><rect codeLine="19" fill="#F1F1F1" height="78.6882" id="AsignaturaController" rx="2.5" ry="2.5" style="stroke:#181818;stroke-width:0.5;" width="206" x="1803" y="82.0679"/><ellipse cx="1843.55" cy="97.0679" fill="#ADD1B2" rx="10" ry="10" style="stroke:#181818;stroke-width:1.0;"/><path d="M1845.3781,101.3179 Q1844.9719,101.521 1844.5188,101.6304 Q1844.0656,101.7398 1843.5813,101.7398 Q1841.8,101.7398 1840.8625,100.5835 Q1839.9406,99.4117 1839.9406,97.2085 Q1839.9406,94.9898 1840.8625,93.8335 Q1841.8,92.6617 1843.5813,92.6617 Q1844.0656,92.6617 1844.5188,92.771 Q1844.9875,92.8648 1845.3781,93.0835 L1845.3781,95.0054 Q1844.9406,94.5992 1844.5188,94.4117 Q1844.0969,94.2085 1843.6594,94.2085 Q1842.7063,94.2085 1842.2219,94.9742 Q1841.7375,95.7242 1841.7375,97.2085 Q1841.7375,98.6773 1842.2219,99.4273 Q1842.7063,100.1773 1843.6594,100.1773 Q1844.0969,100.1773 1844.5188,99.9898 Q1844.9406,99.8023 1845.3781,99.396 L1845.3781,101.3179 Z " fill="#000000"/><text fill="#000000" font-family="sans-serif" font-size="12" lengthAdjust="spacing" textLength="117" x="1862.45" y="101.7239">AsignaturaController</text><line style="stroke:#181818;stroke-width:0.5;" x1="1804" x2="2008" y1="112.0679" y2="112.0679"/><line style="stroke:#181818;stroke-width:0.5;" x1="1804" x2="2008" y1="120.0679" y2="120.0679"/><ellipse cx="1814" cy="133.74" fill="#84BE84" rx="3" ry="3" style="stroke:#038048;stroke-width:1.0;"/><text fill="#000000" font-family="sans-serif" font-size="12" lengthAdjust="spacing" textLength="43" x="1822" y="136.896">findAll()</text><ellipse cx="1814" cy="150.0841" fill="#84BE84" rx="3" ry="3" style="stroke:#038048;stroke-width:1.0;"/><text fill="#000000" font-family="sans-serif" font-size="12" lengthAdjust="spacing" textLength="181" x="1822" y="153.2401">create(dto: CrearAsignaturaDto)</text></g><!--class ProfesorController--><g id="elem_ProfesorController"><rect codeLine="23" fill="#F1F1F1" height="78.6882" id="ProfesorController" rx="2.5" ry="2.5" style="stroke:#181818;stroke-width:0.5;" width="193" x="1574.5" y="82.0679"/><ellipse cx="1615.05" cy="97.0679" fill="#ADD1B2" rx="10" ry="10" style="stroke:#181818;stroke-width:1.0;"/><path d="M1616.8781,101.3179 Q1616.4719,101.521 1616.0188,101.6304 Q1615.5656,101.7398 1615.0813,101.7398 Q1613.3,101.7398 1612.3625,100.5835 Q1611.4406,99.4117 1611.4406,97.2085 Q1611.4406,94.9898 1612.3625,93.8335 Q1613.3,92.6617 1615.0813,92.6617 Q1615.5656,92.6617 1616.0188,92.771 Q1616.4875,92.8648 1616.8781,93.0835 L1616.8781,95.0054 Q1616.4406,94.5992 1616.0188,94.4117 Q1615.5969,94.2085 1615.1594,94.2085 Q1614.2063,94.2085 1613.7219,94.9742 Q1613.2375,95.7242 1613.2375,97.2085 Q1613.2375,98.6773 1613.7219,99.4273 Q1614.2063,100.1773 1615.1594,100.1773 Q1615.5969,100.1773 1616.0188,99.9898 Q1616.4406,99.8023 1616.8781,99.396 L1616.8781,101.3179 Z " fill="#000000"/><text fill="#000000" font-family="sans-serif" font-size="12" lengthAdjust="spacing" textLength="104" x="1633.95" y="101.7239">ProfesorController</text><line style="stroke:#181818;stroke-width:0.5;" x1="1575.5" x2="1766.5" y1="112.0679" y2="112.0679"/><line style="stroke:#181818;stroke-width:0.5;" x1="1575.5" x2="1766.5" y1="120.0679" y2="120.0679"/><ellipse cx="1585.5" cy="133.74" fill="#84BE84" rx="3" ry="3" style="stroke:#038048;stroke-width:1.0;"/><text fill="#000000" font-family="sans-serif" font-size="12" lengthAdjust="spacing" textLength="43" x="1593.5" y="136.896">findAll()</text><ellipse cx="1585.5" cy="150.0841" fill="#84BE84" rx="3" ry="3" style="stroke:#038048;stroke-width:1.0;"/><text fill="#000000" font-family="sans-serif" font-size="12" lengthAdjust="spacing" textLength="168" x="1593.5" y="153.2401">create(dto: CrearProfesorDto)</text></g><!--class AulaController--><g id="elem_AulaController"><rect codeLine="27" fill="#F1F1F1" height="78.6882" id="AulaController" rx="2.5" ry="2.5" style="stroke:#181818;stroke-width:0.5;" width="170" x="1104" y="82.0679"/><ellipse cx="1144.55" cy="97.0679" fill="#ADD1B2" rx="10" ry="10" style="stroke:#181818;stroke-width:1.0;"/><path d="M1146.3781,101.3179 Q1145.9719,101.521 1145.5188,101.6304 Q1145.0656,101.7398 1144.5813,101.7398 Q1142.8,101.7398 1141.8625,100.5835 Q1140.9406,99.4117 1140.9406,97.2085 Q1140.9406,94.9898 1141.8625,93.8335 Q1142.8,92.6617 1144.5813,92.6617 Q1145.0656,92.6617 1145.5188,92.771 Q1145.9875,92.8648 1146.3781,93.0835 L1146.3781,95.0054 Q1145.9406,94.5992 1145.5188,94.4117 Q1145.0969,94.2085 1144.6594,94.2085 Q1143.7063,94.2085 1143.2219,94.9742 Q1142.7375,95.7242 1142.7375,97.2085 Q1142.7375,98.6773 1143.2219,99.4273 Q1143.7063,100.1773 1144.6594,100.1773 Q1145.0969,100.1773 1145.5188,99.9898 Q1145.9406,99.8023 1146.3781,99.396 L1146.3781,101.3179 Z " fill="#000000"/><text fill="#000000" font-family="sans-serif" font-size="12" lengthAdjust="spacing" textLength="81" x="1163.45" y="101.7239">AulaController</text><line style="stroke:#181818;stroke-width:0.5;" x1="1105" x2="1273" y1="112.0679" y2="112.0679"/><line style="stroke:#181818;stroke-width:0.5;" x1="1105" x2="1273" y1="120.0679" y2="120.0679"/><ellipse cx="1115" cy="133.74" fill="#84BE84" rx="3" ry="3" style="stroke:#038048;stroke-width:1.0;"/><text fill="#000000" font-family="sans-serif" font-size="12" lengthAdjust="spacing" textLength="43" x="1123" y="136.896">findAll()</text><ellipse cx="1115" cy="150.0841" fill="#84BE84" rx="3" ry="3" style="stroke:#038048;stroke-width:1.0;"/><text fill="#000000" font-family="sans-serif" font-size="12" lengthAdjust="spacing" textLength="145" x="1123" y="153.2401">create(dto: CrearAulaDto)</text></g><!--class AlumnoController--><g id="elem_AlumnoController"><rect codeLine="31" fill="#F1F1F1" height="78.6882" id="AlumnoController" rx="2.5" ry="2.5" style="stroke:#181818;stroke-width:0.5;" width="188" x="632" y="82.0679"/><ellipse cx="672.55" cy="97.0679" fill="#ADD1B2" rx="10" ry="10" style="stroke:#181818;stroke-width:1.0;"/><path d="M674.3781,101.3179 Q673.9719,101.521 673.5188,101.6304 Q673.0656,101.7398 672.5813,101.7398 Q670.8,101.7398 669.8625,100.5835 Q668.9406,99.4117 668.9406,97.2085 Q668.9406,94.9898 669.8625,93.8335 Q670.8,92.6617 672.5813,92.6617 Q673.0656,92.6617 673.5188,92.771 Q673.9875,92.8648 674.3781,93.0835 L674.3781,95.0054 Q673.9406,94.5992 673.5188,94.4117 Q673.0969,94.2085 672.6594,94.2085 Q671.7063,94.2085 671.2219,94.9742 Q670.7375,95.7242 670.7375,97.2085 Q670.7375,98.6773 671.2219,99.4273 Q671.7063,100.1773 672.6594,100.1773 Q673.0969,100.1773 673.5188,99.9898 Q673.9406,99.8023 674.3781,99.396 L674.3781,101.3179 Z " fill="#000000"/><text fill="#000000" font-family="sans-serif" font-size="12" lengthAdjust="spacing" textLength="99" x="691.45" y="101.7239">AlumnoController</text><line style="stroke:#181818;stroke-width:0.5;" x1="633" x2="819" y1="112.0679" y2="112.0679"/><line style="stroke:#181818;stroke-width:0.5;" x1="633" x2="819" y1="120.0679" y2="120.0679"/><ellipse cx="643" cy="133.74" fill="#84BE84" rx="3" ry="3" style="stroke:#038048;stroke-width:1.0;"/><text fill="#000000" font-family="sans-serif" font-size="12" lengthAdjust="spacing" textLength="43" x="651" y="136.896">findAll()</text><ellipse cx="643" cy="150.0841" fill="#84BE84" rx="3" ry="3" style="stroke:#038048;stroke-width:1.0;"/><text fill="#000000" font-family="sans-serif" font-size="12" lengthAdjust="spacing" textLength="163" x="651" y="153.2401">create(dto: CrearAlumnoDto)</text></g><!--class ExamenController--><g id="elem_ExamenController"><rect codeLine="35" fill="#F1F1F1" height="78.6882" id="ExamenController" rx="2.5" ry="2.5" style="stroke:#181818;stroke-width:0.5;" width="190" x="23" y="82.0679"/><ellipse cx="63.55" cy="97.0679" fill="#ADD1B2" rx="10" ry="10" style="stroke:#181818;stroke-width:1.0;"/><path d="M65.3781,101.3179 Q64.9719,101.521 64.5188,101.6304 Q64.0656,101.7398 63.5813,101.7398 Q61.8,101.7398 60.8625,100.5835 Q59.9406,99.4117 59.9406,97.2085 Q59.9406,94.9898 60.8625,93.8335 Q61.8,92.6617 63.5813,92.6617 Q64.0656,92.6617 64.5188,92.771 Q64.9875,92.8648 65.3781,93.0835 L65.3781,95.0054 Q64.9406,94.5992 64.5188,94.4117 Q64.0969,94.2085 63.6594,94.2085 Q62.7063,94.2085 62.2219,94.9742 Q61.7375,95.7242 61.7375,97.2085 Q61.7375,98.6773 62.2219,99.4273 Q62.7063,100.1773 63.6594,100.1773 Q64.0969,100.1773 64.5188,99.9898 Q64.9406,99.8023 65.3781,99.396 L65.3781,101.3179 Z " fill="#000000"/><text fill="#000000" font-family="sans-serif" font-size="12" lengthAdjust="spacing" textLength="101" x="82.45" y="101.7239">ExamenController</text><line style="stroke:#181818;stroke-width:0.5;" x1="24" x2="212" y1="112.0679" y2="112.0679"/><line style="stroke:#181818;stroke-width:0.5;" x1="24" x2="212" y1="120.0679" y2="120.0679"/><ellipse cx="34" cy="133.74" fill="#84BE84" rx="3" ry="3" style="stroke:#038048;stroke-width:1.0;"/><text fill="#000000" font-family="sans-serif" font-size="12" lengthAdjust="spacing" textLength="43" x="42" y="136.896">findAll()</text><ellipse cx="34" cy="150.0841" fill="#84BE84" rx="3" ry="3" style="stroke:#038048;stroke-width:1.0;"/><text fill="#000000" font-family="sans-serif" font-size="12" lengthAdjust="spacing" textLength="165" x="42" y="153.2401">create(dto: CrearExamenDto)</text></g><!--class CalendarioController--><g id="elem_CalendarioController"><rect codeLine="39" fill="#F1F1F1" height="78.6882" id="CalendarioController" rx="2.5" ry="2.5" style="stroke:#181818;stroke-width:0.5;" width="230" x="1309" y="82.0679"/><ellipse cx="1361.5" cy="97.0679" fill="#ADD1B2" rx="10" ry="10" style="stroke:#181818;stroke-width:1.0;"/><path d="M1363.3281,101.3179 Q1362.9219,101.521 1362.4688,101.6304 Q1362.0156,101.7398 1361.5313,101.7398 Q1359.75,101.7398 1358.8125,100.5835 Q1357.8906,99.4117 1357.8906,97.2085 Q1357.8906,94.9898 1358.8125,93.8335 Q1359.75,92.6617 1361.5313,92.6617 Q1362.0156,92.6617 1362.4688,92.771 Q1362.9375,92.8648 1363.3281,93.0835 L1363.3281,95.0054 Q1362.8906,94.5992 1362.4688,94.4117 Q1362.0469,94.2085 1361.6094,94.2085 Q1360.6563,94.2085 1360.1719,94.9742 Q1359.6875,95.7242 1359.6875,97.2085 Q1359.6875,98.6773 1360.1719,99.4273 Q1360.6563,100.1773 1361.6094,100.1773 Q1362.0469,100.1773 1362.4688,99.9898 Q1362.8906,99.8023 1363.3281,99.396 L1363.3281,101.3179 Z " fill="#000000"/><text fill="#000000" font-family="sans-serif" font-size="12" lengthAdjust="spacing" textLength="117" x="1380.5" y="101.7239">CalendarioController</text><line style="stroke:#181818;stroke-width:0.5;" x1="1310" x2="1538" y1="112.0679" y2="112.0679"/><line style="stroke:#181818;stroke-width:0.5;" x1="1310" x2="1538" y1="120.0679" y2="120.0679"/><ellipse cx="1320" cy="133.74" fill="#84BE84" rx="3" ry="3" style="stroke:#038048;stroke-width:1.0;"/><text fill="#000000" font-family="sans-serif" font-size="12" lengthAdjust="spacing" textLength="205" x="1328" y="136.896">generar(dto: GenerarCalendarioDto)</text><ellipse cx="1320" cy="150.0841" fill="#84BE84" rx="3" ry="3" style="stroke:#038048;stroke-width:1.0;"/><text fill="#000000" font-family="sans-serif" font-size="12" lengthAdjust="spacing" textLength="84" x="1328" y="153.2401">findConflictos()</text></g><!--class IncidenciaController--><g id="elem_IncidenciaController"><rect codeLine="43" fill="#F1F1F1" height="62.3441" id="IncidenciaController" rx="2.5" ry="2.5" style="stroke:#181818;stroke-width:0.5;" width="213" x="855.5" y="90.5679"/><ellipse cx="901.5" cy="105.5679" fill="#ADD1B2" rx="10" ry="10" style="stroke:#181818;stroke-width:1.0;"/><path d="M903.3281,109.8179 Q902.9219,110.021 902.4688,110.1304 Q902.0156,110.2398 901.5313,110.2398 Q899.75,110.2398 898.8125,109.0835 Q897.8906,107.9117 897.8906,105.7085 Q897.8906,103.4898 898.8125,102.3335 Q899.75,101.1617 901.5313,101.1617 Q902.0156,101.1617 902.4688,101.271 Q902.9375,101.3648 903.3281,101.5835 L903.3281,103.5054 Q902.8906,103.0992 902.4688,102.9117 Q902.0469,102.7085 901.6094,102.7085 Q900.6563,102.7085 900.1719,103.4742 Q899.6875,104.2242 899.6875,105.7085 Q899.6875,107.1773 900.1719,107.9273 Q900.6563,108.6773 901.6094,108.6773 Q902.0469,108.6773 902.4688,108.4898 Q902.8906,108.3023 903.3281,107.896 L903.3281,109.8179 Z " fill="#000000"/><text fill="#000000" font-family="sans-serif" font-size="12" lengthAdjust="spacing" textLength="113" x="920.5" y="110.2239">IncidenciaController</text><line style="stroke:#181818;stroke-width:0.5;" x1="856.5" x2="1067.5" y1="120.5679" y2="120.5679"/><line style="stroke:#181818;stroke-width:0.5;" x1="856.5" x2="1067.5" y1="128.5679" y2="128.5679"/><ellipse cx="866.5" cy="142.24" fill="#84BE84" rx="3" ry="3" style="stroke:#038048;stroke-width:1.0;"/><text fill="#000000" font-family="sans-serif" font-size="12" lengthAdjust="spacing" textLength="188" x="874.5" y="145.396">reportar(dto: CrearIncidenciaDto)</text></g><!--class AuthService--><g id="elem_AuthService"><rect codeLine="49" fill="#F1F1F1" height="46" id="AuthService" rx="2.5" ry="2.5" style="stroke:#181818;stroke-width:0.5;" width="97" x="616.5" y="236.0679"/><ellipse cx="630.5" cy="251.0679" fill="#ADD1B2" rx="10" ry="10" style="stroke:#181818;stroke-width:1.0;"/><path d="M632.3281,255.3179 Q631.9219,255.521 631.4688,255.6304 Q631.0156,255.7398 630.5313,255.7398 Q628.75,255.7398 627.8125,254.5835 Q626.8906,253.4117 626.8906,251.2085 Q626.8906,248.9898 627.8125,247.8335 Q628.75,246.6617 630.5313,246.6617 Q631.0156,246.6617 631.4688,246.771 Q631.9375,246.8648 632.3281,247.0835 L632.3281,249.0054 Q631.8906,248.5992 631.4688,248.4117 Q631.0469,248.2085 630.6094,248.2085 Q629.6563,248.2085 629.1719,248.9742 Q628.6875,249.7242 628.6875,251.2085 Q628.6875,252.6773 629.1719,253.4273 Q629.6563,254.1773 630.6094,254.1773 Q631.0469,254.1773 631.4688,253.9898 Q631.8906,253.8023 632.3281,253.396 L632.3281,255.3179 Z " fill="#000000"/><text fill="#000000" font-family="sans-serif" font-size="12" lengthAdjust="spacing" textLength="67" x="643.5" y="255.7239">AuthService</text><line style="stroke:#181818;stroke-width:0.5;" x1="617.5" x2="712.5" y1="266.0679" y2="266.0679"/><line style="stroke:#181818;stroke-width:0.5;" x1="617.5" x2="712.5" y1="274.0679" y2="274.0679"/></g><!--class GradoService--><g id="elem_GradoService"><rect codeLine="50" fill="#F1F1F1" height="46" id="GradoService" rx="2.5" ry="2.5" style="stroke:#181818;stroke-width:0.5;" width="106" x="475" y="236.0679"/><ellipse cx="489" cy="251.0679" fill="#ADD1B2" rx="10" ry="10" style="stroke:#181818;stroke-width:1.0;"/><path d="M490.8281,255.3179 Q490.4219,255.521 489.9688,255.6304 Q489.5156,255.7398 489.0313,255.7398 Q487.25,255.7398 486.3125,254.5835 Q485.3906,253.4117 485.3906,251.2085 Q485.3906,248.9898 486.3125,247.8335 Q487.25,246.6617 489.0313,246.6617 Q489.5156,246.6617 489.9688,246.771 Q490.4375,246.8648 490.8281,247.0835 L490.8281,249.0054 Q490.3906,248.5992 489.9688,248.4117 Q489.5469,248.2085 489.1094,248.2085 Q488.1563,248.2085 487.6719,248.9742 Q487.1875,249.7242 487.1875,251.2085 Q487.1875,252.6773 487.6719,253.4273 Q488.1563,254.1773 489.1094,254.1773 Q489.5469,254.1773 489.9688,253.9898 Q490.3906,253.8023 490.8281,253.396 L490.8281,255.3179 Z " fill="#000000"/><text fill="#000000" font-family="sans-serif" font-size="12" lengthAdjust="spacing" textLength="76" x="502" y="255.7239">GradoService</text><line style="stroke:#181818;stroke-width:0.5;" x1="476" x2="580" y1="266.0679" y2="266.0679"/><line style="stroke:#181818;stroke-width:0.5;" x1="476" x2="580" y1="274.0679" y2="274.0679"/></g><!--class AsignaturaService--><g id="elem_AsignaturaService"><rect codeLine="51" fill="#F1F1F1" height="46" id="AsignaturaService" rx="2.5" ry="2.5" style="stroke:#181818;stroke-width:0.5;" width="132" x="1514" y="236.0679"/><ellipse cx="1528" cy="251.0679" fill="#ADD1B2" rx="10" ry="10" style="stroke:#181818;stroke-width:1.0;"/><path d="M1529.8281,255.3179 Q1529.4219,255.521 1528.9688,255.6304 Q1528.5156,255.7398 1528.0313,255.7398 Q1526.25,255.7398 1525.3125,254.5835 Q1524.3906,253.4117 1524.3906,251.2085 Q1524.3906,248.9898 1525.3125,247.8335 Q1526.25,246.6617 1528.0313,246.6617 Q1528.5156,246.6617 1528.9688,246.771 Q1529.4375,246.8648 1529.8281,247.0835 L1529.8281,249.0054 Q1529.3906,248.5992 1528.9688,248.4117 Q1528.5469,248.2085 1528.1094,248.2085 Q1527.1563,248.2085 1526.6719,248.9742 Q1526.1875,249.7242 1526.1875,251.2085 Q1526.1875,252.6773 1526.6719,253.4273 Q1527.1563,254.1773 1528.1094,254.1773 Q1528.5469,254.1773 1528.9688,253.9898 Q1529.3906,253.8023 1529.8281,253.396 L1529.8281,255.3179 Z " fill="#000000"/><text fill="#000000" font-family="sans-serif" font-size="12" lengthAdjust="spacing" textLength="102" x="1541" y="255.7239">AsignaturaService</text><line style="stroke:#181818;stroke-width:0.5;" x1="1515" x2="1645" y1="266.0679" y2="266.0679"/><line style="stroke:#181818;stroke-width:0.5;" x1="1515" x2="1645" y1="274.0679" y2="274.0679"/></g><!--class ProfesorService--><g id="elem_ProfesorService"><rect codeLine="52" fill="#F1F1F1" height="46" id="ProfesorService" rx="2.5" ry="2.5" style="stroke:#181818;stroke-width:0.5;" width="119" x="1359.5" y="236.0679"/><ellipse cx="1373.5" cy="251.0679" fill="#ADD1B2" rx="10" ry="10" style="stroke:#181818;stroke-width:1.0;"/><path d="M1375.3281,255.3179 Q1374.9219,255.521 1374.4688,255.6304 Q1374.0156,255.7398 1373.5313,255.7398 Q1371.75,255.7398 1370.8125,254.5835 Q1369.8906,253.4117 1369.8906,251.2085 Q1369.8906,248.9898 1370.8125,247.8335 Q1371.75,246.6617 1373.5313,246.6617 Q1374.0156,246.6617 1374.4688,246.771 Q1374.9375,246.8648 1375.3281,247.0835 L1375.3281,249.0054 Q1374.8906,248.5992 1374.4688,248.4117 Q1374.0469,248.2085 1373.6094,248.2085 Q1372.6563,248.2085 1372.1719,248.9742 Q1371.6875,249.7242 1371.6875,251.2085 Q1371.6875,252.6773 1372.1719,253.4273 Q1372.6563,254.1773 1373.6094,254.1773 Q1374.0469,254.1773 1374.4688,253.9898 Q1374.8906,253.8023 1375.3281,253.396 L1375.3281,255.3179 Z " fill="#000000"/><text fill="#000000" font-family="sans-serif" font-size="12" lengthAdjust="spacing" textLength="89" x="1386.5" y="255.7239">ProfesorService</text><line style="stroke:#181818;stroke-width:0.5;" x1="1360.5" x2="1477.5" y1="266.0679" y2="266.0679"/><line style="stroke:#181818;stroke-width:0.5;" x1="1360.5" x2="1477.5" y1="274.0679" y2="274.0679"/></g><!--class AulaService--><g id="elem_AulaService"><rect codeLine="53" fill="#F1F1F1" height="46" id="AulaService" rx="2.5" ry="2.5" style="stroke:#181818;stroke-width:0.5;" width="96" x="1061" y="236.0679"/><ellipse cx="1075" cy="251.0679" fill="#ADD1B2" rx="10" ry="10" style="stroke:#181818;stroke-width:1.0;"/><path d="M1076.8281,255.3179 Q1076.4219,255.521 1075.9688,255.6304 Q1075.5156,255.7398 1075.0313,255.7398 Q1073.25,255.7398 1072.3125,254.5835 Q1071.3906,253.4117 1071.3906,251.2085 Q1071.3906,248.9898 1072.3125,247.8335 Q1073.25,246.6617 1075.0313,246.6617 Q1075.5156,246.6617 1075.9688,246.771 Q1076.4375,246.8648 1076.8281,247.0835 L1076.8281,249.0054 Q1076.3906,248.5992 1075.9688,248.4117 Q1075.5469,248.2085 1075.1094,248.2085 Q1074.1563,248.2085 1073.6719,248.9742 Q1073.1875,249.7242 1073.1875,251.2085 Q1073.1875,252.6773 1073.6719,253.4273 Q1074.1563,254.1773 1075.1094,254.1773 Q1075.5469,254.1773 1075.9688,253.9898 Q1076.3906,253.8023 1076.8281,253.396 L1076.8281,255.3179 Z " fill="#000000"/><text fill="#000000" font-family="sans-serif" font-size="12" lengthAdjust="spacing" textLength="66" x="1088" y="255.7239">AulaService</text><line style="stroke:#181818;stroke-width:0.5;" x1="1062" x2="1156" y1="266.0679" y2="266.0679"/><line style="stroke:#181818;stroke-width:0.5;" x1="1062" x2="1156" y1="274.0679" y2="274.0679"/></g><!--class AlumnoService--><g id="elem_AlumnoService"><rect codeLine="54" fill="#F1F1F1" height="46" id="AlumnoService" rx="2.5" ry="2.5" style="stroke:#181818;stroke-width:0.5;" width="114" x="749" y="236.0679"/><ellipse cx="763" cy="251.0679" fill="#ADD1B2" rx="10" ry="10" style="stroke:#181818;stroke-width:1.0;"/><path d="M764.8281,255.3179 Q764.4219,255.521 763.9688,255.6304 Q763.5156,255.7398 763.0313,255.7398 Q761.25,255.7398 760.3125,254.5835 Q759.3906,253.4117 759.3906,251.2085 Q759.3906,248.9898 760.3125,247.8335 Q761.25,246.6617 763.0313,246.6617 Q763.5156,246.6617 763.9688,246.771 Q764.4375,246.8648 764.8281,247.0835 L764.8281,249.0054 Q764.3906,248.5992 763.9688,248.4117 Q763.5469,248.2085 763.1094,248.2085 Q762.1563,248.2085 761.6719,248.9742 Q761.1875,249.7242 761.1875,251.2085 Q761.1875,252.6773 761.6719,253.4273 Q762.1563,254.1773 763.1094,254.1773 Q763.5469,254.1773 763.9688,253.9898 Q764.3906,253.8023 764.8281,253.396 L764.8281,255.3179 Z " fill="#000000"/><text fill="#000000" font-family="sans-serif" font-size="12" lengthAdjust="spacing" textLength="84" x="776" y="255.7239">AlumnoService</text><line style="stroke:#181818;stroke-width:0.5;" x1="750" x2="862" y1="266.0679" y2="266.0679"/><line style="stroke:#181818;stroke-width:0.5;" x1="750" x2="862" y1="274.0679" y2="274.0679"/></g><!--class ExamenService--><g id="elem_ExamenService"><rect codeLine="55" fill="#F1F1F1" height="46" id="ExamenService" rx="2.5" ry="2.5" style="stroke:#181818;stroke-width:0.5;" width="116" x="324" y="236.0679"/><ellipse cx="338" cy="251.0679" fill="#ADD1B2" rx="10" ry="10" style="stroke:#181818;stroke-width:1.0;"/><path d="M339.8281,255.3179 Q339.4219,255.521 338.9688,255.6304 Q338.5156,255.7398 338.0313,255.7398 Q336.25,255.7398 335.3125,254.5835 Q334.3906,253.4117 334.3906,251.2085 Q334.3906,248.9898 335.3125,247.8335 Q336.25,246.6617 338.0313,246.6617 Q338.5156,246.6617 338.9688,246.771 Q339.4375,246.8648 339.8281,247.0835 L339.8281,249.0054 Q339.3906,248.5992 338.9688,248.4117 Q338.5469,248.2085 338.1094,248.2085 Q337.1563,248.2085 336.6719,248.9742 Q336.1875,249.7242 336.1875,251.2085 Q336.1875,252.6773 336.6719,253.4273 Q337.1563,254.1773 338.1094,254.1773 Q338.5469,254.1773 338.9688,253.9898 Q339.3906,253.8023 339.8281,253.396 L339.8281,255.3179 Z " fill="#000000"/><text fill="#000000" font-family="sans-serif" font-size="12" lengthAdjust="spacing" textLength="86" x="351" y="255.7239">ExamenService</text><line style="stroke:#181818;stroke-width:0.5;" x1="325" x2="439" y1="266.0679" y2="266.0679"/><line style="stroke:#181818;stroke-width:0.5;" x1="325" x2="439" y1="274.0679" y2="274.0679"/></g><!--class CalendarioService--><g id="elem_CalendarioService"><rect codeLine="56" fill="#F1F1F1" height="46" id="CalendarioService" rx="2.5" ry="2.5" style="stroke:#181818;stroke-width:0.5;" width="132" x="1192" y="236.0679"/><ellipse cx="1206" cy="251.0679" fill="#ADD1B2" rx="10" ry="10" style="stroke:#181818;stroke-width:1.0;"/><path d="M1207.8281,255.3179 Q1207.4219,255.521 1206.9688,255.6304 Q1206.5156,255.7398 1206.0313,255.7398 Q1204.25,255.7398 1203.3125,254.5835 Q1202.3906,253.4117 1202.3906,251.2085 Q1202.3906,248.9898 1203.3125,247.8335 Q1204.25,246.6617 1206.0313,246.6617 Q1206.5156,246.6617 1206.9688,246.771 Q1207.4375,246.8648 1207.8281,247.0835 L1207.8281,249.0054 Q1207.3906,248.5992 1206.9688,248.4117 Q1206.5469,248.2085 1206.1094,248.2085 Q1205.1563,248.2085 1204.6719,248.9742 Q1204.1875,249.7242 1204.1875,251.2085 Q1204.1875,252.6773 1204.6719,253.4273 Q1205.1563,254.1773 1206.1094,254.1773 Q1206.5469,254.1773 1206.9688,253.9898 Q1207.3906,253.8023 1207.8281,253.396 L1207.8281,255.3179 Z " fill="#000000"/><text fill="#000000" font-family="sans-serif" font-size="12" lengthAdjust="spacing" textLength="102" x="1219" y="255.7239">CalendarioService</text><line style="stroke:#181818;stroke-width:0.5;" x1="1193" x2="1323" y1="266.0679" y2="266.0679"/><line style="stroke:#181818;stroke-width:0.5;" x1="1193" x2="1323" y1="274.0679" y2="274.0679"/></g><!--class IncidenciaService--><g id="elem_IncidenciaService"><rect codeLine="57" fill="#F1F1F1" height="46" id="IncidenciaService" rx="2.5" ry="2.5" style="stroke:#181818;stroke-width:0.5;" width="128" x="898" y="236.0679"/><ellipse cx="912" cy="251.0679" fill="#ADD1B2" rx="10" ry="10" style="stroke:#181818;stroke-width:1.0;"/><path d="M913.8281,255.3179 Q913.4219,255.521 912.9688,255.6304 Q912.5156,255.7398 912.0313,255.7398 Q910.25,255.7398 909.3125,254.5835 Q908.3906,253.4117 908.3906,251.2085 Q908.3906,248.9898 909.3125,247.8335 Q910.25,246.6617 912.0313,246.6617 Q912.5156,246.6617 912.9688,246.771 Q913.4375,246.8648 913.8281,247.0835 L913.8281,249.0054 Q913.3906,248.5992 912.9688,248.4117 Q912.5469,248.2085 912.1094,248.2085 Q911.1563,248.2085 910.6719,248.9742 Q910.1875,249.7242 910.1875,251.2085 Q910.1875,252.6773 910.6719,253.4273 Q911.1563,254.1773 912.1094,254.1773 Q912.5469,254.1773 912.9688,253.9898 Q913.3906,253.8023 913.8281,253.396 L913.8281,255.3179 Z " fill="#000000"/><text fill="#000000" font-family="sans-serif" font-size="12" lengthAdjust="spacing" textLength="98" x="925" y="255.7239">IncidenciaService</text><line style="stroke:#181818;stroke-width:0.5;" x1="899" x2="1025" y1="266.0679" y2="266.0679"/><line style="stroke:#181818;stroke-width:0.5;" x1="899" x2="1025" y1="274.0679" y2="274.0679"/></g><!--class UsuarioRepository--><g id="elem_UsuarioRepository"><rect codeLine="61" fill="#F1F1F1" height="58.6882" id="UsuarioRepository" rx="2.5" ry="2.5" style="stroke:#181818;stroke-width:0.5;" width="133" x="585.5" y="357.0679"/><ellipse cx="599.5" cy="378.412" fill="#ADD1B2" rx="10" ry="10" style="stroke:#181818;stroke-width:1.0;"/><path d="M601.3281,382.662 Q600.9219,382.8652 600.4688,382.9745 Q600.0156,383.0839 599.5313,383.0839 Q597.75,383.0839 596.8125,381.9277 Q595.8906,380.7558 595.8906,378.5527 Q595.8906,376.3339 596.8125,375.1777 Q597.75,374.0058 599.5313,374.0058 Q600.0156,374.0058 600.4688,374.1152 Q600.9375,374.2089 601.3281,374.4277 L601.3281,376.3495 Q600.8906,375.9433 600.4688,375.7558 Q600.0469,375.5527 599.6094,375.5527 Q598.6563,375.5527 598.1719,376.3183 Q597.6875,377.0683 597.6875,378.5527 Q597.6875,380.0214 598.1719,380.7714 Q598.6563,381.5214 599.6094,381.5214 Q600.0469,381.5214 600.4688,381.3339 Q600.8906,381.1464 601.3281,380.7402 L601.3281,382.662 Z " fill="#000000"/><text fill="#000000" font-family="sans-serif" font-size="12" font-style="italic" lengthAdjust="spacing" textLength="63" x="632.5" y="374.896">&#171;TypeORM&#187;</text><text fill="#000000" font-family="sans-serif" font-size="12" lengthAdjust="spacing" textLength="103" x="612.5" y="391.2401">UsuarioRepository</text><line style="stroke:#181818;stroke-width:0.5;" x1="586.5" x2="717.5" y1="399.7561" y2="399.7561"/><line style="stroke:#181818;stroke-width:0.5;" x1="586.5" x2="717.5" y1="407.7561" y2="407.7561"/></g><!--class GradoRepository--><g id="elem_GradoRepository"><rect codeLine="62" fill="#F1F1F1" height="58.6882" id="GradoRepository" rx="2.5" ry="2.5" style="stroke:#181818;stroke-width:0.5;" width="124" x="426" y="357.0679"/><ellipse cx="440" cy="378.412" fill="#ADD1B2" rx="10" ry="10" style="stroke:#181818;stroke-width:1.0;"/><path d="M441.8281,382.662 Q441.4219,382.8652 440.9688,382.9745 Q440.5156,383.0839 440.0313,383.0839 Q438.25,383.0839 437.3125,381.9277 Q436.3906,380.7558 436.3906,378.5527 Q436.3906,376.3339 437.3125,375.1777 Q438.25,374.0058 440.0313,374.0058 Q440.5156,374.0058 440.9688,374.1152 Q441.4375,374.2089 441.8281,374.4277 L441.8281,376.3495 Q441.3906,375.9433 440.9688,375.7558 Q440.5469,375.5527 440.1094,375.5527 Q439.1563,375.5527 438.6719,376.3183 Q438.1875,377.0683 438.1875,378.5527 Q438.1875,380.0214 438.6719,380.7714 Q439.1563,381.5214 440.1094,381.5214 Q440.5469,381.5214 440.9688,381.3339 Q441.3906,381.1464 441.8281,380.7402 L441.8281,382.662 Z " fill="#000000"/><text fill="#000000" font-family="sans-serif" font-size="12" font-style="italic" lengthAdjust="spacing" textLength="63" x="468.5" y="374.896">&#171;TypeORM&#187;</text><text fill="#000000" font-family="sans-serif" font-size="12" lengthAdjust="spacing" textLength="94" x="453" y="391.2401">GradoRepository</text><line style="stroke:#181818;stroke-width:0.5;" x1="427" x2="549" y1="399.7561" y2="399.7561"/><line style="stroke:#181818;stroke-width:0.5;" x1="427" x2="549" y1="407.7561" y2="407.7561"/></g><!--class AsignaturaRepository--><g id="elem_AsignaturaRepository"><rect codeLine="63" fill="#F1F1F1" height="58.6882" id="AsignaturaRepository" rx="2.5" ry="2.5" style="stroke:#181818;stroke-width:0.5;" width="150" x="1613" y="357.0679"/><ellipse cx="1627" cy="378.412" fill="#ADD1B2" rx="10" ry="10" style="stroke:#181818;stroke-width:1.0;"/><path d="M1628.8281,382.662 Q1628.4219,382.8652 1627.9688,382.9745 Q1627.5156,383.0839 1627.0313,383.0839 Q1625.25,383.0839 1624.3125,381.9277 Q1623.3906,380.7558 1623.3906,378.5527 Q1623.3906,376.3339 1624.3125,375.1777 Q1625.25,374.0058 1627.0313,374.0058 Q1627.5156,374.0058 1627.9688,374.1152 Q1628.4375,374.2089 1628.8281,374.4277 L1628.8281,376.3495 Q1628.3906,375.9433 1627.9688,375.7558 Q1627.5469,375.5527 1627.1094,375.5527 Q1626.1563,375.5527 1625.6719,376.3183 Q1625.1875,377.0683 1625.1875,378.5527 Q1625.1875,380.0214 1625.6719,380.7714 Q1626.1563,381.5214 1627.1094,381.5214 Q1627.5469,381.5214 1627.9688,381.3339 Q1628.3906,381.1464 1628.8281,380.7402 L1628.8281,382.662 Z " fill="#000000"/><text fill="#000000" font-family="sans-serif" font-size="12" font-style="italic" lengthAdjust="spacing" textLength="63" x="1668.5" y="374.896">&#171;TypeORM&#187;</text><text fill="#000000" font-family="sans-serif" font-size="12" lengthAdjust="spacing" textLength="120" x="1640" y="391.2401">AsignaturaRepository</text><line style="stroke:#181818;stroke-width:0.5;" x1="1614" x2="1762" y1="399.7561" y2="399.7561"/><line style="stroke:#181818;stroke-width:0.5;" x1="1614" x2="1762" y1="407.7561" y2="407.7561"/></g><!--class ProfesorRepository--><g id="elem_ProfesorRepository"><rect codeLine="64" fill="#F1F1F1" height="58.6882" id="ProfesorRepository" rx="2.5" ry="2.5" style="stroke:#181818;stroke-width:0.5;" width="137" x="1440.5" y="357.0679"/><ellipse cx="1454.5" cy="378.412" fill="#ADD1B2" rx="10" ry="10" style="stroke:#181818;stroke-width:1.0;"/><path d="M1456.3281,382.662 Q1455.9219,382.8652 1455.4688,382.9745 Q1455.0156,383.0839 1454.5313,383.0839 Q1452.75,383.0839 1451.8125,381.9277 Q1450.8906,380.7558 1450.8906,378.5527 Q1450.8906,376.3339 1451.8125,375.1777 Q1452.75,374.0058 1454.5313,374.0058 Q1455.0156,374.0058 1455.4688,374.1152 Q1455.9375,374.2089 1456.3281,374.4277 L1456.3281,376.3495 Q1455.8906,375.9433 1455.4688,375.7558 Q1455.0469,375.5527 1454.6094,375.5527 Q1453.6563,375.5527 1453.1719,376.3183 Q1452.6875,377.0683 1452.6875,378.5527 Q1452.6875,380.0214 1453.1719,380.7714 Q1453.6563,381.5214 1454.6094,381.5214 Q1455.0469,381.5214 1455.4688,381.3339 Q1455.8906,381.1464 1456.3281,380.7402 L1456.3281,382.662 Z " fill="#000000"/><text fill="#000000" font-family="sans-serif" font-size="12" font-style="italic" lengthAdjust="spacing" textLength="63" x="1489.5" y="374.896">&#171;TypeORM&#187;</text><text fill="#000000" font-family="sans-serif" font-size="12" lengthAdjust="spacing" textLength="107" x="1467.5" y="391.2401">ProfesorRepository</text><line style="stroke:#181818;stroke-width:0.5;" x1="1441.5" x2="1576.5" y1="399.7561" y2="399.7561"/><line style="stroke:#181818;stroke-width:0.5;" x1="1441.5" x2="1576.5" y1="407.7561" y2="407.7561"/></g><!--class AulaRepository--><g id="elem_AulaRepository"><rect codeLine="65" fill="#F1F1F1" height="58.6882" id="AulaRepository" rx="2.5" ry="2.5" style="stroke:#181818;stroke-width:0.5;" width="114" x="1102" y="357.0679"/><ellipse cx="1116" cy="378.412" fill="#ADD1B2" rx="10" ry="10" style="stroke:#181818;stroke-width:1.0;"/><path d="M1117.8281,382.662 Q1117.4219,382.8652 1116.9688,382.9745 Q1116.5156,383.0839 1116.0313,383.0839 Q1114.25,383.0839 1113.3125,381.9277 Q1112.3906,380.7558 1112.3906,378.5527 Q1112.3906,376.3339 1113.3125,375.1777 Q1114.25,374.0058 1116.0313,374.0058 Q1116.5156,374.0058 1116.9688,374.1152 Q1117.4375,374.2089 1117.8281,374.4277 L1117.8281,376.3495 Q1117.3906,375.9433 1116.9688,375.7558 Q1116.5469,375.5527 1116.1094,375.5527 Q1115.1563,375.5527 1114.6719,376.3183 Q1114.1875,377.0683 1114.1875,378.5527 Q1114.1875,380.0214 1114.6719,380.7714 Q1115.1563,381.5214 1116.1094,381.5214 Q1116.5469,381.5214 1116.9688,381.3339 Q1117.3906,381.1464 1117.8281,380.7402 L1117.8281,382.662 Z " fill="#000000"/><text fill="#000000" font-family="sans-serif" font-size="12" font-style="italic" lengthAdjust="spacing" textLength="63" x="1139.5" y="374.896">&#171;TypeORM&#187;</text><text fill="#000000" font-family="sans-serif" font-size="12" lengthAdjust="spacing" textLength="84" x="1129" y="391.2401">AulaRepository</text><line style="stroke:#181818;stroke-width:0.5;" x1="1103" x2="1215" y1="399.7561" y2="399.7561"/><line style="stroke:#181818;stroke-width:0.5;" x1="1103" x2="1215" y1="407.7561" y2="407.7561"/></g><!--class AlumnoRepository--><g id="elem_AlumnoRepository"><rect codeLine="66" fill="#F1F1F1" height="58.6882" id="AlumnoRepository" rx="2.5" ry="2.5" style="stroke:#181818;stroke-width:0.5;" width="132" x="754" y="357.0679"/><ellipse cx="768" cy="378.412" fill="#ADD1B2" rx="10" ry="10" style="stroke:#181818;stroke-width:1.0;"/><path d="M769.8281,382.662 Q769.4219,382.8652 768.9688,382.9745 Q768.5156,383.0839 768.0313,383.0839 Q766.25,383.0839 765.3125,381.9277 Q764.3906,380.7558 764.3906,378.5527 Q764.3906,376.3339 765.3125,375.1777 Q766.25,374.0058 768.0313,374.0058 Q768.5156,374.0058 768.9688,374.1152 Q769.4375,374.2089 769.8281,374.4277 L769.8281,376.3495 Q769.3906,375.9433 768.9688,375.7558 Q768.5469,375.5527 768.1094,375.5527 Q767.1563,375.5527 766.6719,376.3183 Q766.1875,377.0683 766.1875,378.5527 Q766.1875,380.0214 766.6719,380.7714 Q767.1563,381.5214 768.1094,381.5214 Q768.5469,381.5214 768.9688,381.3339 Q769.3906,381.1464 769.8281,380.7402 L769.8281,382.662 Z " fill="#000000"/><text fill="#000000" font-family="sans-serif" font-size="12" font-style="italic" lengthAdjust="spacing" textLength="63" x="800.5" y="374.896">&#171;TypeORM&#187;</text><text fill="#000000" font-family="sans-serif" font-size="12" lengthAdjust="spacing" textLength="102" x="781" y="391.2401">AlumnoRepository</text><line style="stroke:#181818;stroke-width:0.5;" x1="755" x2="885" y1="399.7561" y2="399.7561"/><line style="stroke:#181818;stroke-width:0.5;" x1="755" x2="885" y1="407.7561" y2="407.7561"/></g><!--class ExamenRepository--><g id="elem_ExamenRepository"><rect codeLine="67" fill="#F1F1F1" height="58.6882" id="ExamenRepository" rx="2.5" ry="2.5" style="stroke:#181818;stroke-width:0.5;" width="134" x="72" y="357.0679"/><ellipse cx="86" cy="378.412" fill="#ADD1B2" rx="10" ry="10" style="stroke:#181818;stroke-width:1.0;"/><path d="M87.8281,382.662 Q87.4219,382.8652 86.9688,382.9745 Q86.5156,383.0839 86.0313,383.0839 Q84.25,383.0839 83.3125,381.9277 Q82.3906,380.7558 82.3906,378.5527 Q82.3906,376.3339 83.3125,375.1777 Q84.25,374.0058 86.0313,374.0058 Q86.5156,374.0058 86.9688,374.1152 Q87.4375,374.2089 87.8281,374.4277 L87.8281,376.3495 Q87.3906,375.9433 86.9688,375.7558 Q86.5469,375.5527 86.1094,375.5527 Q85.1563,375.5527 84.6719,376.3183 Q84.1875,377.0683 84.1875,378.5527 Q84.1875,380.0214 84.6719,380.7714 Q85.1563,381.5214 86.1094,381.5214 Q86.5469,381.5214 86.9688,381.3339 Q87.3906,381.1464 87.8281,380.7402 L87.8281,382.662 Z " fill="#000000"/><text fill="#000000" font-family="sans-serif" font-size="12" font-style="italic" lengthAdjust="spacing" textLength="63" x="119.5" y="374.896">&#171;TypeORM&#187;</text><text fill="#000000" font-family="sans-serif" font-size="12" lengthAdjust="spacing" textLength="104" x="99" y="391.2401">ExamenRepository</text><line style="stroke:#181818;stroke-width:0.5;" x1="73" x2="205" y1="399.7561" y2="399.7561"/><line style="stroke:#181818;stroke-width:0.5;" x1="73" x2="205" y1="407.7561" y2="407.7561"/></g><!--class CalendarioRepository--><g id="elem_CalendarioRepository"><rect codeLine="68" fill="#F1F1F1" height="58.6882" id="CalendarioRepository" rx="2.5" ry="2.5" style="stroke:#181818;stroke-width:0.5;" width="150" x="241" y="357.0679"/><ellipse cx="255" cy="378.412" fill="#ADD1B2" rx="10" ry="10" style="stroke:#181818;stroke-width:1.0;"/><path d="M256.8281,382.662 Q256.4219,382.8652 255.9688,382.9745 Q255.5156,383.0839 255.0313,383.0839 Q253.25,383.0839 252.3125,381.9277 Q251.3906,380.7558 251.3906,378.5527 Q251.3906,376.3339 252.3125,375.1777 Q253.25,374.0058 255.0313,374.0058 Q255.5156,374.0058 255.9688,374.1152 Q256.4375,374.2089 256.8281,374.4277 L256.8281,376.3495 Q256.3906,375.9433 255.9688,375.7558 Q255.5469,375.5527 255.1094,375.5527 Q254.1563,375.5527 253.6719,376.3183 Q253.1875,377.0683 253.1875,378.5527 Q253.1875,380.0214 253.6719,380.7714 Q254.1563,381.5214 255.1094,381.5214 Q255.5469,381.5214 255.9688,381.3339 Q256.3906,381.1464 256.8281,380.7402 L256.8281,382.662 Z " fill="#000000"/><text fill="#000000" font-family="sans-serif" font-size="12" font-style="italic" lengthAdjust="spacing" textLength="63" x="296.5" y="374.896">&#171;TypeORM&#187;</text><text fill="#000000" font-family="sans-serif" font-size="12" lengthAdjust="spacing" textLength="120" x="268" y="391.2401">CalendarioRepository</text><line style="stroke:#181818;stroke-width:0.5;" x1="242" x2="390" y1="399.7561" y2="399.7561"/><line style="stroke:#181818;stroke-width:0.5;" x1="242" x2="390" y1="407.7561" y2="407.7561"/></g><!--class IncidenciaRepository--><g id="elem_IncidenciaRepository"><rect codeLine="69" fill="#F1F1F1" height="58.6882" id="IncidenciaRepository" rx="2.5" ry="2.5" style="stroke:#181818;stroke-width:0.5;" width="146" x="921" y="357.0679"/><ellipse cx="935" cy="378.412" fill="#ADD1B2" rx="10" ry="10" style="stroke:#181818;stroke-width:1.0;"/><path d="M936.8281,382.662 Q936.4219,382.8652 935.9688,382.9745 Q935.5156,383.0839 935.0313,383.0839 Q933.25,383.0839 932.3125,381.9277 Q931.3906,380.7558 931.3906,378.5527 Q931.3906,376.3339 932.3125,375.1777 Q933.25,374.0058 935.0313,374.0058 Q935.5156,374.0058 935.9688,374.1152 Q936.4375,374.2089 936.8281,374.4277 L936.8281,376.3495 Q936.3906,375.9433 935.9688,375.7558 Q935.5469,375.5527 935.1094,375.5527 Q934.1563,375.5527 933.6719,376.3183 Q933.1875,377.0683 933.1875,378.5527 Q933.1875,380.0214 933.6719,380.7714 Q934.1563,381.5214 935.1094,381.5214 Q935.5469,381.5214 935.9688,381.3339 Q936.3906,381.1464 936.8281,380.7402 L936.8281,382.662 Z " fill="#000000"/><text fill="#000000" font-family="sans-serif" font-size="12" font-style="italic" lengthAdjust="spacing" textLength="63" x="974.5" y="374.896">&#171;TypeORM&#187;</text><text fill="#000000" font-family="sans-serif" font-size="12" lengthAdjust="spacing" textLength="116" x="948" y="391.2401">IncidenciaRepository</text><line style="stroke:#181818;stroke-width:0.5;" x1="922" x2="1066" y1="399.7561" y2="399.7561"/><line style="stroke:#181818;stroke-width:0.5;" x1="922" x2="1066" y1="407.7561" y2="407.7561"/></g><!--class PreferenciaRepository--><g id="elem_PreferenciaRepository"><rect codeLine="70" fill="#F1F1F1" height="58.6882" id="PreferenciaRepository" rx="2.5" ry="2.5" style="stroke:#181818;stroke-width:0.5;" width="154" x="1251" y="357.0679"/><ellipse cx="1265" cy="378.412" fill="#ADD1B2" rx="10" ry="10" style="stroke:#181818;stroke-width:1.0;"/><path d="M1266.8281,382.662 Q1266.4219,382.8652 1265.9688,382.9745 Q1265.5156,383.0839 1265.0313,383.0839 Q1263.25,383.0839 1262.3125,381.9277 Q1261.3906,380.7558 1261.3906,378.5527 Q1261.3906,376.3339 1262.3125,375.1777 Q1263.25,374.0058 1265.0313,374.0058 Q1265.5156,374.0058 1265.9688,374.1152 Q1266.4375,374.2089 1266.8281,374.4277 L1266.8281,376.3495 Q1266.3906,375.9433 1265.9688,375.7558 Q1265.5469,375.5527 1265.1094,375.5527 Q1264.1563,375.5527 1263.6719,376.3183 Q1263.1875,377.0683 1263.1875,378.5527 Q1263.1875,380.0214 1263.6719,380.7714 Q1264.1563,381.5214 1265.1094,381.5214 Q1265.5469,381.5214 1265.9688,381.3339 Q1266.3906,381.1464 1266.8281,380.7402 L1266.8281,382.662 Z " fill="#000000"/><text fill="#000000" font-family="sans-serif" font-size="12" font-style="italic" lengthAdjust="spacing" textLength="63" x="1308.5" y="374.896">&#171;TypeORM&#187;</text><text fill="#000000" font-family="sans-serif" font-size="12" lengthAdjust="spacing" textLength="124" x="1278" y="391.2401">PreferenciaRepository</text><line style="stroke:#181818;stroke-width:0.5;" x1="1252" x2="1404" y1="399.7561" y2="399.7561"/><line style="stroke:#181818;stroke-width:0.5;" x1="1252" x2="1404" y1="407.7561" y2="407.7561"/></g><!--class Usuario--><g id="elem_Usuario"><rect codeLine="74" fill="#F1F1F1" height="58.6882" id="Usuario" rx="2.5" ry="2.5" style="stroke:#181818;stroke-width:0.5;" width="74" x="647" y="491.0679"/><ellipse cx="661" cy="512.412" fill="#ADD1B2" rx="10" ry="10" style="stroke:#181818;stroke-width:1.0;"/><path d="M662.8281,516.662 Q662.4219,516.8652 661.9688,516.9745 Q661.5156,517.0839 661.0313,517.0839 Q659.25,517.0839 658.3125,515.9277 Q657.3906,514.7558 657.3906,512.5527 Q657.3906,510.3339 658.3125,509.1777 Q659.25,508.0058 661.0313,508.0058 Q661.5156,508.0058 661.9688,508.1152 Q662.4375,508.2089 662.8281,508.4277 L662.8281,510.3495 Q662.3906,509.9433 661.9688,509.7558 Q661.5469,509.5527 661.1094,509.5527 Q660.1563,509.5527 659.6719,510.3183 Q659.1875,511.0683 659.1875,512.5527 Q659.1875,514.0214 659.6719,514.7714 Q660.1563,515.5214 661.1094,515.5214 Q661.5469,515.5214 661.9688,515.3339 Q662.3906,515.1464 662.8281,514.7402 L662.8281,516.662 Z " fill="#000000"/><text fill="#000000" font-family="sans-serif" font-size="12" font-style="italic" lengthAdjust="spacing" textLength="42" x="675" y="508.896">&#171;Entity&#187;</text><text fill="#000000" font-family="sans-serif" font-size="12" lengthAdjust="spacing" textLength="44" x="674" y="525.2401">Usuario</text><line style="stroke:#181818;stroke-width:0.5;" x1="648" x2="720" y1="533.7561" y2="533.7561"/><line style="stroke:#181818;stroke-width:0.5;" x1="648" x2="720" y1="541.7561" y2="541.7561"/></g><!--class Grado--><g id="elem_Grado"><rect codeLine="75" fill="#F1F1F1" height="58.6882" id="Grado" rx="2.5" ry="2.5" style="stroke:#181818;stroke-width:0.5;" width="68" x="544" y="491.0679"/><ellipse cx="558" cy="512.412" fill="#ADD1B2" rx="10" ry="10" style="stroke:#181818;stroke-width:1.0;"/><path d="M559.8281,516.662 Q559.4219,516.8652 558.9688,516.9745 Q558.5156,517.0839 558.0313,517.0839 Q556.25,517.0839 555.3125,515.9277 Q554.3906,514.7558 554.3906,512.5527 Q554.3906,510.3339 555.3125,509.1777 Q556.25,508.0058 558.0313,508.0058 Q558.5156,508.0058 558.9688,508.1152 Q559.4375,508.2089 559.8281,508.4277 L559.8281,510.3495 Q559.3906,509.9433 558.9688,509.7558 Q558.5469,509.5527 558.1094,509.5527 Q557.1563,509.5527 556.6719,510.3183 Q556.1875,511.0683 556.1875,512.5527 Q556.1875,514.0214 556.6719,514.7714 Q557.1563,515.5214 558.1094,515.5214 Q558.5469,515.5214 558.9688,515.3339 Q559.3906,515.1464 559.8281,514.7402 L559.8281,516.662 Z " fill="#000000"/><text fill="#000000" font-family="sans-serif" font-size="12" font-style="italic" lengthAdjust="spacing" textLength="42" x="569" y="508.896">&#171;Entity&#187;</text><text fill="#000000" font-family="sans-serif" font-size="12" lengthAdjust="spacing" textLength="35" x="572.5" y="525.2401">Grado</text><line style="stroke:#181818;stroke-width:0.5;" x1="545" x2="611" y1="533.7561" y2="533.7561"/><line style="stroke:#181818;stroke-width:0.5;" x1="545" x2="611" y1="541.7561" y2="541.7561"/></g><!--class Asignatura--><g id="elem_Asignatura"><rect codeLine="76" fill="#F1F1F1" height="58.6882" id="Asignatura" rx="2.5" ry="2.5" style="stroke:#181818;stroke-width:0.5;" width="91" x="702.5" y="610.0679"/><ellipse cx="716.5" cy="631.412" fill="#ADD1B2" rx="10" ry="10" style="stroke:#181818;stroke-width:1.0;"/><path d="M718.3281,635.662 Q717.9219,635.8652 717.4688,635.9745 Q717.0156,636.0839 716.5313,636.0839 Q714.75,636.0839 713.8125,634.9277 Q712.8906,633.7558 712.8906,631.5527 Q712.8906,629.3339 713.8125,628.1777 Q714.75,627.0058 716.5313,627.0058 Q717.0156,627.0058 717.4688,627.1152 Q717.9375,627.2089 718.3281,627.4277 L718.3281,629.3495 Q717.8906,628.9433 717.4688,628.7558 Q717.0469,628.5527 716.6094,628.5527 Q715.6563,628.5527 715.1719,629.3183 Q714.6875,630.0683 714.6875,631.5527 Q714.6875,633.0214 715.1719,633.7714 Q715.6563,634.5214 716.6094,634.5214 Q717.0469,634.5214 717.4688,634.3339 Q717.8906,634.1464 718.3281,633.7402 L718.3281,635.662 Z " fill="#000000"/><text fill="#000000" font-family="sans-serif" font-size="12" font-style="italic" lengthAdjust="spacing" textLength="42" x="739" y="627.896">&#171;Entity&#187;</text><text fill="#000000" font-family="sans-serif" font-size="12" lengthAdjust="spacing" textLength="61" x="729.5" y="644.2401">Asignatura</text><line style="stroke:#181818;stroke-width:0.5;" x1="703.5" x2="792.5" y1="652.7561" y2="652.7561"/><line style="stroke:#181818;stroke-width:0.5;" x1="703.5" x2="792.5" y1="660.7561" y2="660.7561"/></g><!--class Profesor--><g id="elem_Profesor"><rect codeLine="77" fill="#F1F1F1" height="58.6882" id="Profesor" rx="2.5" ry="2.5" style="stroke:#181818;stroke-width:0.5;" width="78" x="807" y="729.0679"/><ellipse cx="821" cy="750.412" fill="#ADD1B2" rx="10" ry="10" style="stroke:#181818;stroke-width:1.0;"/><path d="M822.8281,754.662 Q822.4219,754.8652 821.9688,754.9745 Q821.5156,755.0839 821.0313,755.0839 Q819.25,755.0839 818.3125,753.9277 Q817.3906,752.7558 817.3906,750.5527 Q817.3906,748.3339 818.3125,747.1777 Q819.25,746.0058 821.0313,746.0058 Q821.5156,746.0058 821.9688,746.1152 Q822.4375,746.2089 822.8281,746.4277 L822.8281,748.3495 Q822.3906,747.9433 821.9688,747.7558 Q821.5469,747.5527 821.1094,747.5527 Q820.1563,747.5527 819.6719,748.3183 Q819.1875,749.0683 819.1875,750.5527 Q819.1875,752.0214 819.6719,752.7714 Q820.1563,753.5214 821.1094,753.5214 Q821.5469,753.5214 821.9688,753.3339 Q822.3906,753.1464 822.8281,752.7402 L822.8281,754.662 Z " fill="#000000"/><text fill="#000000" font-family="sans-serif" font-size="12" font-style="italic" lengthAdjust="spacing" textLength="42" x="837" y="746.896">&#171;Entity&#187;</text><text fill="#000000" font-family="sans-serif" font-size="12" lengthAdjust="spacing" textLength="48" x="834" y="763.2401">Profesor</text><line style="stroke:#181818;stroke-width:0.5;" x1="808" x2="884" y1="771.7561" y2="771.7561"/><line style="stroke:#181818;stroke-width:0.5;" x1="808" x2="884" y1="779.7561" y2="779.7561"/></g><!--class Preferencia--><g id="elem_Preferencia"><rect codeLine="78" fill="#F1F1F1" height="58.6882" id="Preferencia" rx="2.5" ry="2.5" style="stroke:#181818;stroke-width:0.5;" width="95" x="789.5" y="848.0679"/><ellipse cx="803.5" cy="869.412" fill="#ADD1B2" rx="10" ry="10" style="stroke:#181818;stroke-width:1.0;"/><path d="M805.3281,873.662 Q804.9219,873.8652 804.4688,873.9745 Q804.0156,874.0839 803.5313,874.0839 Q801.75,874.0839 800.8125,872.9277 Q799.8906,871.7558 799.8906,869.5527 Q799.8906,867.3339 800.8125,866.1777 Q801.75,865.0058 803.5313,865.0058 Q804.0156,865.0058 804.4688,865.1152 Q804.9375,865.2089 805.3281,865.4277 L805.3281,867.3495 Q804.8906,866.9433 804.4688,866.7558 Q804.0469,866.5527 803.6094,866.5527 Q802.6563,866.5527 802.1719,867.3183 Q801.6875,868.0683 801.6875,869.5527 Q801.6875,871.0214 802.1719,871.7714 Q802.6563,872.5214 803.6094,872.5214 Q804.0469,872.5214 804.4688,872.3339 Q804.8906,872.1464 805.3281,871.7402 L805.3281,873.662 Z " fill="#000000"/><text fill="#000000" font-family="sans-serif" font-size="12" font-style="italic" lengthAdjust="spacing" textLength="42" x="828" y="865.896">&#171;Entity&#187;</text><text fill="#000000" font-family="sans-serif" font-size="12" lengthAdjust="spacing" textLength="65" x="816.5" y="882.2401">Preferencia</text><line style="stroke:#181818;stroke-width:0.5;" x1="790.5" x2="883.5" y1="890.7561" y2="890.7561"/><line style="stroke:#181818;stroke-width:0.5;" x1="790.5" x2="883.5" y1="898.7561" y2="898.7561"/></g><!--class Aula--><g id="elem_Aula"><rect codeLine="79" fill="#F1F1F1" height="58.6882" id="Aula" rx="2.5" ry="2.5" style="stroke:#181818;stroke-width:0.5;" width="68" x="704" y="729.0679"/><ellipse cx="718" cy="750.412" fill="#ADD1B2" rx="10" ry="10" style="stroke:#181818;stroke-width:1.0;"/><path d="M719.8281,754.662 Q719.4219,754.8652 718.9688,754.9745 Q718.5156,755.0839 718.0313,755.0839 Q716.25,755.0839 715.3125,753.9277 Q714.3906,752.7558 714.3906,750.5527 Q714.3906,748.3339 715.3125,747.1777 Q716.25,746.0058 718.0313,746.0058 Q718.5156,746.0058 718.9688,746.1152 Q719.4375,746.2089 719.8281,746.4277 L719.8281,748.3495 Q719.3906,747.9433 718.9688,747.7558 Q718.5469,747.5527 718.1094,747.5527 Q717.1563,747.5527 716.6719,748.3183 Q716.1875,749.0683 716.1875,750.5527 Q716.1875,752.0214 716.6719,752.7714 Q717.1563,753.5214 718.1094,753.5214 Q718.5469,753.5214 718.9688,753.3339 Q719.3906,753.1464 719.8281,752.7402 L719.8281,754.662 Z " fill="#000000"/><text fill="#000000" font-family="sans-serif" font-size="12" font-style="italic" lengthAdjust="spacing" textLength="42" x="729" y="746.896">&#171;Entity&#187;</text><text fill="#000000" font-family="sans-serif" font-size="12" lengthAdjust="spacing" textLength="25" x="737.5" y="763.2401">Aula</text><line style="stroke:#181818;stroke-width:0.5;" x1="705" x2="771" y1="771.7561" y2="771.7561"/><line style="stroke:#181818;stroke-width:0.5;" x1="705" x2="771" y1="779.7561" y2="779.7561"/></g><!--class Alumno--><g id="elem_Alumno"><rect codeLine="80" fill="#F1F1F1" height="58.6882" id="Alumno" rx="2.5" ry="2.5" style="stroke:#181818;stroke-width:0.5;" width="73" x="559.5" y="610.0679"/><ellipse cx="573.5" cy="631.412" fill="#ADD1B2" rx="10" ry="10" style="stroke:#181818;stroke-width:1.0;"/><path d="M575.3281,635.662 Q574.9219,635.8652 574.4688,635.9745 Q574.0156,636.0839 573.5313,636.0839 Q571.75,636.0839 570.8125,634.9277 Q569.8906,633.7558 569.8906,631.5527 Q569.8906,629.3339 570.8125,628.1777 Q571.75,627.0058 573.5313,627.0058 Q574.0156,627.0058 574.4688,627.1152 Q574.9375,627.2089 575.3281,627.4277 L575.3281,629.3495 Q574.8906,628.9433 574.4688,628.7558 Q574.0469,628.5527 573.6094,628.5527 Q572.6563,628.5527 572.1719,629.3183 Q571.6875,630.0683 571.6875,631.5527 Q571.6875,633.0214 572.1719,633.7714 Q572.6563,634.5214 573.6094,634.5214 Q574.0469,634.5214 574.4688,634.3339 Q574.8906,634.1464 575.3281,633.7402 L575.3281,635.662 Z " fill="#000000"/><text fill="#000000" font-family="sans-serif" font-size="12" font-style="italic" lengthAdjust="spacing" textLength="42" x="587" y="627.896">&#171;Entity&#187;</text><text fill="#000000" font-family="sans-serif" font-size="12" lengthAdjust="spacing" textLength="43" x="586.5" y="644.2401">Alumno</text><line style="stroke:#181818;stroke-width:0.5;" x1="560.5" x2="631.5" y1="652.7561" y2="652.7561"/><line style="stroke:#181818;stroke-width:0.5;" x1="560.5" x2="631.5" y1="660.7561" y2="660.7561"/></g><!--class Examen--><g id="elem_Examen"><rect codeLine="81" fill="#F1F1F1" height="58.6882" id="Examen" rx="2.5" ry="2.5" style="stroke:#181818;stroke-width:0.5;" width="75" x="654.5" y="848.0679"/><ellipse cx="668.5" cy="869.412" fill="#ADD1B2" rx="10" ry="10" style="stroke:#181818;stroke-width:1.0;"/><path d="M670.3281,873.662 Q669.9219,873.8652 669.4688,873.9745 Q669.0156,874.0839 668.5313,874.0839 Q666.75,874.0839 665.8125,872.9277 Q664.8906,871.7558 664.8906,869.5527 Q664.8906,867.3339 665.8125,866.1777 Q666.75,865.0058 668.5313,865.0058 Q669.0156,865.0058 669.4688,865.1152 Q669.9375,865.2089 670.3281,865.4277 L670.3281,867.3495 Q669.8906,866.9433 669.4688,866.7558 Q669.0469,866.5527 668.6094,866.5527 Q667.6563,866.5527 667.1719,867.3183 Q666.6875,868.0683 666.6875,869.5527 Q666.6875,871.0214 667.1719,871.7714 Q667.6563,872.5214 668.6094,872.5214 Q669.0469,872.5214 669.4688,872.3339 Q669.8906,872.1464 670.3281,871.7402 L670.3281,873.662 Z " fill="#000000"/><text fill="#000000" font-family="sans-serif" font-size="12" font-style="italic" lengthAdjust="spacing" textLength="42" x="683" y="865.896">&#171;Entity&#187;</text><text fill="#000000" font-family="sans-serif" font-size="12" lengthAdjust="spacing" textLength="45" x="681.5" y="882.2401">Examen</text><line style="stroke:#181818;stroke-width:0.5;" x1="655.5" x2="728.5" y1="890.7561" y2="890.7561"/><line style="stroke:#181818;stroke-width:0.5;" x1="655.5" x2="728.5" y1="898.7561" y2="898.7561"/></g><!--class Calendario--><g id="elem_Calendario"><rect codeLine="82" fill="#F1F1F1" height="58.6882" id="Calendario" rx="2.5" ry="2.5" style="stroke:#181818;stroke-width:0.5;" width="91" x="540.5" y="729.0679"/><ellipse cx="554.5" cy="750.412" fill="#ADD1B2" rx="10" ry="10" style="stroke:#181818;stroke-width:1.0;"/><path d="M556.3281,754.662 Q555.9219,754.8652 555.4688,754.9745 Q555.0156,755.0839 554.5313,755.0839 Q552.75,755.0839 551.8125,753.9277 Q550.8906,752.7558 550.8906,750.5527 Q550.8906,748.3339 551.8125,747.1777 Q552.75,746.0058 554.5313,746.0058 Q555.0156,746.0058 555.4688,746.1152 Q555.9375,746.2089 556.3281,746.4277 L556.3281,748.3495 Q555.8906,747.9433 555.4688,747.7558 Q555.0469,747.5527 554.6094,747.5527 Q553.6563,747.5527 553.1719,748.3183 Q552.6875,749.0683 552.6875,750.5527 Q552.6875,752.0214 553.1719,752.7714 Q553.6563,753.5214 554.6094,753.5214 Q555.0469,753.5214 555.4688,753.3339 Q555.8906,753.1464 556.3281,752.7402 L556.3281,754.662 Z " fill="#000000"/><text fill="#000000" font-family="sans-serif" font-size="12" font-style="italic" lengthAdjust="spacing" textLength="42" x="577" y="746.896">&#171;Entity&#187;</text><text fill="#000000" font-family="sans-serif" font-size="12" lengthAdjust="spacing" textLength="61" x="567.5" y="763.2401">Calendario</text><line style="stroke:#181818;stroke-width:0.5;" x1="541.5" x2="630.5" y1="771.7561" y2="771.7561"/><line style="stroke:#181818;stroke-width:0.5;" x1="541.5" x2="630.5" y1="779.7561" y2="779.7561"/></g><!--class Incidencia--><g id="elem_Incidencia"><rect codeLine="83" fill="#F1F1F1" height="58.6882" id="Incidencia" rx="2.5" ry="2.5" style="stroke:#181818;stroke-width:0.5;" width="87" x="734.5" y="967.0679"/><ellipse cx="748.5" cy="988.412" fill="#ADD1B2" rx="10" ry="10" style="stroke:#181818;stroke-width:1.0;"/><path d="M750.3281,992.662 Q749.9219,992.8652 749.4688,992.9745 Q749.0156,993.0839 748.5313,993.0839 Q746.75,993.0839 745.8125,991.9277 Q744.8906,990.7558 744.8906,988.5527 Q744.8906,986.3339 745.8125,985.1777 Q746.75,984.0058 748.5313,984.0058 Q749.0156,984.0058 749.4688,984.1152 Q749.9375,984.2089 750.3281,984.4277 L750.3281,986.3495 Q749.8906,985.9433 749.4688,985.7558 Q749.0469,985.5527 748.6094,985.5527 Q747.6563,985.5527 747.1719,986.3183 Q746.6875,987.0683 746.6875,988.5527 Q746.6875,990.0214 747.1719,990.7714 Q747.6563,991.5214 748.6094,991.5214 Q749.0469,991.5214 749.4688,991.3339 Q749.8906,991.1464 750.3281,990.7402 L750.3281,992.662 Z " fill="#000000"/><text fill="#000000" font-family="sans-serif" font-size="12" font-style="italic" lengthAdjust="spacing" textLength="42" x="769" y="984.896">&#171;Entity&#187;</text><text fill="#000000" font-family="sans-serif" font-size="12" lengthAdjust="spacing" textLength="57" x="761.5" y="1001.2401">Incidencia</text><line style="stroke:#181818;stroke-width:0.5;" x1="735.5" x2="820.5" y1="1009.7561" y2="1009.7561"/><line style="stroke:#181818;stroke-width:0.5;" x1="735.5" x2="820.5" y1="1017.7561" y2="1017.7561"/></g><!--link AuthController to AuthService--><g id="link_AuthController_AuthService"><path codeLine="88" d="M568.69,161.3979 C592.68,185.4879 618.4247,211.3279 638.5047,231.4779 " fill="none" id="AuthController-to-AuthService" style="stroke:#181818;stroke-width:1.0;"/><polygon fill="#181818" points="642.74,235.7279,639.2205,226.5294,639.2106,232.1862,633.5538,232.1764,642.74,235.7279" style="stroke:#181818;stroke-width:1.0;"/></g><!--link AuthService to UsuarioRepository--><g id="link_AuthService_UsuarioRepository"><path codeLine="89" d="M662.71,282.2179 C660.55,303.0479 657.9281,328.3698 655.5781,351.0598 " fill="none" id="AuthService-to-UsuarioRepository" style="stroke:#181818;stroke-width:1.0;"/><polygon fill="#181818" points="654.96,357.0279,659.8659,348.4879,655.4751,352.0545,651.9085,347.6637,654.96,357.0279" style="stroke:#181818;stroke-width:1.0;"/></g><!--link GradoController to GradoService--><g id="link_GradoController_GradoService"><path codeLine="91" d="M403.62,161.1179 C431.63,177.5779 458,193.0679 458,193.0679 C458,193.0679 479.5922,213.1263 499.9022,231.9763 " fill="none" id="GradoController-to-GradoService" style="stroke:#181818;stroke-width:1.0;"/><polygon fill="#181818" points="504.3,236.0579,500.4244,227.0036,500.6352,232.6566,494.9823,232.8673,504.3,236.0579" style="stroke:#181818;stroke-width:1.0;"/></g><!--link GradoService to GradoRepository--><g id="link_GradoService_GradoRepository"><path codeLine="92" d="M520.94,282.2179 C514.3,303.0479 506.1516,328.6211 498.9216,351.3111 " fill="none" id="GradoService-to-GradoRepository" style="stroke:#181818;stroke-width:1.0;"/><polygon fill="#181818" points="497.1,357.0279,503.6436,349.6671,498.618,352.2639,496.0212,347.2383,497.1,357.0279" style="stroke:#181818;stroke-width:1.0;"/></g><!--link AsignaturaController to AsignaturaService--><g id="link_AsignaturaController_AsignaturaService"><path codeLine="94" d="M1831.44,161.0779 C1806.54,173.9479 1785,185.0679 1785,185.0679 C1785,185.0679 1707.8022,212.5549 1647.4322,234.0549 " fill="none" id="AsignaturaController-to-AsignaturaService" style="stroke:#181818;stroke-width:1.0;"/><polygon fill="#181818" points="1641.78,236.0679,1651.6004,236.8166,1646.4902,234.3904,1648.9164,229.2803,1641.78,236.0679" style="stroke:#181818;stroke-width:1.0;"/></g><!--link AsignaturaService to AsignaturaRepository--><g id="link_AsignaturaService_AsignaturaRepository"><path codeLine="95" d="M1599.06,282.2179 C1616.98,303.0479 1639.9959,329.7905 1659.5259,352.4805 " fill="none" id="AsignaturaService-to-AsignaturaRepository" style="stroke:#181818;stroke-width:1.0;"/><polygon fill="#181818" points="1663.44,357.0279,1660.6004,347.5973,1660.1782,353.2384,1654.5371,352.8161,1663.44,357.0279" style="stroke:#181818;stroke-width:1.0;"/></g><!--link ProfesorController to ProfesorService--><g id="link_ProfesorController_ProfesorService"><path codeLine="97" d="M1600.75,161.0779 C1577.29,173.9479 1557,185.0679 1557,185.0679 C1557,185.0679 1497,193.0679 1497,193.0679 C1497,193.0679 1472.6502,213.3678 1450.0202,232.2178 " fill="none" id="ProfesorController-to-ProfesorService" style="stroke:#181818;stroke-width:1.0;"/><polygon fill="#181818" points="1445.41,236.0579,1454.8853,233.3712,1449.2518,232.8578,1449.7652,227.2243,1445.41,236.0579" style="stroke:#181818;stroke-width:1.0;"/></g><!--link ProfesorService to ProfesorRepository--><g id="link_ProfesorService_ProfesorRepository"><path codeLine="98" d="M1434.88,282.2179 C1449.82,303.0479 1468.7636,329.4619 1485.0336,352.1519 " fill="none" id="ProfesorService-to-ProfesorRepository" style="stroke:#181818;stroke-width:1.0;"/><polygon fill="#181818" points="1488.53,357.0279,1486.5361,347.383,1485.6164,352.9646,1480.0348,352.0448,1488.53,357.0279" style="stroke:#181818;stroke-width:1.0;"/></g><!--link ProfesorService to PreferenciaRepository--><g id="link_ProfesorService_PreferenciaRepository"><path codeLine="99" d="M1402.94,282.2179 C1387.84,303.0479 1368.6718,329.4802 1352.2218,352.1702 " fill="none" id="ProfesorService-to-PreferenciaRepository" style="stroke:#181818;stroke-width:1.0;"/><polygon fill="#181818" points="1348.7,357.0279,1357.2211,352.0892,1351.6348,352.9798,1350.7442,347.3935,1348.7,357.0279" style="stroke:#181818;stroke-width:1.0;"/></g><!--link AulaController to AulaService--><g id="link_AulaController_AulaService"><path codeLine="101" d="M1166.08,161.3979 C1151.85,185.4879 1137.1411,210.4116 1125.2411,230.5616 " fill="none" id="AulaController-to-AulaService" style="stroke:#181818;stroke-width:1.0;"/><polygon fill="#181818" points="1122.19,235.7279,1130.2108,230.0125,1124.7326,231.4226,1123.3224,225.9444,1122.19,235.7279" style="stroke:#181818;stroke-width:1.0;"/></g><!--link AulaService to AulaRepository--><g id="link_AulaService_AulaRepository"><path codeLine="102" d="M1117.82,282.2179 C1126.12,303.0479 1136.3693,328.764 1145.4093,351.454 " fill="none" id="AulaService-to-AulaRepository" style="stroke:#181818;stroke-width:1.0;"/><polygon fill="#181818" points="1147.63,357.0279,1148.0149,347.1866,1145.7794,352.383,1140.583,350.1475,1147.63,357.0279" style="stroke:#181818;stroke-width:1.0;"/></g><!--link AlumnoController to AlumnoService--><g id="link_AlumnoController_AlumnoService"><path codeLine="104" d="M748.92,161.3979 C763.15,185.4879 777.8589,210.4116 789.7589,230.5616 " fill="none" id="AlumnoController-to-AlumnoService" style="stroke:#181818;stroke-width:1.0;"/><polygon fill="#181818" points="792.81,235.7279,791.6776,225.9444,790.2674,231.4226,784.7892,230.0125,792.81,235.7279" style="stroke:#181818;stroke-width:1.0;"/></g><!--link AlumnoService to AlumnoRepository--><g id="link_AlumnoService_AlumnoRepository"><path codeLine="105" d="M808.47,282.2179 C810.79,303.0479 813.6125,328.3752 816.1525,351.0652 " fill="none" id="AlumnoService-to-AlumnoRepository" style="stroke:#181818;stroke-width:1.0;"/><polygon fill="#181818" points="816.82,357.0279,819.7939,347.6388,816.2638,352.059,811.8436,348.5288,816.82,357.0279" style="stroke:#181818;stroke-width:1.0;"/></g><!--link ExamenController to ExamenService--><g id="link_ExamenController_ExamenService"><path codeLine="107" d="M187.63,161.0779 C210.89,173.9479 231,185.0679 231,185.0679 C231,185.0679 286.4382,211.8663 330.8882,233.3563 " fill="none" id="ExamenController-to-ExamenService" style="stroke:#181818;stroke-width:1.0;"/><polygon fill="#181818" points="336.29,235.9679,329.9283,228.4493,331.7885,233.7916,326.4462,235.6517,336.29,235.9679" style="stroke:#181818;stroke-width:1.0;"/></g><!--link ExamenService to ExamenRepository--><g id="link_ExamenService_ExamenRepository"><path codeLine="108" d="M323.62,280.0179 C278.61,295.4079 224,314.0679 224,314.0679 C224,314.0679 201.3219,333.146 177.6719,353.036 " fill="none" id="ExamenService-to-ExamenRepository" style="stroke:#181818;stroke-width:1.0;"/><polygon fill="#181818" points="173.08,356.8979,182.5425,354.1664,176.9066,353.6797,177.3933,348.0438,173.08,356.8979" style="stroke:#181818;stroke-width:1.0;"/></g><!--link CalendarioController to CalendarioService--><g id="link_CalendarioController_CalendarioService"><path codeLine="110" d="M1376.43,161.3979 C1346.92,185.4879 1314.7084,211.7842 1290.0184,231.9342 " fill="none" id="CalendarioController-to-CalendarioService" style="stroke:#181818;stroke-width:1.0;"/><polygon fill="#181818" points="1285.37,235.7279,1294.8718,233.1364,1289.2437,232.5665,1289.8135,226.9384,1285.37,235.7279" style="stroke:#181818;stroke-width:1.0;"/></g><!--link CalendarioService to ExamenRepository--><g id="link_CalendarioService_ExamenRepository"><path codeLine="111" d="M1217.96,282.2579 C1196.73,294.0179 1175,306.0679 1175,306.0679 C1175,306.0679 224,314.0679 224,314.0679 C224,314.0679 201.3219,333.146 177.6719,353.036 " fill="none" id="CalendarioService-to-ExamenRepository" style="stroke:#181818;stroke-width:1.0;"/><polygon fill="#181818" points="173.08,356.8979,182.5425,354.1664,176.9066,353.6797,177.3933,348.0438,173.08,356.8979" style="stroke:#181818;stroke-width:1.0;"/></g><!--link CalendarioService to AulaRepository--><g id="link_CalendarioService_AulaRepository"><path codeLine="112" d="M1240.53,282.2179 C1224.1,303.0479 1203.1375,329.6283 1185.2275,352.3183 " fill="none" id="CalendarioService-to-AulaRepository" style="stroke:#181818;stroke-width:1.0;"/><polygon fill="#181818" points="1181.51,357.0279,1190.2259,352.4418,1184.6079,353.1032,1183.9464,347.4852,1181.51,357.0279" style="stroke:#181818;stroke-width:1.0;"/></g><!--link CalendarioService to PreferenciaRepository--><g id="link_CalendarioService_PreferenciaRepository"><path codeLine="113" d="M1270.35,282.2179 C1281.97,303.0479 1296.4965,329.0983 1309.1565,351.7883 " fill="none" id="CalendarioService-to-PreferenciaRepository" style="stroke:#181818;stroke-width:1.0;"/><polygon fill="#181818" points="1312.08,357.0279,1311.1879,347.2195,1309.6438,352.6616,1304.2017,351.1175,1312.08,357.0279" style="stroke:#181818;stroke-width:1.0;"/></g><!--link IncidenciaController to IncidenciaService--><g id="link_IncidenciaController_IncidenciaService"><path codeLine="115" d="M962,152.6379 C962,177.7479 962,206.9679 962,229.6579 " fill="none" id="IncidenciaController-to-IncidenciaService" style="stroke:#181818;stroke-width:1.0;"/><polygon fill="#181818" points="962,235.6579,966,226.6579,962,230.6579,958,226.6579,962,235.6579" style="stroke:#181818;stroke-width:1.0;"/></g><!--link IncidenciaService to IncidenciaRepository--><g id="link_IncidenciaService_IncidenciaRepository"><path codeLine="116" d="M967.65,282.2179 C972.96,303.0479 979.4589,328.5236 985.2389,351.2136 " fill="none" id="IncidenciaService-to-IncidenciaRepository" style="stroke:#181818;stroke-width:1.0;"/><polygon fill="#181818" points="986.72,357.0279,988.3745,347.319,985.4857,352.1827,980.6221,349.2939,986.72,357.0279" style="stroke:#181818;stroke-width:1.0;"/></g><!--link UsuarioRepository to Usuario--><g id="link_UsuarioRepository_Usuario"><path codeLine="120" d="M658.94,416.2079 C664.31,438.3479 670.297,463.0267 675.657,485.1467 " fill="none" id="UsuarioRepository-to-Usuario" style="stroke:#181818;stroke-width:1.0;stroke-dasharray:7.0,7.0;"/><polygon fill="#181818" points="677.07,490.9779,678.838,481.289,675.8925,486.1185,671.063,483.173,677.07,490.9779" style="stroke:#181818;stroke-width:1.0;"/></g><!--link GradoRepository to Grado--><g id="link_GradoRepository_Grado"><path codeLine="121" d="M507.53,416.2079 C522.62,438.3479 540.0387,463.9014 555.1287,486.0214 " fill="none" id="GradoRepository-to-Grado" style="stroke:#181818;stroke-width:1.0;stroke-dasharray:7.0,7.0;"/><polygon fill="#181818" points="558.51,490.9779,556.7424,481.289,555.6923,486.8475,550.1338,485.7973,558.51,490.9779" style="stroke:#181818;stroke-width:1.0;"/></g><!--link AsignaturaRepository to Asignatura--><g id="link_AsignaturaRepository_Asignatura"><path codeLine="122" d="M1637.42,416.1179 C1615.61,428.4379 1595,440.0679 1595,440.0679 C1595,440.0679 975.3117,585.2989 799.3817,626.5289 " fill="none" id="AsignaturaRepository-to-Asignatura" style="stroke:#181818;stroke-width:1.0;stroke-dasharray:7.0,7.0;"/><polygon fill="#181818" points="793.54,627.8979,803.2153,629.7388,798.4081,626.7571,801.3899,621.9499,793.54,627.8979" style="stroke:#181818;stroke-width:1.0;"/></g><!--link ProfesorRepository to Profesor--><g id="link_ProfesorRepository_Profesor"><path codeLine="123" d="M1462.23,416.1179 C1442.05,428.4379 1423,440.0679 1423,440.0679 C1423,440.0679 1020.3267,661.6453 890.4667,733.1053 " fill="none" id="ProfesorRepository-to-Profesor" style="stroke:#181818;stroke-width:1.0;stroke-dasharray:7.0,7.0;"/><polygon fill="#181818" points="885.21,735.9979,895.0234,735.1634,889.5906,733.5874,891.1666,728.1545,885.21,735.9979" style="stroke:#181818;stroke-width:1.0;"/></g><!--link AulaRepository to Aula--><g id="link_AulaRepository_Aula"><path codeLine="124" d="M1118.54,416.2779 C1101.26,428.5279 1085,440.0679 1085,440.0679 C1085,440.0679 912,448.0679 912,448.0679 C912,448.0679 811,669.0679 811,669.0679 C811,669.0679 787.008,698.1494 765.718,723.9594 " fill="none" id="AulaRepository-to-Aula" style="stroke:#181818;stroke-width:1.0;stroke-dasharray:7.0,7.0;"/><polygon fill="#181818" points="761.9,728.5879,770.7126,724.1904,765.0816,724.7308,764.5412,719.0998,761.9,728.5879" style="stroke:#181818;stroke-width:1.0;"/></g><!--link AlumnoRepository to Alumno--><g id="link_AlumnoRepository_Alumno"><path codeLine="125" d="M805.71,416.2479 C782.45,462.8979 739,550.0679 739,550.0679 C739,550.0679 680.3021,586.4006 637.9321,612.6206 " fill="none" id="AlumnoRepository-to-Alumno" style="stroke:#181818;stroke-width:1.0;stroke-dasharray:7.0,7.0;"/><polygon fill="#181818" points="632.83,615.7779,642.588,614.4433,637.0817,613.1468,638.3782,607.6405,632.83,615.7779" style="stroke:#181818;stroke-width:1.0;"/></g><!--link ExamenRepository to Examen--><g id="link_ExamenRepository_Examen"><path codeLine="126" d="M166.62,416.3679 C254.66,508.1979 523,788.0679 523,788.0679 C523,788.0679 599.3846,828.0748 649.1746,854.1448 " fill="none" id="ExamenRepository-to-Examen" style="stroke:#181818;stroke-width:1.0;stroke-dasharray:7.0,7.0;"/><polygon fill="#181818" points="654.49,856.9279,648.3723,849.2095,650.0605,854.6086,644.6614,856.2968,654.49,856.9279" style="stroke:#181818;stroke-width:1.0;"/></g><!--link CalendarioRepository to Calendario--><g id="link_CalendarioRepository_Calendario"><path codeLine="127" d="M336.96,416.2979 C387.33,485.3179 511.1632,655.0111 561.5132,724.0111 " fill="none" id="CalendarioRepository-to-Calendario" style="stroke:#181818;stroke-width:1.0;stroke-dasharray:7.0,7.0;"/><polygon fill="#181818" points="565.05,728.8579,562.9761,719.2299,562.1027,724.8189,556.5137,723.9456,565.05,728.8579" style="stroke:#181818;stroke-width:1.0;"/></g><!--link IncidenciaRepository to Incidencia--><g id="link_IncidenciaRepository_Incidencia"><path codeLine="128" d="M1012.01,416.3579 C1053.25,482.2879 1151,638.5679 1151,638.5679 C1151,638.5679 1151,638.5679 1151,759.5679 C1151,759.5679 924.9802,902.5696 826.5902,964.8296 " fill="none" id="IncidenciaRepository-to-Incidencia" style="stroke:#181818;stroke-width:1.0;stroke-dasharray:7.0,7.0;"/><polygon fill="#181818" points="821.52,968.0379,831.2641,966.6055,825.7451,965.3643,826.9864,959.8453,821.52,968.0379" style="stroke:#181818;stroke-width:1.0;"/></g><!--link PreferenciaRepository to Preferencia--><g id="link_PreferenciaRepository_Preferencia"><path codeLine="129" d="M1299.12,416.3279 C1212.06,503.0379 957.1014,756.9541 870.0914,843.6041 " fill="none" id="PreferenciaRepository-to-Preferencia" style="stroke:#181818;stroke-width:1.0;stroke-dasharray:7.0,7.0;"/><polygon fill="#181818" points="865.84,847.8379,875.0397,844.3214,869.3829,844.3097,869.3946,838.6529,865.84,847.8379" style="stroke:#181818;stroke-width:1.0;"/></g><!--reverse link Grado to Asignatura--><g id="link_Grado_Asignatura"><path codeLine="133" d="M622.2867,552.0489 C649.4567,570.7389 677.57,590.0979 706.44,609.9679 " fill="none" id="Grado-backto-Asignatura" style="stroke:#181818;stroke-width:1.0;"/><polygon fill="#181818" points="612.4,545.2479,615.0764,551.944,622.2867,552.0489,619.6103,545.3528,612.4,545.2479" style="stroke:#181818;stroke-width:1.0;"/><text fill="#000000" font-family="sans-serif" font-size="12" lengthAdjust="spacing" textLength="7" x="620.2169" y="545.5839">1</text><text fill="#000000" font-family="sans-serif" font-size="12" lengthAdjust="spacing" textLength="20" x="675.1613" y="598.6427">0..*</text></g><!--link Asignatura to Profesor--><g id="link_Asignatura_Profesor"><path codeLine="134" d="M771.97,669.1879 C787.16,687.3179 806.73,710.6879 821.93,728.8379 " fill="none" id="Asignatura-Profesor" style="stroke:#181818;stroke-width:1.0;"/><text fill="#000000" font-family="sans-serif" font-size="12" lengthAdjust="spacing" textLength="20" x="754.7203" y="689.487">0..*</text><text fill="#000000" font-family="sans-serif" font-size="12" lengthAdjust="spacing" textLength="20" x="794.4772" y="717.4843">0..*</text></g><!--reverse link Profesor to Preferencia--><g id="link_Profesor_Preferencia"><path codeLine="135" d="M842.8761,800.1523 C841.4761,818.2823 840.61,829.6879 839.21,847.8379 " fill="none" id="Profesor-backto-Preferencia" style="stroke:#181818;stroke-width:1.0;"/><polygon fill="#181818" points="843.8,788.1879,839.3499,793.8621,842.8761,800.1523,847.3262,794.4781,843.8,788.1879" style="stroke:#181818;stroke-width:1.0;"/><text fill="#000000" font-family="sans-serif" font-size="12" lengthAdjust="spacing" textLength="7" x="835.6778" y="808.487">1</text><text fill="#000000" font-family="sans-serif" font-size="12" lengthAdjust="spacing" textLength="20" x="817.5059" y="836.4843">0..*</text></g><!--link Asignatura to Examen--><g id="link_Asignatura_Examen"><path codeLine="136" d="M728.03,669.5479 C710.24,695.3579 687,729.0679 687,729.0679 C687,729.0679 687,788.0679 687,788.0679 C687,788.0679 688.9,821.7779 690.36,847.5879 " fill="none" id="Asignatura-Examen" style="stroke:#181818;stroke-width:1.0;"/><text fill="#000000" font-family="sans-serif" font-size="12" lengthAdjust="spacing" textLength="7" x="716.556" y="689.6785">1</text><text fill="#000000" font-family="sans-serif" font-size="12" lengthAdjust="spacing" textLength="20" x="667.9593" y="836.6503">0..*</text></g><!--link Aula to Examen--><g id="link_Aula_Examen"><path codeLine="137" d="M726.75,788.1879 C719.62,806.3179 710.43,829.6879 703.3,847.8379 " fill="none" id="Aula-Examen" style="stroke:#181818;stroke-width:1.0;"/><text fill="#000000" font-family="sans-serif" font-size="12" lengthAdjust="spacing" textLength="7" x="716.8461" y="808.487">1</text><text fill="#000000" font-family="sans-serif" font-size="12" lengthAdjust="spacing" textLength="20" x="683.5844" y="836.4843">0..*</text></g><!--link Profesor to Examen--><g id="link_Profesor_Examen"><path codeLine="138" d="M808.33,788.1879 C784.37,806.3879 753.48,829.8579 729.55,848.0379 " fill="none" id="Profesor-Examen" style="stroke:#181818;stroke-width:1.0;"/><text fill="#000000" font-family="sans-serif" font-size="12" lengthAdjust="spacing" textLength="7" x="793.2247" y="808.487">1</text><text fill="#000000" font-family="sans-serif" font-size="12" lengthAdjust="spacing" textLength="20" x="715.5766" y="836.7281">0..*</text></g><!--link Grado to Alumno--><g id="link_Grado_Alumno"><path codeLine="139" d="M582.4,550.1879 C585.19,568.3179 588.79,591.6879 591.58,609.8379 " fill="none" id="Grado-Alumno" style="stroke:#181818;stroke-width:1.0;"/><text fill="#000000" font-family="sans-serif" font-size="12" lengthAdjust="spacing" textLength="7" x="575.5772" y="570.487">1</text><text fill="#000000" font-family="sans-serif" font-size="12" lengthAdjust="spacing" textLength="20" x="568.4256" y="598.4843">0..*</text></g><!--reverse link Calendario to Examen--><g id="link_Calendario_Examen"><path codeLine="140" d="M619.9881,797.0798 C636.4181,815.2098 649.52,829.6879 665.97,847.8379 " fill="none" id="Calendario-backto-Examen" style="stroke:#181818;stroke-width:1.0;"/><polygon fill="#181818" points="611.93,788.1879,612.9951,795.3199,619.9881,797.0798,618.923,789.9478,611.93,788.1879" style="stroke:#181818;stroke-width:1.0;"/><text fill="#000000" font-family="sans-serif" font-size="12" lengthAdjust="spacing" textLength="7" x="609.3459" y="808.487">1</text><text fill="#000000" font-family="sans-serif" font-size="12" lengthAdjust="spacing" textLength="20" x="638.0884" y="836.4843">0..*</text></g><!--reverse link Examen to Incidencia--><g id="link_Examen_Incidencia"><path codeLine="141" d="M720.1449,916.8585 C733.4649,934.9885 743.54,948.6879 756.88,966.8379 " fill="none" id="Examen-backto-Incidencia" style="stroke:#181818;stroke-width:1.0;"/><polygon fill="#181818" points="713.04,907.1879,713.3689,914.3915,720.1449,916.8585,719.816,909.6549,713.04,907.1879" style="stroke:#181818;stroke-width:1.0;"/><text fill="#000000" font-family="sans-serif" font-size="12" lengthAdjust="spacing" textLength="7" x="709.4932" y="927.487">1</text><text fill="#000000" font-family="sans-serif" font-size="12" lengthAdjust="spacing" textLength="20" x="730.0725" y="955.4843">0..*</text></g><!--SRC=[fLTTRzCm57tthx2w1xfDhVRn0cYQLDfc6XemhS2xbxYTDTSkZiCeQ3-99tx2_XWtTX8xiKEHshqaznmVE-VctflbZqniY29hV4_InvMIXSYcaak5dnwOfYXlyFo1PFA9YHLU4fxxo8mkIS5r8eMsI-yvQCK92_QJujCp3zm0bwpeGcyvnOgcceWLz-Kv4rHlDnHl9D-MDmXffe4yKTyAE6Eg2qLW3qqu9nd16OMR3HKP5IaZETxYcLmpmIGUVgIvVh_0n_Wpw7sw-t28KBKz7ankh_4DsLA5XrCug9ASKvKV3Z18U05yC3zFpf8P_eKm_59EyXnF2ltWE1LK_eunboicXfcMR_5DUJdJyh0Doq8FRUZPaxnIO7UFvfA9RCBvq1TA5IMQsescSAsCGBERBpt9sKgGqhLzz9rAT9DR9PSqbsgVBMgD-5CKVB_pm_guC2_MOY_hhK9KVFw3hAdOHzmgHCMdXCDhJnJhE_sA2gg8icfNziOjwhoQvMb0PybPgcKUUKMleRviaVLif-X6AbtlPqxlrdXFyEoLuRiYXn87zR9QqheY5rHzPocjoh6-mmV9QV9w_YQenOhGBQSmx5xY4AlVliWgU7KYKPFrC6uJ5iQTyI7cRAentwCPqGHFqjJOP0sw0wjpfgLYjKac0WuboVdyfENGbxmeTssMRF75HTKGBo-xdkraEGjtKcj7Tsk2mRj9nk-TD6l_JfhBnawgIyv_F35TKlKlRYklSasOg5Cw5p3ccdHMs44oAVzY-GHPisGR9Z4EkSp5yJfTVMZpQ3toaCGUn6GkZjbqnJ6NepZk4kFZuF0hF1gDe2BWkuH9w2xbDyArsD8qPIz_HF3506I4EZDzb8qkMxt5kxPWK5O8TOUuuRLQaN_ZmRv8T5pRumJTAuXqYRvmP4GRThVnTUxR94-mXnUfWD9T7ZwErrQzQmUs1BfJsh9QFRXrvnDyeM0Y6rwxQRVkV88l59s-XXjs-Y3I8zh3wvZHm-gnFZgspO9mwWIHBj4NjbNszUMtI0ikJP7TmXSpoxMjILDMuV0PZvlQGTsHKs8cXg9ZfeGTW2BpfMJKOTGPAsOrX50mIGnYWYWO7oLcWoWwCqhS0IWwB4gE0r1yIjYZDqYqY_7cVnjZhctsWzC1FWBcu6GyFXhu1daTlm8ThN6fQViT7Vyilj2fhr8vOtf_56cf1wXx0E_yDX5Uy-ySh5fRJOuEwDdy5m00]--></g></svg>