<?xml version="1.0" encoding="UTF-8" standalone="no"?><svg xmlns="http://www.w3.org/2000/svg" xmlns:xlink="http://www.w3.org/1999/xlink" contentScriptType="application/ecmascript" contentStyleType="text/css" height="465px" preserveAspectRatio="none" style="width:957px;height:465px;" version="1.1" viewBox="0 0 957 465" width="957px" zoomAndPan="magnify"><defs><filter height="300%" id="fifniou0g0lx3" width="300%" x="-1" y="-1"><feGaussianBlur result="blurOut" stdDeviation="2.0"/><feColorMatrix in="blurOut" result="blurOut2" type="matrix" values="0 0 0 0 0 0 0 0 0 0 0 0 0 0 0 0 0 0 .4 0"/><feOffset dx="4.0" dy="4.0" in="blurOut2" result="blurOut3"/><feBlend in="SourceGraphic" in2="blurOut3" mode="normal"/></filter></defs><g><!--MD5=[dc5700075b37a3034047f5e24ee577a1]
cluster importarGrados--><polygon fill="#FFFFFF" filter="url(#fifniou0g0lx3)" points="147.5,24,274.5,24,281.5,49.0679,666.5,49.0679,666.5,453,147.5,453,147.5,24" style="stroke: #000000; stroke-width: 1.5;"/><line style="stroke: #000000; stroke-width: 1.5;" x1="147.5" x2="281.5" y1="49.0679" y2="49.0679"/><text fill="#000000" font-family="sans-serif" font-size="14" font-weight="bold" lengthAdjust="spacingAndGlyphs" textLength="121" x="151.5" y="40.9659">importarGrados()</text><!--MD5=[5cf172b2f388f61750a8a83e9a685bd9]
entity ImportarGradosView--><rect fill="#629EF9" filter="url(#fifniou0g0lx3)" height="39.0679" style="stroke: #000000; stroke-width: 1.5;" width="159" x="376" y="62"/><text fill="#000000" font-family="sans-serif" font-size="14" lengthAdjust="spacingAndGlyphs" textLength="139" x="386" y="86.9659">ImportarGradosView</text><!--MD5=[a3e98a5f49c68695f130a43f280d8ecf]
entity GradoController--><rect fill="#B5BD68" filter="url(#fifniou0g0lx3)" height="39.0679" style="stroke: #000000; stroke-width: 1.5;" width="128" x="271.5" y="180"/><text fill="#000000" font-family="sans-serif" font-size="14" lengthAdjust="spacingAndGlyphs" textLength="108" x="281.5" y="204.9659">GradoController</text><!--MD5=[9db62e2c3b018035cc77fb2476be44ee]
entity GradoRepository--><rect fill="#F2AC4E" filter="url(#fifniou0g0lx3)" height="39.0679" style="stroke: #000000; stroke-width: 1.5;" width="132" x="269.5" y="298"/><text fill="#000000" font-family="sans-serif" font-size="14" lengthAdjust="spacingAndGlyphs" textLength="112" x="279.5" y="322.9659">GradoRepository</text><!--MD5=[cbab0994e6ada9fe76b72748ce5407a5]
entity Grado--><rect fill="#F2AC4E" filter="url(#fifniou0g0lx3)" height="39.0679" style="stroke: #000000; stroke-width: 1.5;" width="61" x="305" y="398"/><text fill="#000000" font-family="sans-serif" font-size="14" lengthAdjust="spacingAndGlyphs" textLength="41" x="315" y="422.9659">Grado</text><!--MD5=[3e6950dcd7c5974da44e54c6a1f84818]
entity GradosAbierto--><rect fill="#CDEBA5" filter="url(#fifniou0g0lx3)" height="39.0679" style="stroke: #000000; stroke-width: 1.5;" width="125" x="6" y="62"/><text fill="#000000" font-family="sans-serif" font-size="14" lengthAdjust="spacingAndGlyphs" textLength="105" x="16" y="86.9659">:Grados Abierto</text><!--MD5=[8e378021382d6056b9e85f89fdf49294]
entity GradosAbiertoSalida--><rect fill="#CDEBA5" filter="url(#fifniou0g0lx3)" height="39.0679" style="stroke: #000000; stroke-width: 1.5;" width="125" x="740" y="180"/><text fill="#000000" font-family="sans-serif" font-size="14" lengthAdjust="spacingAndGlyphs" textLength="105" x="750" y="204.9659">:Grados Abierto</text><!--MD5=[9c0aa7cae917c90721dd1d103beb7af0]
link GradosAbierto to ImportarGradosView--><path d="M131.11,81.5 C196.18,81.5 298.44,81.5 370.73,81.5 " fill="none" id="GradosAbierto-&gt;ImportarGradosView" style="stroke: #A80036; stroke-width: 1.0;"/><polygon fill="#A80036" points="375.88,81.5,366.88,77.5,370.88,81.5,366.88,85.5,375.88,81.5" style="stroke: #A80036; stroke-width: 1.0;"/><text fill="#000000" font-family="sans-serif" font-size="13" lengthAdjust="spacingAndGlyphs" textLength="104" x="201.5" y="74.397">importarGrados()</text><!--MD5=[9723c1934547d71c4188a0304138f4ab]
link ImportarGradosView to GradoController--><path d="M375.72,97.38 C299.3,111.64 195.5,131 195.5,131 C195.5,131 195.5,150 195.5,150 C195.5,150 238.36,164.85 276.65,178.11 " fill="none" id="ImportarGradosView-&gt;GradoController" style="stroke: #A80036; stroke-width: 1.0;"/><polygon fill="#A80036" points="281.77,179.89,274.5694,173.1706,277.044,178.2574,271.9572,180.7321,281.77,179.89" style="stroke: #A80036; stroke-width: 1.0;"/><text fill="#000000" font-family="sans-serif" font-size="13" lengthAdjust="spacingAndGlyphs" textLength="215" x="196.5" y="145.897">obtenerFormatoRequerido() : String</text><!--MD5=[9723c1934547d71c4188a0304138f4ab]
link ImportarGradosView to GradoController--><path d="M444.64,101.3 C433.1,121.28 416.5,150 416.5,150 C416.5,150 392.71,164.25 370.91,177.3 " fill="none" id="ImportarGradosView-&gt;GradoController-1" style="stroke: #A80036; stroke-width: 1.0;"/><polygon fill="#A80036" points="366.59,179.89,376.3683,178.7135,370.8838,177.3281,372.2692,171.8435,366.59,179.89" style="stroke: #A80036; stroke-width: 1.0;"/><text fill="#000000" font-family="sans-serif" font-size="13" lengthAdjust="spacingAndGlyphs" textLength="193" x="427.5" y="145.897">importar(archivo) : ImportResult</text><!--MD5=[e1d8aaea052639662974e84b9c6de6e8]
link GradoController to GradoRepository--><path d="M335.5,219.14 C335.5,239.18 335.5,271.09 335.5,292.88 " fill="none" id="GradoController-&gt;GradoRepository" style="stroke: #A80036; stroke-width: 1.0;"/><polygon fill="#A80036" points="335.5,297.91,339.5,288.91,335.5,292.91,331.5,288.91,335.5,297.91" style="stroke: #A80036; stroke-width: 1.0;"/><text fill="#000000" font-family="sans-serif" font-size="13" lengthAdjust="spacingAndGlyphs" textLength="206" x="336.5" y="263.897">guardarLote(grados) : List&lt;Grado&gt;</text><!--MD5=[aa358040f2fb0976a0f9fba190c9f6ed]
link GradoRepository to Grado--><path d="M335.5,337.4 C335.5,354.86 335.5,380.66 335.5,397.99 " fill="none" id="GradoRepository-Grado" style="stroke: #A80036; stroke-width: 1.0;"/><!--MD5=[39f58dac27fa435283c30d498ebf0920]
link ImportarGradosView to GradosAbiertoSalida--><path d="M522.28,101.11 C571.34,114.79 629.5,131 629.5,131 C629.5,131 699.01,158.12 749.9,177.98 " fill="none" id="ImportarGradosView-&gt;GradosAbiertoSalida" style="stroke: #A80036; stroke-width: 1.0; stroke-dasharray: 7.0,7.0;"/><polygon fill="#A80036" points="754.77,179.88,747.8545,172.8674,750.1159,178.0526,744.9307,180.314,754.77,179.88" style="stroke: #A80036; stroke-width: 1.0;"/><text fill="#000000" font-family="sans-serif" font-size="13" lengthAdjust="spacingAndGlyphs" textLength="128" x="676.5" y="145.897">finalizarImportacion()</text><!--MD5=[39f58dac27fa435283c30d498ebf0920]
link ImportarGradosView to GradosAbiertoSalida--><path d="M535.4,93.32 C640.91,107.62 813.5,131 813.5,131 C813.5,131 813.5,150 813.5,150 C813.5,150 810.63,162.63 807.83,175 " fill="none" id="ImportarGradosView-&gt;GradosAbiertoSalida-1" style="stroke: #A80036; stroke-width: 1.0; stroke-dasharray: 7.0,7.0;"/><polygon fill="#A80036" points="806.72,179.89,812.6261,172.0085,807.8349,175.0159,804.8275,170.2247,806.72,179.89" style="stroke: #A80036; stroke-width: 1.0;"/><text fill="#000000" font-family="sans-serif" font-size="13" lengthAdjust="spacingAndGlyphs" textLength="131" x="814.5" y="145.897">cancelarImportacion()</text><!--MD5=[6cea70fbd290524fdbd974be1cc1cf20]
@startuml importarGrados-analisis
skinparam linetype polyline

rectangle #CDEBA5 ":Grados Abierto" as GradosAbierto

package importarGrados as "importarGrados()" {
    rectangle #629EF9 ImportarGradosView
    rectangle #b5bd68 GradoController
    rectangle #F2AC4E GradoRepository
    rectangle #F2AC4E Grado
}

rectangle #CDEBA5 ":Grados Abierto" as GradosAbiertoSalida

GradosAbierto -r-> ImportarGradosView: importarGrados()

ImportarGradosView -d-> GradoController: obtenerFormatoRequerido() : String

ImportarGradosView -d-> GradoController: importar(archivo) : ImportResult

GradoController - -> GradoRepository: guardarLote(grados) : List<Grado>

GradoRepository - - Grado

ImportarGradosView ..> GradosAbiertoSalida: finalizarImportacion()
ImportarGradosView ..> GradosAbiertoSalida: cancelarImportacion()

@enduml

PlantUML version 1.2020.02(Sun Mar 01 11:22:07 CET 2020)
(GPL source distribution)
Java Runtime: OpenJDK Runtime Environment
JVM: OpenJDK 64-Bit Server VM
Java Version: 21.0.10+7-Ubuntu-125.10
Operating System: Linux
Default Encoding: UTF-8
Language: es
Country: ES
--></g></svg>