<?xml version="1.0" encoding="us-ascii" standalone="no"?><svg xmlns="http://www.w3.org/2000/svg" xmlns:xlink="http://www.w3.org/1999/xlink" contentStyleType="text/css" height="522px" preserveAspectRatio="none" style="width:2014px;height:522px;background:#FFFFFF;" version="1.1" viewBox="0 0 2014 522" width="2014px" zoomAndPan="magnify"><defs/><g><!--cluster abrirAsignaturas--><g id="cluster_abrirAsignaturas"><path d="M155.5,6.016 L265.5,6.016 A3.75,3.75 0 0 1 268,8.516 L275,28.3601 L903.5,28.3601 A2.5,2.5 0 0 1 906,30.8601 L906,512.516 A2.5,2.5 0 0 1 903.5,515.016 L155.5,515.016 A2.5,2.5 0 0 1 153,512.516 L153,8.516 A2.5,2.5 0 0 1 155.5,6.016 " fill="none" style="stroke:#000000;stroke-width:1.5;"/><line style="stroke:#000000;stroke-width:1.5;" x1="153" x2="275" y1="28.3601" y2="28.3601"/><text fill="#000000" font-family="sans-serif" font-size="12" font-weight="bold" lengthAdjust="spacing" textLength="109" x="157" y="20.8441">abrirAsignaturas()</text></g><!--entity ListarAsignaturasView--><g id="elem_ListarAsignaturasView"><rect fill="#629EF9" height="36.3441" rx="2.5" ry="2.5" style="stroke:#181818;stroke-width:0.5;" width="144" x="746" y="41.016"/><text fill="#000000" font-family="sans-serif" font-size="12" lengthAdjust="spacing" textLength="124" x="756" y="63.8441">ListarAsignaturasView</text></g><!--entity AsignaturaController--><g id="elem_AsignaturaController"><rect fill="#B5BD68" height="36.3441" rx="2.5" ry="2.5" style="stroke:#181818;stroke-width:0.5;" width="137" x="322.5" y="155.016"/><text fill="#000000" font-family="sans-serif" font-size="12" lengthAdjust="spacing" textLength="117" x="332.5" y="177.8441">AsignaturaController</text></g><!--entity AsignaturaRepository--><g id="elem_AsignaturaRepository"><rect fill="#F2AC4E" height="36.3441" rx="2.5" ry="2.5" style="stroke:#181818;stroke-width:0.5;" width="140" x="323" y="269.016"/><text fill="#000000" font-family="sans-serif" font-size="12" lengthAdjust="spacing" textLength="120" x="333" y="291.8441">AsignaturaRepository</text></g><!--entity Asignatura--><g id="elem_Asignatura"><rect fill="#F2AC4E" height="36.3441" rx="2.5" ry="2.5" style="stroke:#181818;stroke-width:0.5;" width="81" x="352.5" y="366.016"/><text fill="#000000" font-family="sans-serif" font-size="12" lengthAdjust="spacing" textLength="61" x="362.5" y="388.8441">Asignatura</text></g><!--entity Grado--><g id="elem_Grado"><rect fill="#F2AC4E" height="36.3441" rx="2.5" ry="2.5" style="stroke:#181818;stroke-width:0.5;" width="55" x="365.5" y="463.016"/><text fill="#000000" font-family="sans-serif" font-size="12" lengthAdjust="spacing" textLength="35" x="375.5" y="485.8441">Grado</text></g><!--entity SistemaDisponible--><g id="elem_SistemaDisponible"><rect fill="#CDEBA5" height="36.3441" rx="2.5" ry="2.5" style="stroke:#181818;stroke-width:0.5;" width="130" x="7" y="41.016"/><text fill="#000000" font-family="sans-serif" font-size="12" lengthAdjust="spacing" textLength="110" x="17" y="63.8441">:Sistema Disponible</text></g><!--entity SistemaDisponibleSalida--><g id="elem_SistemaDisponibleSalida"><rect fill="#CDEBA5" height="36.3441" rx="2.5" ry="2.5" style="stroke:#181818;stroke-width:0.5;" width="130" x="922" y="155.016"/><text fill="#000000" font-family="sans-serif" font-size="12" lengthAdjust="spacing" textLength="110" x="932" y="177.8441">:Sistema Disponible</text></g><!--entity CrearAsignatura--><g id="elem_CrearAsignatura"><rect fill="#CDEBA5" height="36.3441" rx="2.5" ry="2.5" style="stroke:#181818;stroke-width:0.5;" width="194" x="1087" y="155.016"/><text fill="#000000" font-family="sans-serif" font-size="12" lengthAdjust="spacing" textLength="174" x="1097" y="177.8441">:Collaboration CrearAsignatura</text></g><!--entity EditarAsignatura--><g id="elem_EditarAsignatura"><rect fill="#CDEBA5" height="36.3441" rx="2.5" ry="2.5" style="stroke:#181818;stroke-width:0.5;" width="195" x="1316.5" y="155.016"/><text fill="#000000" font-family="sans-serif" font-size="12" lengthAdjust="spacing" textLength="175" x="1326.5" y="177.8441">:Collaboration EditarAsignatura</text></g><!--entity EliminarAsignatura--><g id="elem_EliminarAsignatura"><rect fill="#CDEBA5" height="36.3441" rx="2.5" ry="2.5" style="stroke:#181818;stroke-width:0.5;" width="208" x="1547" y="155.016"/><text fill="#000000" font-family="sans-serif" font-size="12" lengthAdjust="spacing" textLength="188" x="1557" y="177.8441">:Collaboration EliminarAsignatura</text></g><!--entity ImportarAsignaturas--><g id="elem_ImportarAsignaturas"><rect fill="#CDEBA5" height="36.3441" rx="2.5" ry="2.5" style="stroke:#181818;stroke-width:0.5;" width="218" x="1790" y="155.016"/><text fill="#000000" font-family="sans-serif" font-size="12" lengthAdjust="spacing" textLength="198" x="1800" y="177.8441">:Collaboration ImportarAsignaturas</text></g><!--link SistemaDisponible to ListarAsignaturasView--><g id="link_SistemaDisponible_ListarAsignaturasView"><path d="M137.22,59.016 C276.3,59.016 595.1,59.016 740,59.016 " fill="none" id="SistemaDisponible-to-ListarAsignaturasView" style="stroke:#181818;stroke-width:1.0;"/><polygon fill="#181818" points="746,59.016,737,55.016,741,59.016,737,63.016,746,59.016" style="stroke:#181818;stroke-width:1.0;"/><text fill="#000000" font-family="sans-serif" font-size="12" lengthAdjust="spacing" textLength="102" x="390.5" y="51.8441">abrirAsignaturas()</text></g><!--link ListarAsignaturasView to AsignaturaController--><g id="link_ListarAsignaturasView_AsignaturaController"><path d="M746,65.546 C584.22,77.966 206,107.016 206,107.016 C206,107.016 206,125.016 206,125.016 C206,125.016 265.195,140.0476 318.135,153.5076 " fill="none" id="ListarAsignaturasView-to-AsignaturaController" style="stroke:#181818;stroke-width:1.0;"/><polygon fill="#181818" points="323.95,154.986,316.2132,148.8917,319.1042,153.754,314.2419,156.645,323.95,154.986" style="stroke:#181818;stroke-width:1.0;"/><text fill="#000000" font-family="sans-serif" font-size="12" lengthAdjust="spacing" textLength="294" x="207" y="120.8441">listarAsignaturas(pagina) : PagedResult&lt;Asignatura&gt;</text></g><!--link ListarAsignaturasView to AsignaturaController--><g id="link_ListarAsignaturasView_AsignaturaController"><path d="M745.92,72.426 C665.03,86.346 545,107.016 545,107.016 C545,107.016 506,125.016 506,125.016 C506,125.016 471.2739,139.2058 438.3939,152.6458 " fill="none" id="ListarAsignaturasView-to-AsignaturaController-1" style="stroke:#181818;stroke-width:1.0;"/><polygon fill="#181818" points="432.84,154.916,442.6844,155.2133,437.4683,153.0242,439.6574,147.8081,432.84,154.916" style="stroke:#181818;stroke-width:1.0;"/><text fill="#000000" font-family="sans-serif" font-size="12" lengthAdjust="spacing" textLength="343" x="546" y="120.8441">filtrarAsignaturas(criterio, pagina) : PagedResult&lt;Asignatura&gt;</text></g><!--link AsignaturaController to AsignaturaRepository--><g id="link_AsignaturaController_AsignaturaRepository"><path d="M322.41,190.986 C267.98,204.446 201,221.016 201,221.016 C201,221.016 201,239.016 201,239.016 C201,239.016 262.6423,254.0983 317.5823,267.5583 " fill="none" id="AsignaturaController-to-AsignaturaRepository" style="stroke:#181818;stroke-width:1.0;"/><polygon fill="#181818" points="323.41,268.986,315.6203,262.9593,318.5536,267.7962,313.7167,270.7295,323.41,268.986" style="stroke:#181818;stroke-width:1.0;"/><text fill="#000000" font-family="sans-serif" font-size="12" lengthAdjust="spacing" textLength="301" x="202" y="234.8441">obtenerPaginadas(pagina) : PagedResult&lt;Asignatura&gt;</text></g><!--link AsignaturaController to AsignaturaRepository--><g id="link_AsignaturaController_AsignaturaRepository"><path d="M433.57,191.116 C467.02,204.556 508,221.016 508,221.016 C508,221.016 508,239.016 508,239.016 C508,239.016 473.2739,253.2058 440.3939,266.6458 " fill="none" id="AsignaturaController-to-AsignaturaRepository-1" style="stroke:#181818;stroke-width:1.0;"/><polygon fill="#181818" points="434.84,268.916,444.6844,269.2133,439.4683,267.0242,441.6574,261.8081,434.84,268.916" style="stroke:#181818;stroke-width:1.0;"/><text fill="#000000" font-family="sans-serif" font-size="12" lengthAdjust="spacing" textLength="341" x="509" y="234.8441">buscarPaginadas(criterio, pagina) : PagedResult&lt;Asignatura&gt;</text></g><!--link AsignaturaRepository to Asignatura--><g id="link_AsignaturaRepository_Asignatura"><path d="M393,305.436 C393,322.586 393,348.596 393,365.706 " fill="none" id="AsignaturaRepository-Asignatura" style="stroke:#181818;stroke-width:1.0;"/></g><!--link Asignatura to Grado--><g id="link_Asignatura_Grado"><path d="M393,402.436 C393,419.586 393,445.596 393,462.706 " fill="none" id="Asignatura-Grado" style="stroke:#181818;stroke-width:1.0;"/></g><!--link ListarAsignaturasView to SistemaDisponibleSalida--><g id="link_ListarAsignaturasView_SistemaDisponibleSalida"><path d="M847.33,77.246 C870.17,90.666 898,107.016 898,107.016 C898,107.016 932.4047,132.1372 958.7747,151.3972 " fill="none" id="ListarAsignaturasView-to-SistemaDisponibleSalida" style="stroke:#181818;stroke-width:1.0;stroke-dasharray:7.0,7.0;"/><polygon fill="#181818" points="963.62,154.936,958.7114,146.3976,959.5823,151.987,953.9929,152.8579,963.62,154.936" style="stroke:#181818;stroke-width:1.0;"/><text fill="#000000" font-family="sans-serif" font-size="12" lengthAdjust="spacing" textLength="108" x="922" y="120.8441">completarGestion()</text></g><!--link ListarAsignaturasView to CrearAsignatura--><g id="link_ListarAsignaturasView_CrearAsignatura"><path d="M890.06,75.336 C954.55,89.056 1039,107.016 1039,107.016 C1039,107.016 1097.465,133.2215 1140.425,152.4815 " fill="none" id="ListarAsignaturasView-to-CrearAsignatura" style="stroke:#181818;stroke-width:1.0;stroke-dasharray:7.0,7.0;"/><polygon fill="#181818" points="1145.9,154.936,1139.3239,147.6042,1141.3375,152.8906,1136.0512,154.9042,1145.9,154.936" style="stroke:#181818;stroke-width:1.0;"/><text fill="#000000" font-family="sans-serif" font-size="12" lengthAdjust="spacing" textLength="99" x="1078" y="120.8441">crearAsignatura()</text></g><!--link ListarAsignaturasView to EditarAsignatura--><g id="link_ListarAsignaturasView_EditarAsignatura"><path d="M890.27,69.246 C997.44,82.936 1186,107.016 1186,107.016 C1186,107.016 1280.7699,134.0311 1348.3299,153.2911 " fill="none" id="ListarAsignaturasView-to-EditarAsignatura" style="stroke:#181818;stroke-width:1.0;stroke-dasharray:7.0,7.0;"/><polygon fill="#181818" points="1354.1,154.936,1346.5415,148.6219,1349.2916,153.5652,1344.3482,156.3154,1354.1,154.936" style="stroke:#181818;stroke-width:1.0;"/><text fill="#000000" font-family="sans-serif" font-size="12" lengthAdjust="spacing" textLength="102" x="1248" y="120.8441">editarAsignatura()</text></g><!--link ListarAsignaturasView to EliminarAsignatura--><g id="link_ListarAsignaturasView_EliminarAsignatura"><path d="M890.12,66.286 C1037.41,79.076 1359,107.016 1359,107.016 C1359,107.016 1481.9134,134.3721 1568.4234,153.6321 " fill="none" id="ListarAsignaturasView-to-EliminarAsignatura" style="stroke:#181818;stroke-width:1.0;stroke-dasharray:7.0,7.0;"/><polygon fill="#181818" points="1574.28,154.936,1566.3643,149.0758,1569.3995,153.8495,1564.6258,156.8846,1574.28,154.936" style="stroke:#181818;stroke-width:1.0;"/><text fill="#000000" font-family="sans-serif" font-size="12" lengthAdjust="spacing" textLength="115" x="1438" y="120.8441">eliminarAsignatura()</text></g><!--link ListarAsignaturasView to ImportarAsignaturas--><g id="link_ListarAsignaturasView_ImportarAsignaturas"><path d="M890.01,64.566 C1076.73,76.356 1562,107.016 1562,107.016 C1562,107.016 1704.7186,134.5396 1804.5686,153.7996 " fill="none" id="ListarAsignaturasView-to-ImportarAsignaturas" style="stroke:#181818;stroke-width:1.0;stroke-dasharray:7.0,7.0;"/><polygon fill="#181818" points="1810.46,154.936,1802.3805,149.3038,1805.5505,153.989,1800.8653,157.159,1810.46,154.936" style="stroke:#181818;stroke-width:1.0;"/><text fill="#000000" font-family="sans-serif" font-size="12" lengthAdjust="spacing" textLength="124" x="1653" y="120.8441">importarAsignaturas()</text></g><!--SRC=[hPHDQzj048Rl-oi6zv907QXfGYE2mPNjKEWXn93xhZHMXgnsnUmQuvR-zuwTKidwS1qQuOFyxZlFCBCp2Y_aAisw1AEpbuBznkMfjvvX-qmHLVXx7fvrxhVa2bXh6vedSrphZOrBx-9hgB72wZUiw0V2fqdZq9B3kAiGAczt-pzACMPHky8YV4ZdYw-pQnWbAmeHImrp2fLtP2oEG0Vu8zUgKfKarmM2Damy2rGu7JSiNlcDskB5vGX-Af2daVHcShjOti9tOUkc-Obms_QQQvFVV87QbKgLxAr5RbkNardwUT6mFcBb0qNFktzQ1mptB9UYVlrVorRQKgvx4NAVLXlFEf9ta38s-t6WjRGpA8kSOWVJ5i_XM2h9TKaT-GpMjxBoV7pP1rYFhbIdWJ3cyRH_N1BeJfnIlLOOvqBf6wH4bgGLS57fGggyX0GUPDZpHmooONUrOwfK7mh6Hpdg2Kp0cuWE-U40pj-QeYP9YkRWrg_xWzU17Mh0OFrhif6F6v2nV9-O_4Tu_rQOJSXqenDlojLVszNLT6Zp4iXyMLcKg7iC-tcK6Hccj3PEee-5ay7jFKi0MyhfyCvo2Q2ZdKJqh5G2r1K5yXi0]--></g></svg>