<?xml version="1.0" encoding="us-ascii" standalone="no"?><svg xmlns="http://www.w3.org/2000/svg" xmlns:xlink="http://www.w3.org/1999/xlink" contentStyleType="text/css" height="664px" preserveAspectRatio="none" style="width:756px;height:664px;background:#FFFFFF;" version="1.1" viewBox="0 0 756 664" width="756px" zoomAndPan="magnify"><defs/><g><path d="M19.5,7 L730.5,7 A12.5,12.5 0 0 1 743,19.5 L743,34.6094 L7,34.6094 L7,19.5 A12.5,12.5 0 0 1 19.5,7 " fill="#F1F1F1" style="stroke:#F1F1F1;stroke-width:1.0;"/><rect fill="none" height="504.6094" rx="12.5" ry="12.5" style="stroke:#181818;stroke-width:0.5;" width="736" x="7" y="7"/><line style="stroke:#181818;stroke-width:0.5;" x1="7" x2="743" y1="34.6094" y2="34.6094"/><text fill="#000000" font-family="sans-serif" font-size="14" lengthAdjust="spacing" textLength="100" x="325" y="26.5332">editarProfesor()</text><g id="editarProfesor.EditandoDatos"><rect fill="#F1F1F1" height="50" rx="12.5" ry="12.5" style="stroke:#181818;stroke-width:0.5;" width="50" x="195" y="137.6094"/><line style="stroke:#181818;stroke-width:0.5;" x1="195" x2="245" y1="165.2188" y2="165.2188"/><text fill="#000000" font-family="sans-serif" font-size="14" lengthAdjust="spacing" textLength="4" x="218" y="157.1426">&#160;</text></g><g id="editarProfesor.GuardandoDatos"><rect fill="#F1F1F1" height="50" rx="12.5" ry="12.5" style="stroke:#181818;stroke-width:0.5;" width="50" x="195" y="341.6094"/><line style="stroke:#181818;stroke-width:0.5;" x1="195" x2="245" y1="369.2188" y2="369.2188"/><text fill="#000000" font-family="sans-serif" font-size="14" lengthAdjust="spacing" textLength="4" x="218" y="361.1426">&#160;</text></g><ellipse cx="220" cy="55.6094" fill="#222222" rx="10" ry="10" style="stroke:#222222;stroke-width:1.0;"/><ellipse cx="220" cy="490.6094" fill="none" rx="11" ry="11" style="stroke:#222222;stroke-width:1.0;"/><ellipse cx="220" cy="490.6094" fill="#222222" rx="6" ry="6" style="stroke:#222222;stroke-width:1.0;"/><!--link *start*editarProfesor to EditandoDatos--><g id="link_*start*editarProfesor_EditandoDatos"><path d="M220,65.9294 C220,81.7894 220,108.5194 220,131.2494 " fill="none" id="*start*editarProfesor-to-EditandoDatos" style="stroke:#008000;stroke-width:1.0;"/><polygon fill="#008000" points="220,137.2494,224,128.2494,220,132.2494,216,128.2494,220,137.2494" style="stroke:#008000;stroke-width:1.0;"/><path d="M225,88.6094 L225,114.6094 L466,114.6094 L466,98.6094 L456,88.6094 L225,88.6094 " fill="#FEFFDD" style="stroke:#181818;stroke-width:0.5;"/><path d="M456,88.6094 L456,98.6094 L466,98.6094 L456,88.6094 " fill="#FEFFDD" style="stroke:#181818;stroke-width:0.5;"/><text fill="#000000" font-family="sans-serif" font-size="13" font-weight="bold" lengthAdjust="spacing" textLength="89" x="231" y="107.1045">Administrador</text><text fill="#000000" font-family="sans-serif" font-size="13" lengthAdjust="spacing" textLength="127" x="324" y="107.1045">solicita editar profesor</text></g><!--link EditandoDatos to GuardandoDatos--><g id="link_EditandoDatos_GuardandoDatos"><path d="M194.79,171.1194 C154.24,183.1994 79,205.6094 79,205.6094 C79,205.6094 79,323.6094 79,323.6094 C79,323.6094 148.4897,344.3063 189.0397,356.3863 " fill="none" id="EditandoDatos-to-GuardandoDatos" style="stroke:#008000;stroke-width:1.0;"/><polygon fill="#008000" points="194.79,358.0994,187.3066,351.6963,189.9981,356.6719,185.0226,359.3633,194.79,358.0994" style="stroke:#008000;stroke-width:1.0;"/><path d="M84,210.6094 L84,318.6094 L336,318.6094 L336,220.6094 L326,210.6094 L84,210.6094 " fill="#FEFFDD" style="stroke:#181818;stroke-width:0.5;"/><path d="M326,210.6094 L326,220.6094 L336,220.6094 L326,210.6094 " fill="#FEFFDD" style="stroke:#181818;stroke-width:0.5;"/><text fill="#000000" font-family="sans-serif" font-size="13" font-weight="bold" lengthAdjust="spacing" textLength="51" x="90" y="229.1045">Sistema</text><text fill="#000000" font-family="sans-serif" font-size="13" lengthAdjust="spacing" textLength="149" x="145" y="229.1045">presenta datos de edici&#243;n</text><text fill="#000000" font-family="sans-serif" font-size="13" lengthAdjust="spacing" textLength="195" x="90" y="245.4561">&#8226; Permite introducir nuevo nombre</text><text fill="#000000" font-family="sans-serif" font-size="13" lengthAdjust="spacing" textLength="183" x="90" y="261.8076">&#8226; Permite introducir nuevo email</text><text fill="#000000" font-family="sans-serif" font-size="13" lengthAdjust="spacing" textLength="231" x="90" y="278.1592">&#8226; Permite introducir nuevo departamento</text><text fill="#000000" font-family="sans-serif" font-size="13" lengthAdjust="spacing" textLength="203" x="90" y="294.5107">&#8226; Permite solicitar guardar cambios</text><text fill="#000000" font-family="sans-serif" font-size="13" lengthAdjust="spacing" textLength="201" x="90" y="310.8623">&#8226; Permite solicitar cancelar edici&#243;n</text></g><!--link GuardandoDatos to EditandoDatos--><g id="link_GuardandoDatos_EditandoDatos"><path d="M245.07,356.9094 C280.51,344.6094 341,323.6094 341,323.6094 C341,323.6094 341,205.6094 341,205.6094 C341,205.6094 286.1783,186.5767 250.7383,174.2767 " fill="none" id="GuardandoDatos-to-EditandoDatos" style="stroke:#008000;stroke-width:1.0;"/><polygon fill="#008000" points="245.07,172.3094,252.261,179.0392,249.7936,173.9488,254.884,171.4814,245.07,172.3094" style="stroke:#008000;stroke-width:1.0;"/><path d="M346,235.1094 L346,294.1094 L610,294.1094 L610,245.1094 L600,235.1094 L346,235.1094 " fill="#FEFFDD" style="stroke:#181818;stroke-width:0.5;"/><path d="M600,235.1094 L600,245.1094 L610,245.1094 L600,235.1094 " fill="#FEFFDD" style="stroke:#181818;stroke-width:0.5;"/><text fill="#000000" font-family="sans-serif" font-size="13" font-weight="bold" lengthAdjust="spacing" textLength="89" x="352" y="253.6045">Administrador</text><text fill="#000000" font-family="sans-serif" font-size="13" lengthAdjust="spacing" textLength="147" x="445" y="253.6045">solicita modificar campos</text><text fill="#000000" font-family="sans-serif" font-size="13" font-weight="bold" lengthAdjust="spacing" textLength="51" x="352" y="269.9561">Sistema</text><text fill="#000000" font-family="sans-serif" font-size="13" lengthAdjust="spacing" textLength="188" x="407" y="269.9561">permite introducir nuevos valores</text><text fill="#000000" font-family="sans-serif" font-size="13" font-weight="bold" lengthAdjust="spacing" textLength="51" x="352" y="286.3076">Sistema</text><text fill="#000000" font-family="sans-serif" font-size="13" lengthAdjust="spacing" textLength="160" x="407" y="286.3076">permite verificar email &#250;nico</text></g><!--link GuardandoDatos to *end*editarProfesor--><g id="link_GuardandoDatos_*end*editarProfesor"><path d="M194.82,372.8394 C140.68,384.0994 18,409.6094 18,409.6094 C18,409.6094 18,461.6094 18,461.6094 C18,461.6094 161.2367,481.4664 203.1967,487.2764 " fill="none" id="GuardandoDatos-to-*end*editarProfesor" style="stroke:#008000;stroke-width:1.0;"/><polygon fill="#008000" points="209.14,488.0994,200.7737,482.9028,204.1873,487.4136,199.6764,490.8272,209.14,488.0994" style="stroke:#008000;stroke-width:1.0;"/><path d="M23,414.6094 L23,456.6094 L397,456.6094 L397,424.6094 L387,414.6094 L23,414.6094 " fill="#FEFFDD" style="stroke:#181818;stroke-width:0.5;"/><path d="M387,414.6094 L387,424.6094 L397,424.6094 L387,414.6094 " fill="#FEFFDD" style="stroke:#181818;stroke-width:0.5;"/><text fill="#000000" font-family="sans-serif" font-size="13" font-weight="bold" lengthAdjust="spacing" textLength="89" x="29" y="433.1045">Administrador</text><text fill="#000000" font-family="sans-serif" font-size="13" lengthAdjust="spacing" textLength="127" x="122" y="433.1045">solicita guardar y salir</text><text fill="#000000" font-family="sans-serif" font-size="13" font-weight="bold" lengthAdjust="spacing" textLength="51" x="29" y="449.4561">Sistema</text><text fill="#000000" font-family="sans-serif" font-size="13" lengthAdjust="spacing" textLength="298" x="84" y="449.4561">visualiza y actualiza el profesor en la base de datos</text></g><!--link GuardandoDatos to *end*editarProfesor--><g id="link_GuardandoDatos_*end*editarProfesor"><path d="M245.31,373.4494 C295.31,384.9894 402,409.6094 402,409.6094 C402,409.6094 402,461.6094 402,461.6094 C402,461.6094 275.9502,480.9967 236.7702,487.0267 " fill="none" id="GuardandoDatos-to-*end*editarProfesor-1" style="stroke:#FF0000;stroke-width:1.0;"/><polygon fill="#FF0000" points="230.84,487.9394,240.3437,490.5238,235.7818,487.1788,239.1268,482.6169,230.84,487.9394" style="stroke:#FF0000;stroke-width:1.0;"/><path d="M407,414.6094 L407,456.6094 L734,456.6094 L734,424.6094 L724,414.6094 L407,414.6094 " fill="#FEFFDD" style="stroke:#181818;stroke-width:0.5;"/><path d="M724,414.6094 L724,424.6094 L734,424.6094 L724,414.6094 " fill="#FEFFDD" style="stroke:#181818;stroke-width:0.5;"/><text fill="#000000" font-family="sans-serif" font-size="13" font-weight="bold" lengthAdjust="spacing" textLength="89" x="413" y="433.1045">Administrador</text><text fill="#000000" font-family="sans-serif" font-size="13" lengthAdjust="spacing" textLength="139" x="506" y="433.1045">solicita cancelar edici&#243;n</text><text fill="#000000" font-family="sans-serif" font-size="13" font-weight="bold" lengthAdjust="spacing" textLength="51" x="413" y="449.4561">Sistema</text><text fill="#000000" font-family="sans-serif" font-size="13" lengthAdjust="spacing" textLength="251" x="468" y="449.4561">visualiza y descarta los cambios realizados</text></g><g id="PROFESORES_ABIERTO"><rect fill="#F1F1F1" height="50" rx="12.5" ry="12.5" style="stroke:#181818;stroke-width:0.5;" width="184" x="283" y="608"/><line style="stroke:#181818;stroke-width:0.5;" x1="283" x2="467" y1="635.6094" y2="635.6094"/><text fill="#000000" font-family="sans-serif" font-size="14" lengthAdjust="spacing" textLength="164" x="293" y="627.5332">PROFESORES_ABIERTO</text></g><!--link editarProfesor to PROFESORES_ABIERTO--><g id="link_editarProfesor_PROFESORES_ABIERTO"><path d="M298.12,512.14 C292.51,530.5 289,542 289,542 C289,542 289,578 289,578 C289,578 308.5478,590.2808 331.4478,604.6508 " fill="none" id="editarProfesor-to-PROFESORES_ABIERTO" style="stroke:#008000;stroke-width:1.0;"/><polygon fill="#008000" points="336.53,607.84,331.0327,599.6681,332.2948,605.1824,326.7805,606.4444,336.53,607.84" style="stroke:#008000;stroke-width:1.0;"/><path d="M294,547 L294,573 L410,573 L410,557 L400,547 L294,547 " fill="#FEFFDD" style="stroke:#181818;stroke-width:0.5;"/><path d="M400,547 L400,557 L410,557 L400,547 " fill="#FEFFDD" style="stroke:#181818;stroke-width:0.5;"/><text fill="#000000" font-family="sans-serif" font-size="13" lengthAdjust="spacing" textLength="95" x="300" y="565.4951">abrirProfesores()</text></g><!--link editarProfesor to PROFESORES_ABIERTO--><g id="link_editarProfesor_PROFESORES_ABIERTO"><path d="M414.33,512.14 C417.2,530.5 419,542 419,542 C419,542 419,578 419,578 C419,578 410.1922,588.8204 398.4722,603.1904 " fill="none" id="editarProfesor-to-PROFESORES_ABIERTO-1" style="stroke:#FF0000;stroke-width:1.0;"/><polygon fill="#FF0000" points="394.68,607.84,403.4681,603.3937,397.8402,603.9653,397.2685,598.3374,394.68,607.84" style="stroke:#FF0000;stroke-width:1.0;"/><path d="M424,547 L424,573 L539,573 L539,557 L529,547 L424,547 " fill="#FEFFDD" style="stroke:#181818;stroke-width:0.5;"/><path d="M529,547 L529,557 L539,557 L529,547 " fill="#FEFFDD" style="stroke:#181818;stroke-width:0.5;"/><text fill="#000000" font-family="sans-serif" font-size="13" lengthAdjust="spacing" textLength="94" x="430" y="565.4951">cancelar edici&#243;n</text></g><!--SRC=[hLJDJjj04BxlKupI2rH2VG4K2TGKSKgKS4Ee6kyEQCHwrvhTH4eH4i_2At3ZoflqIJfsdH2ROdvKvU9uls- -dnqvNNEeKB04pu7okYAeeb_NVun96JC1ESueCucNbA809XXrN-tjZ-1cWnxfJo6J6X5S_8uvfkxHoHB5FP-PywyNS73-vKg8miN1k4SDKPanrFQkpM4nFd8b1qvPq4Kv_5QC8KNFLYcjKQXQMuQ2WvfkJ6TaHwndfg-sK2KgiT6fX185rN7D5DSqO_df8PZVT_Sm8obPsHooHBUqB12Mj8fgeIo4XZ6gmNuOuaZlAMEf5c87kSalSDM44R1O5gnf_eso62nvVTZQVowgMyV_kPOoEhva-zTNfTn-hwyaJh127xNqrmWhadPmKnyyFGQsyNrfTEa-ac7Jx1eIUfQ-enMdfRx_XGf0czjdyjjT158PX08JrOlJRD2WKI7t2PilhtR0gADawuq2hvBjoe1GS-nsxTqQq_i6x3Ovcqz_J1RJ-MJny-ZuT38_ctOTOo6yPLBQsz_9_N9ic_kjeGCx_0S0]--></g></svg>