<?xml version="1.0" encoding="us-ascii" standalone="no"?><svg xmlns="http://www.w3.org/2000/svg" xmlns:xlink="http://www.w3.org/1999/xlink" contentStyleType="text/css" height="522px" preserveAspectRatio="none" style="width:918px;height:522px;background:#FFFFFF;" version="1.1" viewBox="0 0 918 522" width="918px" zoomAndPan="magnify"><defs/><g><!--cluster importarAsignaturas--><g id="cluster_importarAsignaturas"><path d="M159.5,6.016 L293.5,6.016 A3.75,3.75 0 0 1 296,8.516 L303,28.3601 L642.5,28.3601 A2.5,2.5 0 0 1 645,30.8601 L645,512.516 A2.5,2.5 0 0 1 642.5,515.016 L159.5,515.016 A2.5,2.5 0 0 1 157,512.516 L157,8.516 A2.5,2.5 0 0 1 159.5,6.016 " fill="none" style="stroke:#000000;stroke-width:1.5;"/><line style="stroke:#000000;stroke-width:1.5;" x1="157" x2="303" y1="28.3601" y2="28.3601"/><text fill="#000000" font-family="sans-serif" font-size="12" font-weight="bold" lengthAdjust="spacing" textLength="133" x="161" y="20.8441">importarAsignaturas()</text></g><!--entity ImportarAsignaturasView--><g id="elem_ImportarAsignaturasView"><rect fill="#629EF9" height="36.3441" rx="2.5" ry="2.5" style="stroke:#181818;stroke-width:0.5;" width="163" x="366.5" y="41.016"/><text fill="#000000" font-family="sans-serif" font-size="12" lengthAdjust="spacing" textLength="143" x="376.5" y="63.8441">ImportarAsignaturasView</text></g><!--entity AsignaturaController--><g id="elem_AsignaturaController"><rect fill="#B5BD68" height="36.3441" rx="2.5" ry="2.5" style="stroke:#181818;stroke-width:0.5;" width="137" x="243.5" y="155.016"/><text fill="#000000" font-family="sans-serif" font-size="12" lengthAdjust="spacing" textLength="117" x="253.5" y="177.8441">AsignaturaController</text></g><!--entity AsignaturaRepository--><g id="elem_AsignaturaRepository"><rect fill="#F2AC4E" height="36.3441" rx="2.5" ry="2.5" style="stroke:#181818;stroke-width:0.5;" width="140" x="242" y="269.016"/><text fill="#000000" font-family="sans-serif" font-size="12" lengthAdjust="spacing" textLength="120" x="252" y="291.8441">AsignaturaRepository</text></g><!--entity Asignatura--><g id="elem_Asignatura"><rect fill="#F2AC4E" height="36.3441" rx="2.5" ry="2.5" style="stroke:#181818;stroke-width:0.5;" width="81" x="271.5" y="366.016"/><text fill="#000000" font-family="sans-serif" font-size="12" lengthAdjust="spacing" textLength="61" x="281.5" y="388.8441">Asignatura</text></g><!--entity Grado--><g id="elem_Grado"><rect fill="#F2AC4E" height="36.3441" rx="2.5" ry="2.5" style="stroke:#181818;stroke-width:0.5;" width="55" x="284.5" y="463.016"/><text fill="#000000" font-family="sans-serif" font-size="12" lengthAdjust="spacing" textLength="35" x="294.5" y="485.8441">Grado</text></g><!--entity AsignaturasAbierto--><g id="elem_AsignaturasAbierto"><rect fill="#CDEBA5" height="36.3441" rx="2.5" ry="2.5" style="stroke:#181818;stroke-width:0.5;" width="134" x="7" y="41.016"/><text fill="#000000" font-family="sans-serif" font-size="12" lengthAdjust="spacing" textLength="114" x="17" y="63.8441">:Asignaturas Abierta</text></g><!--entity AsignaturasAbiertoSalida--><g id="elem_AsignaturasAbiertoSalida"><rect fill="#CDEBA5" height="36.3441" rx="2.5" ry="2.5" style="stroke:#181818;stroke-width:0.5;" width="134" x="713" y="155.016"/><text fill="#000000" font-family="sans-serif" font-size="12" lengthAdjust="spacing" textLength="114" x="723" y="177.8441">:Asignaturas Abierto</text></g><!--link AsignaturasAbierto to ImportarAsignaturasView--><g id="link_AsignaturasAbierto_ImportarAsignaturasView"><path d="M141.3,59.016 C204.39,59.016 292.84,59.016 360.25,59.016 " fill="none" id="AsignaturasAbierto-to-ImportarAsignaturasView" style="stroke:#181818;stroke-width:1.0;"/><polygon fill="#181818" points="366.25,59.016,357.25,55.016,361.25,59.016,357.25,63.016,366.25,59.016" style="stroke:#181818;stroke-width:1.0;"/><text fill="#000000" font-family="sans-serif" font-size="12" lengthAdjust="spacing" textLength="124" x="191.75" y="51.8441">importarAsignaturas()</text></g><!--link ImportarAsignaturasView to AsignaturaController--><g id="link_ImportarAsignaturasView_AsignaturaController"><path d="M366.41,75.796 C295.81,89.456 205,107.016 205,107.016 C205,107.016 205,125.016 205,125.016 C205,125.016 236.9765,139.0632 267.5765,152.5032 " fill="none" id="ImportarAsignaturasView-to-AsignaturaController" style="stroke:#181818;stroke-width:1.0;"/><polygon fill="#181818" points="273.07,154.916,266.4383,147.6345,268.4921,152.9053,263.2212,154.9591,273.07,154.916" style="stroke:#181818;stroke-width:1.0;"/><text fill="#000000" font-family="sans-serif" font-size="12" lengthAdjust="spacing" textLength="198" x="206" y="120.8441">obtenerFormatoRequerido() : String</text></g><!--link ImportarAsignaturasView to AsignaturaController--><g id="link_ImportarAsignaturasView_AsignaturaController"><path d="M437.75,77.096 C426.2,96.356 409,125.016 409,125.016 C409,125.016 380.4296,138.8599 352.6896,152.2999 " fill="none" id="ImportarAsignaturasView-to-AsignaturaController-1" style="stroke:#181818;stroke-width:1.0;"/><polygon fill="#181818" points="347.29,154.916,357.1335,154.5916,351.7897,152.7359,353.6454,147.3921,347.29,154.916" style="stroke:#181818;stroke-width:1.0;"/><text fill="#000000" font-family="sans-serif" font-size="12" lengthAdjust="spacing" textLength="179" x="420" y="120.8441">importar(archivo) : ImportResult</text></g><!--link AsignaturaController to AsignaturaRepository--><g id="link_AsignaturaController_AsignaturaRepository"><path d="M312,191.026 C312,212.076 312,241.716 312,262.846 " fill="none" id="AsignaturaController-to-AsignaturaRepository" style="stroke:#181818;stroke-width:1.0;"/><polygon fill="#181818" points="312,268.846,316,259.846,312,263.846,308,259.846,312,268.846" style="stroke:#181818;stroke-width:1.0;"/><text fill="#000000" font-family="sans-serif" font-size="12" lengthAdjust="spacing" textLength="246" x="313" y="234.8441">guardarLote(asignaturas) : List&lt;Asignatura&gt;</text></g><!--link AsignaturaRepository to Asignatura--><g id="link_AsignaturaRepository_Asignatura"><path d="M312,305.436 C312,322.586 312,348.596 312,365.706 " fill="none" id="AsignaturaRepository-Asignatura" style="stroke:#181818;stroke-width:1.0;"/></g><!--link Asignatura to Grado--><g id="link_Asignatura_Grado"><path d="M312,402.436 C312,419.586 312,445.596 312,462.706 " fill="none" id="Asignatura-Grado" style="stroke:#181818;stroke-width:1.0;"/></g><!--link ImportarAsignaturasView to AsignaturasAbiertoSalida--><g id="link_ImportarAsignaturasView_AsignaturasAbiertoSalida"><path d="M506.22,77.116 C551.96,90.556 608,107.016 608,107.016 C608,107.016 678.2375,133.5548 729.1975,152.8148 " fill="none" id="ImportarAsignaturasView-to-AsignaturasAbiertoSalida" style="stroke:#181818;stroke-width:1.0;stroke-dasharray:7.0,7.0;"/><polygon fill="#181818" points="734.81,154.936,727.8054,148.0125,730.1329,153.1683,724.9771,155.4959,734.81,154.936" style="stroke:#181818;stroke-width:1.0;"/><text fill="#000000" font-family="sans-serif" font-size="12" lengthAdjust="spacing" textLength="121" x="655" y="120.8441">finalizarImportacion()</text></g><!--link ImportarAsignaturasView to AsignaturasAbiertoSalida--><g id="link_ImportarAsignaturasView_AsignaturasAbiertoSalida"><path d="M529.58,71.396 C629.31,85.306 785,107.016 785,107.016 C785,107.016 785,125.016 785,125.016 C785,125.016 783.8957,135.3998 782.4657,148.8198 " fill="none" id="ImportarAsignaturasView-to-AsignaturasAbiertoSalida-1" style="stroke:#181818;stroke-width:1.0;stroke-dasharray:7.0,7.0;"/><polygon fill="#181818" points="781.83,154.786,786.7611,146.2605,782.3598,149.8142,778.8061,145.4129,781.83,154.786" style="stroke:#181818;stroke-width:1.0;"/><text fill="#000000" font-family="sans-serif" font-size="12" lengthAdjust="spacing" textLength="124" x="786" y="120.8441">cancelarImportacion()</text></g><!--SRC=[dL9DJyCm3BtdLrZZCWv5OW845Peqze6GE6qITxVrkcXPN9oKQI3-Ewa6D1ghG5GzEFPxBxPVt5hR2WKta66-BeLhMupPiC1sfJqfzrrtAonugsq9IpGkhaneYRNnCxP-JyrCq3eEMEXNWlD1L3JQajzL11MRNNDGIYZtQ4j3S3AUJEz6bz1BHqwN5dqjw62KQHAFFMZYDhzFir9Lk1vB0hsfEE0aveQ_ToJVF-t1cuBmHPTV3Mwcinju-0b_qhGzH6UNMN5r7JKq3lCA6qDo29qDHkEBQGITKyLEUvRThz0EmBq4UzJxNvV77SjReD45AlMp0eaamwvTf71qfqfru24fWjYnLQN0cITBCcFPeESvFTSakk3-AQImy19UuBzalnhie-Gh_SADt5vcJYwypdZcbdUes1gLGbcZ52YFxAcFRIEDyADs_hPb3MFnLWAI93Qs3Pl2tj3EIS_EXftsfR3KDaIlA9_qNBCDTlnFB4URapdK-W00]--></g></svg>