<?xml version="1.0" encoding="us-ascii" standalone="no"?><svg xmlns="http://www.w3.org/2000/svg" xmlns:xlink="http://www.w3.org/1999/xlink" contentStyleType="text/css" height="328px" preserveAspectRatio="none" style="width:819px;height:328px;background:#FFFFFF;" version="1.1" viewBox="0 0 819 328" width="819px" zoomAndPan="magnify"><defs/><g><!--cluster crearAula--><g id="cluster_crearAula"><path d="M8.5,6.016 L74.5,6.016 A3.75,3.75 0 0 1 77,8.516 L84,28.3601 L408.5,28.3601 A2.5,2.5 0 0 1 411,30.8601 L411,318.516 A2.5,2.5 0 0 1 408.5,321.016 L8.5,321.016 A2.5,2.5 0 0 1 6,318.516 L6,8.516 A2.5,2.5 0 0 1 8.5,6.016 " fill="none" style="stroke:#000000;stroke-width:1.5;"/><line style="stroke:#000000;stroke-width:1.5;" x1="6" x2="84" y1="28.3601" y2="28.3601"/><text fill="#000000" font-family="sans-serif" font-size="12" font-weight="bold" lengthAdjust="spacing" textLength="65" x="10" y="20.8441">crearAula()</text></g><!--entity CrearAulaView--><g id="elem_CrearAulaView"><rect fill="#629EF9" height="36.3441" rx="2.5" ry="2.5" style="stroke:#181818;stroke-width:0.5;" width="103" x="291.5" y="41.016"/><text fill="#000000" font-family="sans-serif" font-size="12" lengthAdjust="spacing" textLength="83" x="301.5" y="63.8441">CrearAulaView</text></g><!--entity AulaController--><g id="elem_AulaController"><rect fill="#B5BD68" height="36.3441" rx="2.5" ry="2.5" style="stroke:#181818;stroke-width:0.5;" width="101" x="22.5" y="155.016"/><text fill="#000000" font-family="sans-serif" font-size="12" lengthAdjust="spacing" textLength="81" x="32.5" y="177.8441">AulaController</text></g><!--entity AulaRepository--><g id="elem_AulaRepository"><rect fill="#F2AC4E" height="36.3441" rx="2.5" ry="2.5" style="stroke:#181818;stroke-width:0.5;" width="104" x="124" y="269.016"/><text fill="#000000" font-family="sans-serif" font-size="12" lengthAdjust="spacing" textLength="84" x="134" y="291.8441">AulaRepository</text></g><!--entity Aula--><g id="elem_Aula"><rect fill="#F2AC4E" height="36.3441" rx="2.5" ry="2.5" style="stroke:#181818;stroke-width:0.5;" width="45" x="208.5" y="155.016"/><text fill="#000000" font-family="sans-serif" font-size="12" lengthAdjust="spacing" textLength="25" x="218.5" y="177.8441">Aula</text></g><!--entity AulasAbierto--><g id="elem_AulasAbierto"><rect fill="#CDEBA5" height="36.3441" rx="2.5" ry="2.5" style="stroke:#181818;stroke-width:0.5;" width="98" x="459" y="155.016"/><text fill="#000000" font-family="sans-serif" font-size="12" lengthAdjust="spacing" textLength="78" x="469" y="177.8441">:Aulas Abierto</text></g><!--entity AulaAbierta--><g id="elem_AulaAbierta"><rect fill="#CDEBA5" height="36.3441" rx="2.5" ry="2.5" style="stroke:#181818;stroke-width:0.5;" width="92" x="665" y="155.016"/><text fill="#000000" font-family="sans-serif" font-size="12" lengthAdjust="spacing" textLength="72" x="675" y="177.8441">:Aula Abierta</text></g><!--link AulasAbierto to CrearAulaView--><g id="link_AulasAbierto_CrearAulaView"><path d="M480.13,154.786 C458.44,141.366 432,125.016 432,125.016 C432,125.016 397.5953,99.8949 371.2253,80.6349 " fill="none" id="AulasAbierto-to-CrearAulaView" style="stroke:#181818;stroke-width:1.0;"/><polygon fill="#181818" points="366.38,77.096,371.2886,85.6345,370.4177,80.0451,376.0071,79.1741,366.38,77.096" style="stroke:#181818;stroke-width:1.0;"/><text fill="#000000" font-family="sans-serif" font-size="12" lengthAdjust="spacing" textLength="63" x="433" y="120.8441">crearAula()</text></g><!--link CrearAulaView to AulasAbierto--><g id="link_CrearAulaView_AulasAbierto"><path d="M394.74,75.406 C440.81,89.116 501,107.016 501,107.016 C501,107.016 503.4488,129.7104 505.5188,148.9704 " fill="none" id="CrearAulaView-to-AulasAbierto" style="stroke:#181818;stroke-width:1.0;stroke-dasharray:7.0,7.0;"/><polygon fill="#181818" points="506.16,154.936,509.1753,145.5601,505.6257,149.9647,501.2212,146.415,506.16,154.936" style="stroke:#181818;stroke-width:1.0;"/><text fill="#000000" font-family="sans-serif" font-size="12" lengthAdjust="spacing" textLength="129" x="504" y="120.8441">&#171;cancelar&#187; abrirAulas()</text></g><!--link CrearAulaView to AulaController--><g id="link_CrearAulaView_AulaController"><path d="M291.32,68.696 C210.41,82.276 63,107.016 63,107.016 C63,107.016 63,125.016 63,125.016 C63,125.016 65.2336,135.4969 68.0836,148.9169 " fill="none" id="CrearAulaView-to-AulaController" style="stroke:#181818;stroke-width:1.0;"/><polygon fill="#181818" points="69.33,154.786,71.3731,145.1514,68.2913,149.8951,63.5476,146.8133,69.33,154.786" style="stroke:#181818;stroke-width:1.0;"/><text fill="#000000" font-family="sans-serif" font-size="12" lengthAdjust="spacing" textLength="336" x="64" y="120.8441">crear(codigo, nombre, capacidad, edificio, planta, tipo) : Aula</text></g><!--link AulaController to AulaRepository--><g id="link_AulaController_AulaRepository"><path d="M68.97,191.246 C65.83,204.666 62,221.016 62,221.016 C62,221.016 62,239.016 62,239.016 C62,239.016 96.3832,253.1885 128.9732,266.6285 " fill="none" id="AulaController-to-AulaRepository" style="stroke:#181818;stroke-width:1.0;"/><polygon fill="#181818" points="134.52,268.916,127.7247,261.7869,129.8976,267.0098,124.6748,269.1827,134.52,268.916" style="stroke:#181818;stroke-width:1.0;"/><text fill="#000000" font-family="sans-serif" font-size="12" lengthAdjust="spacing" textLength="172" x="63" y="234.8441">existeCodigo(codigo) : Boolean</text></g><!--link AulaController to AulaRepository--><g id="link_AulaController_AulaRepository"><path d="M123.56,188.246 C172.71,202.076 240,221.016 240,221.016 C240,221.016 240,239.016 240,239.016 C240,239.016 222.5647,251.8128 204.3047,265.2328 " fill="none" id="AulaController-to-AulaRepository-1" style="stroke:#181818;stroke-width:1.0;"/><polygon fill="#181818" points="199.47,268.786,209.0909,266.6793,203.4989,265.825,204.3533,260.233,199.47,268.786" style="stroke:#181818;stroke-width:1.0;"/><text fill="#000000" font-family="sans-serif" font-size="12" lengthAdjust="spacing" textLength="77" x="241" y="234.8441">guardar(aula)</text></g><!--link AulaController to Aula--><g id="link_AulaController_Aula"><path d="M123.86,173.016 C152.37,173.016 180.5,173.016 202.45,173.016 " fill="none" id="AulaController-to-Aula" style="stroke:#181818;stroke-width:1.0;"/><polygon fill="#181818" points="208.45,173.016,199.45,169.016,203.45,173.016,199.45,177.016,208.45,173.016" style="stroke:#181818;stroke-width:1.0;"/><text fill="#000000" font-family="sans-serif" font-size="12" lengthAdjust="spacing" textLength="48" x="142" y="165.8441">&#171;create&#187;</text></g><!--link CrearAulaView to AulaAbierta--><g id="link_CrearAulaView_AulaAbierta"><path d="M394.74,68.146 C480.32,81.606 642,107.016 642,107.016 C642,107.016 668.0632,131.5613 688.5032,150.8213 " fill="none" id="CrearAulaView-to-AulaAbierta" style="stroke:#181818;stroke-width:1.0;stroke-dasharray:7.0,7.0;"/><polygon fill="#181818" points="692.87,154.936,689.0629,145.8527,689.231,151.5071,683.5766,151.6752,692.87,154.936" style="stroke:#181818;stroke-width:1.0;"/><text fill="#000000" font-family="sans-serif" font-size="12" lengthAdjust="spacing" textLength="150" x="661" y="120.8441">&#171;finalizar&#187; editarAula(aula)</text></g><!--SRC=[ZLBBRi8m4BpxArRq0X8W5HLK8XGf1FY0Lkfz4ozXXR4ZnuX2rN-l4mA4HwlcvFNEpCwiKwnPvsXn0mccwyoQhPQnKSR2RiMEH77k5okKPiSwWoMgejcPqHAtoYsCTaTgehpMOy0x7mYU1uscOarkdnFaHktBGWXBgKETAOAdU3QVHaDe1T5MOG5HmcITQK5vBc_gYryfDGFFZBeM8lSUCID8BQ6je1xHEbVjJWk-1FYl8JqQZEUBCSGdq0VJxXQJ31CvUgrcnJwmDKgHlGKj1b7yCgz0RvIRWfsn-pz0ubk8PbxesLvuxIE0XdSXhdhGanv-RQd6jrCZEJDTq6QJMEf2YdupB55sWIGlEMNVp1LgXrrmd9iE14TFubhmCkGIAG3wvC9HN0sfPvK2KsCKeRwJiBL409D9wSzH6FvhJhP5AtqS_wFXNVn-Fsm-VYc-P8sA3sZ3iCpfwiqTwO_Pf-LNtb2df2es9fOhSE7t_WC0]--></g></svg>