<?xml version="1.0" encoding="us-ascii" standalone="no"?><svg xmlns="http://www.w3.org/2000/svg" xmlns:xlink="http://www.w3.org/1999/xlink" contentStyleType="text/css" height="328px" preserveAspectRatio="none" style="width:604px;height:328px;background:#FFFFFF;" version="1.1" viewBox="0 0 604 328" width="604px" zoomAndPan="magnify"><defs/><g><!--cluster eliminarAlumno--><g id="cluster_eliminarAlumno"><path d="M8.5,6.016 L115.5,6.016 A3.75,3.75 0 0 1 118,8.516 L125,28.3601 L269.5,28.3601 A2.5,2.5 0 0 1 272,30.8601 L272,318.516 A2.5,2.5 0 0 1 269.5,321.016 L8.5,321.016 A2.5,2.5 0 0 1 6,318.516 L6,8.516 A2.5,2.5 0 0 1 8.5,6.016 " fill="none" style="stroke:#000000;stroke-width:1.5;"/><line style="stroke:#000000;stroke-width:1.5;" x1="6" x2="125" y1="28.3601" y2="28.3601"/><text fill="#000000" font-family="sans-serif" font-size="12" font-weight="bold" lengthAdjust="spacing" textLength="106" x="10" y="20.8441">eliminarAlumno()</text></g><!--entity EliminarAlumnoView--><g id="elem_EliminarAlumnoView"><rect fill="#629EF9" height="36.3441" rx="2.5" ry="2.5" style="stroke:#181818;stroke-width:0.5;" width="135" x="120.5" y="41.016"/><text fill="#000000" font-family="sans-serif" font-size="12" lengthAdjust="spacing" textLength="115" x="130.5" y="63.8441">EliminarAlumnoView</text></g><!--entity AlumnoController--><g id="elem_AlumnoController"><rect fill="#B5BD68" height="36.3441" rx="2.5" ry="2.5" style="stroke:#181818;stroke-width:0.5;" width="119" x="112.5" y="155.016"/><text fill="#000000" font-family="sans-serif" font-size="12" lengthAdjust="spacing" textLength="99" x="122.5" y="177.8441">AlumnoController</text></g><!--entity AlumnoRepository--><g id="elem_AlumnoRepository"><rect fill="#F2AC4E" height="36.3441" rx="2.5" ry="2.5" style="stroke:#181818;stroke-width:0.5;" width="122" x="97" y="269.016"/><text fill="#000000" font-family="sans-serif" font-size="12" lengthAdjust="spacing" textLength="102" x="107" y="291.8441">AlumnoRepository</text></g><!--entity Alumno--><g id="elem_Alumno"><rect fill="#F2AC4E" height="36.3441" rx="2.5" ry="2.5" style="stroke:#181818;stroke-width:0.5;" width="63" x="22.5" y="41.016"/><text fill="#000000" font-family="sans-serif" font-size="12" lengthAdjust="spacing" textLength="43" x="32.5" y="63.8441">Alumno</text></g><!--entity Grado--><g id="elem_Grado"><rect fill="#F2AC4E" height="36.3441" rx="2.5" ry="2.5" style="stroke:#181818;stroke-width:0.5;" width="55" x="22.5" y="155.016"/><text fill="#000000" font-family="sans-serif" font-size="12" lengthAdjust="spacing" textLength="35" x="32.5" y="177.8441">Grado</text></g><!--entity AlumnosAbierto--><g id="elem_AlumnosAbierto"><rect fill="#CDEBA5" height="36.3441" rx="2.5" ry="2.5" style="stroke:#181818;stroke-width:0.5;" width="116" x="352" y="155.016"/><text fill="#000000" font-family="sans-serif" font-size="12" lengthAdjust="spacing" textLength="96" x="362" y="177.8441">:Alumnos Abierto</text></g><!--link AlumnosAbierto to EliminarAlumnoView--><g id="link_AlumnosAbierto_EliminarAlumnoView"><path d="M351.78,157.146 C297.88,143.376 226,125.016 226,125.016 C226,125.016 212.2682,101.5358 201.0082,82.2758 " fill="none" id="AlumnosAbierto-to-EliminarAlumnoView" style="stroke:#181818;stroke-width:1.0;"/><polygon fill="#181818" points="197.98,77.096,199.0692,86.8845,200.5035,81.4125,205.9755,82.8468,197.98,77.096" style="stroke:#181818;stroke-width:1.0;"/><text fill="#000000" font-family="sans-serif" font-size="12" lengthAdjust="spacing" textLength="139" x="227" y="120.8441">eliminarAlumno(alumno)</text></g><!--link EliminarAlumnoView to AlumnosAbierto--><g id="link_EliminarAlumnoView_AlumnosAbierto"><path d="M254.33,77.046 C306.7,90.506 371,107.016 371,107.016 C371,107.016 385.1142,130.5304 396.6642,149.7904 " fill="none" id="EliminarAlumnoView-to-AlumnosAbierto" style="stroke:#181818;stroke-width:1.0;stroke-dasharray:7.0,7.0;"/><polygon fill="#181818" points="399.75,154.936,398.5517,145.1603,397.1785,150.648,391.6909,149.2747,399.75,154.936" style="stroke:#181818;stroke-width:1.0;"/><text fill="#000000" font-family="sans-serif" font-size="12" lengthAdjust="spacing" textLength="144" x="382" y="120.8441">&#171;finalizar&#187; abrirAlumnos()</text></g><!--link EliminarAlumnoView to AlumnosAbierto--><g id="link_EliminarAlumnoView_AlumnosAbierto"><path d="M255.73,69.186 C356.71,82.866 535,107.016 535,107.016 C535,107.016 535,125.016 535,125.016 C535,125.016 496.836,139.3641 461.096,152.8041 " fill="none" id="EliminarAlumnoView-to-AlumnosAbierto-1" style="stroke:#181818;stroke-width:1.0;stroke-dasharray:7.0,7.0;"/><polygon fill="#181818" points="455.48,154.916,465.312,155.4922,460.16,153.1561,462.4961,148.0041,455.48,154.916" style="stroke:#181818;stroke-width:1.0;"/><text fill="#000000" font-family="sans-serif" font-size="12" lengthAdjust="spacing" textLength="60" x="536" y="120.8441">&#171;cancelar&#187;</text></g><!--link EliminarAlumnoView to AlumnoController--><g id="link_EliminarAlumnoView_AlumnoController"><path d="M151.61,77.116 C123.02,90.556 88,107.016 88,107.016 C88,107.016 88,125.016 88,125.016 C88,125.016 111.9841,138.4359 135.9641,151.8559 " fill="none" id="EliminarAlumnoView-to-AlumnoController" style="stroke:#181818;stroke-width:1.0;"/><polygon fill="#181818" points="141.2,154.786,135.2997,146.9002,136.8368,152.3442,131.3928,153.8814,141.2,154.786" style="stroke:#181818;stroke-width:1.0;"/><text fill="#000000" font-family="sans-serif" font-size="12" lengthAdjust="spacing" textLength="96" x="89" y="120.8441">eliminar(alumno)</text></g><!--link AlumnoController to AlumnoRepository--><g id="link_AlumnoController_AlumnoRepository"><path d="M169.87,191.026 C167.24,212.076 163.5339,241.7623 160.8939,262.8923 " fill="none" id="AlumnoController-to-AlumnoRepository" style="stroke:#181818;stroke-width:1.0;"/><polygon fill="#181818" points="160.15,268.846,165.2349,260.4114,160.7699,263.8846,157.2967,259.4196,160.15,268.846" style="stroke:#181818;stroke-width:1.0;"/><text fill="#000000" font-family="sans-serif" font-size="12" lengthAdjust="spacing" textLength="96" x="167" y="234.8441">eliminar(alumno)</text></g><!--link Alumno to Grado--><g id="link_Alumno_Grado"><path d="M53.39,77.026 C52.64,98.076 51.37,133.716 50.61,154.846 " fill="none" id="Alumno-Grado" style="stroke:#181818;stroke-width:1.0;"/></g><!--SRC=[ZP51Ry8m38Nl-HLMTu53aOO66WXLwahPVPDsTrjJ8jAaSe8GJFll2wE2KhfflQJn-vwTbzYjr3KoLf1XlYtPx7IH66KOzXlfIDYBRZTOcBtK9QnHsRQof3Nkb5iPxSxMJFbU_S2xF18yZbkYafhSeIQeZJgSDa8mvGvrgGWUacNw4ayWcCTgLsbZ8SuaiJC1eFy_rvgI4BKVYoK1ALb9ZNpMJsHmMneC0_WKuB_MgEbubgvcaDwG7vBsNJ2RPCNqkPcU-51ib2BkOgjnd3ob3VP6jR7I6JxyYVqYlhA_U_4bn6rY23cCUWuyxzp007-MeH3tB8I5xz7DSkrmyNQHjl6QhiVOE24CcnnzfnYDeivppc6nM7jAoIDo505cB1k77Gp_toD7dPCwjH3V]--></g></svg>