<?xml version="1.0" encoding="us-ascii" standalone="no"?><svg xmlns="http://www.w3.org/2000/svg" xmlns:xlink="http://www.w3.org/1999/xlink" contentStyleType="text/css" height="522px" preserveAspectRatio="none" style="width:1944px;height:522px;background:#FFFFFF;" version="1.1" viewBox="0 0 1944 522" width="1944px" zoomAndPan="magnify"><defs/><g><!--cluster abrirProfesores--><g id="cluster_abrirProfesores"><path d="M155.5,6.016 L256.5,6.016 A3.75,3.75 0 0 1 259,8.516 L266,28.3601 L877.5,28.3601 A2.5,2.5 0 0 1 880,30.8601 L880,512.516 A2.5,2.5 0 0 1 877.5,515.016 L155.5,515.016 A2.5,2.5 0 0 1 153,512.516 L153,8.516 A2.5,2.5 0 0 1 155.5,6.016 " fill="none" style="stroke:#000000;stroke-width:1.5;"/><line style="stroke:#000000;stroke-width:1.5;" x1="153" x2="266" y1="28.3601" y2="28.3601"/><text fill="#000000" font-family="sans-serif" font-size="12" font-weight="bold" lengthAdjust="spacing" textLength="100" x="157" y="20.8441">abrirProfesores()</text></g><!--entity ListarProfesoresView--><g id="elem_ListarProfesoresView"><rect fill="#629EF9" height="36.3441" rx="2.5" ry="2.5" style="stroke:#181818;stroke-width:0.5;" width="138" x="726" y="41.016"/><text fill="#000000" font-family="sans-serif" font-size="12" lengthAdjust="spacing" textLength="118" x="736" y="63.8441">ListarProfesoresView</text></g><!--entity ProfesorController--><g id="elem_ProfesorController"><rect fill="#B5BD68" height="36.3441" rx="2.5" ry="2.5" style="stroke:#181818;stroke-width:0.5;" width="124" x="320" y="155.016"/><text fill="#000000" font-family="sans-serif" font-size="12" lengthAdjust="spacing" textLength="104" x="330" y="177.8441">ProfesorController</text></g><!--entity ProfesorRepository--><g id="elem_ProfesorRepository"><rect fill="#F2AC4E" height="36.3441" rx="2.5" ry="2.5" style="stroke:#181818;stroke-width:0.5;" width="127" x="319.5" y="269.016"/><text fill="#000000" font-family="sans-serif" font-size="12" lengthAdjust="spacing" textLength="107" x="329.5" y="291.8441">ProfesorRepository</text></g><!--entity Profesor--><g id="elem_Profesor"><rect fill="#F2AC4E" height="36.3441" rx="2.5" ry="2.5" style="stroke:#181818;stroke-width:0.5;" width="68" x="349" y="366.016"/><text fill="#000000" font-family="sans-serif" font-size="12" lengthAdjust="spacing" textLength="48" x="359" y="388.8441">Profesor</text></g><!--entity Asignatura--><g id="elem_Asignatura"><rect fill="#F2AC4E" height="36.3441" rx="2.5" ry="2.5" style="stroke:#181818;stroke-width:0.5;" width="81" x="342.5" y="463.016"/><text fill="#000000" font-family="sans-serif" font-size="12" lengthAdjust="spacing" textLength="61" x="352.5" y="485.8441">Asignatura</text></g><!--entity SistemaDisponible--><g id="elem_SistemaDisponible"><rect fill="#CDEBA5" height="36.3441" rx="2.5" ry="2.5" style="stroke:#181818;stroke-width:0.5;" width="130" x="7" y="41.016"/><text fill="#000000" font-family="sans-serif" font-size="12" lengthAdjust="spacing" textLength="110" x="17" y="63.8441">:Sistema Disponible</text></g><!--entity SistemaDisponibleSalida--><g id="elem_SistemaDisponibleSalida"><rect fill="#CDEBA5" height="36.3441" rx="2.5" ry="2.5" style="stroke:#181818;stroke-width:0.5;" width="130" x="896" y="155.016"/><text fill="#000000" font-family="sans-serif" font-size="12" lengthAdjust="spacing" textLength="110" x="906" y="177.8441">:Sistema Disponible</text></g><!--entity CrearProfesor--><g id="elem_CrearProfesor"><rect fill="#CDEBA5" height="36.3441" rx="2.5" ry="2.5" style="stroke:#181818;stroke-width:0.5;" width="181" x="1061.5" y="155.016"/><text fill="#000000" font-family="sans-serif" font-size="12" lengthAdjust="spacing" textLength="161" x="1071.5" y="177.8441">:Collaboration CrearProfesor</text></g><!--entity EditarProfesor--><g id="elem_EditarProfesor"><rect fill="#CDEBA5" height="36.3441" rx="2.5" ry="2.5" style="stroke:#181818;stroke-width:0.5;" width="182" x="1278" y="155.016"/><text fill="#000000" font-family="sans-serif" font-size="12" lengthAdjust="spacing" textLength="162" x="1288" y="177.8441">:Collaboration EditarProfesor</text></g><!--entity EliminarProfesor--><g id="elem_EliminarProfesor"><rect fill="#CDEBA5" height="36.3441" rx="2.5" ry="2.5" style="stroke:#181818;stroke-width:0.5;" width="195" x="1495.5" y="155.016"/><text fill="#000000" font-family="sans-serif" font-size="12" lengthAdjust="spacing" textLength="175" x="1505.5" y="177.8441">:Collaboration EliminarProfesor</text></g><!--entity ImportarProfesores--><g id="elem_ImportarProfesores"><rect fill="#CDEBA5" height="36.3441" rx="2.5" ry="2.5" style="stroke:#181818;stroke-width:0.5;" width="212" x="1726" y="155.016"/><text fill="#000000" font-family="sans-serif" font-size="12" lengthAdjust="spacing" textLength="192" x="1736" y="177.8441">:Collaboration ImportarProfesores</text></g><!--link SistemaDisponible to ListarProfesoresView--><g id="link_SistemaDisponible_ListarProfesoresView"><path d="M137.12,59.016 C273.18,59.016 580.54,59.016 719.95,59.016 " fill="none" id="SistemaDisponible-to-ListarProfesoresView" style="stroke:#181818;stroke-width:1.0;"/><polygon fill="#181818" points="725.95,59.016,716.95,55.016,720.95,59.016,716.95,63.016,725.95,59.016" style="stroke:#181818;stroke-width:1.0;"/><text fill="#000000" font-family="sans-serif" font-size="12" lengthAdjust="spacing" textLength="96" x="383.5" y="51.8441">abrirProfesores()</text></g><!--link ListarProfesoresView to ProfesorController--><g id="link_ListarProfesoresView_ProfesorController"><path d="M725.97,65.636 C572.82,78.116 218,107.016 218,107.016 C218,107.016 218,125.016 218,125.016 C218,125.016 269.6723,139.8228 316.5623,153.2628 " fill="none" id="ListarProfesoresView-to-ProfesorController" style="stroke:#181818;stroke-width:1.0;"/><polygon fill="#181818" points="322.33,154.916,314.7805,148.5911,317.5235,153.5384,312.5762,156.2814,322.33,154.916" style="stroke:#181818;stroke-width:1.0;"/><text fill="#000000" font-family="sans-serif" font-size="12" lengthAdjust="spacing" textLength="275" x="219" y="120.8441">listarProfesores(pagina) : PagedResult&lt;Profesor&gt;</text></g><!--link ListarProfesoresView to ProfesorController--><g id="link_ListarProfesoresView_ProfesorController"><path d="M725.79,72.676 C649.67,86.596 538,107.016 538,107.016 C538,107.016 499,125.016 499,125.016 C499,125.016 463.5874,139.2391 430.1374,152.6791 " fill="none" id="ListarProfesoresView-to-ProfesorController-1" style="stroke:#181818;stroke-width:1.0;"/><polygon fill="#181818" points="424.57,154.916,434.4124,155.2722,429.2095,153.0519,431.4298,147.849,424.57,154.916" style="stroke:#181818;stroke-width:1.0;"/><text fill="#000000" font-family="sans-serif" font-size="12" lengthAdjust="spacing" textLength="324" x="539" y="120.8441">filtrarProfesores(criterio, pagina) : PagedResult&lt;Profesor&gt;</text></g><!--link ProfesorController to ProfesorRepository--><g id="link_ProfesorController_ProfesorRepository"><path d="M319.96,190.126 C267.57,203.726 201,221.016 201,221.016 C201,221.016 201,239.016 201,239.016 C201,239.016 261.0504,254.5263 313.5404,268.0763 " fill="none" id="ProfesorController-to-ProfesorRepository" style="stroke:#181818;stroke-width:1.0;"/><polygon fill="#181818" points="319.35,269.576,311.6355,263.4534,314.5087,268.3263,309.6359,271.1995,319.35,269.576" style="stroke:#181818;stroke-width:1.0;"/><text fill="#000000" font-family="sans-serif" font-size="12" lengthAdjust="spacing" textLength="288" x="202" y="234.8441">obtenerPaginados(pagina) : PagedResult&lt;Profesor&gt;</text></g><!--link ProfesorController to ProfesorRepository--><g id="link_ProfesorController_ProfesorRepository"><path d="M423.12,191.116 C455.42,204.556 495,221.016 495,221.016 C495,221.016 495,239.016 495,239.016 C495,239.016 461.3024,253.1539 429.2824,266.5939 " fill="none" id="ProfesorController-to-ProfesorRepository-1" style="stroke:#181818;stroke-width:1.0;"/><polygon fill="#181818" points="423.75,268.916,433.5967,269.1211,428.3603,266.9809,430.5005,261.7445,423.75,268.916" style="stroke:#181818;stroke-width:1.0;"/><text fill="#000000" font-family="sans-serif" font-size="12" lengthAdjust="spacing" textLength="328" x="496" y="234.8441">buscarPaginados(criterio, pagina) : PagedResult&lt;Profesor&gt;</text></g><!--link ProfesorRepository to Profesor--><g id="link_ProfesorRepository_Profesor"><path d="M383,305.436 C383,322.586 383,348.596 383,365.706 " fill="none" id="ProfesorRepository-Profesor" style="stroke:#181818;stroke-width:1.0;"/></g><!--link Profesor to Asignatura--><g id="link_Profesor_Asignatura"><path d="M383,402.436 C383,419.586 383,445.596 383,462.706 " fill="none" id="Profesor-Asignatura" style="stroke:#181818;stroke-width:1.0;"/></g><!--link ListarProfesoresView to SistemaDisponibleSalida--><g id="link_ListarProfesoresView_SistemaDisponibleSalida"><path d="M823.23,77.246 C845.21,90.666 872,107.016 872,107.016 C872,107.016 906.4047,132.1372 932.7747,151.3972 " fill="none" id="ListarProfesoresView-to-SistemaDisponibleSalida" style="stroke:#181818;stroke-width:1.0;stroke-dasharray:7.0,7.0;"/><polygon fill="#181818" points="937.62,154.936,932.7114,146.3976,933.5823,151.987,927.9929,152.8579,937.62,154.936" style="stroke:#181818;stroke-width:1.0;"/><text fill="#000000" font-family="sans-serif" font-size="12" lengthAdjust="spacing" textLength="108" x="896" y="120.8441">completarGestion()</text></g><!--link ListarProfesoresView to CrearProfesor--><g id="link_ListarProfesoresView_CrearProfesor"><path d="M864.28,74.956 C928.11,88.716 1013,107.016 1013,107.016 C1013,107.016 1068.8651,133.1341 1110.0451,152.3941 " fill="none" id="ListarProfesoresView-to-CrearProfesor" style="stroke:#181818;stroke-width:1.0;stroke-dasharray:7.0,7.0;"/><polygon fill="#181818" points="1115.48,154.936,1109.0222,147.4998,1110.9509,152.8177,1105.633,154.7464,1115.48,154.936" style="stroke:#181818;stroke-width:1.0;"/><text fill="#000000" font-family="sans-serif" font-size="12" lengthAdjust="spacing" textLength="86" x="1051" y="120.8441">crearProfesor()</text></g><!--link ListarProfesoresView to EditarProfesor--><g id="link_ListarProfesoresView_EditarProfesor"><path d="M864.35,69.306 C966.64,82.996 1146,107.016 1146,107.016 C1146,107.016 1238.5798,133.9969 1304.6498,153.2569 " fill="none" id="ListarProfesoresView-to-EditarProfesor" style="stroke:#181818;stroke-width:1.0;stroke-dasharray:7.0,7.0;"/><polygon fill="#181818" points="1310.41,154.936,1302.8891,148.5771,1305.6098,153.5367,1300.6502,156.2574,1310.41,154.936" style="stroke:#181818;stroke-width:1.0;"/><text fill="#000000" font-family="sans-serif" font-size="12" lengthAdjust="spacing" textLength="89" x="1206" y="120.8441">editarProfesor()</text></g><!--link ListarProfesoresView to EliminarProfesor--><g id="link_ListarProfesoresView_EliminarProfesor"><path d="M864.18,66.406 C1003.35,79.256 1304,107.016 1304,107.016 C1304,107.016 1425.5862,134.3594 1511.2162,153.6194 " fill="none" id="ListarProfesoresView-to-EliminarProfesor" style="stroke:#181818;stroke-width:1.0;stroke-dasharray:7.0,7.0;"/><polygon fill="#181818" points="1517.07,154.936,1509.1671,149.0586,1512.1919,153.8388,1507.4116,156.8636,1517.07,154.936" style="stroke:#181818;stroke-width:1.0;"/><text fill="#000000" font-family="sans-serif" font-size="12" lengthAdjust="spacing" textLength="102" x="1382" y="120.8441">eliminarProfesor()</text></g><!--link ListarProfesoresView to ImportarProfesores--><g id="link_ListarProfesoresView_ImportarProfesores"><path d="M864.16,64.676 C1040.48,76.546 1493,107.016 1493,107.016 C1493,107.016 1636.5974,134.5461 1737.0374,153.8061 " fill="none" id="ListarProfesoresView-to-ImportarProfesores" style="stroke:#181818;stroke-width:1.0;stroke-dasharray:7.0,7.0;"/><polygon fill="#181818" points="1742.93,154.936,1734.8443,149.3127,1738.0195,153.9944,1733.3377,157.1695,1742.93,154.936" style="stroke:#181818;stroke-width:1.0;"/><text fill="#000000" font-family="sans-serif" font-size="12" lengthAdjust="spacing" textLength="118" x="1584" y="120.8441">importarProfesores()</text></g><!--SRC=[hPHFQzj04CNl-oa6zv907OXfGYEAmP7jKkZ1nD3xI1ehGrQxOdQDSKk_UzTk7Vrt7LgTj6_V_9PPlP5xOLEYO049fY-vsAt9OgkjmEwPFIdtkk-UCRCxDZbiKBlwpfmskDL-QOt_NPhemEethFaxmUsajgdPaD-N1ANL-yD2AQ7KeyarmRjuldYStS4eMhFpL23CsPNMSA9f1EZWZrofIfNXSCm9C16MbTWDEIla3kvHIxkw7i4F1U6f7Na_ULWi7-1h86FD-urfrxOcTqbs_n5EfZWqA5PhahPnEPd57nQlnYSghMDlPVyNuy3sp75kq6y5rSz_kwurQiwm5n6-fSR42dgs1cAXwZQEh8Po0M6HiMyXcj8b3Cq5cpQb9Lx0-LAKLXgVzqZgoafrhWp6CfxsnYE2JhwKwZF2E0k8RcoYC0rDzrM9UUZj6Y9OXL1dJ-J297qw6QPATIamhi6hg4LW4q-6P7L4PlODy8eIu5KwJoy7iPR9WPu7MjwmzjBeEPNmwn6sx-5_TfziNOgrvjzmIcy_DpVJeNcA8BL5gIaKVIPtI5n8mY2aCKYXjBuyLzUSdWYeiJvRsPgOKDjIpbLtfoG2xcY1y0i0]--></g></svg>