<?xml version="1.0" encoding="us-ascii" standalone="no"?><svg xmlns="http://www.w3.org/2000/svg" xmlns:xlink="http://www.w3.org/1999/xlink" contentStyleType="text/css" height="730px" preserveAspectRatio="none" style="width:791px;height:730px;background:#FFFFFF;" version="1.1" viewBox="0 0 791 730" width="791px" zoomAndPan="magnify"><defs/><g><path d="M19.5,7 L765.5,7 A12.5,12.5 0 0 1 778,19.5 L778,34.6094 L7,34.6094 L7,19.5 A12.5,12.5 0 0 1 19.5,7 " fill="#F1F1F1" style="stroke:#F1F1F1;stroke-width:1.0;"/><rect fill="none" height="570.6094" rx="12.5" ry="12.5" style="stroke:#181818;stroke-width:0.5;" width="771" x="7" y="7"/><line style="stroke:#181818;stroke-width:0.5;" x1="7" x2="778" y1="34.6094" y2="34.6094"/><text fill="#000000" font-family="sans-serif" font-size="14" lengthAdjust="spacing" textLength="208" x="288.5" y="26.5332">descargarCalendarioExamenes()</text><g id="descargarCalendarioExamenes.SeleccionandoFormato"><rect fill="#F1F1F1" height="50" rx="12.5" ry="12.5" style="stroke:#181818;stroke-width:0.5;" width="50" x="208" y="137.6094"/><line style="stroke:#181818;stroke-width:0.5;" x1="208" x2="258" y1="165.2188" y2="165.2188"/><text fill="#000000" font-family="sans-serif" font-size="14" lengthAdjust="spacing" textLength="4" x="231" y="157.1426">&#160;</text></g><g id="descargarCalendarioExamenes.GenerandoArchivo"><rect fill="#F1F1F1" height="50" rx="12.5" ry="12.5" style="stroke:#181818;stroke-width:0.5;" width="50" x="208" y="341.6094"/><line style="stroke:#181818;stroke-width:0.5;" x1="208" x2="258" y1="369.2188" y2="369.2188"/><text fill="#000000" font-family="sans-serif" font-size="14" lengthAdjust="spacing" textLength="4" x="231" y="361.1426">&#160;</text></g><ellipse cx="233" cy="55.6094" fill="#222222" rx="10" ry="10" style="stroke:#222222;stroke-width:1.0;"/><ellipse cx="233" cy="556.6094" fill="none" rx="11" ry="11" style="stroke:#222222;stroke-width:1.0;"/><ellipse cx="233" cy="556.6094" fill="#222222" rx="6" ry="6" style="stroke:#222222;stroke-width:1.0;"/><!--link *start*descargarCalendarioExamenes to SeleccionandoFormato--><g id="link_*start*descargarCalendarioExamenes_SeleccionandoFormato"><path d="M233,65.9294 C233,81.7894 233,108.5194 233,131.2494 " fill="none" id="*start*descargarCalendarioExamenes-to-SeleccionandoFormato" style="stroke:#008000;stroke-width:1.0;"/><polygon fill="#008000" points="233,137.2494,237,128.2494,233,132.2494,229,128.2494,233,137.2494" style="stroke:#008000;stroke-width:1.0;"/><path d="M238,88.6094 L238,114.6094 L481,114.6094 L481,98.6094 L471,88.6094 L238,88.6094 " fill="#FEFFDD" style="stroke:#181818;stroke-width:0.5;"/><path d="M471,88.6094 L471,98.6094 L481,98.6094 L471,88.6094 " fill="#FEFFDD" style="stroke:#181818;stroke-width:0.5;"/><text fill="#000000" font-family="sans-serif" font-size="13" font-weight="bold" lengthAdjust="spacing" textLength="53" x="244" y="107.1045">Profesor</text><text fill="#000000" font-family="sans-serif" font-size="13" lengthAdjust="spacing" textLength="165" x="301" y="107.1045">solicita descargar calendario</text></g><!--link SeleccionandoFormato to GenerandoArchivo--><g id="link_SeleccionandoFormato_GenerandoArchivo"><path d="M233,187.9794 C233,226.9094 233,296.6894 233,335.4694 " fill="none" id="SeleccionandoFormato-to-GenerandoArchivo" style="stroke:#008000;stroke-width:1.0;"/><polygon fill="#008000" points="233,341.4694,237,332.4694,233,336.4694,229,332.4694,233,341.4694" style="stroke:#008000;stroke-width:1.0;"/><path d="M238,210.6094 L238,318.6094 L579,318.6094 L579,220.6094 L569,210.6094 L238,210.6094 " fill="#FEFFDD" style="stroke:#181818;stroke-width:0.5;"/><path d="M569,210.6094 L569,220.6094 L579,220.6094 L569,210.6094 " fill="#FEFFDD" style="stroke:#181818;stroke-width:0.5;"/><text fill="#000000" font-family="sans-serif" font-size="13" font-weight="bold" lengthAdjust="spacing" textLength="51" x="244" y="229.1045">Sistema</text><text fill="#000000" font-family="sans-serif" font-size="13" lengthAdjust="spacing" textLength="265" x="299" y="229.1045">presenta opciones de descarga personalizada</text><text fill="#000000" font-family="sans-serif" font-size="13" lengthAdjust="spacing" textLength="246" x="244" y="245.4561">&#8226; Permite seleccionar formato (PDF/Excel)</text><text fill="#000000" font-family="sans-serif" font-size="13" lengthAdjust="spacing" textLength="220" x="244" y="261.8076">&#8226; Permite seleccionar rango de fechas</text><text fill="#000000" font-family="sans-serif" font-size="13" lengthAdjust="spacing" textLength="243" x="244" y="278.1592">&#8226; Permite seleccionar informaci&#243;n a incluir</text><text fill="#000000" font-family="sans-serif" font-size="13" lengthAdjust="spacing" textLength="247" x="244" y="294.5107">&#8226; Permite solicitar generar archivo personal</text><text fill="#000000" font-family="sans-serif" font-size="13" lengthAdjust="spacing" textLength="213" x="244" y="310.8623">&#8226; Permite solicitar cancelar descarga</text></g><!--link GenerandoArchivo to *end*descargarCalendarioExamenes--><g id="link_GenerandoArchivo_*end*descargarCalendarioExamenes"><path d="M207.92,372.5094 C151.2,383.5894 18,409.6094 18,409.6094 C18,409.6094 18,527.6094 18,527.6094 C18,527.6094 172.2801,547.7053 216.0901,553.4053 " fill="none" id="GenerandoArchivo-to-*end*descargarCalendarioExamenes" style="stroke:#008000;stroke-width:1.0;"/><polygon fill="#008000" points="222.04,554.1794,213.6313,549.0516,217.0818,553.5343,212.5991,556.9848,222.04,554.1794" style="stroke:#008000;stroke-width:1.0;"/><path d="M23,414.6094 L23,522.6094 L423,522.6094 L423,424.6094 L413,414.6094 L23,414.6094 " fill="#FEFFDD" style="stroke:#181818;stroke-width:0.5;"/><path d="M413,414.6094 L413,424.6094 L423,424.6094 L413,414.6094 " fill="#FEFFDD" style="stroke:#181818;stroke-width:0.5;"/><text fill="#000000" font-family="sans-serif" font-size="13" font-weight="bold" lengthAdjust="spacing" textLength="53" x="29" y="433.1045">Profesor</text><text fill="#000000" font-family="sans-serif" font-size="13" lengthAdjust="spacing" textLength="244" x="86" y="433.1045">introduce preferencias y solicita descargar</text><text fill="#000000" font-family="sans-serif" font-size="13" font-weight="bold" lengthAdjust="spacing" textLength="51" x="29" y="449.4561">Sistema</text><text fill="#000000" font-family="sans-serif" font-size="13" lengthAdjust="spacing" textLength="231" x="84" y="449.4561">visualiza y genera archivo personalizado</text><text fill="#000000" font-family="sans-serif" font-size="13" font-weight="bold" lengthAdjust="spacing" textLength="51" x="29" y="465.8076">Sistema</text><text fill="#000000" font-family="sans-serif" font-size="13" lengthAdjust="spacing" textLength="324" x="84" y="465.8076">visualiza e incluye solo ex&#225;menes asignados al profesor</text><text fill="#000000" font-family="sans-serif" font-size="13" font-weight="bold" lengthAdjust="spacing" textLength="51" x="29" y="482.1592">Sistema</text><text fill="#000000" font-family="sans-serif" font-size="13" lengthAdjust="spacing" textLength="177" x="84" y="482.1592">muestra archivo para descarga</text><text fill="#000000" font-family="sans-serif" font-size="13" font-weight="bold" lengthAdjust="spacing" textLength="51" x="29" y="498.5107">Sistema</text><text fill="#000000" font-family="sans-serif" font-size="13" lengthAdjust="spacing" textLength="167" x="84" y="498.5107">presenta enlace de descarga</text><text fill="#000000" font-family="sans-serif" font-size="13" font-weight="bold" lengthAdjust="spacing" textLength="53" x="29" y="514.8623">Profesor</text><text fill="#000000" font-family="sans-serif" font-size="13" lengthAdjust="spacing" textLength="146" x="86" y="514.8623">solicita descargar archivo</text></g><!--link GenerandoArchivo to *end*descargarCalendarioExamenes--><g id="link_GenerandoArchivo_*end*descargarCalendarioExamenes"><path d="M258.09,373.0094 C310.76,384.3594 428,409.6094 428,409.6094 C428,409.6094 428,527.6094 428,527.6094 C428,527.6094 290.5791,547.3366 249.6991,553.2066 " fill="none" id="GenerandoArchivo-to-*end*descargarCalendarioExamenes-1" style="stroke:#FF0000;stroke-width:1.0;"/><polygon fill="#FF0000" points="243.76,554.0594,253.2372,556.7396,248.7092,553.3487,252.1001,548.8208,243.76,554.0594" style="stroke:#FF0000;stroke-width:1.0;"/><path d="M433,447.6094 L433,489.6094 L769,489.6094 L769,457.6094 L759,447.6094 L433,447.6094 " fill="#FEFFDD" style="stroke:#181818;stroke-width:0.5;"/><path d="M759,447.6094 L759,457.6094 L769,457.6094 L759,447.6094 " fill="#FEFFDD" style="stroke:#181818;stroke-width:0.5;"/><text fill="#000000" font-family="sans-serif" font-size="13" font-weight="bold" lengthAdjust="spacing" textLength="53" x="439" y="466.1045">Profesor</text><text fill="#000000" font-family="sans-serif" font-size="13" lengthAdjust="spacing" textLength="151" x="496" y="466.1045">solicita cancelar descarga</text><text fill="#000000" font-family="sans-serif" font-size="13" font-weight="bold" lengthAdjust="spacing" textLength="51" x="439" y="482.4561">Sistema</text><text fill="#000000" font-family="sans-serif" font-size="13" lengthAdjust="spacing" textLength="260" x="494" y="482.4561">visualiza y descarta la generaci&#243;n del archivo</text></g><g id="CALENDARIO_ABIERTO"><rect fill="#F1F1F1" height="50" rx="12.5" ry="12.5" style="stroke:#181818;stroke-width:0.5;" width="176" x="304.5" y="674"/><line style="stroke:#181818;stroke-width:0.5;" x1="304.5" x2="480.5" y1="701.6094" y2="701.6094"/><text fill="#000000" font-family="sans-serif" font-size="14" lengthAdjust="spacing" textLength="156" x="314.5" y="693.5332">CALENDARIO_ABIERTO</text></g><!--link descargarCalendarioExamenes to CALENDARIO_ABIERTO--><g id="link_descargarCalendarioExamenes_CALENDARIO_ABIERTO"><path d="M302.9,578.13 C297.09,596.6 293.5,608 293.5,608 C293.5,608 293.5,644 293.5,644 C293.5,644 316.5819,656.5981 342.9419,670.9681 " fill="none" id="descargarCalendarioExamenes-to-CALENDARIO_ABIERTO" style="stroke:#008000;stroke-width:1.0;"/><polygon fill="#008000" points="348.21,673.84,342.2225,666.0202,343.8199,671.4468,338.3933,673.0443,348.21,673.84" style="stroke:#008000;stroke-width:1.0;"/><path d="M298.5,613 L298.5,639 L441.5,639 L441.5,623 L431.5,613 L298.5,613 " fill="#FEFFDD" style="stroke:#181818;stroke-width:0.5;"/><path d="M431.5,613 L431.5,623 L441.5,623 L431.5,613 " fill="#FEFFDD" style="stroke:#181818;stroke-width:0.5;"/><text fill="#000000" font-family="sans-serif" font-size="13" lengthAdjust="spacing" textLength="122" x="304.5" y="631.4951">consultarCalendario()</text></g><!--link descargarCalendarioExamenes to CALENDARIO_ABIERTO--><g id="link_descargarCalendarioExamenes_CALENDARIO_ABIERTO"><path d="M444.99,578.13 C448.4,596.6 450.5,608 450.5,608 C450.5,608 450.5,644 450.5,644 C450.5,644 438.2821,655.3823 422.8421,669.7523 " fill="none" id="descargarCalendarioExamenes-to-CALENDARIO_ABIERTO-1" style="stroke:#FF0000;stroke-width:1.0;"/><polygon fill="#FF0000" points="418.45,673.84,427.7633,670.6365,422.1101,670.4336,422.313,664.7804,418.45,673.84" style="stroke:#FF0000;stroke-width:1.0;"/><path d="M455.5,613 L455.5,639 L582.5,639 L582.5,623 L572.5,613 L455.5,613 " fill="#FEFFDD" style="stroke:#181818;stroke-width:0.5;"/><path d="M572.5,613 L572.5,623 L582.5,623 L572.5,613 " fill="#FEFFDD" style="stroke:#181818;stroke-width:0.5;"/><text fill="#000000" font-family="sans-serif" font-size="13" lengthAdjust="spacing" textLength="106" x="461.5" y="631.4951">cancelar descarga</text></g><!--SRC=[ZLHjQjj04Fs_frZSFtOXv0B1u2PE29J49FqNGfcinigIrOwONGKxfT2hj5Ve4NAJdgIZ3zkIRTb1FwH5RzvxysQay69z3WoPTjPZNEQeStBByg1KY11H9nWCS0fy3Wvz0cnfke0CFGODGGyEl1-E1lh7YcSWb-3lqQ4nbZpuX2w9CuZKHLn9APTl9soUxIifzV3vKPyyV4ePqJ-UZFTpU18AycKZB-hiQJnZccCWFZjz6kj0pXeROTEDDckxIkwwB5Tg7tD7UiVSjkoz3H4pg5Hpne1UL2alEIMmP9Edpf6323dx1WceVx_-w1boPeKkh5smdZScXhEBozFfmg0RzMB5M4gbnXpDCuHUdFKLgx7lVxq6EHfNMEx2cy1OfrN7hA5kU6sx1sx0YqTvMFNPIdSxl4woCkJ3CxG-CYM5mJBNEJ9wOsLTbdk6kps8LnkAAcX1r_tij5DEWVhhi4vfMRLA6XVllrUVW4szbCgJ4sErtssUhC0GswBooMq2wjiQz0uCjdVc8tlTQ1o9dJ7vKEXhWTsv7iYunaYLWoRlUjSITBl-VYfrw1_Jtf7poTVfpSNaxlhs- -JBzVJksstNlI4V2XVRFCDHAuaZEaqeHrNwL_m_]--></g></svg>