<?xml version="1.0" encoding="us-ascii" standalone="no"?><svg xmlns="http://www.w3.org/2000/svg" xmlns:xlink="http://www.w3.org/1999/xlink" contentStyleType="text/css" height="919px" preserveAspectRatio="none" style="width:761px;height:919px;background:#FFFFFF;" version="1.1" viewBox="0 0 761 919" width="761px" zoomAndPan="magnify"><defs/><g><path d="M19.5,7 L735.0223,7 A12.5,12.5 0 0 1 747.5223,19.5 L747.5223,34.6094 L7,34.6094 L7,19.5 A12.5,12.5 0 0 1 19.5,7 " fill="#F1F1F1" style="stroke:#F1F1F1;stroke-width:1.0;"/><rect fill="none" height="759.6094" rx="12.5" ry="12.5" style="stroke:#181818;stroke-width:0.5;" width="740.5223" x="7" y="7"/><line style="stroke:#181818;stroke-width:0.5;" x1="7" x2="747.5223" y1="34.6094" y2="34.6094"/><text fill="#000000" font-family="sans-serif" font-size="14" lengthAdjust="spacing" textLength="129" x="312.7611" y="26.5332">generarCalendario()</text><g id="generarCalendario.ConfigurandoParametros"><rect fill="#F1F1F1" height="50" rx="12.5" ry="12.5" style="stroke:#181818;stroke-width:0.5;" width="50" x="192.5223" y="137.6094"/><line style="stroke:#181818;stroke-width:0.5;" x1="192.5223" x2="242.5223" y1="165.2188" y2="165.2188"/><text fill="#000000" font-family="sans-serif" font-size="14" lengthAdjust="spacing" textLength="4" x="215.5223" y="157.1426">&#160;</text></g><g id="generarCalendario.GenerandoCalendario"><rect fill="#F1F1F1" height="50" rx="12.5" ry="12.5" style="stroke:#181818;stroke-width:0.5;" width="50" x="192.5223" y="341.6094"/><line style="stroke:#181818;stroke-width:0.5;" x1="192.5223" x2="242.5223" y1="369.2188" y2="369.2188"/><text fill="#000000" font-family="sans-serif" font-size="14" lengthAdjust="spacing" textLength="4" x="215.5223" y="361.1426">&#160;</text></g><g id="generarCalendario.MostrandoResultado"><rect fill="#F1F1F1" height="50" rx="12.5" ry="12.5" style="stroke:#181818;stroke-width:0.5;" width="50" x="19.5223" y="513.6094"/><line style="stroke:#181818;stroke-width:0.5;" x1="19.5223" x2="69.5223" y1="541.2188" y2="541.2188"/><text fill="#000000" font-family="sans-serif" font-size="14" lengthAdjust="spacing" textLength="4" x="42.5223" y="533.1426">&#160;</text></g><ellipse cx="217.5223" cy="55.6094" fill="#222222" rx="10" ry="10" style="stroke:#222222;stroke-width:1.0;"/><ellipse cx="235.5223" cy="745.6094" fill="none" rx="11" ry="11" style="stroke:#222222;stroke-width:1.0;"/><ellipse cx="235.5223" cy="745.6094" fill="#222222" rx="6" ry="6" style="stroke:#222222;stroke-width:1.0;"/><!--link *start*generarCalendario to ConfigurandoParametros--><g id="link_*start*generarCalendario_ConfigurandoParametros"><path d="M217.5223,65.9294 C217.5223,81.7894 217.5223,108.5194 217.5223,131.2494 " fill="none" id="*start*generarCalendario-to-ConfigurandoParametros" style="stroke:#008000;stroke-width:1.0;"/><polygon fill="#008000" points="217.5223,137.2494,221.5223,128.2494,217.5223,132.2494,213.5223,128.2494,217.5223,137.2494" style="stroke:#008000;stroke-width:1.0;"/><path d="M222.5223,88.6094 L222.5223,114.6094 L487.5223,114.6094 L487.5223,98.6094 L477.5223,88.6094 L222.5223,88.6094 " fill="#FEFFDD" style="stroke:#181818;stroke-width:0.5;"/><path d="M477.5223,88.6094 L477.5223,98.6094 L487.5223,98.6094 L477.5223,88.6094 " fill="#FEFFDD" style="stroke:#181818;stroke-width:0.5;"/><text fill="#000000" font-family="sans-serif" font-size="13" font-weight="bold" lengthAdjust="spacing" textLength="89" x="228.5223" y="107.1045">Administrador</text><text fill="#000000" font-family="sans-serif" font-size="13" lengthAdjust="spacing" textLength="151" x="321.5223" y="107.1045">solicita generar calendario</text></g><!--link ConfigurandoParametros to GenerandoCalendario--><g id="link_ConfigurandoParametros_GenerandoCalendario"><path d="M217.5223,187.9794 C217.5223,226.9094 217.5223,296.6894 217.5223,335.4694 " fill="none" id="ConfigurandoParametros-to-GenerandoCalendario" style="stroke:#008000;stroke-width:1.0;"/><polygon fill="#008000" points="217.5223,341.4694,221.5223,332.4694,217.5223,336.4694,213.5223,332.4694,217.5223,341.4694" style="stroke:#008000;stroke-width:1.0;"/><path d="M222.5223,210.6094 L222.5223,318.6094 L513.5223,318.6094 L513.5223,220.6094 L503.5223,210.6094 L222.5223,210.6094 " fill="#FEFFDD" style="stroke:#181818;stroke-width:0.5;"/><path d="M503.5223,210.6094 L503.5223,220.6094 L513.5223,220.6094 L503.5223,210.6094 " fill="#FEFFDD" style="stroke:#181818;stroke-width:0.5;"/><text fill="#000000" font-family="sans-serif" font-size="13" font-weight="bold" lengthAdjust="spacing" textLength="51" x="228.5223" y="229.1045">Sistema</text><text fill="#000000" font-family="sans-serif" font-size="13" lengthAdjust="spacing" textLength="215" x="283.5223" y="229.1045">presenta configuraci&#243;n de generaci&#243;n</text><text fill="#000000" font-family="sans-serif" font-size="13" lengthAdjust="spacing" textLength="233" x="228.5223" y="245.4561">&#8226; Permite introducir fechas de inicio y fin</text><text fill="#000000" font-family="sans-serif" font-size="13" lengthAdjust="spacing" textLength="243" x="228.5223" y="261.8076">&#8226; Permite seleccionar horarios disponibles</text><text fill="#000000" font-family="sans-serif" font-size="13" lengthAdjust="spacing" textLength="225" x="228.5223" y="278.1592">&#8226; Permite solicitar validar disponibilidad</text><text fill="#000000" font-family="sans-serif" font-size="13" lengthAdjust="spacing" textLength="208" x="228.5223" y="294.5107">&#8226; Permite solicitar iniciar generaci&#243;n</text><text fill="#000000" font-family="sans-serif" font-size="13" lengthAdjust="spacing" textLength="223" x="228.5223" y="310.8623">&#8226; Permite solicitar cancelar generaci&#243;n</text></g><!--link GenerandoCalendario to MostrandoResultado--><g id="link_GenerandoCalendario_MostrandoResultado"><path d="M192.2923,373.1894 C140.6123,384.6094 27.5223,409.6094 27.5223,409.6094 C27.5223,409.6094 27.5223,494.6094 27.5223,494.6094 C27.5223,494.6094 28.9235,498.1707 32.8235,508.0207 " fill="none" id="GenerandoCalendario-to-MostrandoResultado" style="stroke:#008000;stroke-width:1.0;"/><polygon fill="#008000" points="35.0323,513.5994,35.4382,503.7589,33.1916,508.9505,28,506.704,35.0323,513.5994" style="stroke:#008000;stroke-width:1.0;"/><path d="M32.5223,414.6094 L32.5223,489.6094 L389.5223,489.6094 L389.5223,424.6094 L379.5223,414.6094 L32.5223,414.6094 " fill="#FEFFDD" style="stroke:#181818;stroke-width:0.5;"/><path d="M379.5223,414.6094 L379.5223,424.6094 L389.5223,424.6094 L379.5223,414.6094 " fill="#FEFFDD" style="stroke:#181818;stroke-width:0.5;"/><text fill="#000000" font-family="sans-serif" font-size="13" font-weight="bold" lengthAdjust="spacing" textLength="89" x="38.5223" y="433.1045">Administrador</text><text fill="#000000" font-family="sans-serif" font-size="13" lengthAdjust="spacing" textLength="225" x="131.5223" y="433.1045">introduce par&#225;metros y solicita generar</text><text fill="#000000" font-family="sans-serif" font-size="13" font-weight="bold" lengthAdjust="spacing" textLength="51" x="38.5223" y="449.4561">Sistema</text><text fill="#000000" font-family="sans-serif" font-size="13" lengthAdjust="spacing" textLength="275" x="93.5223" y="449.4561">visualiza y procesa la generaci&#243;n del calendario</text><text fill="#000000" font-family="sans-serif" font-size="13" font-weight="bold" lengthAdjust="spacing" textLength="51" x="38.5223" y="465.8076">Sistema</text><text fill="#000000" font-family="sans-serif" font-size="13" lengthAdjust="spacing" textLength="281" x="93.5223" y="465.8076">visualiza y asigna ex&#225;menes a aulas disponibles</text><text fill="#000000" font-family="sans-serif" font-size="13" font-weight="bold" lengthAdjust="spacing" textLength="51" x="38.5223" y="482.1592">Sistema</text><text fill="#000000" font-family="sans-serif" font-size="13" lengthAdjust="spacing" textLength="241" x="93.5223" y="482.1592">visualiza y asigna profesores a ex&#225;menes</text></g><!--link MostrandoResultado to *end*generarCalendario--><g id="link_MostrandoResultado_*end*generarCalendario"><path d="M52.0523,563.8494 C67.1223,612.3294 99.5223,716.6094 99.5223,716.6094 C99.5223,716.6094 186.9155,734.5996 218.9755,741.1996 " fill="none" id="MostrandoResultado-to-*end*generarCalendario" style="stroke:#008000;stroke-width:1.0;"/><polygon fill="#008000" points="224.8523,742.4094,216.8437,736.6768,219.955,741.4012,215.2306,744.5125,224.8523,742.4094" style="stroke:#008000;stroke-width:1.0;"/><path d="M104.5223,587.6094 L104.5223,711.6094 L389.5223,711.6094 L389.5223,597.6094 L379.5223,587.6094 L104.5223,587.6094 " fill="#FEFFDD" style="stroke:#181818;stroke-width:0.5;"/><path d="M379.5223,587.6094 L379.5223,597.6094 L389.5223,597.6094 L379.5223,587.6094 " fill="#FEFFDD" style="stroke:#181818;stroke-width:0.5;"/><text fill="#000000" font-family="sans-serif" font-size="13" font-weight="bold" lengthAdjust="spacing" textLength="51" x="110.5223" y="606.1045">Sistema</text><text fill="#000000" font-family="sans-serif" font-size="13" lengthAdjust="spacing" textLength="192" x="165.5223" y="606.1045">presenta resultado de generaci&#243;n</text><text fill="#000000" font-family="sans-serif" font-size="13" lengthAdjust="spacing" textLength="264" x="110.5223" y="622.4561">&#8226; Muestra n&#250;mero de ex&#225;menes programados</text><text fill="#000000" font-family="sans-serif" font-size="13" lengthAdjust="spacing" textLength="183" x="110.5223" y="638.8076">&#8226; Muestra conflictos detectados</text><text fill="#000000" font-family="sans-serif" font-size="13" lengthAdjust="spacing" textLength="154" x="110.5223" y="655.1592">&#8226; Muestra aulas asignadas</text><text fill="#000000" font-family="sans-serif" font-size="13" lengthAdjust="spacing" textLength="203" x="110.5223" y="671.5107">&#8226; Permite solicitar revisar conflictos</text><text fill="#000000" font-family="sans-serif" font-size="13" lengthAdjust="spacing" textLength="213" x="110.5223" y="687.8623">&#8226; Permite solicitar guardar calendario</text><text fill="#000000" font-family="sans-serif" font-size="13" font-weight="bold" lengthAdjust="spacing" textLength="89" x="110.5223" y="704.2139">Administrador</text><text fill="#000000" font-family="sans-serif" font-size="13" lengthAdjust="spacing" textLength="151" x="203.5223" y="704.2139">solicita guardar calendario</text></g><!--link GenerandoCalendario to *end*generarCalendario--><g id="link_GenerandoCalendario_*end*generarCalendario"><path d="M242.8823,373.6294 C291.8223,385.2394 394.5223,409.6094 394.5223,409.6094 C394.5223,409.6094 394.5223,716.6094 394.5223,716.6094 C394.5223,716.6094 287.7613,735.4085 252.1113,741.6885 " fill="none" id="GenerandoCalendario-to-*end*generarCalendario" style="stroke:#FF0000;stroke-width:1.0;"/><polygon fill="#FF0000" points="246.2023,742.7294,255.7598,745.1073,251.1265,741.8619,254.3719,737.2287,246.2023,742.7294" style="stroke:#FF0000;stroke-width:1.0;"/><path d="M399.5223,517.6094 L399.5223,559.6094 L738.5223,559.6094 L738.5223,527.6094 L728.5223,517.6094 L399.5223,517.6094 " fill="#FEFFDD" style="stroke:#181818;stroke-width:0.5;"/><path d="M728.5223,517.6094 L728.5223,527.6094 L738.5223,527.6094 L728.5223,517.6094 " fill="#FEFFDD" style="stroke:#181818;stroke-width:0.5;"/><text fill="#000000" font-family="sans-serif" font-size="13" font-weight="bold" lengthAdjust="spacing" textLength="89" x="405.5223" y="536.1045">Administrador</text><text fill="#000000" font-family="sans-serif" font-size="13" lengthAdjust="spacing" textLength="161" x="498.5223" y="536.1045">solicita cancelar generaci&#243;n</text><text fill="#000000" font-family="sans-serif" font-size="13" font-weight="bold" lengthAdjust="spacing" textLength="51" x="405.5223" y="552.4561">Sistema</text><text fill="#000000" font-family="sans-serif" font-size="13" lengthAdjust="spacing" textLength="263" x="460.5223" y="552.4561">visualiza y descarta el proceso de generaci&#243;n</text></g><g id="CALENDARIO_GENERADO"><rect fill="#F1F1F1" height="50" rx="12.5" ry="12.5" style="stroke:#181818;stroke-width:0.5;" width="194" x="172.5" y="863"/><line style="stroke:#181818;stroke-width:0.5;" x1="172.5" x2="366.5" y1="890.6094" y2="890.6094"/><text fill="#000000" font-family="sans-serif" font-size="14" lengthAdjust="spacing" textLength="174" x="182.5" y="882.5332">CALENDARIO_GENERADO</text></g><g id="SISTEMA_DISPONIBLE"><rect fill="#F1F1F1" height="50" rx="12.5" ry="12.5" style="stroke:#181818;stroke-width:0.5;" width="167" x="402" y="863"/><line style="stroke:#181818;stroke-width:0.5;" x1="402" x2="569" y1="890.6094" y2="890.6094"/><text fill="#000000" font-family="sans-serif" font-size="14" lengthAdjust="spacing" textLength="147" x="412" y="882.5332">SISTEMA_DISPONIBLE</text></g><!--link generarCalendario to CALENDARIO_GENERADO--><g id="link_generarCalendario_CALENDARIO_GENERADO"><path d="M295.44,767.16 C286.73,807.38 280.6393,835.5158 276.0093,856.9058 " fill="none" id="generarCalendario-to-CALENDARIO_GENERADO" style="stroke:#008000;stroke-width:1.0;"/><polygon fill="#008000" points="274.74,862.77,280.5535,854.8199,275.7978,857.8832,272.7345,853.1275,274.74,862.77" style="stroke:#008000;stroke-width:1.0;"/><path d="M293.5,802 L293.5,828 L427.5,828 L427.5,812 L417.5,802 L293.5,802 " fill="#FEFFDD" style="stroke:#181818;stroke-width:0.5;"/><path d="M417.5,802 L417.5,812 L427.5,812 L417.5,802 " fill="#FEFFDD" style="stroke:#181818;stroke-width:0.5;"/><text fill="#000000" font-family="sans-serif" font-size="13" lengthAdjust="spacing" textLength="113" x="299.5" y="820.4951">completarProceso()</text></g><!--link generarCalendario to SISTEMA_DISPONIBLE--><g id="link_generarCalendario_SISTEMA_DISPONIBLE"><path d="M459.56,767.16 C468.27,807.38 474.3607,835.5158 478.9907,856.9058 " fill="none" id="generarCalendario-to-SISTEMA_DISPONIBLE" style="stroke:#FF0000;stroke-width:1.0;"/><polygon fill="#FF0000" points="480.26,862.77,482.2655,853.1275,479.2022,857.8832,474.4465,854.8199,480.26,862.77" style="stroke:#FF0000;stroke-width:1.0;"/><path d="M476.5,802 L476.5,828 L613.5,828 L613.5,812 L603.5,802 L476.5,802 " fill="#FEFFDD" style="stroke:#181818;stroke-width:0.5;"/><path d="M603.5,802 L603.5,812 L613.5,812 L603.5,802 " fill="#FEFFDD" style="stroke:#181818;stroke-width:0.5;"/><text fill="#000000" font-family="sans-serif" font-size="13" lengthAdjust="spacing" textLength="116" x="482.5" y="820.4951">cancelar generaci&#243;n</text></g><!--SRC=[ZLHBRjim4Dth58IxIGe4lK1Wm8sDm43yWTrT40HZSgmGeKXXA0LrYmAzIdk5xhhrJNgI3kKlBSaEl10eltdpvisZ_AksEH1amcYBnIf7aJkp2eSayGKKA5AqI41tOD0g8Eq4UD6flRswxeZlkveE_nXrv-nIfoM1LMuQkc11piUO-ug80GUg631olgW0C_IbAK2v97dy-2Hk7Z-aX6YVRhfjZQnZ6cV3RA_9xQBRKvcsEj0fHxUV5btXdT5I5x2RKiY32dwAm90apVIHWgOnJjlFkJLcK3NE2JrQRYntt5Al_rYXTePNn-JVpzzYYfHfPjAMkwfIQX9Bb2ziZGelMRyJAx7KCTgZGSb_MHxgnL4Gn0NQvyxgXK4VWxSsa7W3erdz7gd3KRM0g-RyR5DyG4gm4iq9z61mWtkHkmqPkBpRdLySQQ3rh-tILhMTdwxcJVkINVW6ZCt9IVGW31mhP-FDSLBE483NgGM1NuC0Yrw0WD90l8hBzQnZYTvHHR0dEtAmxb1a85-OzyMHzkKDIHoL6Be8k_wR8LMGms0iCUMhmQK-0eU0i-55Y1yMA8iQOcF8Pb85RSaaP5z2bFPyBS2q15BnLRvmz-i55wD9gDfyFTEfyHgSsRv2Bu6uaFEsYM9jBtkbFvAa_gcEFfAzXy6utviD9y_tW_5WrkjFOktIPRb1jd2wQNLrVUH38_VMXVbm_cKmwZttX_FfP3py_30u8Jvx-_y3]--></g></svg>