<?xml version="1.0" encoding="us-ascii" standalone="no"?><svg xmlns="http://www.w3.org/2000/svg" xmlns:xlink="http://www.w3.org/1999/xlink" contentStyleType="text/css" height="400px" preserveAspectRatio="none" style="width:649px;height:400px;background:#FFFFFF;" version="1.1" viewBox="0 0 649 400" width="649px" zoomAndPan="magnify"><defs/><g><!--cluster eliminarExamen--><g id="cluster_eliminarExamen"><path d="M183,42.309 L306,42.309 A3.75,3.75 0 0 1 308.5,44.809 L315.5,67.3769 L479,67.3769 A2.5,2.5 0 0 1 481.5,69.8769 L481.5,390.809 A2.5,2.5 0 0 1 479,393.309 L183,393.309 A2.5,2.5 0 0 1 180.5,390.809 L180.5,44.809 A2.5,2.5 0 0 1 183,42.309 " fill="none" style="stroke:#000000;stroke-width:1.5;"/><line style="stroke:#000000;stroke-width:1.5;" x1="180.5" x2="315.5" y1="67.3769" y2="67.3769"/><text fill="#000000" font-family="sans-serif" font-size="14" font-weight="bold" lengthAdjust="spacing" textLength="122" x="184.5" y="59.2749">eliminarExamen()</text></g><!--entity EliminarExamenView--><g id="elem_EliminarExamenView"><rect fill="#629EF9" height="39.0679" rx="2.5" ry="2.5" style="stroke:#181818;stroke-width:0.5;" width="160" x="305.5" y="102.309"/><text fill="#000000" font-family="sans-serif" font-size="14" lengthAdjust="spacing" textLength="140" x="315.5" y="127.2749">EliminarExamenView</text></g><!--entity ExamenController--><g id="elem_ExamenController"><rect fill="#B5BD68" height="39.0679" rx="2.5" ry="2.5" style="stroke:#181818;stroke-width:0.5;" width="140" x="252.5" y="220.309"/><text fill="#000000" font-family="sans-serif" font-size="14" lengthAdjust="spacing" textLength="120" x="262.5" y="245.2749">ExamenController</text></g><!--entity ExamenRepository--><g id="elem_ExamenRepository"><rect fill="#F2AC4E" height="39.0679" rx="2.5" ry="2.5" style="stroke:#181818;stroke-width:0.5;" width="144" x="250.5" y="338.309"/><text fill="#000000" font-family="sans-serif" font-size="14" lengthAdjust="spacing" textLength="124" x="260.5" y="363.2749">ExamenRepository</text></g><!--entity Examen--><g id="elem_Examen"><rect fill="#F2AC4E" height="39.0679" rx="2.5" ry="2.5" style="stroke:#181818;stroke-width:0.5;" width="73" x="197" y="102.309"/><text fill="#000000" font-family="sans-serif" font-size="14" lengthAdjust="spacing" textLength="53" x="207" y="127.2749">Examen</text></g><!--entity ExamenesAbierto--><g id="elem_ExamenesAbierto"><rect fill="#CDEBA5" height="39.0679" rx="2.5" ry="2.5" style="stroke:#181818;stroke-width:0.5;" width="145" x="7" y="102.309"/><text fill="#000000" font-family="sans-serif" font-size="14" lengthAdjust="spacing" textLength="125" x="17" y="127.2749">:Ex&#225;menes Abierto</text></g><!--entity ExamenesAbiertoSalida--><g id="elem_ExamenesAbiertoSalida"><rect fill="#CDEBA5" height="39.0679" rx="2.5" ry="2.5" style="stroke:#181818;stroke-width:0.5;" width="145" x="498" y="220.309"/><text fill="#000000" font-family="sans-serif" font-size="14" lengthAdjust="spacing" textLength="125" x="508" y="245.2749">:Ex&#225;menes Abierto</text></g><!--link ExamenesAbierto to EliminarExamenView--><g id="link_ExamenesAbierto_EliminarExamenView"><path d="M102.42,102.179 C132.22,76.659 180.5,35.309 180.5,35.309 C180.5,35.309 287.5,35.309 287.5,35.309 C287.5,35.309 329.8518,72.6883 358.7618,98.2083 " fill="none" id="ExamenesAbierto-to-EliminarExamenView" style="stroke:#181818;stroke-width:1.0;"/><polygon fill="#181818" points="363.26,102.179,359.1599,93.2242,359.5115,98.8701,353.8656,99.2217,363.26,102.179" style="stroke:#181818;stroke-width:1.0;"/><text fill="#000000" font-family="sans-serif" font-size="13" lengthAdjust="spacing" textLength="152" x="152.5" y="22.206">eliminarExamen(examen)</text></g><!--link EliminarExamenView to ExamenController--><g id="link_EliminarExamenView_ExamenController"><path d="M360.17,141.419 C341.56,155.099 319.5,171.309 319.5,171.309 C319.5,171.309 319.5,190.309 319.5,190.309 C319.5,190.309 320.1279,200.5306 320.9779,214.2106 " fill="none" id="EliminarExamenView-to-ExamenController" style="stroke:#181818;stroke-width:1.0;"/><polygon fill="#181818" points="321.35,220.199,324.7842,210.9683,321.0399,215.2086,316.7996,211.4644,321.35,220.199" style="stroke:#181818;stroke-width:1.0;"/><text fill="#000000" font-family="sans-serif" font-size="13" lengthAdjust="spacing" textLength="104" x="320.5" y="186.206">eliminar(examen)</text></g><!--link ExamenController to ExamenRepository--><g id="link_ExamenController_ExamenRepository"><path d="M322.5,259.449 C322.5,281.089 322.5,310.589 322.5,332.219 " fill="none" id="ExamenController-to-ExamenRepository" style="stroke:#181818;stroke-width:1.0;"/><polygon fill="#181818" points="322.5,338.219,326.5,329.219,322.5,333.219,318.5,329.219,322.5,338.219" style="stroke:#181818;stroke-width:1.0;"/><text fill="#000000" font-family="sans-serif" font-size="13" lengthAdjust="spacing" textLength="104" x="323.5" y="304.206">eliminar(examen)</text></g><!--link EliminarExamenView to ExamenesAbiertoSalida--><g id="link_EliminarExamenView_ExamenesAbiertoSalida"><path d="M407.78,141.609 C431.46,161.589 465.5,190.309 465.5,190.309 C465.5,190.309 495.1432,204.0026 524.7532,217.6826 " fill="none" id="EliminarExamenView-to-ExamenesAbiertoSalida" style="stroke:#181818;stroke-width:1.0;stroke-dasharray:7.0,7.0;"/><polygon fill="#181818" points="530.2,220.199,523.7075,212.7931,525.661,218.102,520.3522,220.0555,530.2,220.199" style="stroke:#181818;stroke-width:1.0;"/><text fill="#000000" font-family="sans-serif" font-size="13" lengthAdjust="spacing" textLength="60" x="466.5" y="186.206">&#171;finalizar&#187;</text></g><!--link EliminarExamenView to ExamenesAbiertoSalida--><g id="link_EliminarExamenView_ExamenesAbiertoSalida"><path d="M441.53,141.419 C482.7,155.099 531.5,171.309 531.5,171.309 C531.5,171.309 545.0991,194.8334 556.6391,214.8134 " fill="none" id="EliminarExamenView-to-ExamenesAbiertoSalida-1" style="stroke:#181818;stroke-width:1.0;stroke-dasharray:7.0,7.0;"/><polygon fill="#181818" points="559.64,220.009,558.6024,210.215,557.1393,215.6793,551.6749,214.2161,559.64,220.009" style="stroke:#181818;stroke-width:1.0;"/><text fill="#000000" font-family="sans-serif" font-size="13" lengthAdjust="spacing" textLength="63" x="542.5" y="186.206">&#171;cancelar&#187;</text></g><!--SRC=[fP11QiCm44NtEiNWR9A5imXDQ4mmk8voW0Qw7zlJ829BGXOqJkXXUfPUhBPhYAEOGAasWpxl_yzCTHJAeCKIf53aQaDWjApR3sEMSeVg80acwPQ_94i88dxw_Yf9KGL99iWw7G1Mm4_OYRt6cC7yY0S2ag8K2kqlqAB1hJIT1N1XqBn1ssgnvhiry1loJT273sRBh5Wzz_MfLivgASdws6wHf4-ynrx9w4euRUk76Flynm7sA4M1Z7aoX3QCHzQAl3jDgHkp9k2EXR1eCxoDhma3hySCdTSZZ3hlM-VpU7p923QRzmQMuemsZl_ipL7b93lh3m00]--></g></svg>