<?xml version="1.0" encoding="us-ascii" standalone="no"?><svg xmlns="http://www.w3.org/2000/svg" xmlns:xlink="http://www.w3.org/1999/xlink" contentStyleType="text/css" height="382px" preserveAspectRatio="none" style="width:1606px;height:382px;background:#FFFFFF;" version="1.1" viewBox="0 0 1606 382" width="1606px" zoomAndPan="magnify"><defs/><g><!--cluster asignarProfesorAExamen--><g id="cluster_asignarProfesorAExamen"><path d="M141,41.016 L301,41.016 A3.75,3.75 0 0 1 303.5,43.516 L310.5,63.3601 L1442,63.3601 A2.5,2.5 0 0 1 1444.5,65.8601 L1444.5,372.516 A2.5,2.5 0 0 1 1442,375.016 L141,375.016 A2.5,2.5 0 0 1 138.5,372.516 L138.5,43.516 A2.5,2.5 0 0 1 141,41.016 " fill="none" style="stroke:#000000;stroke-width:1.5;"/><line style="stroke:#000000;stroke-width:1.5;" x1="138.5" x2="310.5" y1="63.3601" y2="63.3601"/><text fill="#000000" font-family="sans-serif" font-size="12" font-weight="bold" lengthAdjust="spacing" textLength="159" x="142.5" y="55.8441">asignarProfesorAExamen()</text></g><!--entity AsignarProfesorView--><g id="elem_AsignarProfesorView"><rect fill="#629EF9" height="36.3441" rx="2.5" ry="2.5" style="stroke:#181818;stroke-width:0.5;" width="137" x="687" y="95.016"/><text fill="#000000" font-family="sans-serif" font-size="12" lengthAdjust="spacing" textLength="117" x="697" y="117.8441">AsignarProfesorView</text></g><!--entity ExamenController--><g id="elem_ExamenController"><rect fill="#B5BD68" height="36.3441" rx="2.5" ry="2.5" style="stroke:#181818;stroke-width:0.5;" width="121" x="704" y="209.016"/><text fill="#000000" font-family="sans-serif" font-size="12" lengthAdjust="spacing" textLength="101" x="714" y="231.8441">ExamenController</text></g><!--entity ExamenRepository--><g id="elem_ExamenRepository"><rect fill="#F2AC4E" height="36.3441" rx="2.5" ry="2.5" style="stroke:#181818;stroke-width:0.5;" width="124" x="552.5" y="323.016"/><text fill="#000000" font-family="sans-serif" font-size="12" lengthAdjust="spacing" textLength="104" x="562.5" y="345.8441">ExamenRepository</text></g><!--entity ProfesorRepository--><g id="elem_ProfesorRepository"><rect fill="#F2AC4E" height="36.3441" rx="2.5" ry="2.5" style="stroke:#181818;stroke-width:0.5;" width="127" x="1001" y="323.016"/><text fill="#000000" font-family="sans-serif" font-size="12" lengthAdjust="spacing" textLength="107" x="1011" y="345.8441">ProfesorRepository</text></g><!--entity Examen--><g id="elem_Examen"><rect fill="#F2AC4E" height="36.3441" rx="2.5" ry="2.5" style="stroke:#181818;stroke-width:0.5;" width="65" x="913" y="209.016"/><text fill="#000000" font-family="sans-serif" font-size="12" lengthAdjust="spacing" textLength="45" x="923" y="231.8441">Examen</text></g><!--entity Profesor--><g id="elem_Profesor"><rect fill="#F2AC4E" height="36.3441" rx="2.5" ry="2.5" style="stroke:#181818;stroke-width:0.5;" width="68" x="467.5" y="95.016"/><text fill="#000000" font-family="sans-serif" font-size="12" lengthAdjust="spacing" textLength="48" x="477.5" y="117.8441">Profesor</text></g><!--entity ProfesorAbiertoEstado--><g id="elem_ProfesorAbiertoEstado"><rect fill="#CDEBA5" height="36.3441" rx="2.5" ry="2.5" style="stroke:#181818;stroke-width:0.5;" width="115" x="7" y="95.016"/><text fill="#000000" font-family="sans-serif" font-size="12" lengthAdjust="spacing" textLength="95" x="17" y="117.8441">:Profesor Abierto</text></g><!--entity ProfesorAbiertoSalida--><g id="elem_ProfesorAbiertoSalida"><rect fill="#CDEBA5" height="36.3441" rx="2.5" ry="2.5" style="stroke:#181818;stroke-width:0.5;" width="115" x="1485" y="209.016"/><text fill="#000000" font-family="sans-serif" font-size="12" lengthAdjust="spacing" textLength="95" x="1495" y="231.8441">:Profesor Abierto</text></g><!--link ProfesorAbiertoEstado to AsignarProfesorView--><g id="link_ProfesorAbiertoEstado_AsignarProfesorView"><path d="M81.29,94.866 C103.12,71.256 138.5,33.016 138.5,33.016 C138.5,33.016 553.5,33.016 553.5,33.016 C553.5,33.016 644.7617,69.1564 704.3417,92.7564 " fill="none" id="ProfesorAbiertoEstado-to-AsignarProfesorView" style="stroke:#181818;stroke-width:1.0;"/><polygon fill="#181818" points="709.92,94.966,703.0256,87.9327,705.2714,93.1247,700.0795,95.3705,709.92,94.966" style="stroke:#181818;stroke-width:1.0;"/><text fill="#000000" font-family="sans-serif" font-size="12" lengthAdjust="spacing" textLength="98" x="258.5" y="20.8441">asignarProfesor()</text></g><!--link AsignarProfesorView to ExamenController--><g id="link_AsignarProfesorView_ExamenController"><path d="M686.83,119.796 C628.27,124.726 553.5,131.016 553.5,131.016 C553.5,131.016 186.5,161.016 186.5,161.016 C186.5,161.016 186.5,179.016 186.5,179.016 C186.5,179.016 549.3597,208.5196 697.7597,220.5896 " fill="none" id="AsignarProfesorView-to-ExamenController" style="stroke:#181818;stroke-width:1.0;"/><polygon fill="#181818" points="703.74,221.076,695.0939,216.3596,698.7565,220.6707,694.4454,224.3333,703.74,221.076" style="stroke:#181818;stroke-width:1.0;"/><text fill="#000000" font-family="sans-serif" font-size="12" lengthAdjust="spacing" textLength="331" x="187.5" y="174.8441">buscarProfesores(criterio, pagina) : PagedResult&lt;Profesor&gt;</text></g><!--link AsignarProfesorView to ExamenController--><g id="link_AsignarProfesorView_ExamenController"><path d="M686.95,130.456 C630.43,144.006 559.5,161.016 559.5,161.016 C559.5,161.016 559.5,179.016 559.5,179.016 C559.5,179.016 637.5318,196.9051 697.9818,210.7651 " fill="none" id="AsignarProfesorView-to-ExamenController-1" style="stroke:#181818;stroke-width:1.0;"/><polygon fill="#181818" points="703.83,212.106,695.9516,206.1959,698.9565,210.9886,694.1637,213.9935,703.83,212.106" style="stroke:#181818;stroke-width:1.0;"/><text fill="#000000" font-family="sans-serif" font-size="12" lengthAdjust="spacing" textLength="344" x="560.5" y="174.8441">buscarExamenesSinProfesor(pagina) : PagedResult&lt;Examen&gt;</text></g><!--link AsignarProfesorView to ExamenController--><g id="link_AsignarProfesorView_ExamenController"><path d="M811.53,131.116 C855.57,144.556 909.5,161.016 909.5,161.016 C909.5,161.016 909.5,179.016 909.5,179.016 C909.5,179.016 864.4276,193.6258 822.9676,207.0658 " fill="none" id="AsignarProfesorView-to-ExamenController-2" style="stroke:#181818;stroke-width:1.0;"/><polygon fill="#181818" points="817.26,208.916,827.0549,209.9458,822.0163,207.3742,824.5879,202.3356,817.26,208.916" style="stroke:#181818;stroke-width:1.0;"/><text fill="#000000" font-family="sans-serif" font-size="12" lengthAdjust="spacing" textLength="287" x="910.5" y="174.8441">verificarDisponibilidad(profesor, examen) : Boolean</text></g><!--link AsignarProfesorView to ExamenController--><g id="link_AsignarProfesorView_ExamenController"><path d="M824.49,121.206 C950.83,134.376 1206.5,161.016 1206.5,161.016 C1206.5,161.016 1206.5,179.016 1206.5,179.016 C1206.5,179.016 895.5,209.016 895.5,209.016 C895.5,209.016 865.29,212.9328 830.97,217.3928 " fill="none" id="AsignarProfesorView-to-ExamenController-3" style="stroke:#181818;stroke-width:1.0;"/><polygon fill="#181818" points="825.02,218.166,834.4604,220.9728,829.9783,217.5217,833.4295,213.0396,825.02,218.166" style="stroke:#181818;stroke-width:1.0;"/><text fill="#000000" font-family="sans-serif" font-size="12" lengthAdjust="spacing" textLength="149" x="1207.5" y="174.8441">asignar(examen, profesor)</text></g><!--link ExamenController to ProfesorRepository--><g id="link_ExamenController_ProfesorRepository"><path d="M825.27,240.486 C893.11,254.416 993.5,275.016 993.5,275.016 C993.5,275.016 1020.3843,299.6247 1041.4243,318.8847 " fill="none" id="ExamenController-to-ProfesorRepository" style="stroke:#181818;stroke-width:1.0;"/><polygon fill="#181818" points="1045.85,322.936,1041.9123,313.9086,1042.1619,319.5599,1036.5106,319.8096,1045.85,322.936" style="stroke:#181818;stroke-width:1.0;"/><text fill="#000000" font-family="sans-serif" font-size="12" lengthAdjust="spacing" textLength="328" x="1013.5" y="288.8441">buscarPaginados(criterio, pagina) : PagedResult&lt;Profesor&gt;</text></g><!--link ExamenController to ExamenRepository--><g id="link_ExamenController_ExamenRepository"><path d="M703.83,233.246 C561.77,245.496 219.5,275.016 219.5,275.016 C219.5,275.016 219.5,293.016 219.5,293.016 C219.5,293.016 435.152,318.6774 546.392,331.9074 " fill="none" id="ExamenController-to-ExamenRepository" style="stroke:#181818;stroke-width:1.0;"/><polygon fill="#181818" points="552.35,332.616,543.8854,327.5811,547.385,332.0255,542.9406,335.5251,552.35,332.616" style="stroke:#181818;stroke-width:1.0;"/><text fill="#000000" font-family="sans-serif" font-size="12" lengthAdjust="spacing" textLength="350" x="220.5" y="288.8441">obtenerPendientesAsignacion(pagina) : PagedResult&lt;Examen&gt;</text></g><!--link ExamenController to ExamenRepository--><g id="link_ExamenController_ExamenRepository"><path d="M708.83,245.116 C665.08,258.556 611.5,275.016 611.5,275.016 C611.5,275.016 611.5,293.016 611.5,293.016 C611.5,293.016 612.1563,303.3783 613.0163,316.7983 " fill="none" id="ExamenController-to-ExamenRepository-1" style="stroke:#181818;stroke-width:1.0;"/><polygon fill="#181818" points="613.4,322.786,616.8162,313.5486,613.0802,317.7963,608.8326,314.0603,613.4,322.786" style="stroke:#181818;stroke-width:1.0;"/><text fill="#000000" font-family="sans-serif" font-size="12" lengthAdjust="spacing" textLength="258" x="612.5" y="288.8441">hayCruceHorario(profesor, examen) : Boolean</text></g><!--link ExamenController to ExamenRepository--><g id="link_ExamenController_ExamenRepository"><path d="M804.89,245.116 C836.63,258.556 875.5,275.016 875.5,275.016 C875.5,275.016 875.5,293.016 875.5,293.016 C875.5,293.016 759.785,313.8528 682.585,327.7528 " fill="none" id="ExamenController-to-ExamenRepository-2" style="stroke:#181818;stroke-width:1.0;"/><polygon fill="#181818" points="676.68,328.816,686.2464,331.1579,681.6009,327.93,684.8288,323.2845,676.68,328.816" style="stroke:#181818;stroke-width:1.0;"/><text fill="#000000" font-family="sans-serif" font-size="12" lengthAdjust="spacing" textLength="108" x="876.5" y="288.8441">actualizar(examen)</text></g><!--link ExamenController to Examen--><g id="link_ExamenController_Examen"><path d="M825.02,227.016 C854.41,227.016 882.56,227.016 906.98,227.016 " fill="none" id="ExamenController-to-Examen" style="stroke:#181818;stroke-width:1.0;"/><polygon fill="#181818" points="912.98,227.016,903.98,223.016,907.98,227.016,903.98,231.016,912.98,227.016" style="stroke:#181818;stroke-width:1.0;"/><text fill="#000000" font-family="sans-serif" font-size="12" lengthAdjust="spacing" textLength="51" x="843.5" y="219.8441">&#171;update&#187;</text></g><!--link AsignarProfesorView to ProfesorAbiertoSalida--><g id="link_AsignarProfesorView_ProfesorAbiertoSalida"><path d="M824.29,119.316 C983.82,131.606 1365.5,161.016 1365.5,161.016 C1365.5,161.016 1437.9177,187.6078 1490.3677,206.8678 " fill="none" id="AsignarProfesorView-to-ProfesorAbiertoSalida" style="stroke:#181818;stroke-width:1.0;stroke-dasharray:7.0,7.0;"/><polygon fill="#181818" points="1496,208.936,1488.9304,202.0789,1491.3064,207.2125,1486.1728,209.5886,1496,208.936" style="stroke:#181818;stroke-width:1.0;"/><text fill="#000000" font-family="sans-serif" font-size="12" lengthAdjust="spacing" textLength="57" x="1413.5" y="174.8441">&#171;finalizar&#187;</text></g><!--link AsignarProfesorView to ProfesorAbiertoSalida--><g id="link_AsignarProfesorView_ProfesorAbiertoSalida"><path d="M824.26,118.476 C1004.99,130.216 1479.5,161.016 1479.5,161.016 C1479.5,161.016 1503.1039,185.3679 1521.7739,204.6279 " fill="none" id="AsignarProfesorView-to-ProfesorAbiertoSalida-1" style="stroke:#181818;stroke-width:1.0;stroke-dasharray:7.0,7.0;"/><polygon fill="#181818" points="1525.95,208.936,1522.5579,199.6898,1522.4699,205.3459,1516.8137,205.2579,1525.95,208.936" style="stroke:#181818;stroke-width:1.0;"/><text fill="#000000" font-family="sans-serif" font-size="12" lengthAdjust="spacing" textLength="60" x="1496.5" y="174.8441">&#171;cancelar&#187;</text></g><!--SRC=[dLDDRwCm4BtxLupI2v6QIXjjgosA8gM4gCUeaVO-u85OTMracyscLVzxJI1ibYMRKcxOxsFcpTW-2rMWmHT8C7tEZIuLZxJK1dPRuOZPzjvkaUkTK3baAEtfpP8oBALRQULgQYAzLZzW8ru9larFBgLGvFO5GQ7bllfXp53gKEMIu2fQnW-BMnY5QwCpibvyaGWoJey0BHmFcxFOEbyZOuMtnvmyGkGAJOkAV-CBgOeuwhyAnYDuO-2_anBkflVnwXuMVpD-2jfraSbjmkz-GAqL-MwDbf9C5xQQBgBlSGDxea9RuRJPdu4T3Iy2QxqBAkpzw_5kK0gEZFMc3XCpcVU557R748mPwy71X7k1RdOX9ALD_o391gdnYsc4leO2Sw5m326i_RZv4rc_PRCZTCwwOhN5lu6s9WSzheTu36-bFYUx4QgDfD-bHfxhexi_8UZ4UM6p9iK5AKUshYqLMbrm6DB5BnzC9dmZIs4BhKGYghNWGT5mhu4EdChhGMj9g3xTmHRtaIbJUjG6VVp_rHnISxE2GQtYfzfmnZsLcLOXXDciB3Wwcdz-29YwqZ-KrzRjpBhVtCpx7rZbclbP7JIyyM1oYYebUU1-0000]--></g></svg>