<?xml version="1.0" encoding="us-ascii" standalone="no"?><svg xmlns="http://www.w3.org/2000/svg" xmlns:xlink="http://www.w3.org/1999/xlink" contentStyleType="text/css" height="786px" preserveAspectRatio="none" style="width:1048px;height:786px;background:#FFFFFF;" version="1.1" viewBox="0 0 1048 786" width="1048px" zoomAndPan="magnify"><defs/><g><path d="M19.5,7 L1022.5,7 A12.5,12.5 0 0 1 1035,19.5 L1035,34.6094 L7,34.6094 L7,19.5 A12.5,12.5 0 0 1 19.5,7 " fill="#F1F1F1" style="stroke:#F1F1F1;stroke-width:1.0;"/><rect fill="none" height="626.6094" rx="12.5" ry="12.5" style="stroke:#181818;stroke-width:0.5;" width="1028" x="7" y="7"/><line style="stroke:#181818;stroke-width:0.5;" x1="7" x2="1035" y1="34.6094" y2="34.6094"/><text fill="#000000" font-family="sans-serif" font-size="14" lengthAdjust="spacing" textLength="93" x="474.5" y="26.5332">crearExamen()</text><g id="crearExamen.MostrandoFormulario"><rect fill="#F1F1F1" height="50" rx="12.5" ry="12.5" style="stroke:#181818;stroke-width:0.5;" width="50" x="415" y="137.6094"/><line style="stroke:#181818;stroke-width:0.5;" x1="415" x2="465" y1="165.2188" y2="165.2188"/><text fill="#000000" font-family="sans-serif" font-size="14" lengthAdjust="spacing" textLength="4" x="438" y="157.1426">&#160;</text></g><g id="crearExamen.GuardandoDatos"><rect fill="#F1F1F1" height="50" rx="12.5" ry="12.5" style="stroke:#181818;stroke-width:0.5;" width="50" x="19" y="479.6094"/><line style="stroke:#181818;stroke-width:0.5;" x1="19" x2="69" y1="507.2188" y2="507.2188"/><text fill="#000000" font-family="sans-serif" font-size="14" lengthAdjust="spacing" textLength="4" x="42" y="499.1426">&#160;</text></g><g id="crearExamen.ValidandoDatos"><rect fill="#F1F1F1" height="50" rx="12.5" ry="12.5" style="stroke:#181818;stroke-width:0.5;" width="50" x="19" y="357.6094"/><line style="stroke:#181818;stroke-width:0.5;" x1="19" x2="69" y1="385.2188" y2="385.2188"/><text fill="#000000" font-family="sans-serif" font-size="14" lengthAdjust="spacing" textLength="4" x="42" y="377.1426">&#160;</text></g><g id="crearExamen.SeleccionandoAsignatura"><rect fill="#F1F1F1" height="50" rx="12.5" ry="12.5" style="stroke:#181818;stroke-width:0.5;" width="50" x="560" y="357.6094"/><line style="stroke:#181818;stroke-width:0.5;" x1="560" x2="610" y1="385.2188" y2="385.2188"/><text fill="#000000" font-family="sans-serif" font-size="14" lengthAdjust="spacing" textLength="4" x="583" y="377.1426">&#160;</text></g><ellipse cx="440" cy="55.6094" fill="#222222" rx="10" ry="10" style="stroke:#222222;stroke-width:1.0;"/><ellipse cx="44" cy="612.6094" fill="none" rx="11" ry="11" style="stroke:#222222;stroke-width:1.0;"/><ellipse cx="44" cy="612.6094" fill="#222222" rx="6" ry="6" style="stroke:#222222;stroke-width:1.0;"/><!--link *start*crearExamen to MostrandoFormulario--><g id="link_*start*crearExamen_MostrandoFormulario"><path d="M440,65.9294 C440,81.7894 440,108.5194 440,131.2494 " fill="none" id="*start*crearExamen-to-MostrandoFormulario" style="stroke:#008000;stroke-width:1.0;"/><polygon fill="#008000" points="440,137.2494,444,128.2494,440,132.2494,436,128.2494,440,137.2494" style="stroke:#008000;stroke-width:1.0;"/><path d="M445,88.6094 L445,114.6094 L683,114.6094 L683,98.6094 L673,88.6094 L445,88.6094 " fill="#FEFFDD" style="stroke:#181818;stroke-width:0.5;"/><path d="M673,88.6094 L673,98.6094 L683,98.6094 L673,88.6094 " fill="#FEFFDD" style="stroke:#181818;stroke-width:0.5;"/><text fill="#000000" font-family="sans-serif" font-size="13" font-weight="bold" lengthAdjust="spacing" textLength="89" x="451" y="107.1045">Administrador</text><text fill="#000000" font-family="sans-serif" font-size="13" lengthAdjust="spacing" textLength="124" x="544" y="107.1045">solicita crear examen</text></g><!--link MostrandoFormulario to SeleccionandoAsignatura--><g id="link_MostrandoFormulario_SeleccionandoAsignatura"><path d="M440.14,187.7094 C440.41,235.9094 441,339.6094 441,339.6094 C441,339.6094 512.8998,360.5799 554.1598,372.6099 " fill="none" id="MostrandoFormulario-to-SeleccionandoAsignatura" style="stroke:#008000;stroke-width:1.0;"/><polygon fill="#008000" points="559.92,374.2894,552.3994,367.9301,555.1199,372.8898,550.1601,375.6103,559.92,374.2894" style="stroke:#008000;stroke-width:1.0;"/><path d="M446,210.6094 L446,334.6094 L704,334.6094 L704,220.6094 L694,210.6094 L446,210.6094 " fill="#FEFFDD" style="stroke:#181818;stroke-width:0.5;"/><path d="M694,210.6094 L694,220.6094 L704,220.6094 L694,210.6094 " fill="#FEFFDD" style="stroke:#181818;stroke-width:0.5;"/><text fill="#000000" font-family="sans-serif" font-size="13" font-weight="bold" lengthAdjust="spacing" textLength="51" x="452" y="229.1045">Sistema</text><text fill="#000000" font-family="sans-serif" font-size="13" lengthAdjust="spacing" textLength="181" x="507" y="229.1045">presenta formulario de creaci&#243;n</text><text fill="#000000" font-family="sans-serif" font-size="13" lengthAdjust="spacing" textLength="221" x="452" y="245.4561">&#8226; Permite introducir c&#243;digo de examen</text><text fill="#000000" font-family="sans-serif" font-size="13" lengthAdjust="spacing" textLength="186" x="452" y="261.8076">&#8226; Permite introducir fecha y hora</text><text fill="#000000" font-family="sans-serif" font-size="13" lengthAdjust="spacing" textLength="164" x="452" y="278.1592">&#8226; Permite introducir duraci&#243;n</text><text fill="#000000" font-family="sans-serif" font-size="13" lengthAdjust="spacing" textLength="237" x="452" y="294.5107">&#8226; Permite solicitar seleccionar asignatura</text><text fill="#000000" font-family="sans-serif" font-size="13" lengthAdjust="spacing" textLength="200" x="452" y="310.8623">&#8226; Permite solicitar guardar examen</text><text fill="#000000" font-family="sans-serif" font-size="13" lengthAdjust="spacing" textLength="209" x="452" y="327.2139">&#8226; Permite solicitar cancelar creaci&#243;n</text></g><!--link SeleccionandoAsignatura to MostrandoFormulario--><g id="link_SeleccionandoAsignatura_MostrandoFormulario"><path d="M610.09,373.1094 C646.33,360.8394 709,339.6094 709,339.6094 C709,339.6094 709,205.6094 709,205.6094 C709,205.6094 538.1981,178.9454 471.2381,168.4854 " fill="none" id="SeleccionandoAsignatura-to-MostrandoFormulario" style="stroke:#008000;stroke-width:1.0;"/><polygon fill="#008000" points="465.31,167.5594,473.5848,172.9005,470.2501,168.3311,474.8195,164.9964,465.31,167.5594" style="stroke:#008000;stroke-width:1.0;"/><path d="M714,243.1094 L714,302.1094 L1026,302.1094 L1026,253.1094 L1016,243.1094 L714,243.1094 " fill="#FEFFDD" style="stroke:#181818;stroke-width:0.5;"/><path d="M1016,243.1094 L1016,253.1094 L1026,253.1094 L1016,243.1094 " fill="#FEFFDD" style="stroke:#181818;stroke-width:0.5;"/><text fill="#000000" font-family="sans-serif" font-size="13" font-weight="bold" lengthAdjust="spacing" textLength="89" x="720" y="261.6045">Administrador</text><text fill="#000000" font-family="sans-serif" font-size="13" lengthAdjust="spacing" textLength="175" x="813" y="261.6045">solicita seleccionar asignatura</text><text fill="#000000" font-family="sans-serif" font-size="13" font-weight="bold" lengthAdjust="spacing" textLength="51" x="720" y="277.9561">Sistema</text><text fill="#000000" font-family="sans-serif" font-size="13" lengthAdjust="spacing" textLength="236" x="775" y="277.9561">presenta lista de asignaturas disponibles</text><text fill="#000000" font-family="sans-serif" font-size="13" font-weight="bold" lengthAdjust="spacing" textLength="89" x="720" y="294.3076">Administrador</text><text fill="#000000" font-family="sans-serif" font-size="13" lengthAdjust="spacing" textLength="142" x="813" y="294.3076">introduce una asignatura</text></g><!--link MostrandoFormulario to ValidandoDatos--><g id="link_MostrandoFormulario_ValidandoDatos"><path d="M414.97,166.3994 C330.77,175.7794 63,205.6094 63,205.6094 C63,205.6094 52.4548,303.3441 47.2448,351.5441 " fill="none" id="MostrandoFormulario-to-ValidandoDatos" style="stroke:#008000;stroke-width:1.0;"/><polygon fill="#008000" points="46.6,357.5094,51.544,348.9914,47.1373,352.5383,43.5904,348.1316,46.6,357.5094" style="stroke:#008000;stroke-width:1.0;"/><path d="M68,259.6094 L68,285.6094 L431,285.6094 L431,269.6094 L421,259.6094 L68,259.6094 " fill="#FEFFDD" style="stroke:#181818;stroke-width:0.5;"/><path d="M421,259.6094 L421,269.6094 L431,269.6094 L421,259.6094 " fill="#FEFFDD" style="stroke:#181818;stroke-width:0.5;"/><text fill="#000000" font-family="sans-serif" font-size="13" font-weight="bold" lengthAdjust="spacing" textLength="89" x="74" y="278.1045">Administrador</text><text fill="#000000" font-family="sans-serif" font-size="13" lengthAdjust="spacing" textLength="249" x="167" y="278.1045">introduce todos los datos y solicita guardar</text></g><!--link ValidandoDatos to GuardandoDatos--><g id="link_ValidandoDatos_GuardandoDatos"><path d="M44,407.8894 C44,428.7094 44,452.5494 44,473.3594 " fill="none" id="ValidandoDatos-to-GuardandoDatos" style="stroke:#008000;stroke-width:1.0;"/><polygon fill="#008000" points="44,479.3594,48,470.3594,44,474.3594,40,470.3594,44,479.3594" style="stroke:#008000;stroke-width:1.0;"/><path d="M49,430.6094 L49,456.6094 L367,456.6094 L367,440.6094 L357,430.6094 L49,430.6094 " fill="#FEFFDD" style="stroke:#181818;stroke-width:0.5;"/><path d="M357,430.6094 L357,440.6094 L367,440.6094 L357,430.6094 " fill="#FEFFDD" style="stroke:#181818;stroke-width:0.5;"/><text fill="#000000" font-family="sans-serif" font-size="13" font-weight="bold" lengthAdjust="spacing" textLength="51" x="55" y="449.1045">Sistema</text><text fill="#000000" font-family="sans-serif" font-size="13" lengthAdjust="spacing" textLength="242" x="110" y="449.1045">presenta validaci&#243;n de campos requeridos</text></g><!--link GuardandoDatos to *end*crearExamen--><g id="link_GuardandoDatos_*end*crearExamen"><path d="M44,529.6594 C44,552.2594 44,578.9894 44,595.4094 " fill="none" id="GuardandoDatos-to-*end*crearExamen" style="stroke:#008000;stroke-width:1.0;"/><polygon fill="#008000" points="44,601.4094,48,592.4094,44,596.4094,40,592.4094,44,601.4094" style="stroke:#008000;stroke-width:1.0;"/><path d="M49,552.6094 L49,578.6094 L447,578.6094 L447,562.6094 L437,552.6094 L49,552.6094 " fill="#FEFFDD" style="stroke:#181818;stroke-width:0.5;"/><path d="M437,552.6094 L437,562.6094 L447,562.6094 L437,552.6094 " fill="#FEFFDD" style="stroke:#181818;stroke-width:0.5;"/><text fill="#000000" font-family="sans-serif" font-size="13" font-weight="bold" lengthAdjust="spacing" textLength="51" x="55" y="571.1045">Sistema</text><text fill="#000000" font-family="sans-serif" font-size="13" lengthAdjust="spacing" textLength="322" x="110" y="571.1045">visualiza y guarda el nuevo examen en la base de datos</text></g><g id="EXAMEN_ABIERTO"><rect fill="#F1F1F1" height="50" rx="12.5" ry="12.5" style="stroke:#181818;stroke-width:0.5;" width="143" x="356.5" y="730"/><line style="stroke:#181818;stroke-width:0.5;" x1="356.5" x2="499.5" y1="757.6094" y2="757.6094"/><text fill="#000000" font-family="sans-serif" font-size="14" lengthAdjust="spacing" textLength="123" x="366.5" y="749.5332">EXAMEN_ABIERTO</text></g><g id="EXAMENES_ABIERTO"><rect fill="#F1F1F1" height="50" rx="12.5" ry="12.5" style="stroke:#181818;stroke-width:0.5;" width="161" x="534.5" y="730"/><line style="stroke:#181818;stroke-width:0.5;" x1="534.5" x2="695.5" y1="757.6094" y2="757.6094"/><text fill="#000000" font-family="sans-serif" font-size="14" lengthAdjust="spacing" textLength="141" x="544.5" y="749.5332">EXAMENES_ABIERTO</text></g><!--link crearExamen to EXAMEN_ABIERTO--><g id="link_crearExamen_EXAMEN_ABIERTO"><path d="M453.78,634.1 C445.22,673.9 439.1001,702.3538 434.4601,723.9538 " fill="none" id="crearExamen-to-EXAMEN_ABIERTO" style="stroke:#008000;stroke-width:1.0;"/><polygon fill="#008000" points="433.2,729.82,439.001,721.8608,434.2501,724.9315,431.1794,720.1806,433.2,729.82" style="stroke:#008000;stroke-width:1.0;"/><path d="M451,669 L451,695 L560,695 L560,679 L550,669 L451,669 " fill="#FEFFDD" style="stroke:#181818;stroke-width:0.5;"/><path d="M550,669 L550,679 L560,679 L550,669 " fill="#FEFFDD" style="stroke:#181818;stroke-width:0.5;"/><text fill="#000000" font-family="sans-serif" font-size="13" lengthAdjust="spacing" textLength="88" x="457" y="687.4951">editarExamen()</text></g><!--link crearExamen to EXAMENES_ABIERTO--><g id="link_crearExamen_EXAMENES_ABIERTO"><path d="M588.94,634.1 C597.59,673.9 603.7743,702.3572 608.4743,723.9572 " fill="none" id="crearExamen-to-EXAMENES_ABIERTO" style="stroke:#008000;stroke-width:1.0;"/><polygon fill="#008000" points="609.75,729.82,611.745,720.1753,608.6869,724.9343,603.9279,721.8763,609.75,729.82" style="stroke:#008000;stroke-width:1.0;"/><path d="M606,669 L606,695 L722,695 L722,679 L712,669 L606,669 " fill="#FEFFDD" style="stroke:#181818;stroke-width:0.5;"/><path d="M712,669 L712,679 L722,679 L712,669 " fill="#FEFFDD" style="stroke:#181818;stroke-width:0.5;"/><text fill="#000000" font-family="sans-serif" font-size="13" lengthAdjust="spacing" textLength="95" x="612" y="687.4951">abrirExamenes()</text></g><!--SRC=[bLHTRjD047xVKup22o1LNA2A58H1VMYB2498LON6kzDqrFMkcRKZ0aBYB5oXH-XDE0cxJXpRgTr0d4YnzzllPsRMuOvTYO85M7PKRKg2qjjDkb4gL5WHQ26Kx1iMv003p7htpr_Cu4UBcyKhhf_xK0awuzzwAMgBmdu8U5UZc0HuWvKFmxLFQ7bgRKcMj6RlqleYyCfXLGigTVNo6awkdgs4o5sVpCSSW78-CdcNOjwfqto-C0KxJa3ZvVHLFeVWBMkkS1iOg4ceo1beziQFKcFKVUafZuVgowXC1JQwfL0W5tLlEawpBRlcXtkd_lpw3Uz92euSx2hnfjOie1_k3QyQxCxh1F26z2t21cvzT3A1CT7bOxMs909X7qnYB_Qvni6hfiCoPgi3QNIQRFgp3zhMMgc9EXvhy_zqUIBHL7DiV8YfrXqsWE5GUiUvfJ2krbQOe7ROb-cY7XkfWoDnF66dMNdZ0zZuCsbl785z-bsBUZw6EWCB1oVsduPvtT0rVMsc6OioiWfzhKauskef3-a7ol5eFoctvb17eUzflBUHW2oucjP-DtqGlnOXnq39HrE8JlkdKltNMryw-xmupow-B5wVPHy-NWvTa4aZtBu3Ur6U9ikMutIO2-zsKUZp_GK0]--></g></svg>