<?xml version="1.0" encoding="us-ascii" standalone="no"?><svg xmlns="http://www.w3.org/2000/svg" xmlns:xlink="http://www.w3.org/1999/xlink" contentStyleType="text/css" height="522px" preserveAspectRatio="none" style="width:1915px;height:522px;background:#FFFFFF;" version="1.1" viewBox="0 0 1915 522" width="1915px" zoomAndPan="magnify"><defs/><g><!--cluster abrirAlumnos--><g id="cluster_abrirAlumnos"><path d="M155.5,6.016 L246.5,6.016 A3.75,3.75 0 0 1 249,8.516 L256,28.3601 L867.5,28.3601 A2.5,2.5 0 0 1 870,30.8601 L870,512.516 A2.5,2.5 0 0 1 867.5,515.016 L155.5,515.016 A2.5,2.5 0 0 1 153,512.516 L153,8.516 A2.5,2.5 0 0 1 155.5,6.016 " fill="none" style="stroke:#000000;stroke-width:1.5;"/><line style="stroke:#000000;stroke-width:1.5;" x1="153" x2="256" y1="28.3601" y2="28.3601"/><text fill="#000000" font-family="sans-serif" font-size="12" font-weight="bold" lengthAdjust="spacing" textLength="90" x="157" y="20.8441">abrirAlumnos()</text></g><!--entity ListarAlumnosView--><g id="elem_ListarAlumnosView"><rect fill="#629EF9" height="36.3441" rx="2.5" ry="2.5" style="stroke:#181818;stroke-width:0.5;" width="126" x="728" y="41.016"/><text fill="#000000" font-family="sans-serif" font-size="12" lengthAdjust="spacing" textLength="106" x="738" y="63.8441">ListarAlumnosView</text></g><!--entity AlumnoController--><g id="elem_AlumnoController"><rect fill="#B5BD68" height="36.3441" rx="2.5" ry="2.5" style="stroke:#181818;stroke-width:0.5;" width="119" x="327.5" y="155.016"/><text fill="#000000" font-family="sans-serif" font-size="12" lengthAdjust="spacing" textLength="99" x="337.5" y="177.8441">AlumnoController</text></g><!--entity AlumnoRepository--><g id="elem_AlumnoRepository"><rect fill="#F2AC4E" height="36.3441" rx="2.5" ry="2.5" style="stroke:#181818;stroke-width:0.5;" width="122" x="318" y="269.016"/><text fill="#000000" font-family="sans-serif" font-size="12" lengthAdjust="spacing" textLength="102" x="328" y="291.8441">AlumnoRepository</text></g><!--entity Alumno--><g id="elem_Alumno"><rect fill="#F2AC4E" height="36.3441" rx="2.5" ry="2.5" style="stroke:#181818;stroke-width:0.5;" width="63" x="347.5" y="366.016"/><text fill="#000000" font-family="sans-serif" font-size="12" lengthAdjust="spacing" textLength="43" x="357.5" y="388.8441">Alumno</text></g><!--entity Grado--><g id="elem_Grado"><rect fill="#F2AC4E" height="36.3441" rx="2.5" ry="2.5" style="stroke:#181818;stroke-width:0.5;" width="55" x="351.5" y="463.016"/><text fill="#000000" font-family="sans-serif" font-size="12" lengthAdjust="spacing" textLength="35" x="361.5" y="485.8441">Grado</text></g><!--entity SistemaDisponible--><g id="elem_SistemaDisponible"><rect fill="#CDEBA5" height="36.3441" rx="2.5" ry="2.5" style="stroke:#181818;stroke-width:0.5;" width="130" x="7" y="41.016"/><text fill="#000000" font-family="sans-serif" font-size="12" lengthAdjust="spacing" textLength="110" x="17" y="63.8441">:Sistema Disponible</text></g><!--entity SistemaDisponibleSalida--><g id="elem_SistemaDisponibleSalida"><rect fill="#CDEBA5" height="36.3441" rx="2.5" ry="2.5" style="stroke:#181818;stroke-width:0.5;" width="130" x="886" y="155.016"/><text fill="#000000" font-family="sans-serif" font-size="12" lengthAdjust="spacing" textLength="110" x="896" y="177.8441">:Sistema Disponible</text></g><!--entity CrearAlumno--><g id="elem_CrearAlumno"><rect fill="#CDEBA5" height="36.3441" rx="2.5" ry="2.5" style="stroke:#181818;stroke-width:0.5;" width="176" x="1051" y="155.016"/><text fill="#000000" font-family="sans-serif" font-size="12" lengthAdjust="spacing" textLength="156" x="1061" y="177.8441">:Collaboration CrearAlumno</text></g><!--entity EditarAlumno--><g id="elem_EditarAlumno"><rect fill="#CDEBA5" height="36.3441" rx="2.5" ry="2.5" style="stroke:#181818;stroke-width:0.5;" width="177" x="1261.5" y="155.016"/><text fill="#000000" font-family="sans-serif" font-size="12" lengthAdjust="spacing" textLength="157" x="1271.5" y="177.8441">:Collaboration EditarAlumno</text></g><!--entity EliminarAlumno--><g id="elem_EliminarAlumno"><rect fill="#CDEBA5" height="36.3441" rx="2.5" ry="2.5" style="stroke:#181818;stroke-width:0.5;" width="190" x="1474" y="155.016"/><text fill="#000000" font-family="sans-serif" font-size="12" lengthAdjust="spacing" textLength="170" x="1484" y="177.8441">:Collaboration EliminarAlumno</text></g><!--entity ImportarAlumnos--><g id="elem_ImportarAlumnos"><rect fill="#CDEBA5" height="36.3441" rx="2.5" ry="2.5" style="stroke:#181818;stroke-width:0.5;" width="200" x="1709" y="155.016"/><text fill="#000000" font-family="sans-serif" font-size="12" lengthAdjust="spacing" textLength="180" x="1719" y="177.8441">:Collaboration ImportarAlumnos</text></g><!--link SistemaDisponible to ListarAlumnosView--><g id="link_SistemaDisponible_ListarAlumnosView"><path d="M137.07,59.016 C274.4,59.016 586.28,59.016 721.88,59.016 " fill="none" id="SistemaDisponible-to-ListarAlumnosView" style="stroke:#181818;stroke-width:1.0;"/><polygon fill="#181818" points="727.88,59.016,718.88,55.016,722.88,59.016,718.88,63.016,727.88,59.016" style="stroke:#181818;stroke-width:1.0;"/><text fill="#000000" font-family="sans-serif" font-size="12" lengthAdjust="spacing" textLength="84" x="390.5" y="51.8441">abrirAlumnos()</text></g><!--link ListarAlumnosView to AlumnoController--><g id="link_ListarAlumnosView_AlumnoController"><path d="M727.75,65.426 C583.4,77.786 242,107.016 242,107.016 C242,107.016 242,125.016 242,125.016 C242,125.016 287.0724,139.6258 328.5324,153.0658 " fill="none" id="ListarAlumnosView-to-AlumnoController" style="stroke:#181818;stroke-width:1.0;"/><polygon fill="#181818" points="334.24,154.916,326.9121,148.3356,329.4837,153.3742,324.4451,155.9458,334.24,154.916" style="stroke:#181818;stroke-width:1.0;"/><text fill="#000000" font-family="sans-serif" font-size="12" lengthAdjust="spacing" textLength="258" x="243" y="120.8441">listarAlumnos(pagina) : PagedResult&lt;Alumno&gt;</text></g><!--link ListarAlumnosView to AlumnoController--><g id="link_ListarAlumnosView_AlumnoController"><path d="M727.97,72.056 C655.08,85.986 545,107.016 545,107.016 C545,107.016 506,125.016 506,125.016 C506,125.016 469.9003,139.2715 435.8803,152.7115 " fill="none" id="ListarAlumnosView-to-AlumnoController-1" style="stroke:#181818;stroke-width:1.0;"/><polygon fill="#181818" points="430.3,154.916,440.1402,155.3294,434.9503,153.0789,437.2008,147.889,430.3,154.916" style="stroke:#181818;stroke-width:1.0;"/><text fill="#000000" font-family="sans-serif" font-size="12" lengthAdjust="spacing" textLength="307" x="546" y="120.8441">filtrarAlumnos(criterio, pagina) : PagedResult&lt;Alumno&gt;</text></g><!--link AlumnoController to AlumnoRepository--><g id="link_AlumnoController_AlumnoRepository"><path d="M327.38,189.086 C272.98,202.826 201,221.016 201,221.016 C201,221.016 201,239.016 201,239.016 C201,239.016 260.4489,254.7138 311.9389,268.3138 " fill="none" id="AlumnoController-to-AlumnoRepository" style="stroke:#181818;stroke-width:1.0;"/><polygon fill="#181818" points="317.74,269.846,310.0599,263.6803,312.9058,268.5692,308.0169,271.4151,317.74,269.846" style="stroke:#181818;stroke-width:1.0;"/><text fill="#000000" font-family="sans-serif" font-size="12" lengthAdjust="spacing" textLength="283" x="202" y="234.8441">obtenerPaginados(pagina) : PagedResult&lt;Alumno&gt;</text></g><!--link AlumnoController to AlumnoRepository--><g id="link_AlumnoController_AlumnoRepository"><path d="M424.48,191.116 C453.93,204.556 490,221.016 490,221.016 C490,221.016 490,239.016 490,239.016 C490,239.016 456.6551,253.1365 424.9151,266.5765 " fill="none" id="AlumnoController-to-AlumnoRepository-1" style="stroke:#181818;stroke-width:1.0;"/><polygon fill="#181818" points="419.39,268.916,429.2373,269.0901,423.9942,266.9664,426.1179,261.7233,419.39,268.916" style="stroke:#181818;stroke-width:1.0;"/><text fill="#000000" font-family="sans-serif" font-size="12" lengthAdjust="spacing" textLength="323" x="491" y="234.8441">buscarPaginados(criterio, pagina) : PagedResult&lt;Alumno&gt;</text></g><!--link AlumnoRepository to Alumno--><g id="link_AlumnoRepository_Alumno"><path d="M379,305.436 C379,322.586 379,348.596 379,365.706 " fill="none" id="AlumnoRepository-Alumno" style="stroke:#181818;stroke-width:1.0;"/></g><!--link Alumno to Grado--><g id="link_Alumno_Grado"><path d="M379,402.436 C379,419.586 379,445.596 379,462.706 " fill="none" id="Alumno-Grado" style="stroke:#181818;stroke-width:1.0;"/></g><!--link ListarAlumnosView to SistemaDisponibleSalida--><g id="link_ListarAlumnosView_SistemaDisponibleSalida"><path d="M817.03,77.246 C837.3,90.666 862,107.016 862,107.016 C862,107.016 896.4047,132.1372 922.7747,151.3972 " fill="none" id="ListarAlumnosView-to-SistemaDisponibleSalida" style="stroke:#181818;stroke-width:1.0;stroke-dasharray:7.0,7.0;"/><polygon fill="#181818" points="927.62,154.936,922.7114,146.3976,923.5823,151.987,917.9929,152.8579,927.62,154.936" style="stroke:#181818;stroke-width:1.0;"/><text fill="#000000" font-family="sans-serif" font-size="12" lengthAdjust="spacing" textLength="168" x="886" y="120.8441">&#171;finalizar&#187; completarGestion()</text></g><!--link ListarAlumnosView to CrearAlumno--><g id="link_ListarAlumnosView_CrearAlumno"><path d="M854.09,70.916 C934.44,84.806 1063,107.016 1063,107.016 C1063,107.016 1091.9502,131.7763 1114.4702,151.0363 " fill="none" id="ListarAlumnosView-to-CrearAlumno" style="stroke:#181818;stroke-width:1.0;stroke-dasharray:7.0,7.0;"/><polygon fill="#181818" points="1119.03,154.936,1114.7901,146.0465,1115.2301,151.6862,1109.5904,152.1263,1119.03,154.936" style="stroke:#181818;stroke-width:1.0;"/><text fill="#000000" font-family="sans-serif" font-size="12" lengthAdjust="spacing" textLength="126" x="1084" y="120.8441">&#171;crear&#187; crearAlumno()</text></g><!--link ListarAlumnosView to EditarAlumno--><g id="link_ListarAlumnosView_EditarAlumno"><path d="M854.15,66.956 C973.21,80.026 1219,107.016 1219,107.016 C1219,107.016 1271.3954,133.0088 1310.2054,152.2688 " fill="none" id="ListarAlumnosView-to-EditarAlumno" style="stroke:#181818;stroke-width:1.0;stroke-dasharray:7.0,7.0;"/><polygon fill="#181818" points="1315.58,154.936,1309.2963,147.3522,1311.1012,152.7134,1305.74,154.5183,1315.58,154.936" style="stroke:#181818;stroke-width:1.0;"/><text fill="#000000" font-family="sans-serif" font-size="12" lengthAdjust="spacing" textLength="174" x="1255" y="120.8441">&#171;editar&#187; editarAlumno(alumno)</text></g><!--link ListarAlumnosView to EliminarAlumno--><g id="link_ListarAlumnosView_EliminarAlumno"><path d="M854.22,64.606 C1017.02,76.436 1438,107.016 1438,107.016 C1438,107.016 1490.3954,133.0088 1529.2054,152.2688 " fill="none" id="ListarAlumnosView-to-EliminarAlumno" style="stroke:#181818;stroke-width:1.0;stroke-dasharray:7.0,7.0;"/><polygon fill="#181818" points="1534.58,154.936,1528.2963,147.3522,1530.1012,152.7134,1524.74,154.5183,1534.58,154.936" style="stroke:#181818;stroke-width:1.0;"/><text fill="#000000" font-family="sans-serif" font-size="12" lengthAdjust="spacing" textLength="200" x="1474" y="120.8441">&#171;eliminar&#187; eliminarAlumno(alumno)</text></g><!--link ListarAlumnosView to ImportarAlumnos--><g id="link_ListarAlumnosView_ImportarAlumnos"><path d="M854.08,63.336 C1057.49,74.056 1683,107.016 1683,107.016 C1683,107.016 1733.2279,132.925 1770.5579,152.185 " fill="none" id="ListarAlumnosView-to-ImportarAlumnos" style="stroke:#181818;stroke-width:1.0;stroke-dasharray:7.0,7.0;"/><polygon fill="#181818" points="1775.89,154.936,1769.7258,147.2547,1771.4466,152.6435,1766.0578,154.3642,1775.89,154.936" style="stroke:#181818;stroke-width:1.0;"/><text fill="#000000" font-family="sans-serif" font-size="12" lengthAdjust="spacing" textLength="170" x="1717" y="120.8441">&#171;importar&#187; importarAlumnos()</text></g><!--SRC=[hPHHQzim4CVVzIcEx2M5kR2mbjK4G-OaPR27qi3UPVlY7fKb8oc4TEoxJxAJMNQIrR3bnUX_z_z99zt5l9AikUOLP3n_BRNQoI9LGcdOlv15Plx4pGilr9va2LikJ1XPufRlX5qhQLjh9XphSiA6tX0-pOAW88dsK2FKIXpyWZ6DkUMo50WVqkNgw-8E9l66ZCMAmv9ChIHb0YV03HpbJcMiTflp4e5dclH2x2gfZ4-TXCBqPW8_6RXViDdzx66rVe3lZibFYJy8zyEyx2uhxhz0cv6wghGI0lKmRJrRf9zNnxHdh9KXg_JXhsbNWe_QNJxxzMzNi-622duHuTvDy4nfRab9I3MUwcz8mNg4UrMGxTb3OOnVK4MoJ-X98nZVgbhfxX4Ro41ZxEo28D9HSlxyCVGxXx6p58WAvnmsHEoQEqYSrhnqLTn034-kGOjdD6ugvcqqOKDtoEow9mQLMPIednfOyIvs_66t9ApkJfjhzmUWINs4_tFkR6To7XnxB9yDKH15fsbfFrve9-H2iRUtoRLHY64-txgT1RrndIIGgweMwFoFQ7mRkQU-p0i6mZDol_J-Jhvg3OV1Ux5PEpC6WIblFbSPlN5eA4V5Sth1TqY3cV0eEaeEHVseg-at]--></g></svg>