<?xml version="1.0" encoding="us-ascii" standalone="no"?><svg xmlns="http://www.w3.org/2000/svg" xmlns:xlink="http://www.w3.org/1999/xlink" contentStyleType="text/css" height="342px" preserveAspectRatio="none" style="width:1554px;height:342px;background:#FFFFFF;" version="1.1" viewBox="0 0 1554 342" width="1554px" zoomAndPan="magnify"><defs/><g><!--cluster editarExamen--><g id="cluster_editarExamen"><path d="M171,6.602 L278,6.602 A3.75,3.75 0 0 1 280.5,9.102 L287.5,31.6699 L1366,31.6699 A2.5,2.5 0 0 1 1368.5,34.1699 L1368.5,333.102 A2.5,2.5 0 0 1 1366,335.602 L171,335.602 A2.5,2.5 0 0 1 168.5,333.102 L168.5,9.102 A2.5,2.5 0 0 1 171,6.602 " fill="none" style="stroke:#000000;stroke-width:1.5;"/><line style="stroke:#000000;stroke-width:1.5;" x1="168.5" x2="287.5" y1="31.6699" y2="31.6699"/><text fill="#000000" font-family="sans-serif" font-size="14" font-weight="bold" lengthAdjust="spacing" textLength="106" x="172.5" y="23.5679">editarExamen()</text></g><!--entity EditarExamenView--><g id="elem_EditarExamenView"><rect fill="#629EF9" height="39.0679" rx="2.5" ry="2.5" style="stroke:#181818;stroke-width:0.5;" width="144" x="694.5" y="44.602"/><text fill="#000000" font-family="sans-serif" font-size="14" lengthAdjust="spacing" textLength="124" x="704.5" y="69.5679">EditarExamenView</text></g><!--entity ExamenController--><g id="elem_ExamenController"><rect fill="#B5BD68" height="39.0679" rx="2.5" ry="2.5" style="stroke:#181818;stroke-width:0.5;" width="140" x="562.5" y="162.602"/><text fill="#000000" font-family="sans-serif" font-size="14" lengthAdjust="spacing" textLength="120" x="572.5" y="187.5679">ExamenController</text></g><!--entity ExamenRepository--><g id="elem_ExamenRepository"><rect fill="#F2AC4E" height="39.0679" rx="2.5" ry="2.5" style="stroke:#181818;stroke-width:0.5;" width="144" x="352.5" y="280.602"/><text fill="#000000" font-family="sans-serif" font-size="14" lengthAdjust="spacing" textLength="124" x="362.5" y="305.5679">ExamenRepository</text></g><!--entity AsignaturaRepository--><g id="elem_AsignaturaRepository"><rect fill="#F2AC4E" height="39.0679" rx="2.5" ry="2.5" style="stroke:#181818;stroke-width:0.5;" width="165" x="628" y="280.602"/><text fill="#000000" font-family="sans-serif" font-size="14" lengthAdjust="spacing" textLength="145" x="638" y="305.5679">AsignaturaRepository</text></g><!--entity AulaRepository--><g id="elem_AulaRepository"><rect fill="#F2AC4E" height="39.0679" rx="2.5" ry="2.5" style="stroke:#181818;stroke-width:0.5;" width="121" x="1054" y="280.602"/><text fill="#000000" font-family="sans-serif" font-size="14" lengthAdjust="spacing" textLength="101" x="1064" y="305.5679">AulaRepository</text></g><!--entity Examen--><g id="elem_Examen"><rect fill="#F2AC4E" height="39.0679" rx="2.5" ry="2.5" style="stroke:#181818;stroke-width:0.5;" width="73" x="796" y="162.602"/><text fill="#000000" font-family="sans-serif" font-size="14" lengthAdjust="spacing" textLength="53" x="806" y="187.5679">Examen</text></g><!--entity ExamenesAbierto--><g id="elem_ExamenesAbierto"><rect fill="#CDEBA5" height="39.0679" rx="2.5" ry="2.5" style="stroke:#181818;stroke-width:0.5;" width="145" x="7" y="44.602"/><text fill="#000000" font-family="sans-serif" font-size="14" lengthAdjust="spacing" textLength="125" x="17" y="69.5679">:Ex&#225;menes Abierto</text></g><!--entity ExamenesAbiertoSalida--><g id="elem_ExamenesAbiertoSalida"><rect fill="#CDEBA5" height="39.0679" rx="2.5" ry="2.5" style="stroke:#181818;stroke-width:0.5;" width="145" x="1403" y="162.602"/><text fill="#000000" font-family="sans-serif" font-size="14" lengthAdjust="spacing" textLength="125" x="1413" y="187.5679">:Ex&#225;menes Abierto</text></g><!--link ExamenesAbierto to EditarExamenView--><g id="link_ExamenesAbierto_EditarExamenView"><path d="M152.05,64.102 C284.15,64.102 556.45,64.102 688.3,64.102 " fill="none" id="ExamenesAbierto-to-EditarExamenView" style="stroke:#181818;stroke-width:1.0;"/><polygon fill="#181818" points="694.3,64.102,685.3,60.102,689.3,64.102,685.3,68.102,694.3,64.102" style="stroke:#181818;stroke-width:1.0;"/><text fill="#000000" font-family="sans-serif" font-size="13" lengthAdjust="spacing" textLength="139" x="353.75" y="56.999">editarExamen(examen)</text></g><!--link EditarExamenView to ExamenController--><g id="link_EditarExamenView_ExamenController"><path d="M694.31,71.472 C545.1,84.622 216.5,113.602 216.5,113.602 C216.5,113.602 216.5,132.602 216.5,132.602 C216.5,132.602 437.8804,158.4173 556.4404,172.2373 " fill="none" id="EditarExamenView-to-ExamenController" style="stroke:#181818;stroke-width:1.0;"/><polygon fill="#181818" points="562.4,172.932,553.9237,167.9168,557.4336,172.3531,552.9974,175.863,562.4,172.932" style="stroke:#181818;stroke-width:1.0;"/><text fill="#000000" font-family="sans-serif" font-size="13" lengthAdjust="spacing" textLength="371" x="217.5" y="128.499">buscarAsignaturas(criterio, pagina) : PagedResult&lt;Asignatura&gt;</text></g><!--link EditarExamenView to ExamenController--><g id="link_EditarExamenView_ExamenController"><path d="M713.92,83.712 C675.29,97.392 629.5,113.602 629.5,113.602 C629.5,113.602 629.5,132.602 629.5,132.602 C629.5,132.602 630.1279,142.8235 630.9779,156.5035 " fill="none" id="EditarExamenView-to-ExamenController-1" style="stroke:#181818;stroke-width:1.0;"/><polygon fill="#181818" points="631.35,162.492,634.7842,153.2612,631.0399,157.5016,626.7996,153.7574,631.35,162.492" style="stroke:#181818;stroke-width:1.0;"/><text fill="#000000" font-family="sans-serif" font-size="13" lengthAdjust="spacing" textLength="227" x="630.5" y="128.499">obtenerAulasDisponibles() : List&lt;Aula&gt;</text></g><!--link EditarExamenView to ExamenController--><g id="link_EditarExamenView_ExamenController"><path d="M803.34,83.712 C830.41,97.392 862.5,113.602 862.5,113.602 C862.5,113.602 862.5,132.602 862.5,132.602 C862.5,132.602 776.2709,150.7843 708.6309,165.0443 " fill="none" id="EditarExamenView-to-ExamenController-2" style="stroke:#181818;stroke-width:1.0;"/><polygon fill="#181818" points="702.76,166.282,712.3916,168.3394,707.6525,165.2505,710.7413,160.5114,702.76,166.282" style="stroke:#181818;stroke-width:1.0;"/><text fill="#000000" font-family="sans-serif" font-size="13" lengthAdjust="spacing" textLength="449" x="863.5" y="128.499">actualizar(examen, codigo, fecha, duracion, id_asignatura, id_aula) : Examen</text></g><!--link ExamenController to AsignaturaRepository--><g id="link_ExamenController_AsignaturaRepository"><path d="M647.47,201.712 C658.47,215.392 671.5,231.602 671.5,231.602 C671.5,231.602 685.0991,255.1263 696.6391,275.1063 " fill="none" id="ExamenController-to-AsignaturaRepository" style="stroke:#181818;stroke-width:1.0;"/><polygon fill="#181818" points="699.64,280.302,698.6024,270.5079,697.1393,275.9723,691.6749,274.5091,699.64,280.302" style="stroke:#181818;stroke-width:1.0;"/><text fill="#000000" font-family="sans-serif" font-size="13" lengthAdjust="spacing" textLength="362" x="682.5" y="246.499">buscarPaginadas(criterio, pagina) : PagedResult&lt;Asignatura&gt;</text></g><!--link ExamenController to AulaRepository--><g id="link_ExamenController_AulaRepository"><path d="M702.51,191.972 C739.98,196.722 778.5,201.602 778.5,201.602 C778.5,201.602 1053.5,231.602 1053.5,231.602 C1053.5,231.602 1075.4378,255.8698 1093.4878,275.8498 " fill="none" id="ExamenController-to-AulaRepository" style="stroke:#181818;stroke-width:1.0;"/><polygon fill="#181818" points="1097.51,280.302,1094.4449,270.9422,1094.1582,276.5918,1088.5086,276.3051,1097.51,280.302" style="stroke:#181818;stroke-width:1.0;"/><text fill="#000000" font-family="sans-serif" font-size="13" lengthAdjust="spacing" textLength="143" x="1070.5" y="246.499">listarTodas() : List&lt;Aula&gt;</text></g><!--link ExamenController to ExamenRepository--><g id="link_ExamenController_ExamenRepository"><path d="M562.45,194.172 C471.84,208.482 325.5,231.602 325.5,231.602 C325.5,231.602 325.5,250.602 325.5,250.602 C325.5,250.602 353.202,264.172 381.122,277.852 " fill="none" id="ExamenController-to-ExamenRepository" style="stroke:#181818;stroke-width:1.0;"/><polygon fill="#181818" points="386.51,280.492,380.188,272.94,382.02,278.292,376.668,280.124,386.51,280.492" style="stroke:#181818;stroke-width:1.0;"/><text fill="#000000" font-family="sans-serif" font-size="13" lengthAdjust="spacing" textLength="185" x="326.5" y="246.499">existeCodigo(codigo) : Boolean</text></g><!--link ExamenController to ExamenRepository--><g id="link_ExamenController_ExamenRepository"><path d="M600.26,201.712 C576.58,215.392 548.5,231.602 548.5,231.602 C548.5,231.602 516.5,250.602 516.5,250.602 C516.5,250.602 491.0572,264.0131 465.1172,277.6931 " fill="none" id="ExamenController-to-ExamenRepository-1" style="stroke:#181818;stroke-width:1.0;"/><polygon fill="#181818" points="459.81,280.492,469.6367,279.8318,464.2327,278.1596,465.9049,272.7556,459.81,280.492" style="stroke:#181818;stroke-width:1.0;"/><text fill="#000000" font-family="sans-serif" font-size="13" lengthAdjust="spacing" textLength="113" x="549.5" y="246.499">actualizar(examen)</text></g><!--link ExamenController to Examen--><g id="link_ExamenController_Examen"><path d="M702.73,182.102 C734.13,182.102 763.85,182.102 789.85,182.102 " fill="none" id="ExamenController-to-Examen" style="stroke:#181818;stroke-width:1.0;"/><polygon fill="#181818" points="795.85,182.102,786.85,178.102,790.85,182.102,786.85,186.102,795.85,182.102" style="stroke:#181818;stroke-width:1.0;"/><text fill="#000000" font-family="sans-serif" font-size="13" lengthAdjust="spacing" textLength="57" x="720.75" y="174.999">&#171;update&#187;</text></g><!--link EditarExamenView to ExamenesAbiertoSalida--><g id="link_EditarExamenView_ExamenesAbiertoSalida"><path d="M838.77,71.422 C989.08,84.552 1321.5,113.602 1321.5,113.602 C1321.5,113.602 1381.9348,140.0931 1427.5148,160.0731 " fill="none" id="EditarExamenView-to-ExamenesAbiertoSalida" style="stroke:#181818;stroke-width:1.0;stroke-dasharray:7.0,7.0;"/><polygon fill="#181818" points="1433.01,162.482,1426.373,155.2052,1428.4306,160.4746,1423.1613,162.5322,1433.01,162.482" style="stroke:#181818;stroke-width:1.0;"/><text fill="#000000" font-family="sans-serif" font-size="13" lengthAdjust="spacing" textLength="60" x="1363.5" y="128.499">&#171;finalizar&#187;</text></g><!--link EditarExamenView to ExamenesAbiertoSalida--><g id="link_EditarExamenView_ExamenesAbiertoSalida"><path d="M838.72,70.362 C1011.14,82.922 1432.5,113.602 1432.5,113.602 C1432.5,113.602 1447.5778,137.2606 1460.2978,157.2406 " fill="none" id="EditarExamenView-to-ExamenesAbiertoSalida-1" style="stroke:#181818;stroke-width:1.0;stroke-dasharray:7.0,7.0;"/><polygon fill="#181818" points="1463.52,162.302,1462.0609,152.5618,1460.8348,158.0842,1455.3124,156.8581,1463.52,162.302" style="stroke:#181818;stroke-width:1.0;"/><text fill="#000000" font-family="sans-serif" font-size="13" lengthAdjust="spacing" textLength="63" x="1444.5" y="128.499">&#171;cancelar&#187;</text></g><!--SRC=[fLF1Rjim3BthAuZiuW193yLQh4PW84tTqmv5E-mwq1Bh4LKbGvAnP4K_fj-o7vjaUstg9cYA-IA8UdoFVAJz7Pi67Tw3PaDXqn0qLc_IHGX7Cg2fDS6drKLvlZo1ILwk_ppTao4Fouh91Ji1z52kiGiECI4Qb7TO4v3YWAv_Ji39TY2RJk11GFosb4wFpyhBCoYtSD-PVerXrKcbJhyCmYjhWhDQanl3Be-Ngy_b0BkcndeErctsm9QUQuEXTVW-jDNlWtfPyVWVLjwWPeL2ZC8mT_FYZKdvAxypwevfJ1xXOAvIziYx7AhMItGlBlXCEWxasCwWmPeDJY67gpXOTKs-rM7nWYt4cAzNsUNfFwMhZbDzKEVWTcmLecKkZSfVi6-iuKgJpnBvL_QHDRxihVlLWFFuV_We-iscQaS41nU4ChHndh_H3REPWRIAwzZsBScVE0CLEvHiumEh7_ZST7-DOabvsAezTOzNFUx4EfPAgquew_KIpRcrcj3ie77FD3ai5csZC51H7AptfijT6tXqLEnUzIHv6pUW8qYg7ygKQ2JfBl4l]--></g></svg>