<?xml version="1.0" encoding="us-ascii" standalone="no"?><svg xmlns="http://www.w3.org/2000/svg" xmlns:xlink="http://www.w3.org/1999/xlink" contentStyleType="text/css" height="328px" preserveAspectRatio="none" style="width:1837px;height:328px;background:#FFFFFF;" version="1.1" viewBox="0 0 1837 328" width="1837px" zoomAndPan="magnify"><defs/><g><!--cluster editarExamen--><g id="cluster_editarExamen"><path d="M8.5,6.016 L101.5,6.016 A3.75,3.75 0 0 1 104,8.516 L111,28.3601 L1144.5,28.3601 A2.5,2.5 0 0 1 1147,30.8601 L1147,318.516 A2.5,2.5 0 0 1 1144.5,321.016 L8.5,321.016 A2.5,2.5 0 0 1 6,318.516 L6,8.516 A2.5,2.5 0 0 1 8.5,6.016 " fill="none" style="stroke:#000000;stroke-width:1.5;"/><line style="stroke:#000000;stroke-width:1.5;" x1="6" x2="111" y1="28.3601" y2="28.3601"/><text fill="#000000" font-family="sans-serif" font-size="12" font-weight="bold" lengthAdjust="spacing" textLength="92" x="10" y="20.8441">editarExamen()</text></g><!--entity EditarExamenView--><g id="elem_EditarExamenView"><rect fill="#629EF9" height="36.3441" rx="2.5" ry="2.5" style="stroke:#181818;stroke-width:0.5;" width="124" x="1007" y="41.016"/><text fill="#000000" font-family="sans-serif" font-size="12" lengthAdjust="spacing" textLength="104" x="1017" y="63.8441">EditarExamenView</text></g><!--entity ExamenController--><g id="elem_ExamenController"><rect fill="#B5BD68" height="36.3441" rx="2.5" ry="2.5" style="stroke:#181818;stroke-width:0.5;" width="121" x="388.5" y="155.016"/><text fill="#000000" font-family="sans-serif" font-size="12" lengthAdjust="spacing" textLength="101" x="398.5" y="177.8441">ExamenController</text></g><!--entity ExamenRepository--><g id="elem_ExamenRepository"><rect fill="#F2AC4E" height="36.3441" rx="2.5" ry="2.5" style="stroke:#181818;stroke-width:0.5;" width="124" x="197" y="269.016"/><text fill="#000000" font-family="sans-serif" font-size="12" lengthAdjust="spacing" textLength="104" x="207" y="291.8441">ExamenRepository</text></g><!--entity AsignaturaRepository--><g id="elem_AsignaturaRepository"><rect fill="#F2AC4E" height="36.3441" rx="2.5" ry="2.5" style="stroke:#181818;stroke-width:0.5;" width="140" x="454" y="269.016"/><text fill="#000000" font-family="sans-serif" font-size="12" lengthAdjust="spacing" textLength="120" x="464" y="291.8441">AsignaturaRepository</text></g><!--entity AulaRepository--><g id="elem_AulaRepository"><rect fill="#F2AC4E" height="36.3441" rx="2.5" ry="2.5" style="stroke:#181818;stroke-width:0.5;" width="104" x="855" y="269.016"/><text fill="#000000" font-family="sans-serif" font-size="12" lengthAdjust="spacing" textLength="84" x="865" y="291.8441">AulaRepository</text></g><!--entity Examen--><g id="elem_Examen"><rect fill="#F2AC4E" height="36.3441" rx="2.5" ry="2.5" style="stroke:#181818;stroke-width:0.5;" width="65" x="597.5" y="155.016"/><text fill="#000000" font-family="sans-serif" font-size="12" lengthAdjust="spacing" textLength="45" x="607.5" y="177.8441">Examen</text></g><!--entity ExamenesAbierto--><g id="elem_ExamenesAbierto"><rect fill="#CDEBA5" height="36.3441" rx="2.5" ry="2.5" style="stroke:#181818;stroke-width:0.5;" width="125" x="1281.5" y="155.016"/><text fill="#000000" font-family="sans-serif" font-size="12" lengthAdjust="spacing" textLength="105" x="1291.5" y="177.8441">:Ex&#225;menes Abierto</text></g><!--entity ExamenAbierto--><g id="elem_ExamenAbierto"><rect fill="#CDEBA5" height="36.3441" rx="2.5" ry="2.5" style="stroke:#181818;stroke-width:0.5;" width="112" x="1585" y="155.016"/><text fill="#000000" font-family="sans-serif" font-size="12" lengthAdjust="spacing" textLength="92" x="1595" y="177.8441">:Examen Abierto</text></g><!--link ExamenesAbierto to EditarExamenView--><g id="link_ExamenesAbierto_EditarExamenView"><path d="M1281.45,155.316 C1230.87,141.806 1168,125.016 1168,125.016 C1168,125.016 1129.3553,99.6494 1100.0253,80.3894 " fill="none" id="ExamenesAbierto-to-EditarExamenView" style="stroke:#181818;stroke-width:1.0;"/><polygon fill="#181818" points="1095.01,77.096,1100.3374,85.3797,1099.1894,79.8405,1104.7286,78.6926,1095.01,77.096" style="stroke:#181818;stroke-width:1.0;"/><text fill="#000000" font-family="sans-serif" font-size="12" lengthAdjust="spacing" textLength="131" x="1169" y="120.8441">editarExamen(examen)</text></g><!--link EditarExamenView to ExamenesAbierto--><g id="link_EditarExamenView_ExamenesAbierto"><path d="M1131.01,72.366 C1200.93,86.286 1305,107.016 1305,107.016 C1305,107.016 1319.1142,130.5304 1330.6642,149.7904 " fill="none" id="EditarExamenView-to-ExamenesAbierto" style="stroke:#181818;stroke-width:1.0;stroke-dasharray:7.0,7.0;"/><polygon fill="#181818" points="1333.75,154.936,1332.5517,145.1603,1331.1785,150.648,1325.6909,149.2747,1333.75,154.936" style="stroke:#181818;stroke-width:1.0;"/><text fill="#000000" font-family="sans-serif" font-size="12" lengthAdjust="spacing" textLength="153" x="1317" y="120.8441">&#171;finalizar&#187; abrirExamenes()</text></g><!--link EditarExamenView to ExamenesAbierto--><g id="link_EditarExamenView_ExamenesAbierto"><path d="M1131.27,67.156 C1245.97,80.306 1479,107.016 1479,107.016 C1479,107.016 1479,125.016 1479,125.016 C1479,125.016 1437.3863,139.5031 1398.7863,152.9431 " fill="none" id="EditarExamenView-to-ExamenesAbierto-1" style="stroke:#181818;stroke-width:1.0;stroke-dasharray:7.0,7.0;"/><polygon fill="#181818" points="1393.12,154.916,1402.9348,155.7342,1397.842,153.2719,1400.3042,148.179,1393.12,154.916" style="stroke:#181818;stroke-width:1.0;"/><text fill="#000000" font-family="sans-serif" font-size="12" lengthAdjust="spacing" textLength="60" x="1480" y="120.8441">&#171;cancelar&#187;</text></g><!--link EditarExamenView to ExamenController--><g id="link_EditarExamenView_ExamenController"><path d="M1006.65,62.906 C785.82,73.126 54,107.016 54,107.016 C54,107.016 54,125.016 54,125.016 C54,125.016 271.392,150.8873 382.192,164.0673 " fill="none" id="EditarExamenView-to-ExamenController" style="stroke:#181818;stroke-width:1.0;"/><polygon fill="#181818" points="388.15,164.776,379.6855,159.7409,383.185,164.1854,378.7405,167.6849,388.15,164.776" style="stroke:#181818;stroke-width:1.0;"/><text fill="#000000" font-family="sans-serif" font-size="12" lengthAdjust="spacing" textLength="350" x="55" y="120.8441">buscarAsignaturas(criterio, pagina) : PagedResult&lt;Asignatura&gt;</text></g><!--link EditarExamenView to ExamenController--><g id="link_EditarExamenView_ExamenController"><path d="M1006.99,64.696 C849.41,76.586 446,107.016 446,107.016 C446,107.016 446,125.016 446,125.016 C446,125.016 446.6563,135.3783 447.5163,148.7983 " fill="none" id="EditarExamenView-to-ExamenController-1" style="stroke:#181818;stroke-width:1.0;"/><polygon fill="#181818" points="447.9,154.786,451.3162,145.5486,447.5802,149.7963,443.3326,146.0603,447.9,154.786" style="stroke:#181818;stroke-width:1.0;"/><text fill="#000000" font-family="sans-serif" font-size="12" lengthAdjust="spacing" textLength="215" x="447" y="120.8441">obtenerAulasDisponibles() : List&lt;Aula&gt;</text></g><!--link EditarExamenView to ExamenController--><g id="link_EditarExamenView_ExamenController"><path d="M1006.7,68.146 C903.67,81.606 709,107.016 709,107.016 C709,107.016 667,125.016 667,125.016 C667,125.016 580.0952,143.7512 515.5952,157.6612 " fill="none" id="EditarExamenView-to-ExamenController-2" style="stroke:#181818;stroke-width:1.0;"/><polygon fill="#181818" points="509.73,158.926,519.371,160.9388,514.6176,157.872,517.6845,153.1186,509.73,158.926" style="stroke:#181818;stroke-width:1.0;"/><text fill="#000000" font-family="sans-serif" font-size="12" lengthAdjust="spacing" textLength="423" x="710" y="120.8441">actualizar(examen, codigo, fecha, duracion, id_asignatura, id_aula) : Examen</text></g><!--link ExamenController to AsignaturaRepository--><g id="link_ExamenController_AsignaturaRepository"><path d="M462.2,191.246 C472.48,204.666 485,221.016 485,221.016 C485,221.016 499.1142,244.5304 510.6642,263.7904 " fill="none" id="ExamenController-to-AsignaturaRepository" style="stroke:#181818;stroke-width:1.0;"/><polygon fill="#181818" points="513.75,268.936,512.5517,259.1603,511.1785,264.648,505.6909,263.2747,513.75,268.936" style="stroke:#181818;stroke-width:1.0;"/><text fill="#000000" font-family="sans-serif" font-size="12" lengthAdjust="spacing" textLength="341" x="497" y="234.8441">buscarPaginadas(criterio, pagina) : PagedResult&lt;Asignatura&gt;</text></g><!--link ExamenController to AulaRepository--><g id="link_ExamenController_AulaRepository"><path d="M509.52,181.866 C543.84,186.326 580,191.016 580,191.016 C580,191.016 847,221.016 847,221.016 C847,221.016 869.3901,245.2674 887.1701,264.5274 " fill="none" id="ExamenController-to-AulaRepository" style="stroke:#181818;stroke-width:1.0;"/><polygon fill="#181818" points="891.24,268.936,888.0743,259.6098,887.8484,265.2622,882.1961,265.0363,891.24,268.936" style="stroke:#181818;stroke-width:1.0;"/><text fill="#000000" font-family="sans-serif" font-size="12" lengthAdjust="spacing" textLength="137" x="865" y="234.8441">listarTodas() : List&lt;Aula&gt;</text></g><!--link ExamenController to ExamenRepository--><g id="link_ExamenController_ExamenRepository"><path d="M388.5,183.756 C302.97,197.526 157,221.016 157,221.016 C157,221.016 157,239.016 157,239.016 C157,239.016 187.2706,252.9652 216.4406,266.4052 " fill="none" id="ExamenController-to-ExamenRepository" style="stroke:#181818;stroke-width:1.0;"/><polygon fill="#181818" points="221.89,268.916,215.3898,261.5169,217.3488,266.8237,212.042,268.7828,221.89,268.916" style="stroke:#181818;stroke-width:1.0;"/><text fill="#000000" font-family="sans-serif" font-size="12" lengthAdjust="spacing" textLength="172" x="158" y="234.8441">existeCodigo(codigo) : Boolean</text></g><!--link ExamenController to ExamenRepository--><g id="link_ExamenController_ExamenRepository"><path d="M418.93,191.246 C395.53,204.666 367,221.016 367,221.016 C367,221.016 324.5103,246.5813 292.5203,265.8413 " fill="none" id="ExamenController-to-ExamenRepository-1" style="stroke:#181818;stroke-width:1.0;"/><polygon fill="#181818" points="287.38,268.936,297.1536,267.7207,291.6636,266.3571,293.0272,260.867,287.38,268.936" style="stroke:#181818;stroke-width:1.0;"/><text fill="#000000" font-family="sans-serif" font-size="12" lengthAdjust="spacing" textLength="108" x="368" y="234.8441">actualizar(examen)</text></g><!--link ExamenController to Examen--><g id="link_ExamenController_Examen"><path d="M509.52,173.016 C538.91,173.016 567.06,173.016 591.48,173.016 " fill="none" id="ExamenController-to-Examen" style="stroke:#181818;stroke-width:1.0;"/><polygon fill="#181818" points="597.48,173.016,588.48,169.016,592.48,173.016,588.48,177.016,597.48,173.016" style="stroke:#181818;stroke-width:1.0;"/><text fill="#000000" font-family="sans-serif" font-size="12" lengthAdjust="spacing" textLength="51" x="528" y="165.8441">&#171;update&#187;</text></g><!--link EditarExamenView to ExamenAbierto--><g id="link_EditarExamenView_ExamenAbierto"><path d="M1131.26,66.116 C1261.14,78.826 1549,107.016 1549,107.016 C1549,107.016 1584.6697,132.2138 1611.9297,151.4738 " fill="none" id="EditarExamenView-to-ExamenAbierto" style="stroke:#181818;stroke-width:1.0;stroke-dasharray:7.0,7.0;"/><polygon fill="#181818" points="1616.83,154.936,1611.7877,146.4758,1612.7464,152.0508,1607.1714,153.0096,1616.83,154.936" style="stroke:#181818;stroke-width:1.0;"/><text fill="#000000" font-family="sans-serif" font-size="12" lengthAdjust="spacing" textLength="45" x="1574" y="120.8441">&#171;editar&#187;</text></g><!--link ExamenAbierto to ExamenAbierto--><g id="link_ExamenAbierto_ExamenAbierto"><path d="M1697.43,162.516 C1716.6,162.466 1732,165.966 1732,173.016 C1732,180.066 1722.6,183.5817 1703.43,183.5317 " fill="none" id="ExamenAbierto-to-ExamenAbierto" style="stroke:#181818;stroke-width:1.0;"/><polygon fill="#181818" points="1697.43,183.516,1706.4195,187.5395,1702.43,183.5291,1706.4404,179.5395,1697.43,183.516" style="stroke:#181818;stroke-width:1.0;"/><text fill="#000000" font-family="sans-serif" font-size="12" lengthAdjust="spacing" textLength="86" x="1738" y="177.8441">editarExamen()</text></g><!--SRC=[bLHDZzem4BtdLupe1IHOgQYxwaOe4WlXrCDgM_LQJU8XMEkr8ziHi5L_J7zB_rWd7sH3W2xD9RBdpNipusUxPwbpjFW22QRFcJM55WkZZ8NjHdeAN1jt6nHcAtK6QrIk6rdI6WlbLqRxEZLHp7KUy5M-4doSTe9AQlBxd20tQbykWi1Iwb5dYk33OXa_p6zX4CQxFxzVI9E3UIB9UZC0T13liDfizYvabfWpQOUa8EToCICW8JtQ1i-mGNTZE1h0pm3uwuZSJU_ZrJt47TntITi-BBbDnDtdHdR1Ox16AR9zs6ewNtoA6zWJvSP9R-p-0cpkPARH5nRVXnRgVL0j6_mAWjvKOM8dqKcFuT6uXbJzHfpSmy54bDczraD82fUYVMl23LFBZhFIZ277J6eSGGYFV2xYYHpRP_Q6ZO8-NwroRYG7fSUAK_odpjNjcCJpo6mvQRUKBZTQ9ehSi2J_8XspSkHYtKVd4_ATS2pwpPJLzWYkBWXJNw2IhsYRinb3QeJCkEqrfHiSW-0EKsau8CKFR9kkbonMAZUck51ttwdiYHsNIejAQ5ZhbJGFnYX2VOR6jZGXp6P5Bj1J55sjTzBbEGVUt4J7LxwKgjtRIhLUdvnWZr-1V_AtTwPKMBEtgjAY232nqXumJ78jHuew9LNL-HS0]--></g></svg>