<?xml version="1.0" encoding="us-ascii" standalone="no"?><svg xmlns="http://www.w3.org/2000/svg" xmlns:xlink="http://www.w3.org/1999/xlink" contentStyleType="text/css" height="696px" preserveAspectRatio="none" style="width:734px;height:696px;background:#FFFFFF;" version="1.1" viewBox="0 0 734 696" width="734px" zoomAndPan="magnify"><defs/><g><path d="M19.5,7 L708.5,7 A12.5,12.5 0 0 1 721,19.5 L721,34.6094 L7,34.6094 L7,19.5 A12.5,12.5 0 0 1 19.5,7 " fill="#F1F1F1" style="stroke:#F1F1F1;stroke-width:1.0;"/><rect fill="none" height="536.6094" rx="12.5" ry="12.5" style="stroke:#181818;stroke-width:0.5;" width="714" x="7" y="7"/><line style="stroke:#181818;stroke-width:0.5;" x1="7" x2="721" y1="34.6094" y2="34.6094"/><text fill="#000000" font-family="sans-serif" font-size="14" lengthAdjust="spacing" textLength="74" x="327" y="26.5332">editarAula()</text><g id="editarAula.EditandoDatos"><rect fill="#F1F1F1" height="50" rx="12.5" ry="12.5" style="stroke:#181818;stroke-width:0.5;" width="50" x="184" y="137.6094"/><line style="stroke:#181818;stroke-width:0.5;" x1="184" x2="234" y1="165.2188" y2="165.2188"/><text fill="#000000" font-family="sans-serif" font-size="14" lengthAdjust="spacing" textLength="4" x="207" y="157.1426">&#160;</text></g><g id="editarAula.GuardandoDatos"><rect fill="#F1F1F1" height="50" rx="12.5" ry="12.5" style="stroke:#181818;stroke-width:0.5;" width="50" x="184" y="373.6094"/><line style="stroke:#181818;stroke-width:0.5;" x1="184" x2="234" y1="401.2188" y2="401.2188"/><text fill="#000000" font-family="sans-serif" font-size="14" lengthAdjust="spacing" textLength="4" x="207" y="393.1426">&#160;</text></g><ellipse cx="209" cy="55.6094" fill="#222222" rx="10" ry="10" style="stroke:#222222;stroke-width:1.0;"/><ellipse cx="209" cy="522.6094" fill="none" rx="11" ry="11" style="stroke:#222222;stroke-width:1.0;"/><ellipse cx="209" cy="522.6094" fill="#222222" rx="6" ry="6" style="stroke:#222222;stroke-width:1.0;"/><!--link *start*editarAula to EditandoDatos--><g id="link_*start*editarAula_EditandoDatos"><path d="M209,65.9294 C209,81.7894 209,108.5194 209,131.2494 " fill="none" id="*start*editarAula-to-EditandoDatos" style="stroke:#008000;stroke-width:1.0;"/><polygon fill="#008000" points="209,137.2494,213,128.2494,209,132.2494,205,128.2494,209,137.2494" style="stroke:#008000;stroke-width:1.0;"/><path d="M214,88.6094 L214,114.6094 L433,114.6094 L433,98.6094 L423,88.6094 L214,88.6094 " fill="#FEFFDD" style="stroke:#181818;stroke-width:0.5;"/><path d="M423,88.6094 L423,98.6094 L433,98.6094 L423,88.6094 " fill="#FEFFDD" style="stroke:#181818;stroke-width:0.5;"/><text fill="#000000" font-family="sans-serif" font-size="13" font-weight="bold" lengthAdjust="spacing" textLength="89" x="220" y="107.1045">Administrador</text><text fill="#000000" font-family="sans-serif" font-size="13" lengthAdjust="spacing" textLength="105" x="313" y="107.1045">solicita editar aula</text></g><!--link EditandoDatos to GuardandoDatos--><g id="link_EditandoDatos_GuardandoDatos"><path d="M183.74,171.7094 C145.67,183.9094 78,205.6094 78,205.6094 C78,205.6094 78,355.6094 78,355.6094 C78,355.6094 139.9562,375.4783 178.0262,387.6783 " fill="none" id="EditandoDatos-to-GuardandoDatos" style="stroke:#008000;stroke-width:1.0;"/><polygon fill="#008000" points="183.74,389.5094,176.39,382.9536,178.9785,387.9835,173.9486,390.572,183.74,389.5094" style="stroke:#008000;stroke-width:1.0;"/><path d="M83,210.6094 L83,350.6094 L315,350.6094 L315,220.6094 L305,210.6094 L83,210.6094 " fill="#FEFFDD" style="stroke:#181818;stroke-width:0.5;"/><path d="M305,210.6094 L305,220.6094 L315,220.6094 L305,210.6094 " fill="#FEFFDD" style="stroke:#181818;stroke-width:0.5;"/><text fill="#000000" font-family="sans-serif" font-size="13" font-weight="bold" lengthAdjust="spacing" textLength="51" x="89" y="229.1045">Sistema</text><text fill="#000000" font-family="sans-serif" font-size="13" lengthAdjust="spacing" textLength="149" x="144" y="229.1045">presenta datos de edici&#243;n</text><text fill="#000000" font-family="sans-serif" font-size="13" lengthAdjust="spacing" textLength="195" x="89" y="245.4561">&#8226; Permite introducir nuevo nombre</text><text fill="#000000" font-family="sans-serif" font-size="13" lengthAdjust="spacing" textLength="211" x="89" y="261.8076">&#8226; Permite introducir nueva capacidad</text><text fill="#000000" font-family="sans-serif" font-size="13" lengthAdjust="spacing" textLength="192" x="89" y="278.1592">&#8226; Permite introducir nuevo edificio</text><text fill="#000000" font-family="sans-serif" font-size="13" lengthAdjust="spacing" textLength="187" x="89" y="294.5107">&#8226; Permite introducir nueva planta</text><text fill="#000000" font-family="sans-serif" font-size="13" lengthAdjust="spacing" textLength="173" x="89" y="310.8623">&#8226; Permite introducir nuevo tipo</text><text fill="#000000" font-family="sans-serif" font-size="13" lengthAdjust="spacing" textLength="203" x="89" y="327.2139">&#8226; Permite solicitar guardar cambios</text><text fill="#000000" font-family="sans-serif" font-size="13" lengthAdjust="spacing" textLength="201" x="89" y="343.5654">&#8226; Permite solicitar cancelar edici&#243;n</text></g><!--link GuardandoDatos to EditandoDatos--><g id="link_GuardandoDatos_EditandoDatos"><path d="M234.19,388.0794 C266.94,375.6894 320,355.6094 320,355.6094 C320,355.6094 320,205.6094 320,205.6094 C320,205.6094 272.5518,187.6524 239.8018,175.2624 " fill="none" id="GuardandoDatos-to-EditandoDatos" style="stroke:#008000;stroke-width:1.0;"/><polygon fill="#008000" points="234.19,173.1394,241.1924,180.0652,238.8665,174.9086,244.0231,172.5828,234.19,173.1394" style="stroke:#008000;stroke-width:1.0;"/><path d="M325,259.6094 L325,301.6094 L589,301.6094 L589,269.6094 L579,259.6094 L325,259.6094 " fill="#FEFFDD" style="stroke:#181818;stroke-width:0.5;"/><path d="M579,259.6094 L579,269.6094 L589,269.6094 L579,259.6094 " fill="#FEFFDD" style="stroke:#181818;stroke-width:0.5;"/><text fill="#000000" font-family="sans-serif" font-size="13" font-weight="bold" lengthAdjust="spacing" textLength="89" x="331" y="278.1045">Administrador</text><text fill="#000000" font-family="sans-serif" font-size="13" lengthAdjust="spacing" textLength="147" x="424" y="278.1045">solicita modificar campos</text><text fill="#000000" font-family="sans-serif" font-size="13" font-weight="bold" lengthAdjust="spacing" textLength="51" x="331" y="294.4561">Sistema</text><text fill="#000000" font-family="sans-serif" font-size="13" lengthAdjust="spacing" textLength="188" x="386" y="294.4561">permite introducir nuevos valores</text></g><!--link GuardandoDatos to *end*editarAula--><g id="link_GuardandoDatos_*end*editarAula"><path d="M183.64,405.1894 C131.68,416.6094 18,441.6094 18,441.6094 C18,441.6094 18,493.6094 18,493.6094 C18,493.6094 151.8434,513.2295 192.2434,519.1495 " fill="none" id="GuardandoDatos-to-*end*editarAula" style="stroke:#008000;stroke-width:1.0;"/><polygon fill="#008000" points="198.18,520.0194,189.855,514.7568,193.2328,519.2944,188.6952,522.6722,198.18,520.0194" style="stroke:#008000;stroke-width:1.0;"/><path d="M23,446.6094 L23,488.6094 L375,488.6094 L375,456.6094 L365,446.6094 L23,446.6094 " fill="#FEFFDD" style="stroke:#181818;stroke-width:0.5;"/><path d="M365,446.6094 L365,456.6094 L375,456.6094 L365,446.6094 " fill="#FEFFDD" style="stroke:#181818;stroke-width:0.5;"/><text fill="#000000" font-family="sans-serif" font-size="13" font-weight="bold" lengthAdjust="spacing" textLength="89" x="29" y="465.1045">Administrador</text><text fill="#000000" font-family="sans-serif" font-size="13" lengthAdjust="spacing" textLength="127" x="122" y="465.1045">solicita guardar y salir</text><text fill="#000000" font-family="sans-serif" font-size="13" font-weight="bold" lengthAdjust="spacing" textLength="51" x="29" y="481.4561">Sistema</text><text fill="#000000" font-family="sans-serif" font-size="13" lengthAdjust="spacing" textLength="276" x="84" y="481.4561">visualiza y actualiza el aula en la base de datos</text></g><!--link GuardandoDatos to *end*editarAula--><g id="link_GuardandoDatos_*end*editarAula"><path d="M234.23,405.8094 C281.8,417.4894 380,441.6094 380,441.6094 C380,441.6094 380,493.6094 380,493.6094 C380,493.6094 263.0511,512.7597 225.6211,518.8897 " fill="none" id="GuardandoDatos-to-*end*editarAula-1" style="stroke:#FF0000;stroke-width:1.0;"/><polygon fill="#FF0000" points="219.7,519.8594,229.2282,522.3522,224.6343,519.0513,227.9352,514.4574,219.7,519.8594" style="stroke:#FF0000;stroke-width:1.0;"/><path d="M385,446.6094 L385,488.6094 L712,488.6094 L712,456.6094 L702,446.6094 L385,446.6094 " fill="#FEFFDD" style="stroke:#181818;stroke-width:0.5;"/><path d="M702,446.6094 L702,456.6094 L712,456.6094 L702,446.6094 " fill="#FEFFDD" style="stroke:#181818;stroke-width:0.5;"/><text fill="#000000" font-family="sans-serif" font-size="13" font-weight="bold" lengthAdjust="spacing" textLength="89" x="391" y="465.1045">Administrador</text><text fill="#000000" font-family="sans-serif" font-size="13" lengthAdjust="spacing" textLength="139" x="484" y="465.1045">solicita cancelar edici&#243;n</text><text fill="#000000" font-family="sans-serif" font-size="13" font-weight="bold" lengthAdjust="spacing" textLength="51" x="391" y="481.4561">Sistema</text><text fill="#000000" font-family="sans-serif" font-size="13" lengthAdjust="spacing" textLength="251" x="446" y="481.4561">visualiza y descarta los cambios realizados</text></g><g id="AULAS_ABIERTO"><rect fill="#F1F1F1" height="50" rx="12.5" ry="12.5" style="stroke:#181818;stroke-width:0.5;" width="132" x="298" y="640"/><line style="stroke:#181818;stroke-width:0.5;" x1="298" x2="430" y1="667.6094" y2="667.6094"/><text fill="#000000" font-family="sans-serif" font-size="14" lengthAdjust="spacing" textLength="112" x="308" y="659.5332">AULAS_ABIERTO</text></g><!--link editarAula to AULAS_ABIERTO--><g id="link_editarAula_AULAS_ABIERTO"><path d="M300.13,544.11 C295.74,562.54 293,574 293,574 C293,574 293,610 293,610 C293,610 308.5528,621.8398 327.4628,636.2098 " fill="none" id="editarAula-to-AULAS_ABIERTO" style="stroke:#008000;stroke-width:1.0;"/><polygon fill="#008000" points="332.24,639.84,327.4944,631.2099,328.259,636.8148,322.6541,637.5794,332.24,639.84" style="stroke:#008000;stroke-width:1.0;"/><path d="M298,579 L298,605 L385,605 L385,589 L375,579 L298,579 " fill="#FEFFDD" style="stroke:#181818;stroke-width:0.5;"/><path d="M375,579 L375,589 L385,589 L375,579 " fill="#FEFFDD" style="stroke:#181818;stroke-width:0.5;"/><text fill="#000000" font-family="sans-serif" font-size="13" lengthAdjust="spacing" textLength="66" x="304" y="597.4951">abrirAulas()</text></g><!--link editarAula to AULAS_ABIERTO--><g id="link_editarAula_AULAS_ABIERTO"><path d="M390.99,544.11 C392.84,562.54 394,574 394,574 C394,574 394,610 394,610 C394,610 388.3257,620.2261 380.3357,634.5961 " fill="none" id="editarAula-to-AULAS_ABIERTO-1" style="stroke:#FF0000;stroke-width:1.0;"/><polygon fill="#FF0000" points="377.42,639.84,385.2895,633.9179,379.8498,635.4701,378.2976,630.0303,377.42,639.84" style="stroke:#FF0000;stroke-width:1.0;"/><path d="M399,579 L399,605 L514,605 L514,589 L504,579 L399,579 " fill="#FEFFDD" style="stroke:#181818;stroke-width:0.5;"/><path d="M504,579 L504,589 L514,589 L504,579 " fill="#FEFFDD" style="stroke:#181818;stroke-width:0.5;"/><text fill="#000000" font-family="sans-serif" font-size="13" lengthAdjust="spacing" textLength="94" x="405" y="597.4951">cancelar edici&#243;n</text></g><!--SRC=[hLHTIiD047xVKmprnGh52qWXeeWWAFuybIAJx2XBDxjXTbEe8dWMh-0Hl8adSRAsjeaQL2Glcyn-F_FDa30phaB64gnn51SLGUNjedbHAaIC1AHDHCvgYu011klNxU40xbUt1l98-R2fEkqFCFhGBXtLo7fTKvETAOmcMxTCvAQZSGVgl22zQspDr5u-pdHfd0cHKNlUsyt74BmrXK2M1W75aYAdeO4grQ9h2NMCT9KkH8LAJ1eLKo0d6Zgnw9H6OLwUdNfzV88puj88shZ8NjU5ON0rpRrOA7EclZi81LPO68swdqe4RqJIzvDL5iLcFrCqLPjbbI33ROg4nLEP6ydawri5keAi73v2MCVT3lL_1blwrFkxhqgmtUbyqsc0ELele_kPFrd4txXQPRM0WDPmrzJSX5g-tw5Sm28kpsJJVWA914AEWPfbIblLQv99_y7Yvq7rcDGK9691MP5SBW0mfRBUjFUWrCQ_O3F1xEeakxZEzeyFpozFsqOnPvC0ONkuqMcRQDbb3qtFwhq1]--></g></svg>