<?xml version="1.0" encoding="us-ascii" standalone="no"?><svg xmlns="http://www.w3.org/2000/svg" xmlns:xlink="http://www.w3.org/1999/xlink" contentStyleType="text/css" height="328px" preserveAspectRatio="none" style="width:1070px;height:328px;background:#FFFFFF;" version="1.1" viewBox="0 0 1070 328" width="1070px" zoomAndPan="magnify"><defs/><g><!--cluster editarAsignatura--><g id="cluster_editarAsignatura"><path d="M159.5,6.016 L270.5,6.016 A3.75,3.75 0 0 1 273,8.516 L280,28.3601 L891.5,28.3601 A2.5,2.5 0 0 1 894,30.8601 L894,318.516 A2.5,2.5 0 0 1 891.5,321.016 L159.5,321.016 A2.5,2.5 0 0 1 157,318.516 L157,8.516 A2.5,2.5 0 0 1 159.5,6.016 " fill="none" style="stroke:#000000;stroke-width:1.5;"/><line style="stroke:#000000;stroke-width:1.5;" x1="157" x2="280" y1="28.3601" y2="28.3601"/><text fill="#000000" font-family="sans-serif" font-size="12" font-weight="bold" lengthAdjust="spacing" textLength="110" x="161" y="20.8441">editarAsignatura()</text></g><!--entity EditarAsignaturaView--><g id="elem_EditarAsignaturaView"><rect fill="#629EF9" height="36.3441" rx="2.5" ry="2.5" style="stroke:#181818;stroke-width:0.5;" width="140" x="415" y="41.016"/><text fill="#000000" font-family="sans-serif" font-size="12" lengthAdjust="spacing" textLength="120" x="425" y="63.8441">EditarAsignaturaView</text></g><!--entity AsignaturaController--><g id="elem_AsignaturaController"><rect fill="#B5BD68" height="36.3441" rx="2.5" ry="2.5" style="stroke:#181818;stroke-width:0.5;" width="137" x="400.5" y="155.016"/><text fill="#000000" font-family="sans-serif" font-size="12" lengthAdjust="spacing" textLength="117" x="410.5" y="177.8441">AsignaturaController</text></g><!--entity AsignaturaRepository--><g id="elem_AsignaturaRepository"><rect fill="#F2AC4E" height="36.3441" rx="2.5" ry="2.5" style="stroke:#181818;stroke-width:0.5;" width="140" x="278" y="269.016"/><text fill="#000000" font-family="sans-serif" font-size="12" lengthAdjust="spacing" textLength="120" x="288" y="291.8441">AsignaturaRepository</text></g><!--entity GradoRepository--><g id="elem_GradoRepository"><rect fill="#F2AC4E" height="36.3441" rx="2.5" ry="2.5" style="stroke:#181818;stroke-width:0.5;" width="114" x="561" y="269.016"/><text fill="#000000" font-family="sans-serif" font-size="12" lengthAdjust="spacing" textLength="94" x="571" y="291.8441">GradoRepository</text></g><!--entity Asignatura--><g id="elem_Asignatura"><rect fill="#F2AC4E" height="36.3441" rx="2.5" ry="2.5" style="stroke:#181818;stroke-width:0.5;" width="81" x="694.5" y="155.016"/><text fill="#000000" font-family="sans-serif" font-size="12" lengthAdjust="spacing" textLength="61" x="704.5" y="177.8441">Asignatura</text></g><!--entity Grado--><g id="elem_Grado"><rect fill="#F2AC4E" height="36.3441" rx="2.5" ry="2.5" style="stroke:#181818;stroke-width:0.5;" width="55" x="761.5" y="269.016"/><text fill="#000000" font-family="sans-serif" font-size="12" lengthAdjust="spacing" textLength="35" x="771.5" y="291.8441">Grado</text></g><!--entity AsignaturasAbierto--><g id="elem_AsignaturasAbierto"><rect fill="#CDEBA5" height="36.3441" rx="2.5" ry="2.5" style="stroke:#181818;stroke-width:0.5;" width="134" x="7" y="41.016"/><text fill="#000000" font-family="sans-serif" font-size="12" lengthAdjust="spacing" textLength="114" x="17" y="63.8441">:Asignaturas Abierta</text></g><!--entity AsignaturasAbiertoSalida--><g id="elem_AsignaturasAbiertoSalida"><rect fill="#CDEBA5" height="36.3441" rx="2.5" ry="2.5" style="stroke:#181818;stroke-width:0.5;" width="134" x="930" y="155.016"/><text fill="#000000" font-family="sans-serif" font-size="12" lengthAdjust="spacing" textLength="114" x="940" y="177.8441">:Asignaturas Abierta</text></g><!--link AsignaturasAbierto to EditarAsignaturaView--><g id="link_AsignaturasAbierto_EditarAsignaturaView"><path d="M141.41,59.016 C216.79,59.016 332.31,59.016 408.8,59.016 " fill="none" id="AsignaturasAbierto-to-EditarAsignaturaView" style="stroke:#181818;stroke-width:1.0;"/><polygon fill="#181818" points="414.8,59.016,405.8,55.016,409.8,59.016,405.8,63.016,414.8,59.016" style="stroke:#181818;stroke-width:1.0;"/><text fill="#000000" font-family="sans-serif" font-size="12" lengthAdjust="spacing" textLength="162" x="197" y="51.8441">editarAsignatura(asignatura)</text></g><!--link EditarAsignaturaView to AsignaturaController--><g id="link_EditarAsignaturaView_AsignaturaController"><path d="M414.71,71.816 C331.76,85.736 205,107.016 205,107.016 C205,107.016 205,125.016 205,125.016 C205,125.016 316.1928,144.8149 394.4228,158.7349 " fill="none" id="EditarAsignaturaView-to-AsignaturaController" style="stroke:#181818;stroke-width:1.0;"/><polygon fill="#181818" points="400.33,159.786,392.1699,154.2712,395.4073,158.9101,390.7684,162.1475,400.33,159.786" style="stroke:#181818;stroke-width:1.0;"/><text fill="#000000" font-family="sans-serif" font-size="12" lengthAdjust="spacing" textLength="235" x="206" y="120.8441">obtenerGradosDisponibles() : List&lt;Grado&gt;</text></g><!--link EditarAsignaturaView to AsignaturaController--><g id="link_EditarAsignaturaView_AsignaturaController"><path d="M482.57,77.026 C479.56,98.076 475.3189,127.7764 472.2989,148.9064 " fill="none" id="EditarAsignaturaView-to-AsignaturaController-1" style="stroke:#181818;stroke-width:1.0;"/><polygon fill="#181818" points="471.45,154.846,476.6831,146.5025,472.1574,149.8963,468.7636,145.3706,471.45,154.846" style="stroke:#181818;stroke-width:1.0;"/><text fill="#000000" font-family="sans-serif" font-size="12" lengthAdjust="spacing" textLength="391" x="478" y="120.8441">actualizar(asignatura, codigo, nombre, creditos, id_grado) : Asignatura</text></g><!--link AsignaturaController to GradoRepository--><g id="link_AsignaturaController_GradoRepository"><path d="M502.47,191.116 C528.78,204.556 561,221.016 561,221.016 C561,221.016 582.1853,245.1638 599.0653,264.4238 " fill="none" id="AsignaturaController-to-GradoRepository" style="stroke:#181818;stroke-width:1.0;"/><polygon fill="#181818" points="603.02,268.936,600.0962,259.5312,599.7244,265.1758,594.0798,264.8041,603.02,268.936" style="stroke:#181818;stroke-width:1.0;"/><text fill="#000000" font-family="sans-serif" font-size="12" lengthAdjust="spacing" textLength="163" x="577" y="234.8441">obtenerTodos() : List&lt;Grado&gt;</text></g><!--link AsignaturaController to AsignaturaRepository--><g id="link_AsignaturaController_AsignaturaRepository"><path d="M400.35,187.866 C331.62,201.726 236,221.016 236,221.016 C236,221.016 236,239.016 236,239.016 C236,239.016 269.6976,253.1539 301.7176,266.5939 " fill="none" id="AsignaturaController-to-AsignaturaRepository" style="stroke:#181818;stroke-width:1.0;"/><polygon fill="#181818" points="307.25,268.916,300.4995,261.7445,302.6397,266.9809,297.4033,269.1211,307.25,268.916" style="stroke:#181818;stroke-width:1.0;"/><text fill="#000000" font-family="sans-serif" font-size="12" lengthAdjust="spacing" textLength="172" x="237" y="234.8441">existeCodigo(codigo) : Boolean</text></g><!--link AsignaturaController to AsignaturaRepository--><g id="link_AsignaturaController_AsignaturaRepository"><path d="M454.55,191.096 C438.25,210.356 414,239.016 414,239.016 C414,239.016 395.927,251.885 377.087,265.305 " fill="none" id="AsignaturaController-to-AsignaturaRepository-1" style="stroke:#181818;stroke-width:1.0;"/><polygon fill="#181818" points="372.2,268.786,381.8511,266.8224,376.2725,265.8852,377.2097,260.3065,372.2,268.786" style="stroke:#181818;stroke-width:1.0;"/><text fill="#000000" font-family="sans-serif" font-size="12" lengthAdjust="spacing" textLength="123" x="429" y="234.8441">actualizar(asignatura)</text></g><!--link AsignaturaController to Asignatura--><g id="link_AsignaturaController_Asignatura"><path d="M537.5,173.016 C587.22,173.016 646.81,173.016 688.46,173.016 " fill="none" id="AsignaturaController-to-Asignatura" style="stroke:#181818;stroke-width:1.0;"/><polygon fill="#181818" points="694.46,173.016,685.46,169.016,689.46,173.016,685.46,177.016,694.46,173.016" style="stroke:#181818;stroke-width:1.0;"/><text fill="#000000" font-family="sans-serif" font-size="12" lengthAdjust="spacing" textLength="51" x="590.5" y="165.8441">&#171;update&#187;</text></g><!--link Asignatura to Grado--><g id="link_Asignatura_Grado"><path d="M752.97,191.246 C766.95,204.666 784,221.016 784,221.016 C784,221.016 786.2,249.676 787.69,268.936 " fill="none" id="Asignatura-Grado" style="stroke:#181818;stroke-width:1.0;"/></g><!--link EditarAsignaturaView to AsignaturasAbiertoSalida--><g id="link_EditarAsignaturaView_AsignaturasAbiertoSalida"><path d="M555.26,68.416 C668.3,81.936 878,107.016 878,107.016 C878,107.016 925.2147,132.7991 960.4647,152.0591 " fill="none" id="EditarAsignaturaView-to-AsignaturasAbiertoSalida" style="stroke:#181818;stroke-width:1.0;stroke-dasharray:7.0,7.0;"/><polygon fill="#181818" points="965.73,154.936,959.7499,147.1105,961.3422,152.5386,955.9141,154.1309,965.73,154.936" style="stroke:#181818;stroke-width:1.0;"/><text fill="#000000" font-family="sans-serif" font-size="12" lengthAdjust="spacing" textLength="57" x="910" y="120.8441">&#171;finalizar&#187;</text></g><!--link EditarAsignaturaView to AsignaturasAbiertoSalida--><g id="link_EditarAsignaturaView_AsignaturasAbiertoSalida"><path d="M555.09,66.726 C690.75,79.706 976,107.016 976,107.016 C976,107.016 983.4161,129.9664 989.6361,149.2264 " fill="none" id="EditarAsignaturaView-to-AsignaturasAbiertoSalida-1" style="stroke:#181818;stroke-width:1.0;stroke-dasharray:7.0,7.0;"/><polygon fill="#181818" points="991.48,154.936,992.5205,145.1423,989.9434,150.178,984.9077,147.6009,991.48,154.936" style="stroke:#181818;stroke-width:1.0;"/><text fill="#000000" font-family="sans-serif" font-size="12" lengthAdjust="spacing" textLength="60" x="982" y="120.8441">&#171;cancelar&#187;</text></g><!--SRC=[fLB1JkCm4BtxAqRbqaeD4jM28AeYbRJbmcb1ND4adWOBuubiHzs2-FTr6jI6D0MnwvCzy-QzcUTnpygKQF45CioV2ykLaIbhjh1-Kfw4s-NT4qfUArF02hLhP-Qqmahx9HlVb6OwSFK3xjGhmTcabTJAaD-K12NhJVqGmbBkqHIQu2ITBwvdvp28PquL1drbqS4iKsGz3g2-x-DDc8KeWpmM12ILHxj7rFX1DpWS3U1DG3WjsOl9rM9v1OiEza7HkWlDpZDvSTdg8mrZMjQQR1UwdCpINuiMz3ULx9Hdkpa2lR71z6zHUyAlQCJx_pfxXrf95E8m0v6DabwxueDV6EBkEXAYhmOY6TZw78s1Cq-6x7OYDrUkPACoJMuuWXXkbVFJRIeHVUKDSSVK7USz1ye3dXztYBclWb6lQ5kJZY5dgGeUW-6Np59uszeOTcDGyh6ejMhbrbT-CK7V1WMZ_uIsATtg31kvclAQMHEQ8tJs4rqCqsbLIlIK93_Mxnryr9u3ekXZ5_jTFJrDZgvTtTfAcKOWTFTF13cQdFIs_Yy0]--></g></svg>