<?xml version="1.0" encoding="us-ascii" standalone="no"?><svg xmlns="http://www.w3.org/2000/svg" xmlns:xlink="http://www.w3.org/1999/xlink" contentStyleType="text/css" height="328px" preserveAspectRatio="none" style="width:1497px;height:328px;background:#FFFFFF;" version="1.1" viewBox="0 0 1497 328" width="1497px" zoomAndPan="magnify"><defs/><g><!--cluster editarAsignatura--><g id="cluster_editarAsignatura"><path d="M8.5,6.016 L119.5,6.016 A3.75,3.75 0 0 1 122,8.516 L129,28.3601 L740.5,28.3601 A2.5,2.5 0 0 1 743,30.8601 L743,318.516 A2.5,2.5 0 0 1 740.5,321.016 L8.5,321.016 A2.5,2.5 0 0 1 6,318.516 L6,8.516 A2.5,2.5 0 0 1 8.5,6.016 " fill="none" style="stroke:#000000;stroke-width:1.5;"/><line style="stroke:#000000;stroke-width:1.5;" x1="6" x2="129" y1="28.3601" y2="28.3601"/><text fill="#000000" font-family="sans-serif" font-size="12" font-weight="bold" lengthAdjust="spacing" textLength="110" x="10" y="20.8441">editarAsignatura()</text></g><!--entity EditarAsignaturaView--><g id="elem_EditarAsignaturaView"><rect fill="#629EF9" height="36.3441" rx="2.5" ry="2.5" style="stroke:#181818;stroke-width:0.5;" width="140" x="587" y="41.016"/><text fill="#000000" font-family="sans-serif" font-size="12" lengthAdjust="spacing" textLength="120" x="597" y="63.8441">EditarAsignaturaView</text></g><!--entity AsignaturaController--><g id="elem_AsignaturaController"><rect fill="#B5BD68" height="36.3441" rx="2.5" ry="2.5" style="stroke:#181818;stroke-width:0.5;" width="137" x="249.5" y="155.016"/><text fill="#000000" font-family="sans-serif" font-size="12" lengthAdjust="spacing" textLength="117" x="259.5" y="177.8441">AsignaturaController</text></g><!--entity AsignaturaRepository--><g id="elem_AsignaturaRepository"><rect fill="#F2AC4E" height="36.3441" rx="2.5" ry="2.5" style="stroke:#181818;stroke-width:0.5;" width="140" x="127" y="269.016"/><text fill="#000000" font-family="sans-serif" font-size="12" lengthAdjust="spacing" textLength="120" x="137" y="291.8441">AsignaturaRepository</text></g><!--entity GradoRepository--><g id="elem_GradoRepository"><rect fill="#F2AC4E" height="36.3441" rx="2.5" ry="2.5" style="stroke:#181818;stroke-width:0.5;" width="114" x="410" y="269.016"/><text fill="#000000" font-family="sans-serif" font-size="12" lengthAdjust="spacing" textLength="94" x="420" y="291.8441">GradoRepository</text></g><!--entity Asignatura--><g id="elem_Asignatura"><rect fill="#F2AC4E" height="36.3441" rx="2.5" ry="2.5" style="stroke:#181818;stroke-width:0.5;" width="81" x="543.5" y="155.016"/><text fill="#000000" font-family="sans-serif" font-size="12" lengthAdjust="spacing" textLength="61" x="553.5" y="177.8441">Asignatura</text></g><!--entity Grado--><g id="elem_Grado"><rect fill="#F2AC4E" height="36.3441" rx="2.5" ry="2.5" style="stroke:#181818;stroke-width:0.5;" width="55" x="610.5" y="269.016"/><text fill="#000000" font-family="sans-serif" font-size="12" lengthAdjust="spacing" textLength="35" x="620.5" y="291.8441">Grado</text></g><!--entity AsignaturasAbierto--><g id="elem_AsignaturasAbierto"><rect fill="#CDEBA5" height="36.3441" rx="2.5" ry="2.5" style="stroke:#181818;stroke-width:0.5;" width="134" x="904" y="155.016"/><text fill="#000000" font-family="sans-serif" font-size="12" lengthAdjust="spacing" textLength="114" x="914" y="177.8441">:Asignaturas Abierta</text></g><!--entity AsignaturaAbierto--><g id="elem_AsignaturaAbierto"><rect fill="#CDEBA5" height="36.3441" rx="2.5" ry="2.5" style="stroke:#181818;stroke-width:0.5;" width="128" x="1213" y="155.016"/><text fill="#000000" font-family="sans-serif" font-size="12" lengthAdjust="spacing" textLength="108" x="1223" y="177.8441">:Asignatura Abierta</text></g><!--link AsignaturasAbierto to EditarAsignaturaView--><g id="link_AsignaturasAbierto_EditarAsignaturaView"><path d="M903.79,156.756 C843.35,143.036 764,125.016 764,125.016 C764,125.016 721.9482,99.4708 690.2382,80.2108 " fill="none" id="AsignaturasAbierto-to-EditarAsignaturaView" style="stroke:#181818;stroke-width:1.0;"/><polygon fill="#181818" points="685.11,77.096,690.7258,85.1869,689.3835,79.6917,694.8788,78.3494,685.11,77.096" style="stroke:#181818;stroke-width:1.0;"/><text fill="#000000" font-family="sans-serif" font-size="12" lengthAdjust="spacing" textLength="162" x="765" y="120.8441">editarAsignatura(asignatura)</text></g><!--link EditarAsignaturaView to AsignaturasAbierto--><g id="link_EditarAsignaturaView_AsignaturasAbierto"><path d="M727.11,71.996 C808.58,85.926 932,107.016 932,107.016 C932,107.016 946.1142,130.5304 957.6642,149.7904 " fill="none" id="EditarAsignaturaView-to-AsignaturasAbierto" style="stroke:#181818;stroke-width:1.0;stroke-dasharray:7.0,7.0;"/><polygon fill="#181818" points="960.75,154.936,959.5517,145.1603,958.1785,150.648,952.6909,149.2747,960.75,154.936" style="stroke:#181818;stroke-width:1.0;"/><text fill="#000000" font-family="sans-serif" font-size="12" lengthAdjust="spacing" textLength="162" x="944" y="120.8441">&#171;finalizar&#187; abrirAsignaturas()</text></g><!--link EditarAsignaturaView to AsignaturasAbierto--><g id="link_EditarAsignaturaView_AsignaturasAbierto"><path d="M727.06,67.206 C855.36,80.376 1115,107.016 1115,107.016 C1115,107.016 1115,125.016 1115,125.016 C1115,125.016 1070.2739,139.6144 1029.0939,153.0544 " fill="none" id="EditarAsignaturaView-to-AsignaturasAbierto-1" style="stroke:#181818;stroke-width:1.0;stroke-dasharray:7.0,7.0;"/><polygon fill="#181818" points="1023.39,154.916,1033.1869,155.9262,1028.1432,153.3647,1030.7048,148.321,1023.39,154.916" style="stroke:#181818;stroke-width:1.0;"/><text fill="#000000" font-family="sans-serif" font-size="12" lengthAdjust="spacing" textLength="60" x="1116" y="120.8441">&#171;cancelar&#187;</text></g><!--link EditarAsignaturaView to AsignaturaController--><g id="link_EditarAsignaturaView_AsignaturaController"><path d="M586.94,65.476 C428.05,77.866 54,107.016 54,107.016 C54,107.016 54,125.016 54,125.016 C54,125.016 165.1928,144.8149 243.4228,158.7349 " fill="none" id="EditarAsignaturaView-to-AsignaturaController" style="stroke:#181818;stroke-width:1.0;"/><polygon fill="#181818" points="249.33,159.786,241.1699,154.2712,244.4073,158.9101,239.7684,162.1475,249.33,159.786" style="stroke:#181818;stroke-width:1.0;"/><text fill="#000000" font-family="sans-serif" font-size="12" lengthAdjust="spacing" textLength="235" x="55" y="120.8441">obtenerGradosDisponibles() : List&lt;Grado&gt;</text></g><!--link EditarAsignaturaView to AsignaturaController--><g id="link_EditarAsignaturaView_AsignaturaController"><path d="M586.73,70.276 C491.99,84.106 335,107.016 335,107.016 C335,107.016 329.0161,129.8707 323.9861,149.1307 " fill="none" id="EditarAsignaturaView-to-AsignaturaController-1" style="stroke:#181818;stroke-width:1.0;"/><polygon fill="#181818" points="322.47,154.936,328.6144,147.2388,323.7334,150.0983,320.874,145.2173,322.47,154.936" style="stroke:#181818;stroke-width:1.0;"/><text fill="#000000" font-family="sans-serif" font-size="12" lengthAdjust="spacing" textLength="391" x="336" y="120.8441">actualizar(asignatura, codigo, nombre, creditos, id_grado) : Asignatura</text></g><!--link AsignaturaController to GradoRepository--><g id="link_AsignaturaController_GradoRepository"><path d="M351.84,191.116 C378.43,204.556 411,221.016 411,221.016 C411,221.016 431.7728,245.1312 448.3728,264.3912 " fill="none" id="AsignaturaController-to-GradoRepository" style="stroke:#181818;stroke-width:1.0;"/><polygon fill="#181818" points="452.29,268.936,449.4442,259.5073,449.0257,265.1486,443.3843,264.7302,452.29,268.936" style="stroke:#181818;stroke-width:1.0;"/><text fill="#000000" font-family="sans-serif" font-size="12" lengthAdjust="spacing" textLength="163" x="428" y="234.8441">obtenerTodos() : List&lt;Grado&gt;</text></g><!--link AsignaturaController to AsignaturaRepository--><g id="link_AsignaturaController_AsignaturaRepository"><path d="M249.35,187.866 C180.62,201.726 85,221.016 85,221.016 C85,221.016 85,239.016 85,239.016 C85,239.016 118.6976,253.1539 150.7176,266.5939 " fill="none" id="AsignaturaController-to-AsignaturaRepository" style="stroke:#181818;stroke-width:1.0;"/><polygon fill="#181818" points="156.25,268.916,149.4995,261.7445,151.6397,266.9809,146.4033,269.1211,156.25,268.916" style="stroke:#181818;stroke-width:1.0;"/><text fill="#000000" font-family="sans-serif" font-size="12" lengthAdjust="spacing" textLength="172" x="86" y="234.8441">existeCodigo(codigo) : Boolean</text></g><!--link AsignaturaController to AsignaturaRepository--><g id="link_AsignaturaController_AsignaturaRepository"><path d="M303.55,191.096 C287.25,210.356 263,239.016 263,239.016 C263,239.016 244.927,251.885 226.087,265.305 " fill="none" id="AsignaturaController-to-AsignaturaRepository-1" style="stroke:#181818;stroke-width:1.0;"/><polygon fill="#181818" points="221.2,268.786,230.8511,266.8224,225.2725,265.8852,226.2097,260.3065,221.2,268.786" style="stroke:#181818;stroke-width:1.0;"/><text fill="#000000" font-family="sans-serif" font-size="12" lengthAdjust="spacing" textLength="123" x="279" y="234.8441">actualizar(asignatura)</text></g><!--link AsignaturaController to Asignatura--><g id="link_AsignaturaController_Asignatura"><path d="M386.5,173.016 C436.22,173.016 495.81,173.016 537.46,173.016 " fill="none" id="AsignaturaController-to-Asignatura" style="stroke:#181818;stroke-width:1.0;"/><polygon fill="#181818" points="543.46,173.016,534.46,169.016,538.46,173.016,534.46,177.016,543.46,173.016" style="stroke:#181818;stroke-width:1.0;"/><text fill="#000000" font-family="sans-serif" font-size="12" lengthAdjust="spacing" textLength="51" x="439.5" y="165.8441">&#171;update&#187;</text></g><!--link Asignatura to Grado--><g id="link_Asignatura_Grado"><path d="M601.97,191.246 C615.95,204.666 633,221.016 633,221.016 C633,221.016 635.2,249.676 636.69,268.936 " fill="none" id="Asignatura-Grado" style="stroke:#181818;stroke-width:1.0;"/></g><!--link EditarAsignaturaView to AsignaturaAbierto--><g id="link_EditarAsignaturaView_AsignaturaAbierto"><path d="M727.11,66.256 C870.74,79.046 1185,107.016 1185,107.016 C1185,107.016 1220.6697,132.2138 1247.9297,151.4738 " fill="none" id="EditarAsignaturaView-to-AsignaturaAbierto" style="stroke:#181818;stroke-width:1.0;stroke-dasharray:7.0,7.0;"/><polygon fill="#181818" points="1252.83,154.936,1247.7877,146.4758,1248.7464,152.0508,1243.1714,153.0096,1252.83,154.936" style="stroke:#181818;stroke-width:1.0;"/><text fill="#000000" font-family="sans-serif" font-size="12" lengthAdjust="spacing" textLength="45" x="1210" y="120.8441">&#171;editar&#187;</text></g><!--link AsignaturaAbierto to AsignaturaAbierto--><g id="link_AsignaturaAbierto_AsignaturaAbierto"><path d="M1341.27,162.536 C1360.76,162.796 1376,166.286 1376,173.016 C1376,179.746 1366.7595,183.156 1347.2695,183.416 " fill="none" id="AsignaturaAbierto-to-AsignaturaAbierto" style="stroke:#181818;stroke-width:1.0;"/><polygon fill="#181818" points="1341.27,183.496,1350.3226,187.3756,1346.2696,183.4293,1350.2158,179.3763,1341.27,183.496" style="stroke:#181818;stroke-width:1.0;"/><text fill="#000000" font-family="sans-serif" font-size="12" lengthAdjust="spacing" textLength="102" x="1382" y="177.8441">editarAsignatura()</text></g><!--SRC=[bLDDRzim3BthLn3P9G7Y0WlMOZK20wcJxBBJDkmwK3RZ2bL5GvAHfSF- - -HuIrNRQHUVPF5za4-IUr2cHekF8B5ug2mtfinPiuNzlV8atAdkxh7alJ8Lx52xkBAc7JRQRzduZYfrq1e7V5LF1EyNKL4hG_vG4zIi3-sF49OAZwRI1E_ozUPkTGsJTELKPT0t5Xsif2BhSGBj-dc_s-Otw6VO_yYY3hrZHK2bycWZNe1F-flJsGH-2GXVP7gpkDriRs7JmtvNjEz3vRKiRpv6RUGX8yjQa-r3jujL_c4JGRzGpKvvjeSpq4ysdDYRg6V1rsJ4Ro66KKDYasnqq7IGtnHFovaGOnn8og0sbaKAB3qPiiTUt5gvcesIcjnq1YbyLiulZwLCZD4xuLuS9yrl72G7EXTtY8LlKAidjD6aSoYuL1NFmV2Zj1J-RHiCkpceyaVLUhNEqI6yCi7OsOUWVuQsAJ_wJ3kxLlAEMHEQCtBsXLmAosLJb-Wfooxs7nry5iy1IVBt5esdUdML3LzYsrDtXrxqTBfvoIXd-43_ozD5fZjbkd6o351Q5J73DRbKhK1Ja3uEyGS0]--></g></svg>