<?xml version="1.0" encoding="us-ascii" standalone="no"?><svg xmlns="http://www.w3.org/2000/svg" xmlns:xlink="http://www.w3.org/1999/xlink" contentStyleType="text/css" height="640px" preserveAspectRatio="none" style="width:2064px;height:640px;background:#FFFFFF;" version="1.1" viewBox="0 0 2064 640" width="2064px" zoomAndPan="magnify"><defs/><g><!--cluster listarConflictosExamenes--><g id="cluster_listarConflictosExamenes"><path d="M141,107 L302,107 A3.75,3.75 0 0 1 304.5,109.5 L311.5,129.3441 L1672,129.3441 A2.5,2.5 0 0 1 1674.5,131.8441 L1674.5,630.5 A2.5,2.5 0 0 1 1672,633 L141,633 A2.5,2.5 0 0 1 138.5,630.5 L138.5,109.5 A2.5,2.5 0 0 1 141,107 " fill="none" style="stroke:#000000;stroke-width:1.5;"/><line style="stroke:#000000;stroke-width:1.5;" x1="138.5" x2="311.5" y1="129.3441" y2="129.3441"/><text fill="#000000" font-family="sans-serif" font-size="12" font-weight="bold" lengthAdjust="spacing" textLength="160" x="142.5" y="121.8281">listarConflictosExamenes()</text></g><!--entity ListarConflictosView--><g id="elem_ListarConflictosView"><rect fill="#629EF9" height="36.3441" rx="2.5" ry="2.5" style="stroke:#181818;stroke-width:0.5;" width="132" x="967.5" y="142"/><text fill="#000000" font-family="sans-serif" font-size="12" lengthAdjust="spacing" textLength="112" x="977.5" y="164.8281">ListarConflictosView</text></g><!--entity ExamenController--><g id="elem_ExamenController"><rect fill="#B5BD68" height="36.3441" rx="2.5" ry="2.5" style="stroke:#181818;stroke-width:0.5;" width="121" x="723" y="256"/><text fill="#000000" font-family="sans-serif" font-size="12" lengthAdjust="spacing" textLength="101" x="733" y="278.8281">ExamenController</text></g><!--entity ExamenRepository--><g id="elem_ExamenRepository"><rect fill="#F2AC4E" height="36.3441" rx="2.5" ry="2.5" style="stroke:#181818;stroke-width:0.5;" width="124" x="465.5" y="370"/><text fill="#000000" font-family="sans-serif" font-size="12" lengthAdjust="spacing" textLength="104" x="475.5" y="392.8281">ExamenRepository</text></g><!--entity PreferenciaRepository--><g id="elem_PreferenciaRepository"><rect fill="#F2AC4E" height="36.3441" rx="2.5" ry="2.5" style="stroke:#181818;stroke-width:0.5;" width="144" x="1289.5" y="370"/><text fill="#000000" font-family="sans-serif" font-size="12" lengthAdjust="spacing" textLength="124" x="1299.5" y="392.8281">PreferenciaRepository</text></g><!--entity Conflicto--><g id="elem_Conflicto"><rect fill="#F2AC4E" height="36.3441" rx="2.5" ry="2.5" style="stroke:#181818;stroke-width:0.5;" width="69" x="311" y="484"/><text fill="#000000" font-family="sans-serif" font-size="12" lengthAdjust="spacing" textLength="49" x="321" y="506.8281">Conflicto</text></g><!--entity Examen--><g id="elem_Examen"><rect fill="#F2AC4E" height="36.3441" rx="2.5" ry="2.5" style="stroke:#181818;stroke-width:0.5;" width="65" x="210" y="581"/><text fill="#000000" font-family="sans-serif" font-size="12" lengthAdjust="spacing" textLength="45" x="220" y="603.8281">Examen</text></g><!--entity ProfesorAbiertoEntrada--><g id="elem_ProfesorAbiertoEntrada"><rect fill="#CDEBA5" height="36.3441" rx="2.5" ry="2.5" style="stroke:#181818;stroke-width:0.5;" width="115" x="7" y="142"/><text fill="#000000" font-family="sans-serif" font-size="12" lengthAdjust="spacing" textLength="95" x="17" y="164.8281">:Profesor Abierto</text></g><!--entity GenerarCalendarioEntrada--><g id="elem_GenerarCalendarioEntrada"><rect fill="#CDEBA5" height="36.3441" rx="2.5" ry="2.5" style="stroke:#181818;stroke-width:0.5;" width="157" x="955" y="7"/><text fill="#000000" font-family="sans-serif" font-size="12" lengthAdjust="spacing" textLength="137" x="965" y="29.8281">:GenerarCalendarioView</text></g><!--entity ProfesorPreferenciasSalida--><g id="elem_ProfesorPreferenciasSalida"><rect fill="#CDEBA5" height="36.3441" rx="2.5" ry="2.5" style="stroke:#181818;stroke-width:0.5;" width="189" x="1691" y="256"/><text fill="#000000" font-family="sans-serif" font-size="12" lengthAdjust="spacing" textLength="169" x="1701" y="278.8281">:Profesor Preferencias Abierto</text></g><!--entity CalendarioGeneradoSalida--><g id="elem_CalendarioGeneradoSalida"><rect fill="#CDEBA5" height="36.3441" rx="2.5" ry="2.5" style="stroke:#181818;stroke-width:0.5;" width="143" x="1915" y="256"/><text fill="#000000" font-family="sans-serif" font-size="12" lengthAdjust="spacing" textLength="123" x="1925" y="278.8281">:Calendario Generado</text></g><!--link ProfesorAbiertoEntrada to ListarConflictosView--><g id="link_ProfesorAbiertoEntrada_ListarConflictosView"><path d="M122.21,160 C291.71,160 781.37,160 961.28,160 " fill="none" id="ProfesorAbiertoEntrada-to-ListarConflictosView" style="stroke:#181818;stroke-width:1.0;"/><polygon fill="#181818" points="967.28,160,958.28,156,962.28,160,958.28,164,967.28,160" style="stroke:#181818;stroke-width:1.0;"/><text fill="#000000" font-family="sans-serif" font-size="12" lengthAdjust="spacing" textLength="91" x="499.25" y="152.8281">listarConflictos()</text></g><!--link GenerarCalendarioEntrada to ListarConflictosView--><g id="link_GenerarCalendarioEntrada_ListarConflictosView"><path d="M1033.5,43.12 C1033.5,68.65 1033.5,110.45 1033.5,135.95 " fill="none" id="GenerarCalendarioEntrada-to-ListarConflictosView" style="stroke:#181818;stroke-width:1.0;"/><polygon fill="#181818" points="1033.5,141.95,1037.5,132.95,1033.5,136.95,1029.5,132.95,1033.5,141.95" style="stroke:#181818;stroke-width:1.0;"/><text fill="#000000" font-family="sans-serif" font-size="12" lengthAdjust="spacing" textLength="102" x="1034.5" y="86.8281">revisarConflictos()</text></g><!--link ListarConflictosView to ExamenController--><g id="link_ListarConflictosView_ExamenController"><path d="M967.45,165.59 C797.35,177.42 357.5,208 357.5,208 C357.5,208 357.5,226 357.5,226 C357.5,226 599.3462,252.6818 716.9562,265.6618 " fill="none" id="ListarConflictosView-to-ExamenController" style="stroke:#181818;stroke-width:1.0;"/><polygon fill="#181818" points="722.92,266.32,714.4131,261.3569,717.9502,265.7715,713.5355,269.3086,722.92,266.32" style="stroke:#181818;stroke-width:1.0;"/><text fill="#000000" font-family="sans-serif" font-size="12" lengthAdjust="spacing" textLength="270" x="358.5" y="221.8281">listarConflictos(pagina) : PagedResult&lt;Conflicto&gt;</text></g><!--link ListarConflictosView to ExamenController--><g id="link_ListarConflictosView_ExamenController"><path d="M967.16,169.57 C862.17,183.12 669.5,208 669.5,208 C669.5,208 669.5,226 669.5,226 C669.5,226 703.8832,240.1725 736.4732,253.6125 " fill="none" id="ListarConflictosView-to-ExamenController-1" style="stroke:#181818;stroke-width:1.0;"/><polygon fill="#181818" points="742.02,255.9,735.2247,248.7709,737.3976,253.9938,732.1748,256.1666,742.02,255.9" style="stroke:#181818;stroke-width:1.0;"/><text fill="#000000" font-family="sans-serif" font-size="12" lengthAdjust="spacing" textLength="319" x="670.5" y="221.8281">filtrarConflictos(criterio, pagina) : PagedResult&lt;Conflicto&gt;</text></g><!--link ListarConflictosView to ExamenController--><g id="link_ListarConflictosView_ExamenController"><path d="M1023.25,178.08 C1011.7,197.34 994.5,226 994.5,226 C994.5,226 912.4363,244.2749 850.1063,258.1649 " fill="none" id="ListarConflictosView-to-ExamenController-2" style="stroke:#181818;stroke-width:1.0;"/><polygon fill="#181818" points="844.25,259.47,853.9046,261.4166,849.1303,258.3824,852.1645,253.6082,844.25,259.47" style="stroke:#181818;stroke-width:1.0;"/><text fill="#000000" font-family="sans-serif" font-size="12" lengthAdjust="spacing" textLength="313" x="1005.5" y="221.8281">obtenerOpcionesResolucion(conflicto) : List&lt;Resolucion&gt;</text></g><!--link ListarConflictosView to ExamenController--><g id="link_ListarConflictosView_ExamenController"><path d="M1099.85,171.61 C1186.56,185.47 1327.5,208 1327.5,208 C1327.5,208 1327.5,226 1327.5,226 C1327.5,226 991.8277,255.0036 850.0377,267.2536 " fill="none" id="ListarConflictosView-to-ExamenController-3" style="stroke:#181818;stroke-width:1.0;"/><polygon fill="#181818" points="844.06,267.77,853.3709,270.9805,849.0414,267.3396,852.6823,263.0102,844.06,267.77" style="stroke:#181818;stroke-width:1.0;"/><text fill="#000000" font-family="sans-serif" font-size="12" lengthAdjust="spacing" textLength="268" x="1328.5" y="221.8281">resolverConflicto(conflicto, resolucion) : Examen</text></g><!--link ExamenController to ExamenRepository--><g id="link_ExamenController_ExamenRepository"><path d="M722.86,279.83 C572.3,291.82 193.5,322 193.5,322 C193.5,322 193.5,340 193.5,340 C193.5,340 362.9285,363.844 459.5185,377.434 " fill="none" id="ExamenController-to-ExamenRepository" style="stroke:#181818;stroke-width:1.0;"/><polygon fill="#181818" points="465.46,378.27,457.1051,373.0551,460.5088,377.5734,455.9905,380.9771,465.46,378.27" style="stroke:#181818;stroke-width:1.0;"/><text fill="#000000" font-family="sans-serif" font-size="12" lengthAdjust="spacing" textLength="289" x="194.5" y="335.8281">detectarConflictos(pagina) : PagedResult&lt;Conflicto&gt;</text></g><!--link ExamenController to ExamenRepository--><g id="link_ExamenController_ExamenRepository"><path d="M722.78,286.02 C646.22,299.91 524.5,322 524.5,322 C524.5,322 524.5,340 524.5,340 C524.5,340 525.1563,350.3623 526.0163,363.7823 " fill="none" id="ExamenController-to-ExamenRepository-1" style="stroke:#181818;stroke-width:1.0;"/><polygon fill="#181818" points="526.4,369.77,529.8162,360.5326,526.0802,364.7802,521.8326,361.0442,526.4,369.77" style="stroke:#181818;stroke-width:1.0;"/><text fill="#000000" font-family="sans-serif" font-size="12" lengthAdjust="spacing" textLength="326" x="525.5" y="335.8281">buscarConflictos(criterio, pagina) : PagedResult&lt;Conflicto&gt;</text></g><!--link ExamenController to ExamenRepository--><g id="link_ExamenController_ExamenRepository"><path d="M810.27,292.23 C831.1,305.65 856.5,322 856.5,322 C856.5,322 856.5,340 856.5,340 C856.5,340 691.0897,363.6318 595.7097,377.2518 " fill="none" id="ExamenController-to-ExamenRepository-2" style="stroke:#181818;stroke-width:1.0;"/><polygon fill="#181818" points="589.77,378.1,599.2451,380.7876,594.7198,377.3932,598.1142,372.8679,589.77,378.1" style="stroke:#181818;stroke-width:1.0;"/><text fill="#000000" font-family="sans-serif" font-size="12" lengthAdjust="spacing" textLength="274" x="857.5" y="335.8281">buscarDisponibilidad(conflicto) : List&lt;Resolucion&gt;</text></g><!--link ExamenController to ExamenRepository--><g id="link_ExamenController_ExamenRepository"><path d="M844.06,282.97 C945.91,296.38 1140.5,322 1140.5,322 C1140.5,322 1140.5,340 1140.5,340 C1140.5,340 751.4725,369.8316 595.6325,381.7716 " fill="none" id="ExamenController-to-ExamenRepository-3" style="stroke:#181818;stroke-width:1.0;"/><polygon fill="#181818" points="589.65,382.23,598.9293,385.5308,594.6354,381.848,598.3181,377.5542,589.65,382.23" style="stroke:#181818;stroke-width:1.0;"/><text fill="#000000" font-family="sans-serif" font-size="12" lengthAdjust="spacing" textLength="108" x="1141.5" y="335.8281">actualizar(examen)</text></g><!--link ExamenRepository to Conflicto--><g id="link_ExamenRepository_Conflicto"><path d="M499.86,406.01 C465.65,427.06 407.73,462.7 373.4,483.83 " fill="none" id="ExamenRepository-Conflicto" style="stroke:#181818;stroke-width:1.0;"/></g><!--link Conflicto to Examen--><g id="link_Conflicto_Examen"><path d="M326.61,520.42 C308.02,537.57 279.82,563.58 261.27,580.69 " fill="none" id="Conflicto-Examen" style="stroke:#181818;stroke-width:1.0;"/></g><!--link ExamenController to PreferenciaRepository--><g id="link_ExamenController_PreferenciaRepository"><path d="M844.14,281 C972.2,293.67 1258.5,322 1258.5,322 C1258.5,322 1298.8459,347.4579 1329.3659,366.7179 " fill="none" id="ExamenController-to-PreferenciaRepository" style="stroke:#181818;stroke-width:1.0;"/><polygon fill="#181818" points="1334.44,369.92,1328.9635,361.7341,1330.2116,367.2516,1324.6941,368.4996,1334.44,369.92" style="stroke:#181818;stroke-width:1.0;"/><text fill="#000000" font-family="sans-serif" font-size="12" lengthAdjust="spacing" textLength="295" x="1286.5" y="335.8281">verificarRestricciones(profesor, resolucion) : Boolean</text></g><!--link ExamenController to Examen--><g id="link_ExamenController_Examen"><path d="M722.87,279.77 C570.84,291.71 185.5,322 185.5,322 C185.5,322 185.5,340 185.5,340 C185.5,340 224.5957,516.9613 237.3757,574.8113 " fill="none" id="ExamenController-to-Examen" style="stroke:#181818;stroke-width:1.0;"/><polygon fill="#181818" points="238.67,580.67,240.6344,571.019,237.5914,575.7877,232.8227,572.7448,238.67,580.67" style="stroke:#181818;stroke-width:1.0;"/><text fill="#000000" font-family="sans-serif" font-size="12" lengthAdjust="spacing" textLength="51" x="210.5" y="449.8281">&#171;update&#187;</text></g><!--link ListarConflictosView to ProfesorPreferenciasSalida--><g id="link_ListarConflictosView_ProfesorPreferenciasSalida"><path d="M1099.67,166.44 C1250.24,178.81 1605.5,208 1605.5,208 C1605.5,208 1679.2367,234.622 1732.5667,253.882 " fill="none" id="ListarConflictosView-to-ProfesorPreferenciasSalida" style="stroke:#181818;stroke-width:1.0;stroke-dasharray:7.0,7.0;"/><polygon fill="#181818" points="1738.21,255.92,1731.1038,249.1008,1733.5073,254.2216,1728.3864,256.6251,1738.21,255.92" style="stroke:#181818;stroke-width:1.0;"/><text fill="#000000" font-family="sans-serif" font-size="12" lengthAdjust="spacing" textLength="57" x="1654.5" y="221.8281">&#171;finalizar&#187;</text></g><!--link ListarConflictosView to CalendarioGeneradoSalida--><g id="link_ListarConflictosView_CalendarioGeneradoSalida"><path d="M1099.68,165.53 C1271.87,177.31 1720.5,208 1720.5,208 C1720.5,208 1831.9715,235.2356 1910.7815,254.4956 " fill="none" id="ListarConflictosView-to-CalendarioGeneradoSalida" style="stroke:#181818;stroke-width:1.0;stroke-dasharray:7.0,7.0;"/><polygon fill="#181818" points="1916.61,255.92,1908.8169,249.8978,1911.7529,254.733,1906.9177,257.6691,1916.61,255.92" style="stroke:#181818;stroke-width:1.0;"/><text fill="#000000" font-family="sans-serif" font-size="12" lengthAdjust="spacing" textLength="57" x="1792.5" y="221.8281">&#171;finalizar&#187;</text></g><!--SRC=[hPJVRzem4CVV_LTOx0MaKcbehTO88L5-x6NIK2lr_P9Sg5NNZivE6Ptsl-yC8MGXQKSrdeBlwy_zzBadPN8WU9On94zhieL9PrPRafj7vL6uokuU8RKRPTOo0-tgbZbcK6Y_jCRlhyQQMUs2U_MAylEePjJAeD_cA7Ehj-6F48I91xFMA3_DvelRwPNiHIko6Jg6JsE5v6rFWfE7m_9iOJn12gttlw510fg1HfC2AVkWSBE3d5WE695p6h163j5v5bYJQPLuwnO_uPalkN2xrsNi3thobv3yguLpFRfPB6_azyQT44jJ6b_5wVLNkSUnr9FL6gafMuwcio-BKdQ7kNNAMzfso5Q46HAQHC6xsYgyDrsAt-_qg-RIjJQlBhW7hJeQUEnFsR5qZpcU7uvBY6YV3ZcauQIr0z59e_i3qJKTSfXsOWXVb6jmH9jq3scsk2ME7DRAm416SiK3cTwXu_SqhWGJqMJKoSTEHp957sfx5lkiq3EbFVt5JuWN2HVkGlwtBEB29H_r8PeuEHpMPhtw2iVbY9zL01lxC38_yaHPNWCSWDL5-EudX_iXke0S7utdvZvNBhT6nIgCUleXTEikYEGBrp5Jx889dbIoJwEVbu_fWgVxG0xERgtL26VMQ8TWHvNwc42JNxRWD0Mgo94SZuiy1O-JVoyZ9BxWFV4ArCUTiUk9NbvEtbXLmNV60xSZiVjEHDUQQWB-0000]--></g></svg>