<?xml version="1.0" encoding="us-ascii" standalone="no"?><svg xmlns="http://www.w3.org/2000/svg" xmlns:xlink="http://www.w3.org/1999/xlink" contentStyleType="text/css" height="539px" preserveAspectRatio="none" style="width:1376px;height:539px;background:#FFFFFF;" version="1.1" viewBox="0 0 1376 539" width="1376px" zoomAndPan="magnify"><defs/><g><!--cluster listarConflictosExamenes--><g id="cluster_listarConflictosExamenes"><path d="M151,6.016 L312,6.016 A3.75,3.75 0 0 1 314.5,8.516 L321.5,28.3601 L1204,28.3601 A2.5,2.5 0 0 1 1206.5,30.8601 L1206.5,529.516 A2.5,2.5 0 0 1 1204,532.016 L151,532.016 A2.5,2.5 0 0 1 148.5,529.516 L148.5,8.516 A2.5,2.5 0 0 1 151,6.016 " fill="none" style="stroke:#000000;stroke-width:1.5;"/><line style="stroke:#000000;stroke-width:1.5;" x1="148.5" x2="321.5" y1="28.3601" y2="28.3601"/><text fill="#000000" font-family="sans-serif" font-size="12" font-weight="bold" lengthAdjust="spacing" textLength="160" x="152.5" y="20.8441">listarConflictosExamenes()</text></g><!--entity ListarConflictosView--><g id="elem_ListarConflictosView"><rect fill="#629EF9" height="36.3441" rx="2.5" ry="2.5" style="stroke:#181818;stroke-width:0.5;" width="132" x="676.5" y="41.016"/><text fill="#000000" font-family="sans-serif" font-size="12" lengthAdjust="spacing" textLength="112" x="686.5" y="63.8441">ListarConflictosView</text></g><!--entity ExamenController--><g id="elem_ExamenController"><rect fill="#B5BD68" height="36.3441" rx="2.5" ry="2.5" style="stroke:#181818;stroke-width:0.5;" width="121" x="505" y="155.016"/><text fill="#000000" font-family="sans-serif" font-size="12" lengthAdjust="spacing" textLength="101" x="515" y="177.8441">ExamenController</text></g><!--entity ExamenRepository--><g id="elem_ExamenRepository"><rect fill="#F2AC4E" height="36.3441" rx="2.5" ry="2.5" style="stroke:#181818;stroke-width:0.5;" width="124" x="469.5" y="269.016"/><text fill="#000000" font-family="sans-serif" font-size="12" lengthAdjust="spacing" textLength="104" x="479.5" y="291.8441">ExamenRepository</text></g><!--entity Conflicto--><g id="elem_Conflicto"><rect fill="#F2AC4E" height="36.3441" rx="2.5" ry="2.5" style="stroke:#181818;stroke-width:0.5;" width="69" x="367" y="383.016"/><text fill="#000000" font-family="sans-serif" font-size="12" lengthAdjust="spacing" textLength="49" x="377" y="405.8441">Conflicto</text></g><!--entity Examen--><g id="elem_Examen"><rect fill="#F2AC4E" height="36.3441" rx="2.5" ry="2.5" style="stroke:#181818;stroke-width:0.5;" width="65" x="288" y="480.016"/><text fill="#000000" font-family="sans-serif" font-size="12" lengthAdjust="spacing" textLength="45" x="298" y="502.8441">Examen</text></g><!--entity ExamenesAbierto--><g id="elem_ExamenesAbierto"><rect fill="#CDEBA5" height="36.3441" rx="2.5" ry="2.5" style="stroke:#181818;stroke-width:0.5;" width="125" x="7" y="41.016"/><text fill="#000000" font-family="sans-serif" font-size="12" lengthAdjust="spacing" textLength="105" x="17" y="63.8441">:Ex&#225;menes Abierto</text></g><!--entity ExamenesAbiertoSalida--><g id="elem_ExamenesAbiertoSalida"><rect fill="#CDEBA5" height="36.3441" rx="2.5" ry="2.5" style="stroke:#181818;stroke-width:0.5;" width="125" x="1245" y="155.016"/><text fill="#000000" font-family="sans-serif" font-size="12" lengthAdjust="spacing" textLength="105" x="1255" y="177.8441">:Ex&#225;menes Abierto</text></g><!--link ExamenesAbierto to ListarConflictosView--><g id="link_ExamenesAbierto_ListarConflictosView"><path d="M132.21,59.016 C259.39,59.016 540.59,59.016 670.49,59.016 " fill="none" id="ExamenesAbierto-to-ListarConflictosView" style="stroke:#181818;stroke-width:1.0;"/><polygon fill="#181818" points="676.49,59.016,667.49,55.016,671.49,59.016,667.49,63.016,676.49,59.016" style="stroke:#181818;stroke-width:1.0;"/><text fill="#000000" font-family="sans-serif" font-size="12" lengthAdjust="spacing" textLength="91" x="358.75" y="51.8441">listarConflictos()</text></g><!--link ListarConflictosView to ExamenController--><g id="link_ListarConflictosView_ExamenController"><path d="M676.37,65.706 C531,78.226 196.5,107.016 196.5,107.016 C196.5,107.016 196.5,125.016 196.5,125.016 C196.5,125.016 394.3481,150.2181 499.0281,163.5481 " fill="none" id="ListarConflictosView-to-ExamenController" style="stroke:#181818;stroke-width:1.0;"/><polygon fill="#181818" points="504.98,164.306,496.5574,159.2012,500.0201,163.6744,495.5468,167.1371,504.98,164.306" style="stroke:#181818;stroke-width:1.0;"/><text fill="#000000" font-family="sans-serif" font-size="12" lengthAdjust="spacing" textLength="324" x="197.5" y="120.8441">obtenerConflictos(filtros, pagina) : PagedResult&lt;Conflicto&gt;</text></g><!--link ListarConflictosView to ExamenController--><g id="link_ListarConflictosView_ExamenController"><path d="M677.26,77.046 C625.75,90.506 562.5,107.016 562.5,107.016 C562.5,107.016 562.5,125.016 562.5,125.016 C562.5,125.016 563.1563,135.3783 564.0163,148.7983 " fill="none" id="ListarConflictosView-to-ExamenController-1" style="stroke:#181818;stroke-width:1.0;"/><polygon fill="#181818" points="564.4,154.786,567.8162,145.5486,564.0802,149.7963,559.8326,146.0603,564.4,154.786" style="stroke:#181818;stroke-width:1.0;"/><text fill="#000000" font-family="sans-serif" font-size="12" lengthAdjust="spacing" textLength="313" x="563.5" y="120.8441">obtenerOpcionesResolucion(conflicto) : List&lt;Resolucion&gt;</text></g><!--link ListarConflictosView to ExamenController--><g id="link_ListarConflictosView_ExamenController"><path d="M793.08,77.116 C832.82,90.556 881.5,107.016 881.5,107.016 C881.5,107.016 881.5,125.016 881.5,125.016 C881.5,125.016 723.7448,148.4838 631.9848,162.1238 " fill="none" id="ListarConflictosView-to-ExamenController-2" style="stroke:#181818;stroke-width:1.0;"/><polygon fill="#181818" points="626.05,163.006,635.5403,165.6393,630.9957,162.2709,634.3641,157.7262,626.05,163.006" style="stroke:#181818;stroke-width:1.0;"/><text fill="#000000" font-family="sans-serif" font-size="12" lengthAdjust="spacing" textLength="268" x="882.5" y="120.8441">resolverConflicto(conflicto, resolucion) : Examen</text></g><!--link ExamenController to ExamenRepository--><g id="link_ExamenController_ExamenRepository"><path d="M504.98,185.396 C430.99,199.306 315.5,221.016 315.5,221.016 C315.5,221.016 315.5,239.016 315.5,239.016 C315.5,239.016 399.6373,257.3198 463.4473,271.2098 " fill="none" id="ExamenController-to-ExamenRepository" style="stroke:#181818;stroke-width:1.0;"/><polygon fill="#181818" points="469.31,272.486,461.3667,266.6633,464.4244,271.4225,459.6651,274.4802,469.31,272.486" style="stroke:#181818;stroke-width:1.0;"/><text fill="#000000" font-family="sans-serif" font-size="12" lengthAdjust="spacing" textLength="327" x="316.5" y="234.8441">detectarConflictos(filtros, pagina) : PagedResult&lt;Conflicto&gt;</text></g><!--link ExamenController to ExamenRepository--><g id="link_ExamenController_ExamenRepository"><path d="M595.93,191.246 C619.62,204.666 648.5,221.016 648.5,221.016 C648.5,221.016 648.5,239.016 648.5,239.016 C648.5,239.016 613.0874,253.2391 579.6374,266.6791 " fill="none" id="ExamenController-to-ExamenRepository-1" style="stroke:#181818;stroke-width:1.0;"/><polygon fill="#181818" points="574.07,268.916,583.9124,269.2722,578.7095,267.0519,580.9298,261.849,574.07,268.916" style="stroke:#181818;stroke-width:1.0;"/><text fill="#000000" font-family="sans-serif" font-size="12" lengthAdjust="spacing" textLength="274" x="649.5" y="234.8441">buscarDisponibilidad(conflicto) : List&lt;Resolucion&gt;</text></g><!--link ExamenController to ExamenRepository--><g id="link_ExamenController_ExamenRepository"><path d="M626.1,181.776 C730.34,195.126 932.5,221.016 932.5,221.016 C932.5,221.016 932.5,239.016 932.5,239.016 C932.5,239.016 712.3092,264.8276 599.6792,278.0276 " fill="none" id="ExamenController-to-ExamenRepository-2" style="stroke:#181818;stroke-width:1.0;"/><polygon fill="#181818" points="593.72,278.726,603.1244,281.6512,598.686,278.144,602.1932,273.7056,593.72,278.726" style="stroke:#181818;stroke-width:1.0;"/><text fill="#000000" font-family="sans-serif" font-size="12" lengthAdjust="spacing" textLength="108" x="933.5" y="234.8441">actualizar(examen)</text></g><!--link ExamenRepository to Conflicto--><g id="link_ExamenRepository_Conflicto"><path d="M511.76,305.026 C487.32,326.076 445.95,361.716 421.43,382.846 " fill="none" id="ExamenRepository-Conflicto" style="stroke:#181818;stroke-width:1.0;"/></g><!--link Conflicto to Examen--><g id="link_Conflicto_Examen"><path d="M386.64,419.436 C372.03,436.586 349.84,462.596 335.26,479.706 " fill="none" id="Conflicto-Examen" style="stroke:#181818;stroke-width:1.0;"/></g><!--link ExamenController to Examen--><g id="link_ExamenController_Examen"><path d="M504.68,185.096 C428.41,198.986 307.5,221.016 307.5,221.016 C307.5,221.016 307.5,239.016 307.5,239.016 C307.5,239.016 316.4075,415.8437 319.3275,473.6937 " fill="none" id="ExamenController-to-Examen" style="stroke:#181818;stroke-width:1.0;"/><polygon fill="#181818" points="319.63,479.686,323.1712,470.4958,319.3779,474.6924,315.1814,470.8991,319.63,479.686" style="stroke:#181818;stroke-width:1.0;"/><text fill="#000000" font-family="sans-serif" font-size="12" lengthAdjust="spacing" textLength="51" x="313.5" y="348.8441">&#171;update&#187;</text></g><!--link ListarConflictosView to ExamenesAbiertoSalida--><g id="link_ListarConflictosView_ExamenesAbiertoSalida"><path d="M808.57,67.466 C926.16,80.716 1159.5,107.016 1159.5,107.016 C1159.5,107.016 1219.2665,133.2632 1263.1165,152.5232 " fill="none" id="ListarConflictosView-to-ExamenesAbiertoSalida" style="stroke:#181818;stroke-width:1.0;stroke-dasharray:7.0,7.0;"/><polygon fill="#181818" points="1268.61,154.936,1261.9784,147.6544,1264.0321,152.9253,1258.7612,154.979,1268.61,154.936" style="stroke:#181818;stroke-width:1.0;"/><text fill="#000000" font-family="sans-serif" font-size="12" lengthAdjust="spacing" textLength="57" x="1199.5" y="120.8441">&#171;finalizar&#187;</text></g><!--link ListarConflictosView to ExamenesAbiertoSalida--><g id="link_ListarConflictosView_ExamenesAbiertoSalida"><path d="M808.74,65.966 C949.47,78.616 1265.5,107.016 1265.5,107.016 C1265.5,107.016 1280.7646,130.6359 1293.2046,149.8959 " fill="none" id="ListarConflictosView-to-ExamenesAbiertoSalida-1" style="stroke:#181818;stroke-width:1.0;stroke-dasharray:7.0,7.0;"/><polygon fill="#181818" points="1296.46,154.936,1294.937,145.2056,1293.7472,150.736,1288.2169,149.5461,1296.46,154.936" style="stroke:#181818;stroke-width:1.0;"/><text fill="#000000" font-family="sans-serif" font-size="12" lengthAdjust="spacing" textLength="47" x="1277.5" y="120.8441">&#171;cerrar&#187;</text></g><!--SRC=[fLB1JkCm4BtxAqRTIoiH9Ae5BL5LgRJf2OaLI7kVn9DWOMpBThOKnCVij-oFhHr26eLs5zYS7BytxutVZBiJog35UyYnkAkihXLVQgajR6w59-OwtDqYrnkXAYXHkZwoeX9hwTTQ-PVIN0Qj_OGRyKXmCks1KYZoMqDWjDp67yOi5HvL9Gc-B5VPnU8KHcdsyFlNFIboiCW5MQz7W0wo1smkspl6J736YeAgysYNMfLI55wxLs8i6Xq2nvCHF348Nw-3i-bvjZw7oq7D3q6R8JK_pVdPjxQfGFLMIqbsI5jF5yklMKkx9gETyDfk3z0wox_AiEV_YEq6fU38sE0Q4flCzpuyVPFlUCBOFYOaF6WC4qb1vpuuzGLA8GFgZi1W9HHE88NlOPBycbpOdLd7dBEXMjzZ5sSAd7nCv7CcRAW7ITARHNUAr-q8FXF0bIc43f671hIiutbSlDR7xgBaR0U-__5vxGgqA-6CLY8NSS3y7z8Vwj_6mf-z2Ux4Zrx0HZKQjV6yxTnsoYdCPhNXw6d-_YTYuUkmkOzenzI0XtRm-7Y-V-MZRHdse149pX-lBiZQflGF]--></g></svg>