<?xml version="1.0" encoding="us-ascii" standalone="no"?><svg xmlns="http://www.w3.org/2000/svg" xmlns:xlink="http://www.w3.org/1999/xlink" contentStyleType="text/css" height="539px" preserveAspectRatio="none" style="width:1677px;height:539px;background:#FFFFFF;" version="1.1" viewBox="0 0 1677 539" width="1677px" zoomAndPan="magnify"><defs/><g><!--cluster listarConflictosExamenes--><g id="cluster_listarConflictosExamenes"><path d="M141,6.016 L302,6.016 A3.75,3.75 0 0 1 304.5,8.516 L311.5,28.3601 L1463,28.3601 A2.5,2.5 0 0 1 1465.5,30.8601 L1465.5,529.516 A2.5,2.5 0 0 1 1463,532.016 L141,532.016 A2.5,2.5 0 0 1 138.5,529.516 L138.5,8.516 A2.5,2.5 0 0 1 141,6.016 " fill="none" style="stroke:#000000;stroke-width:1.5;"/><line style="stroke:#000000;stroke-width:1.5;" x1="138.5" x2="311.5" y1="28.3601" y2="28.3601"/><text fill="#000000" font-family="sans-serif" font-size="12" font-weight="bold" lengthAdjust="spacing" textLength="160" x="142.5" y="20.8441">listarConflictosExamenes()</text></g><!--entity ListarConflictosView--><g id="elem_ListarConflictosView"><rect fill="#629EF9" height="36.3441" rx="2.5" ry="2.5" style="stroke:#181818;stroke-width:0.5;" width="132" x="620.5" y="41.016"/><text fill="#000000" font-family="sans-serif" font-size="12" lengthAdjust="spacing" textLength="112" x="630.5" y="63.8441">ListarConflictosView</text></g><!--entity ExamenController--><g id="elem_ExamenController"><rect fill="#B5BD68" height="36.3441" rx="2.5" ry="2.5" style="stroke:#181818;stroke-width:0.5;" width="121" x="626" y="155.016"/><text fill="#000000" font-family="sans-serif" font-size="12" lengthAdjust="spacing" textLength="101" x="636" y="177.8441">ExamenController</text></g><!--entity ExamenRepository--><g id="elem_ExamenRepository"><rect fill="#F2AC4E" height="36.3441" rx="2.5" ry="2.5" style="stroke:#181818;stroke-width:0.5;" width="124" x="224.5" y="269.016"/><text fill="#000000" font-family="sans-serif" font-size="12" lengthAdjust="spacing" textLength="104" x="234.5" y="291.8441">ExamenRepository</text></g><!--entity PreferenciaRepository--><g id="elem_PreferenciaRepository"><rect fill="#F2AC4E" height="36.3441" rx="2.5" ry="2.5" style="stroke:#181818;stroke-width:0.5;" width="144" x="1080.5" y="269.016"/><text fill="#000000" font-family="sans-serif" font-size="12" lengthAdjust="spacing" textLength="124" x="1090.5" y="291.8441">PreferenciaRepository</text></g><!--entity Conflicto--><g id="elem_Conflicto"><rect fill="#F2AC4E" height="36.3441" rx="2.5" ry="2.5" style="stroke:#181818;stroke-width:0.5;" width="69" x="241" y="383.016"/><text fill="#000000" font-family="sans-serif" font-size="12" lengthAdjust="spacing" textLength="49" x="251" y="405.8441">Conflicto</text></g><!--entity Examen--><g id="elem_Examen"><rect fill="#F2AC4E" height="36.3441" rx="2.5" ry="2.5" style="stroke:#181818;stroke-width:0.5;" width="65" x="180" y="480.016"/><text fill="#000000" font-family="sans-serif" font-size="12" lengthAdjust="spacing" textLength="45" x="190" y="502.8441">Examen</text></g><!--entity ProfesorAbiertoEntrada--><g id="elem_ProfesorAbiertoEntrada"><rect fill="#CDEBA5" height="36.3441" rx="2.5" ry="2.5" style="stroke:#181818;stroke-width:0.5;" width="115" x="7" y="41.016"/><text fill="#000000" font-family="sans-serif" font-size="12" lengthAdjust="spacing" textLength="95" x="17" y="63.8441">:Profesor Abierto</text></g><!--entity ProfesorPreferenciasSalida--><g id="elem_ProfesorPreferenciasSalida"><rect fill="#CDEBA5" height="36.3441" rx="2.5" ry="2.5" style="stroke:#181818;stroke-width:0.5;" width="189" x="1482" y="155.016"/><text fill="#000000" font-family="sans-serif" font-size="12" lengthAdjust="spacing" textLength="169" x="1492" y="177.8441">:Profesor Preferencias Abierto</text></g><!--link ProfesorAbiertoEntrada to ListarConflictosView--><g id="link_ProfesorAbiertoEntrada_ListarConflictosView"><path d="M122.18,59.016 C237.98,59.016 492.11,59.016 614.49,59.016 " fill="none" id="ProfesorAbiertoEntrada-to-ListarConflictosView" style="stroke:#181818;stroke-width:1.0;"/><polygon fill="#181818" points="620.49,59.016,611.49,55.016,615.49,59.016,611.49,63.016,620.49,59.016" style="stroke:#181818;stroke-width:1.0;"/><text fill="#000000" font-family="sans-serif" font-size="12" lengthAdjust="spacing" textLength="91" x="325.75" y="51.8441">listarConflictos()</text></g><!--link ListarConflictosView to ExamenController--><g id="link_ListarConflictosView_ExamenController"><path d="M620.16,66.646 C490.6,79.606 216.5,107.016 216.5,107.016 C216.5,107.016 216.5,125.016 216.5,125.016 C216.5,125.016 492.3997,152.6093 619.5697,165.3193 " fill="none" id="ListarConflictosView-to-ExamenController" style="stroke:#181818;stroke-width:1.0;"/><polygon fill="#181818" points="625.54,165.916,616.9824,161.0408,620.5648,165.4188,616.1868,169.0011,625.54,165.916" style="stroke:#181818;stroke-width:1.0;"/><text fill="#000000" font-family="sans-serif" font-size="12" lengthAdjust="spacing" textLength="425" x="217.5" y="120.8441">obtenerConflictosDocente(profesor, filtros, pagina) : PagedResult&lt;Conflicto&gt;</text></g><!--link ListarConflictosView to ExamenController--><g id="link_ListarConflictosView_ExamenController"><path d="M685.4,77.246 C684.54,90.666 683.5,107.016 683.5,107.016 C683.5,107.016 683.5,125.016 683.5,125.016 C683.5,125.016 684.1563,135.3783 685.0163,148.7983 " fill="none" id="ListarConflictosView-to-ExamenController-1" style="stroke:#181818;stroke-width:1.0;"/><polygon fill="#181818" points="685.4,154.786,688.8162,145.5486,685.0802,149.7963,680.8326,146.0603,685.4,154.786" style="stroke:#181818;stroke-width:1.0;"/><text fill="#000000" font-family="sans-serif" font-size="12" lengthAdjust="spacing" textLength="313" x="684.5" y="120.8441">obtenerOpcionesResolucion(conflicto) : List&lt;Resolucion&gt;</text></g><!--link ListarConflictosView to ExamenController--><g id="link_ListarConflictosView_ExamenController"><path d="M752.74,69.866 C845.41,83.646 1002.5,107.016 1002.5,107.016 C1002.5,107.016 1002.5,125.016 1002.5,125.016 C1002.5,125.016 844.7448,148.4838 752.9848,162.1238 " fill="none" id="ListarConflictosView-to-ExamenController-2" style="stroke:#181818;stroke-width:1.0;"/><polygon fill="#181818" points="747.05,163.006,756.5403,165.6393,751.9957,162.2709,755.3641,157.7262,747.05,163.006" style="stroke:#181818;stroke-width:1.0;"/><text fill="#000000" font-family="sans-serif" font-size="12" lengthAdjust="spacing" textLength="268" x="1003.5" y="120.8441">resolverConflicto(conflicto, resolucion) : Examen</text></g><!--link ExamenController to ExamenRepository--><g id="link_ExamenController_ExamenRepository"><path d="M625.55,179.826 C493.65,192.406 193.5,221.016 193.5,221.016 C193.5,221.016 193.5,239.016 193.5,239.016 C193.5,239.016 220.7152,252.7694 247.3052,266.2094 " fill="none" id="ExamenController-to-ExamenRepository" style="stroke:#181818;stroke-width:1.0;"/><polygon fill="#181818" points="252.66,268.916,246.4322,261.2862,248.1976,266.6605,242.8233,268.426,252.66,268.916" style="stroke:#181818;stroke-width:1.0;"/><text fill="#000000" font-family="sans-serif" font-size="12" lengthAdjust="spacing" textLength="448" x="194.5" y="234.8441">detectarConflictosPorProfesor(profesor, filtros, pagina) : PagedResult&lt;Conflicto&gt;</text></g><!--link ExamenController to ExamenRepository--><g id="link_ExamenController_ExamenRepository"><path d="M676.25,191.096 C664.7,210.356 647.5,239.016 647.5,239.016 C647.5,239.016 457.7198,263.7212 354.5098,277.1612 " fill="none" id="ExamenController-to-ExamenRepository-1" style="stroke:#181818;stroke-width:1.0;"/><polygon fill="#181818" points="348.56,277.936,358.0012,280.7404,353.5181,277.2904,356.9681,272.8073,348.56,277.936" style="stroke:#181818;stroke-width:1.0;"/><text fill="#000000" font-family="sans-serif" font-size="12" lengthAdjust="spacing" textLength="274" x="658.5" y="234.8441">buscarDisponibilidad(conflicto) : List&lt;Resolucion&gt;</text></g><!--link ExamenController to ExamenRepository--><g id="link_ExamenController_ExamenRepository"><path d="M747.25,185.216 C822.68,199.116 941.5,221.016 941.5,221.016 C941.5,221.016 941.5,239.016 941.5,239.016 C941.5,239.016 518.1946,269.3863 354.6946,281.1263 " fill="none" id="ExamenController-to-ExamenRepository-2" style="stroke:#181818;stroke-width:1.0;"/><polygon fill="#181818" points="348.71,281.556,357.9734,284.9012,353.6972,281.1979,357.4004,276.9217,348.71,281.556" style="stroke:#181818;stroke-width:1.0;"/><text fill="#000000" font-family="sans-serif" font-size="12" lengthAdjust="spacing" textLength="108" x="942.5" y="234.8441">actualizar(examen)</text></g><!--link ExamenRepository to Conflicto--><g id="link_ExamenRepository_Conflicto"><path d="M284.83,305.026 C282.76,326.076 279.26,361.716 277.19,382.846 " fill="none" id="ExamenRepository-Conflicto" style="stroke:#181818;stroke-width:1.0;"/></g><!--link Conflicto to Examen--><g id="link_Conflicto_Examen"><path d="M263.94,419.436 C252.58,436.586 235.32,462.596 223.98,479.706 " fill="none" id="Conflicto-Examen" style="stroke:#181818;stroke-width:1.0;"/></g><!--link ExamenController to PreferenciaRepository--><g id="link_ExamenController_PreferenciaRepository"><path d="M747.26,181.676 C852.95,194.986 1059.5,221.016 1059.5,221.016 C1059.5,221.016 1095.5919,246.2391 1123.1519,265.4991 " fill="none" id="ExamenController-to-PreferenciaRepository" style="stroke:#181818;stroke-width:1.0;"/><polygon fill="#181818" points="1128.07,268.936,1122.9842,260.5019,1123.9716,266.0719,1118.4016,267.0593,1128.07,268.936" style="stroke:#181818;stroke-width:1.0;"/><text fill="#000000" font-family="sans-serif" font-size="12" lengthAdjust="spacing" textLength="295" x="1084.5" y="234.8441">verificarRestricciones(profesor, resolucion) : Boolean</text></g><!--link ExamenController to Examen--><g id="link_ExamenController_Examen"><path d="M625.57,179.736 C492.05,192.256 185.5,221.016 185.5,221.016 C185.5,221.016 185.5,239.016 185.5,239.016 C185.5,239.016 204.0049,415.8687 210.0649,473.7187 " fill="none" id="ExamenController-to-Examen" style="stroke:#181818;stroke-width:1.0;"/><polygon fill="#181818" points="210.69,479.686,213.7306,470.3183,210.1691,474.7132,205.7741,471.1517,210.69,479.686" style="stroke:#181818;stroke-width:1.0;"/><text fill="#000000" font-family="sans-serif" font-size="12" lengthAdjust="spacing" textLength="51" x="197.5" y="348.8441">&#171;update&#187;</text></g><!--link ListarConflictosView to ProfesorPreferenciasSalida--><g id="link_ListarConflictosView_ProfesorPreferenciasSalida"><path d="M752.62,65.246 C907.45,77.496 1280.5,107.016 1280.5,107.016 C1280.5,107.016 1405.1697,134.389 1492.8697,153.649 " fill="none" id="ListarConflictosView-to-ProfesorPreferenciasSalida" style="stroke:#181818;stroke-width:1.0;stroke-dasharray:7.0,7.0;"/><polygon fill="#181818" points="1498.73,154.936,1490.7975,149.0986,1493.8464,153.8635,1489.0815,156.9124,1498.73,154.936" style="stroke:#181818;stroke-width:1.0;"/><text fill="#000000" font-family="sans-serif" font-size="12" lengthAdjust="spacing" textLength="57" x="1360.5" y="120.8441">&#171;finalizar&#187;</text></g><!--SRC=[dLF1Rjim3BthAuZiuW1rWGLhiHf1W3HnJWCMjC3kj4sdGbL9aEHcwR1_dvIuZk0wRHUVPFBnFUgHiezSQZJu10MMZnkZ6bajb506jW_S4RDTtZvWfRPSRg16OUFCacfiX5ifwGwbXV1Smu1x_aBmTH8b1PVaTff0Ax4BFumPAXtAZI3uibZcj_Ch66LhesgoddnUS39EZG0jl0RRM2wTmGePqruVD-IvhKEpKB8Ml7JAvh_nYIJPK3iwbKp68_Z3m7zH7zUJctnr0pzwDRyuRVlGuggehh_3WSv3dL52aEd3LfFvublUmkv8AykTChiJiBMXcWp9akE7sAwzToNPtm-CZYJjeEinu1u53yuFJmHIayu6pSlUp2WPCpQ4XBJo77rNCr25yrEBm4jLadIKwBQL2wYvy71x0HetNE8OCbZxzQZkoFgrd7QbCzQdZqMFlcTGaGlMHQhhuCT1y2nbrXU1D8qcsPr2k1tWEJRzr2LNVibz0qequPoKh_MXkq0vFIO_xqZHs1BDabkj92zus8RgBEh1JS_WcGolkPVm3Cxmyd2Do6hJCGUnMwK4uNzwjATuZdRfU84-Vpk2jrSm7NC6qscZAtGq-xoDMBh6FwKND0djawTUm-Nbx9s76BHhlt1x9Y__3m00]--></g></svg>