<?xml version="1.0" encoding="us-ascii" standalone="no"?><svg xmlns="http://www.w3.org/2000/svg" xmlns:xlink="http://www.w3.org/1999/xlink" contentStyleType="text/css" height="935px" preserveAspectRatio="none" style="width:800px;height:935px;background:#FFFFFF;" version="1.1" viewBox="0 0 800 935" width="800px" zoomAndPan="magnify"><defs/><g><path d="M19.5,7 L774.7801,7 A12.5,12.5 0 0 1 787.2801,19.5 L787.2801,34.6094 L7,34.6094 L7,19.5 A12.5,12.5 0 0 1 19.5,7 " fill="#F1F1F1" style="stroke:#F1F1F1;stroke-width:1.0;"/><rect fill="none" height="775.6094" rx="12.5" ry="12.5" style="stroke:#181818;stroke-width:0.5;" width="780.2801" x="7" y="7"/><line style="stroke:#181818;stroke-width:0.5;" x1="7" x2="787.2801" y1="34.6094" y2="34.6094"/><text fill="#000000" font-family="sans-serif" font-size="14" lengthAdjust="spacing" textLength="116" x="339.1401" y="26.5332">importarAlumnos()</text><g id="importarAlumnos.SeleccionandoArchivo"><rect fill="#F1F1F1" height="50" rx="12.5" ry="12.5" style="stroke:#181818;stroke-width:0.5;" width="50" x="209.2801" y="137.6094"/><line style="stroke:#181818;stroke-width:0.5;" x1="209.2801" x2="259.2801" y1="165.2188" y2="165.2188"/><text fill="#000000" font-family="sans-serif" font-size="14" lengthAdjust="spacing" textLength="4" x="232.2801" y="157.1426">&#160;</text></g><g id="importarAlumnos.ProcesandoImportacion"><rect fill="#F1F1F1" height="50" rx="12.5" ry="12.5" style="stroke:#181818;stroke-width:0.5;" width="50" x="209.2801" y="341.6094"/><line style="stroke:#181818;stroke-width:0.5;" x1="209.2801" x2="259.2801" y1="369.2188" y2="369.2188"/><text fill="#000000" font-family="sans-serif" font-size="14" lengthAdjust="spacing" textLength="4" x="232.2801" y="361.1426">&#160;</text></g><g id="importarAlumnos.MostrandoResultados"><rect fill="#F1F1F1" height="50" rx="12.5" ry="12.5" style="stroke:#181818;stroke-width:0.5;" width="50" x="24.2801" y="513.6094"/><line style="stroke:#181818;stroke-width:0.5;" x1="24.2801" x2="74.2801" y1="541.2188" y2="541.2188"/><text fill="#000000" font-family="sans-serif" font-size="14" lengthAdjust="spacing" textLength="4" x="47.2801" y="533.1426">&#160;</text></g><ellipse cx="234.2801" cy="55.6094" fill="#222222" rx="10" ry="10" style="stroke:#222222;stroke-width:1.0;"/><ellipse cx="259.2801" cy="761.6094" fill="none" rx="11" ry="11" style="stroke:#222222;stroke-width:1.0;"/><ellipse cx="259.2801" cy="761.6094" fill="#222222" rx="6" ry="6" style="stroke:#222222;stroke-width:1.0;"/><!--link *start*importarAlumnos to SeleccionandoArchivo--><g id="link_*start*importarAlumnos_SeleccionandoArchivo"><path d="M234.2801,65.9294 C234.2801,81.7894 234.2801,108.5194 234.2801,131.2494 " fill="none" id="*start*importarAlumnos-to-SeleccionandoArchivo" style="stroke:#008000;stroke-width:1.0;"/><polygon fill="#008000" points="234.2801,137.2494,238.2801,128.2494,234.2801,132.2494,230.2801,128.2494,234.2801,137.2494" style="stroke:#008000;stroke-width:1.0;"/><path d="M239.2801,88.6094 L239.2801,114.6094 L498.2801,114.6094 L498.2801,98.6094 L488.2801,88.6094 L239.2801,88.6094 " fill="#FEFFDD" style="stroke:#181818;stroke-width:0.5;"/><path d="M488.2801,88.6094 L488.2801,98.6094 L498.2801,98.6094 L488.2801,88.6094 " fill="#FEFFDD" style="stroke:#181818;stroke-width:0.5;"/><text fill="#000000" font-family="sans-serif" font-size="13" font-weight="bold" lengthAdjust="spacing" textLength="89" x="245.2801" y="107.1045">Administrador</text><text fill="#000000" font-family="sans-serif" font-size="13" lengthAdjust="spacing" textLength="145" x="338.2801" y="107.1045">solicita importar alumnos</text></g><!--link SeleccionandoArchivo to ProcesandoImportacion--><g id="link_SeleccionandoArchivo_ProcesandoImportacion"><path d="M234.2801,187.9794 C234.2801,226.9094 234.2801,296.6894 234.2801,335.4694 " fill="none" id="SeleccionandoArchivo-to-ProcesandoImportacion" style="stroke:#008000;stroke-width:1.0;"/><polygon fill="#008000" points="234.2801,341.4694,238.2801,332.4694,234.2801,336.4694,230.2801,332.4694,234.2801,341.4694" style="stroke:#008000;stroke-width:1.0;"/><path d="M239.2801,210.6094 L239.2801,318.6094 L503.2801,318.6094 L503.2801,220.6094 L493.2801,210.6094 L239.2801,210.6094 " fill="#FEFFDD" style="stroke:#181818;stroke-width:0.5;"/><path d="M493.2801,210.6094 L493.2801,220.6094 L503.2801,220.6094 L493.2801,210.6094 " fill="#FEFFDD" style="stroke:#181818;stroke-width:0.5;"/><text fill="#000000" font-family="sans-serif" font-size="13" font-weight="bold" lengthAdjust="spacing" textLength="51" x="245.2801" y="229.1045">Sistema</text><text fill="#000000" font-family="sans-serif" font-size="13" lengthAdjust="spacing" textLength="185" x="300.2801" y="229.1045">presenta interfaz de importaci&#243;n</text><text fill="#000000" font-family="sans-serif" font-size="13" lengthAdjust="spacing" textLength="236" x="245.2801" y="245.4561">&#8226; Permite seleccionar archivo CSV/Excel</text><text fill="#000000" font-family="sans-serif" font-size="13" lengthAdjust="spacing" textLength="222" x="245.2801" y="261.8076">&#8226; Muestra formato de archivo requerido</text><text fill="#000000" font-family="sans-serif" font-size="13" lengthAdjust="spacing" textLength="243" x="245.2801" y="278.1592">&#8226; Muestra grados disponibles para asociar</text><text fill="#000000" font-family="sans-serif" font-size="13" lengthAdjust="spacing" textLength="212" x="245.2801" y="294.5107">&#8226; Permite solicitar iniciar importaci&#243;n</text><text fill="#000000" font-family="sans-serif" font-size="13" lengthAdjust="spacing" textLength="227" x="245.2801" y="310.8623">&#8226; Permite solicitar cancelar importaci&#243;n</text></g><!--link ProcesandoImportacion to MostrandoResultados--><g id="link_ProcesandoImportacion_MostrandoResultados"><path d="M209.0701,372.6794 C153.4801,383.8494 25.2801,409.6094 25.2801,409.6094 C25.2801,409.6094 25.2801,494.6094 25.2801,494.6094 C25.2801,494.6094 27.455,498.5107 32.955,508.3607 " fill="none" id="ProcesandoImportacion-to-MostrandoResultados" style="stroke:#008000;stroke-width:1.0;"/><polygon fill="#008000" points="35.8801,513.5994,34.9849,503.7913,33.4425,509.2338,28,507.6915,35.8801,513.5994" style="stroke:#008000;stroke-width:1.0;"/><path d="M30.2801,414.6094 L30.2801,489.6094 L425.2801,489.6094 L425.2801,424.6094 L415.2801,414.6094 L30.2801,414.6094 " fill="#FEFFDD" style="stroke:#181818;stroke-width:0.5;"/><path d="M415.2801,414.6094 L415.2801,424.6094 L425.2801,424.6094 L415.2801,414.6094 " fill="#FEFFDD" style="stroke:#181818;stroke-width:0.5;"/><text fill="#000000" font-family="sans-serif" font-size="13" font-weight="bold" lengthAdjust="spacing" textLength="89" x="36.2801" y="433.1045">Administrador</text><text fill="#000000" font-family="sans-serif" font-size="13" lengthAdjust="spacing" textLength="281" x="129.2801" y="433.1045">introduce selecci&#243;n de archivo y solicita importar</text><text fill="#000000" font-family="sans-serif" font-size="13" font-weight="bold" lengthAdjust="spacing" textLength="51" x="36.2801" y="449.4561">Sistema</text><text fill="#000000" font-family="sans-serif" font-size="13" lengthAdjust="spacing" textLength="248" x="91.2801" y="449.4561">visualiza y procesa el archivo seleccionado</text><text fill="#000000" font-family="sans-serif" font-size="13" font-weight="bold" lengthAdjust="spacing" textLength="51" x="36.2801" y="465.8076">Sistema</text><text fill="#000000" font-family="sans-serif" font-size="13" lengthAdjust="spacing" textLength="202" x="91.2801" y="465.8076">visualiza y valida matr&#237;culas &#250;nicas</text><text fill="#000000" font-family="sans-serif" font-size="13" font-weight="bold" lengthAdjust="spacing" textLength="51" x="36.2801" y="482.1592">Sistema</text><text fill="#000000" font-family="sans-serif" font-size="13" lengthAdjust="spacing" textLength="312" x="91.2801" y="482.1592">visualiza y asigna alumnos a grados correspondientes</text></g><!--link MostrandoResultados to *end*importarAlumnos--><g id="link_MostrandoResultados_*end*importarAlumnos"><path d="M58.7501,563.6594 C79.1201,615.3994 125.2801,732.6094 125.2801,732.6094 C125.2801,732.6094 210.4371,750.4015 242.4371,757.0915 " fill="none" id="MostrandoResultados-to-*end*importarAlumnos" style="stroke:#008000;stroke-width:1.0;"/><polygon fill="#008000" points="248.3101,758.3194,240.3192,752.5623,243.416,757.2962,238.6821,760.393,248.3101,758.3194" style="stroke:#008000;stroke-width:1.0;"/><path d="M130.2801,587.6094 L130.2801,727.6094 L425.2801,727.6094 L425.2801,597.6094 L415.2801,587.6094 L130.2801,587.6094 " fill="#FEFFDD" style="stroke:#181818;stroke-width:0.5;"/><path d="M415.2801,587.6094 L415.2801,597.6094 L425.2801,597.6094 L415.2801,587.6094 " fill="#FEFFDD" style="stroke:#181818;stroke-width:0.5;"/><text fill="#000000" font-family="sans-serif" font-size="13" font-weight="bold" lengthAdjust="spacing" textLength="51" x="136.2801" y="606.1045">Sistema</text><text fill="#000000" font-family="sans-serif" font-size="13" lengthAdjust="spacing" textLength="203" x="191.2801" y="606.1045">presenta resultados de importaci&#243;n</text><text fill="#000000" font-family="sans-serif" font-size="13" lengthAdjust="spacing" textLength="242" x="136.2801" y="622.4561">&#8226; Muestra n&#250;mero de alumnos importados</text><text fill="#000000" font-family="sans-serif" font-size="13" lengthAdjust="spacing" textLength="274" x="136.2801" y="638.8076">&#8226; Muestra alumnos que no se pudieron importar</text><text fill="#000000" font-family="sans-serif" font-size="13" lengthAdjust="spacing" textLength="186" x="136.2801" y="655.1592">&#8226; Muestra matr&#237;culas duplicadas</text><text fill="#000000" font-family="sans-serif" font-size="13" lengthAdjust="spacing" textLength="192" x="136.2801" y="671.5107">&#8226; Muestra grados no encontrados</text><text fill="#000000" font-family="sans-serif" font-size="13" lengthAdjust="spacing" textLength="188" x="136.2801" y="687.8623">&#8226; Permite solicitar revisar errores</text><text fill="#000000" font-family="sans-serif" font-size="13" lengthAdjust="spacing" textLength="222" x="136.2801" y="704.2139">&#8226; Permite solicitar finalizar importaci&#243;n</text><text fill="#000000" font-family="sans-serif" font-size="13" font-weight="bold" lengthAdjust="spacing" textLength="89" x="136.2801" y="720.5654">Administrador</text><text fill="#000000" font-family="sans-serif" font-size="13" lengthAdjust="spacing" textLength="160" x="229.2801" y="720.5654">solicita finalizar importaci&#243;n</text></g><!--link ProcesandoImportacion to *end*importarAlumnos--><g id="link_ProcesandoImportacion_*end*importarAlumnos"><path d="M259.5001,373.0094 C312.4401,384.3594 430.2801,409.6094 430.2801,409.6094 C430.2801,409.6094 430.2801,732.6094 430.2801,732.6094 C430.2801,732.6094 313.3313,751.7597 275.9013,757.8897 " fill="none" id="ProcesandoImportacion-to-*end*importarAlumnos" style="stroke:#FF0000;stroke-width:1.0;"/><polygon fill="#FF0000" points="269.9801,758.8594,279.5083,761.3522,274.9144,758.0513,278.2154,753.4574,269.9801,758.8594" style="stroke:#FF0000;stroke-width:1.0;"/><path d="M435.2801,517.6094 L435.2801,559.6094 L778.2801,559.6094 L778.2801,527.6094 L768.2801,517.6094 L435.2801,517.6094 " fill="#FEFFDD" style="stroke:#181818;stroke-width:0.5;"/><path d="M768.2801,517.6094 L768.2801,527.6094 L778.2801,527.6094 L768.2801,517.6094 " fill="#FEFFDD" style="stroke:#181818;stroke-width:0.5;"/><text fill="#000000" font-family="sans-serif" font-size="13" font-weight="bold" lengthAdjust="spacing" textLength="89" x="441.2801" y="536.1045">Administrador</text><text fill="#000000" font-family="sans-serif" font-size="13" lengthAdjust="spacing" textLength="165" x="534.2801" y="536.1045">solicita cancelar importaci&#243;n</text><text fill="#000000" font-family="sans-serif" font-size="13" font-weight="bold" lengthAdjust="spacing" textLength="51" x="441.2801" y="552.4561">Sistema</text><text fill="#000000" font-family="sans-serif" font-size="13" lengthAdjust="spacing" textLength="267" x="496.2801" y="552.4561">visualiza y descarta el proceso de importaci&#243;n</text></g><g id="ALUMNOS_ABIERTO"><rect fill="#F1F1F1" height="50" rx="12.5" ry="12.5" style="stroke:#181818;stroke-width:0.5;" width="154" x="320" y="879"/><line style="stroke:#181818;stroke-width:0.5;" x1="320" x2="474" y1="906.6094" y2="906.6094"/><text fill="#000000" font-family="sans-serif" font-size="14" lengthAdjust="spacing" textLength="134" x="330" y="898.5332">ALUMNOS_ABIERTO</text></g><!--link importarAlumnos to ALUMNOS_ABIERTO--><g id="link_importarAlumnos_ALUMNOS_ABIERTO"><path d="M322.75,783.01 C319.15,801.78 317,813 317,813 C317,813 317,849 317,849 C317,849 334.9361,861.1144 356.2361,875.4844 " fill="none" id="importarAlumnos-to-ALUMNOS_ABIERTO" style="stroke:#008000;stroke-width:1.0;"/><polygon fill="#008000" points="361.21,878.84,355.9862,870.4906,357.0651,876.0436,351.5121,877.1225,361.21,878.84" style="stroke:#008000;stroke-width:1.0;"/><path d="M322,818 L322,844 L427,844 L427,828 L417,818 L322,818 " fill="#FEFFDD" style="stroke:#181818;stroke-width:0.5;"/><path d="M417,818 L417,828 L427,828 L417,818 " fill="#FEFFDD" style="stroke:#181818;stroke-width:0.5;"/><text fill="#000000" font-family="sans-serif" font-size="13" lengthAdjust="spacing" textLength="84" x="328" y="836.4951">abrirAlumnos()</text></g><!--link importarAlumnos to ALUMNOS_ABIERTO--><g id="link_importarAlumnos_ALUMNOS_ABIERTO"><path d="M433.2,783.01 C434.95,801.78 436,813 436,813 C436,813 436,849 436,849 C436,849 428.3433,859.6062 417.9633,873.9762 " fill="none" id="importarAlumnos-to-ALUMNOS_ABIERTO-1" style="stroke:#FF0000;stroke-width:1.0;"/><polygon fill="#FF0000" points="414.45,878.84,422.9625,873.8865,417.3778,874.7868,416.4774,869.2021,414.45,878.84" style="stroke:#FF0000;stroke-width:1.0;"/><path d="M441,818 L441,844 L582,844 L582,828 L572,818 L441,818 " fill="#FEFFDD" style="stroke:#181818;stroke-width:0.5;"/><path d="M572,818 L572,828 L582,828 L572,818 " fill="#FEFFDD" style="stroke:#181818;stroke-width:0.5;"/><text fill="#000000" font-family="sans-serif" font-size="13" lengthAdjust="spacing" textLength="120" x="447" y="836.4951">cancelar importaci&#243;n</text></g><!--SRC=[ZLNBRjim4BppAmZtqXO8yWE10RV88K3S177RIn0KQtBj4g6uwb8owXG5-YszzzHRhlwJVacNjYnBYgm4FlZ1sTtPcH4Txrt8WI7JtWKirZdgdFmwVL4g5b2WTbbEN01FV9a5YXgY7dL-U_rcf7_iyIDv2MQ67ern521Och3vwbRKHbmp6Opf-6BNBg7Ra2d5WXFY1cFf2x0KbRfzUwTFRbyj6J7SdOpx9mMIBXJIMlVgR3wUsCm5bxfPuhFJ-LX7yiwu0ke5DUosKHYiJlLAzRLkpUxVeJjy9eCnW-tOd35YI6D3WRo01srhZOtR_0tgtw_V-XevSz8arWI4NZN__UppwVbtWtwBd9QOjj8BuWmAIjtsGCPl9RApr08kamHHMnTp2cxkCUgK096RZ0DkZwyqOc7hqka0qnfg80YvBlOWQgzcBLNxR7_UK16KoPQcLat6DkLOFxMyQyxAnHAyUm01vpkQ6dtTuU26Q3fGkf8F5hJumPi_flIIvCsZ20Xng0gYMmROfr3NJXbYoOoOPPq41vlvx16g9QGyAYyB8n_g- -AupqxOF6R8kv1LD2jiigY9t1zB0eMhAAVpKlYp4Ad5R-ARMjao5v_0GkmBhdJ3O2XidOz7CiWeoiexCfFiTWIrS64hVYUgmzV5aQ8Nv9lH7ZDbO5x_upIG8ulHW01JSdSXfYUcrcn_AjMzu9i1cbn-cdwucdsPlBiul_burUODStQ7lu260ZqTgzq7-prpSVm7]--></g></svg>