<?xml version="1.0" encoding="us-ascii" standalone="no"?><svg xmlns="http://www.w3.org/2000/svg" xmlns:xlink="http://www.w3.org/1999/xlink" contentStyleType="text/css" height="664px" preserveAspectRatio="none" style="width:765px;height:664px;background:#FFFFFF;" version="1.1" viewBox="0 0 765 664" width="765px" zoomAndPan="magnify"><defs/><g><path d="M19.5,7 L739.5,7 A12.5,12.5 0 0 1 752,19.5 L752,34.6094 L7,34.6094 L7,19.5 A12.5,12.5 0 0 1 19.5,7 " fill="#F1F1F1" style="stroke:#F1F1F1;stroke-width:1.0;"/><rect fill="none" height="504.6094" rx="12.5" ry="12.5" style="stroke:#181818;stroke-width:0.5;" width="745" x="7" y="7"/><line style="stroke:#181818;stroke-width:0.5;" x1="7" x2="752" y1="34.6094" y2="34.6094"/><text fill="#000000" font-family="sans-serif" font-size="14" lengthAdjust="spacing" textLength="106" x="326.5" y="26.5332">eliminarAlumno()</text><g id="eliminarAlumno.MostrandoConfirmacion"><rect fill="#F1F1F1" height="50" rx="12.5" ry="12.5" style="stroke:#181818;stroke-width:0.5;" width="50" x="188" y="137.6094"/><line style="stroke:#181818;stroke-width:0.5;" x1="188" x2="238" y1="165.2188" y2="165.2188"/><text fill="#000000" font-family="sans-serif" font-size="14" lengthAdjust="spacing" textLength="4" x="211" y="157.1426">&#160;</text></g><g id="eliminarAlumno.ConfirmandoEliminacion"><rect fill="#F1F1F1" height="50" rx="12.5" ry="12.5" style="stroke:#181818;stroke-width:0.5;" width="50" x="188" y="324.6094"/><line style="stroke:#181818;stroke-width:0.5;" x1="188" x2="238" y1="352.2188" y2="352.2188"/><text fill="#000000" font-family="sans-serif" font-size="14" lengthAdjust="spacing" textLength="4" x="211" y="344.1426">&#160;</text></g><ellipse cx="213" cy="55.6094" fill="#222222" rx="10" ry="10" style="stroke:#222222;stroke-width:1.0;"/><ellipse cx="213" cy="490.6094" fill="none" rx="11" ry="11" style="stroke:#222222;stroke-width:1.0;"/><ellipse cx="213" cy="490.6094" fill="#222222" rx="6" ry="6" style="stroke:#222222;stroke-width:1.0;"/><!--link *start*eliminarAlumno to MostrandoConfirmacion--><g id="link_*start*eliminarAlumno_MostrandoConfirmacion"><path d="M213,65.9294 C213,81.7894 213,108.5194 213,131.2494 " fill="none" id="*start*eliminarAlumno-to-MostrandoConfirmacion" style="stroke:#008000;stroke-width:1.0;"/><polygon fill="#008000" points="213,137.2494,217,128.2494,213,132.2494,209,128.2494,213,137.2494" style="stroke:#008000;stroke-width:1.0;"/><path d="M218,88.6094 L218,114.6094 L468,114.6094 L468,98.6094 L458,88.6094 L218,88.6094 " fill="#FEFFDD" style="stroke:#181818;stroke-width:0.5;"/><path d="M458,88.6094 L458,98.6094 L468,98.6094 L458,88.6094 " fill="#FEFFDD" style="stroke:#181818;stroke-width:0.5;"/><text fill="#000000" font-family="sans-serif" font-size="13" font-weight="bold" lengthAdjust="spacing" textLength="89" x="224" y="107.1045">Administrador</text><text fill="#000000" font-family="sans-serif" font-size="13" lengthAdjust="spacing" textLength="136" x="317" y="107.1045">solicita eliminar alumno</text></g><!--link MostrandoConfirmacion to ConfirmandoEliminacion--><g id="link_MostrandoConfirmacion_ConfirmandoEliminacion"><path d="M213,187.7994 C213,223.2494 213,282.9594 213,318.4194 " fill="none" id="MostrandoConfirmacion-to-ConfirmandoEliminacion" style="stroke:#008000;stroke-width:1.0;"/><polygon fill="#008000" points="213,324.4194,217,315.4194,213,319.4194,209,315.4194,213,324.4194" style="stroke:#008000;stroke-width:1.0;"/><path d="M218,210.6094 L218,301.6094 L508,301.6094 L508,220.6094 L498,210.6094 L218,210.6094 " fill="#FEFFDD" style="stroke:#181818;stroke-width:0.5;"/><path d="M498,210.6094 L498,220.6094 L508,220.6094 L498,210.6094 " fill="#FEFFDD" style="stroke:#181818;stroke-width:0.5;"/><text fill="#000000" font-family="sans-serif" font-size="13" font-weight="bold" lengthAdjust="spacing" textLength="51" x="224" y="229.1045">Sistema</text><text fill="#000000" font-family="sans-serif" font-size="13" lengthAdjust="spacing" textLength="214" x="279" y="229.1045">presenta confirmaci&#243;n de eliminaci&#243;n</text><text fill="#000000" font-family="sans-serif" font-size="13" lengthAdjust="spacing" textLength="219" x="224" y="245.4561">&#8226; Muestra datos del alumno a eliminar</text><text fill="#000000" font-family="sans-serif" font-size="13" lengthAdjust="spacing" textLength="178" x="224" y="261.8076">&#8226; Muestra grado y curso actual</text><text fill="#000000" font-family="sans-serif" font-size="13" lengthAdjust="spacing" textLength="229" x="224" y="278.1592">&#8226; Permite solicitar confirmar eliminaci&#243;n</text><text fill="#000000" font-family="sans-serif" font-size="13" lengthAdjust="spacing" textLength="225" x="224" y="294.5107">&#8226; Permite solicitar cancelar eliminaci&#243;n</text></g><!--link ConfirmandoEliminacion to *end*eliminarAlumno--><g id="link_ConfirmandoEliminacion_*end*eliminarAlumno"><path d="M187.91,356.0094 C135.24,367.3594 18,392.6094 18,392.6094 C18,392.6094 18,461.6094 18,461.6094 C18,461.6094 155.4209,481.3366 196.3009,487.2066 " fill="none" id="ConfirmandoEliminacion-to-*end*eliminarAlumno" style="stroke:#008000;stroke-width:1.0;"/><polygon fill="#008000" points="202.24,488.0594,193.8999,482.8208,197.2908,487.3487,192.7628,490.7396,202.24,488.0594" style="stroke:#008000;stroke-width:1.0;"/><path d="M23,397.6094 L23,456.6094 L382,456.6094 L382,407.6094 L372,397.6094 L23,397.6094 " fill="#FEFFDD" style="stroke:#181818;stroke-width:0.5;"/><path d="M372,397.6094 L372,407.6094 L382,407.6094 L372,397.6094 " fill="#FEFFDD" style="stroke:#181818;stroke-width:0.5;"/><text fill="#000000" font-family="sans-serif" font-size="13" font-weight="bold" lengthAdjust="spacing" textLength="89" x="29" y="416.1045">Administrador</text><text fill="#000000" font-family="sans-serif" font-size="13" lengthAdjust="spacing" textLength="167" x="122" y="416.1045">solicita confirmar eliminaci&#243;n</text><text fill="#000000" font-family="sans-serif" font-size="13" font-weight="bold" lengthAdjust="spacing" textLength="51" x="29" y="432.4561">Sistema</text><text fill="#000000" font-family="sans-serif" font-size="13" lengthAdjust="spacing" textLength="283" x="84" y="432.4561">visualiza y elimina el alumno de la base de datos</text><text fill="#000000" font-family="sans-serif" font-size="13" font-weight="bold" lengthAdjust="spacing" textLength="51" x="29" y="448.8076">Sistema</text><text fill="#000000" font-family="sans-serif" font-size="13" lengthAdjust="spacing" textLength="215" x="84" y="448.8076">visualiza y actualiza lista de alumnos</text></g><!--link ConfirmandoEliminacion to *end*eliminarAlumno--><g id="link_ConfirmandoEliminacion_*end*eliminarAlumno"><path d="M238.3,356.7194 C286.56,368.3694 387,392.6094 387,392.6094 C387,392.6094 387,461.6094 387,461.6094 C387,461.6094 267.9038,480.7763 229.8038,486.9063 " fill="none" id="ConfirmandoEliminacion-to-*end*eliminarAlumno-1" style="stroke:#FF0000;stroke-width:1.0;"/><polygon fill="#FF0000" points="223.88,487.8594,233.4011,490.3789,228.8165,487.0651,232.1303,482.4805,223.88,487.8594" style="stroke:#FF0000;stroke-width:1.0;"/><path d="M392,406.1094 L392,448.1094 L743,448.1094 L743,416.1094 L733,406.1094 L392,406.1094 " fill="#FEFFDD" style="stroke:#181818;stroke-width:0.5;"/><path d="M733,406.1094 L733,416.1094 L743,416.1094 L733,406.1094 " fill="#FEFFDD" style="stroke:#181818;stroke-width:0.5;"/><text fill="#000000" font-family="sans-serif" font-size="13" font-weight="bold" lengthAdjust="spacing" textLength="89" x="398" y="424.6045">Administrador</text><text fill="#000000" font-family="sans-serif" font-size="13" lengthAdjust="spacing" textLength="163" x="491" y="424.6045">solicita cancelar eliminaci&#243;n</text><text fill="#000000" font-family="sans-serif" font-size="13" font-weight="bold" lengthAdjust="spacing" textLength="51" x="398" y="440.9561">Sistema</text><text fill="#000000" font-family="sans-serif" font-size="13" lengthAdjust="spacing" textLength="275" x="453" y="440.9561">visualiza y descarta la operaci&#243;n de eliminaci&#243;n</text></g><g id="ALUMNOS_ABIERTO"><rect fill="#F1F1F1" height="50" rx="12.5" ry="12.5" style="stroke:#181818;stroke-width:0.5;" width="154" x="302.5" y="608"/><line style="stroke:#181818;stroke-width:0.5;" x1="302.5" x2="456.5" y1="635.6094" y2="635.6094"/><text fill="#000000" font-family="sans-serif" font-size="14" lengthAdjust="spacing" textLength="134" x="312.5" y="627.5332">ALUMNOS_ABIERTO</text></g><!--link eliminarAlumno to ALUMNOS_ABIERTO--><g id="link_eliminarAlumno_ALUMNOS_ABIERTO"><path d="M307.99,512.14 C302.77,530.5 299.5,542 299.5,542 C299.5,542 299.5,578 299.5,578 C299.5,578 317.4361,590.1144 338.7361,604.4844 " fill="none" id="eliminarAlumno-to-ALUMNOS_ABIERTO" style="stroke:#008000;stroke-width:1.0;"/><polygon fill="#008000" points="343.71,607.84,338.4862,599.4906,339.5651,605.0436,334.0121,606.1225,343.71,607.84" style="stroke:#008000;stroke-width:1.0;"/><path d="M304.5,547 L304.5,573 L409.5,573 L409.5,557 L399.5,547 L304.5,547 " fill="#FEFFDD" style="stroke:#181818;stroke-width:0.5;"/><path d="M399.5,547 L399.5,557 L409.5,557 L399.5,547 " fill="#FEFFDD" style="stroke:#181818;stroke-width:0.5;"/><text fill="#000000" font-family="sans-serif" font-size="13" lengthAdjust="spacing" textLength="84" x="310.5" y="565.4951">abrirAlumnos()</text></g><!--link eliminarAlumno to ALUMNOS_ABIERTO--><g id="link_eliminarAlumno_ALUMNOS_ABIERTO"><path d="M414.36,512.14 C416.91,530.5 418.5,542 418.5,542 C418.5,542 418.5,578 418.5,578 C418.5,578 410.8433,588.6062 400.4633,602.9762 " fill="none" id="eliminarAlumno-to-ALUMNOS_ABIERTO-1" style="stroke:#FF0000;stroke-width:1.0;"/><polygon fill="#FF0000" points="396.95,607.84,405.4625,602.8865,399.8778,603.7868,398.9774,598.2021,396.95,607.84" style="stroke:#FF0000;stroke-width:1.0;"/><path d="M423.5,547 L423.5,573 L562.5,573 L562.5,557 L552.5,547 L423.5,547 " fill="#FEFFDD" style="stroke:#181818;stroke-width:0.5;"/><path d="M552.5,547 L552.5,557 L562.5,557 L552.5,547 " fill="#FEFFDD" style="stroke:#181818;stroke-width:0.5;"/><text fill="#000000" font-family="sans-serif" font-size="13" lengthAdjust="spacing" textLength="118" x="429.5" y="565.4951">cancelar eliminaci&#243;n</text></g><!--SRC=[dLDDIiD05DxFAHvrqmh52vH2b2u4QyNggXHvIPvbw6Gcp2H25S6pU0MFu4qyYM_ID6tIjFwGpKpolUzl9cufTOeM4r1IKxPA2LAZLduZXCim8o0b4wdH1YfFj05qqAc_wlOwyB91T_XXoDYupAAEpONHZz8c64cZwv3D5mQDrdm5HinEvz2VdImiaPxtXmUej64cextjfHY4mo1c1kcHiR63it08pYWPoGoh0825NK4w1ZykH2jrJVo0oQRwb9KfmK8tjUH8isvKaNv-Q8Yh9ekz-7fxXt5EtW34c1d725LQXAtf6cxXqy4Aejmw1aLPZge0t91D95lQPBQLkDrNRG6ZZaWriTkUsbke5SMdzfSpEM2lKUMJT9nGFYDdBd6mBOaRLGWXElBBeiDZ1Ekw_5en0ltCciZzAgcb-3yvMvizuZ8c5w7bIOvcKh87Ra_b-5M8nW-wUoh1rVtuUZ9z2CulHxTtaxfp3AqiXrotjrF2Fc4P_YZT3vVe6m00]--></g></svg>