<?xml version="1.0" encoding="us-ascii" standalone="no"?><svg xmlns="http://www.w3.org/2000/svg" xmlns:xlink="http://www.w3.org/1999/xlink" contentStyleType="text/css" height="697px" preserveAspectRatio="none" style="width:726px;height:697px;background:#FFFFFF;" version="1.1" viewBox="0 0 726 697" width="726px" zoomAndPan="magnify"><defs/><g><path d="M19.5,7 L700.5,7 A12.5,12.5 0 0 1 713,19.5 L713,34.6094 L7,34.6094 L7,19.5 A12.5,12.5 0 0 1 19.5,7 " fill="#F1F1F1" style="stroke:#F1F1F1;stroke-width:1.0;"/><rect fill="none" height="537.6094" rx="12.5" ry="12.5" style="stroke:#181818;stroke-width:0.5;" width="706" x="7" y="7"/><line style="stroke:#181818;stroke-width:0.5;" x1="7" x2="713" y1="34.6094" y2="34.6094"/><text fill="#000000" font-family="sans-serif" font-size="14" lengthAdjust="spacing" textLength="170" x="275" y="26.5332">asignarProfesorAExamen()</text><g id="asignarProfesorAExamen.SeleccionandoProfesor"><rect fill="#F1F1F1" height="50" rx="12.5" ry="12.5" style="stroke:#181818;stroke-width:0.5;" width="50" x="159" y="137.6094"/><line style="stroke:#181818;stroke-width:0.5;" x1="159" x2="209" y1="165.2188" y2="165.2188"/><text fill="#000000" font-family="sans-serif" font-size="14" lengthAdjust="spacing" textLength="4" x="182" y="157.1426">&#160;</text></g><g id="asignarProfesorAExamen.AsignandoExamen"><rect fill="#F1F1F1" height="50" rx="12.5" ry="12.5" style="stroke:#181818;stroke-width:0.5;" width="50" x="159" y="341.6094"/><line style="stroke:#181818;stroke-width:0.5;" x1="159" x2="209" y1="369.2188" y2="369.2188"/><text fill="#000000" font-family="sans-serif" font-size="14" lengthAdjust="spacing" textLength="4" x="182" y="361.1426">&#160;</text></g><ellipse cx="184" cy="55.6094" fill="#222222" rx="10" ry="10" style="stroke:#222222;stroke-width:1.0;"/><ellipse cx="184" cy="523.6094" fill="none" rx="11" ry="11" style="stroke:#222222;stroke-width:1.0;"/><ellipse cx="184" cy="523.6094" fill="#222222" rx="6" ry="6" style="stroke:#222222;stroke-width:1.0;"/><!--link *start*asignarProfesorAExamen to SeleccionandoProfesor--><g id="link_*start*asignarProfesorAExamen_SeleccionandoProfesor"><path d="M184,65.9294 C184,81.7894 184,108.5194 184,131.2494 " fill="none" id="*start*asignarProfesorAExamen-to-SeleccionandoProfesor" style="stroke:#008000;stroke-width:1.0;"/><polygon fill="#008000" points="184,137.2494,188,128.2494,184,132.2494,180,128.2494,184,137.2494" style="stroke:#008000;stroke-width:1.0;"/><path d="M189,88.6094 L189,114.6094 L501,114.6094 L501,98.6094 L491,88.6094 L189,88.6094 " fill="#FEFFDD" style="stroke:#181818;stroke-width:0.5;"/><path d="M491,88.6094 L491,98.6094 L501,98.6094 L491,88.6094 " fill="#FEFFDD" style="stroke:#181818;stroke-width:0.5;"/><text fill="#000000" font-family="sans-serif" font-size="13" font-weight="bold" lengthAdjust="spacing" textLength="89" x="195" y="107.1045">Administrador</text><text fill="#000000" font-family="sans-serif" font-size="13" lengthAdjust="spacing" textLength="198" x="288" y="107.1045">solicita asignar profesor a examen</text></g><!--link SeleccionandoProfesor to AsignandoExamen--><g id="link_SeleccionandoProfesor_AsignandoExamen"><path d="M158.72,170.7294 C116.21,182.7194 35,205.6094 35,205.6094 C35,205.6094 35,323.6094 35,323.6094 C35,323.6094 110.4353,344.8706 152.9453,356.8606 " fill="none" id="SeleccionandoProfesor-to-AsignandoExamen" style="stroke:#008000;stroke-width:1.0;"/><polygon fill="#008000" points="158.72,358.4894,151.1438,352.1964,153.9078,357.1321,148.9721,359.896,158.72,358.4894" style="stroke:#008000;stroke-width:1.0;"/><path d="M40,210.6094 L40,318.6094 L308,318.6094 L308,220.6094 L298,210.6094 L40,210.6094 " fill="#FEFFDD" style="stroke:#181818;stroke-width:0.5;"/><path d="M298,210.6094 L298,220.6094 L308,220.6094 L298,210.6094 " fill="#FEFFDD" style="stroke:#181818;stroke-width:0.5;"/><text fill="#000000" font-family="sans-serif" font-size="13" font-weight="bold" lengthAdjust="spacing" textLength="51" x="46" y="229.1045">Sistema</text><text fill="#000000" font-family="sans-serif" font-size="13" lengthAdjust="spacing" textLength="180" x="101" y="229.1045">presenta interfaz de asignaci&#243;n</text><text fill="#000000" font-family="sans-serif" font-size="13" lengthAdjust="spacing" textLength="236" x="46" y="245.4561">&#8226; Permite seleccionar profesor disponible</text><text fill="#000000" font-family="sans-serif" font-size="13" lengthAdjust="spacing" textLength="209" x="46" y="261.8076">&#8226; Muestra disponibilidad del profesor</text><text fill="#000000" font-family="sans-serif" font-size="13" lengthAdjust="spacing" textLength="247" x="46" y="278.1592">&#8226; Muestra ex&#225;menes sin profesor asignado</text><text fill="#000000" font-family="sans-serif" font-size="13" lengthAdjust="spacing" textLength="171" x="46" y="294.5107">&#8226; Permite solicitar pre-asignar</text><text fill="#000000" font-family="sans-serif" font-size="13" lengthAdjust="spacing" textLength="222" x="46" y="310.8623">&#8226; Permite solicitar cancelar asignaci&#243;n</text></g><!--link AsignandoExamen to SeleccionandoProfesor--><g id="link_AsignandoExamen_SeleccionandoProfesor"><path d="M209.18,357.4094 C246.72,345.1894 313,323.6094 313,323.6094 C313,323.6094 313,205.6094 313,205.6094 C313,205.6094 252.4253,185.8866 214.8853,173.6666 " fill="none" id="AsignandoExamen-to-SeleccionandoProfesor" style="stroke:#008000;stroke-width:1.0;"/><polygon fill="#008000" points="209.18,171.8094,216.4999,178.3987,213.9344,173.357,218.9761,170.7916,209.18,171.8094" style="stroke:#008000;stroke-width:1.0;"/><path d="M318,227.1094 L318,302.1094 L678,302.1094 L678,237.1094 L668,227.1094 L318,227.1094 " fill="#FEFFDD" style="stroke:#181818;stroke-width:0.5;"/><path d="M668,227.1094 L668,237.1094 L678,237.1094 L668,227.1094 " fill="#FEFFDD" style="stroke:#181818;stroke-width:0.5;"/><text fill="#000000" font-family="sans-serif" font-size="13" font-weight="bold" lengthAdjust="spacing" textLength="89" x="324" y="245.6045">Administrador</text><text fill="#000000" font-family="sans-serif" font-size="13" lengthAdjust="spacing" textLength="180" x="417" y="245.6045">introduce selecci&#243;n de profesor</text><text fill="#000000" font-family="sans-serif" font-size="13" font-weight="bold" lengthAdjust="spacing" textLength="51" x="324" y="261.9561">Sistema</text><text fill="#000000" font-family="sans-serif" font-size="13" lengthAdjust="spacing" textLength="185" x="379" y="261.9561">visualiza y verifica disponibilidad</text><text fill="#000000" font-family="sans-serif" font-size="13" lengthAdjust="spacing" textLength="339" x="324" y="278.3076">&lt;/b&gt;Sistema&lt;/b&gt; presenta confirmaci&#243;n de pre-asignaci&#243;n</text><text fill="#000000" font-family="sans-serif" font-size="13" lengthAdjust="spacing" textLength="301" x="324" y="294.6592">&lt;/b&gt;Administrador&lt;/b&gt; solicita asignar otro profesor</text></g><!--link AsignandoExamen to *end*asignarProfesorAExamen--><g id="link_AsignandoExamen_*end*asignarProfesorAExamen"><path d="M158.79,373.9894 C112.35,385.7394 18,409.6094 18,409.6094 C18,409.6094 18,494.6094 18,494.6094 C18,494.6094 130.2636,513.5413 167.1936,519.7713 " fill="none" id="AsignandoExamen-to-*end*asignarProfesorAExamen" style="stroke:#008000;stroke-width:1.0;"/><polygon fill="#008000" points="173.11,520.7694,164.9008,515.328,168.1797,519.9376,163.57,523.2165,173.11,520.7694" style="stroke:#008000;stroke-width:1.0;"/><path d="M23,414.6094 L23,489.6094 L324,489.6094 L324,424.6094 L314,414.6094 L23,414.6094 " fill="#FEFFDD" style="stroke:#181818;stroke-width:0.5;"/><path d="M314,414.6094 L314,424.6094 L324,424.6094 L314,414.6094 " fill="#FEFFDD" style="stroke:#181818;stroke-width:0.5;"/><text fill="#000000" font-family="sans-serif" font-size="13" font-weight="bold" lengthAdjust="spacing" textLength="89" x="29" y="433.1045">Administrador</text><text fill="#000000" font-family="sans-serif" font-size="13" lengthAdjust="spacing" textLength="164" x="122" y="433.1045">solicita confirmar asignaci&#243;n</text><text fill="#000000" font-family="sans-serif" font-size="13" font-weight="bold" lengthAdjust="spacing" textLength="51" x="29" y="449.4561">Sistema</text><text fill="#000000" font-family="sans-serif" font-size="13" lengthAdjust="spacing" textLength="216" x="84" y="449.4561">visualiza y asigna profesor al examen</text><text fill="#000000" font-family="sans-serif" font-size="13" font-weight="bold" lengthAdjust="spacing" textLength="51" x="29" y="465.8076">Sistema</text><text fill="#000000" font-family="sans-serif" font-size="13" lengthAdjust="spacing" textLength="193" x="84" y="465.8076">visualiza y actualiza el calendario</text><text fill="#000000" font-family="sans-serif" font-size="13" font-weight="bold" lengthAdjust="spacing" textLength="51" x="29" y="482.1592">Sistema</text><text fill="#000000" font-family="sans-serif" font-size="13" lengthAdjust="spacing" textLength="225" x="84" y="482.1592">visualiza y notifica al profesor asignado</text></g><!--link AsignandoExamen to *end*asignarProfesorAExamen--><g id="link_AsignandoExamen_*end*asignarProfesorAExamen"><path d="M209.26,374.9294 C250.8,386.9594 329,409.6094 329,409.6094 C329,409.6094 329,494.6094 329,494.6094 C329,494.6094 234.5109,512.8503 200.7909,519.3703 " fill="none" id="AsignandoExamen-to-*end*asignarProfesorAExamen-1" style="stroke:#FF0000;stroke-width:1.0;"/><polygon fill="#FF0000" points="194.9,520.5094,204.4957,522.7281,199.8091,519.5602,202.977,514.8735,194.9,520.5094" style="stroke:#FF0000;stroke-width:1.0;"/><path d="M334,422.6094 L334,481.6094 L704,481.6094 L704,432.6094 L694,422.6094 L334,422.6094 " fill="#FEFFDD" style="stroke:#181818;stroke-width:0.5;"/><path d="M694,422.6094 L694,432.6094 L704,432.6094 L694,422.6094 " fill="#FEFFDD" style="stroke:#181818;stroke-width:0.5;"/><text fill="#000000" font-family="sans-serif" font-size="13" font-weight="bold" lengthAdjust="spacing" textLength="89" x="340" y="441.1045">Administrador</text><text fill="#000000" font-family="sans-serif" font-size="13" lengthAdjust="spacing" textLength="160" x="433" y="441.1045">solicita cancelar asignaci&#243;n</text><text fill="#000000" font-family="sans-serif" font-size="13" font-weight="bold" lengthAdjust="spacing" textLength="51" x="340" y="457.4561">Sistema</text><text fill="#000000" font-family="sans-serif" font-size="13" lengthAdjust="spacing" textLength="194" x="395" y="457.4561">visualiza y descarta la asignaci&#243;n</text><text fill="#000000" font-family="sans-serif" font-size="13" font-weight="bold" lengthAdjust="spacing" textLength="51" x="340" y="473.8076">Sistema</text><text fill="#000000" font-family="sans-serif" font-size="13" lengthAdjust="spacing" textLength="294" x="395" y="473.8076">visualiza y mantiene examen sin profesor asignado</text></g><g id="PROFESOR_EXAMENES_ABIERTO"><rect fill="#F1F1F1" height="50" rx="12.5" ry="12.5" style="stroke:#181818;stroke-width:0.5;" width="247" x="236.5" y="641"/><line style="stroke:#181818;stroke-width:0.5;" x1="236.5" x2="483.5" y1="668.6094" y2="668.6094"/><text fill="#000000" font-family="sans-serif" font-size="14" lengthAdjust="spacing" textLength="227" x="246.5" y="660.5332">PROFESOR_EXAMENES_ABIERTO</text></g><!--link asignarProfesorAExamen to PROFESOR_EXAMENES_ABIERTO--><g id="link_asignarProfesorAExamen_PROFESOR_EXAMENES_ABIERTO"><path d="M286.24,545.06 C281.16,563.52 278,575 278,575 C278,575 278,611 278,611 C278,611 296.4677,623.172 318.3077,637.542 " fill="none" id="asignarProfesorAExamen-to-PROFESOR_EXAMENES_ABIERTO" style="stroke:#008000;stroke-width:1.0;"/><polygon fill="#008000" points="323.32,640.84,318.0001,632.5515,319.1431,638.0917,313.6029,639.2346,323.32,640.84" style="stroke:#008000;stroke-width:1.0;"/><path d="M283,580 L283,606 L392,606 L392,590 L382,580 L283,580 " fill="#FEFFDD" style="stroke:#181818;stroke-width:0.5;"/><path d="M382,580 L382,590 L392,590 L382,580 " fill="#FEFFDD" style="stroke:#181818;stroke-width:0.5;"/><text fill="#000000" font-family="sans-serif" font-size="13" lengthAdjust="spacing" textLength="88" x="289" y="598.4951">editarProfesor()</text></g><!--link asignarProfesorAExamen to PROFESOR_EXAMENES_ABIERTO--><g id="link_asignarProfesorAExamen_PROFESOR_EXAMENES_ABIERTO"><path d="M396.88,545.06 C399.42,563.52 401,575 401,575 C401,575 401,611 401,611 C401,611 392.8902,621.6928 381.9702,636.0628 " fill="none" id="asignarProfesorAExamen-to-PROFESOR_EXAMENES_ABIERTO-1" style="stroke:#FF0000;stroke-width:1.0;"/><polygon fill="#FF0000" points="378.34,640.84,386.9701,636.0944,381.3652,636.859,380.6006,631.2541,378.34,640.84" style="stroke:#FF0000;stroke-width:1.0;"/><path d="M406,580 L406,606 L542,606 L542,590 L532,580 L406,580 " fill="#FEFFDD" style="stroke:#181818;stroke-width:0.5;"/><path d="M532,580 L532,590 L542,590 L532,580 " fill="#FEFFDD" style="stroke:#181818;stroke-width:0.5;"/><text fill="#000000" font-family="sans-serif" font-size="13" lengthAdjust="spacing" textLength="115" x="412" y="598.4951">cancelar asignaci&#243;n</text></g><!--SRC=[hPHHQjj048RVznIB-v8KJ2yG32geq8VKnkv38OGmtXs78QjPiIk7EANGgxHNw15oavwa8rjI9249jnI_sDBC_F__xQpZ0t4E0JBjYB4uvAXpxmxb3wLY0GLgY7JF45R1xp3waAHFa27BOpqRVdLnETDVw-wPVAHqWmwD8S_0rjVrtPBaE4nUdwOeTVFsLizltjm7HBwTBqPci9SHdal_3-fgkqXiHaon261zk7gtNUZe7Hage4wYywfNWyQJ5hBLvI2b1aKwDle- -mOs8euP7ANpW15Pf8aB33jurhO6QkZb5wlVtt_g5OQCP4Pif5iMBSNSCsqT7cklzrX6QnwJ8mjMfhgcfLE7Joy_n2H67ObRmOyMhE_gLvnATPnNi4Og3B111w4JvfLYZz5_EKP16BpTcmQKI9OuczmzzeyKz-3e6VH1FsAW7Pa-DrKM3fwNyRoZa45BfKPoobgMdx5gNZo_EZmFaEpztsnrRRLx5XCmJcMjPN3rDPXgCaNrNLRDW9Ce4CXFjKY64tHm0vitoIAW_HSIGqivOT1YD12aqS6vBHbmGNAVAc8Zjwh9zasfaR_Fze6lriiFwMQvlak_9DVfftHpbxp_cAu_BxlXqPPNhnvqSTb2E2vIaJnJOlfQ_m40]--></g></svg>