<?xml version="1.0" encoding="us-ascii" standalone="no"?><svg xmlns="http://www.w3.org/2000/svg" xmlns:xlink="http://www.w3.org/1999/xlink" contentStyleType="text/css" height="697px" preserveAspectRatio="none" style="width:675px;height:697px;background:#FFFFFF;" version="1.1" viewBox="0 0 675 697" width="675px" zoomAndPan="magnify"><defs/><g><path d="M19.5,7 L649.5,7 A12.5,12.5 0 0 1 662,19.5 L662,34.6094 L7,34.6094 L7,19.5 A12.5,12.5 0 0 1 19.5,7 " fill="#F1F1F1" style="stroke:#F1F1F1;stroke-width:1.0;"/><rect fill="none" height="537.6094" rx="12.5" ry="12.5" style="stroke:#181818;stroke-width:0.5;" width="655" x="7" y="7"/><line style="stroke:#181818;stroke-width:0.5;" x1="7" x2="662" y1="34.6094" y2="34.6094"/><text fill="#000000" font-family="sans-serif" font-size="14" lengthAdjust="spacing" textLength="167" x="251" y="26.5332">listarConflictosExamenes()</text><g id="listarConflictosExamenes.MostrandoConflictos"><rect fill="#F1F1F1" height="50" rx="12.5" ry="12.5" style="stroke:#181818;stroke-width:0.5;" width="50" x="155" y="137.6094"/><line style="stroke:#181818;stroke-width:0.5;" x1="155" x2="205" y1="165.2188" y2="165.2188"/><text fill="#000000" font-family="sans-serif" font-size="14" lengthAdjust="spacing" textLength="4" x="178" y="157.1426">&#160;</text></g><g id="listarConflictosExamenes.ResolviendoConflictos"><rect fill="#F1F1F1" height="50" rx="12.5" ry="12.5" style="stroke:#181818;stroke-width:0.5;" width="50" x="155" y="357.6094"/><line style="stroke:#181818;stroke-width:0.5;" x1="155" x2="205" y1="385.2188" y2="385.2188"/><text fill="#000000" font-family="sans-serif" font-size="14" lengthAdjust="spacing" textLength="4" x="178" y="377.1426">&#160;</text></g><ellipse cx="180" cy="55.6094" fill="#222222" rx="10" ry="10" style="stroke:#222222;stroke-width:1.0;"/><ellipse cx="180" cy="523.6094" fill="none" rx="11" ry="11" style="stroke:#222222;stroke-width:1.0;"/><ellipse cx="180" cy="523.6094" fill="#222222" rx="6" ry="6" style="stroke:#222222;stroke-width:1.0;"/><!--link *start*listarConflictosExamenes to MostrandoConflictos--><g id="link_*start*listarConflictosExamenes_MostrandoConflictos"><path d="M180,65.9294 C180,81.7894 180,108.5194 180,131.2494 " fill="none" id="*start*listarConflictosExamenes-to-MostrandoConflictos" style="stroke:#008000;stroke-width:1.0;"/><polygon fill="#008000" points="180,137.2494,184,128.2494,180,132.2494,176,128.2494,180,137.2494" style="stroke:#008000;stroke-width:1.0;"/><path d="M185,88.6094 L185,114.6094 L431,114.6094 L431,98.6094 L421,88.6094 L185,88.6094 " fill="#FEFFDD" style="stroke:#181818;stroke-width:0.5;"/><path d="M421,88.6094 L421,98.6094 L431,98.6094 L421,88.6094 " fill="#FEFFDD" style="stroke:#181818;stroke-width:0.5;"/><text fill="#000000" font-family="sans-serif" font-size="13" font-weight="bold" lengthAdjust="spacing" textLength="89" x="191" y="107.1045">Administrador</text><text fill="#000000" font-family="sans-serif" font-size="13" lengthAdjust="spacing" textLength="132" x="284" y="107.1045">solicita listar conflictos</text></g><!--link MostrandoConflictos to ResolviendoConflictos--><g id="link_MostrandoConflictos_ResolviendoConflictos"><path d="M154.69,170.1694 C109.12,181.9894 18,205.6094 18,205.6094 C18,205.6094 18,339.6094 18,339.6094 C18,339.6094 103.3122,361.7229 148.8822,373.5429 " fill="none" id="MostrandoConflictos-to-ResolviendoConflictos" style="stroke:#008000;stroke-width:1.0;"/><polygon fill="#008000" points="154.69,375.0494,146.9826,368.9178,149.8502,373.794,144.974,376.6616,154.69,375.0494" style="stroke:#008000;stroke-width:1.0;"/><path d="M23,210.6094 L23,334.6094 L316,334.6094 L316,220.6094 L306,210.6094 L23,210.6094 " fill="#FEFFDD" style="stroke:#181818;stroke-width:0.5;"/><path d="M306,210.6094 L306,220.6094 L316,220.6094 L306,210.6094 " fill="#FEFFDD" style="stroke:#181818;stroke-width:0.5;"/><text fill="#000000" font-family="sans-serif" font-size="13" font-weight="bold" lengthAdjust="spacing" textLength="51" x="29" y="229.1045">Sistema</text><text fill="#000000" font-family="sans-serif" font-size="13" lengthAdjust="spacing" textLength="155" x="84" y="229.1045">presenta lista de conflictos</text><text fill="#000000" font-family="sans-serif" font-size="13" lengthAdjust="spacing" textLength="176" x="29" y="245.4561">&#8226; Muestra conflictos de horario</text><text fill="#000000" font-family="sans-serif" font-size="13" lengthAdjust="spacing" textLength="193" x="29" y="261.8076">&#8226; Muestra sobreposici&#243;n de aulas</text><text fill="#000000" font-family="sans-serif" font-size="13" lengthAdjust="spacing" textLength="197" x="29" y="278.1592">&#8226; Muestra conflictos de profesores</text><text fill="#000000" font-family="sans-serif" font-size="13" lengthAdjust="spacing" textLength="272" x="29" y="294.5107">&#8226; Muestra estudiantes con m&#250;ltiples ex&#225;menes</text><text fill="#000000" font-family="sans-serif" font-size="13" lengthAdjust="spacing" textLength="235" x="29" y="310.8623">&#8226; Permite solicitar resolver cada conflicto</text><text fill="#000000" font-family="sans-serif" font-size="13" lengthAdjust="spacing" textLength="168" x="29" y="327.2139">&#8226; Permite solicitar cerrar lista</text></g><!--link ResolviendoConflictos to MostrandoConflictos--><g id="link_ResolviendoConflictos_MostrandoConflictos"><path d="M205.21,374.0994 C245.76,362.0194 321,339.6094 321,339.6094 C321,339.6094 321,205.6094 321,205.6094 C321,205.6094 251.5103,184.9124 210.9603,172.8324 " fill="none" id="ResolviendoConflictos-to-MostrandoConflictos" style="stroke:#008000;stroke-width:1.0;"/><polygon fill="#008000" points="205.21,171.1194,212.6934,177.5224,210.0019,172.5469,214.9774,169.8554,205.21,171.1194" style="stroke:#008000;stroke-width:1.0;"/><path d="M326,218.6094 L326,326.6094 L653,326.6094 L653,228.6094 L643,218.6094 L326,218.6094 " fill="#FEFFDD" style="stroke:#181818;stroke-width:0.5;"/><path d="M643,218.6094 L643,228.6094 L653,228.6094 L643,218.6094 " fill="#FEFFDD" style="stroke:#181818;stroke-width:0.5;"/><text fill="#000000" font-family="sans-serif" font-size="13" font-weight="bold" lengthAdjust="spacing" textLength="89" x="332" y="237.1045">Administrador</text><text fill="#000000" font-family="sans-serif" font-size="13" lengthAdjust="spacing" textLength="203" x="425" y="237.1045">solicita resolver conflicto espec&#237;fico</text><text fill="#000000" font-family="sans-serif" font-size="13" font-weight="bold" lengthAdjust="spacing" textLength="51" x="332" y="253.4561">Sistema</text><text fill="#000000" font-family="sans-serif" font-size="13" lengthAdjust="spacing" textLength="251" x="387" y="253.4561">visualiza y presenta opciones de resoluci&#243;n</text><text fill="#000000" font-family="sans-serif" font-size="13" font-weight="bold" lengthAdjust="spacing" textLength="51" x="332" y="269.8076">Sistema</text><text fill="#000000" font-family="sans-serif" font-size="13" lengthAdjust="spacing" textLength="181" x="387" y="269.8076">permite modificar horario o aula</text><text fill="#000000" font-family="sans-serif" font-size="13" font-weight="bold" lengthAdjust="spacing" textLength="89" x="332" y="286.1592">Administrador</text><text fill="#000000" font-family="sans-serif" font-size="13" lengthAdjust="spacing" textLength="204" x="425" y="286.1592">introduce cambios y solicita aplicar</text><text fill="#000000" font-family="sans-serif" font-size="13" font-weight="bold" lengthAdjust="spacing" textLength="51" x="332" y="302.5107">Sistema</text><text fill="#000000" font-family="sans-serif" font-size="13" lengthAdjust="spacing" textLength="193" x="387" y="302.5107">visualiza y actualiza el calendario</text><text fill="#000000" font-family="sans-serif" font-size="13" font-weight="bold" lengthAdjust="spacing" textLength="51" x="332" y="318.8623">Sistema</text><text fill="#000000" font-family="sans-serif" font-size="13" lengthAdjust="spacing" textLength="149" x="387" y="318.8623">muestra conflicto resuelto</text></g><!--link ResolviendoConflictos to *end*listarConflictosExamenes--><g id="link_ResolviendoConflictos_*end*listarConflictosExamenes"><path d="M180,407.8194 C180,438.6194 180,484.4494 180,506.3494 " fill="none" id="ResolviendoConflictos-to-*end*listarConflictosExamenes" style="stroke:#008000;stroke-width:1.0;"/><polygon fill="#008000" points="180,512.3494,184,503.3494,180,507.3494,176,503.3494,180,512.3494" style="stroke:#008000;stroke-width:1.0;"/><path d="M185,430.6094 L185,489.6094 L480,489.6094 L480,440.6094 L470,430.6094 L185,430.6094 " fill="#FEFFDD" style="stroke:#181818;stroke-width:0.5;"/><path d="M470,430.6094 L470,440.6094 L480,440.6094 L470,430.6094 " fill="#FEFFDD" style="stroke:#181818;stroke-width:0.5;"/><text fill="#000000" font-family="sans-serif" font-size="13" font-weight="bold" lengthAdjust="spacing" textLength="89" x="191" y="449.1045">Administrador</text><text fill="#000000" font-family="sans-serif" font-size="13" lengthAdjust="spacing" textLength="106" x="284" y="449.1045">solicita cerrar lista</text><text fill="#000000" font-family="sans-serif" font-size="13" font-weight="bold" lengthAdjust="spacing" textLength="51" x="191" y="465.4561">Sistema</text><text fill="#000000" font-family="sans-serif" font-size="13" lengthAdjust="spacing" textLength="217" x="246" y="465.4561">visualiza y cierra la vista de conflictos</text><text fill="#000000" font-family="sans-serif" font-size="13" font-weight="bold" lengthAdjust="spacing" textLength="51" x="191" y="481.8076">Sistema</text><text fill="#000000" font-family="sans-serif" font-size="13" lengthAdjust="spacing" textLength="219" x="246" y="481.8076">visualiza y guarda cambios realizados</text></g><g id="PROFESOR_PREFERENCIAS_ABIERTO"><rect fill="#F1F1F1" height="50" rx="12.5" ry="12.5" style="stroke:#181818;stroke-width:0.5;" width="279" x="66" y="641"/><line style="stroke:#181818;stroke-width:0.5;" x1="66" x2="345" y1="668.6094" y2="668.6094"/><text fill="#000000" font-family="sans-serif" font-size="14" lengthAdjust="spacing" textLength="259" x="76" y="660.5332">PROFESOR_PREFERENCIAS_ABIERTO</text></g><g id="PROFESOR_ABIERTO"><rect fill="#F1F1F1" height="50" rx="12.5" ry="12.5" style="stroke:#181818;stroke-width:0.5;" width="166" x="380.5" y="641"/><line style="stroke:#181818;stroke-width:0.5;" x1="380.5" x2="546.5" y1="668.6094" y2="668.6094"/><text fill="#000000" font-family="sans-serif" font-size="14" lengthAdjust="spacing" textLength="146" x="390.5" y="660.5332">PROFESOR_ABIERTO</text></g><!--link listarConflictosExamenes to PROFESOR_PREFERENCIAS_ABIERTO--><g id="link_listarConflictosExamenes_PROFESOR_PREFERENCIAS_ABIERTO"><path d="M245.34,545.16 C232.24,584.58 222.6219,613.4961 215.3919,635.2561 " fill="none" id="listarConflictosExamenes-to-PROFESOR_PREFERENCIAS_ABIERTO" style="stroke:#008000;stroke-width:1.0;"/><polygon fill="#008000" points="213.5,640.95,220.1338,633.6704,215.0766,636.2051,212.5419,631.1479,213.5,640.95" style="stroke:#008000;stroke-width:1.0;"/><path d="M238.5,580 L238.5,606 L383.5,606 L383.5,590 L373.5,580 L238.5,580 " fill="#FEFFDD" style="stroke:#181818;stroke-width:0.5;"/><path d="M373.5,580 L373.5,590 L383.5,590 L373.5,580 " fill="#FEFFDD" style="stroke:#181818;stroke-width:0.5;"/><text fill="#000000" font-family="sans-serif" font-size="13" lengthAdjust="spacing" textLength="124" x="244.5" y="598.4951">abrirEdicionProfesor()</text></g><!--link listarConflictosExamenes to PROFESOR_ABIERTO--><g id="link_listarConflictosExamenes_PROFESOR_ABIERTO"><path d="M423.66,545.16 C436.76,584.58 446.3781,613.4961 453.6081,635.2561 " fill="none" id="listarConflictosExamenes-to-PROFESOR_ABIERTO" style="stroke:#008000;stroke-width:1.0;"/><polygon fill="#008000" points="455.5,640.95,456.4581,631.1479,453.9234,636.2051,448.8662,633.6704,455.5,640.95" style="stroke:#008000;stroke-width:1.0;"/><path d="M449.5,580 L449.5,606 L558.5,606 L558.5,590 L548.5,580 L449.5,580 " fill="#FEFFDD" style="stroke:#181818;stroke-width:0.5;"/><path d="M548.5,580 L548.5,590 L558.5,590 L548.5,580 " fill="#FEFFDD" style="stroke:#181818;stroke-width:0.5;"/><text fill="#000000" font-family="sans-serif" font-size="13" lengthAdjust="spacing" textLength="88" x="455.5" y="598.4951">editarProfesor()</text></g><!--SRC=[hLJ1Qjj04BthAnRtaXH2Vo0OtA103gcDt5i8ORmxJeUiTiJkAiGjXVvAU- -fjrxz9_sIpgeoaXpPO2W6svBUl3Tltgp24xaAF9JAaiEugL1LR3Vf8ij2X8ZoG7xz5Rkr9Hqvv2zGeiEW8AZ9eOTdvnFrPSSmaO-0Rpb43yvm1ny22Wnidmc7aEpkxRswk7lpw17T_SLqbCUnqB1BBfwoozLqPafob726_UMxrLG9DMcAqFfHkYiMGPK8ico4UY0ztk6- -58Ki8H6jl8OqErabS6-y9zlFzHjZKcpTpk1Fh47Jpn015vvh3Y8ZUqlbr1GMpZ6KdbUIyVImW0atxKXS552b09LRd_RI9MLItpPVcy2R0eMw4iIRxlPUUMR0Q2C3qnFxG1QenSR_wptfZmwnVyPSTVbhbmyLwYtFzUaUJ-YPmerMFeCQjF5nPKcJbikOspewcRgh-9jFPTiIBZ5R9kSuYQTyKR9HS-crh8CKAv8p6-wvg6oYUXObw1Z-n-jK5YPPBCjUoNb_b8a9pLQoUkKCEJydJByGUX7J6XAG6KXtNrrD8uKFjRWq_Are_FOF33zW_mromw-jlhM5iNyEb_EYuT5aL_dHVxXwcQsV9YzlycBZ_EXQLXvyhcXj1QBzboTdVS6UPhWg0QQT6p6sFy2]--></g></svg>