<?xml version="1.0" encoding="us-ascii" standalone="no"?><svg xmlns="http://www.w3.org/2000/svg" xmlns:xlink="http://www.w3.org/1999/xlink" contentStyleType="text/css" height="442px" preserveAspectRatio="none" style="width:1850px;height:442px;background:#FFFFFF;" version="1.1" viewBox="0 0 1850 442" width="1850px" zoomAndPan="magnify"><defs/><g><!--cluster abrirGrados--><g id="cluster_abrirGrados"><path d="M179,6.602 L272,6.602 A3.75,3.75 0 0 1 274.5,9.102 L281.5,31.6699 L695,31.6699 A2.5,2.5 0 0 1 697.5,34.1699 L697.5,433.102 A2.5,2.5 0 0 1 695,435.602 L179,435.602 A2.5,2.5 0 0 1 176.5,433.102 L176.5,9.102 A2.5,2.5 0 0 1 179,6.602 " fill="none" style="stroke:#000000;stroke-width:1.5;"/><line style="stroke:#000000;stroke-width:1.5;" x1="176.5" x2="281.5" y1="31.6699" y2="31.6699"/><text fill="#000000" font-family="sans-serif" font-size="14" font-weight="bold" lengthAdjust="spacing" textLength="92" x="180.5" y="23.5679">abrirGrados()</text></g><!--entity ListarGradosView--><g id="elem_ListarGradosView"><rect fill="#629EF9" height="39.0679" rx="2.5" ry="2.5" style="stroke:#181818;stroke-width:0.5;" width="136" x="545.5" y="44.602"/><text fill="#000000" font-family="sans-serif" font-size="14" lengthAdjust="spacing" textLength="116" x="555.5" y="69.5679">ListarGradosView</text></g><!--entity GradoController--><g id="elem_GradoController"><rect fill="#B5BD68" height="39.0679" rx="2.5" ry="2.5" style="stroke:#181818;stroke-width:0.5;" width="128" x="292.5" y="162.602"/><text fill="#000000" font-family="sans-serif" font-size="14" lengthAdjust="spacing" textLength="108" x="302.5" y="187.5679">GradoController</text></g><!--entity GradoRepository--><g id="elem_GradoRepository"><rect fill="#F2AC4E" height="39.0679" rx="2.5" ry="2.5" style="stroke:#181818;stroke-width:0.5;" width="132" x="284.5" y="280.602"/><text fill="#000000" font-family="sans-serif" font-size="14" lengthAdjust="spacing" textLength="112" x="294.5" y="305.5679">GradoRepository</text></g><!--entity Grado--><g id="elem_Grado"><rect fill="#F2AC4E" height="39.0679" rx="2.5" ry="2.5" style="stroke:#181818;stroke-width:0.5;" width="61" x="320" y="380.602"/><text fill="#000000" font-family="sans-serif" font-size="14" lengthAdjust="spacing" textLength="41" x="330" y="405.5679">Grado</text></g><!--entity SistemaDisponible--><g id="elem_SistemaDisponible"><rect fill="#CDEBA5" height="39.0679" rx="2.5" ry="2.5" style="stroke:#181818;stroke-width:0.5;" width="153" x="7" y="44.602"/><text fill="#000000" font-family="sans-serif" font-size="14" lengthAdjust="spacing" textLength="133" x="17" y="69.5679">:Sistema Disponible</text></g><!--entity SistemaDisponibleSalida--><g id="elem_SistemaDisponibleSalida"><rect fill="#CDEBA5" height="39.0679" rx="2.5" ry="2.5" style="stroke:#181818;stroke-width:0.5;" width="153" x="714" y="162.602"/><text fill="#000000" font-family="sans-serif" font-size="14" lengthAdjust="spacing" textLength="133" x="724" y="187.5679">:Sistema Disponible</text></g><!--entity CrearGrado--><g id="elem_CrearGrado"><rect fill="#CDEBA5" height="39.0679" rx="2.5" ry="2.5" style="stroke:#181818;stroke-width:0.5;" width="196" x="902.5" y="162.602"/><text fill="#000000" font-family="sans-serif" font-size="14" lengthAdjust="spacing" textLength="176" x="912.5" y="187.5679">:Collaboration CrearGrado</text></g><!--entity EditarGrado--><g id="elem_EditarGrado"><rect fill="#CDEBA5" height="39.0679" rx="2.5" ry="2.5" style="stroke:#181818;stroke-width:0.5;" width="199" x="1134" y="162.602"/><text fill="#000000" font-family="sans-serif" font-size="14" lengthAdjust="spacing" textLength="179" x="1144" y="187.5679">:Collaboration EditarGrado</text></g><!--entity EliminarGrado--><g id="elem_EliminarGrado"><rect fill="#CDEBA5" height="39.0679" rx="2.5" ry="2.5" style="stroke:#181818;stroke-width:0.5;" width="215" x="1368" y="162.602"/><text fill="#000000" font-family="sans-serif" font-size="14" lengthAdjust="spacing" textLength="195" x="1378" y="187.5679">:Collaboration EliminarGrado</text></g><!--entity ImportarGrados--><g id="elem_ImportarGrados"><rect fill="#CDEBA5" height="39.0679" rx="2.5" ry="2.5" style="stroke:#181818;stroke-width:0.5;" width="226" x="1618.5" y="162.602"/><text fill="#000000" font-family="sans-serif" font-size="14" lengthAdjust="spacing" textLength="206" x="1628.5" y="187.5679">:Collaboration ImportarGrados</text></g><!--link SistemaDisponible to ListarGradosView--><g id="link_SistemaDisponible_ListarGradosView"><path d="M160,64.102 C263.49,64.102 440.49,64.102 539.44,64.102 " fill="none" id="SistemaDisponible-to-ListarGradosView" style="stroke:#181818;stroke-width:1.0;"/><polygon fill="#181818" points="545.44,64.102,536.44,60.102,540.44,64.102,536.44,68.102,545.44,64.102" style="stroke:#181818;stroke-width:1.0;"/><text fill="#000000" font-family="sans-serif" font-size="13" lengthAdjust="spacing" textLength="79" x="313.25" y="56.999">abrirGrados()</text></g><!--link ListarGradosView to GradoController--><g id="link_ListarGradosView_GradoController"><path d="M545.14,74.682 C444.31,88.822 267.5,113.602 267.5,113.602 C267.5,113.602 267.5,132.602 267.5,132.602 C267.5,132.602 291.9821,145.9398 317.0721,159.6198 " fill="none" id="ListarGradosView-to-GradoController" style="stroke:#181818;stroke-width:1.0;"/><polygon fill="#181818" points="322.34,162.492,316.353,154.6717,317.9501,160.0985,312.5234,161.6955,322.34,162.492" style="stroke:#181818;stroke-width:1.0;"/><text fill="#000000" font-family="sans-serif" font-size="13" lengthAdjust="spacing" textLength="161" x="268.5" y="128.499">listarGrados() : List&lt;Grado&gt;</text></g><!--link ListarGradosView to GradoController--><g id="link_ListarGradosView_GradoController"><path d="M559.77,83.712 C520.29,97.392 473.5,113.602 473.5,113.602 C473.5,113.602 428.607,139.5035 393.977,159.4835 " fill="none" id="ListarGradosView-to-GradoController-1" style="stroke:#181818;stroke-width:1.0;"/><polygon fill="#181818" points="388.78,162.482,398.5745,161.449,393.1109,159.9833,394.5766,154.5196,388.78,162.482" style="stroke:#181818;stroke-width:1.0;"/><text fill="#000000" font-family="sans-serif" font-size="13" lengthAdjust="spacing" textLength="206" x="474.5" y="128.499">filtrarGrados(criterio) : List&lt;Grado&gt;</text></g><!--link GradoController to GradoRepository--><g id="link_GradoController_GradoRepository"><path d="M305.84,201.712 C268.62,215.392 224.5,231.602 224.5,231.602 C224.5,231.602 224.5,250.602 224.5,250.602 C224.5,250.602 261.0105,264.6566 296.5505,278.3366 " fill="none" id="GradoController-to-GradoRepository" style="stroke:#181818;stroke-width:1.0;"/><polygon fill="#181818" points="302.15,280.492,295.1876,273.526,297.4837,278.6959,292.3138,280.992,302.15,280.492" style="stroke:#181818;stroke-width:1.0;"/><text fill="#000000" font-family="sans-serif" font-size="13" lengthAdjust="spacing" textLength="174" x="225.5" y="246.499">obtenerTodos() : List&lt;Grado&gt;</text></g><!--link GradoController to GradoRepository--><g id="link_GradoController_GradoRepository"><path d="M374.92,201.712 C388.46,215.392 404.5,231.602 404.5,231.602 C404.5,231.602 404.5,250.602 404.5,250.602 C404.5,250.602 390.9137,262.8026 375.6837,276.4826 " fill="none" id="GradoController-to-GradoRepository-1" style="stroke:#181818;stroke-width:1.0;"/><polygon fill="#181818" points="371.22,280.492,380.5885,277.4537,374.9397,277.1508,375.2426,271.5021,371.22,280.492" style="stroke:#181818;stroke-width:1.0;"/><text fill="#000000" font-family="sans-serif" font-size="13" lengthAdjust="spacing" textLength="236" x="405.5" y="246.499">buscarPorCriterio(criterio) : List&lt;Grado&gt;</text></g><!--link GradoRepository to Grado--><g id="link_GradoRepository_Grado"><path d="M350.5,320.002 C350.5,337.462 350.5,363.262 350.5,380.592 " fill="none" id="GradoRepository-Grado" style="stroke:#181818;stroke-width:1.0;"/></g><!--link ListarGradosView to SistemaDisponibleSalida--><g id="link_ListarGradosView_SistemaDisponibleSalida"><path d="M642.67,83.712 C664.1,97.392 689.5,113.602 689.5,113.602 C689.5,113.602 727.7518,139.1676 757.6418,159.1476 " fill="none" id="ListarGradosView-to-SistemaDisponibleSalida" style="stroke:#181818;stroke-width:1.0;stroke-dasharray:7.0,7.0;"/><polygon fill="#181818" points="762.63,162.482,757.3706,154.155,758.4732,159.7033,752.9248,160.8059,762.63,162.482" style="stroke:#181818;stroke-width:1.0;"/><text fill="#000000" font-family="sans-serif" font-size="13" lengthAdjust="spacing" textLength="115" x="717.5" y="128.499">completarGestion()</text></g><!--link ListarGradosView to CrearGrado--><g id="link_ListarGradosView_CrearGrado"><path d="M681.6,79.592 C748.78,93.882 841.5,113.602 841.5,113.602 C841.5,113.602 904.0471,140.1572 951.1071,160.1372 " fill="none" id="ListarGradosView-to-CrearGrado" style="stroke:#181818;stroke-width:1.0;stroke-dasharray:7.0,7.0;"/><polygon fill="#181818" points="956.63,162.482,949.9089,155.2829,952.0276,160.528,946.7825,162.6467,956.63,162.482" style="stroke:#181818;stroke-width:1.0;"/><text fill="#000000" font-family="sans-serif" font-size="13" lengthAdjust="spacing" textLength="75" x="884.5" y="128.499">crearGrado()</text></g><!--link ListarGradosView to EditarGrado--><g id="link_ListarGradosView_EditarGrado"><path d="M681.53,74.392 C784.61,88.482 968.5,113.602 968.5,113.602 C968.5,113.602 1076.4758,141.1005 1154.9258,161.0905 " fill="none" id="ListarGradosView-to-EditarGrado" style="stroke:#181818;stroke-width:1.0;stroke-dasharray:7.0,7.0;"/><polygon fill="#181818" points="1160.74,162.572,1153.0064,156.4735,1155.8948,161.3374,1151.031,164.2258,1160.74,162.572" style="stroke:#181818;stroke-width:1.0;"/><text fill="#000000" font-family="sans-serif" font-size="13" lengthAdjust="spacing" textLength="80" x="1040.5" y="128.499">editarGrado()</text></g><!--link ListarGradosView to EliminarGrado--><g id="link_ListarGradosView_EliminarGrado"><path d="M681.75,71.522 C821.99,84.702 1129.5,113.602 1129.5,113.602 C1129.5,113.602 1272.1811,141.4327 1374.6111,161.4227 " fill="none" id="ListarGradosView-to-EliminarGrado" style="stroke:#181818;stroke-width:1.0;stroke-dasharray:7.0,7.0;"/><polygon fill="#181818" points="1380.5,162.572,1372.4328,156.9221,1375.5926,161.6143,1370.9005,164.774,1380.5,162.572" style="stroke:#181818;stroke-width:1.0;"/><text fill="#000000" font-family="sans-serif" font-size="13" lengthAdjust="spacing" textLength="93" x="1222.5" y="128.499">eliminarGrado()</text></g><!--link ListarGradosView to ImportarGrados--><g id="link_ListarGradosView_ImportarGrados"><path d="M681.67,69.752 C859.63,81.892 1324.5,113.602 1324.5,113.602 C1324.5,113.602 1493.3409,141.6 1613.8309,161.59 " fill="none" id="ListarGradosView-to-ImportarGrados" style="stroke:#181818;stroke-width:1.0;stroke-dasharray:7.0,7.0;"/><polygon fill="#181818" points="1619.75,162.572,1611.526,157.1529,1614.8174,161.7536,1610.2167,165.045,1619.75,162.572" style="stroke:#181818;stroke-width:1.0;"/><text fill="#000000" font-family="sans-serif" font-size="13" lengthAdjust="spacing" textLength="104" x="1434.5" y="128.499">importarGrados()</text></g><!--SRC=[fP91JuD048Nl-oiczT8UwA6nZHBJf59gJ3mOQxmlC3QJBYmPrfZ6-DzT4Cj2mJJAYRVvtcEMUSMUibooJ45HXkQG8-HQ7KeX16DiPBPJ21V1EhnTpM7aRwamc4fOKv7hZ2A58v05rCVDgH2vZFToXo0Z9hvZcUYY94UE7az6y270Fiwd5hFhS7CD3pPHrjmBuNiNY-PHihY22WXqPbWhXTobDhDLS1b-Kq-OwuACviDlbFZytyMtKb4YUoC2EwACD4j3EeE0iRvV5TJ8CxnXGiOrE_eSjwAKifRVFJaZuJxDDH_NKqMqZuGu-J7WiRSyMQiFhJu8qGN0IwojisRVrhN1nXFmg-2RIY-5wE3W_KGq7V11HmOpv6Sz7D7WDgBkHy-4VGE-aZ9yd31cCiYa_pPfz5R4aXyr1tNCSDx9SDFfSgYaFiGwpHMM1YpAnTe5z0OqvRIUu_iGxRJH1sp48E-sppfSEUHfryq7Qcdh-W80]--></g></svg>