<?xml version="1.0" encoding="us-ascii" standalone="no"?><svg xmlns="http://www.w3.org/2000/svg" xmlns:xlink="http://www.w3.org/1999/xlink" contentStyleType="text/css" height="347px" preserveAspectRatio="none" style="width:1698px;height:347px;background:#FFFFFF;" version="1.1" viewBox="0 0 1698 347" width="1698px" zoomAndPan="magnify"><defs/><g><!--cluster generarCalendario--><g id="cluster_generarCalendario"><path d="M8.5,6.016 L129.5,6.016 A3.75,3.75 0 0 1 132,8.516 L139,28.3601 L1135.5,28.3601 A2.5,2.5 0 0 1 1138,30.8601 L1138,337.516 A2.5,2.5 0 0 1 1135.5,340.016 L8.5,340.016 A2.5,2.5 0 0 1 6,337.516 L6,8.516 A2.5,2.5 0 0 1 8.5,6.016 " fill="none" style="stroke:#000000;stroke-width:1.5;"/><line style="stroke:#000000;stroke-width:1.5;" x1="6" x2="139" y1="28.3601" y2="28.3601"/><text fill="#000000" font-family="sans-serif" font-size="12" font-weight="bold" lengthAdjust="spacing" textLength="120" x="10" y="20.8441">generarCalendario()</text></g><!--entity GenerarCalendarioView--><g id="elem_GenerarCalendarioView"><rect fill="#629EF9" height="36.3441" rx="2.5" ry="2.5" style="stroke:#181818;stroke-width:0.5;" width="154" x="968" y="60.016"/><text fill="#000000" font-family="sans-serif" font-size="12" lengthAdjust="spacing" textLength="134" x="978" y="82.8441">GenerarCalendarioView</text></g><!--entity CalendarioController--><g id="elem_CalendarioController"><rect fill="#B5BD68" height="36.3441" rx="2.5" ry="2.5" style="stroke:#181818;stroke-width:0.5;" width="137" x="561.5" y="174.016"/><text fill="#000000" font-family="sans-serif" font-size="12" lengthAdjust="spacing" textLength="117" x="571.5" y="196.8441">CalendarioController</text></g><!--entity ExamenRepository--><g id="elem_ExamenRepository"><rect fill="#F2AC4E" height="36.3441" rx="2.5" ry="2.5" style="stroke:#181818;stroke-width:0.5;" width="124" x="159" y="288.016"/><text fill="#000000" font-family="sans-serif" font-size="12" lengthAdjust="spacing" textLength="104" x="169" y="310.8441">ExamenRepository</text></g><!--entity AulaRepository--><g id="elem_AulaRepository"><rect fill="#F2AC4E" height="36.3441" rx="2.5" ry="2.5" style="stroke:#181818;stroke-width:0.5;" width="104" x="483" y="288.016"/><text fill="#000000" font-family="sans-serif" font-size="12" lengthAdjust="spacing" textLength="84" x="493" y="310.8441">AulaRepository</text></g><!--entity PreferenciaRepository--><g id="elem_PreferenciaRepository"><rect fill="#F2AC4E" height="36.3441" rx="2.5" ry="2.5" style="stroke:#181818;stroke-width:0.5;" width="144" x="744" y="288.016"/><text fill="#000000" font-family="sans-serif" font-size="12" lengthAdjust="spacing" textLength="124" x="754" y="310.8441">PreferenciaRepository</text></g><!--entity Calendario--><g id="elem_Calendario"><rect fill="#F2AC4E" height="36.3441" rx="2.5" ry="2.5" style="stroke:#181818;stroke-width:0.5;" width="81" x="937.5" y="174.016"/><text fill="#000000" font-family="sans-serif" font-size="12" lengthAdjust="spacing" textLength="61" x="947.5" y="196.8441">Calendario</text></g><!--entity Examen--><g id="elem_Examen"><rect fill="#F2AC4E" height="36.3441" rx="2.5" ry="2.5" style="stroke:#181818;stroke-width:0.5;" width="65" x="1053.5" y="174.016"/><text fill="#000000" font-family="sans-serif" font-size="12" lengthAdjust="spacing" textLength="45" x="1063.5" y="196.8441">Examen</text></g><!--entity GeneracionResult--><g id="elem_GeneracionResult"><rect fill="#F2AC4E" height="36.3441" rx="2.5" ry="2.5" style="stroke:#181818;stroke-width:0.5;" width="119" x="783.5" y="174.016"/><text fill="#000000" font-family="sans-serif" font-size="12" lengthAdjust="spacing" textLength="99" x="793.5" y="196.8441">GeneracionResult</text></g><!--entity SistemaDisponible--><g id="elem_SistemaDisponible"><rect fill="#CDEBA5" height="36.3441" rx="2.5" ry="2.5" style="stroke:#181818;stroke-width:0.5;" width="130" x="1154" y="174.016"/><text fill="#000000" font-family="sans-serif" font-size="12" lengthAdjust="spacing" textLength="110" x="1164" y="196.8441">:Sistema Disponible</text></g><!--entity CalendarioGenerado--><g id="elem_CalendarioGenerado"><rect fill="#CDEBA5" height="36.3441" rx="2.5" ry="2.5" style="stroke:#181818;stroke-width:0.5;" width="143" x="1319.5" y="174.016"/><text fill="#000000" font-family="sans-serif" font-size="12" lengthAdjust="spacing" textLength="123" x="1329.5" y="196.8441">:Calendario Generado</text></g><!--entity ListarConflictos--><g id="elem_ListarConflictos"><rect fill="#CDEBA5" height="36.3441" rx="2.5" ry="2.5" style="stroke:#181818;stroke-width:0.5;" width="187" x="1505.5" y="174.016"/><text fill="#000000" font-family="sans-serif" font-size="12" lengthAdjust="spacing" textLength="167" x="1515.5" y="196.8441">:Collaboration ListarConflictos</text></g><!--link SistemaDisponible to GenerarCalendarioView--><g id="link_SistemaDisponible_GenerarCalendarioView"><path d="M1153.62,177.296 C1144.41,175.356 1138,174.016 1138,174.016 C1138,174.016 760,144.016 760,144.016 C760,144.016 760,126.016 760,126.016 C760,126.016 877.55,106.6324 961.95,92.7124 " fill="none" id="SistemaDisponible-to-GenerarCalendarioView" style="stroke:#181818;stroke-width:1.0;"/><polygon fill="#181818" points="967.87,91.736,958.339,89.2539,962.9366,92.5497,959.6409,97.1473,967.87,91.736" style="stroke:#181818;stroke-width:1.0;"/><text fill="#000000" font-family="sans-serif" font-size="12" lengthAdjust="spacing" textLength="114" x="761" y="139.8441">generarCalendario()</text></g><!--link GenerarCalendarioView to SistemaDisponible--><g id="link_GenerarCalendarioView_SistemaDisponible"><path d="M1071.43,96.026 C1104.13,117.076 1154.4656,149.4674 1187.2756,170.5974 " fill="none" id="GenerarCalendarioView-to-SistemaDisponible" style="stroke:#181818;stroke-width:1.0;stroke-dasharray:7.0,7.0;"/><polygon fill="#181818" points="1192.32,173.846,1186.9191,165.6101,1188.1163,171.1388,1182.5876,172.336,1192.32,173.846" style="stroke:#181818;stroke-width:1.0;"/><text fill="#000000" font-family="sans-serif" font-size="12" lengthAdjust="spacing" textLength="60" x="1143" y="139.8441">&#171;cancelar&#187;</text></g><!--link GenerarCalendarioView to CalendarioController--><g id="link_GenerarCalendarioView_CalendarioController"><path d="M967.95,85.596 C816.58,98.536 495,126.016 495,126.016 C495,126.016 495,144.016 495,144.016 C495,144.016 536.6137,158.5031 575.2137,171.9431 " fill="none" id="GenerarCalendarioView-to-CalendarioController" style="stroke:#181818;stroke-width:1.0;"/><polygon fill="#181818" points="580.88,173.916,573.6958,167.179,576.158,172.2719,571.0652,174.7342,580.88,173.916" style="stroke:#181818;stroke-width:1.0;"/><text fill="#000000" font-family="sans-serif" font-size="12" lengthAdjust="spacing" textLength="255" x="496" y="139.8441">generar(inicio, fin, franjas) : GeneracionResult</text></g><!--link CalendarioController to ExamenRepository--><g id="link_CalendarioController_ExamenRepository"><path d="M561.38,198.616 C408.65,211.076 54,240.016 54,240.016 C54,240.016 54,258.016 54,258.016 C54,258.016 106.7144,272.8504 154.4644,286.2904 " fill="none" id="CalendarioController-to-ExamenRepository" style="stroke:#181818;stroke-width:1.0;"/><polygon fill="#181818" points="160.24,287.916,152.6604,281.6272,155.427,286.5613,150.4929,289.328,160.24,287.916" style="stroke:#181818;stroke-width:1.0;"/><text fill="#000000" font-family="sans-serif" font-size="12" lengthAdjust="spacing" textLength="259" x="55" y="253.8441">obtenerExamenesPendientes() : List&lt;Examen&gt;</text></g><!--link CalendarioController to ExamenRepository--><g id="link_CalendarioController_ExamenRepository"><path d="M561.34,206.296 C489.48,220.196 387,240.016 387,240.016 C387,240.016 319.387,266.4885 270.197,285.7485 " fill="none" id="CalendarioController-to-ExamenRepository-1" style="stroke:#181818;stroke-width:1.0;"/><polygon fill="#181818" points="264.61,287.936,274.4489,288.3794,269.2658,286.1131,271.5321,280.93,264.61,287.936" style="stroke:#181818;stroke-width:1.0;"/><text fill="#000000" font-family="sans-serif" font-size="12" lengthAdjust="spacing" textLength="135" x="388" y="253.8441">guardarLote(examenes)</text></g><!--link CalendarioController to AulaRepository--><g id="link_CalendarioController_AulaRepository"><path d="M594.34,210.116 C566.32,223.556 532,240.016 532,240.016 C532,240.016 532,258.016 532,258.016 C532,258.016 532.6563,268.3783 533.5163,281.7983 " fill="none" id="CalendarioController-to-AulaRepository" style="stroke:#181818;stroke-width:1.0;"/><polygon fill="#181818" points="533.9,287.786,537.3162,278.5486,533.5802,282.7963,529.3326,279.0603,533.9,287.786" style="stroke:#181818;stroke-width:1.0;"/><text fill="#000000" font-family="sans-serif" font-size="12" lengthAdjust="spacing" textLength="239" x="533" y="253.8441">consultarDisponibilidad(franja) : List&lt;Aula&gt;</text></g><!--link CalendarioController to PreferenciaRepository--><g id="link_CalendarioController_PreferenciaRepository"><path d="M683.49,210.116 C725.52,223.556 777,240.016 777,240.016 C777,240.016 791.1142,263.5304 802.6642,282.7904 " fill="none" id="CalendarioController-to-PreferenciaRepository" style="stroke:#181818;stroke-width:1.0;"/><polygon fill="#181818" points="805.75,287.936,804.5517,278.1603,803.1785,283.648,797.6909,282.2747,805.75,287.936" style="stroke:#181818;stroke-width:1.0;"/><text fill="#000000" font-family="sans-serif" font-size="12" lengthAdjust="spacing" textLength="304" x="789" y="253.8441">verificarRestriccionesDocentes(franja) : List&lt;Profesor&gt;</text></g><!--link CalendarioController to Examen--><g id="link_CalendarioController_Examen"><path d="M698.7,180.546 C798.42,163.906 971.5,135.016 971.5,135.016 C971.5,135.016 1024.5,135.016 1024.5,135.016 C1024.5,135.016 1044.118,153.2089 1062.138,169.8989 " fill="none" id="CalendarioController-to-Examen" style="stroke:#181818;stroke-width:1.0;"/><polygon fill="#181818" points="1066.54,173.976,1062.6551,164.9258,1062.8717,170.5785,1057.219,170.7951,1066.54,173.976" style="stroke:#181818;stroke-width:1.0;"/><text fill="#000000" font-family="sans-serif" font-size="12" lengthAdjust="spacing" textLength="51" x="972.5" y="139.8441">&#171;update&#187;</text></g><!--link CalendarioController to Calendario--><g id="link_CalendarioController_Calendario"><path d="M698.54,176.666 C773.92,159.786 884.5,135.016 884.5,135.016 C884.5,135.016 937.5,135.016 937.5,135.016 C937.5,135.016 949.8426,152.3965 961.7126,169.0865 " fill="none" id="CalendarioController-to-Calendario" style="stroke:#181818;stroke-width:1.0;"/><polygon fill="#181818" points="965.19,173.976,963.2335,164.3235,962.2921,169.9014,956.7142,168.96,965.19,173.976" style="stroke:#181818;stroke-width:1.0;"/><text fill="#000000" font-family="sans-serif" font-size="12" lengthAdjust="spacing" textLength="51" x="885.5" y="139.8441">&#171;update&#187;</text></g><!--link CalendarioController to GeneracionResult--><g id="link_CalendarioController_GeneracionResult"><path d="M698.57,192.016 C725.81,192.016 750.86,192.016 777.17,192.016 " fill="none" id="CalendarioController-to-GeneracionResult" style="stroke:#181818;stroke-width:1.0;"/><polygon fill="#181818" points="783.17,192.016,774.17,188.016,778.17,192.016,774.17,196.016,783.17,192.016" style="stroke:#181818;stroke-width:1.0;"/><text fill="#000000" font-family="sans-serif" font-size="12" lengthAdjust="spacing" textLength="48" x="717" y="184.8441">&#171;create&#187;</text></g><!--link GenerarCalendarioView to CalendarioGenerado--><g id="link_GenerarCalendarioView_CalendarioGenerado"><path d="M1105.76,96.116 C1153.51,109.556 1212,126.016 1212,126.016 C1212,126.016 1285.3004,152.6278 1338.3304,171.8878 " fill="none" id="GenerarCalendarioView-to-CalendarioGenerado" style="stroke:#181818;stroke-width:1.0;stroke-dasharray:7.0,7.0;"/><polygon fill="#181818" points="1343.97,173.936,1336.8761,167.104,1339.2704,172.2292,1334.1452,174.6234,1343.97,173.936" style="stroke:#181818;stroke-width:1.0;"/><text fill="#000000" font-family="sans-serif" font-size="12" lengthAdjust="spacing" textLength="174" x="1261" y="139.8441">&#171;finalizar&#187; guardarCalendario()</text></g><!--link GenerarCalendarioView to ListarConflictos--><g id="link_GenerarCalendarioView_ListarConflictos"><path d="M1122.4,88.136 C1238.44,101.806 1444,126.016 1444,126.016 C1444,126.016 1506.8168,152.3558 1552.7468,171.6158 " fill="none" id="GenerarCalendarioView-to-ListarConflictos" style="stroke:#181818;stroke-width:1.0;stroke-dasharray:7.0,7.0;"/><polygon fill="#181818" points="1558.28,173.936,1551.527,166.7668,1553.669,172.0025,1548.4333,174.1444,1558.28,173.936" style="stroke:#181818;stroke-width:1.0;"/><text fill="#000000" font-family="sans-serif" font-size="12" lengthAdjust="spacing" textLength="102" x="1486" y="139.8441">revisarConflictos()</text></g><!--SRC=[ZLFBRjj03BplLn3knGRg036Qe14C0OuVlUHWD43lb4GfRDQx0dSTrodwxrrPyIEohCG70IPdXkIGwvxPb2YuWWJJvqBiscHJgwt0veazANV8koVCx8PD0JbgTvgPKOvhxHVM-9gQwA3L3dZaLuBhqKbIio6_BGbAgxVL7wM4Ke-cq0HVfhFv_UG6Uj4ZEqyhX1cxqXfEDFK07Ro5Zr6bob0S2uA230dA53MP38LjXU-THVk37lnL47udPMz7T_F57VneWdynRPhOv2R9Rh_34JGDSuhLcgG9NOmcqszpcF_15PcVL5h7tihs0coorlWXQ2cKav19-MFiiSNEnYuaQpDIjg5p5zQf_hLlwiJmcfBPtQgEyNsudHwSmyGA-b097i9-mmAioJMdthgTKZEerDaPm526SVl-8cYv0QLQiJ3CWapRQWygVJOSJFaAEPlm4JI_qGqWElTBjUdK5PeN4O5DVCMl4-IMWSXaFBb-fLqvCAvpSOVi-mkA8BMcwWHbRnHhpZ3hrrqVX2jQbsphpKNmGi8vfoXXNY-SLgEJczcqxhjHP2as9sSblkIB77o9O3nUbnbwYkCEy37p2KAxwyKQ9K0VhAS-lLa_w2ZPt75LE1Mg2ryugQkhkEKjLCnmGQZv5IMEzvsykz7BUiqN4ONt-yBkDDJ9Fti_kq7GfAIhRjH_]--></g></svg>