<?xml version="1.0" encoding="us-ascii" standalone="no"?><svg xmlns="http://www.w3.org/2000/svg" xmlns:xlink="http://www.w3.org/1999/xlink" contentStyleType="text/css" height="853px" preserveAspectRatio="none" style="width:799px;height:853px;background:#FFFFFF;" version="1.1" viewBox="0 0 799 853" width="799px" zoomAndPan="magnify"><defs/><g><path d="M19.5,7 L773.7515,7 A12.5,12.5 0 0 1 786.2515,19.5 L786.2515,34.6094 L7,34.6094 L7,19.5 A12.5,12.5 0 0 1 19.5,7 " fill="#F1F1F1" style="stroke:#F1F1F1;stroke-width:1.0;"/><rect fill="none" height="693.6094" rx="12.5" ry="12.5" style="stroke:#181818;stroke-width:0.5;" width="779.2515" x="7" y="7"/><line style="stroke:#181818;stroke-width:0.5;" x1="7" x2="786.2515" y1="34.6094" y2="34.6094"/><text fill="#000000" font-family="sans-serif" font-size="14" lengthAdjust="spacing" textLength="109" x="342.1258" y="26.5332">importarGrados()</text><g id="importarGrados.SeleccionandoArchivo"><rect fill="#F1F1F1" height="50" rx="12.5" ry="12.5" style="stroke:#181818;stroke-width:0.5;" width="50" x="208.2515" y="137.6094"/><line style="stroke:#181818;stroke-width:0.5;" x1="208.2515" x2="258.2515" y1="165.2188" y2="165.2188"/><text fill="#000000" font-family="sans-serif" font-size="14" lengthAdjust="spacing" textLength="4" x="231.2515" y="157.1426">&#160;</text></g><g id="importarGrados.ProcesandoImportacion"><rect fill="#F1F1F1" height="50" rx="12.5" ry="12.5" style="stroke:#181818;stroke-width:0.5;" width="50" x="208.2515" y="324.6094"/><line style="stroke:#181818;stroke-width:0.5;" x1="208.2515" x2="258.2515" y1="352.2188" y2="352.2188"/><text fill="#000000" font-family="sans-serif" font-size="14" lengthAdjust="spacing" textLength="4" x="231.2515" y="344.1426">&#160;</text></g><g id="importarGrados.MostrandoResultados"><rect fill="#F1F1F1" height="50" rx="12.5" ry="12.5" style="stroke:#181818;stroke-width:0.5;" width="50" x="26.2515" y="463.6094"/><line style="stroke:#181818;stroke-width:0.5;" x1="26.2515" x2="76.2515" y1="491.2188" y2="491.2188"/><text fill="#000000" font-family="sans-serif" font-size="14" lengthAdjust="spacing" textLength="4" x="49.2515" y="483.1426">&#160;</text></g><ellipse cx="233.2515" cy="55.6094" fill="#222222" rx="10" ry="10" style="stroke:#222222;stroke-width:1.0;"/><ellipse cx="261.2515" cy="679.6094" fill="none" rx="11" ry="11" style="stroke:#222222;stroke-width:1.0;"/><ellipse cx="261.2515" cy="679.6094" fill="#222222" rx="6" ry="6" style="stroke:#222222;stroke-width:1.0;"/><!--link *start*importarGrados to SeleccionandoArchivo--><g id="link_*start*importarGrados_SeleccionandoArchivo"><path d="M233.2515,65.9294 C233.2515,81.7894 233.2515,108.5194 233.2515,131.2494 " fill="none" id="*start*importarGrados-to-SeleccionandoArchivo" style="stroke:#008000;stroke-width:1.0;"/><polygon fill="#008000" points="233.2515,137.2494,237.2515,128.2494,233.2515,132.2494,229.2515,128.2494,233.2515,137.2494" style="stroke:#008000;stroke-width:1.0;"/><path d="M238.2515,88.6094 L238.2515,114.6094 L487.2515,114.6094 L487.2515,98.6094 L477.2515,88.6094 L238.2515,88.6094 " fill="#FEFFDD" style="stroke:#181818;stroke-width:0.5;"/><path d="M477.2515,88.6094 L477.2515,98.6094 L487.2515,98.6094 L477.2515,88.6094 " fill="#FEFFDD" style="stroke:#181818;stroke-width:0.5;"/><text fill="#000000" font-family="sans-serif" font-size="13" font-weight="bold" lengthAdjust="spacing" textLength="89" x="244.2515" y="107.1045">Administrador</text><text fill="#000000" font-family="sans-serif" font-size="13" lengthAdjust="spacing" textLength="135" x="337.2515" y="107.1045">solicita importar grados</text></g><!--link SeleccionandoArchivo to ProcesandoImportacion--><g id="link_SeleccionandoArchivo_ProcesandoImportacion"><path d="M233.2515,187.7994 C233.2515,223.2494 233.2515,282.9594 233.2515,318.4194 " fill="none" id="SeleccionandoArchivo-to-ProcesandoImportacion" style="stroke:#008000;stroke-width:1.0;"/><polygon fill="#008000" points="233.2515,324.4194,237.2515,315.4194,233.2515,319.4194,229.2515,315.4194,233.2515,324.4194" style="stroke:#008000;stroke-width:1.0;"/><path d="M238.2515,210.6094 L238.2515,301.6094 L499.2515,301.6094 L499.2515,220.6094 L489.2515,210.6094 L238.2515,210.6094 " fill="#FEFFDD" style="stroke:#181818;stroke-width:0.5;"/><path d="M489.2515,210.6094 L489.2515,220.6094 L499.2515,220.6094 L489.2515,210.6094 " fill="#FEFFDD" style="stroke:#181818;stroke-width:0.5;"/><text fill="#000000" font-family="sans-serif" font-size="13" font-weight="bold" lengthAdjust="spacing" textLength="51" x="244.2515" y="229.1045">Sistema</text><text fill="#000000" font-family="sans-serif" font-size="13" lengthAdjust="spacing" textLength="185" x="299.2515" y="229.1045">presenta interfaz de importaci&#243;n</text><text fill="#000000" font-family="sans-serif" font-size="13" lengthAdjust="spacing" textLength="236" x="244.2515" y="245.4561">&#8226; Permite seleccionar archivo CSV/Excel</text><text fill="#000000" font-family="sans-serif" font-size="13" lengthAdjust="spacing" textLength="222" x="244.2515" y="261.8076">&#8226; Muestra formato de archivo requerido</text><text fill="#000000" font-family="sans-serif" font-size="13" lengthAdjust="spacing" textLength="212" x="244.2515" y="278.1592">&#8226; Permite solicitar iniciar importaci&#243;n</text><text fill="#000000" font-family="sans-serif" font-size="13" lengthAdjust="spacing" textLength="227" x="244.2515" y="294.5107">&#8226; Permite solicitar cancelar importaci&#243;n</text></g><!--link ProcesandoImportacion to MostrandoResultados--><g id="link_ProcesandoImportacion_MostrandoResultados"><path d="M208.0415,355.6794 C152.4515,366.8494 24.2515,392.6094 24.2515,392.6094 C24.2515,392.6094 24.2515,444.6094 24.2515,444.6094 C24.2515,444.6094 26.8027,448.6669 32.9827,458.5169 " fill="none" id="ProcesandoImportacion-to-MostrandoResultados" style="stroke:#008000;stroke-width:1.0;"/><polygon fill="#008000" points="36.1715,463.5994,34.7766,453.8498,33.5142,459.364,28,458.1015,36.1715,463.5994" style="stroke:#008000;stroke-width:1.0;"/><path d="M29.2515,397.6094 L29.2515,439.6094 L424.2515,439.6094 L424.2515,407.6094 L414.2515,397.6094 L29.2515,397.6094 " fill="#FEFFDD" style="stroke:#181818;stroke-width:0.5;"/><path d="M414.2515,397.6094 L414.2515,407.6094 L424.2515,407.6094 L414.2515,397.6094 " fill="#FEFFDD" style="stroke:#181818;stroke-width:0.5;"/><text fill="#000000" font-family="sans-serif" font-size="13" font-weight="bold" lengthAdjust="spacing" textLength="89" x="35.2515" y="416.1045">Administrador</text><text fill="#000000" font-family="sans-serif" font-size="13" lengthAdjust="spacing" textLength="281" x="128.2515" y="416.1045">introduce selecci&#243;n de archivo y solicita importar</text><text fill="#000000" font-family="sans-serif" font-size="13" font-weight="bold" lengthAdjust="spacing" textLength="51" x="35.2515" y="432.4561">Sistema</text><text fill="#000000" font-family="sans-serif" font-size="13" lengthAdjust="spacing" textLength="248" x="90.2515" y="432.4561">visualiza y procesa el archivo seleccionado</text></g><!--link MostrandoResultados to *end*importarGrados--><g id="link_MostrandoResultados_*end*importarGrados"><path d="M63.6815,513.7094 C86.8315,558.6294 134.2515,650.6094 134.2515,650.6094 C134.2515,650.6094 213.8522,668.1577 244.5622,674.9277 " fill="none" id="MostrandoResultados-to-*end*importarGrados" style="stroke:#008000;stroke-width:1.0;"/><polygon fill="#008000" points="250.4215,676.2194,242.4937,670.3756,245.5388,675.143,240.7714,678.1881,250.4215,676.2194" style="stroke:#008000;stroke-width:1.0;"/><path d="M139.2515,537.6094 L139.2515,645.6094 L424.2515,645.6094 L424.2515,547.6094 L414.2515,537.6094 L139.2515,537.6094 " fill="#FEFFDD" style="stroke:#181818;stroke-width:0.5;"/><path d="M414.2515,537.6094 L414.2515,547.6094 L424.2515,547.6094 L414.2515,537.6094 " fill="#FEFFDD" style="stroke:#181818;stroke-width:0.5;"/><text fill="#000000" font-family="sans-serif" font-size="13" font-weight="bold" lengthAdjust="spacing" textLength="51" x="145.2515" y="556.1045">Sistema</text><text fill="#000000" font-family="sans-serif" font-size="13" lengthAdjust="spacing" textLength="203" x="200.2515" y="556.1045">presenta resultados de importaci&#243;n</text><text fill="#000000" font-family="sans-serif" font-size="13" lengthAdjust="spacing" textLength="232" x="145.2515" y="572.4561">&#8226; Muestra n&#250;mero de grados importados</text><text fill="#000000" font-family="sans-serif" font-size="13" lengthAdjust="spacing" textLength="264" x="145.2515" y="588.8076">&#8226; Muestra grados que no se pudieron importar</text><text fill="#000000" font-family="sans-serif" font-size="13" lengthAdjust="spacing" textLength="188" x="145.2515" y="605.1592">&#8226; Permite solicitar revisar errores</text><text fill="#000000" font-family="sans-serif" font-size="13" lengthAdjust="spacing" textLength="222" x="145.2515" y="621.5107">&#8226; Permite solicitar finalizar importaci&#243;n</text><text fill="#000000" font-family="sans-serif" font-size="13" font-weight="bold" lengthAdjust="spacing" textLength="89" x="145.2515" y="637.8623">Administrador</text><text fill="#000000" font-family="sans-serif" font-size="13" lengthAdjust="spacing" textLength="160" x="238.2515" y="637.8623">solicita finalizar importaci&#243;n</text></g><!--link ProcesandoImportacion to *end*importarGrados--><g id="link_ProcesandoImportacion_*end*importarGrados"><path d="M258.4715,356.0094 C311.4115,367.3594 429.2515,392.6094 429.2515,392.6094 C429.2515,392.6094 429.2515,650.6094 429.2515,650.6094 C429.2515,650.6094 315.0099,669.653 277.9299,675.833 " fill="none" id="ProcesandoImportacion-to-*end*importarGrados" style="stroke:#FF0000;stroke-width:1.0;"/><polygon fill="#FF0000" points="272.0115,676.8194,281.5467,679.2854,276.9435,675.9974,280.2315,671.3942,272.0115,676.8194" style="stroke:#FF0000;stroke-width:1.0;"/><path d="M434.2515,467.6094 L434.2515,509.6094 L777.2515,509.6094 L777.2515,477.6094 L767.2515,467.6094 L434.2515,467.6094 " fill="#FEFFDD" style="stroke:#181818;stroke-width:0.5;"/><path d="M767.2515,467.6094 L767.2515,477.6094 L777.2515,477.6094 L767.2515,467.6094 " fill="#FEFFDD" style="stroke:#181818;stroke-width:0.5;"/><text fill="#000000" font-family="sans-serif" font-size="13" font-weight="bold" lengthAdjust="spacing" textLength="89" x="440.2515" y="486.1045">Administrador</text><text fill="#000000" font-family="sans-serif" font-size="13" lengthAdjust="spacing" textLength="165" x="533.2515" y="486.1045">solicita cancelar importaci&#243;n</text><text fill="#000000" font-family="sans-serif" font-size="13" font-weight="bold" lengthAdjust="spacing" textLength="51" x="440.2515" y="502.4561">Sistema</text><text fill="#000000" font-family="sans-serif" font-size="13" lengthAdjust="spacing" textLength="267" x="495.2515" y="502.4561">visualiza y descarta el proceso de importaci&#243;n</text></g><g id="GRADOS_ABIERTO"><rect fill="#F1F1F1" height="50" rx="12.5" ry="12.5" style="stroke:#181818;stroke-width:0.5;" width="148" x="322.5" y="797"/><line style="stroke:#181818;stroke-width:0.5;" x1="322.5" x2="470.5" y1="824.6094" y2="824.6094"/><text fill="#000000" font-family="sans-serif" font-size="14" lengthAdjust="spacing" textLength="128" x="332.5" y="816.5332">GRADOS_ABIERTO</text></g><!--link importarGrados to GRADOS_ABIERTO--><g id="link_importarGrados_GRADOS_ABIERTO"><path d="M326.53,701.18 C322.77,719.77 320.5,731 320.5,731 C320.5,731 320.5,767 320.5,767 C320.5,767 337.3785,778.9954 357.6085,793.3654 " fill="none" id="importarGrados-to-GRADOS_ABIERTO" style="stroke:#008000;stroke-width:1.0;"/><polygon fill="#008000" points="362.5,796.84,357.4791,788.3671,358.4237,793.9445,352.8463,794.8891,362.5,796.84" style="stroke:#008000;stroke-width:1.0;"/><path d="M325.5,736 L325.5,762 L421.5,762 L421.5,746 L411.5,736 L325.5,736 " fill="#FEFFDD" style="stroke:#181818;stroke-width:0.5;"/><path d="M411.5,736 L411.5,746 L421.5,746 L411.5,736 " fill="#FEFFDD" style="stroke:#181818;stroke-width:0.5;"/><text fill="#000000" font-family="sans-serif" font-size="13" lengthAdjust="spacing" textLength="75" x="331.5" y="754.4951">abrirGrados()</text></g><!--link importarGrados to GRADOS_ABIERTO--><g id="link_importarGrados_GRADOS_ABIERTO"><path d="M427.8,701.18 C429.48,719.77 430.5,731 430.5,731 C430.5,731 430.5,767 430.5,767 C430.5,767 423.9574,777.393 414.9074,791.763 " fill="none" id="importarGrados-to-GRADOS_ABIERTO-1" style="stroke:#FF0000;stroke-width:1.0;"/><polygon fill="#FF0000" points="411.71,796.84,419.8909,791.3561,414.3745,792.6091,413.1215,787.0928,411.71,796.84" style="stroke:#FF0000;stroke-width:1.0;"/><path d="M435.5,736 L435.5,762 L576.5,762 L576.5,746 L566.5,736 L435.5,736 " fill="#FEFFDD" style="stroke:#181818;stroke-width:0.5;"/><path d="M566.5,736 L566.5,746 L576.5,746 L566.5,736 " fill="#FEFFDD" style="stroke:#181818;stroke-width:0.5;"/><text fill="#000000" font-family="sans-serif" font-size="13" lengthAdjust="spacing" textLength="120" x="441.5" y="754.4951">cancelar importaci&#243;n</text></g><!--SRC=[ZLH1Rjim4Bpp5OHxIGi4-K1Wm6s388SWWHtq4WJ5cbmdH2IkkgI2EaM1lgLVwAtN_AGlwLAs9KkcdS07sTPmPcTcfV3eV0KCfIwSnxYiK5TKBDCFfKA4YDgL5N44FcUm53G4FUh_TVH-f7ziq2Fv26I61HhZo8EtD67pu9weZxXcCXZIxOiLMqBt8PSK8YV454DTnAIbrEs7Etry- -wU4VtTyJYlv4bOo2TJZ-fqFfxOqdcNs2pnwSbyh0CLphW8hJrztvXHwArEnvNACVUaynQ6sZFHnH8QrOene4-gFY8lu5dRDc3ZNlvuzU_NRtsDN3eX2Uq0h66j_sdsvUJiky6YGLxMc4pf1N49aHBR1iZuhKPsblgKQzii4yYNTDshta8DU14SOhkWiZdqaier-Nf74XAJhKsRXCXkMrpkjZWC_Cc56Wht30AkLcDgB5g6Bc79gJEK6RTdHtRmRJLpTpvNzAO-__AtH6xgMstX1ffosWQkxqgpCgbChwlQEZdfkm3o5J9A4d95PfAXzg0MpZTX3Pe-_03jEVI6zM2q-z8ye9VVnWEzMmm619YAN-q0xRJHJljJgS4BRxluy-dayzNiw-JZnTdqvge_DSpPjM_4BVkxT6lVXyXUUUJ-0m00]--></g></svg>