<?xml version="1.0" encoding="us-ascii" standalone="no"?><svg xmlns="http://www.w3.org/2000/svg" xmlns:xlink="http://www.w3.org/1999/xlink" contentStyleType="text/css" height="619px" preserveAspectRatio="none" style="width:1456px;height:619px;background:#FFFFFF;" version="1.1" viewBox="0 0 1456 619" width="1456px" zoomAndPan="magnify"><defs/><g><!--cluster consultarCalendario--><g id="cluster_consultarCalendario"><path d="M155.5,6.016 L285.5,6.016 A3.75,3.75 0 0 1 288,8.516 L295,28.3601 L791.5,28.3601 A2.5,2.5 0 0 1 794,30.8601 L794,609.516 A2.5,2.5 0 0 1 791.5,612.016 L155.5,612.016 A2.5,2.5 0 0 1 153,609.516 L153,8.516 A2.5,2.5 0 0 1 155.5,6.016 " fill="none" style="stroke:#000000;stroke-width:1.5;"/><line style="stroke:#000000;stroke-width:1.5;" x1="153" x2="295" y1="28.3601" y2="28.3601"/><text fill="#000000" font-family="sans-serif" font-size="12" font-weight="bold" lengthAdjust="spacing" textLength="129" x="157" y="20.8441">consultarCalendario()</text></g><!--entity ConsultarCalendarioView--><g id="elem_ConsultarCalendarioView"><rect fill="#629EF9" height="36.3441" rx="2.5" ry="2.5" style="stroke:#181818;stroke-width:0.5;" width="161" x="542.5" y="41.016"/><text fill="#000000" font-family="sans-serif" font-size="12" lengthAdjust="spacing" textLength="141" x="552.5" y="63.8441">ConsultarCalendarioView</text></g><!--entity CalendarioController--><g id="elem_CalendarioController"><rect fill="#B5BD68" height="36.3441" rx="2.5" ry="2.5" style="stroke:#181818;stroke-width:0.5;" width="137" x="415.5" y="155.016"/><text fill="#000000" font-family="sans-serif" font-size="12" lengthAdjust="spacing" textLength="117" x="425.5" y="177.8441">CalendarioController</text></g><!--entity ExamenRepository--><g id="elem_ExamenRepository"><rect fill="#F2AC4E" height="36.3441" rx="2.5" ry="2.5" style="stroke:#181818;stroke-width:0.5;" width="124" x="286" y="269.016"/><text fill="#000000" font-family="sans-serif" font-size="12" lengthAdjust="spacing" textLength="104" x="296" y="291.8441">ExamenRepository</text></g><!--entity Examen--><g id="elem_Examen"><rect fill="#F2AC4E" height="36.3441" rx="2.5" ry="2.5" style="stroke:#181818;stroke-width:0.5;" width="65" x="213.5" y="366.016"/><text fill="#000000" font-family="sans-serif" font-size="12" lengthAdjust="spacing" textLength="45" x="223.5" y="388.8441">Examen</text></g><!--entity Asignatura--><g id="elem_Asignatura"><rect fill="#F2AC4E" height="36.3441" rx="2.5" ry="2.5" style="stroke:#181818;stroke-width:0.5;" width="81" x="205.5" y="463.016"/><text fill="#000000" font-family="sans-serif" font-size="12" lengthAdjust="spacing" textLength="61" x="215.5" y="485.8441">Asignatura</text></g><!--entity Grado--><g id="elem_Grado"><rect fill="#F2AC4E" height="36.3441" rx="2.5" ry="2.5" style="stroke:#181818;stroke-width:0.5;" width="55" x="218.5" y="560.016"/><text fill="#000000" font-family="sans-serif" font-size="12" lengthAdjust="spacing" textLength="35" x="228.5" y="582.8441">Grado</text></g><!--entity Calendario--><g id="elem_Calendario"><rect fill="#F2AC4E" height="36.3441" rx="2.5" ry="2.5" style="stroke:#181818;stroke-width:0.5;" width="81" x="169.5" y="269.016"/><text fill="#000000" font-family="sans-serif" font-size="12" lengthAdjust="spacing" textLength="61" x="179.5" y="291.8441">Calendario</text></g><!--entity Session--><g id="elem_Session"><rect fill="#F2AC4E" height="36.3441" rx="2.5" ry="2.5" style="stroke:#181818;stroke-width:0.5;" width="66" x="192" y="155.016"/><text fill="#000000" font-family="sans-serif" font-size="12" lengthAdjust="spacing" textLength="46" x="202" y="177.8441">:Session</text></g><!--entity SistemaDisponible--><g id="elem_SistemaDisponible"><rect fill="#CDEBA5" height="36.3441" rx="2.5" ry="2.5" style="stroke:#181818;stroke-width:0.5;" width="130" x="7" y="41.016"/><text fill="#000000" font-family="sans-serif" font-size="12" lengthAdjust="spacing" textLength="110" x="17" y="63.8441">:Sistema Disponible</text></g><!--entity SistemaDisponibleSalida--><g id="elem_SistemaDisponibleSalida"><rect fill="#CDEBA5" height="36.3441" rx="2.5" ry="2.5" style="stroke:#181818;stroke-width:0.5;" width="130" x="810" y="155.016"/><text fill="#000000" font-family="sans-serif" font-size="12" lengthAdjust="spacing" textLength="110" x="820" y="177.8441">:Sistema Disponible</text></g><!--entity DescargarCalendario--><g id="elem_DescargarCalendario"><rect fill="#CDEBA5" height="36.3441" rx="2.5" ry="2.5" style="stroke:#181818;stroke-width:0.5;" width="221" x="975.5" y="155.016"/><text fill="#000000" font-family="sans-serif" font-size="12" lengthAdjust="spacing" textLength="201" x="985.5" y="177.8441">:Collaboration DescargarCalendario</text></g><!--entity ComunicarIncidencia--><g id="elem_ComunicarIncidencia"><rect fill="#CDEBA5" height="36.3441" rx="2.5" ry="2.5" style="stroke:#181818;stroke-width:0.5;" width="219" x="1231.5" y="155.016"/><text fill="#000000" font-family="sans-serif" font-size="12" lengthAdjust="spacing" textLength="199" x="1241.5" y="177.8441">:Collaboration ComunicarIncidencia</text></g><!--link SistemaDisponible to ConsultarCalendarioView--><g id="link_SistemaDisponible_ConsultarCalendarioView"><path d="M137.1,59.016 C238.19,59.016 426.69,59.016 536.47,59.016 " fill="none" id="SistemaDisponible-to-ConsultarCalendarioView" style="stroke:#181818;stroke-width:1.0;"/><polygon fill="#181818" points="542.47,59.016,533.47,55.016,537.47,59.016,533.47,63.016,542.47,59.016" style="stroke:#181818;stroke-width:1.0;"/><text fill="#000000" font-family="sans-serif" font-size="12" lengthAdjust="spacing" textLength="121" x="279.25" y="51.8441">consultarCalendario()</text></g><!--link ConsultarCalendarioView to CalendarioController--><g id="link_ConsultarCalendarioView_CalendarioController"><path d="M542.09,71.336 C442.67,85.236 287,107.016 287,107.016 C287,107.016 287,125.016 287,125.016 C287,125.016 352.6839,140.6832 409.5439,154.2532 " fill="none" id="ConsultarCalendarioView-to-CalendarioController" style="stroke:#181818;stroke-width:1.0;"/><polygon fill="#181818" points="415.38,155.646,407.5544,149.6661,410.5166,154.4853,405.6973,157.4475,415.38,155.646" style="stroke:#181818;stroke-width:1.0;"/><text fill="#000000" font-family="sans-serif" font-size="12" lengthAdjust="spacing" textLength="217" x="288" y="120.8441">listarCalendario(rango) : List&lt;Examen&gt;</text></g><!--link ConsultarCalendarioView to CalendarioController--><g id="link_ConsultarCalendarioView_CalendarioController"><path d="M601.89,77.026 C575.76,98.076 536.2018,129.9511 509.9818,151.0811 " fill="none" id="ConsultarCalendarioView-to-CalendarioController-1" style="stroke:#181818;stroke-width:1.0;"/><polygon fill="#181818" points="505.31,154.846,514.8276,152.3132,509.2032,151.7086,509.8078,146.0842,505.31,154.846" style="stroke:#181818;stroke-width:1.0;"/><text fill="#000000" font-family="sans-serif" font-size="12" lengthAdjust="spacing" textLength="227" x="562" y="120.8441">filtrarCalendario(criterio) : List&lt;Examen&gt;</text></g><!--reverse link Session to CalendarioController--><g id="link_Session_CalendarioController"><path d="M264.07,173.016 C303.55,173.016 364.61,173.016 415.45,173.016 " fill="none" id="Session-backto-CalendarioController" style="stroke:#181818;stroke-width:1.0;"/><polygon fill="#181818" points="258.07,173.016,267.07,177.016,263.07,173.016,267.07,169.016,258.07,173.016" style="stroke:#181818;stroke-width:1.0;"/><text fill="#000000" font-family="sans-serif" font-size="12" lengthAdjust="spacing" textLength="121" x="276.25" y="165.8441">obtenerActor() : Actor</text></g><!--link CalendarioController to ExamenRepository--><g id="link_CalendarioController_ExamenRepository"><path d="M415.49,185.396 C331.74,199.306 201,221.016 201,221.016 C201,221.016 201,239.016 201,239.016 C201,239.016 246.7651,253.6486 288.7951,267.0886 " fill="none" id="CalendarioController-to-ExamenRepository" style="stroke:#181818;stroke-width:1.0;"/><polygon fill="#181818" points="294.51,268.916,287.1559,262.3649,289.7476,267.3931,284.7193,269.9848,294.51,268.916" style="stroke:#181818;stroke-width:1.0;"/><text fill="#000000" font-family="sans-serif" font-size="12" lengthAdjust="spacing" textLength="261" x="202" y="234.8441">obtenerPorRango(rango, actor) : List&lt;Examen&gt;</text></g><!--link CalendarioController to ExamenRepository--><g id="link_CalendarioController_ExamenRepository"><path d="M479.8,191.096 C475.06,210.356 468,239.016 468,239.016 C468,239.016 431.5567,253.2876 397.2467,266.7276 " fill="none" id="CalendarioController-to-ExamenRepository-1" style="stroke:#181818;stroke-width:1.0;"/><polygon fill="#181818" points="391.66,268.916,401.4989,269.3578,396.3156,267.0923,398.581,261.9089,391.66,268.916" style="stroke:#181818;stroke-width:1.0;"/><text fill="#000000" font-family="sans-serif" font-size="12" lengthAdjust="spacing" textLength="269" x="473" y="234.8441">buscarPorCriterio(criterio, actor) : List&lt;Examen&gt;</text></g><!--link ExamenRepository to Examen--><g id="link_ExamenRepository_Examen"><path d="M329.29,305.436 C310.89,322.586 282.95,348.596 264.59,365.706 " fill="none" id="ExamenRepository-Examen" style="stroke:#181818;stroke-width:1.0;"/></g><!--link Examen to Asignatura--><g id="link_Examen_Asignatura"><path d="M246,402.436 C246,419.586 246,445.596 246,462.706 " fill="none" id="Examen-Asignatura" style="stroke:#181818;stroke-width:1.0;"/></g><!--link Asignatura to Grado--><g id="link_Asignatura_Grado"><path d="M246,499.436 C246,516.586 246,542.596 246,559.706 " fill="none" id="Asignatura-Grado" style="stroke:#181818;stroke-width:1.0;"/></g><!--link Calendario to Examen--><g id="link_Calendario_Examen"><path d="M216.6,305.436 C223.1,322.586 232.96,348.596 239.44,365.706 " fill="none" id="Calendario-Examen" style="stroke:#181818;stroke-width:1.0;"/></g><!--link ConsultarCalendarioView to DescargarCalendario--><g id="link_ConsultarCalendarioView_DescargarCalendario"><path d="M703.84,70.046 C815.15,83.846 1002,107.016 1002,107.016 C1002,107.016 1034.2948,132.0041 1059.1848,151.2641 " fill="none" id="ConsultarCalendarioView-to-DescargarCalendario" style="stroke:#181818;stroke-width:1.0;stroke-dasharray:7.0,7.0;"/><polygon fill="#181818" points="1063.93,154.936,1059.2601,146.2647,1059.9756,151.8761,1054.3642,152.5917,1063.93,154.936" style="stroke:#181818;stroke-width:1.0;"/><text fill="#000000" font-family="sans-serif" font-size="12" lengthAdjust="spacing" textLength="69" x="1025" y="120.8441">&#171;descargar&#187;</text></g><!--link ConsultarCalendarioView to ComunicarIncidencia--><g id="link_ConsultarCalendarioView_ComunicarIncidencia"><path d="M703.61,67.906 C840.33,81.296 1103,107.016 1103,107.016 C1103,107.016 1202.162,134.0952 1272.682,153.3552 " fill="none" id="ConsultarCalendarioView-to-ComunicarIncidencia" style="stroke:#181818;stroke-width:1.0;stroke-dasharray:7.0,7.0;"/><polygon fill="#181818" points="1278.47,154.936,1270.8418,148.7062,1273.6467,153.6187,1268.7341,156.4235,1278.47,154.936" style="stroke:#181818;stroke-width:1.0;"/><text fill="#000000" font-family="sans-serif" font-size="12" lengthAdjust="spacing" textLength="127" x="1167" y="120.8441">&#171;incidencia&#187; (Profesor)</text></g><!--link ConsultarCalendarioView to SistemaDisponibleSalida--><g id="link_ConsultarCalendarioView_SistemaDisponibleSalida"><path d="M686.67,77.116 C736.71,90.556 798,107.016 798,107.016 C798,107.016 827.3756,131.8051 850.1856,151.0651 " fill="none" id="ConsultarCalendarioView-to-SistemaDisponibleSalida" style="stroke:#181818;stroke-width:1.0;stroke-dasharray:7.0,7.0;"/><polygon fill="#181818" points="854.77,154.936,850.4741,146.0735,850.9497,151.7103,845.3129,152.1859,854.77,154.936" style="stroke:#181818;stroke-width:1.0;"/><text fill="#000000" font-family="sans-serif" font-size="12" lengthAdjust="spacing" textLength="174" x="819" y="120.8441">&#171;finalizar&#187; completarConsulta()</text></g><!--SRC=[fLJVQzim47xNNt5aBodCXOMrh2OOCYSPWpsK1lP-jY-kg28PII5Bn_xtdU8qTbCvTCmFzlb-VFfE-axkIUe6BMwWmFAfjcQhgzmeOs7tA3q9TugxHwpCJkeQrgXSFpAdDMwLNnhjsz92CLOyOIMV2JvDUa4bDVbzGz0OjGy_GbWgFUfQ4Np8vukliniOfIlfF6qGvj8rHij2qGZGmT7TUOLeU76i2KgZ7Q-ADaT5ka8hJQWOHVpZgn7y5i1FR-dRoTrYUGVvs_IVadRdsSLDKTr-WIw9wxmrIf4zJrrEPldd1In-uORq0pN6IM_i_cBQG73cPAtHRoqE97opV6e3iOxhG0BlEZadZMwtkhN5d_yxe1KgMM4KWjMZi30MFQ_3gd4bshg_yGV4YFyTQBdPRBNamk-wb1Nn2mze4RyGRqX3OfDiI0efH2Kbn40-95K0YoWbvMbmhs4ijsMk88KV79csOiWOEb8DYMBSup6bO0fFckoiP76D0yB16gWCZCu5UOAuD_OXq6Z9V0GCG15E_zxkMYflN_LRMhvss7Xlot7YnJPeX7ddHxWJxY3xSn18afVPQp_1qPktpWo1TivwDqrNFRWlrzTPJCmfJAVLYplBBfP7r1lAvUalos1yRysQ7FTy4MfWK0FSMcgsdmCRblgcKHGWZbWizBy0]--></g></svg>