<?xml version="1.0" encoding="us-ascii" standalone="no"?><svg xmlns="http://www.w3.org/2000/svg" xmlns:xlink="http://www.w3.org/1999/xlink" contentStyleType="text/css" height="1215px" preserveAspectRatio="none" style="width:1763px;height:1215px;background:#FFFFFF;" version="1.1" viewBox="0 0 1763 1215" width="1763px" zoomAndPan="magnify"><defs/><g><g id="NoAuth"><rect fill="#F1F1F1" height="50" rx="12.5" ry="12.5" style="stroke:#181818;stroke-width:0.5;" width="145" x="87" y="677"/><line style="stroke:#181818;stroke-width:0.5;" x1="87" x2="232" y1="704.6094" y2="704.6094"/><text fill="#000000" font-family="sans-serif" font-size="14" lengthAdjust="spacing" textLength="125" x="97" y="696.5332">SESION_CERRADA</text></g><g id="Menu"><rect fill="#F1F1F1" height="50" rx="12.5" ry="12.5" style="stroke:#181818;stroke-width:0.5;" width="167" x="376" y="677"/><line style="stroke:#181818;stroke-width:0.5;" x1="376" x2="543" y1="704.6094" y2="704.6094"/><text fill="#000000" font-family="sans-serif" font-size="14" lengthAdjust="spacing" textLength="147" x="386" y="696.5332">SISTEMA_DISPONIBLE</text></g><g id="ListGrados"><rect fill="#F1F1F1" height="50" rx="12.5" ry="12.5" style="stroke:#181818;stroke-width:0.5;" width="148" x="750" y="104"/><line style="stroke:#181818;stroke-width:0.5;" x1="750" x2="898" y1="131.6094" y2="131.6094"/><text fill="#000000" font-family="sans-serif" font-size="14" lengthAdjust="spacing" textLength="128" x="760" y="123.5332">GRADOS_ABIERTO</text></g><g id="EditGrado"><rect fill="#F1F1F1" height="50" rx="12.5" ry="12.5" style="stroke:#181818;stroke-width:0.5;" width="139" x="1103" y="69"/><line style="stroke:#181818;stroke-width:0.5;" x1="1103" x2="1242" y1="96.6094" y2="96.6094"/><text fill="#000000" font-family="sans-serif" font-size="14" lengthAdjust="spacing" textLength="119" x="1113" y="88.5332">GRADO_ABIERTO</text></g><g id="ListAsignaturas"><rect fill="#F1F1F1" height="50" rx="12.5" ry="12.5" style="stroke:#181818;stroke-width:0.5;" width="184" x="732" y="281"/><line style="stroke:#181818;stroke-width:0.5;" x1="732" x2="916" y1="308.6094" y2="308.6094"/><text fill="#000000" font-family="sans-serif" font-size="14" lengthAdjust="spacing" textLength="164" x="742" y="300.5332">ASIGNATURAS_ABIERTO</text></g><g id="EditAsignatura"><rect fill="#F1F1F1" height="50" rx="12.5" ry="12.5" style="stroke:#181818;stroke-width:0.5;" width="175" x="1085" y="243"/><line style="stroke:#181818;stroke-width:0.5;" x1="1085" x2="1260" y1="270.6094" y2="270.6094"/><text fill="#000000" font-family="sans-serif" font-size="14" lengthAdjust="spacing" textLength="155" x="1095" y="262.5332">ASIGNATURA_ABIERTO</text></g><g id="ListExamenes"><rect fill="#F1F1F1" height="50" rx="12.5" ry="12.5" style="stroke:#181818;stroke-width:0.5;" width="161" x="743.5" y="412"/><line style="stroke:#181818;stroke-width:0.5;" x1="743.5" x2="904.5" y1="439.6094" y2="439.6094"/><text fill="#000000" font-family="sans-serif" font-size="14" lengthAdjust="spacing" textLength="141" x="753.5" y="431.5332">EXAMENES_ABIERTO</text></g><g id="EditExamen"><rect fill="#F1F1F1" height="50" rx="12.5" ry="12.5" style="stroke:#181818;stroke-width:0.5;" width="143" x="1101" y="417"/><line style="stroke:#181818;stroke-width:0.5;" x1="1101" x2="1244" y1="444.6094" y2="444.6094"/><text fill="#000000" font-family="sans-serif" font-size="14" lengthAdjust="spacing" textLength="123" x="1111" y="436.5332">EXAMEN_ABIERTO</text></g><g id="ListProfesores"><rect fill="#F1F1F1" height="50" rx="12.5" ry="12.5" style="stroke:#181818;stroke-width:0.5;" width="184" x="732" y="589"/><line style="stroke:#181818;stroke-width:0.5;" x1="732" x2="916" y1="616.6094" y2="616.6094"/><text fill="#000000" font-family="sans-serif" font-size="14" lengthAdjust="spacing" textLength="164" x="742" y="608.5332">PROFESORES_ABIERTO</text></g><g id="EditProfesor"><rect fill="#F1F1F1" height="50" rx="12.5" ry="12.5" style="stroke:#181818;stroke-width:0.5;" width="166" x="1089.5" y="591"/><line style="stroke:#181818;stroke-width:0.5;" x1="1089.5" x2="1255.5" y1="618.6094" y2="618.6094"/><text fill="#000000" font-family="sans-serif" font-size="14" lengthAdjust="spacing" textLength="146" x="1099.5" y="610.5332">PROFESOR_ABIERTO</text></g><g id="EditProfesorPreferencias"><rect fill="#F1F1F1" height="50" rx="12.5" ry="12.5" style="stroke:#181818;stroke-width:0.5;" width="279" x="1477" y="541"/><line style="stroke:#181818;stroke-width:0.5;" x1="1477" x2="1756" y1="568.6094" y2="568.6094"/><text fill="#000000" font-family="sans-serif" font-size="14" lengthAdjust="spacing" textLength="259" x="1487" y="560.5332">PROFESOR_PREFERENCIAS_ABIERTO</text></g><g id="Asignaciones"><rect fill="#F1F1F1" height="50" rx="12.5" ry="12.5" style="stroke:#181818;stroke-width:0.5;" width="247" x="1493" y="641"/><line style="stroke:#181818;stroke-width:0.5;" x1="1493" x2="1740" y1="668.6094" y2="668.6094"/><text fill="#000000" font-family="sans-serif" font-size="14" lengthAdjust="spacing" textLength="227" x="1503" y="660.5332">PROFESOR_EXAMENES_ABIERTO</text></g><g id="ListAulas"><rect fill="#F1F1F1" height="50" rx="12.5" ry="12.5" style="stroke:#181818;stroke-width:0.5;" width="132" x="758" y="766"/><line style="stroke:#181818;stroke-width:0.5;" x1="758" x2="890" y1="793.6094" y2="793.6094"/><text fill="#000000" font-family="sans-serif" font-size="14" lengthAdjust="spacing" textLength="112" x="768" y="785.5332">AULAS_ABIERTO</text></g><g id="EditAula"><rect fill="#F1F1F1" height="50" rx="12.5" ry="12.5" style="stroke:#181818;stroke-width:0.5;" width="121" x="1112" y="766"/><line style="stroke:#181818;stroke-width:0.5;" x1="1112" x2="1233" y1="793.6094" y2="793.6094"/><text fill="#000000" font-family="sans-serif" font-size="14" lengthAdjust="spacing" textLength="101" x="1122" y="785.5332">AULA_ABIERTA</text></g><g id="ListAlumnos"><rect fill="#F1F1F1" height="50" rx="12.5" ry="12.5" style="stroke:#181818;stroke-width:0.5;" width="154" x="747" y="943"/><line style="stroke:#181818;stroke-width:0.5;" x1="747" x2="901" y1="970.6094" y2="970.6094"/><text fill="#000000" font-family="sans-serif" font-size="14" lengthAdjust="spacing" textLength="134" x="757" y="962.5332">ALUMNOS_ABIERTO</text></g><g id="EditAlumno"><rect fill="#F1F1F1" height="50" rx="12.5" ry="12.5" style="stroke:#181818;stroke-width:0.5;" width="145" x="1100" y="943"/><line style="stroke:#181818;stroke-width:0.5;" x1="1100" x2="1245" y1="970.6094" y2="970.6094"/><text fill="#000000" font-family="sans-serif" font-size="14" lengthAdjust="spacing" textLength="125" x="1110" y="962.5332">ALUMNO_ABIERTO</text></g><g id="Generacion"><rect fill="#F1F1F1" height="50" rx="12.5" ry="12.5" style="stroke:#181818;stroke-width:0.5;" width="194" x="727" y="1028"/><line style="stroke:#181818;stroke-width:0.5;" x1="727" x2="921" y1="1055.6094" y2="1055.6094"/><text fill="#000000" font-family="sans-serif" font-size="14" lengthAdjust="spacing" textLength="174" x="737" y="1047.5332">CALENDARIO_GENERADO</text></g><g id="Consulta"><rect fill="#F1F1F1" height="50" rx="12.5" ry="12.5" style="stroke:#181818;stroke-width:0.5;" width="176" x="736" y="1159"/><line style="stroke:#181818;stroke-width:0.5;" x1="736" x2="912" y1="1186.6094" y2="1186.6094"/><text fill="#000000" font-family="sans-serif" font-size="14" lengthAdjust="spacing" textLength="156" x="746" y="1178.5332">CALENDARIO_ABIERTO</text></g><ellipse cx="16" cy="702" fill="#222222" rx="10" ry="10" style="stroke:#222222;stroke-width:1.0;"/><!--link *start* to NoAuth--><g id="link_*start*_NoAuth"><path d="M26.28,702 C38.95,702 56.83,702 80.84,702 " fill="none" id="*start*-to-NoAuth" style="stroke:#181818;stroke-width:1.0;"/><polygon fill="#181818" points="86.84,702,77.84,698,81.84,702,77.84,706,86.84,702" style="stroke:#181818;stroke-width:1.0;"/></g><!--link NoAuth to Menu--><g id="link_NoAuth_Menu"><path d="M232.26,702 C275.49,702 324.7,702 369.76,702 " fill="none" id="NoAuth-to-Menu" style="stroke:#181818;stroke-width:1.0;"/><polygon fill="#181818" points="375.76,702,366.76,698,370.76,702,366.76,706,375.76,702" style="stroke:#181818;stroke-width:1.0;"/><text fill="#000000" font-family="sans-serif" font-size="13" lengthAdjust="spacing" textLength="82" x="263" y="698.4951">iniciarSesion()</text></g><!--link Menu to NoAuth--><g id="link_Menu_NoAuth"><path d="M375.85,721.1 C358.84,725.03 346,728 346,728 C346,728 262,728 262,728 C262,728 254.7024,726.1286 237.9124,721.8286 " fill="none" id="Menu-to-NoAuth" style="stroke:#181818;stroke-width:1.0;"/><polygon fill="#181818" points="232.1,720.34,239.8262,726.4478,236.9437,721.5805,241.811,718.6979,232.1,720.34" style="stroke:#181818;stroke-width:1.0;"/><text fill="#000000" font-family="sans-serif" font-size="13" lengthAdjust="spacing" textLength="81" x="263.5" y="724.4951">cerrarSesion()</text></g><!--link Menu to ListGrados--><g id="link_Menu_ListGrados"><path d="M466.08,676.91 C488.78,574.81 573,196 573,196 C573,196 670.1145,169.9732 743.8845,150.2032 " fill="none" id="Menu-to-ListGrados" style="stroke:#181818;stroke-width:1.0;"/><polygon fill="#181818" points="749.68,148.65,739.9513,147.1161,744.8504,149.9443,742.0222,154.8434,749.68,148.65" style="stroke:#181818;stroke-width:1.0;"/><text fill="#000000" font-family="sans-serif" font-size="13" lengthAdjust="spacing" textLength="75" x="597.5" y="161.4951">abrirGrados()</text></g><!--link ListGrados to Menu--><g id="link_ListGrados_Menu"><path d="M765.77,154.04 C745.21,163.03 727,171 727,171 C727,171 697,222 697,222 C697,222 573,306 573,306 C573,306 493.9897,584.1084 469.2597,671.1584 " fill="none" id="ListGrados-to-Menu" style="stroke:#181818;stroke-width:1.0;"/><polygon fill="#181818" points="467.62,676.93,473.9272,669.3657,468.9864,672.1203,466.2317,667.1795,467.62,676.93" style="stroke:#181818;stroke-width:1.0;"/><text fill="#000000" font-family="sans-serif" font-size="13" lengthAdjust="spacing" textLength="110" x="580" y="218.4951">completarGestion()</text></g><!--link Menu to ListAsignaturas--><g id="link_Menu_ListAsignaturas"><path d="M468.59,676.97 C494.39,597.18 573,354 573,354 C573,354 654.3776,338.3713 725.7876,324.6613 " fill="none" id="Menu-to-ListAsignaturas" style="stroke:#181818;stroke-width:1.0;"/><polygon fill="#181818" points="731.68,323.53,722.0872,321.2987,726.7697,324.4727,723.5956,329.1552,731.68,323.53" style="stroke:#181818;stroke-width:1.0;"/><text fill="#000000" font-family="sans-serif" font-size="13" lengthAdjust="spacing" textLength="102" x="584" y="328.4951">abrirAsignaturas()</text></g><!--link ListAsignaturas to Menu--><g id="link_ListAsignaturas_Menu"><path d="M765.77,331.04 C745.21,340.03 727,348 727,348 C727,348 697,380 697,380 C697,380 573,445 573,445 C573,445 502.2061,606.7236 473.8961,671.3936 " fill="none" id="ListAsignaturas-to-Menu" style="stroke:#181818;stroke-width:1.0;"/><polygon fill="#181818" points="471.49,676.89,478.7635,670.2495,473.4951,672.3097,471.4349,667.0413,471.49,676.89" style="stroke:#181818;stroke-width:1.0;"/><text fill="#000000" font-family="sans-serif" font-size="13" lengthAdjust="spacing" textLength="110" x="580" y="376.4951">completarGestion()</text></g><!--link Menu to ListExamenes--><g id="link_Menu_ListExamenes"><path d="M474.52,676.82 C504.68,622.68 573,500 573,500 C573,500 664.2318,477.0057 737.3918,458.5757 " fill="none" id="Menu-to-ListExamenes" style="stroke:#181818;stroke-width:1.0;"/><polygon fill="#181818" points="743.21,457.11,733.5055,455.4297,738.3615,458.3314,735.4598,463.1874,743.21,457.11" style="stroke:#181818;stroke-width:1.0;"/><text fill="#000000" font-family="sans-serif" font-size="13" lengthAdjust="spacing" textLength="95" x="587.5" y="467.4951">abrirExamenes()</text></g><!--link ListExamenes to Menu--><g id="link_ListExamenes_Menu"><path d="M765.77,462.04 C745.21,471.03 727,479 727,479 C727,479 697,526 697,526 C697,526 573,610 573,610 C573,610 529.1947,645.8217 495.8847,673.0617 " fill="none" id="ListExamenes-to-Menu" style="stroke:#181818;stroke-width:1.0;"/><polygon fill="#181818" points="491.24,676.86,500.7392,674.259,495.1106,673.6948,495.6748,668.0661,491.24,676.86" style="stroke:#181818;stroke-width:1.0;"/><text fill="#000000" font-family="sans-serif" font-size="13" lengthAdjust="spacing" textLength="110" x="580" y="522.4951">completarGestion()</text></g><!--link Menu to ListProfesores--><g id="link_Menu_ListProfesores"><path d="M519.39,676.88 C546.61,665.26 573,654 573,654 C573,654 654.3454,640.9883 725.7554,629.5583 " fill="none" id="Menu-to-ListProfesores" style="stroke:#181818;stroke-width:1.0;"/><polygon fill="#181818" points="731.68,628.61,722.1609,626.0827,726.7428,629.4002,723.4253,633.9822,731.68,628.61" style="stroke:#181818;stroke-width:1.0;"/><text fill="#000000" font-family="sans-serif" font-size="13" lengthAdjust="spacing" textLength="95" x="587.5" y="632.4951">abrirProfesores()</text></g><!--link ListProfesores to Menu--><g id="link_ListProfesores_Menu"><path d="M767.16,639.01 C746.04,648.47 727,657 727,657 C727,657 697,680 697,680 C697,680 617.3942,687.4038 549.1942,693.7538 " fill="none" id="ListProfesores-to-Menu" style="stroke:#181818;stroke-width:1.0;"/><polygon fill="#181818" points="543.22,694.31,552.5521,697.4584,548.1985,693.8465,551.8104,689.4929,543.22,694.31" style="stroke:#181818;stroke-width:1.0;"/><text fill="#000000" font-family="sans-serif" font-size="13" lengthAdjust="spacing" textLength="110" x="580" y="676.4951">completarGestion()</text></g><!--link Menu to ListAulas--><g id="link_Menu_ListAulas"><path d="M543.21,722.31 C608.3,738.29 691.923,758.8194 752.003,773.5694 " fill="none" id="Menu-to-ListAulas" style="stroke:#181818;stroke-width:1.0;"/><polygon fill="#181818" points="757.83,775,750.0433,768.9695,752.9742,773.8079,748.1359,776.7388,757.83,775" style="stroke:#181818;stroke-width:1.0;"/><text fill="#000000" font-family="sans-serif" font-size="13" lengthAdjust="spacing" textLength="66" x="602" y="726.4951">abrirAulas()</text></g><!--link ListAulas to Menu--><g id="link_ListAulas_Menu"><path d="M757.97,789.44 C683.89,787.66 573,785 573,785 C573,785 532.498,755.1223 499.388,730.6923 " fill="none" id="ListAulas-to-Menu" style="stroke:#181818;stroke-width:1.0;"/><polygon fill="#181818" points="494.56,727.13,499.4272,735.6922,498.5834,730.0986,504.1769,729.2548,494.56,727.13" style="stroke:#181818;stroke-width:1.0;"/><text fill="#000000" font-family="sans-serif" font-size="13" lengthAdjust="spacing" textLength="110" x="580" y="781.4951">completarGestion()</text></g><!--link Menu to ListAlumnos--><g id="link_Menu_ListAlumnos"><path d="M486.03,727.19 C519.22,759.94 573,813 573,813 C573,813 697,888 697,888 C697,888 741.4647,916.234 778.4147,939.694 " fill="none" id="Menu-to-ListAlumnos" style="stroke:#181818;stroke-width:1.0;"/><polygon fill="#181818" points="783.48,942.91,778.0261,934.7091,779.2589,940.23,773.738,941.4628,783.48,942.91" style="stroke:#181818;stroke-width:1.0;"/><text fill="#000000" font-family="sans-serif" font-size="13" lengthAdjust="spacing" textLength="84" x="593" y="809.4951">abrirAlumnos()</text></g><!--link ListAlumnos to Menu--><g id="link_ListAlumnos_Menu"><path d="M746.97,951.58 C673.42,935.69 573,914 573,914 C573,914 506.4624,788.6101 476.6624,732.4501 " fill="none" id="ListAlumnos-to-Menu" style="stroke:#181818;stroke-width:1.0;"/><polygon fill="#181818" points="473.85,727.15,474.5352,736.975,476.1936,731.5667,481.6019,733.2252,473.85,727.15" style="stroke:#181818;stroke-width:1.0;"/><text fill="#000000" font-family="sans-serif" font-size="13" lengthAdjust="spacing" textLength="110" x="580" y="910.4951">completarGestion()</text></g><!--link Menu to Generacion--><g id="link_Menu_Generacion"><path d="M471.29,727.22 C499.44,793.04 573,965 573,965 C573,965 697,1008 697,1008 C697,1008 718.3497,1015.6215 747.3497,1025.9815 " fill="none" id="Menu-to-Generacion" style="stroke:#181818;stroke-width:1.0;"/><polygon fill="#181818" points="753,1028,745.8703,1021.2054,748.2914,1026.3179,743.1789,1028.7391,753,1028" style="stroke:#181818;stroke-width:1.0;"/><text fill="#000000" font-family="sans-serif" font-size="13" lengthAdjust="spacing" textLength="112" x="579" y="961.4951">generarCalendario()</text></g><!--link Generacion to Menu--><g id="link_Generacion_Menu"><path d="M726.7,1045.68 C656.28,1040.33 573,1034 573,1034 C573,1034 497.2255,810.3826 470.9755,732.9126 " fill="none" id="Generacion-to-Menu" style="stroke:#181818;stroke-width:1.0;"/><polygon fill="#181818" points="469.05,727.23,468.1498,737.0376,470.6546,731.9655,475.7267,734.4703,469.05,727.23" style="stroke:#181818;stroke-width:1.0;"/><text fill="#000000" font-family="sans-serif" font-size="13" lengthAdjust="spacing" textLength="113" x="578.5" y="1030.4951">completarProceso()</text></g><!--link Menu to Consulta--><g id="link_Menu_Consulta"><path d="M468.23,727.16 C493.65,809.85 573,1068 573,1068 C573,1068 690.1274,1122.3446 763.6174,1156.4446 " fill="none" id="Menu-to-Consulta" style="stroke:#181818;stroke-width:1.0;"/><polygon fill="#181818" points="769.06,1158.97,762.5797,1151.5534,764.5245,1156.8655,759.2124,1158.8103,769.06,1158.97" style="stroke:#181818;stroke-width:1.0;"/><text fill="#000000" font-family="sans-serif" font-size="13" lengthAdjust="spacing" textLength="122" x="574" y="1064.4951">consultarCalendario()</text></g><!--link Consulta to Menu--><g id="link_Consulta_Menu"><path d="M735.91,1171.46 C663.76,1161.07 573,1148 573,1148 C573,1148 492.1375,827.4278 468.3375,733.0778 " fill="none" id="Consulta-to-Menu" style="stroke:#181818;stroke-width:1.0;"/><polygon fill="#181818" points="466.87,727.26,465.1928,736.965,468.093,732.1081,472.9498,735.0083,466.87,727.26" style="stroke:#181818;stroke-width:1.0;"/><text fill="#000000" font-family="sans-serif" font-size="13" lengthAdjust="spacing" textLength="116" x="577" y="1144.4951">completarConsulta()</text></g><!--link ListGrados to EditGrado--><g id="link_ListGrados_EditGrado"><path d="M883.57,103.9 C916.48,89.8 951,75 951,75 C951,75 1055,75 1055,75 C1055,75 1071.5781,77.7049 1096.7981,81.8149 " fill="none" id="ListGrados-to-EditGrado" style="stroke:#181818;stroke-width:1.0;"/><polygon fill="#181818" points="1102.72,82.78,1094.4806,77.3845,1097.7851,81.9758,1093.1938,85.2803,1102.72,82.78" style="stroke:#181818;stroke-width:1.0;"/><text fill="#000000" font-family="sans-serif" font-size="13" lengthAdjust="spacing" textLength="72" x="967" y="71.4951">crearGrado()</text></g><!--link ListGrados to EditGrado--><g id="link_ListGrados_EditGrado"><path d="M898.06,121.62 C958.52,115.51 1037.8104,107.5032 1096.9904,101.5232 " fill="none" id="ListGrados-to-EditGrado-1" style="stroke:#181818;stroke-width:1.0;"/><polygon fill="#181818" points="1102.96,100.92,1093.6035,97.8451,1097.9853,101.4227,1094.4077,105.8046,1102.96,100.92" style="stroke:#181818;stroke-width:1.0;"/><text fill="#000000" font-family="sans-serif" font-size="13" lengthAdjust="spacing" textLength="75" x="965.5" y="103.4951">editarGrado()</text></g><!--link EditGrado to ListGrados--><g id="link_EditGrado_ListGrados"><path d="M1110.52,119.12 C1082.33,130.74 1055,142 1055,142 C1055,142 951,142 951,142 C951,142 931.9783,140.0358 904.2583,137.1758 " fill="none" id="EditGrado-to-ListGrados" style="stroke:#181818;stroke-width:1.0;"/><polygon fill="#181818" points="898.29,136.56,906.832,141.4625,903.2636,137.0731,907.653,133.5048,898.29,136.56" style="stroke:#181818;stroke-width:1.0;"/><text fill="#000000" font-family="sans-serif" font-size="13" lengthAdjust="spacing" textLength="75" x="965.5" y="138.4951">abrirGrados()</text></g><!--link ListGrados to ListGrados--><g id="link_ListGrados_ListGrados"><path d="M808.94,103.72 C804.38,86.23 809.4,69 824,69 C838.6,69 845.1337,80.4241 840.5737,97.9141 " fill="none" id="ListGrados-to-ListGrados" style="stroke:#181818;stroke-width:1.0;"/><polygon fill="#181818" points="839.06,103.72,845.2012,96.0203,840.3214,98.8817,837.46,94.002,839.06,103.72" style="stroke:#181818;stroke-width:1.0;"/><text fill="#000000" font-family="sans-serif" font-size="13" lengthAdjust="spacing" textLength="88" x="780" y="60.4951">eliminarGrado()</text></g><!--link ListGrados to ListGrados--><g id="link_ListGrados_ListGrados"><path d="M800.61,103.7 C781.78,71.89 789.58,34 824,34 C858.42,34 869.2764,66.7268 850.4464,98.5368 " fill="none" id="ListGrados-to-ListGrados-1" style="stroke:#181818;stroke-width:1.0;"/><polygon fill="#181818" points="847.39,103.7,855.4167,97.9928,849.937,99.3973,848.5324,93.9176,847.39,103.7" style="stroke:#181818;stroke-width:1.0;"/><text fill="#000000" font-family="sans-serif" font-size="13" lengthAdjust="spacing" textLength="97" x="775.5" y="25.4951">importarGrados()</text></g><!--link EditGrado to EditGrado--><g id="link_EditGrado_EditGrado"><path d="M1144.08,68.72 C1135.46,51.23 1144.94,34 1172.5,34 C1200.06,34 1212.1925,45.8481 1203.5725,63.3381 " fill="none" id="EditGrado-to-EditGrado" style="stroke:#181818;stroke-width:1.0;"/><polygon fill="#181818" points="1200.92,68.72,1208.4866,62.4155,1203.1304,64.2351,1201.3108,58.8789,1200.92,68.72" style="stroke:#181818;stroke-width:1.0;"/><text fill="#000000" font-family="sans-serif" font-size="13" lengthAdjust="spacing" textLength="75" x="1135" y="25.4951">editarGrado()</text></g><!--link ListAsignaturas to EditAsignatura--><g id="link_ListAsignaturas_EditAsignatura"><path d="M880.27,281 C914.12,265.68 951,249 951,249 C951,249 1055,249 1055,249 C1055,249 1061.768,250.1056 1078.778,252.8756 " fill="none" id="ListAsignaturas-to-EditAsignatura" style="stroke:#181818;stroke-width:1.0;"/><polygon fill="#181818" points="1084.7,253.84,1076.4599,248.4455,1079.765,253.0364,1075.1741,256.3414,1084.7,253.84" style="stroke:#181818;stroke-width:1.0;"/><text fill="#000000" font-family="sans-serif" font-size="13" lengthAdjust="spacing" textLength="99" x="953.5" y="245.4951">crearAsignatura()</text></g><!--link ListAsignaturas to EditAsignatura--><g id="link_ListAsignaturas_EditAsignatura"><path d="M916.04,296.02 C968.27,290.29 1027.5158,283.7947 1078.9858,278.1447 " fill="none" id="ListAsignaturas-to-EditAsignatura-1" style="stroke:#181818;stroke-width:1.0;"/><polygon fill="#181818" points="1084.95,277.49,1075.5673,274.4959,1079.9799,278.0356,1076.4402,282.4482,1084.95,277.49" style="stroke:#181818;stroke-width:1.0;"/><text fill="#000000" font-family="sans-serif" font-size="13" lengthAdjust="spacing" textLength="102" x="952" y="278.4951">editarAsignatura()</text></g><!--link EditAsignatura to ListAsignaturas--><g id="link_EditAsignatura_ListAsignaturas"><path d="M1112.91,293.15 C1083.9,305.6 1055,318 1055,318 C1055,318 951,318 951,318 C951,318 941.9129,317.14 922.2129,315.26 " fill="none" id="EditAsignatura-to-ListAsignaturas" style="stroke:#181818;stroke-width:1.0;"/><polygon fill="#181818" points="916.24,314.69,924.8193,319.5269,921.2174,315.165,925.5793,311.5631,916.24,314.69" style="stroke:#181818;stroke-width:1.0;"/><text fill="#000000" font-family="sans-serif" font-size="13" lengthAdjust="spacing" textLength="102" x="952" y="314.4951">abrirAsignaturas()</text></g><!--link ListAsignaturas to ListAsignaturas--><g id="link_ListAsignaturas_ListAsignaturas"><path d="M808.94,280.72 C804.38,263.23 809.4,246 824,246 C838.6,246 845.1337,257.4241 840.5737,274.9141 " fill="none" id="ListAsignaturas-to-ListAsignaturas" style="stroke:#181818;stroke-width:1.0;"/><polygon fill="#181818" points="839.06,280.72,845.2012,273.0203,840.3214,275.8817,837.46,271.002,839.06,280.72" style="stroke:#181818;stroke-width:1.0;"/><text fill="#000000" font-family="sans-serif" font-size="13" lengthAdjust="spacing" textLength="115" x="766.5" y="237.4951">eliminarAsignatura()</text></g><!--link ListAsignaturas to ListAsignaturas--><g id="link_ListAsignaturas_ListAsignaturas"><path d="M800.61,280.7 C781.78,248.89 789.58,211 824,211 C858.42,211 869.2764,243.7268 850.4464,275.5368 " fill="none" id="ListAsignaturas-to-ListAsignaturas-1" style="stroke:#181818;stroke-width:1.0;"/><polygon fill="#181818" points="847.39,280.7,855.4167,274.9928,849.937,276.3973,848.5324,270.9176,847.39,280.7" style="stroke:#181818;stroke-width:1.0;"/><text fill="#000000" font-family="sans-serif" font-size="13" lengthAdjust="spacing" textLength="124" x="762" y="202.4951">importarAsignaturas()</text></g><!--link EditAsignatura to EditAsignatura--><g id="link_EditAsignatura_EditAsignatura"><path d="M1144.08,242.72 C1135.46,225.23 1144.94,208 1172.5,208 C1200.06,208 1212.1925,219.8481 1203.5725,237.3381 " fill="none" id="EditAsignatura-to-EditAsignatura" style="stroke:#181818;stroke-width:1.0;"/><polygon fill="#181818" points="1200.92,242.72,1208.4866,236.4155,1203.1304,238.2351,1201.3108,232.8789,1200.92,242.72" style="stroke:#181818;stroke-width:1.0;"/><text fill="#000000" font-family="sans-serif" font-size="13" lengthAdjust="spacing" textLength="102" x="1121.5" y="199.4951">editarAsignatura()</text></g><!--link ListExamenes to EditExamen--><g id="link_ListExamenes_EditExamen"><path d="M904.8,428.13 C929.8,425.36 951,423 951,423 C951,423 1055,423 1055,423 C1055,423 1070.3879,425.5164 1094.7879,429.4864 " fill="none" id="ListExamenes-to-EditExamen" style="stroke:#181818;stroke-width:1.0;"/><polygon fill="#181818" points="1100.71,430.45,1092.4692,425.0566,1095.7749,429.647,1091.1844,432.9527,1100.71,430.45" style="stroke:#181818;stroke-width:1.0;"/><text fill="#000000" font-family="sans-serif" font-size="13" lengthAdjust="spacing" textLength="85" x="960.5" y="419.4951">crearExamen()</text></g><!--link ListExamenes to EditExamen--><g id="link_ListExamenes_EditExamen"><path d="M904.8,444.6 C929.8,446.98 951,449 951,449 C951,449 1055,449 1055,449 C1055,449 1070.3209,448.0808 1094.7209,446.6108 " fill="none" id="ListExamenes-to-EditExamen-1" style="stroke:#181818;stroke-width:1.0;"/><polygon fill="#181818" points="1100.71,446.25,1091.4857,442.7985,1095.719,446.5507,1091.9668,450.784,1100.71,446.25" style="stroke:#181818;stroke-width:1.0;"/><text fill="#000000" font-family="sans-serif" font-size="13" lengthAdjust="spacing" textLength="88" x="959" y="445.4951">editarExamen()</text></g><!--link EditExamen to ListExamenes--><g id="link_EditExamen_ListExamenes"><path d="M1100.71,462.05 C1076.31,468.96 1055,475 1055,475 C1055,475 951,475 951,475 C951,475 935.5444,470.3425 910.5444,462.8025 " fill="none" id="EditExamen-to-ListExamenes" style="stroke:#181818;stroke-width:1.0;"/><polygon fill="#181818" points="904.8,461.07,912.2616,467.4984,909.587,462.5138,914.5716,459.8392,904.8,461.07" style="stroke:#181818;stroke-width:1.0;"/><text fill="#000000" font-family="sans-serif" font-size="13" lengthAdjust="spacing" textLength="95" x="955.5" y="471.4951">abrirExamenes()</text></g><!--link ListExamenes to ListExamenes--><g id="link_ListExamenes_ListExamenes"><path d="M793.88,411.72 C784.76,394.23 794.8,377 824,377 C853.2,377 866.0141,388.9098 856.8941,406.3998 " fill="none" id="ListExamenes-to-ListExamenes" style="stroke:#181818;stroke-width:1.0;"/><polygon fill="#181818" points="854.12,411.72,861.828,405.5892,856.4318,407.2865,854.7344,401.8903,854.12,411.72" style="stroke:#181818;stroke-width:1.0;"/><text fill="#000000" font-family="sans-serif" font-size="13" lengthAdjust="spacing" textLength="101" x="773.5" y="368.4951">eliminarExamen()</text></g><!--link EditExamen to EditExamen--><g id="link_EditExamen_EditExamen"><path d="M1144.08,416.72 C1135.46,399.23 1144.94,382 1172.5,382 C1200.06,382 1212.1925,393.8481 1203.5725,411.3381 " fill="none" id="EditExamen-to-EditExamen" style="stroke:#181818;stroke-width:1.0;"/><polygon fill="#181818" points="1200.92,416.72,1208.4866,410.4155,1203.1304,412.2351,1201.3108,406.8789,1200.92,416.72" style="stroke:#181818;stroke-width:1.0;"/><text fill="#000000" font-family="sans-serif" font-size="13" lengthAdjust="spacing" textLength="88" x="1128.5" y="373.4951">editarExamen()</text></g><!--link ListProfesores to EditProfesor--><g id="link_ListProfesores_EditProfesor"><path d="M916.24,601.69 C935.94,599.03 951,597 951,597 C951,597 1055,597 1055,597 C1055,597 1064.1286,598.482 1083.3986,601.632 " fill="none" id="ListProfesores-to-EditProfesor" style="stroke:#181818;stroke-width:1.0;"/><polygon fill="#181818" points="1089.32,602.6,1081.0832,597.2005,1084.3855,601.7934,1079.7926,605.0957,1089.32,602.6" style="stroke:#181818;stroke-width:1.0;"/><text fill="#000000" font-family="sans-serif" font-size="13" lengthAdjust="spacing" textLength="85" x="960.5" y="593.4951">crearProfesor()</text></g><!--link ListProfesores to EditProfesor--><g id="link_ListProfesores_EditProfesor"><path d="M916.24,620.52 C935.94,621.92 951,623 951,623 C951,623 1055,623 1055,623 C1055,623 1064.0608,622.4605 1083.3308,621.3005 " fill="none" id="ListProfesores-to-EditProfesor-1" style="stroke:#181818;stroke-width:1.0;"/><polygon fill="#181818" points="1089.32,620.94,1080.0959,617.488,1084.329,621.2404,1080.5766,625.4736,1089.32,620.94" style="stroke:#181818;stroke-width:1.0;"/><text fill="#000000" font-family="sans-serif" font-size="13" lengthAdjust="spacing" textLength="88" x="959" y="619.4951">editarProfesor()</text></g><!--link EditProfesor to ListProfesores--><g id="link_EditProfesor_ListProfesores"><path d="M1089.32,639.28 C1070.05,644.74 1055,649 1055,649 C1055,649 951,649 951,649 C951,649 941.2112,646.2756 921.0112,640.6656 " fill="none" id="EditProfesor-to-ListProfesores" style="stroke:#181818;stroke-width:1.0;"/><polygon fill="#181818" points="915.23,639.06,922.8314,645.3225,920.0477,640.398,924.9722,637.6142,915.23,639.06" style="stroke:#181818;stroke-width:1.0;"/><text fill="#000000" font-family="sans-serif" font-size="13" lengthAdjust="spacing" textLength="95" x="955.5" y="645.4951">abrirProfesores()</text></g><!--link ListProfesores to ListProfesores--><g id="link_ListProfesores_ListProfesores"><path d="M808.94,588.72 C804.38,571.23 809.4,554 824,554 C838.6,554 845.1337,565.4241 840.5737,582.9141 " fill="none" id="ListProfesores-to-ListProfesores" style="stroke:#181818;stroke-width:1.0;"/><polygon fill="#181818" points="839.06,588.72,845.2012,581.0203,840.3214,583.8817,837.46,579.002,839.06,588.72" style="stroke:#181818;stroke-width:1.0;"/><text fill="#000000" font-family="sans-serif" font-size="13" lengthAdjust="spacing" textLength="101" x="773.5" y="545.4951">eliminarProfesor()</text></g><!--link ListProfesores to ListProfesores--><g id="link_ListProfesores_ListProfesores"><path d="M800.61,588.7 C781.78,556.89 789.58,519 824,519 C858.42,519 869.2764,551.7268 850.4464,583.5368 " fill="none" id="ListProfesores-to-ListProfesores-1" style="stroke:#181818;stroke-width:1.0;"/><polygon fill="#181818" points="847.39,588.7,855.4167,582.9928,849.937,584.3973,848.5324,578.9176,847.39,588.7" style="stroke:#181818;stroke-width:1.0;"/><text fill="#000000" font-family="sans-serif" font-size="13" lengthAdjust="spacing" textLength="117" x="765.5" y="510.4951">importarProfesores()</text></g><!--link EditProfesor to EditProfesor--><g id="link_EditProfesor_EditProfesor"><path d="M1144.08,590.72 C1135.46,573.23 1144.94,556 1172.5,556 C1200.06,556 1212.1925,567.8481 1203.5725,585.3381 " fill="none" id="EditProfesor-to-EditProfesor" style="stroke:#181818;stroke-width:1.0;"/><polygon fill="#181818" points="1200.92,590.72,1208.4866,584.4155,1203.1304,586.2351,1201.3108,580.8789,1200.92,590.72" style="stroke:#181818;stroke-width:1.0;"/><text fill="#000000" font-family="sans-serif" font-size="13" lengthAdjust="spacing" textLength="88" x="1128.5" y="547.4951">editarProfesor()</text></g><!--link EditProfesor to EditProfesorPreferencias--><g id="link_EditProfesor_EditProfesorPreferencias"><path d="M1234.48,590.88 C1262.67,579.26 1290,568 1290,568 C1290,568 1382.3901,567.4372 1470.9901,566.8872 " fill="none" id="EditProfesor-to-EditProfesorPreferencias" style="stroke:#181818;stroke-width:1.0;"/><polygon fill="#181818" points="1476.99,566.85,1467.9653,562.9059,1471.9901,566.881,1468.015,570.9058,1476.99,566.85" style="stroke:#181818;stroke-width:1.0;"/><text fill="#000000" font-family="sans-serif" font-size="13" lengthAdjust="spacing" textLength="155" x="1291" y="564.4951">listarConflictosExamenes()</text></g><!--link EditProfesorPreferencias to EditProfesor--><g id="link_EditProfesorPreferencias_EditProfesor"><path d="M1476.74,589.06 C1459.06,592 1447,594 1447,594 C1447,594 1342.1007,602.4389 1261.5407,608.9189 " fill="none" id="EditProfesorPreferencias-to-EditProfesor" style="stroke:#181818;stroke-width:1.0;"/><polygon fill="#181818" points="1255.56,609.4,1264.8517,612.6655,1260.5439,608.9991,1264.2103,604.6913,1255.56,609.4" style="stroke:#181818;stroke-width:1.0;"/><text fill="#000000" font-family="sans-serif" font-size="13" lengthAdjust="spacing" textLength="124" x="1306.5" y="590.4951">abrirEdicionProfesor()</text></g><!--link EditProfesor to Asignaciones--><g id="link_EditProfesor_Asignaciones"><path d="M1255.68,627.99 C1274.95,630.8 1290,633 1290,633 C1290,633 1394.6706,643.6151 1486.9406,652.9651 " fill="none" id="EditProfesor-to-Asignaciones" style="stroke:#181818;stroke-width:1.0;"/><polygon fill="#181818" points="1492.91,653.57,1484.3591,648.683,1487.9355,653.0659,1483.5526,656.6423,1492.91,653.57" style="stroke:#181818;stroke-width:1.0;"/><text fill="#000000" font-family="sans-serif" font-size="13" lengthAdjust="spacing" textLength="155" x="1291" y="629.4951">asignarProfesorAExamen()</text></g><!--link Asignaciones to EditProfesor--><g id="link_Asignaciones_EditProfesor"><path d="M1492.6,671.84 C1466.69,673.07 1447,674 1447,674 C1447,674 1290,674 1290,674 C1290,674 1260.781,659.4544 1229.291,643.7744 " fill="none" id="Asignaciones-to-EditProfesor" style="stroke:#181818;stroke-width:1.0;"/><polygon fill="#181818" points="1223.92,641.1,1230.1935,648.6923,1228.3958,643.3287,1233.7594,641.531,1223.92,641.1" style="stroke:#181818;stroke-width:1.0;"/><text fill="#000000" font-family="sans-serif" font-size="13" lengthAdjust="spacing" textLength="88" x="1324.5" y="670.4951">editarProfesor()</text></g><!--link ListAulas to EditAula--><g id="link_ListAulas_EditAula"><path d="M890.21,781.17 C920.96,776.53 951,772 951,772 C951,772 1055,772 1055,772 C1055,772 1077.2984,775.633 1105.9584,780.313 " fill="none" id="ListAulas-to-EditAula" style="stroke:#181818;stroke-width:1.0;"/><polygon fill="#181818" points="1111.88,781.28,1103.6423,775.8819,1106.9454,780.4742,1102.353,783.7773,1111.88,781.28" style="stroke:#181818;stroke-width:1.0;"/><text fill="#000000" font-family="sans-serif" font-size="13" lengthAdjust="spacing" textLength="63" x="971.5" y="768.4951">crearAula()</text></g><!--link ListAulas to EditAula--><g id="link_ListAulas_EditAula"><path d="M890.21,794.62 C920.96,796.33 951,798 951,798 C951,798 1055,798 1055,798 C1055,798 1077.2308,796.6594 1105.8908,794.9394 " fill="none" id="ListAulas-to-EditAula-1" style="stroke:#181818;stroke-width:1.0;"/><polygon fill="#181818" points="1111.88,794.58,1102.6565,791.1263,1106.889,794.8795,1103.1358,799.112,1111.88,794.58" style="stroke:#181818;stroke-width:1.0;"/><text fill="#000000" font-family="sans-serif" font-size="13" lengthAdjust="spacing" textLength="66" x="970" y="794.4951">editarAula()</text></g><!--link EditAula to ListAulas--><g id="link_EditAula_ListAulas"><path d="M1111.88,807.89 C1083.22,816.01 1055,824 1055,824 C1055,824 951,824 951,824 C951,824 926.7644,817.6495 896.0144,809.5995 " fill="none" id="EditAula-to-ListAulas" style="stroke:#181818;stroke-width:1.0;"/><polygon fill="#181818" points="890.21,808.08,897.9036,814.2289,895.047,809.3463,899.9296,806.4897,890.21,808.08" style="stroke:#181818;stroke-width:1.0;"/><text fill="#000000" font-family="sans-serif" font-size="13" lengthAdjust="spacing" textLength="66" x="970" y="820.4951">abrirAulas()</text></g><!--link ListAulas to ListAulas--><g id="link_ListAulas_ListAulas"><path d="M808.94,765.72 C804.38,748.23 809.4,731 824,731 C838.6,731 845.1337,742.4241 840.5737,759.9141 " fill="none" id="ListAulas-to-ListAulas" style="stroke:#181818;stroke-width:1.0;"/><polygon fill="#181818" points="839.06,765.72,845.2012,758.0203,840.3214,760.8817,837.46,756.002,839.06,765.72" style="stroke:#181818;stroke-width:1.0;"/><text fill="#000000" font-family="sans-serif" font-size="13" lengthAdjust="spacing" textLength="79" x="784.5" y="722.4951">eliminarAula()</text></g><!--link ListAulas to ListAulas--><g id="link_ListAulas_ListAulas"><path d="M800.61,765.7 C781.78,733.89 789.58,696 824,696 C858.42,696 869.2764,728.7268 850.4464,760.5368 " fill="none" id="ListAulas-to-ListAulas-1" style="stroke:#181818;stroke-width:1.0;"/><polygon fill="#181818" points="847.39,765.7,855.4167,759.9928,849.937,761.3973,848.5324,755.9176,847.39,765.7" style="stroke:#181818;stroke-width:1.0;"/><text fill="#000000" font-family="sans-serif" font-size="13" lengthAdjust="spacing" textLength="88" x="780" y="687.4951">importarAulas()</text></g><!--link EditAula to EditAula--><g id="link_EditAula_EditAula"><path d="M1144.08,765.72 C1135.46,748.23 1144.94,731 1172.5,731 C1200.06,731 1212.1925,742.8481 1203.5725,760.3381 " fill="none" id="EditAula-to-EditAula" style="stroke:#181818;stroke-width:1.0;"/><polygon fill="#181818" points="1200.92,765.72,1208.4866,759.4155,1203.1304,761.2351,1201.3108,755.8789,1200.92,765.72" style="stroke:#181818;stroke-width:1.0;"/><text fill="#000000" font-family="sans-serif" font-size="13" lengthAdjust="spacing" textLength="66" x="1139.5" y="722.4951">editarAula()</text></g><!--link ListAlumnos to EditAlumno--><g id="link_ListAlumnos_EditAlumno"><path d="M901.2,956.51 C927.74,952.51 951,949 951,949 C951,949 1055,949 1055,949 C1055,949 1069.8082,951.4144 1093.7882,955.3244 " fill="none" id="ListAlumnos-to-EditAlumno" style="stroke:#181818;stroke-width:1.0;"/><polygon fill="#181818" points="1099.71,956.29,1091.471,950.8938,1094.7752,955.4854,1090.1836,958.7895,1099.71,956.29" style="stroke:#181818;stroke-width:1.0;"/><text fill="#000000" font-family="sans-serif" font-size="13" lengthAdjust="spacing" textLength="81" x="962.5" y="945.4951">crearAlumno()</text></g><!--link ListAlumnos to EditAlumno--><g id="link_ListAlumnos_EditAlumno"><path d="M901.2,972.23 C927.74,973.71 951,975 951,975 C951,975 1055,975 1055,975 C1055,975 1069.7408,974.1097 1093.7208,972.6697 " fill="none" id="ListAlumnos-to-EditAlumno-1" style="stroke:#181818;stroke-width:1.0;"/><polygon fill="#181818" points="1099.71,972.31,1090.4864,968.8567,1094.719,972.6097,1090.966,976.8423,1099.71,972.31" style="stroke:#181818;stroke-width:1.0;"/><text fill="#000000" font-family="sans-serif" font-size="13" lengthAdjust="spacing" textLength="84" x="961" y="971.4951">editarAlumno()</text></g><!--link EditAlumno to ListAlumnos--><g id="link_EditAlumno_ListAlumnos"><path d="M1099.71,988.34 C1075.73,995.13 1055,1001 1055,1001 C1055,1001 951,1001 951,1001 C951,1001 933.5443,996.43 907.0043,989.48 " fill="none" id="EditAlumno-to-ListAlumnos" style="stroke:#181818;stroke-width:1.0;"/><polygon fill="#181818" points="901.2,987.96,908.8931,994.1095,906.0369,989.2266,910.9197,986.3704,901.2,987.96" style="stroke:#181818;stroke-width:1.0;"/><text fill="#000000" font-family="sans-serif" font-size="13" lengthAdjust="spacing" textLength="84" x="961" y="997.4951">abrirAlumnos()</text></g><!--link ListAlumnos to ListAlumnos--><g id="link_ListAlumnos_ListAlumnos"><path d="M808.94,942.72 C804.38,925.23 809.4,908 824,908 C838.6,908 845.1337,919.4241 840.5737,936.9141 " fill="none" id="ListAlumnos-to-ListAlumnos" style="stroke:#181818;stroke-width:1.0;"/><polygon fill="#181818" points="839.06,942.72,845.2012,935.0203,840.3214,937.8817,837.46,933.002,839.06,942.72" style="stroke:#181818;stroke-width:1.0;"/><text fill="#000000" font-family="sans-serif" font-size="13" lengthAdjust="spacing" textLength="97" x="775.5" y="899.4951">eliminarAlumno()</text></g><!--link ListAlumnos to ListAlumnos--><g id="link_ListAlumnos_ListAlumnos"><path d="M800.61,942.7 C781.78,910.89 789.58,873 824,873 C858.42,873 869.2764,905.7268 850.4464,937.5368 " fill="none" id="ListAlumnos-to-ListAlumnos-1" style="stroke:#181818;stroke-width:1.0;"/><polygon fill="#181818" points="847.39,942.7,855.4167,936.9928,849.937,938.3973,848.5324,932.9176,847.39,942.7" style="stroke:#181818;stroke-width:1.0;"/><text fill="#000000" font-family="sans-serif" font-size="13" lengthAdjust="spacing" textLength="106" x="771" y="864.4951">importarAlumnos()</text></g><!--link EditAlumno to EditAlumno--><g id="link_EditAlumno_EditAlumno"><path d="M1144.08,942.72 C1135.46,925.23 1144.94,908 1172.5,908 C1200.06,908 1212.1925,919.8481 1203.5725,937.3381 " fill="none" id="EditAlumno-to-EditAlumno" style="stroke:#181818;stroke-width:1.0;"/><polygon fill="#181818" points="1200.92,942.72,1208.4866,936.4155,1203.1304,938.2351,1201.3108,932.8789,1200.92,942.72" style="stroke:#181818;stroke-width:1.0;"/><text fill="#000000" font-family="sans-serif" font-size="13" lengthAdjust="spacing" textLength="84" x="1130.5" y="899.4951">editarAlumno()</text></g><!--link Consulta to Consulta--><g id="link_Consulta_Consulta"><path d="M793.88,1158.72 C784.76,1141.23 794.8,1124 824,1124 C853.2,1124 866.0141,1135.9098 856.8941,1153.3998 " fill="none" id="Consulta-to-Consulta" style="stroke:#181818;stroke-width:1.0;"/><polygon fill="#181818" points="854.12,1158.72,861.828,1152.5892,856.4318,1154.2865,854.7344,1148.8903,854.12,1158.72" style="stroke:#181818;stroke-width:1.0;"/><text fill="#000000" font-family="sans-serif" font-size="13" lengthAdjust="spacing" textLength="188" x="730" y="1115.4951">descargarCalendarioExamenes()</text></g><!--SRC=[dPRDZjiW4CVlF8MrfxRIla0FbTWi6rbAxCZEIfMgAc8TaaLrS0IEr7txOcE-3BQpFSL3VlDd68Q1cfpQf6qIJi_lRNAad5GjRHWGVoYxOeulIKqPQJ-k9BaszKTd021Qt9BaeKHbccU75IeA-0mV4YoIh86tzjq0QRb7MtXuJijTdgLF6zH3My9kHcGjVVFo09zILEpp_lyD5UsQusCZFCXZq94gnWZ1CbrdSFzQm50D2dfckBrnB48yqBMq4KS_uHPbA5H6V_65C29yC91Kc97R5VaBAlCY8hZZpOc8Xbj93GUY6Wt0NO5UK86oLJhAXUkru-H4E64LnU5KqVMgl5IoF6Hm9e-lcrZ2RxMJQeaC1BH9beGLsRnkiqWLmFfsOROC51RkLqyPiHNSeEmP5cb-MCirTANJeskvJxmFFqAwcgk6YLlTol1-VVkTF3x-q6MjVlgHheQJxmbbLEQFbqH8sIzV0UZ7hOj4Ai9vbB1bBYdynYbNbeGynYbU3Jf3OreNf4QrFUPidMdIZWGHTBjfvkwCW50RPHXbkfJDleJElS5Nk2RiY3bjN5AdlylTyEcJmCbSvs1wGUV12LPvbE0CH-Jt9EZj3AdfXRBxM7gvDbphTii7Tixv27nkfZJ0k2IqhXtJQR0ZGzYBRYgcHR-mAdMI_iDLvyolQJ2AxTvm8svtdI7WdHqzcnhG-LJMiB1fLaKr3OzEgKwTSG2EsfBu25re061qyBMw7j8BrVOG_Ro7YcZU9MWuUj6VTDEruhKgu0LqJuIp3kwzA9rh6OFiFmqxrRHg6-6aCv1nByWk_Rrf9eRUhdcETpHau8b_TfNUeYBEgbAEj9Dt983j_kO0Iiiq6FcjptaC6ivdZ7Al5TCyba3JAeOh29YvvYRseCdh3BZNc97hRRFStj8HJg73t5EiVrkQfT-7cmIO-nKuSo-5Ca9dx-tnDJUyTwhcSgr9TsyHqQe7JQpBpzDUDvn7HmrX8GfJD0kSazzf4ZWlbXWfGwjaQ98q3vOOflySSyuhvqX4XVdPVUKuNUOV]--></g></svg>