<?xml version="1.0" encoding="us-ascii" standalone="no"?><svg xmlns="http://www.w3.org/2000/svg" xmlns:xlink="http://www.w3.org/1999/xlink" contentStyleType="text/css" height="730px" preserveAspectRatio="none" style="width:656px;height:730px;background:#FFFFFF;" version="1.1" viewBox="0 0 656 730" width="656px" zoomAndPan="magnify"><defs/><g><path d="M19.5,7 L630.5,7 A12.5,12.5 0 0 1 643,19.5 L643,34.6094 L7,34.6094 L7,19.5 A12.5,12.5 0 0 1 19.5,7 " fill="#F1F1F1" style="stroke:#F1F1F1;stroke-width:1.0;"/><rect fill="none" height="570.6094" rx="12.5" ry="12.5" style="stroke:#181818;stroke-width:0.5;" width="636" x="7" y="7"/><line style="stroke:#181818;stroke-width:0.5;" x1="7" x2="643" y1="34.6094" y2="34.6094"/><text fill="#000000" font-family="sans-serif" font-size="14" lengthAdjust="spacing" textLength="137" x="256.5" y="26.5332">consultarCalendario()</text><g id="consultarCalendario.MostrandoCalendario"><rect fill="#F1F1F1" height="50" rx="12.5" ry="12.5" style="stroke:#181818;stroke-width:0.5;" width="50" x="150" y="137.6094"/><line style="stroke:#181818;stroke-width:0.5;" x1="150" x2="200" y1="165.2188" y2="165.2188"/><text fill="#000000" font-family="sans-serif" font-size="14" lengthAdjust="spacing" textLength="4" x="173" y="157.1426">&#160;</text></g><g id="consultarCalendario.FiltrandoVista"><rect fill="#F1F1F1" height="50" rx="12.5" ry="12.5" style="stroke:#181818;stroke-width:0.5;" width="50" x="150" y="390.6094"/><line style="stroke:#181818;stroke-width:0.5;" x1="150" x2="200" y1="418.2188" y2="418.2188"/><text fill="#000000" font-family="sans-serif" font-size="14" lengthAdjust="spacing" textLength="4" x="173" y="410.1426">&#160;</text></g><ellipse cx="175" cy="55.6094" fill="#222222" rx="10" ry="10" style="stroke:#222222;stroke-width:1.0;"/><ellipse cx="175" cy="556.6094" fill="none" rx="11" ry="11" style="stroke:#222222;stroke-width:1.0;"/><ellipse cx="175" cy="556.6094" fill="#222222" rx="6" ry="6" style="stroke:#222222;stroke-width:1.0;"/><!--link *start*consultarCalendario to MostrandoCalendario--><g id="link_*start*consultarCalendario_MostrandoCalendario"><path d="M175,65.9294 C175,81.7894 175,108.5194 175,131.2494 " fill="none" id="*start*consultarCalendario-to-MostrandoCalendario" style="stroke:#008000;stroke-width:1.0;"/><polygon fill="#008000" points="175,137.2494,179,128.2494,175,132.2494,171,128.2494,175,137.2494" style="stroke:#008000;stroke-width:1.0;"/><path d="M180,88.6094 L180,114.6094 L415,114.6094 L415,98.6094 L405,88.6094 L180,88.6094 " fill="#FEFFDD" style="stroke:#181818;stroke-width:0.5;"/><path d="M405,88.6094 L405,98.6094 L415,98.6094 L405,88.6094 " fill="#FEFFDD" style="stroke:#181818;stroke-width:0.5;"/><text fill="#000000" font-family="sans-serif" font-size="13" font-weight="bold" lengthAdjust="spacing" textLength="49" x="186" y="107.1045">Alumno</text><text fill="#000000" font-family="sans-serif" font-size="13" lengthAdjust="spacing" textLength="161" x="239" y="107.1045">solicita consultar calendario</text></g><!--link MostrandoCalendario to FiltrandoVista--><g id="link_MostrandoCalendario_FiltrandoVista"><path d="M149.78,170.3594 C105.39,182.2294 18,205.6094 18,205.6094 C18,205.6094 18,372.6094 18,372.6094 C18,372.6094 99.5937,394.4394 143.9837,406.3094 " fill="none" id="MostrandoCalendario-to-FiltrandoVista" style="stroke:#008000;stroke-width:1.0;"/><polygon fill="#008000" points="149.78,407.8594,142.1188,401.6702,144.9497,406.5677,140.0522,409.3987,149.78,407.8594" style="stroke:#008000;stroke-width:1.0;"/><path d="M23,210.6094 L23,367.6094 L307,367.6094 L307,220.6094 L297,210.6094 L23,210.6094 " fill="#FEFFDD" style="stroke:#181818;stroke-width:0.5;"/><path d="M297,210.6094 L297,220.6094 L307,220.6094 L297,210.6094 " fill="#FEFFDD" style="stroke:#181818;stroke-width:0.5;"/><text fill="#000000" font-family="sans-serif" font-size="13" font-weight="bold" lengthAdjust="spacing" textLength="51" x="29" y="229.1045">Sistema</text><text fill="#000000" font-family="sans-serif" font-size="13" lengthAdjust="spacing" textLength="197" x="84" y="229.1045">presenta calendario personalizado</text><text fill="#000000" font-family="sans-serif" font-size="13" lengthAdjust="spacing" textLength="258" x="29" y="245.4561">&#8226; Muestra ex&#225;menes del alumno matriculado</text><text fill="#000000" font-family="sans-serif" font-size="13" lengthAdjust="spacing" textLength="263" x="29" y="261.8076">&#8226; Muestra fecha, hora y aula de cada examen</text><text fill="#000000" font-family="sans-serif" font-size="13" lengthAdjust="spacing" textLength="181" x="29" y="278.1592">&#8226; Muestra asignatura y profesor</text><text fill="#000000" font-family="sans-serif" font-size="13" lengthAdjust="spacing" textLength="206" x="29" y="294.5107">&#8226; Muestra grado y curso del alumno</text><text fill="#000000" font-family="sans-serif" font-size="13" lengthAdjust="spacing" textLength="221" x="29" y="310.8623">&#8226; Permite solicitar filtrar por asignatura</text><text fill="#000000" font-family="sans-serif" font-size="13" lengthAdjust="spacing" textLength="192" x="29" y="327.2139">&#8226; Permite solicitar filtrar por fecha</text><text fill="#000000" font-family="sans-serif" font-size="13" lengthAdjust="spacing" textLength="227" x="29" y="343.5654">&#8226; Permite solicitar descargar calendario</text><text fill="#000000" font-family="sans-serif" font-size="13" lengthAdjust="spacing" textLength="193" x="29" y="359.917">&#8226; Permite solicitar cerrar consulta</text></g><!--link FiltrandoVista to MostrandoCalendario--><g id="link_FiltrandoVista_MostrandoCalendario"><path d="M200.13,406.9094 C239.68,394.7794 312,372.6094 312,372.6094 C312,372.6094 312,205.6094 312,205.6094 C312,205.6094 245.4163,185.1987 205.8663,173.0687 " fill="none" id="FiltrandoVista-to-MostrandoCalendario" style="stroke:#008000;stroke-width:1.0;"/><polygon fill="#008000" points="200.13,171.3094,207.5615,177.7725,204.9102,172.7755,209.9073,170.1242,200.13,171.3094" style="stroke:#008000;stroke-width:1.0;"/><path d="M317,251.6094 L317,326.6094 L634,326.6094 L634,261.6094 L624,251.6094 L317,251.6094 " fill="#FEFFDD" style="stroke:#181818;stroke-width:0.5;"/><path d="M624,251.6094 L624,261.6094 L634,261.6094 L624,251.6094 " fill="#FEFFDD" style="stroke:#181818;stroke-width:0.5;"/><text fill="#000000" font-family="sans-serif" font-size="13" font-weight="bold" lengthAdjust="spacing" textLength="49" x="323" y="270.1045">Alumno</text><text fill="#000000" font-family="sans-serif" font-size="13" lengthAdjust="spacing" textLength="118" x="376" y="270.1045">solicita aplicar filtros</text><text fill="#000000" font-family="sans-serif" font-size="13" font-weight="bold" lengthAdjust="spacing" textLength="51" x="323" y="286.4561">Sistema</text><text fill="#000000" font-family="sans-serif" font-size="13" lengthAdjust="spacing" textLength="241" x="378" y="286.4561">visualiza y aplica los filtros seleccionados</text><text fill="#000000" font-family="sans-serif" font-size="13" font-weight="bold" lengthAdjust="spacing" textLength="51" x="323" y="302.8076">Sistema</text><text fill="#000000" font-family="sans-serif" font-size="13" lengthAdjust="spacing" textLength="155" x="378" y="302.8076">presenta calendario filtrado</text><text fill="#000000" font-family="sans-serif" font-size="13" font-weight="bold" lengthAdjust="spacing" textLength="51" x="323" y="319.1592">Sistema</text><text fill="#000000" font-family="sans-serif" font-size="13" lengthAdjust="spacing" textLength="206" x="378" y="319.1592">muestra solo ex&#225;menes del alumno</text></g><!--link FiltrandoVista to *end*consultarCalendario--><g id="link_FiltrandoVista_*end*consultarCalendario"><path d="M175,440.8194 C175,471.6194 175,517.4494 175,539.3494 " fill="none" id="FiltrandoVista-to-*end*consultarCalendario" style="stroke:#008000;stroke-width:1.0;"/><polygon fill="#008000" points="175,545.3494,179,536.3494,175,540.3494,171,536.3494,175,545.3494" style="stroke:#008000;stroke-width:1.0;"/><path d="M180,463.6094 L180,522.6094 L480,522.6094 L480,473.6094 L470,463.6094 L180,463.6094 " fill="#FEFFDD" style="stroke:#181818;stroke-width:0.5;"/><path d="M470,463.6094 L470,473.6094 L480,473.6094 L470,463.6094 " fill="#FEFFDD" style="stroke:#181818;stroke-width:0.5;"/><text fill="#000000" font-family="sans-serif" font-size="13" font-weight="bold" lengthAdjust="spacing" textLength="49" x="186" y="482.1045">Alumno</text><text fill="#000000" font-family="sans-serif" font-size="13" lengthAdjust="spacing" textLength="131" x="239" y="482.1045">solicita cerrar consulta</text><text fill="#000000" font-family="sans-serif" font-size="13" font-weight="bold" lengthAdjust="spacing" textLength="51" x="186" y="498.4561">Sistema</text><text fill="#000000" font-family="sans-serif" font-size="13" lengthAdjust="spacing" textLength="224" x="241" y="498.4561">visualiza y cierra la vista del calendario</text><text fill="#000000" font-family="sans-serif" font-size="13" font-weight="bold" lengthAdjust="spacing" textLength="51" x="186" y="514.8076">Sistema</text><text fill="#000000" font-family="sans-serif" font-size="13" lengthAdjust="spacing" textLength="209" x="241" y="514.8076">visualiza y regresa al men&#250; principal</text></g><g id="CALENDARIO_ABIERTO"><rect fill="#F1F1F1" height="50" rx="12.5" ry="12.5" style="stroke:#181818;stroke-width:0.5;" width="176" x="108" y="674"/><line style="stroke:#181818;stroke-width:0.5;" x1="108" x2="284" y1="701.6094" y2="701.6094"/><text fill="#000000" font-family="sans-serif" font-size="14" lengthAdjust="spacing" textLength="156" x="118" y="693.5332">CALENDARIO_ABIERTO</text></g><g id="SISTEMA_DISPONIBLE"><rect fill="#F1F1F1" height="50" rx="12.5" ry="12.5" style="stroke:#181818;stroke-width:0.5;" width="167" x="371.5" y="674"/><line style="stroke:#181818;stroke-width:0.5;" x1="371.5" x2="538.5" y1="701.6094" y2="701.6094"/><text fill="#000000" font-family="sans-serif" font-size="14" lengthAdjust="spacing" textLength="147" x="381.5" y="693.5332">SISTEMA_DISPONIBLE</text></g><!--link consultarCalendario to CALENDARIO_ABIERTO--><g id="link_consultarCalendario_CALENDARIO_ABIERTO"><path d="M205.54,578.13 C197.79,596.6 193,608 193,608 C193,608 193,644 193,644 C193,644 193.5265,653.4793 194.3265,667.8493 " fill="none" id="consultarCalendario-to-CALENDARIO_ABIERTO" style="stroke:#008000;stroke-width:1.0;"/><polygon fill="#008000" points="194.66,673.84,198.1535,664.6316,194.3821,668.8477,190.1659,665.0763,194.66,673.84" style="stroke:#008000;stroke-width:1.0;"/><path d="M198,613 L198,639 L407,639 L407,623 L397,613 L198,613 " fill="#FEFFDD" style="stroke:#181818;stroke-width:0.5;"/><path d="M397,613 L397,623 L407,623 L397,613 " fill="#FEFFDD" style="stroke:#181818;stroke-width:0.5;"/><text fill="#000000" font-family="sans-serif" font-size="13" lengthAdjust="spacing" textLength="188" x="204" y="631.4951">descargarCalendarioExamenes()</text></g><!--link consultarCalendario to SISTEMA_DISPONIBLE--><g id="link_consultarCalendario_SISTEMA_DISPONIBLE"><path d="M416.44,578.01 C429.11,617.45 438.3334,646.158 445.3234,667.898 " fill="none" id="consultarCalendario-to-SISTEMA_DISPONIBLE" style="stroke:#008000;stroke-width:1.0;"/><polygon fill="#008000" points="447.16,673.61,448.2132,663.8176,445.6295,668.85,440.5971,666.2664,447.16,673.61" style="stroke:#008000;stroke-width:1.0;"/><path d="M441,613 L441,639 L578,639 L578,623 L568,613 L441,613 " fill="#FEFFDD" style="stroke:#181818;stroke-width:0.5;"/><path d="M568,613 L568,623 L578,623 L568,613 " fill="#FEFFDD" style="stroke:#181818;stroke-width:0.5;"/><text fill="#000000" font-family="sans-serif" font-size="13" lengthAdjust="spacing" textLength="116" x="447" y="631.4951">completarConsulta()</text></g><!--SRC=[hLHBRjim4Dtp50DtanGDUe70W9AeW80u3kAWco089jJO8KAH12a5TOi2lKfxZ6vpavwaGoQAFbLJBmelBDFlpNipRwXmhun3ZnLePQZUEW9dzJR-42BKM1D8QqAZQ_J7gCcKw9K5332RED_Rdy6NbZVZ3-CMDjGUJMaxs13mGUadm4V5vq9SlRs6Wwit6qzahW_camMCPRurqVIzEBoTPxgfZ3ryVpk7OBMIgiREDyYEoDyGoK9Cb1t8ZcoD5LTyIXKcIUSfa8cINIb7FbY3Mdt6qefVttx0eg6e2FJfyNj5XWAKf06JSwYmzaesUWnUaxp3Tt1d-NaBo01ciKuPwo2N6Q0ng8t1kabWv-sQWlK3nCQp0lyf6xRNCv10v-GhnMss8_ImJaFml1E-Ltm7SFBz5rn9GQBV38EPXahoiM8RPI- -OJp_PM7GyKFRXmtZb1zKQ5AUCOW41Mr3YuP0cgHKd7dv9tTgGvx6nNcFiDLpLEpBJYxBRbFWQxJRDHcD-9MkfOfOu1ryI7BHKY_2LvYUs5VW4MlWRXv_ya2KaSgXxfhvAiJKgwRVqt5scf-TP1V5yYOxAlABo-MmnPVDwlXvkYKKzlPxO_kNpgfONUQBxEQaM9qlpugZqtoe8stbD4N-Sw5-zTy0]--></g></svg>