<?xml version="1.0" encoding="us-ascii" standalone="no"?><svg xmlns="http://www.w3.org/2000/svg" xmlns:xlink="http://www.w3.org/1999/xlink" contentStyleType="text/css" height="328px" preserveAspectRatio="none" style="width:1360px;height:328px;background:#FFFFFF;" version="1.1" viewBox="0 0 1360 328" width="1360px" zoomAndPan="magnify"><defs/><g><!--cluster editarAlumno--><g id="cluster_editarAlumno"><path d="M8.5,6.016 L100.5,6.016 A3.75,3.75 0 0 1 103,8.516 L110,28.3601 L684.5,28.3601 A2.5,2.5 0 0 1 687,30.8601 L687,318.516 A2.5,2.5 0 0 1 684.5,321.016 L8.5,321.016 A2.5,2.5 0 0 1 6,318.516 L6,8.516 A2.5,2.5 0 0 1 8.5,6.016 " fill="none" style="stroke:#000000;stroke-width:1.5;"/><line style="stroke:#000000;stroke-width:1.5;" x1="6" x2="110" y1="28.3601" y2="28.3601"/><text fill="#000000" font-family="sans-serif" font-size="12" font-weight="bold" lengthAdjust="spacing" textLength="91" x="10" y="20.8441">editarAlumno()</text></g><!--entity EditarAlumnoView--><g id="elem_EditarAlumnoView"><rect fill="#629EF9" height="36.3441" rx="2.5" ry="2.5" style="stroke:#181818;stroke-width:0.5;" width="122" x="549" y="41.016"/><text fill="#000000" font-family="sans-serif" font-size="12" lengthAdjust="spacing" textLength="102" x="559" y="63.8441">EditarAlumnoView</text></g><!--entity AlumnoController--><g id="elem_AlumnoController"><rect fill="#B5BD68" height="36.3441" rx="2.5" ry="2.5" style="stroke:#181818;stroke-width:0.5;" width="119" x="222.5" y="155.016"/><text fill="#000000" font-family="sans-serif" font-size="12" lengthAdjust="spacing" textLength="99" x="232.5" y="177.8441">AlumnoController</text></g><!--entity AlumnoRepository--><g id="elem_AlumnoRepository"><rect fill="#F2AC4E" height="36.3441" rx="2.5" ry="2.5" style="stroke:#181818;stroke-width:0.5;" width="122" x="74" y="269.016"/><text fill="#000000" font-family="sans-serif" font-size="12" lengthAdjust="spacing" textLength="102" x="84" y="291.8441">AlumnoRepository</text></g><!--entity GradoRepository--><g id="elem_GradoRepository"><rect fill="#F2AC4E" height="36.3441" rx="2.5" ry="2.5" style="stroke:#181818;stroke-width:0.5;" width="114" x="231" y="269.016"/><text fill="#000000" font-family="sans-serif" font-size="12" lengthAdjust="spacing" textLength="94" x="241" y="291.8441">GradoRepository</text></g><!--entity Alumno--><g id="elem_Alumno"><rect fill="#F2AC4E" height="36.3441" rx="2.5" ry="2.5" style="stroke:#181818;stroke-width:0.5;" width="63" x="429.5" y="155.016"/><text fill="#000000" font-family="sans-serif" font-size="12" lengthAdjust="spacing" textLength="43" x="439.5" y="177.8441">Alumno</text></g><!--entity Grado--><g id="elem_Grado"><rect fill="#F2AC4E" height="36.3441" rx="2.5" ry="2.5" style="stroke:#181818;stroke-width:0.5;" width="55" x="433.5" y="269.016"/><text fill="#000000" font-family="sans-serif" font-size="12" lengthAdjust="spacing" textLength="35" x="443.5" y="291.8441">Grado</text></g><!--entity AlumnosAbierto--><g id="elem_AlumnosAbierto"><rect fill="#CDEBA5" height="36.3441" rx="2.5" ry="2.5" style="stroke:#181818;stroke-width:0.5;" width="116" x="821" y="155.016"/><text fill="#000000" font-family="sans-serif" font-size="12" lengthAdjust="spacing" textLength="96" x="831" y="177.8441">:Alumnos Abierto</text></g><!--entity AlumnoAbierta--><g id="elem_AlumnoAbierta"><rect fill="#CDEBA5" height="36.3441" rx="2.5" ry="2.5" style="stroke:#181818;stroke-width:0.5;" width="110" x="1112" y="155.016"/><text fill="#000000" font-family="sans-serif" font-size="12" lengthAdjust="spacing" textLength="90" x="1122" y="177.8441">:Alumno Abierta</text></g><!--link AlumnosAbierto to EditarAlumnoView--><g id="link_AlumnosAbierto_EditarAlumnoView"><path d="M820.63,155.976 C771.09,142.356 708,125.016 708,125.016 C708,125.016 669.7797,99.6731 640.7497,80.4131 " fill="none" id="AlumnosAbierto-to-EditarAlumnoView" style="stroke:#181818;stroke-width:1.0;"/><polygon fill="#181818" points="635.75,77.096,641.0382,85.4048,639.9164,79.8602,645.4609,78.7385,635.75,77.096" style="stroke:#181818;stroke-width:1.0;"/><text fill="#000000" font-family="sans-serif" font-size="12" lengthAdjust="spacing" textLength="126" x="709" y="120.8441">editarAlumno(alumno)</text></g><!--link EditarAlumnoView to AlumnosAbierto--><g id="link_EditarAlumnoView_AlumnosAbierto"><path d="M671.03,72.486 C739.17,86.416 840,107.016 840,107.016 C840,107.016 854.1142,130.5304 865.6642,149.7904 " fill="none" id="EditarAlumnoView-to-AlumnosAbierto" style="stroke:#181818;stroke-width:1.0;stroke-dasharray:7.0,7.0;"/><polygon fill="#181818" points="868.75,154.936,867.5517,145.1603,866.1785,150.648,860.6909,149.2747,868.75,154.936" style="stroke:#181818;stroke-width:1.0;"/><text fill="#000000" font-family="sans-serif" font-size="12" lengthAdjust="spacing" textLength="144" x="852" y="120.8441">&#171;finalizar&#187; abrirAlumnos()</text></g><!--link EditarAlumnoView to AlumnosAbierto--><g id="link_EditarAlumnoView_AlumnosAbierto"><path d="M671.29,67.306 C782.23,80.506 1005,107.016 1005,107.016 C1005,107.016 1005,125.016 1005,125.016 C1005,125.016 966.4914,139.3785 930.4714,152.8185 " fill="none" id="EditarAlumnoView-to-AlumnosAbierto-1" style="stroke:#181818;stroke-width:1.0;stroke-dasharray:7.0,7.0;"/><polygon fill="#181818" points="924.85,154.916,934.6805,155.5174,929.5345,153.1681,931.8838,148.0222,924.85,154.916" style="stroke:#181818;stroke-width:1.0;"/><text fill="#000000" font-family="sans-serif" font-size="12" lengthAdjust="spacing" textLength="60" x="1006" y="120.8441">&#171;cancelar&#187;</text></g><!--link EditarAlumnoView to AlumnoController--><g id="link_EditarAlumnoView_AlumnoController"><path d="M548.91,65.176 C404.47,77.386 54,107.016 54,107.016 C54,107.016 54,125.016 54,125.016 C54,125.016 148.9635,144.5951 216.5135,158.5151 " fill="none" id="EditarAlumnoView-to-AlumnoController" style="stroke:#181818;stroke-width:1.0;"/><polygon fill="#181818" points="222.39,159.726,214.3825,153.9919,217.4929,158.7169,212.7679,161.8272,222.39,159.726" style="stroke:#181818;stroke-width:1.0;"/><text fill="#000000" font-family="sans-serif" font-size="12" lengthAdjust="spacing" textLength="235" x="55" y="120.8441">obtenerGradosDisponibles() : List&lt;Grado&gt;</text></g><!--link EditarAlumnoView to AlumnoController--><g id="link_EditarAlumnoView_AlumnoController"><path d="M548.73,70.566 C468.24,84.416 337,107.016 337,107.016 C337,107.016 316.6261,131.0961 300.3261,150.3561 " fill="none" id="EditarAlumnoView-to-AlumnoController-1" style="stroke:#181818;stroke-width:1.0;"/><polygon fill="#181818" points="296.45,154.936,305.3174,150.6501,299.6801,151.1194,299.2108,145.482,296.45,154.936" style="stroke:#181818;stroke-width:1.0;"/><text fill="#000000" font-family="sans-serif" font-size="12" lengthAdjust="spacing" textLength="335" x="338" y="120.8441">actualizar(alumno, nombre, email, curso, id_grado) : Alumno</text></g><!--link AlumnoController to GradoRepository--><g id="link_AlumnoController_GradoRepository"><path d="M282.91,191.026 C284.04,212.076 285.6296,241.7246 286.7596,262.8546 " fill="none" id="AlumnoController-to-GradoRepository" style="stroke:#181818;stroke-width:1.0;"/><polygon fill="#181818" points="287.08,268.846,290.5937,259.6453,286.813,263.8532,282.6051,260.0725,287.08,268.846" style="stroke:#181818;stroke-width:1.0;"/><text fill="#000000" font-family="sans-serif" font-size="12" lengthAdjust="spacing" textLength="163" x="287" y="234.8441">obtenerTodos() : List&lt;Grado&gt;</text></g><!--link AlumnoController to Alumno--><g id="link_AlumnoController_Alumno"><path d="M341.6,173.016 C370.89,173.016 399.01,173.016 423.26,173.016 " fill="none" id="AlumnoController-to-Alumno" style="stroke:#181818;stroke-width:1.0;"/><polygon fill="#181818" points="429.26,173.016,420.26,169.016,424.26,173.016,420.26,177.016,429.26,173.016" style="stroke:#181818;stroke-width:1.0;"/><text fill="#000000" font-family="sans-serif" font-size="12" lengthAdjust="spacing" textLength="51" x="360" y="165.8441">&#171;update&#187;</text></g><!--link AlumnoController to AlumnoRepository--><g id="link_AlumnoController_AlumnoRepository"><path d="M241.25,191.116 C209.23,204.556 170,221.016 170,221.016 C170,221.016 157.4144,244.3931 147.0444,263.6531 " fill="none" id="AlumnoController-to-AlumnoRepository" style="stroke:#181818;stroke-width:1.0;"/><polygon fill="#181818" points="144.2,268.936,151.9886,262.9079,146.5704,264.5336,144.9447,259.1154,144.2,268.936" style="stroke:#181818;stroke-width:1.0;"/><text fill="#000000" font-family="sans-serif" font-size="12" lengthAdjust="spacing" textLength="105" x="171" y="234.8441">actualizar(alumno)</text></g><!--link Alumno to Grado--><g id="link_Alumno_Grado"><path d="M461,191.026 C461,212.076 461,247.716 461,268.846 " fill="none" id="Alumno-Grado" style="stroke:#181818;stroke-width:1.0;"/></g><!--link EditarAlumnoView to AlumnoAbierta--><g id="link_EditarAlumnoView_AlumnoAbierta"><path d="M671.27,66.206 C797.54,78.976 1075,107.016 1075,107.016 C1075,107.016 1110.6697,132.2138 1137.9297,151.4738 " fill="none" id="EditarAlumnoView-to-AlumnoAbierta" style="stroke:#181818;stroke-width:1.0;stroke-dasharray:7.0,7.0;"/><polygon fill="#181818" points="1142.83,154.936,1137.7877,146.4758,1138.7464,152.0508,1133.1714,153.0096,1142.83,154.936" style="stroke:#181818;stroke-width:1.0;"/><text fill="#000000" font-family="sans-serif" font-size="12" lengthAdjust="spacing" textLength="45" x="1100" y="120.8441">&#171;editar&#187;</text></g><!--link AlumnoAbierta to AlumnoAbierta--><g id="link_AlumnoAbierta_AlumnoAbierta"><path d="M1222.37,162.516 C1241.53,162.406 1257,165.906 1257,173.016 C1257,180.126 1247.5299,183.6605 1228.3699,183.5505 " fill="none" id="AlumnoAbierta-to-AlumnoAbierta" style="stroke:#181818;stroke-width:1.0;"/><polygon fill="#181818" points="1222.37,183.516,1231.3469,187.5676,1227.3699,183.5447,1231.3928,179.5678,1222.37,183.516" style="stroke:#181818;stroke-width:1.0;"/><text fill="#000000" font-family="sans-serif" font-size="12" lengthAdjust="spacing" textLength="84" x="1263" y="177.8441">editarAlumno()</text></g><!--SRC=[ZL9BQ-Cm4BxhLmpPIm9nOSEsj2OOiddifQUszBgCx8axL96C91FIfV-zSgm6nqcpzSNspFUObtjbNQ753KZCNqjhQbtCZJ8MjY_iIRX3thrWORQiIrYZSjtCWjPOAxyoshTKgOBMUS0Zln7yd7IIYZNvNKLG6RLhVeImb7lKfIBuCLyiVy-kOP3ELBtHni5CCbbl1e3Xkut5q0LQP6675ID2LA5MB0ceO8ysuWDiq0qCHmFu9o0y7PERoTroTGVB3kwPQTk7oMjPtDn6stcOWJLAaUt3LfFP_DSomXweCewziRilO7zisCP_KQtO9GdnBiJn626nINRIL7eqdo7kNoCX-ZX8Yi3kzvg2aPuqsRsdMx2hZ6Qfo0r7aC8zEp_TfpBHfxQ2lNOFUayco9reVBigp7sDYj_Gnex6eCr6MXe3RP3L6FBQkX3buc_PQ3TESQXdAhK7anIcqxegq5FsLKlzHP-fPlHf0aaIrtNQsjLLTdpIZNUxh8Dtp0IP4-pnbL_K_xoGnc3DkYqrom2bvSW8k_YkGeuw9xKlyWC0]--></g></svg>