<?xml version="1.0" encoding="us-ascii" standalone="no"?><svg xmlns="http://www.w3.org/2000/svg" xmlns:xlink="http://www.w3.org/1999/xlink" contentStyleType="text/css" height="664px" preserveAspectRatio="none" style="width:769px;height:664px;background:#FFFFFF;" version="1.1" viewBox="0 0 769 664" width="769px" zoomAndPan="magnify"><defs/><g><path d="M19.5,7 L743.5,7 A12.5,12.5 0 0 1 756,19.5 L756,34.6094 L7,34.6094 L7,19.5 A12.5,12.5 0 0 1 19.5,7 " fill="#F1F1F1" style="stroke:#F1F1F1;stroke-width:1.0;"/><rect fill="none" height="504.6094" rx="12.5" ry="12.5" style="stroke:#181818;stroke-width:0.5;" width="749" x="7" y="7"/><line style="stroke:#181818;stroke-width:0.5;" x1="7" x2="756" y1="34.6094" y2="34.6094"/><text fill="#000000" font-family="sans-serif" font-size="14" lengthAdjust="spacing" textLength="113" x="325" y="26.5332">eliminarProfesor()</text><g id="eliminarProfesor.MostrandoConfirmacion"><rect fill="#F1F1F1" height="50" rx="12.5" ry="12.5" style="stroke:#181818;stroke-width:0.5;" width="50" x="190" y="137.6094"/><line style="stroke:#181818;stroke-width:0.5;" x1="190" x2="240" y1="165.2188" y2="165.2188"/><text fill="#000000" font-family="sans-serif" font-size="14" lengthAdjust="spacing" textLength="4" x="213" y="157.1426">&#160;</text></g><g id="eliminarProfesor.ConfirmandoEliminacion"><rect fill="#F1F1F1" height="50" rx="12.5" ry="12.5" style="stroke:#181818;stroke-width:0.5;" width="50" x="190" y="324.6094"/><line style="stroke:#181818;stroke-width:0.5;" x1="190" x2="240" y1="352.2188" y2="352.2188"/><text fill="#000000" font-family="sans-serif" font-size="14" lengthAdjust="spacing" textLength="4" x="213" y="344.1426">&#160;</text></g><ellipse cx="215" cy="55.6094" fill="#222222" rx="10" ry="10" style="stroke:#222222;stroke-width:1.0;"/><ellipse cx="215" cy="490.6094" fill="none" rx="11" ry="11" style="stroke:#222222;stroke-width:1.0;"/><ellipse cx="215" cy="490.6094" fill="#222222" rx="6" ry="6" style="stroke:#222222;stroke-width:1.0;"/><!--link *start*eliminarProfesor to MostrandoConfirmacion--><g id="link_*start*eliminarProfesor_MostrandoConfirmacion"><path d="M215,65.9294 C215,81.7894 215,108.5194 215,131.2494 " fill="none" id="*start*eliminarProfesor-to-MostrandoConfirmacion" style="stroke:#008000;stroke-width:1.0;"/><polygon fill="#008000" points="215,137.2494,219,128.2494,215,132.2494,211,128.2494,215,137.2494" style="stroke:#008000;stroke-width:1.0;"/><path d="M220,88.6094 L220,114.6094 L474,114.6094 L474,98.6094 L464,88.6094 L220,88.6094 " fill="#FEFFDD" style="stroke:#181818;stroke-width:0.5;"/><path d="M464,88.6094 L464,98.6094 L474,98.6094 L464,88.6094 " fill="#FEFFDD" style="stroke:#181818;stroke-width:0.5;"/><text fill="#000000" font-family="sans-serif" font-size="13" font-weight="bold" lengthAdjust="spacing" textLength="89" x="226" y="107.1045">Administrador</text><text fill="#000000" font-family="sans-serif" font-size="13" lengthAdjust="spacing" textLength="140" x="319" y="107.1045">solicita eliminar profesor</text></g><!--link MostrandoConfirmacion to ConfirmandoEliminacion--><g id="link_MostrandoConfirmacion_ConfirmandoEliminacion"><path d="M215,187.7994 C215,223.2494 215,282.9594 215,318.4194 " fill="none" id="MostrandoConfirmacion-to-ConfirmandoEliminacion" style="stroke:#008000;stroke-width:1.0;"/><polygon fill="#008000" points="215,324.4194,219,315.4194,215,319.4194,211,315.4194,215,324.4194" style="stroke:#008000;stroke-width:1.0;"/><path d="M220,210.6094 L220,301.6094 L529,301.6094 L529,220.6094 L519,210.6094 L220,210.6094 " fill="#FEFFDD" style="stroke:#181818;stroke-width:0.5;"/><path d="M519,210.6094 L519,220.6094 L529,220.6094 L519,210.6094 " fill="#FEFFDD" style="stroke:#181818;stroke-width:0.5;"/><text fill="#000000" font-family="sans-serif" font-size="13" font-weight="bold" lengthAdjust="spacing" textLength="51" x="226" y="229.1045">Sistema</text><text fill="#000000" font-family="sans-serif" font-size="13" lengthAdjust="spacing" textLength="214" x="281" y="229.1045">presenta confirmaci&#243;n de eliminaci&#243;n</text><text fill="#000000" font-family="sans-serif" font-size="13" lengthAdjust="spacing" textLength="223" x="226" y="245.4561">&#8226; Muestra datos del profesor a eliminar</text><text fill="#000000" font-family="sans-serif" font-size="13" lengthAdjust="spacing" textLength="288" x="226" y="261.8076">&#8226; Muestra advertencia sobre ex&#225;menes asignados</text><text fill="#000000" font-family="sans-serif" font-size="13" lengthAdjust="spacing" textLength="229" x="226" y="278.1592">&#8226; Permite solicitar confirmar eliminaci&#243;n</text><text fill="#000000" font-family="sans-serif" font-size="13" lengthAdjust="spacing" textLength="225" x="226" y="294.5107">&#8226; Permite solicitar cancelar eliminaci&#243;n</text></g><!--link ConfirmandoEliminacion to *end*eliminarProfesor--><g id="link_ConfirmandoEliminacion_*end*eliminarProfesor"><path d="M189.65,356.0094 C136.44,367.3594 18,392.6094 18,392.6094 C18,392.6094 18,461.6094 18,461.6094 C18,461.6094 156.8897,481.3451 198.1897,487.2151 " fill="none" id="ConfirmandoEliminacion-to-*end*eliminarProfesor" style="stroke:#008000;stroke-width:1.0;"/><polygon fill="#008000" points="204.13,488.0594,195.7824,482.8327,199.1798,487.3558,194.6567,490.7531,204.13,488.0594" style="stroke:#008000;stroke-width:1.0;"/><path d="M23,397.6094 L23,456.6094 L386,456.6094 L386,407.6094 L376,397.6094 L23,397.6094 " fill="#FEFFDD" style="stroke:#181818;stroke-width:0.5;"/><path d="M376,397.6094 L376,407.6094 L386,407.6094 L376,397.6094 " fill="#FEFFDD" style="stroke:#181818;stroke-width:0.5;"/><text fill="#000000" font-family="sans-serif" font-size="13" font-weight="bold" lengthAdjust="spacing" textLength="89" x="29" y="416.1045">Administrador</text><text fill="#000000" font-family="sans-serif" font-size="13" lengthAdjust="spacing" textLength="167" x="122" y="416.1045">solicita confirmar eliminaci&#243;n</text><text fill="#000000" font-family="sans-serif" font-size="13" font-weight="bold" lengthAdjust="spacing" textLength="51" x="29" y="432.4561">Sistema</text><text fill="#000000" font-family="sans-serif" font-size="13" lengthAdjust="spacing" textLength="287" x="84" y="432.4561">visualiza y elimina el profesor de la base de datos</text><text fill="#000000" font-family="sans-serif" font-size="13" font-weight="bold" lengthAdjust="spacing" textLength="51" x="29" y="448.8076">Sistema</text><text fill="#000000" font-family="sans-serif" font-size="13" lengthAdjust="spacing" textLength="226" x="84" y="448.8076">visualiza y actualiza lista de profesores</text></g><!--link ConfirmandoEliminacion to *end*eliminarProfesor--><g id="link_ConfirmandoEliminacion_*end*eliminarProfesor"><path d="M240.22,356.6294 C288.88,368.2394 391,392.6094 391,392.6094 C391,392.6094 391,461.6094 391,461.6094 C391,461.6094 269.8855,480.8768 231.6655,486.9568 " fill="none" id="ConfirmandoEliminacion-to-*end*eliminarProfesor-1" style="stroke:#FF0000;stroke-width:1.0;"/><polygon fill="#FF0000" points="225.74,487.8994,235.2567,490.4358,230.6779,487.1139,233.9998,482.5351,225.74,487.8994" style="stroke:#FF0000;stroke-width:1.0;"/><path d="M396,406.1094 L396,448.1094 L747,448.1094 L747,416.1094 L737,406.1094 L396,406.1094 " fill="#FEFFDD" style="stroke:#181818;stroke-width:0.5;"/><path d="M737,406.1094 L737,416.1094 L747,416.1094 L737,406.1094 " fill="#FEFFDD" style="stroke:#181818;stroke-width:0.5;"/><text fill="#000000" font-family="sans-serif" font-size="13" font-weight="bold" lengthAdjust="spacing" textLength="89" x="402" y="424.6045">Administrador</text><text fill="#000000" font-family="sans-serif" font-size="13" lengthAdjust="spacing" textLength="163" x="495" y="424.6045">solicita cancelar eliminaci&#243;n</text><text fill="#000000" font-family="sans-serif" font-size="13" font-weight="bold" lengthAdjust="spacing" textLength="51" x="402" y="440.9561">Sistema</text><text fill="#000000" font-family="sans-serif" font-size="13" lengthAdjust="spacing" textLength="275" x="457" y="440.9561">visualiza y descarta la operaci&#243;n de eliminaci&#243;n</text></g><g id="PROFESORES_ABIERTO"><rect fill="#F1F1F1" height="50" rx="12.5" ry="12.5" style="stroke:#181818;stroke-width:0.5;" width="184" x="289.5" y="608"/><line style="stroke:#181818;stroke-width:0.5;" x1="289.5" x2="473.5" y1="635.6094" y2="635.6094"/><text fill="#000000" font-family="sans-serif" font-size="14" lengthAdjust="spacing" textLength="164" x="299.5" y="627.5332">PROFESORES_ABIERTO</text></g><!--link eliminarProfesor to PROFESORES_ABIERTO--><g id="link_eliminarProfesor_PROFESORES_ABIERTO"><path d="M304.62,512.14 C299.01,530.5 295.5,542 295.5,542 C295.5,542 295.5,578 295.5,578 C295.5,578 315.0478,590.2808 337.9478,604.6508 " fill="none" id="eliminarProfesor-to-PROFESORES_ABIERTO" style="stroke:#008000;stroke-width:1.0;"/><polygon fill="#008000" points="343.03,607.84,337.5327,599.6681,338.7948,605.1824,333.2805,606.4444,343.03,607.84" style="stroke:#008000;stroke-width:1.0;"/><path d="M300.5,547 L300.5,573 L416.5,573 L416.5,557 L406.5,547 L300.5,547 " fill="#FEFFDD" style="stroke:#181818;stroke-width:0.5;"/><path d="M406.5,547 L406.5,557 L416.5,557 L406.5,547 " fill="#FEFFDD" style="stroke:#181818;stroke-width:0.5;"/><text fill="#000000" font-family="sans-serif" font-size="13" lengthAdjust="spacing" textLength="95" x="306.5" y="565.4951">abrirProfesores()</text></g><!--link eliminarProfesor to PROFESORES_ABIERTO--><g id="link_eliminarProfesor_PROFESORES_ABIERTO"><path d="M420.83,512.14 C423.7,530.5 425.5,542 425.5,542 C425.5,542 425.5,578 425.5,578 C425.5,578 416.6922,588.8204 404.9722,603.1904 " fill="none" id="eliminarProfesor-to-PROFESORES_ABIERTO-1" style="stroke:#FF0000;stroke-width:1.0;"/><polygon fill="#FF0000" points="401.18,607.84,409.9681,603.3937,404.3402,603.9653,403.7685,598.3374,401.18,607.84" style="stroke:#FF0000;stroke-width:1.0;"/><path d="M430.5,547 L430.5,573 L569.5,573 L569.5,557 L559.5,547 L430.5,547 " fill="#FEFFDD" style="stroke:#181818;stroke-width:0.5;"/><path d="M559.5,547 L559.5,557 L569.5,557 L559.5,547 " fill="#FEFFDD" style="stroke:#181818;stroke-width:0.5;"/><text fill="#000000" font-family="sans-serif" font-size="13" lengthAdjust="spacing" textLength="118" x="436.5" y="565.4951">cancelar eliminaci&#243;n</text></g><!--SRC=[dPDHIiD048RVznH3VR62U85Ig5B1XzBI-bQAJB9JMTpiXjaeLX6yYbx18_GcdiH9R68JKwkIbztadt_- -NOJRenBaJ41QnnbgvGWzNQLRvGA6MO4P4rY7FA4_PA2Py00dURBmsu77ikAZZmY6lcGCJhjpxnR6aumDjxL9UKN4Gq_7GkDcXyju7X-SCr4Rd7Sts7bl3XvbqU_KRseFz3YO7AbzjmxYVeGl3MnoR0Q0j9DO4LEGswWLAjvhVsEcCt-C-bD2HQTKwP0JZh7bUdwpO6kU1PxzVxy2gDRoWE0nim7KTWg97m5hobHtn5dv6A3CcB4Odg_Vad8KH2gvje9W51KJ8WJ8obB45pbuUz1MiJeOh9DxHUwTZ0rTdAKVpce7V4QTEzCk4Lh7X1MfGwskGbcYn1Xe7nPWFt90kDiixQYmBocjABmgt6Pz7-6RSNxGr1D8KQMIfdEfyGxRbML-4cfRx_lzk5CfkFpuMmy7Swk1gSNm-dbk1uV8pPL9ON3xXQCDkCDXdssUwxL1m00]--></g></svg>