<?xml version="1.0" encoding="us-ascii" standalone="no"?><svg xmlns="http://www.w3.org/2000/svg" xmlns:xlink="http://www.w3.org/1999/xlink" contentStyleType="text/css" height="818px" preserveAspectRatio="none" style="width:1019px;height:818px;background:#FFFFFF;" version="1.1" viewBox="0 0 1019 818" width="1019px" zoomAndPan="magnify"><defs/><g><path d="M19.5,7 L993.5,7 A12.5,12.5 0 0 1 1006,19.5 L1006,34.6094 L7,34.6094 L7,19.5 A12.5,12.5 0 0 1 19.5,7 " fill="#F1F1F1" style="stroke:#F1F1F1;stroke-width:1.0;"/><rect fill="none" height="658.6094" rx="12.5" ry="12.5" style="stroke:#181818;stroke-width:0.5;" width="999" x="7" y="7"/><line style="stroke:#181818;stroke-width:0.5;" x1="7" x2="1006" y1="34.6094" y2="34.6094"/><text fill="#000000" font-family="sans-serif" font-size="14" lengthAdjust="spacing" textLength="90" x="461.5" y="26.5332">crearAlumno()</text><g id="crearAlumno.MostrandoFormulario"><rect fill="#F1F1F1" height="50" rx="12.5" ry="12.5" style="stroke:#181818;stroke-width:0.5;" width="50" x="415" y="137.6094"/><line style="stroke:#181818;stroke-width:0.5;" x1="415" x2="465" y1="165.2188" y2="165.2188"/><text fill="#000000" font-family="sans-serif" font-size="14" lengthAdjust="spacing" textLength="4" x="438" y="157.1426">&#160;</text></g><g id="crearAlumno.GuardandoDatos"><rect fill="#F1F1F1" height="50" rx="12.5" ry="12.5" style="stroke:#181818;stroke-width:0.5;" width="50" x="19" y="511.6094"/><line style="stroke:#181818;stroke-width:0.5;" x1="19" x2="69" y1="539.2188" y2="539.2188"/><text fill="#000000" font-family="sans-serif" font-size="14" lengthAdjust="spacing" textLength="4" x="42" y="531.1426">&#160;</text></g><g id="crearAlumno.ValidandoDatos"><rect fill="#F1F1F1" height="50" rx="12.5" ry="12.5" style="stroke:#181818;stroke-width:0.5;" width="50" x="19" y="373.6094"/><line style="stroke:#181818;stroke-width:0.5;" x1="19" x2="69" y1="401.2188" y2="401.2188"/><text fill="#000000" font-family="sans-serif" font-size="14" lengthAdjust="spacing" textLength="4" x="42" y="393.1426">&#160;</text></g><g id="crearAlumno.SeleccionandoGrado"><rect fill="#F1F1F1" height="50" rx="12.5" ry="12.5" style="stroke:#181818;stroke-width:0.5;" width="50" x="560" y="373.6094"/><line style="stroke:#181818;stroke-width:0.5;" x1="560" x2="610" y1="401.2188" y2="401.2188"/><text fill="#000000" font-family="sans-serif" font-size="14" lengthAdjust="spacing" textLength="4" x="583" y="393.1426">&#160;</text></g><ellipse cx="440" cy="55.6094" fill="#222222" rx="10" ry="10" style="stroke:#222222;stroke-width:1.0;"/><ellipse cx="44" cy="644.6094" fill="none" rx="11" ry="11" style="stroke:#222222;stroke-width:1.0;"/><ellipse cx="44" cy="644.6094" fill="#222222" rx="6" ry="6" style="stroke:#222222;stroke-width:1.0;"/><!--link *start*crearAlumno to MostrandoFormulario--><g id="link_*start*crearAlumno_MostrandoFormulario"><path d="M440,65.9294 C440,81.7894 440,108.5194 440,131.2494 " fill="none" id="*start*crearAlumno-to-MostrandoFormulario" style="stroke:#008000;stroke-width:1.0;"/><polygon fill="#008000" points="440,137.2494,444,128.2494,440,132.2494,436,128.2494,440,137.2494" style="stroke:#008000;stroke-width:1.0;"/><path d="M445,88.6094 L445,114.6094 L679,114.6094 L679,98.6094 L669,88.6094 L445,88.6094 " fill="#FEFFDD" style="stroke:#181818;stroke-width:0.5;"/><path d="M669,88.6094 L669,98.6094 L679,98.6094 L669,88.6094 " fill="#FEFFDD" style="stroke:#181818;stroke-width:0.5;"/><text fill="#000000" font-family="sans-serif" font-size="13" font-weight="bold" lengthAdjust="spacing" textLength="89" x="451" y="107.1045">Administrador</text><text fill="#000000" font-family="sans-serif" font-size="13" lengthAdjust="spacing" textLength="120" x="544" y="107.1045">solicita crear alumno</text></g><!--link MostrandoFormulario to SeleccionandoGrado--><g id="link_MostrandoFormulario_SeleccionandoGrado"><path d="M440.13,187.9294 C440.4,239.5894 441,355.6094 441,355.6094 C441,355.6094 512.8998,376.5799 554.1598,388.6099 " fill="none" id="MostrandoFormulario-to-SeleccionandoGrado" style="stroke:#008000;stroke-width:1.0;"/><polygon fill="#008000" points="559.92,390.2894,552.3994,383.9301,555.1199,388.8898,550.1601,391.6103,559.92,390.2894" style="stroke:#008000;stroke-width:1.0;"/><path d="M446,210.6094 L446,350.6094 L703,350.6094 L703,220.6094 L693,210.6094 L446,210.6094 " fill="#FEFFDD" style="stroke:#181818;stroke-width:0.5;"/><path d="M693,210.6094 L693,220.6094 L703,220.6094 L693,210.6094 " fill="#FEFFDD" style="stroke:#181818;stroke-width:0.5;"/><text fill="#000000" font-family="sans-serif" font-size="13" font-weight="bold" lengthAdjust="spacing" textLength="51" x="452" y="229.1045">Sistema</text><text fill="#000000" font-family="sans-serif" font-size="13" lengthAdjust="spacing" textLength="181" x="507" y="229.1045">presenta formulario de creaci&#243;n</text><text fill="#000000" font-family="sans-serif" font-size="13" lengthAdjust="spacing" textLength="233" x="452" y="245.4561">&#8226; Permite introducir n&#250;mero de matr&#237;cula</text><text fill="#000000" font-family="sans-serif" font-size="13" lengthAdjust="spacing" textLength="215" x="452" y="261.8076">&#8226; Permite introducir nombre completo</text><text fill="#000000" font-family="sans-serif" font-size="13" lengthAdjust="spacing" textLength="146" x="452" y="278.1592">&#8226; Permite introducir email</text><text fill="#000000" font-family="sans-serif" font-size="13" lengthAdjust="spacing" textLength="186" x="452" y="294.5107">&#8226; Permite introducir curso actual</text><text fill="#000000" font-family="sans-serif" font-size="13" lengthAdjust="spacing" textLength="209" x="452" y="310.8623">&#8226; Permite solicitar seleccionar grado</text><text fill="#000000" font-family="sans-serif" font-size="13" lengthAdjust="spacing" textLength="196" x="452" y="327.2139">&#8226; Permite solicitar guardar alumno</text><text fill="#000000" font-family="sans-serif" font-size="13" lengthAdjust="spacing" textLength="209" x="452" y="343.5654">&#8226; Permite solicitar cancelar creaci&#243;n</text></g><!--link SeleccionandoGrado to MostrandoFormulario--><g id="link_SeleccionandoGrado_MostrandoFormulario"><path d="M610.19,389.0094 C646.17,376.7194 708,355.6094 708,355.6094 C708,355.6094 708,205.6094 708,205.6094 C708,205.6094 537.8576,178.9487 471.1376,168.4887 " fill="none" id="SeleccionandoGrado-to-MostrandoFormulario" style="stroke:#008000;stroke-width:1.0;"/><polygon fill="#008000" points="465.21,167.5594,473.4819,172.9051,470.1497,168.3338,474.7209,165.0016,465.21,167.5594" style="stroke:#008000;stroke-width:1.0;"/><path d="M713,251.1094 L713,310.1094 L997,310.1094 L997,261.1094 L987,251.1094 L713,251.1094 " fill="#FEFFDD" style="stroke:#181818;stroke-width:0.5;"/><path d="M987,251.1094 L987,261.1094 L997,261.1094 L987,251.1094 " fill="#FEFFDD" style="stroke:#181818;stroke-width:0.5;"/><text fill="#000000" font-family="sans-serif" font-size="13" font-weight="bold" lengthAdjust="spacing" textLength="89" x="719" y="269.6045">Administrador</text><text fill="#000000" font-family="sans-serif" font-size="13" lengthAdjust="spacing" textLength="147" x="812" y="269.6045">solicita seleccionar grado</text><text fill="#000000" font-family="sans-serif" font-size="13" font-weight="bold" lengthAdjust="spacing" textLength="51" x="719" y="285.9561">Sistema</text><text fill="#000000" font-family="sans-serif" font-size="13" lengthAdjust="spacing" textLength="208" x="774" y="285.9561">presenta lista de grados disponibles</text><text fill="#000000" font-family="sans-serif" font-size="13" font-weight="bold" lengthAdjust="spacing" textLength="89" x="719" y="302.3076">Administrador</text><text fill="#000000" font-family="sans-serif" font-size="13" lengthAdjust="spacing" textLength="107" x="812" y="302.3076">introduce un grado</text></g><!--link MostrandoFormulario to ValidandoDatos--><g id="link_MostrandoFormulario_ValidandoDatos"><path d="M414.97,166.3994 C330.77,175.7794 63,205.6094 63,205.6094 C63,205.6094 52.1106,315.6585 47.0006,367.3185 " fill="none" id="MostrandoFormulario-to-ValidandoDatos" style="stroke:#008000;stroke-width:1.0;"/><polygon fill="#008000" points="46.41,373.2894,51.2765,364.7268,46.9022,368.3137,43.3153,363.9393,46.41,373.2894" style="stroke:#008000;stroke-width:1.0;"/><path d="M68,267.6094 L68,293.6094 L431,293.6094 L431,277.6094 L421,267.6094 L68,267.6094 " fill="#FEFFDD" style="stroke:#181818;stroke-width:0.5;"/><path d="M421,267.6094 L421,277.6094 L431,277.6094 L421,267.6094 " fill="#FEFFDD" style="stroke:#181818;stroke-width:0.5;"/><text fill="#000000" font-family="sans-serif" font-size="13" font-weight="bold" lengthAdjust="spacing" textLength="89" x="74" y="286.1045">Administrador</text><text fill="#000000" font-family="sans-serif" font-size="13" lengthAdjust="spacing" textLength="249" x="167" y="286.1045">introduce todos los datos y solicita guardar</text></g><!--link ValidandoDatos to GuardandoDatos--><g id="link_ValidandoDatos_GuardandoDatos"><path d="M44,423.6094 C44,448.3194 44,480.6094 44,505.3894 " fill="none" id="ValidandoDatos-to-GuardandoDatos" style="stroke:#008000;stroke-width:1.0;"/><polygon fill="#008000" points="44,511.3894,48,502.3894,44,506.3894,40,502.3894,44,511.3894" style="stroke:#008000;stroke-width:1.0;"/><path d="M49,446.6094 L49,488.6094 L378,488.6094 L378,456.6094 L368,446.6094 L49,446.6094 " fill="#FEFFDD" style="stroke:#181818;stroke-width:0.5;"/><path d="M368,446.6094 L368,456.6094 L378,456.6094 L368,446.6094 " fill="#FEFFDD" style="stroke:#181818;stroke-width:0.5;"/><text fill="#000000" font-family="sans-serif" font-size="13" font-weight="bold" lengthAdjust="spacing" textLength="51" x="55" y="465.1045">Sistema</text><text fill="#000000" font-family="sans-serif" font-size="13" lengthAdjust="spacing" textLength="242" x="110" y="465.1045">presenta validaci&#243;n de campos requeridos</text><text fill="#000000" font-family="sans-serif" font-size="13" font-weight="bold" lengthAdjust="spacing" textLength="51" x="55" y="481.4561">Sistema</text><text fill="#000000" font-family="sans-serif" font-size="13" lengthAdjust="spacing" textLength="253" x="110" y="481.4561">presenta y valida que la matr&#237;cula sea &#250;nica</text></g><!--link GuardandoDatos to *end*crearAlumno--><g id="link_GuardandoDatos_*end*crearAlumno"><path d="M44,561.6594 C44,584.2594 44,610.9894 44,627.4094 " fill="none" id="GuardandoDatos-to-*end*crearAlumno" style="stroke:#008000;stroke-width:1.0;"/><polygon fill="#008000" points="44,633.4094,48,624.4094,44,628.4094,40,624.4094,44,633.4094" style="stroke:#008000;stroke-width:1.0;"/><path d="M49,584.6094 L49,610.6094 L443,610.6094 L443,594.6094 L433,584.6094 L49,584.6094 " fill="#FEFFDD" style="stroke:#181818;stroke-width:0.5;"/><path d="M433,584.6094 L433,594.6094 L443,594.6094 L433,584.6094 " fill="#FEFFDD" style="stroke:#181818;stroke-width:0.5;"/><text fill="#000000" font-family="sans-serif" font-size="13" font-weight="bold" lengthAdjust="spacing" textLength="51" x="55" y="603.1045">Sistema</text><text fill="#000000" font-family="sans-serif" font-size="13" lengthAdjust="spacing" textLength="318" x="110" y="603.1045">visualiza y guarda el nuevo alumno en la base de datos</text></g><g id="ALUMNO_ABIERTO"><rect fill="#F1F1F1" height="50" rx="12.5" ry="12.5" style="stroke:#181818;stroke-width:0.5;" width="145" x="342" y="762"/><line style="stroke:#181818;stroke-width:0.5;" x1="342" x2="487" y1="789.6094" y2="789.6094"/><text fill="#000000" font-family="sans-serif" font-size="14" lengthAdjust="spacing" textLength="125" x="352" y="781.5332">ALUMNO_ABIERTO</text></g><g id="ALUMNOS_ABIERTO"><rect fill="#F1F1F1" height="50" rx="12.5" ry="12.5" style="stroke:#181818;stroke-width:0.5;" width="154" x="522.5" y="762"/><line style="stroke:#181818;stroke-width:0.5;" x1="522.5" x2="676.5" y1="789.6094" y2="789.6094"/><text fill="#000000" font-family="sans-serif" font-size="14" lengthAdjust="spacing" textLength="134" x="532.5" y="781.5332">ALUMNOS_ABIERTO</text></g><!--link crearAlumno to ALUMNO_ABIERTO--><g id="link_crearAlumno_ALUMNO_ABIERTO"><path d="M439.09,666.1 C430.89,706.09 425.0661,734.5025 420.6461,756.0425 " fill="none" id="crearAlumno-to-ALUMNO_ABIERTO" style="stroke:#008000;stroke-width:1.0;"/><polygon fill="#008000" points="419.44,761.92,425.1675,753.9077,420.4451,757.0221,417.3307,752.2997,419.44,761.92" style="stroke:#008000;stroke-width:1.0;"/><path d="M437.5,701 L437.5,727 L542.5,727 L542.5,711 L532.5,701 L437.5,701 " fill="#FEFFDD" style="stroke:#181818;stroke-width:0.5;"/><path d="M532.5,701 L532.5,711 L542.5,711 L532.5,701 " fill="#FEFFDD" style="stroke:#181818;stroke-width:0.5;"/><text fill="#000000" font-family="sans-serif" font-size="13" lengthAdjust="spacing" textLength="84" x="443.5" y="719.4951">editarAlumno()</text></g><!--link crearAlumno to ALUMNOS_ABIERTO--><g id="link_crearAlumno_ALUMNOS_ABIERTO"><path d="M574.64,666.1 C582.93,706.09 588.8208,734.5052 593.2908,756.0452 " fill="none" id="crearAlumno-to-ALUMNOS_ABIERTO" style="stroke:#008000;stroke-width:1.0;"/><polygon fill="#008000" points="594.51,761.92,596.5978,752.295,593.494,757.0243,588.7647,753.9205,594.51,761.92" style="stroke:#008000;stroke-width:1.0;"/><path d="M592.5,701 L592.5,727 L697.5,727 L697.5,711 L687.5,701 L592.5,701 " fill="#FEFFDD" style="stroke:#181818;stroke-width:0.5;"/><path d="M687.5,701 L687.5,711 L697.5,711 L687.5,701 " fill="#FEFFDD" style="stroke:#181818;stroke-width:0.5;"/><text fill="#000000" font-family="sans-serif" font-size="13" lengthAdjust="spacing" textLength="84" x="598.5" y="719.4951">abrirAlumnos()</text></g><!--SRC=[bLHBRXD14DttAKfX0qWH5uWi6K4Y948G1ZPHX6fw2gkK_WpLFPOCGk8ix5cnozOtuIHqjtyppamCziRZVlK-LJKTRjarA6Z1iAEuR0WQRvRvGQaGCH9e8PIfQQtpW05EEi-Fdvp0jotk97tJ-QKFKT3L_joBRGqA-pxWeaMfC-05HX_wPn_HyDZPZ0nfpTxbyml1sYjr_VG6JgyVpON8tPnEXiH1EPz8lCi9RzLPDPdMbXrdOEtbx5arWU0DQuwupWfOmYboDPJQz55gYBehFM3lK7YMHCbYaMo40haa-NbFLw-RhNdrswa_Ftx2MnBBYODT55-tcWNSwiwI5Ap5AAjVEXMFWhsj995wsnYAVWoMFB4PEzIjX3Hu7LliOxPD4mYxw0BpadmODo-Jt_Lt6AJHQJBvnwuLsq4eTR_9nyR_FzE_dsDiQ2RzYNa61HQWvj1unvMXCAonRIX1wpRS-rJ7LklWhJYUQAyMVRPdiiLS2yjzsiqqEZxwEZqB1o_jFstsej2L4PRLHjiaLg4lBGadMwE5oqqf92GOx2nw6X72wiwnnexllhcUxtH1F6XsmI7jDN_Dekk601bmBItyPas1NFPGOQ2SehHnh_rTgUxzs9MUllvm-URgq_JvgvVltb_rNL2TTtrxYNQYF4ms6sR3IdXJ5BfiVm40]--></g></svg>