<?xml version="1.0" encoding="us-ascii" standalone="no"?><svg xmlns="http://www.w3.org/2000/svg" xmlns:xlink="http://www.w3.org/1999/xlink" contentStyleType="text/css" height="225px" preserveAspectRatio="none" style="width:974px;height:225px;background:#FFFFFF;" version="1.1" viewBox="0 0 974 225" width="974px" zoomAndPan="magnify"><defs/><g><g id="NoAuth"><rect fill="#F1F1F1" height="50" rx="12.5" ry="12.5" style="stroke:#181818;stroke-width:0.5;" width="145" x="87" y="119"/><line style="stroke:#181818;stroke-width:0.5;" x1="87" x2="232" y1="146.6094" y2="146.6094"/><text fill="#000000" font-family="sans-serif" font-size="14" lengthAdjust="spacing" textLength="125" x="97" y="138.5332">SESION_CERRADA</text></g><g id="Menu"><rect fill="#F1F1F1" height="50" rx="12.5" ry="12.5" style="stroke:#181818;stroke-width:0.5;" width="167" x="376" y="119"/><line style="stroke:#181818;stroke-width:0.5;" x1="376" x2="543" y1="146.6094" y2="146.6094"/><text fill="#000000" font-family="sans-serif" font-size="14" lengthAdjust="spacing" textLength="147" x="386" y="138.5332">SISTEMA_DISPONIBLE</text></g><g id="ConsultaCalendario"><rect fill="#F1F1F1" height="50" rx="12.5" ry="12.5" style="stroke:#181818;stroke-width:0.5;" width="176" x="779" y="69"/><line style="stroke:#181818;stroke-width:0.5;" x1="779" x2="955" y1="96.6094" y2="96.6094"/><text fill="#000000" font-family="sans-serif" font-size="14" lengthAdjust="spacing" textLength="156" x="789" y="88.5332">CALENDARIO_ABIERTO</text></g><g id="Incidencias"><rect fill="#F1F1F1" height="50" rx="12.5" ry="12.5" style="stroke:#181818;stroke-width:0.5;" width="172" x="781" y="169"/><line style="stroke:#181818;stroke-width:0.5;" x1="781" x2="953" y1="196.6094" y2="196.6094"/><text fill="#000000" font-family="sans-serif" font-size="14" lengthAdjust="spacing" textLength="152" x="791" y="188.5332">INCIDENCIAS_ABIERTO</text></g><ellipse cx="16" cy="144" fill="#222222" rx="10" ry="10" style="stroke:#222222;stroke-width:1.0;"/><!--link *start* to NoAuth--><g id="link_*start*_NoAuth"><path d="M26.28,144 C38.95,144 56.83,144 80.84,144 " fill="none" id="*start*-to-NoAuth" style="stroke:#181818;stroke-width:1.0;"/><polygon fill="#181818" points="86.84,144,77.84,140,81.84,144,77.84,148,86.84,144" style="stroke:#181818;stroke-width:1.0;"/></g><!--link NoAuth to Menu--><g id="link_NoAuth_Menu"><path d="M232.26,144 C275.49,144 324.7,144 369.76,144 " fill="none" id="NoAuth-to-Menu" style="stroke:#181818;stroke-width:1.0;"/><polygon fill="#181818" points="375.76,144,366.76,140,370.76,144,366.76,148,375.76,144" style="stroke:#181818;stroke-width:1.0;"/><text fill="#000000" font-family="sans-serif" font-size="13" lengthAdjust="spacing" textLength="82" x="263" y="140.4951">iniciarSesion()</text></g><!--link Menu to NoAuth--><g id="link_Menu_NoAuth"><path d="M375.85,163.1 C358.84,167.03 346,170 346,170 C346,170 262,170 262,170 C262,170 254.7024,168.1286 237.9124,163.8286 " fill="none" id="Menu-to-NoAuth" style="stroke:#181818;stroke-width:1.0;"/><polygon fill="#181818" points="232.1,162.34,239.8262,168.4478,236.9437,163.5805,241.811,160.6979,232.1,162.34" style="stroke:#181818;stroke-width:1.0;"/><text fill="#000000" font-family="sans-serif" font-size="13" lengthAdjust="spacing" textLength="81" x="263.5" y="166.4951">cerrarSesion()</text></g><!--link Menu to ConsultaCalendario--><g id="link_Menu_ConsultaCalendario"><path d="M519.39,118.88 C546.61,107.26 573,96 573,96 C573,96 686.5201,95.221 772.8801,94.631 " fill="none" id="Menu-to-ConsultaCalendario" style="stroke:#181818;stroke-width:1.0;"/><polygon fill="#181818" points="778.88,94.59,769.8529,90.6516,773.8801,94.6242,769.9075,98.6514,778.88,94.59" style="stroke:#181818;stroke-width:1.0;"/><text fill="#000000" font-family="sans-serif" font-size="13" lengthAdjust="spacing" textLength="122" x="600" y="91.4951">consultarCalendario()</text></g><!--link ConsultaCalendario to Menu--><g id="link_ConsultaCalendario_Menu"><path d="M778.83,114.86 C761.75,118.95 749,122 749,122 C749,122 634.4026,130.7331 549.1526,137.2431 " fill="none" id="ConsultaCalendario-to-Menu" style="stroke:#181818;stroke-width:1.0;"/><polygon fill="#181818" points="543.17,137.7,552.4484,141.0031,548.1555,137.3193,551.8393,133.0263,543.17,137.7" style="stroke:#181818;stroke-width:1.0;"/><text fill="#000000" font-family="sans-serif" font-size="13" lengthAdjust="spacing" textLength="116" x="603" y="118.4951">completarConsulta()</text></g><!--link Menu to Incidencias--><g id="link_Menu_Incidencias"><path d="M543.15,156.49 C560.16,159.06 573,161 573,161 C573,161 688.3877,173.9987 774.8977,183.7387 " fill="none" id="Menu-to-Incidencias" style="stroke:#181818;stroke-width:1.0;"/><polygon fill="#181818" points="780.86,184.41,772.364,179.4282,775.8914,183.8506,771.469,187.378,780.86,184.41" style="stroke:#181818;stroke-width:1.0;"/><text fill="#000000" font-family="sans-serif" font-size="13" lengthAdjust="spacing" textLength="174" x="574" y="157.4951">comunicarIncidenciasHorario()</text></g><!--link Incidencias to Menu--><g id="link_Incidencias_Menu"><path d="M780.97,202.72 C762.83,204.58 749,206 749,206 C749,206 573,206 573,206 C573,206 542.4149,189.1458 511.1849,171.9358 " fill="none" id="Incidencias-to-Menu" style="stroke:#181818;stroke-width:1.0;"/><polygon fill="#181818" points="505.93,169.04,511.8818,176.887,510.3091,171.4532,515.7429,169.8805,505.93,169.04" style="stroke:#181818;stroke-width:1.0;"/><text fill="#000000" font-family="sans-serif" font-size="13" lengthAdjust="spacing" textLength="147" x="587.5" y="202.4951">completarComunicacion()</text></g><!--link ConsultaCalendario to ConsultaCalendario--><g id="link_ConsultaCalendario_ConsultaCalendario"><path d="M832.15,68.72 C821.59,51.23 833.2,34 867,34 C900.8,34 915.5112,46.0936 904.9512,63.5836 " fill="none" id="ConsultaCalendario-to-ConsultaCalendario" style="stroke:#181818;stroke-width:1.0;"/><polygon fill="#181818" points="901.85,68.72,909.9261,63.0829,904.4343,64.4397,903.0776,58.9479,901.85,68.72" style="stroke:#181818;stroke-width:1.0;"/><text fill="#000000" font-family="sans-serif" font-size="13" lengthAdjust="spacing" textLength="188" x="773" y="25.4951">descargarCalendarioExamenes()</text></g><!--SRC=[TP3BQiCm44Nt-eeXgxQG7-YYeDY22XAxMDcLOeGzIKHboKWoD7zV-H77fSv6nfTpPuwayHGWM73gV0bGAuTLKDOG_wrCAvriG2k3uTeYj5PV-nz2V901OIEOu7bM9gmeQ4et83rabdRXCWDS7Dc1bYaN7td6TtisG0SqtJmaeNkMfRJWUKbtd1N7V60IQtodWqoaHbDBf-ojmBE4fomULFnfS5Ef6kCXFI6VBr-mtRxTVCZu7Q9-Exo2CYgYJg2Frtrw9cJ8xvs8LEZSAl5VhgUdqDtJM9ex2xq1Rhee8DqYVhTkAgtCVxYsHX_7d9ThsOziqA3ldH-CcXuXQhGQU-S9YvMbw3ewgbVZg_m2]--></g></svg>