<?xml version="1.0" encoding="us-ascii" standalone="no"?><svg xmlns="http://www.w3.org/2000/svg" xmlns:xlink="http://www.w3.org/1999/xlink" contentStyleType="text/css" height="545px" preserveAspectRatio="none" style="width:583px;height:545px;background:#FFFFFF;" version="1.1" viewBox="0 0 583 545" width="583px" zoomAndPan="magnify"><defs/><g><!--class Universidad--><g id="elem_Universidad"><rect codeLine="2" fill="#F1F1F1" height="32" id="Universidad" rx="2.5" ry="2.5" style="stroke:#181818;stroke-width:0.5;" width="106" x="225" y="7"/><ellipse cx="240" cy="23" fill="#ADD1B2" rx="11" ry="11" style="stroke:#181818;stroke-width:1.0;"/><path d="M242.7656,18.875 Q242.9219,18.6563 243.1094,18.5469 Q243.2969,18.4375 243.5156,18.4375 Q243.8906,18.4375 244.125,18.7031 Q244.3594,18.9531 244.3594,19.5625 L244.3594,21.0156 Q244.3594,21.625 244.125,21.8906 Q243.8906,22.1563 243.5156,22.1563 Q243.1719,22.1563 242.9688,21.9531 Q242.7656,21.7656 242.6563,21.25 Q242.6094,20.8906 242.4219,20.7031 Q242.0938,20.3281 241.4844,20.1094 Q240.875,19.8906 240.25,19.8906 Q239.4844,19.8906 238.8438,20.2188 Q238.2188,20.5469 237.7188,21.2969 Q237.2344,22.0469 237.2344,23.0781 L237.2344,24.1719 Q237.2344,25.4063 238.125,26.2344 Q239.0156,27.0469 240.6094,27.0469 Q241.5469,27.0469 242.2031,26.7969 Q242.5938,26.6406 243.0156,26.2031 Q243.2813,25.9375 243.4219,25.8594 Q243.5781,25.7813 243.7813,25.7813 Q244.1094,25.7813 244.3594,26.0469 Q244.625,26.2969 244.625,26.6406 Q244.625,26.9844 244.2813,27.3906 Q243.7813,27.9688 242.9844,28.2969 Q241.9063,28.75 240.6094,28.75 Q239.0938,28.75 237.8906,28.125 Q236.9063,27.625 236.2188,26.5625 Q235.5313,25.4844 235.5313,24.2031 L235.5313,23.0469 Q235.5313,21.7188 236.1406,20.5781 Q236.7656,19.4219 237.8594,18.8125 Q238.9531,18.1875 240.1875,18.1875 Q240.9219,18.1875 241.5625,18.3594 Q242.2188,18.5156 242.7656,18.875 Z " fill="#000000"/><text fill="#000000" font-family="sans-serif" font-size="14" lengthAdjust="spacing" textLength="74" x="254" y="28.7285">Universidad</text></g><!--class Facultad--><g id="elem_Facultad"><rect codeLine="3" fill="#F1F1F1" height="32" id="Facultad" rx="2.5" ry="2.5" style="stroke:#181818;stroke-width:0.5;" width="87" x="234.5" y="100"/><ellipse cx="249.5" cy="116" fill="#ADD1B2" rx="11" ry="11" style="stroke:#181818;stroke-width:1.0;"/><path d="M252.2656,111.875 Q252.4219,111.6563 252.6094,111.5469 Q252.7969,111.4375 253.0156,111.4375 Q253.3906,111.4375 253.625,111.7031 Q253.8594,111.9531 253.8594,112.5625 L253.8594,114.0156 Q253.8594,114.625 253.625,114.8906 Q253.3906,115.1563 253.0156,115.1563 Q252.6719,115.1563 252.4688,114.9531 Q252.2656,114.7656 252.1563,114.25 Q252.1094,113.8906 251.9219,113.7031 Q251.5938,113.3281 250.9844,113.1094 Q250.375,112.8906 249.75,112.8906 Q248.9844,112.8906 248.3438,113.2188 Q247.7188,113.5469 247.2188,114.2969 Q246.7344,115.0469 246.7344,116.0781 L246.7344,117.1719 Q246.7344,118.4063 247.625,119.2344 Q248.5156,120.0469 250.1094,120.0469 Q251.0469,120.0469 251.7031,119.7969 Q252.0938,119.6406 252.5156,119.2031 Q252.7813,118.9375 252.9219,118.8594 Q253.0781,118.7813 253.2813,118.7813 Q253.6094,118.7813 253.8594,119.0469 Q254.125,119.2969 254.125,119.6406 Q254.125,119.9844 253.7813,120.3906 Q253.2813,120.9688 252.4844,121.2969 Q251.4063,121.75 250.1094,121.75 Q248.5938,121.75 247.3906,121.125 Q246.4063,120.625 245.7188,119.5625 Q245.0313,118.4844 245.0313,117.2031 L245.0313,116.0469 Q245.0313,114.7188 245.6406,113.5781 Q246.2656,112.4219 247.3594,111.8125 Q248.4531,111.1875 249.6875,111.1875 Q250.4219,111.1875 251.0625,111.3594 Q251.7188,111.5156 252.2656,111.875 Z " fill="#000000"/><text fill="#000000" font-family="sans-serif" font-size="14" lengthAdjust="spacing" textLength="55" x="263.5" y="121.7285">Facultad</text></g><!--class Grado--><g id="elem_Grado"><rect codeLine="4" fill="#F1F1F1" height="32" id="Grado" rx="2.5" ry="2.5" style="stroke:#181818;stroke-width:0.5;" width="72" x="242" y="193"/><ellipse cx="257" cy="209" fill="#ADD1B2" rx="11" ry="11" style="stroke:#181818;stroke-width:1.0;"/><path d="M259.7656,204.875 Q259.9219,204.6563 260.1094,204.5469 Q260.2969,204.4375 260.5156,204.4375 Q260.8906,204.4375 261.125,204.7031 Q261.3594,204.9531 261.3594,205.5625 L261.3594,207.0156 Q261.3594,207.625 261.125,207.8906 Q260.8906,208.1563 260.5156,208.1563 Q260.1719,208.1563 259.9688,207.9531 Q259.7656,207.7656 259.6563,207.25 Q259.6094,206.8906 259.4219,206.7031 Q259.0938,206.3281 258.4844,206.1094 Q257.875,205.8906 257.25,205.8906 Q256.4844,205.8906 255.8438,206.2188 Q255.2188,206.5469 254.7188,207.2969 Q254.2344,208.0469 254.2344,209.0781 L254.2344,210.1719 Q254.2344,211.4063 255.125,212.2344 Q256.0156,213.0469 257.6094,213.0469 Q258.5469,213.0469 259.2031,212.7969 Q259.5938,212.6406 260.0156,212.2031 Q260.2813,211.9375 260.4219,211.8594 Q260.5781,211.7813 260.7813,211.7813 Q261.1094,211.7813 261.3594,212.0469 Q261.625,212.2969 261.625,212.6406 Q261.625,212.9844 261.2813,213.3906 Q260.7813,213.9688 259.9844,214.2969 Q258.9063,214.75 257.6094,214.75 Q256.0938,214.75 254.8906,214.125 Q253.9063,213.625 253.2188,212.5625 Q252.5313,211.4844 252.5313,210.2031 L252.5313,209.0469 Q252.5313,207.7188 253.1406,206.5781 Q253.7656,205.4219 254.8594,204.8125 Q255.9531,204.1875 257.1875,204.1875 Q257.9219,204.1875 258.5625,204.3594 Q259.2188,204.5156 259.7656,204.875 Z " fill="#000000"/><text fill="#000000" font-family="sans-serif" font-size="14" lengthAdjust="spacing" textLength="40" x="271" y="214.7285">Grado</text></g><!--class Asignatura--><g id="elem_Asignatura"><rect codeLine="5" fill="#F1F1F1" height="32" id="Asignatura" rx="2.5" ry="2.5" style="stroke:#181818;stroke-width:0.5;" width="100" x="228" y="286"/><ellipse cx="243" cy="302" fill="#ADD1B2" rx="11" ry="11" style="stroke:#181818;stroke-width:1.0;"/><path d="M245.7656,297.875 Q245.9219,297.6563 246.1094,297.5469 Q246.2969,297.4375 246.5156,297.4375 Q246.8906,297.4375 247.125,297.7031 Q247.3594,297.9531 247.3594,298.5625 L247.3594,300.0156 Q247.3594,300.625 247.125,300.8906 Q246.8906,301.1563 246.5156,301.1563 Q246.1719,301.1563 245.9688,300.9531 Q245.7656,300.7656 245.6563,300.25 Q245.6094,299.8906 245.4219,299.7031 Q245.0938,299.3281 244.4844,299.1094 Q243.875,298.8906 243.25,298.8906 Q242.4844,298.8906 241.8438,299.2188 Q241.2188,299.5469 240.7188,300.2969 Q240.2344,301.0469 240.2344,302.0781 L240.2344,303.1719 Q240.2344,304.4063 241.125,305.2344 Q242.0156,306.0469 243.6094,306.0469 Q244.5469,306.0469 245.2031,305.7969 Q245.5938,305.6406 246.0156,305.2031 Q246.2813,304.9375 246.4219,304.8594 Q246.5781,304.7813 246.7813,304.7813 Q247.1094,304.7813 247.3594,305.0469 Q247.625,305.2969 247.625,305.6406 Q247.625,305.9844 247.2813,306.3906 Q246.7813,306.9688 245.9844,307.2969 Q244.9063,307.75 243.6094,307.75 Q242.0938,307.75 240.8906,307.125 Q239.9063,306.625 239.2188,305.5625 Q238.5313,304.4844 238.5313,303.2031 L238.5313,302.0469 Q238.5313,300.7188 239.1406,299.5781 Q239.7656,298.4219 240.8594,297.8125 Q241.9531,297.1875 243.1875,297.1875 Q243.9219,297.1875 244.5625,297.3594 Q245.2188,297.5156 245.7656,297.875 Z " fill="#000000"/><text fill="#000000" font-family="sans-serif" font-size="14" lengthAdjust="spacing" textLength="68" x="257" y="307.7285">Asignatura</text></g><!--class Profesor--><g id="elem_Profesor"><rect codeLine="6" fill="#F1F1F1" height="32" id="Profesor" rx="2.5" ry="2.5" style="stroke:#181818;stroke-width:0.5;" width="86" x="7" y="506"/><ellipse cx="22" cy="522" fill="#ADD1B2" rx="11" ry="11" style="stroke:#181818;stroke-width:1.0;"/><path d="M24.7656,517.875 Q24.9219,517.6563 25.1094,517.5469 Q25.2969,517.4375 25.5156,517.4375 Q25.8906,517.4375 26.125,517.7031 Q26.3594,517.9531 26.3594,518.5625 L26.3594,520.0156 Q26.3594,520.625 26.125,520.8906 Q25.8906,521.1563 25.5156,521.1563 Q25.1719,521.1563 24.9688,520.9531 Q24.7656,520.7656 24.6563,520.25 Q24.6094,519.8906 24.4219,519.7031 Q24.0938,519.3281 23.4844,519.1094 Q22.875,518.8906 22.25,518.8906 Q21.4844,518.8906 20.8438,519.2188 Q20.2188,519.5469 19.7188,520.2969 Q19.2344,521.0469 19.2344,522.0781 L19.2344,523.1719 Q19.2344,524.4063 20.125,525.2344 Q21.0156,526.0469 22.6094,526.0469 Q23.5469,526.0469 24.2031,525.7969 Q24.5938,525.6406 25.0156,525.2031 Q25.2813,524.9375 25.4219,524.8594 Q25.5781,524.7813 25.7813,524.7813 Q26.1094,524.7813 26.3594,525.0469 Q26.625,525.2969 26.625,525.6406 Q26.625,525.9844 26.2813,526.3906 Q25.7813,526.9688 24.9844,527.2969 Q23.9063,527.75 22.6094,527.75 Q21.0938,527.75 19.8906,527.125 Q18.9063,526.625 18.2188,525.5625 Q17.5313,524.4844 17.5313,523.2031 L17.5313,522.0469 Q17.5313,520.7188 18.1406,519.5781 Q18.7656,518.4219 19.8594,517.8125 Q20.9531,517.1875 22.1875,517.1875 Q22.9219,517.1875 23.5625,517.3594 Q24.2188,517.5156 24.7656,517.875 Z " fill="#000000"/><text fill="#000000" font-family="sans-serif" font-size="14" lengthAdjust="spacing" textLength="54" x="36" y="527.7285">Profesor</text></g><!--class Alumno--><g id="elem_Alumno"><rect codeLine="7" fill="#F1F1F1" height="32" id="Alumno" rx="2.5" ry="2.5" style="stroke:#181818;stroke-width:0.5;" width="79" x="473.5" y="506"/><ellipse cx="488.5" cy="522" fill="#ADD1B2" rx="11" ry="11" style="stroke:#181818;stroke-width:1.0;"/><path d="M491.2656,517.875 Q491.4219,517.6563 491.6094,517.5469 Q491.7969,517.4375 492.0156,517.4375 Q492.3906,517.4375 492.625,517.7031 Q492.8594,517.9531 492.8594,518.5625 L492.8594,520.0156 Q492.8594,520.625 492.625,520.8906 Q492.3906,521.1563 492.0156,521.1563 Q491.6719,521.1563 491.4688,520.9531 Q491.2656,520.7656 491.1563,520.25 Q491.1094,519.8906 490.9219,519.7031 Q490.5938,519.3281 489.9844,519.1094 Q489.375,518.8906 488.75,518.8906 Q487.9844,518.8906 487.3438,519.2188 Q486.7188,519.5469 486.2188,520.2969 Q485.7344,521.0469 485.7344,522.0781 L485.7344,523.1719 Q485.7344,524.4063 486.625,525.2344 Q487.5156,526.0469 489.1094,526.0469 Q490.0469,526.0469 490.7031,525.7969 Q491.0938,525.6406 491.5156,525.2031 Q491.7813,524.9375 491.9219,524.8594 Q492.0781,524.7813 492.2813,524.7813 Q492.6094,524.7813 492.8594,525.0469 Q493.125,525.2969 493.125,525.6406 Q493.125,525.9844 492.7813,526.3906 Q492.2813,526.9688 491.4844,527.2969 Q490.4063,527.75 489.1094,527.75 Q487.5938,527.75 486.3906,527.125 Q485.4063,526.625 484.7188,525.5625 Q484.0313,524.4844 484.0313,523.2031 L484.0313,522.0469 Q484.0313,520.7188 484.6406,519.5781 Q485.2656,518.4219 486.3594,517.8125 Q487.4531,517.1875 488.6875,517.1875 Q489.4219,517.1875 490.0625,517.3594 Q490.7188,517.5156 491.2656,517.875 Z " fill="#000000"/><text fill="#000000" font-family="sans-serif" font-size="14" lengthAdjust="spacing" textLength="47" x="502.5" y="527.7285">Alumno</text></g><!--class Aula--><g id="elem_Aula"><rect codeLine="8" fill="#F1F1F1" height="32" id="Aula" rx="2.5" ry="2.5" style="stroke:#181818;stroke-width:0.5;" width="60" x="312" y="506"/><ellipse cx="327" cy="522" fill="#ADD1B2" rx="11" ry="11" style="stroke:#181818;stroke-width:1.0;"/><path d="M329.7656,517.875 Q329.9219,517.6563 330.1094,517.5469 Q330.2969,517.4375 330.5156,517.4375 Q330.8906,517.4375 331.125,517.7031 Q331.3594,517.9531 331.3594,518.5625 L331.3594,520.0156 Q331.3594,520.625 331.125,520.8906 Q330.8906,521.1563 330.5156,521.1563 Q330.1719,521.1563 329.9688,520.9531 Q329.7656,520.7656 329.6563,520.25 Q329.6094,519.8906 329.4219,519.7031 Q329.0938,519.3281 328.4844,519.1094 Q327.875,518.8906 327.25,518.8906 Q326.4844,518.8906 325.8438,519.2188 Q325.2188,519.5469 324.7188,520.2969 Q324.2344,521.0469 324.2344,522.0781 L324.2344,523.1719 Q324.2344,524.4063 325.125,525.2344 Q326.0156,526.0469 327.6094,526.0469 Q328.5469,526.0469 329.2031,525.7969 Q329.5938,525.6406 330.0156,525.2031 Q330.2813,524.9375 330.4219,524.8594 Q330.5781,524.7813 330.7813,524.7813 Q331.1094,524.7813 331.3594,525.0469 Q331.625,525.2969 331.625,525.6406 Q331.625,525.9844 331.2813,526.3906 Q330.7813,526.9688 329.9844,527.2969 Q328.9063,527.75 327.6094,527.75 Q326.0938,527.75 324.8906,527.125 Q323.9063,526.625 323.2188,525.5625 Q322.5313,524.4844 322.5313,523.2031 L322.5313,522.0469 Q322.5313,520.7188 323.1406,519.5781 Q323.7656,518.4219 324.8594,517.8125 Q325.9531,517.1875 327.1875,517.1875 Q327.9219,517.1875 328.5625,517.3594 Q329.2188,517.5156 329.7656,517.875 Z " fill="#000000"/><text fill="#000000" font-family="sans-serif" font-size="14" lengthAdjust="spacing" textLength="28" x="341" y="527.7285">Aula</text></g><!--class Examen--><g id="elem_Examen"><rect codeLine="9" fill="#F1F1F1" height="32" id="Examen" rx="2.5" ry="2.5" style="stroke:#181818;stroke-width:0.5;" width="82" x="237" y="396"/><ellipse cx="252" cy="412" fill="#ADD1B2" rx="11" ry="11" style="stroke:#181818;stroke-width:1.0;"/><path d="M254.7656,407.875 Q254.9219,407.6563 255.1094,407.5469 Q255.2969,407.4375 255.5156,407.4375 Q255.8906,407.4375 256.125,407.7031 Q256.3594,407.9531 256.3594,408.5625 L256.3594,410.0156 Q256.3594,410.625 256.125,410.8906 Q255.8906,411.1563 255.5156,411.1563 Q255.1719,411.1563 254.9688,410.9531 Q254.7656,410.7656 254.6563,410.25 Q254.6094,409.8906 254.4219,409.7031 Q254.0938,409.3281 253.4844,409.1094 Q252.875,408.8906 252.25,408.8906 Q251.4844,408.8906 250.8438,409.2188 Q250.2188,409.5469 249.7188,410.2969 Q249.2344,411.0469 249.2344,412.0781 L249.2344,413.1719 Q249.2344,414.4063 250.125,415.2344 Q251.0156,416.0469 252.6094,416.0469 Q253.5469,416.0469 254.2031,415.7969 Q254.5938,415.6406 255.0156,415.2031 Q255.2813,414.9375 255.4219,414.8594 Q255.5781,414.7813 255.7813,414.7813 Q256.1094,414.7813 256.3594,415.0469 Q256.625,415.2969 256.625,415.6406 Q256.625,415.9844 256.2813,416.3906 Q255.7813,416.9688 254.9844,417.2969 Q253.9063,417.75 252.6094,417.75 Q251.0938,417.75 249.8906,417.125 Q248.9063,416.625 248.2188,415.5625 Q247.5313,414.4844 247.5313,413.2031 L247.5313,412.0469 Q247.5313,410.7188 248.1406,409.5781 Q248.7656,408.4219 249.8594,407.8125 Q250.9531,407.1875 252.1875,407.1875 Q252.9219,407.1875 253.5625,407.3594 Q254.2188,407.5156 254.7656,407.875 Z " fill="#000000"/><text fill="#000000" font-family="sans-serif" font-size="14" lengthAdjust="spacing" textLength="50" x="266" y="417.7285">Examen</text></g><!--class FranjaHoraria--><g id="elem_FranjaHoraria"><rect codeLine="10" fill="#F1F1F1" height="32" id="FranjaHoraria" rx="2.5" ry="2.5" style="stroke:#181818;stroke-width:0.5;" width="119" x="154.5" y="506"/><ellipse cx="169.5" cy="522" fill="#ADD1B2" rx="11" ry="11" style="stroke:#181818;stroke-width:1.0;"/><path d="M172.2656,517.875 Q172.4219,517.6563 172.6094,517.5469 Q172.7969,517.4375 173.0156,517.4375 Q173.3906,517.4375 173.625,517.7031 Q173.8594,517.9531 173.8594,518.5625 L173.8594,520.0156 Q173.8594,520.625 173.625,520.8906 Q173.3906,521.1563 173.0156,521.1563 Q172.6719,521.1563 172.4688,520.9531 Q172.2656,520.7656 172.1563,520.25 Q172.1094,519.8906 171.9219,519.7031 Q171.5938,519.3281 170.9844,519.1094 Q170.375,518.8906 169.75,518.8906 Q168.9844,518.8906 168.3438,519.2188 Q167.7188,519.5469 167.2188,520.2969 Q166.7344,521.0469 166.7344,522.0781 L166.7344,523.1719 Q166.7344,524.4063 167.625,525.2344 Q168.5156,526.0469 170.1094,526.0469 Q171.0469,526.0469 171.7031,525.7969 Q172.0938,525.6406 172.5156,525.2031 Q172.7813,524.9375 172.9219,524.8594 Q173.0781,524.7813 173.2813,524.7813 Q173.6094,524.7813 173.8594,525.0469 Q174.125,525.2969 174.125,525.6406 Q174.125,525.9844 173.7813,526.3906 Q173.2813,526.9688 172.4844,527.2969 Q171.4063,527.75 170.1094,527.75 Q168.5938,527.75 167.3906,527.125 Q166.4063,526.625 165.7188,525.5625 Q165.0313,524.4844 165.0313,523.2031 L165.0313,522.0469 Q165.0313,520.7188 165.6406,519.5781 Q166.2656,518.4219 167.3594,517.8125 Q168.4531,517.1875 169.6875,517.1875 Q170.4219,517.1875 171.0625,517.3594 Q171.7188,517.5156 172.2656,517.875 Z " fill="#000000"/><text fill="#000000" font-family="sans-serif" font-size="14" lengthAdjust="spacing" textLength="87" x="183.5" y="527.7285">FranjaHoraria</text></g><!--reverse link Universidad to Facultad--><g id="link_Universidad_Facultad"><path codeLine="12" d="M278,51.03 C278,67.89 278,83.08 278,99.95 " fill="none" id="Universidad-backto-Facultad" style="stroke:#181818;stroke-width:1.0;"/><polygon fill="#181818" points="278,39.03,274,45.03,278,51.03,282,45.03,278,39.03" style="stroke:#181818;stroke-width:1.0;"/></g><!--reverse link Facultad to Grado--><g id="link_Facultad_Grado"><path codeLine="13" d="M278,144.03 C278,160.89 278,176.08 278,192.95 " fill="none" id="Facultad-backto-Grado" style="stroke:#181818;stroke-width:1.0;"/><polygon fill="#181818" points="278,132.03,274,138.03,278,144.03,282,138.03,278,132.03" style="stroke:#181818;stroke-width:1.0;"/></g><!--reverse link Grado to Asignatura--><g id="link_Grado_Asignatura"><path codeLine="14" d="M278,237.03 C278,253.89 278,269.08 278,285.95 " fill="none" id="Grado-backto-Asignatura" style="stroke:#181818;stroke-width:1.0;"/><polygon fill="#181818" points="278,225.03,274,231.03,278,237.03,282,231.03,278,225.03" style="stroke:#181818;stroke-width:1.0;"/></g><!--link Asignatura to Profesor--><g id="link_Asignatura_Profesor"><path codeLine="16" d="M238.1222,323.9072 C194.5922,347.8172 123.66,392.64 78,458 C67.51,473.01 63.553,481.2638 58.853,494.5838 " fill="none" id="Asignatura-Profesor" style="stroke:#181818;stroke-width:1.0;"/><polygon fill="#181818" points="248.64,318.13,241.4554,317.5127,238.1222,323.9072,245.3068,324.5245,248.64,318.13" style="stroke:#181818;stroke-width:1.0;"/><polygon fill="#181818" points="54.86,505.9,60.6285,501.5729,58.853,494.5838,53.0844,498.9109,54.86,505.9" style="stroke:#181818;stroke-width:1.0;"/><text fill="#000000" font-family="sans-serif" font-size="13" lengthAdjust="spacing" textLength="75" x="136" y="417.4951">impartida por</text></g><!--reverse link Asignatura to Alumno--><g id="link_Asignatura_Alumno"><path codeLine="17" d="M339.4563,320.1861 C400.5763,339.7961 489.32,379.07 529,458 C536.7,473.33 529.62,492.66 522.59,505.84 " fill="none" id="Asignatura-backto-Alumno" style="stroke:#181818;stroke-width:1.0;"/><polygon fill="#181818" points="328.03,316.52,332.5211,322.1618,339.4563,320.1861,334.9652,314.5443,328.03,316.52" style="stroke:#181818;stroke-width:1.0;"/><text fill="#000000" font-family="sans-serif" font-size="13" lengthAdjust="spacing" textLength="67" x="508" y="417.4951">inscritos en</text></g><!--reverse link Asignatura to Examen--><g id="link_Asignatura_Examen"><path codeLine="19" d="M278,330.02 C278,350.53 278,375.13 278,395.76 " fill="none" id="Asignatura-backto-Examen" style="stroke:#181818;stroke-width:1.0;"/><polygon fill="#181818" points="278,318.02,274,324.02,278,330.02,282,324.02,278,318.02" style="stroke:#181818;stroke-width:1.0;"/><text fill="#000000" font-family="sans-serif" font-size="13" lengthAdjust="spacing" textLength="93" x="279" y="362.4951">eval&#250;a mediante</text></g><!--link Examen to Aula--><g id="link_Examen_Aula"><path codeLine="21" d="M286.9,428.02 C299.06,448.53 317.6803,479.9688 329.9103,500.5988 " fill="none" id="Examen-to-Aula" style="stroke:#181818;stroke-width:1.0;"/><polygon fill="#181818" points="332.97,505.76,331.8213,495.9784,330.4202,501.459,324.9396,500.058,332.97,505.76" style="stroke:#181818;stroke-width:1.0;"/><text fill="#000000" font-family="sans-serif" font-size="13" lengthAdjust="spacing" textLength="74" x="315" y="472.4951">se realiza en</text><text fill="#000000" font-family="sans-serif" font-size="13" lengthAdjust="spacing" textLength="7" x="281.6887" y="449.53">1</text><text fill="#000000" font-family="sans-serif" font-size="13" lengthAdjust="spacing" textLength="5" x="324.1507" y="495.2838">*</text></g><!--link Examen to Profesor--><g id="link_Examen_Profesor"><path codeLine="22" d="M236.72,417.14 C200.37,422.29 147.13,433.6 107,458 C86.96,470.18 73.2728,486.626 63.1628,501.056 " fill="none" id="Examen-to-Profesor" style="stroke:#181818;stroke-width:1.0;"/><polygon fill="#181818" points="59.72,505.97,68.1602,500.8943,62.589,501.875,61.6083,496.3039,59.72,505.97" style="stroke:#181818;stroke-width:1.0;"/><text fill="#000000" font-family="sans-serif" font-size="13" lengthAdjust="spacing" textLength="90" x="108" y="472.4951">supervisado por</text></g><!--link Examen to FranjaHoraria--><g id="link_Examen_FranjaHoraria"><path codeLine="23" d="M242.44,428.15 C230.2,435.3 217.85,445.14 211,458 C203.12,472.78 204.2615,486.5825 207.6415,499.9725 " fill="none" id="Examen-to-FranjaHoraria" style="stroke:#181818;stroke-width:1.0;"/><polygon fill="#181818" points="209.11,505.79,210.7856,496.0847,207.8863,500.9421,203.0289,498.0427,209.11,505.79" style="stroke:#181818;stroke-width:1.0;"/><text fill="#000000" font-family="sans-serif" font-size="13" lengthAdjust="spacing" textLength="86" x="212" y="472.4951">programado en</text></g><!--link Examen to Alumno--><g id="link_Examen_Alumno"><path codeLine="24" d="M330.4578,430.7783 C353.8978,439.0383 372.31,446.22 398,458 C429.87,472.61 454.6648,486.3591 477.6148,499.8491 " fill="none" id="Examen-Alumno" style="stroke:#181818;stroke-width:1.0;"/><polygon fill="#181818" points="319.14,426.79,323.4695,432.5568,330.4578,430.7783,326.1284,425.0115,319.14,426.79" style="stroke:#181818;stroke-width:1.0;"/><polygon fill="#181818" points="487.96,505.93,484.8144,499.4412,477.6148,499.8491,480.7604,506.3379,487.96,505.93" style="stroke:#181818;stroke-width:1.0;"/><text fill="#000000" font-family="sans-serif" font-size="13" lengthAdjust="spacing" textLength="86" x="434" y="472.4951">presentado por</text></g><!--SRC=[NP2xJiKm38RtF8NLiL87LWOa1YuZ2m_WqvX3K6woamfuD5PUZ2IdQNjO8iV-zETpPeiYyEhDGYn6erPpwppYd6tQha-CEgprlPYpnvGPryOBXpUIm7rki_CRd6t77ZxHaU_vZFu3dmCZ6rJg803ZDEtFzw9rBnRjRFU3YThhEXetARW5uo9oAjaGY-GrkDfMoilC9WM18lcVkhWNYXQqlpy8ZhH1dqYfTJJS331DTp2CGrkwi4B0XDPyOurSkSeSt2H7uiL8NQdQ7QYhBofev71cT9NSuzgksmwHISYd7gRKkz44v6BwAiRkLBxu3m00]--></g></svg>