<?xml version="1.0" encoding="us-ascii" standalone="no"?><svg xmlns="http://www.w3.org/2000/svg" xmlns:xlink="http://www.w3.org/1999/xlink" contentStyleType="text/css" height="610px" preserveAspectRatio="none" style="width:365px;height:610px;background:#FFFFFF;" version="1.1" viewBox="0 0 365 610" width="365px" zoomAndPan="magnify"><defs/><g><ellipse cx="130.76" cy="16" fill="#222222" rx="10" ry="10" style="stroke:#222222;stroke-width:1.0;"/><g id="PendienteDeAsignar"><rect fill="#F1F1F1" height="50" rx="12.5" ry="12.5" style="stroke:#181818;stroke-width:0.5;" width="150" x="55.76" y="87"/><line style="stroke:#181818;stroke-width:0.5;" x1="55.76" x2="205.76" y1="114.6094" y2="114.6094"/><text fill="#000000" font-family="sans-serif" font-size="14" lengthAdjust="spacing" textLength="130" x="65.76" y="106.5332">PendienteDeAsignar</text></g><g id="Asignando"><rect fill="#F1F1F1" height="50" rx="12.5" ry="12.5" style="stroke:#181818;stroke-width:0.5;" width="87" x="87.26" y="215"/><line style="stroke:#181818;stroke-width:0.5;" x1="87.26" x2="174.26" y1="242.6094" y2="242.6094"/><text fill="#000000" font-family="sans-serif" font-size="14" lengthAdjust="spacing" textLength="67" x="97.26" y="234.5332">Asignando</text></g><g id="PendienteDeRevisi&#243;n"><rect fill="#F1F1F1" height="50" rx="12.5" ry="12.5" style="stroke:#181818;stroke-width:0.5;" width="156" x="52.76" y="343"/><line style="stroke:#181818;stroke-width:0.5;" x1="52.76" x2="208.76" y1="370.6094" y2="370.6094"/><text fill="#000000" font-family="sans-serif" font-size="14" lengthAdjust="spacing" textLength="136" x="62.76" y="362.5332">PendienteDeRevisi&#243;n</text></g><g id="Finalizado"><rect fill="#F1F1F1" height="50" rx="12.5" ry="12.5" style="stroke:#181818;stroke-width:0.5;" width="84" x="88.76" y="471"/><line style="stroke:#181818;stroke-width:0.5;" x1="88.76" x2="172.76" y1="498.6094" y2="498.6094"/><text fill="#000000" font-family="sans-serif" font-size="14" lengthAdjust="spacing" textLength="64" x="98.76" y="490.5332">Finalizado</text></g><ellipse cx="130.76" cy="593" fill="none" rx="11" ry="11" style="stroke:#222222;stroke-width:1.0;"/><ellipse cx="130.76" cy="593" fill="#222222" rx="6" ry="6" style="stroke:#222222;stroke-width:1.0;"/><!--link *start* to PendienteDeAsignar--><g id="link_*start*_PendienteDeAsignar"><path d="M130.76,26.01 C130.76,39.89 130.76,60.97 130.76,80.84 " fill="none" id="*start*-to-PendienteDeAsignar" style="stroke:#181818;stroke-width:1.0;"/><polygon fill="#181818" points="130.76,86.84,134.76,77.84,130.76,81.84,126.76,77.84,130.76,86.84" style="stroke:#181818;stroke-width:1.0;"/></g><!--link PendienteDeAsignar to Asignando--><g id="link_PendienteDeAsignar_Asignando"><path d="M130.76,137.29 C130.76,159.61 130.76,186.49 130.76,208.78 " fill="none" id="PendienteDeAsignar-to-Asignando" style="stroke:#181818;stroke-width:1.0;"/><polygon fill="#181818" points="130.76,214.78,134.76,205.78,130.76,209.78,126.76,205.78,130.76,214.78" style="stroke:#181818;stroke-width:1.0;"/><text fill="#000000" font-family="sans-serif" font-size="13" lengthAdjust="spacing" textLength="106" x="131.76" y="181.4951">iniciarAsignaci&#243;n()</text></g><!--link Asignando to PendienteDeRevisi?n--><g id="link_Asignando_PendienteDeRevisi&#243;n"><path d="M87.02,250.29 C62.71,257.93 34.48,271.47 19.76,295 C6,317 20.5154,331.1998 47.1654,342.8898 " fill="none" id="Asignando-to-PendienteDeRevisi&#243;n" style="stroke:#181818;stroke-width:1.0;"/><polygon fill="#181818" points="52.66,345.3,46.0249,338.0216,48.0811,343.2915,42.8113,345.3478,52.66,345.3" style="stroke:#181818;stroke-width:1.0;"/><text fill="#000000" font-family="sans-serif" font-size="13" lengthAdjust="spacing" textLength="174" x="20.76" y="309.4951">generarCalendarioExamenes()</text></g><!--link PendienteDeRevisi?n to Asignando--><g id="link_PendienteDeRevisi&#243;n_Asignando"><path d="M177.1,342.8 C194.75,330.1 208.71,313.37 199.76,295 C194.03,283.24 189.0914,276.9797 178.7814,268.9397 " fill="none" id="PendienteDeRevisi&#243;n-to-Asignando" style="stroke:#181818;stroke-width:1.0;"/><polygon fill="#181818" points="174.05,265.25,178.6873,273.9388,177.9928,268.3247,183.6069,267.6302,174.05,265.25" style="stroke:#181818;stroke-width:1.0;"/><text fill="#000000" font-family="sans-serif" font-size="13" lengthAdjust="spacing" textLength="155" x="202.76" y="309.4951">listarConflictosExamenes()</text></g><!--link PendienteDeRevisi?n to Finalizado--><g id="link_PendienteDeRevisi&#243;n_Finalizado"><path d="M130.76,393.29 C130.76,415.61 130.76,442.49 130.76,464.78 " fill="none" id="PendienteDeRevisi&#243;n-to-Finalizado" style="stroke:#181818;stroke-width:1.0;"/><polygon fill="#181818" points="130.76,470.78,134.76,461.78,130.76,465.78,126.76,461.78,130.76,470.78" style="stroke:#181818;stroke-width:1.0;"/><text fill="#000000" font-family="sans-serif" font-size="13" lengthAdjust="spacing" textLength="119" x="131.76" y="437.4951">validaci&#243;nCompleta()</text></g><!--link Finalizado to *end*--><g id="link_Finalizado_*end*"><path d="M130.76,521.46 C130.76,541.04 130.76,561.49 130.76,575.8 " fill="none" id="Finalizado-to-*end*" style="stroke:#181818;stroke-width:1.0;"/><polygon fill="#181818" points="130.76,581.8,134.76,572.8,130.76,576.8,126.76,572.8,130.76,581.8" style="stroke:#181818;stroke-width:1.0;"/></g><!--SRC=[TOv12i8m54JtEKMMMkW5N0XITIrkInUVvbi6qXz9GYbUooDuCPDsOQcw6-RFlFbrqUYotEiBYm5Bv2CV0ZeXhzItDqLdBSRfdOQW1VdPQl5wocQhr2UnGbzvGCYfLErOs9EloAOxURZJI7toGYRyxAp7BK9C02StYpQwi03yxPyXPF6W2J0aQUQtAzVVBKVAuujChjH5ezu0]--></g></svg>