<?xml version="1.0" encoding="us-ascii" standalone="no"?><svg xmlns="http://www.w3.org/2000/svg" xmlns:xlink="http://www.w3.org/1999/xlink" contentStyleType="text/css" height="522px" preserveAspectRatio="none" style="width:2052px;height:522px;background:#FFFFFF;" version="1.1" viewBox="0 0 2052 522" width="2052px" zoomAndPan="magnify"><defs/><g><!--cluster abrirAsignaturas--><g id="cluster_abrirAsignaturas"><path d="M155.5,6.016 L265.5,6.016 A3.75,3.75 0 0 1 268,8.516 L275,28.3601 L941.5,28.3601 A2.5,2.5 0 0 1 944,30.8601 L944,512.516 A2.5,2.5 0 0 1 941.5,515.016 L155.5,515.016 A2.5,2.5 0 0 1 153,512.516 L153,8.516 A2.5,2.5 0 0 1 155.5,6.016 " fill="none" style="stroke:#000000;stroke-width:1.5;"/><line style="stroke:#000000;stroke-width:1.5;" x1="153" x2="275" y1="28.3601" y2="28.3601"/><text fill="#000000" font-family="sans-serif" font-size="12" font-weight="bold" lengthAdjust="spacing" textLength="109" x="157" y="20.8441">abrirAsignaturas()</text></g><!--entity ListarAsignaturasView--><g id="elem_ListarAsignaturasView"><rect fill="#629EF9" height="36.3441" rx="2.5" ry="2.5" style="stroke:#181818;stroke-width:0.5;" width="144" x="784" y="41.016"/><text fill="#000000" font-family="sans-serif" font-size="12" lengthAdjust="spacing" textLength="124" x="794" y="63.8441">ListarAsignaturasView</text></g><!--entity AsignaturaController--><g id="elem_AsignaturaController"><rect fill="#B5BD68" height="36.3441" rx="2.5" ry="2.5" style="stroke:#181818;stroke-width:0.5;" width="137" x="341.5" y="155.016"/><text fill="#000000" font-family="sans-serif" font-size="12" lengthAdjust="spacing" textLength="117" x="351.5" y="177.8441">AsignaturaController</text></g><!--entity AsignaturaRepository--><g id="elem_AsignaturaRepository"><rect fill="#F2AC4E" height="36.3441" rx="2.5" ry="2.5" style="stroke:#181818;stroke-width:0.5;" width="140" x="342" y="269.016"/><text fill="#000000" font-family="sans-serif" font-size="12" lengthAdjust="spacing" textLength="120" x="352" y="291.8441">AsignaturaRepository</text></g><!--entity Asignatura--><g id="elem_Asignatura"><rect fill="#F2AC4E" height="36.3441" rx="2.5" ry="2.5" style="stroke:#181818;stroke-width:0.5;" width="81" x="371.5" y="366.016"/><text fill="#000000" font-family="sans-serif" font-size="12" lengthAdjust="spacing" textLength="61" x="381.5" y="388.8441">Asignatura</text></g><!--entity Grado--><g id="elem_Grado"><rect fill="#F2AC4E" height="36.3441" rx="2.5" ry="2.5" style="stroke:#181818;stroke-width:0.5;" width="55" x="384.5" y="463.016"/><text fill="#000000" font-family="sans-serif" font-size="12" lengthAdjust="spacing" textLength="35" x="394.5" y="485.8441">Grado</text></g><!--entity SistemaDisponible--><g id="elem_SistemaDisponible"><rect fill="#CDEBA5" height="36.3441" rx="2.5" ry="2.5" style="stroke:#181818;stroke-width:0.5;" width="130" x="7" y="41.016"/><text fill="#000000" font-family="sans-serif" font-size="12" lengthAdjust="spacing" textLength="110" x="17" y="63.8441">:Sistema Disponible</text></g><!--entity SistemaDisponibleSalida--><g id="elem_SistemaDisponibleSalida"><rect fill="#CDEBA5" height="36.3441" rx="2.5" ry="2.5" style="stroke:#181818;stroke-width:0.5;" width="130" x="960" y="155.016"/><text fill="#000000" font-family="sans-serif" font-size="12" lengthAdjust="spacing" textLength="110" x="970" y="177.8441">:Sistema Disponible</text></g><!--entity CrearAsignatura--><g id="elem_CrearAsignatura"><rect fill="#CDEBA5" height="36.3441" rx="2.5" ry="2.5" style="stroke:#181818;stroke-width:0.5;" width="194" x="1125" y="155.016"/><text fill="#000000" font-family="sans-serif" font-size="12" lengthAdjust="spacing" textLength="174" x="1135" y="177.8441">:Collaboration CrearAsignatura</text></g><!--entity EditarAsignatura--><g id="elem_EditarAsignatura"><rect fill="#CDEBA5" height="36.3441" rx="2.5" ry="2.5" style="stroke:#181818;stroke-width:0.5;" width="195" x="1354.5" y="155.016"/><text fill="#000000" font-family="sans-serif" font-size="12" lengthAdjust="spacing" textLength="175" x="1364.5" y="177.8441">:Collaboration EditarAsignatura</text></g><!--entity EliminarAsignatura--><g id="elem_EliminarAsignatura"><rect fill="#CDEBA5" height="36.3441" rx="2.5" ry="2.5" style="stroke:#181818;stroke-width:0.5;" width="208" x="1585" y="155.016"/><text fill="#000000" font-family="sans-serif" font-size="12" lengthAdjust="spacing" textLength="188" x="1595" y="177.8441">:Collaboration EliminarAsignatura</text></g><!--entity ImportarAsignaturas--><g id="elem_ImportarAsignaturas"><rect fill="#CDEBA5" height="36.3441" rx="2.5" ry="2.5" style="stroke:#181818;stroke-width:0.5;" width="218" x="1828" y="155.016"/><text fill="#000000" font-family="sans-serif" font-size="12" lengthAdjust="spacing" textLength="198" x="1838" y="177.8441">:Collaboration ImportarAsignaturas</text></g><!--link SistemaDisponible to ListarAsignaturasView--><g id="link_SistemaDisponible_ListarAsignaturasView"><path d="M137.16,59.016 C282.48,59.016 626.22,59.016 777.86,59.016 " fill="none" id="SistemaDisponible-to-ListarAsignaturasView" style="stroke:#181818;stroke-width:1.0;"/><polygon fill="#181818" points="783.86,59.016,774.86,55.016,778.86,59.016,774.86,63.016,783.86,59.016" style="stroke:#181818;stroke-width:1.0;"/><text fill="#000000" font-family="sans-serif" font-size="12" lengthAdjust="spacing" textLength="102" x="409.5" y="51.8441">abrirAsignaturas()</text></g><!--link ListarAsignaturasView to AsignaturaController--><g id="link_ListarAsignaturasView_AsignaturaController"><path d="M783.96,65.226 C614.72,77.466 206,107.016 206,107.016 C206,107.016 206,125.016 206,125.016 C206,125.016 276.1531,141.1793 335.3731,154.8193 " fill="none" id="ListarAsignaturasView-to-AsignaturaController" style="stroke:#181818;stroke-width:1.0;"/><polygon fill="#181818" points="341.22,156.166,333.3474,150.248,336.3476,155.0438,331.5518,158.0439,341.22,156.166" style="stroke:#181818;stroke-width:1.0;"/><text fill="#000000" font-family="sans-serif" font-size="12" lengthAdjust="spacing" textLength="332" x="207" y="120.8441">listarAsignaturas(filtros, pagina) : PagedResult&lt;Asignatura&gt;</text></g><!--link ListarAsignaturasView to AsignaturaController--><g id="link_ListarAsignaturasView_AsignaturaController"><path d="M783.92,72.426 C703.03,86.346 583,107.016 583,107.016 C583,107.016 544,125.016 544,125.016 C544,125.016 502.7317,139.4898 464.4217,152.9298 " fill="none" id="ListarAsignaturasView-to-AsignaturaController-1" style="stroke:#181818;stroke-width:1.0;"/><polygon fill="#181818" points="458.76,154.916,468.5767,155.7111,463.4781,153.2608,465.9284,148.1622,458.76,154.916" style="stroke:#181818;stroke-width:1.0;"/><text fill="#000000" font-family="sans-serif" font-size="12" lengthAdjust="spacing" textLength="343" x="584" y="120.8441">filtrarAsignaturas(criterio, pagina) : PagedResult&lt;Asignatura&gt;</text></g><!--link AsignaturaController to AsignaturaRepository--><g id="link_AsignaturaController_AsignaturaRepository"><path d="M341.28,189.466 C280.36,203.166 201,221.016 201,221.016 C201,221.016 201,239.016 201,239.016 C201,239.016 274.5035,255.3917 335.8835,269.0617 " fill="none" id="AsignaturaController-to-AsignaturaRepository" style="stroke:#181818;stroke-width:1.0;"/><polygon fill="#181818" points="341.74,270.366,333.8248,264.5052,336.8596,269.2791,332.0857,272.3139,341.74,270.366" style="stroke:#181818;stroke-width:1.0;"/><text fill="#000000" font-family="sans-serif" font-size="12" lengthAdjust="spacing" textLength="339" x="202" y="234.8441">obtenerPaginadas(filtros, pagina) : PagedResult&lt;Asignatura&gt;</text></g><!--link AsignaturaController to AsignaturaRepository--><g id="link_AsignaturaController_AsignaturaRepository"><path d="M459.48,191.116 C498.37,204.556 546,221.016 546,221.016 C546,221.016 546,239.016 546,239.016 C546,239.016 504.7317,253.4898 466.4217,266.9298 " fill="none" id="AsignaturaController-to-AsignaturaRepository-1" style="stroke:#181818;stroke-width:1.0;"/><polygon fill="#181818" points="460.76,268.916,470.5767,269.7111,465.4781,267.2608,467.9284,262.1622,460.76,268.916" style="stroke:#181818;stroke-width:1.0;"/><text fill="#000000" font-family="sans-serif" font-size="12" lengthAdjust="spacing" textLength="341" x="547" y="234.8441">buscarPaginadas(criterio, pagina) : PagedResult&lt;Asignatura&gt;</text></g><!--link AsignaturaRepository to Asignatura--><g id="link_AsignaturaRepository_Asignatura"><path d="M412,305.436 C412,322.586 412,348.596 412,365.706 " fill="none" id="AsignaturaRepository-Asignatura" style="stroke:#181818;stroke-width:1.0;"/></g><!--link Asignatura to Grado--><g id="link_Asignatura_Grado"><path d="M412,402.436 C412,419.586 412,445.596 412,462.706 " fill="none" id="Asignatura-Grado" style="stroke:#181818;stroke-width:1.0;"/></g><!--link ListarAsignaturasView to SistemaDisponibleSalida--><g id="link_ListarAsignaturasView_SistemaDisponibleSalida"><path d="M885.33,77.246 C908.17,90.666 936,107.016 936,107.016 C936,107.016 970.4047,132.1372 996.7747,151.3972 " fill="none" id="ListarAsignaturasView-to-SistemaDisponibleSalida" style="stroke:#181818;stroke-width:1.0;stroke-dasharray:7.0,7.0;"/><polygon fill="#181818" points="1001.62,154.936,996.7114,146.3976,997.5823,151.987,991.9929,152.8579,1001.62,154.936" style="stroke:#181818;stroke-width:1.0;"/><text fill="#000000" font-family="sans-serif" font-size="12" lengthAdjust="spacing" textLength="108" x="960" y="120.8441">completarGestion()</text></g><!--link ListarAsignaturasView to CrearAsignatura--><g id="link_ListarAsignaturasView_CrearAsignatura"><path d="M928.06,75.336 C992.55,89.056 1077,107.016 1077,107.016 C1077,107.016 1135.465,133.2215 1178.425,152.4815 " fill="none" id="ListarAsignaturasView-to-CrearAsignatura" style="stroke:#181818;stroke-width:1.0;stroke-dasharray:7.0,7.0;"/><polygon fill="#181818" points="1183.9,154.936,1177.3239,147.6042,1179.3375,152.8906,1174.0512,154.9042,1183.9,154.936" style="stroke:#181818;stroke-width:1.0;"/><text fill="#000000" font-family="sans-serif" font-size="12" lengthAdjust="spacing" textLength="99" x="1116" y="120.8441">crearAsignatura()</text></g><!--link ListarAsignaturasView to EditarAsignatura--><g id="link_ListarAsignaturasView_EditarAsignatura"><path d="M928.27,69.246 C1035.44,82.936 1224,107.016 1224,107.016 C1224,107.016 1318.7699,134.0311 1386.3299,153.2911 " fill="none" id="ListarAsignaturasView-to-EditarAsignatura" style="stroke:#181818;stroke-width:1.0;stroke-dasharray:7.0,7.0;"/><polygon fill="#181818" points="1392.1,154.936,1384.5415,148.6219,1387.2916,153.5652,1382.3482,156.3154,1392.1,154.936" style="stroke:#181818;stroke-width:1.0;"/><text fill="#000000" font-family="sans-serif" font-size="12" lengthAdjust="spacing" textLength="102" x="1286" y="120.8441">editarAsignatura()</text></g><!--link ListarAsignaturasView to EliminarAsignatura--><g id="link_ListarAsignaturasView_EliminarAsignatura"><path d="M928.12,66.286 C1075.41,79.076 1397,107.016 1397,107.016 C1397,107.016 1519.9134,134.3721 1606.4234,153.6321 " fill="none" id="ListarAsignaturasView-to-EliminarAsignatura" style="stroke:#181818;stroke-width:1.0;stroke-dasharray:7.0,7.0;"/><polygon fill="#181818" points="1612.28,154.936,1604.3643,149.0758,1607.3995,153.8495,1602.6258,156.8846,1612.28,154.936" style="stroke:#181818;stroke-width:1.0;"/><text fill="#000000" font-family="sans-serif" font-size="12" lengthAdjust="spacing" textLength="115" x="1476" y="120.8441">eliminarAsignatura()</text></g><!--link ListarAsignaturasView to ImportarAsignaturas--><g id="link_ListarAsignaturasView_ImportarAsignaturas"><path d="M928.01,64.566 C1114.73,76.356 1600,107.016 1600,107.016 C1600,107.016 1742.7186,134.5396 1842.5686,153.7996 " fill="none" id="ListarAsignaturasView-to-ImportarAsignaturas" style="stroke:#181818;stroke-width:1.0;stroke-dasharray:7.0,7.0;"/><polygon fill="#181818" points="1848.46,154.936,1840.3805,149.3038,1843.5505,153.989,1838.8653,157.159,1848.46,154.936" style="stroke:#181818;stroke-width:1.0;"/><text fill="#000000" font-family="sans-serif" font-size="12" lengthAdjust="spacing" textLength="124" x="1691" y="120.8441">importarAsignaturas()</text></g><!--SRC=[jPHDQzj048Rl-oi6zv907QXfGYE2mPNjKEWXn93xI1ehGrQxo-uQuvR-zuwTKidwSDs66XtiTzvvHZixu_32ng772ZBCNqflDwP8hROUjiySIONVyV2CXTsoAM6DEZGZSrhZHiUbDV4rDTF2wZUi-1l1XqaZgDbGt3a2P_Lk_qCfJtb4Ksg2T-byyNbs3QDanI5IXJ3duApXJDC8CC0lkLQLSb8SImBCFFjPuD9Wt7ZnoZDgYnUN8_YkG3wDeZUJsyNo5huA6vlc9wPjsvjTPyND9wXTgPpIMwt9jwtBoIpzk6XO7ydPmD7wtH-j0uPxBvUYVhojPIlKN60lGkvJOsOzHhO6Ka_DVXneBUqCogBWsC6qnNCucYisNL97FeFrfNBM7r_s0TQZAzLf88pzUDe_BWbq9qwfNYkC2w7q3L8YIz9Ak5YpbcXu3mvBEUub9F0WKryyKf1LkwkjKwNwc30-AbQFOW8sYsJ8Fnp0nJ_Ngf5IgpdAzTTzu7M4Xreos973Enst9FVoZ-NP_e-UP9kGOwCbVrMh_snNLzEXNKmWjvNJ95dt5FOJAbCpJ6dje6GV2oUJsvkN0BMKq-cTTHD0Hpk9w5co1BWh2kGd]--></g></svg>