<?xml version="1.0" encoding="us-ascii" standalone="no"?><svg xmlns="http://www.w3.org/2000/svg" xmlns:xlink="http://www.w3.org/1999/xlink" contentStyleType="text/css" height="328px" preserveAspectRatio="none" style="width:1963px;height:328px;background:#FFFFFF;" version="1.1" viewBox="0 0 1963 328" width="1963px" zoomAndPan="magnify"><defs/><g><!--cluster editarProfesor--><g id="cluster_editarProfesor"><path d="M8.5,6.016 L103.5,6.016 A3.75,3.75 0 0 1 106,8.516 L113,28.3601 L1257.5,28.3601 A2.5,2.5 0 0 1 1260,30.8601 L1260,318.516 A2.5,2.5 0 0 1 1257.5,321.016 L8.5,321.016 A2.5,2.5 0 0 1 6,318.516 L6,8.516 A2.5,2.5 0 0 1 8.5,6.016 " fill="none" style="stroke:#000000;stroke-width:1.5;"/><line style="stroke:#000000;stroke-width:1.5;" x1="6" x2="113" y1="28.3601" y2="28.3601"/><text fill="#000000" font-family="sans-serif" font-size="12" font-weight="bold" lengthAdjust="spacing" textLength="94" x="10" y="20.8441">editarProfesor()</text></g><!--entity EditarProfesorView--><g id="elem_EditarProfesorView"><rect fill="#629EF9" height="36.3441" rx="2.5" ry="2.5" style="stroke:#181818;stroke-width:0.5;" width="127" x="1116.5" y="41.016"/><text fill="#000000" font-family="sans-serif" font-size="12" lengthAdjust="spacing" textLength="107" x="1126.5" y="63.8441">EditarProfesorView</text></g><!--entity ProfesorController--><g id="elem_ProfesorController"><rect fill="#B5BD68" height="36.3441" rx="2.5" ry="2.5" style="stroke:#181818;stroke-width:0.5;" width="124" x="323" y="155.016"/><text fill="#000000" font-family="sans-serif" font-size="12" lengthAdjust="spacing" textLength="104" x="333" y="177.8441">ProfesorController</text></g><!--entity ProfesorRepository--><g id="elem_ProfesorRepository"><rect fill="#F2AC4E" height="36.3441" rx="2.5" ry="2.5" style="stroke:#181818;stroke-width:0.5;" width="127" x="164.5" y="269.016"/><text fill="#000000" font-family="sans-serif" font-size="12" lengthAdjust="spacing" textLength="107" x="174.5" y="291.8441">ProfesorRepository</text></g><!--entity AsignaturaRepository--><g id="elem_AsignaturaRepository"><rect fill="#F2AC4E" height="36.3441" rx="2.5" ry="2.5" style="stroke:#181818;stroke-width:0.5;" width="140" x="468" y="269.016"/><text fill="#000000" font-family="sans-serif" font-size="12" lengthAdjust="spacing" textLength="120" x="478" y="291.8441">AsignaturaRepository</text></g><!--entity Profesor--><g id="elem_Profesor"><rect fill="#F2AC4E" height="36.3441" rx="2.5" ry="2.5" style="stroke:#181818;stroke-width:0.5;" width="68" x="694" y="155.016"/><text fill="#000000" font-family="sans-serif" font-size="12" lengthAdjust="spacing" textLength="48" x="704" y="177.8441">Profesor</text></g><!--entity Asignatura--><g id="elem_Asignatura"><rect fill="#F2AC4E" height="36.3441" rx="2.5" ry="2.5" style="stroke:#181818;stroke-width:0.5;" width="81" x="846.5" y="269.016"/><text fill="#000000" font-family="sans-serif" font-size="12" lengthAdjust="spacing" textLength="61" x="856.5" y="291.8441">Asignatura</text></g><!--entity ProfesoresAbierto--><g id="elem_ProfesoresAbierto"><rect fill="#CDEBA5" height="36.3441" rx="2.5" ry="2.5" style="stroke:#181818;stroke-width:0.5;" width="128" x="1399" y="155.016"/><text fill="#000000" font-family="sans-serif" font-size="12" lengthAdjust="spacing" textLength="108" x="1409" y="177.8441">:Profesores Abierto</text></g><!--entity ProfesorAbierto--><g id="elem_ProfesorAbierto"><rect fill="#CDEBA5" height="36.3441" rx="2.5" ry="2.5" style="stroke:#181818;stroke-width:0.5;" width="115" x="1705.5" y="155.016"/><text fill="#000000" font-family="sans-serif" font-size="12" lengthAdjust="spacing" textLength="95" x="1715.5" y="177.8441">:Profesor Abierto</text></g><!--link ProfesoresAbierto to EditarProfesorView--><g id="link_ProfesoresAbierto_EditarProfesorView"><path d="M1398.83,155.446 C1346.43,141.916 1281,125.016 1281,125.016 C1281,125.016 1241.5051,99.6036 1211.5851,80.3436 " fill="none" id="ProfesoresAbierto-to-EditarProfesorView" style="stroke:#181818;stroke-width:1.0;"/><polygon fill="#181818" points="1206.54,77.096,1211.9426,85.3308,1210.7442,79.8024,1216.2727,78.604,1206.54,77.096" style="stroke:#181818;stroke-width:1.0;"/><text fill="#000000" font-family="sans-serif" font-size="12" lengthAdjust="spacing" textLength="137" x="1282" y="120.8441">editarProfesor(profesor)</text></g><!--link EditarProfesorView to ProfesoresAbierto--><g id="link_EditarProfesorView_ProfesoresAbierto"><path d="M1243.79,72.306 C1316.08,86.226 1424,107.016 1424,107.016 C1424,107.016 1438.1142,130.5304 1449.6642,149.7904 " fill="none" id="EditarProfesorView-to-ProfesoresAbierto" style="stroke:#181818;stroke-width:1.0;stroke-dasharray:7.0,7.0;"/><polygon fill="#181818" points="1452.75,154.936,1451.5517,145.1603,1450.1785,150.648,1444.6909,149.2747,1452.75,154.936" style="stroke:#181818;stroke-width:1.0;"/><text fill="#000000" font-family="sans-serif" font-size="12" lengthAdjust="spacing" textLength="156" x="1436" y="120.8441">&#171;finalizar&#187; abrirProfesores()</text></g><!--link EditarProfesorView to ProfesoresAbierto--><g id="link_EditarProfesorView_ProfesoresAbierto"><path d="M1243.94,67.156 C1361.71,80.306 1601,107.016 1601,107.016 C1601,107.016 1601,125.016 1601,125.016 C1601,125.016 1558.3496,139.5416 1518.8896,152.9816 " fill="none" id="EditarProfesorView-to-ProfesoresAbierto-1" style="stroke:#181818;stroke-width:1.0;stroke-dasharray:7.0,7.0;"/><polygon fill="#181818" points="1513.21,154.916,1523.019,155.8007,1517.943,153.304,1520.4398,148.2279,1513.21,154.916" style="stroke:#181818;stroke-width:1.0;"/><text fill="#000000" font-family="sans-serif" font-size="12" lengthAdjust="spacing" textLength="60" x="1602" y="120.8441">&#171;cancelar&#187;</text></g><!--link EditarProfesorView to ProfesorController--><g id="link_EditarProfesorView_ProfesorController"><path d="M1116.24,62.676 C878.04,72.616 54,107.016 54,107.016 C54,107.016 54,125.016 54,125.016 C54,125.016 220.9196,148.7122 316.7996,162.3322 " fill="none" id="EditarProfesorView-to-ProfesorController" style="stroke:#181818;stroke-width:1.0;"/><polygon fill="#181818" points="322.74,163.176,314.392,157.95,317.7897,162.4728,313.2669,165.8705,322.74,163.176" style="stroke:#181818;stroke-width:1.0;"/><text fill="#000000" font-family="sans-serif" font-size="12" lengthAdjust="spacing" textLength="280" x="55" y="120.8441">obtenerDepartamentosDisponibles() : List&lt;String&gt;</text></g><!--link EditarProfesorView to ProfesorController--><g id="link_EditarProfesorView_ProfesorController"><path d="M1116.24,63.746 C926.08,74.856 376,107.016 376,107.016 C376,107.016 376,125.016 376,125.016 C376,125.016 378.0015,135.4731 380.5715,148.8931 " fill="none" id="EditarProfesorView-to-ProfesorController-1" style="stroke:#181818;stroke-width:1.0;"/><polygon fill="#181818" points="381.7,154.786,383.9358,145.1943,380.7596,149.8753,376.0786,146.699,381.7,154.786" style="stroke:#181818;stroke-width:1.0;"/><text fill="#000000" font-family="sans-serif" font-size="12" lengthAdjust="spacing" textLength="350" x="377" y="120.8441">buscarAsignaturas(criterio, pagina) : PagedResult&lt;Asignatura&gt;</text></g><!--link EditarProfesorView to ProfesorController--><g id="link_EditarProfesorView_ProfesorController"><path d="M1116.41,67.356 C1001.94,80.576 773,107.016 773,107.016 C773,107.016 732,125.016 732,125.016 C732,125.016 552.7957,149.2906 452.9857,162.8106 " fill="none" id="EditarProfesorView-to-ProfesorController-2" style="stroke:#181818;stroke-width:1.0;"/><polygon fill="#181818" points="447.04,163.616,456.4955,166.3717,451.9948,162.9449,455.4216,158.4441,447.04,163.616" style="stroke:#181818;stroke-width:1.0;"/><text fill="#000000" font-family="sans-serif" font-size="12" lengthAdjust="spacing" textLength="471" x="774" y="120.8441">actualizar(profesor, codigo, nombre, email, departamento, id_asignaturas) : Profesor</text></g><!--link ProfesorController to AsignaturaRepository--><g id="link_ProfesorController_AsignaturaRepository"><path d="M426.48,191.116 C459.07,204.556 499,221.016 499,221.016 C499,221.016 513.1142,244.5304 524.6642,263.7904 " fill="none" id="ProfesorController-to-AsignaturaRepository" style="stroke:#181818;stroke-width:1.0;"/><polygon fill="#181818" points="527.75,268.936,526.5517,259.1603,525.1785,264.648,519.6909,263.2747,527.75,268.936" style="stroke:#181818;stroke-width:1.0;"/><text fill="#000000" font-family="sans-serif" font-size="12" lengthAdjust="spacing" textLength="341" x="511" y="234.8441">buscarPaginadas(criterio, pagina) : PagedResult&lt;Asignatura&gt;</text></g><!--link ProfesorController to ProfesorRepository--><g id="link_ProfesorController_ProfesorRepository"><path d="M322.74,182.856 C226.86,196.476 54,221.016 54,221.016 C54,221.016 54,239.016 54,239.016 C54,239.016 109.1476,253.9112 158.8976,267.3512 " fill="none" id="ProfesorController-to-ProfesorRepository" style="stroke:#181818;stroke-width:1.0;"/><polygon fill="#181818" points="164.69,268.916,157.0447,262.7072,159.863,267.612,154.9583,270.4304,164.69,268.916" style="stroke:#181818;stroke-width:1.0;"/><text fill="#000000" font-family="sans-serif" font-size="12" lengthAdjust="spacing" textLength="286" x="55" y="234.8441">existeEmailExcluyendo(email, profesorId) : Boolean</text></g><!--link ProfesorController to ProfesorRepository--><g id="link_ProfesorController_ProfesorRepository"><path d="M374.75,191.096 C363.2,210.356 346,239.016 346,239.016 C346,239.016 310.244,253.2557 276.504,266.6957 " fill="none" id="ProfesorController-to-ProfesorRepository-1" style="stroke:#181818;stroke-width:1.0;"/><polygon fill="#181818" points="270.93,268.916,280.7713,269.3015,275.575,267.0657,277.8108,261.8694,270.93,268.916" style="stroke:#181818;stroke-width:1.0;"/><text fill="#000000" font-family="sans-serif" font-size="12" lengthAdjust="spacing" textLength="111" x="358" y="234.8441">actualizar(profesor)</text></g><!--link ProfesorController to Profesor--><g id="link_ProfesorController_Profesor"><path d="M447.11,173.016 C519.51,173.016 630.54,173.016 687.98,173.016 " fill="none" id="ProfesorController-to-Profesor" style="stroke:#181818;stroke-width:1.0;"/><polygon fill="#181818" points="693.98,173.016,684.98,169.016,688.98,173.016,684.98,177.016,693.98,173.016" style="stroke:#181818;stroke-width:1.0;"/><text fill="#000000" font-family="sans-serif" font-size="12" lengthAdjust="spacing" textLength="51" x="545" y="165.8441">&#171;update&#187;</text></g><!--link Profesor to Asignatura--><g id="link_Profesor_Asignatura"><path d="M762.25,186.116 C801.66,200.046 861,221.016 861,221.016 C861,221.016 872.47,249.676 880.17,268.936 " fill="none" id="Profesor-Asignatura" style="stroke:#181818;stroke-width:1.0;"/></g><!--link EditarProfesorView to ProfesorAbierto--><g id="link_EditarProfesorView_ProfesorAbierto"><path d="M1243.69,66.116 C1376.54,78.826 1671,107.016 1671,107.016 C1671,107.016 1706.6697,132.2138 1733.9297,151.4738 " fill="none" id="EditarProfesorView-to-ProfesorAbierto" style="stroke:#181818;stroke-width:1.0;stroke-dasharray:7.0,7.0;"/><polygon fill="#181818" points="1738.83,154.936,1733.7877,146.4758,1734.7464,152.0508,1729.1714,153.0096,1738.83,154.936" style="stroke:#181818;stroke-width:1.0;"/><text fill="#000000" font-family="sans-serif" font-size="12" lengthAdjust="spacing" textLength="45" x="1696" y="120.8441">&#171;editar&#187;</text></g><!--link ProfesorAbierto to ProfesorAbierto--><g id="link_ProfesorAbierto_ProfesorAbierto"><path d="M1820.81,162.516 C1840.08,162.516 1855.5,166.016 1855.5,173.016 C1855.5,180.016 1846.08,183.516 1826.81,183.516 " fill="none" id="ProfesorAbierto-to-ProfesorAbierto" style="stroke:#181818;stroke-width:1.0;"/><polygon fill="#181818" points="1820.81,183.516,1829.81,187.516,1825.81,183.516,1829.81,179.516,1820.81,183.516" style="stroke:#181818;stroke-width:1.0;"/><text fill="#000000" font-family="sans-serif" font-size="12" lengthAdjust="spacing" textLength="89" x="1861.5" y="177.8441">editarProfesor()</text></g><!--SRC=[bLHTQ-Cm47pNhrXoBmd4XGjjkOPWI1C72lSGMhZNOsrjN555CYkPD3tklv-S3zjDt0lnaotDpkoEnd9loXJ8k8OKixUSRMdap6hBi7bLdeIhzzqhIhjH9eSLQjVUcTCAI-qNrlXzQQe3LpVWHNqGV1-rDhKovBS5GM7rjleGWYdpQ79Dy6qsJnwdTz0RBzcko5ac1zDK4NlR0tJGB1zM_rlSMNei54Ne6dC2aieZrpK1slkyr1_qu8-0yBJ4xaSFoU81aa_8Nuesfy3qBfNtFshvMN25hTR4fy35Q3gxJMhWCnNMAMzv-mLmwbHkq9UC5w57pejCugyGPnv3n57SCUdunBf-SNWP276EXaW6bdCRnc1JJuPuJY4X7jTal7LpvGfhLAh9zGSmXf_A-ScBvn38-3hsj7GPSZEYwsSSeixA3g70N1ci-9SX2VAPNCZjfC76ufnnhzHb_b5hkMELLofTDHHclaIjFh0nVGYPbIeFMiQkKwOXq1gL7e9i-Je49NzZuyMkeMCulXpsF9BXwD_3YL1IIIJlcIwtPAJj7oIFFJt9Ik3HMareEkcvHJ-6oQGi97gAuwjwwN1Zq4m3KTHEU9VFDpVnwVrGDREFTwkP-eU8El2dbyP5fVe7gxHM8Hwx4U8OC6N53IfGNSEKeSb8x_h-1m00]--></g></svg>