<?xml version="1.0" encoding="us-ascii" standalone="no"?><svg xmlns="http://www.w3.org/2000/svg" xmlns:xlink="http://www.w3.org/1999/xlink" contentStyleType="text/css" height="328px" preserveAspectRatio="none" style="width:1576px;height:328px;background:#FFFFFF;" version="1.1" viewBox="0 0 1576 328" width="1576px" zoomAndPan="magnify"><defs/><g><!--cluster editarProfesor--><g id="cluster_editarProfesor"><path d="M153.5,6.016 L248.5,6.016 A3.75,3.75 0 0 1 251,8.516 L258,28.3601 L1402.5,28.3601 A2.5,2.5 0 0 1 1405,30.8601 L1405,318.516 A2.5,2.5 0 0 1 1402.5,321.016 L153.5,321.016 A2.5,2.5 0 0 1 151,318.516 L151,8.516 A2.5,2.5 0 0 1 153.5,6.016 " fill="none" style="stroke:#000000;stroke-width:1.5;"/><line style="stroke:#000000;stroke-width:1.5;" x1="151" x2="258" y1="28.3601" y2="28.3601"/><text fill="#000000" font-family="sans-serif" font-size="12" font-weight="bold" lengthAdjust="spacing" textLength="94" x="155" y="20.8441">editarProfesor()</text></g><!--entity EditarProfesorView--><g id="elem_EditarProfesorView"><rect fill="#629EF9" height="36.3441" rx="2.5" ry="2.5" style="stroke:#181818;stroke-width:0.5;" width="127" x="656.5" y="41.016"/><text fill="#000000" font-family="sans-serif" font-size="12" lengthAdjust="spacing" textLength="107" x="666.5" y="63.8441">EditarProfesorView</text></g><!--entity ProfesorController--><g id="elem_ProfesorController"><rect fill="#B5BD68" height="36.3441" rx="2.5" ry="2.5" style="stroke:#181818;stroke-width:0.5;" width="124" x="468" y="155.016"/><text fill="#000000" font-family="sans-serif" font-size="12" lengthAdjust="spacing" textLength="104" x="478" y="177.8441">ProfesorController</text></g><!--entity ProfesorRepository--><g id="elem_ProfesorRepository"><rect fill="#F2AC4E" height="36.3441" rx="2.5" ry="2.5" style="stroke:#181818;stroke-width:0.5;" width="127" x="309.5" y="269.016"/><text fill="#000000" font-family="sans-serif" font-size="12" lengthAdjust="spacing" textLength="107" x="319.5" y="291.8441">ProfesorRepository</text></g><!--entity AsignaturaRepository--><g id="elem_AsignaturaRepository"><rect fill="#F2AC4E" height="36.3441" rx="2.5" ry="2.5" style="stroke:#181818;stroke-width:0.5;" width="140" x="613" y="269.016"/><text fill="#000000" font-family="sans-serif" font-size="12" lengthAdjust="spacing" textLength="120" x="623" y="291.8441">AsignaturaRepository</text></g><!--entity Profesor--><g id="elem_Profesor"><rect fill="#F2AC4E" height="36.3441" rx="2.5" ry="2.5" style="stroke:#181818;stroke-width:0.5;" width="68" x="839" y="155.016"/><text fill="#000000" font-family="sans-serif" font-size="12" lengthAdjust="spacing" textLength="48" x="849" y="177.8441">Profesor</text></g><!--entity Asignatura--><g id="elem_Asignatura"><rect fill="#F2AC4E" height="36.3441" rx="2.5" ry="2.5" style="stroke:#181818;stroke-width:0.5;" width="81" x="991.5" y="269.016"/><text fill="#000000" font-family="sans-serif" font-size="12" lengthAdjust="spacing" textLength="61" x="1001.5" y="291.8441">Asignatura</text></g><!--entity ProfesoresAbierto--><g id="elem_ProfesoresAbierto"><rect fill="#CDEBA5" height="36.3441" rx="2.5" ry="2.5" style="stroke:#181818;stroke-width:0.5;" width="128" x="7" y="41.016"/><text fill="#000000" font-family="sans-serif" font-size="12" lengthAdjust="spacing" textLength="108" x="17" y="63.8441">:Profesores Abierto</text></g><!--entity ProfesoresAbiertoSalida--><g id="elem_ProfesoresAbiertoSalida"><rect fill="#CDEBA5" height="36.3441" rx="2.5" ry="2.5" style="stroke:#181818;stroke-width:0.5;" width="128" x="1442" y="155.016"/><text fill="#000000" font-family="sans-serif" font-size="12" lengthAdjust="spacing" textLength="108" x="1452" y="177.8441">:Profesores Abierto</text></g><!--link ProfesoresAbierto to EditarProfesorView--><g id="link_ProfesoresAbierto_EditarProfesorView"><path d="M135,59.016 C259.4,59.016 526.46,59.016 650.47,59.016 " fill="none" id="ProfesoresAbierto-to-EditarProfesorView" style="stroke:#181818;stroke-width:1.0;"/><polygon fill="#181818" points="656.47,59.016,647.47,55.016,651.47,59.016,647.47,63.016,656.47,59.016" style="stroke:#181818;stroke-width:1.0;"/><text fill="#000000" font-family="sans-serif" font-size="12" lengthAdjust="spacing" textLength="137" x="327.25" y="51.8441">editarProfesor(profesor)</text></g><!--link EditarProfesorView to ProfesorController--><g id="link_EditarProfesorView_ProfesorController"><path d="M656.38,65.756 C517.39,78.296 199,107.016 199,107.016 C199,107.016 199,125.016 199,125.016 C199,125.016 365.9196,148.7122 461.7996,162.3322 " fill="none" id="EditarProfesorView-to-ProfesorController" style="stroke:#181818;stroke-width:1.0;"/><polygon fill="#181818" points="467.74,163.176,459.392,157.95,462.7897,162.4728,458.2669,165.8705,467.74,163.176" style="stroke:#181818;stroke-width:1.0;"/><text fill="#000000" font-family="sans-serif" font-size="12" lengthAdjust="spacing" textLength="280" x="200" y="120.8441">obtenerDepartamentosDisponibles() : List&lt;String&gt;</text></g><!--link EditarProfesorView to ProfesorController--><g id="link_EditarProfesorView_ProfesorController"><path d="M656.49,75.016 C598.25,88.776 521,107.016 521,107.016 C521,107.016 521,125.016 521,125.016 C521,125.016 523.0015,135.4731 525.5715,148.8931 " fill="none" id="EditarProfesorView-to-ProfesorController-1" style="stroke:#181818;stroke-width:1.0;"/><polygon fill="#181818" points="526.7,154.786,528.9358,145.1943,525.7596,149.8753,521.0786,146.699,526.7,154.786" style="stroke:#181818;stroke-width:1.0;"/><text fill="#000000" font-family="sans-serif" font-size="12" lengthAdjust="spacing" textLength="350" x="522" y="120.8441">buscarAsignaturas(criterio, pagina) : PagedResult&lt;Asignatura&gt;</text></g><!--link EditarProfesorView to ProfesorController--><g id="link_EditarProfesorView_ProfesorController"><path d="M777.12,77.116 C822.01,90.556 877,107.016 877,107.016 C877,107.016 877,125.016 877,125.016 C877,125.016 697.7957,149.2906 597.9857,162.8106 " fill="none" id="EditarProfesorView-to-ProfesorController-2" style="stroke:#181818;stroke-width:1.0;"/><polygon fill="#181818" points="592.04,163.616,601.4955,166.3717,596.9948,162.9449,600.4216,158.4441,592.04,163.616" style="stroke:#181818;stroke-width:1.0;"/><text fill="#000000" font-family="sans-serif" font-size="12" lengthAdjust="spacing" textLength="471" x="878" y="120.8441">actualizar(profesor, codigo, nombre, email, departamento, id_asignaturas) : Profesor</text></g><!--link ProfesorController to AsignaturaRepository--><g id="link_ProfesorController_AsignaturaRepository"><path d="M571.48,191.116 C604.07,204.556 644,221.016 644,221.016 C644,221.016 658.1142,244.5304 669.6642,263.7904 " fill="none" id="ProfesorController-to-AsignaturaRepository" style="stroke:#181818;stroke-width:1.0;"/><polygon fill="#181818" points="672.75,268.936,671.5517,259.1603,670.1785,264.648,664.6909,263.2747,672.75,268.936" style="stroke:#181818;stroke-width:1.0;"/><text fill="#000000" font-family="sans-serif" font-size="12" lengthAdjust="spacing" textLength="341" x="655" y="234.8441">buscarPaginadas(criterio, pagina) : PagedResult&lt;Asignatura&gt;</text></g><!--link ProfesorController to ProfesorRepository--><g id="link_ProfesorController_ProfesorRepository"><path d="M467.74,182.856 C371.86,196.476 199,221.016 199,221.016 C199,221.016 199,239.016 199,239.016 C199,239.016 254.1476,253.9112 303.8976,267.3512 " fill="none" id="ProfesorController-to-ProfesorRepository" style="stroke:#181818;stroke-width:1.0;"/><polygon fill="#181818" points="309.69,268.916,302.0447,262.7072,304.863,267.612,299.9583,270.4304,309.69,268.916" style="stroke:#181818;stroke-width:1.0;"/><text fill="#000000" font-family="sans-serif" font-size="12" lengthAdjust="spacing" textLength="286" x="200" y="234.8441">existeEmailExcluyendo(email, profesorId) : Boolean</text></g><!--link ProfesorController to ProfesorRepository--><g id="link_ProfesorController_ProfesorRepository"><path d="M519.75,191.096 C508.2,210.356 491,239.016 491,239.016 C491,239.016 455.244,253.2557 421.504,266.6957 " fill="none" id="ProfesorController-to-ProfesorRepository-1" style="stroke:#181818;stroke-width:1.0;"/><polygon fill="#181818" points="415.93,268.916,425.7713,269.3015,420.575,267.0657,422.8108,261.8694,415.93,268.916" style="stroke:#181818;stroke-width:1.0;"/><text fill="#000000" font-family="sans-serif" font-size="12" lengthAdjust="spacing" textLength="111" x="502" y="234.8441">actualizar(profesor)</text></g><!--link ProfesorController to Profesor--><g id="link_ProfesorController_Profesor"><path d="M592.11,173.016 C664.51,173.016 775.54,173.016 832.98,173.016 " fill="none" id="ProfesorController-to-Profesor" style="stroke:#181818;stroke-width:1.0;"/><polygon fill="#181818" points="838.98,173.016,829.98,169.016,833.98,173.016,829.98,177.016,838.98,173.016" style="stroke:#181818;stroke-width:1.0;"/><text fill="#000000" font-family="sans-serif" font-size="12" lengthAdjust="spacing" textLength="51" x="690" y="165.8441">&#171;update&#187;</text></g><!--link Profesor to Asignatura--><g id="link_Profesor_Asignatura"><path d="M907.34,186.246 C946.45,200.166 1005,221.016 1005,221.016 C1005,221.016 1016.91,249.676 1024.91,268.936 " fill="none" id="Profesor-Asignatura" style="stroke:#181818;stroke-width:1.0;"/></g><!--link EditarProfesorView to ProfesoresAbiertoSalida--><g id="link_EditarProfesorView_ProfesoresAbiertoSalida"><path d="M783.51,64.696 C944.88,76.586 1358,107.016 1358,107.016 C1358,107.016 1417.7665,133.2632 1461.6165,152.5232 " fill="none" id="EditarProfesorView-to-ProfesoresAbiertoSalida" style="stroke:#181818;stroke-width:1.0;stroke-dasharray:7.0,7.0;"/><polygon fill="#181818" points="1467.11,154.936,1460.4784,147.6544,1462.5321,152.9253,1457.2612,154.979,1467.11,154.936" style="stroke:#181818;stroke-width:1.0;"/><text fill="#000000" font-family="sans-serif" font-size="12" lengthAdjust="spacing" textLength="57" x="1398" y="120.8441">&#171;finalizar&#187;</text></g><!--link EditarProfesorView to ProfesoresAbiertoSalida--><g id="link_EditarProfesorView_ProfesoresAbiertoSalida"><path d="M783.75,64.046 C963.95,75.426 1464,107.016 1464,107.016 C1464,107.016 1479.2646,130.6359 1491.7046,149.8959 " fill="none" id="EditarProfesorView-to-ProfesoresAbiertoSalida-1" style="stroke:#181818;stroke-width:1.0;stroke-dasharray:7.0,7.0;"/><polygon fill="#181818" points="1494.96,154.936,1493.437,145.2056,1492.2472,150.736,1486.7169,149.5461,1494.96,154.936" style="stroke:#181818;stroke-width:1.0;"/><text fill="#000000" font-family="sans-serif" font-size="12" lengthAdjust="spacing" textLength="60" x="1476" y="120.8441">&#171;cancelar&#187;</text></g><!--SRC=[fLDHQ-9047xVNp5uBn6qSDAMgqZ0QeJ2FKY5UpqcsJ5Tkkw4tGtM7lVVRsEDIJLIvFAKx7pxVJFVV76loXHeSGCfPg-vvTB86Mksi7rHdeGxrjqBIjugayCQjMjNvhJ6Kli56_znDTM1gnkmKky4tqUjebQ6_AuWA5ZlgWyXB6KUJQu9litcoUFq3dhZfUKrERRaO9egifvxW0wQuyEf44KGnvo0fF9eQq05xdq-Ylez-2CWF2t1-z53idY0v1FobwBjAJ2zI-NzZsC3ip2SPQt9dW8Ne-diDZa2dwbWfppRtGNWrAdSe2yjVWcjERza4d__pzKLQYLHYBC23Eqmxd1hV69_L1nU-aASes4e0ykvbMFWr9CXEwSG5eyRCfxTNBc2ZKerkQWFO_Yfd9-il0tPZAzZJqkNeMriSb5cG-gjuW4Kc2k35Vyof4a-amiHdZJOM9mpVYXrBR3MMkvPvPLALms5cI_3kjwnCNq06KkL1ot3czJI06Y3IWz0jdmTW9A_iV5Ytr0Ti8l3diSwhFujR8IIIY9votIv8oCvEaZMFJt9Ik2HMHEQJdhReX_3P58M4Zt5yLMzTBZHRwQ1uR3zbtJvV7CJN_eVggRMONLx-j3NzRSpD1df_UL_]--></g></svg>