<?xml version="1.0" encoding="us-ascii" standalone="no"?><svg xmlns="http://www.w3.org/2000/svg" xmlns:xlink="http://www.w3.org/1999/xlink" contentStyleType="text/css" height="666px" preserveAspectRatio="none" style="width:724px;height:666px;background:#FFFFFF;" version="1.1" viewBox="0 0 724 666" width="724px" zoomAndPan="magnify"><defs/><g><path d="M144.5,7 L451.5,7 A12.5,12.5 0 0 1 464,19.5 L464,34.6094 L132,34.6094 L132,19.5 A12.5,12.5 0 0 1 144.5,7 " fill="#F1F1F1" style="stroke:#F1F1F1;stroke-width:1.0;"/><rect fill="none" height="506.6094" rx="12.5" ry="12.5" style="stroke:#181818;stroke-width:0.5;" width="332" x="132" y="7"/><line style="stroke:#181818;stroke-width:0.5;" x1="132" x2="464" y1="34.6094" y2="34.6094"/><text fill="#000000" font-family="sans-serif" font-size="14" lengthAdjust="spacing" textLength="86" x="255" y="26.5332">abrirGrados()</text><g id="abrirGrados.MostrandoLista"><rect fill="#F1F1F1" height="50" rx="12.5" ry="12.5" style="stroke:#181818;stroke-width:0.5;" width="50" x="144" y="137.6094"/><line style="stroke:#181818;stroke-width:0.5;" x1="144" x2="194" y1="165.2188" y2="165.2188"/><text fill="#000000" font-family="sans-serif" font-size="14" lengthAdjust="spacing" textLength="4" x="167" y="157.1426">&#160;</text></g><g id="abrirGrados.FiltrandoLista"><rect fill="#F1F1F1" height="50" rx="12.5" ry="12.5" style="stroke:#181818;stroke-width:0.5;" width="50" x="144" y="358.6094"/><line style="stroke:#181818;stroke-width:0.5;" x1="144" x2="194" y1="386.2188" y2="386.2188"/><text fill="#000000" font-family="sans-serif" font-size="14" lengthAdjust="spacing" textLength="4" x="167" y="378.1426">&#160;</text></g><ellipse cx="169" cy="55.6094" fill="#222222" rx="10" ry="10" style="stroke:#222222;stroke-width:1.0;"/><ellipse cx="169" cy="492.6094" fill="none" rx="11" ry="11" style="stroke:#222222;stroke-width:1.0;"/><ellipse cx="169" cy="492.6094" fill="#222222" rx="6" ry="6" style="stroke:#222222;stroke-width:1.0;"/><!--link *start*abrirGrados to MostrandoLista--><g id="link_*start*abrirGrados_MostrandoLista"><path d="M169,65.9294 C169,81.7894 169,108.5194 169,131.2494 " fill="none" id="*start*abrirGrados-to-MostrandoLista" style="stroke:#008000;stroke-width:1.0;"/><polygon fill="#008000" points="169,137.2494,173,128.2494,169,132.2494,165,128.2494,169,137.2494" style="stroke:#008000;stroke-width:1.0;"/><path d="M174,88.6094 L174,114.6094 L401,114.6094 L401,98.6094 L391,88.6094 L174,88.6094 " fill="#FEFFDD" style="stroke:#181818;stroke-width:0.5;"/><path d="M391,88.6094 L391,98.6094 L401,98.6094 L391,88.6094 " fill="#FEFFDD" style="stroke:#181818;stroke-width:0.5;"/><text fill="#000000" font-family="sans-serif" font-size="13" font-weight="bold" lengthAdjust="spacing" textLength="89" x="180" y="107.1045">Administrador</text><text fill="#000000" font-family="sans-serif" font-size="13" lengthAdjust="spacing" textLength="113" x="273" y="107.1045">solicita abrir grados</text></g><!--link MostrandoLista to FiltrandoLista--><g id="link_MostrandoLista_FiltrandoLista"><path d="M169,187.8794 C169,230.0894 169,310.5094 169,352.5594 " fill="none" id="MostrandoLista-to-FiltrandoLista" style="stroke:#008000;stroke-width:1.0;"/><polygon fill="#008000" points="169,358.5594,173,349.5594,169,353.5594,165,349.5594,169,358.5594" style="stroke:#008000;stroke-width:1.0;"/><path d="M174,210.6094 L174,334.6094 L455,334.6094 L455,220.6094 L445,210.6094 L174,210.6094 " fill="#FEFFDD" style="stroke:#181818;stroke-width:0.5;"/><path d="M445,210.6094 L445,220.6094 L455,220.6094 L445,210.6094 " fill="#FEFFDD" style="stroke:#181818;stroke-width:0.5;"/><text fill="#000000" font-family="sans-serif" font-size="13" font-weight="bold" lengthAdjust="spacing" textLength="51" x="180" y="229.1045">Sistema</text><text fill="#000000" font-family="sans-serif" font-size="13" lengthAdjust="spacing" textLength="139" x="235" y="229.1045">presenta lista de grados</text><text fill="#000000" font-family="sans-serif" font-size="13" lengthAdjust="spacing" textLength="260" x="180" y="245.4561">&#8226; C&#243;digo, nombre, descripci&#243;n de cada grado</text><text fill="#000000" font-family="sans-serif" font-size="13" lengthAdjust="spacing" textLength="163" x="180" y="261.8076">&#8226; Permite solicitar filtrar lista</text><text fill="#000000" font-family="sans-serif" font-size="13" lengthAdjust="spacing" textLength="209" x="180" y="278.1592">&#8226; Permite solicitar crear grado nuevo</text><text fill="#000000" font-family="sans-serif" font-size="13" lengthAdjust="spacing" textLength="188" x="180" y="294.5107">&#8226; Permite solicitar eliminar grado</text><text fill="#000000" font-family="sans-serif" font-size="13" lengthAdjust="spacing" textLength="175" x="180" y="310.8623">&#8226; Permite solicitar editar grado</text><text fill="#000000" font-family="sans-serif" font-size="13" lengthAdjust="spacing" textLength="197" x="180" y="327.2139">&#8226; Permite solicitar importar grados</text></g><!--link FiltrandoLista to FiltrandoLista--><g id="link_FiltrandoLista_FiltrandoLista"><path d="M194.18,372.0294 C203.91,371.5194 212,375.3794 212,383.6094 C212,391.8394 209.9018,396.0134 200.1718,395.5034 " fill="none" id="FiltrandoLista-to-FiltrandoLista" style="stroke:#008000;stroke-width:1.0;"/><polygon fill="#008000" points="194.18,395.1894,202.9583,399.655,199.1731,395.4511,203.377,391.6659,194.18,395.1894" style="stroke:#008000;stroke-width:1.0;"/><path d="M217,362.6094 L217,404.6094 L432,404.6094 L432,372.6094 L422,362.6094 L217,362.6094 " fill="#FEFFDD" style="stroke:#181818;stroke-width:0.5;"/><path d="M422,362.6094 L422,372.6094 L432,372.6094 L422,362.6094 " fill="#FEFFDD" style="stroke:#181818;stroke-width:0.5;"/><text fill="#000000" font-family="sans-serif" font-size="13" font-weight="bold" lengthAdjust="spacing" textLength="89" x="223" y="381.1045">Administrador</text><text fill="#000000" font-family="sans-serif" font-size="13" lengthAdjust="spacing" textLength="101" x="316" y="381.1045">solicita filtrar lista</text><text fill="#000000" font-family="sans-serif" font-size="13" font-weight="bold" lengthAdjust="spacing" textLength="51" x="223" y="397.4561">Sistema</text><text fill="#000000" font-family="sans-serif" font-size="13" lengthAdjust="spacing" textLength="120" x="278" y="397.4561">presenta lista filtrada</text></g><!--link FiltrandoLista to *end*abrirGrados--><g id="link_FiltrandoLista_*end*abrirGrados"><path d="M169,408.6194 C169,431.5394 169,458.9694 169,475.5294 " fill="none" id="FiltrandoLista-to-*end*abrirGrados" style="stroke:#008000;stroke-width:1.0;"/><polygon fill="#008000" points="169,481.5294,173,472.5294,169,476.5294,165,472.5294,169,481.5294" style="stroke:#008000;stroke-width:1.0;"/><path d="M174,432.6094 L174,458.6094 L449,458.6094 L449,442.6094 L439,432.6094 L174,432.6094 " fill="#FEFFDD" style="stroke:#181818;stroke-width:0.5;"/><path d="M439,432.6094 L439,442.6094 L449,442.6094 L439,432.6094 " fill="#FEFFDD" style="stroke:#181818;stroke-width:0.5;"/><text fill="#000000" font-family="sans-serif" font-size="13" font-weight="bold" lengthAdjust="spacing" textLength="89" x="180" y="451.1045">Administrador</text><text fill="#000000" font-family="sans-serif" font-size="13" lengthAdjust="spacing" textLength="161" x="273" y="451.1045">solicita una de las opciones</text></g><g id="GRADO_ABIERTO"><rect fill="#F1F1F1" height="50" rx="12.5" ry="12.5" style="stroke:#181818;stroke-width:0.5;" width="139" x="39.5" y="610"/><line style="stroke:#181818;stroke-width:0.5;" x1="39.5" x2="178.5" y1="637.6094" y2="637.6094"/><text fill="#000000" font-family="sans-serif" font-size="14" lengthAdjust="spacing" textLength="119" x="49.5" y="629.5332">GRADO_ABIERTO</text></g><g id="GRADOS_ABIERTO"><rect fill="#F1F1F1" height="50" rx="12.5" ry="12.5" style="stroke:#181818;stroke-width:0.5;" width="148" x="269" y="610"/><line style="stroke:#181818;stroke-width:0.5;" x1="269" x2="417" y1="637.6094" y2="637.6094"/><text fill="#000000" font-family="sans-serif" font-size="14" lengthAdjust="spacing" textLength="128" x="279" y="629.5332">GRADOS_ABIERTO</text></g><g id="SISTEMA_DISPONIBLE"><rect fill="#F1F1F1" height="50" rx="12.5" ry="12.5" style="stroke:#181818;stroke-width:0.5;" width="167" x="541.5" y="610"/><line style="stroke:#181818;stroke-width:0.5;" x1="541.5" x2="708.5" y1="637.6094" y2="637.6094"/><text fill="#000000" font-family="sans-serif" font-size="14" lengthAdjust="spacing" textLength="147" x="551.5" y="629.5332">SISTEMA_DISPONIBLE</text></g><!--link abrirGrados to GRADO_ABIERTO--><g id="link_abrirGrados_GRADO_ABIERTO"><path d="M131.95,422.14 C66.21,485.75 6,544 6,544 C6,544 6,580 6,580 C6,580 30.1856,592.6849 57.6056,607.0549 " fill="none" id="abrirGrados-to-GRADO_ABIERTO" style="stroke:#008000;stroke-width:1.0;"/><polygon fill="#008000" points="62.92,609.84,56.8051,602.1194,58.4913,607.5191,53.0916,609.2053,62.92,609.84" style="stroke:#008000;stroke-width:1.0;"/><path d="M11,549 L11,575 L107,575 L107,559 L97,549 L11,549 " fill="#FEFFDD" style="stroke:#181818;stroke-width:0.5;"/><path d="M97,549 L97,559 L107,559 L97,549 " fill="#FEFFDD" style="stroke:#181818;stroke-width:0.5;"/><text fill="#000000" font-family="sans-serif" font-size="13" lengthAdjust="spacing" textLength="75" x="17" y="567.4951">editarGrado()</text></g><!--link abrirGrados to GRADO_ABIERTO--><g id="link_abrirGrados_GRADO_ABIERTO"><path d="M169.84,514.09 C149.96,553.27 135.0726,582.5982 123.9926,604.4582 " fill="none" id="abrirGrados-to-GRADO_ABIERTO-1" style="stroke:#008000;stroke-width:1.0;"/><polygon fill="#008000" points="121.28,609.81,128.9168,603.5907,123.5405,605.3502,121.7811,599.9739,121.28,609.81" style="stroke:#008000;stroke-width:1.0;"/><path d="M155,549 L155,575 L248,575 L248,559 L238,549 L155,549 " fill="#FEFFDD" style="stroke:#181818;stroke-width:0.5;"/><path d="M238,549 L238,559 L248,559 L238,549 " fill="#FEFFDD" style="stroke:#181818;stroke-width:0.5;"/><text fill="#000000" font-family="sans-serif" font-size="13" lengthAdjust="spacing" textLength="72" x="161" y="567.4951">crearGrado()</text></g><!--link abrirGrados to GRADOS_ABIERTO--><g id="link_abrirGrados_GRADOS_ABIERTO"><path d="M295.32,514.04 C295.12,532.46 295,544 295,544 C295,544 295,580 295,580 C295,580 304.7627,590.9866 317.5427,605.3566 " fill="none" id="abrirGrados-to-GRADOS_ABIERTO" style="stroke:#008000;stroke-width:1.0;"/><polygon fill="#008000" points="321.53,609.84,318.5379,600.4566,318.2072,606.1038,312.56,605.7731,321.53,609.84" style="stroke:#008000;stroke-width:1.0;"/><path d="M300,549 L300,575 L409,575 L409,559 L399,549 L300,549 " fill="#FEFFDD" style="stroke:#181818;stroke-width:0.5;"/><path d="M399,549 L399,559 L409,559 L399,549 " fill="#FEFFDD" style="stroke:#181818;stroke-width:0.5;"/><text fill="#000000" font-family="sans-serif" font-size="13" lengthAdjust="spacing" textLength="88" x="306" y="567.4951">eliminarGrado()</text></g><!--link abrirGrados to GRADOS_ABIERTO--><g id="link_abrirGrados_GRADOS_ABIERTO"><path d="M405.27,514.04 C413.1,532.46 418,544 418,544 C418,544 418,580 418,580 C418,580 401.3902,591.9655 381.4202,606.3355 " fill="none" id="abrirGrados-to-GRADOS_ABIERTO-1" style="stroke:#008000;stroke-width:1.0;"/><polygon fill="#008000" points="376.55,609.84,386.1916,607.8301,380.6085,606.9196,381.5189,601.3365,376.55,609.84" style="stroke:#008000;stroke-width:1.0;"/><path d="M423,549 L423,575 L541,575 L541,559 L531,549 L423,549 " fill="#FEFFDD" style="stroke:#181818;stroke-width:0.5;"/><path d="M531,549 L531,559 L541,559 L531,549 " fill="#FEFFDD" style="stroke:#181818;stroke-width:0.5;"/><text fill="#000000" font-family="sans-serif" font-size="13" lengthAdjust="spacing" textLength="97" x="429" y="567.4951">importarGrados()</text></g><!--link abrirGrados to SISTEMA_DISPONIBLE--><g id="link_abrirGrados_SISTEMA_DISPONIBLE"><path d="M464.1,444.8 C513.16,498.93 554,544 554,544 C554,544 581.224,578.5092 602.254,605.1692 " fill="none" id="abrirGrados-to-SISTEMA_DISPONIBLE" style="stroke:#008000;stroke-width:1.0;"/><polygon fill="#008000" points="605.97,609.88,603.5366,600.3365,602.8734,605.9543,597.2555,605.2911,605.97,609.88" style="stroke:#008000;stroke-width:1.0;"/><path d="M586,549 L586,575 L717,575 L717,559 L707,549 L586,549 " fill="#FEFFDD" style="stroke:#181818;stroke-width:0.5;"/><path d="M707,549 L707,559 L717,559 L707,549 " fill="#FEFFDD" style="stroke:#181818;stroke-width:0.5;"/><text fill="#000000" font-family="sans-serif" font-size="13" lengthAdjust="spacing" textLength="110" x="592" y="567.4951">completarGestion()</text></g><!--SRC=[hLJHQi8m57tFLmJteaFP3uXGfvE2Jh6-YKZQt4amJKfI1p86-vRzWf_Wd-nBTXljrXOgEjO-bEIUUyx9lJUrMw4IPbXCfL2GxXEWYPRxR468JLaAb8L6c95XN5lAB6qKrirMWxxbk0Q-69zecngck1uBt2_7deGiniZoVaKxoxkD0L2hJg-IIudIcAjLvcrBkc7Fux5G8iDmRReFOOzQBKKa4EjSqOspHK1nwdBn8QJ2MXIi6Ahg1RWBCNDAYG4B2lEbO-6GYtrzVDB7uu6BZMwZQXmQQ6FOHaOaaJWUL8QD66Ud18UVWOa5QkNs3NrnJio9lGOJ6M3dCrArWzSwBf02wvH3wq3SVIv1H9neymFwBIiXvRhTKj8BBIoNu7BvJrZEhlE4StQBaPro_PKuiHfRg1KKplvEIF5656L6SsymNNjzVpXVJCk2fsgxd6QhOFeFL6uARcGAQboT1-L_sF9noVyDLz05Vh0OJhprm0zcqsU_FnvMpghZH4B62JR5HXH9lm40]--></g></svg>