<?xml version="1.0" encoding="us-ascii" standalone="no"?><svg xmlns="http://www.w3.org/2000/svg" xmlns:xlink="http://www.w3.org/1999/xlink" contentStyleType="text/css" height="255px" preserveAspectRatio="none" style="width:568px;height:255px;background:#FFFFFF;" version="1.1" viewBox="0 0 568 255" width="568px" zoomAndPan="magnify"><defs/><g><!--cluster Administraci?n de Alumnos--><g id="cluster_Administraci&#243;n de Alumnos"><path d="M8.5,6 L199.5,6 A3.75,3.75 0 0 1 202,8.5 L209,29.6094 L558.5,29.6094 A2.5,2.5 0 0 1 561,32.1094 L561,245.5 A2.5,2.5 0 0 1 558.5,248 L8.5,248 A2.5,2.5 0 0 1 6,245.5 L6,8.5 A2.5,2.5 0 0 1 8.5,6 " fill="none" style="stroke:#000000;stroke-width:1.5;"/><line style="stroke:#000000;stroke-width:1.5;" x1="6" x2="209" y1="29.6094" y2="29.6094"/><text fill="#000000" font-family="sans-serif" font-size="14" font-weight="bold" lengthAdjust="spacing" textLength="190" x="10" y="22.5332">Administraci&#243;n de Alumnos</text></g><!--entity admin--><g id="elem_admin"><ellipse cx="279.5" cy="115.5" fill="#F1F1F1" rx="8" ry="8" style="stroke:#181818;stroke-width:0.5;"/><path d="M279.5,123.5 L279.5,150.5 M266.5,131.5 L292.5,131.5 M279.5,150.5 L266.5,165.5 M279.5,150.5 L292.5,165.5 " fill="none" style="stroke:#181818;stroke-width:0.5;"/><text fill="#000000" font-family="sans-serif" font-size="14" lengthAdjust="spacing" textLength="87" x="236" y="181.5332">Administrador</text></g><g id="elem_abrirAlumnos"><ellipse cx="98.4259" cy="58.7852" fill="#F1F1F1" rx="71.9259" ry="16.7852" style="stroke:#181818;stroke-width:0.5;"/><text fill="#000000" font-family="sans-serif" font-size="14" lengthAdjust="spacing" textLength="93" x="48.9259" y="63.3018">abrirAlumnos()</text></g><g id="elem_crearAlumno"><ellipse cx="98.3567" cy="215.0713" fill="#F1F1F1" rx="70.8567" ry="16.5713" style="stroke:#181818;stroke-width:0.5;"/><text fill="#000000" font-family="sans-serif" font-size="14" lengthAdjust="spacing" textLength="90" x="50.3567" y="219.5879">crearAlumno()</text></g><g id="elem_editarAlumno"><ellipse cx="464.4259" cy="183.7852" fill="#F1F1F1" rx="71.9259" ry="16.7852" style="stroke:#181818;stroke-width:0.5;"/><text fill="#000000" font-family="sans-serif" font-size="14" lengthAdjust="spacing" textLength="93" x="414.9259" y="188.3018">editarAlumno()</text></g><g id="elem_eliminarAlumno"><ellipse cx="98.7363" cy="146.2473" fill="#F1F1F1" rx="76.7363" ry="17.7473" style="stroke:#181818;stroke-width:0.5;"/><text fill="#000000" font-family="sans-serif" font-size="14" lengthAdjust="spacing" textLength="106" x="43.2006" y="150.6555">eliminarAlumno()</text></g><g id="elem_importarAlumnos"><ellipse cx="464.6887" cy="113.0377" fill="#F1F1F1" rx="80.6887" ry="18.5377" style="stroke:#181818;stroke-width:0.5;"/><text fill="#000000" font-family="sans-serif" font-size="14" lengthAdjust="spacing" textLength="116" x="406.0015" y="116.9661">importarAlumnos()</text></g><!--link admin to importarAlumnos--><g id="link_admin_importarAlumnos"><path d="M323.41,138.26 C346.44,134.11 369.3449,129.9729 394.8449,125.3829 " fill="none" id="admin-to-importarAlumnos" style="stroke:#181818;stroke-width:1.0;"/><polygon fill="#181818" points="400.75,124.32,391.1837,121.9776,395.8291,125.2058,392.601,129.8511,400.75,124.32" style="stroke:#181818;stroke-width:1.0;"/></g><!--link admin to editarAlumno--><g id="link_admin_editarAlumno"><path d="M323.41,154.91 C349.18,160.26 376.3352,165.9006 403.8452,171.6106 " fill="none" id="admin-to-editarAlumno" style="stroke:#181818;stroke-width:1.0;"/><polygon fill="#181818" points="409.72,172.83,401.7207,167.0844,404.8243,171.8139,400.0949,174.9175,409.72,172.83" style="stroke:#181818;stroke-width:1.0;"/></g><!--reverse link abrirAlumnos to admin--><g id="link_abrirAlumnos_admin"><path d="M136.4863,76.9731 C165.5963,91.1231 203.62,109.61 235.81,125.25 " fill="none" id="abrirAlumnos-backto-admin" style="stroke:#181818;stroke-width:1.0;"/><polygon fill="#181818" points="131.09,74.35,137.4357,81.8821,135.5869,76.5359,140.9331,74.6871,131.09,74.35" style="stroke:#181818;stroke-width:1.0;"/></g><!--reverse link crearAlumno to admin--><g id="link_crearAlumno_admin"><path d="M141.7582,198.7112 C170.6982,187.5512 205.54,174.13 235.92,162.41 " fill="none" id="crearAlumno-backto-admin" style="stroke:#181818;stroke-width:1.0;"/><polygon fill="#181818" points="136.16,200.87,145.9965,201.3639,140.8251,199.071,143.1181,193.8997,136.16,200.87" style="stroke:#181818;stroke-width:1.0;"/></g><!--reverse link eliminarAlumno to admin--><g id="link_eliminarAlumno_admin"><path d="M181.15,146 C201.95,146 217.78,146 235.98,146 " fill="none" id="eliminarAlumno-backto-admin" style="stroke:#181818;stroke-width:1.0;"/><polygon fill="#181818" points="175.15,146,184.15,150,180.15,146,184.15,142,175.15,146" style="stroke:#181818;stroke-width:1.0;"/></g><!--link eliminarAlumno to abrirAlumnos--><g id="link_eliminarAlumno_abrirAlumnos"><path d="M98.5,128.39 C98.5,113.2 98.5,97.38 98.5,82.28 " fill="none" id="eliminarAlumno-to-abrirAlumnos" style="stroke:#181818;stroke-width:1.0;stroke-dasharray:7.0,7.0;"/><polygon fill="#181818" points="98.5,76.28,94.5,85.28,98.5,81.28,102.5,85.28,98.5,76.28" style="stroke:#181818;stroke-width:1.0;"/><text fill="#000000" font-family="sans-serif" font-size="13" lengthAdjust="spacing" textLength="55" x="59" y="107.7451">&#171;include&#187;</text></g><!--SRC=[PP1B3i8m34JtEOML5IpA0L1LgKSnYIaMROAST8Ku5KVWOlGdceJiClF66hkdQuJeGRYxHR0iP29xfzG3pHqx0jtQWHs7A6ZuytPW2Tf-79mF6fvAmVJGH2yfQRrem00uAoip1Z8O2F0YBDk06T6fS3Zg33P2k7aBc_nBb2p7Z4s5FxZdgLYEPr8PuE7XvJTkBLveS-IbrB8oL5LJPX8dhJObqelKLRLTBTrzLulckr4wfoO_zHdgcftfHqjDexu0]--></g></svg>