<?xml version="1.0" encoding="UTF-8" standalone="no"?><svg xmlns="http://www.w3.org/2000/svg" xmlns:xlink="http://www.w3.org/1999/xlink" contentScriptType="application/ecmascript" contentStyleType="text/css" height="545px" preserveAspectRatio="none" style="width:1171px;height:545px;" version="1.1" viewBox="0 0 1171 545" width="1171px" zoomAndPan="magnify"><defs/><g><!--MD5=[753c5357aa14feb585d8739d524e5e16]
cluster importarAlumnos--><polygon fill="#FFFFFF" points="138,24,258,24,265,46.3441,903,46.3441,903,533,138,533,138,24" style="stroke: #000000; stroke-width: 1.5;"/><line style="stroke: #000000; stroke-width: 1.5;" x1="138" x2="265" y1="46.3441" y2="46.3441"/><text fill="#000000" font-family="sans-serif" font-size="12" font-weight="bold" lengthAdjust="spacingAndGlyphs" textLength="114" x="142" y="38.8281">importarAlumnos()</text><!--MD5=[23d20e0fddd716ae20e2ae7cb6fe7932]
entity ImportarAlumnosView--><rect fill="#629EF9" height="36.3441" style="stroke: #000000; stroke-width: 1.5;" width="145" x="494.5" y="59"/><text fill="#000000" font-family="sans-serif" font-size="12" lengthAdjust="spacingAndGlyphs" textLength="125" x="504.5" y="81.8281">ImportarAlumnosView</text><!--MD5=[d03e9c397632fa7cff64efa0522596d9]
entity AlumnoController--><rect fill="#B5BD68" height="36.3441" style="stroke: #000000; stroke-width: 1.5;" width="119" x="369.5" y="173"/><text fill="#000000" font-family="sans-serif" font-size="12" lengthAdjust="spacingAndGlyphs" textLength="99" x="379.5" y="195.8281">AlumnoController</text><!--MD5=[9847e84b60b87ec79d414bf753b378db]
entity AlumnoRepository--><rect fill="#F2AC4E" height="36.3441" style="stroke: #000000; stroke-width: 1.5;" width="122" x="261" y="287"/><text fill="#000000" font-family="sans-serif" font-size="12" lengthAdjust="spacingAndGlyphs" textLength="102" x="271" y="309.8281">AlumnoRepository</text><!--MD5=[9db62e2c3b018035cc77fb2476be44ee]
entity GradoRepository--><rect fill="#F2AC4E" height="36.3441" style="stroke: #000000; stroke-width: 1.5;" width="114" x="517" y="287"/><text fill="#000000" font-family="sans-serif" font-size="12" lengthAdjust="spacingAndGlyphs" textLength="94" x="527" y="309.8281">GradoRepository</text><!--MD5=[ba1218dda0189d748f61b838f8c29c26]
entity Alumno--><rect fill="#F2AC4E" height="36.3441" style="stroke: #000000; stroke-width: 1.5;" width="63" x="290.5" y="384"/><text fill="#000000" font-family="sans-serif" font-size="12" lengthAdjust="spacingAndGlyphs" textLength="43" x="300.5" y="406.8281">Alumno</text><!--MD5=[cbab0994e6ada9fe76b72748ce5407a5]
entity Grado--><rect fill="#F2AC4E" height="36.3441" style="stroke: #000000; stroke-width: 1.5;" width="55" x="294.5" y="481"/><text fill="#000000" font-family="sans-serif" font-size="12" lengthAdjust="spacingAndGlyphs" textLength="35" x="304.5" y="503.8281">Grado</text><!--MD5=[a26abdbe1ad77d3685eb0e3e42d91ba8]
entity AlumnosAbierto--><rect fill="#CDEBA5" height="36.3441" style="stroke: #000000; stroke-width: 1.5;" width="116" x="6" y="59"/><text fill="#000000" font-family="sans-serif" font-size="12" lengthAdjust="spacingAndGlyphs" textLength="96" x="16" y="81.8281">:Alumnos Abierto</text><!--MD5=[1be5fd168671059bafa40f2cdedbe8c3]
entity AlumnosAbiertoSalida--><rect fill="#CDEBA5" height="36.3441" style="stroke: #000000; stroke-width: 1.5;" width="116" x="975" y="173"/><text fill="#000000" font-family="sans-serif" font-size="12" lengthAdjust="spacingAndGlyphs" textLength="96" x="985" y="195.8281">:Alumnos Abierto</text><!--MD5=[144c1b305e48756d9f73ddede79b6209]
link AlumnosAbierto to ImportarAlumnosView--><path d="M122.19,77 C212.85,77 387.91,77 489.28,77 " fill="none" id="AlumnosAbierto-&gt;ImportarAlumnosView" style="stroke: #A80036; stroke-width: 1.0;"/><polygon fill="#A80036" points="494.35,77,485.35,73,489.35,77,485.35,81,494.35,77" style="stroke: #A80036; stroke-width: 1.0;"/><text fill="#000000" font-family="sans-serif" font-size="12" lengthAdjust="spacingAndGlyphs" textLength="106" x="255.25" y="69.8281">importarAlumnos()</text><!--MD5=[aecb8a7de3c56ee924df5d27941d528a]
link ImportarAlumnosView to AlumnoController--><path d="M494.44,86.95 C383.9,100.59 186,125 186,125 C186,125 186,143 186,143 C186,143 292.14,163.53 364.12,177.45 " fill="none" id="ImportarAlumnosView-&gt;AlumnoController" style="stroke: #A80036; stroke-width: 1.0;"/><polygon fill="#A80036" points="369.24,178.44,361.1707,172.7932,364.3322,177.4841,359.6413,180.6456,369.24,178.44" style="stroke: #A80036; stroke-width: 1.0;"/><text fill="#000000" font-family="sans-serif" font-size="12" lengthAdjust="spacingAndGlyphs" textLength="198" x="187" y="138.8281">obtenerFormatoRequerido() : String</text><!--MD5=[aecb8a7de3c56ee924df5d27941d528a]
link ImportarAlumnosView to AlumnoController--><path d="M515.7,95.1 C475.38,108.54 426,125 426,125 C426,125 426,143 426,143 C426,143 426.8,155.52 427.57,167.64 " fill="none" id="ImportarAlumnosView-&gt;AlumnoController-1" style="stroke: #A80036; stroke-width: 1.0;"/><polygon fill="#A80036" points="427.9,172.77,431.3012,163.5271,427.5721,167.7808,423.3185,164.0517,427.9,172.77" style="stroke: #A80036; stroke-width: 1.0;"/><text fill="#000000" font-family="sans-serif" font-size="12" lengthAdjust="spacingAndGlyphs" textLength="235" x="427" y="138.8281">obtenerGradosDisponibles() : List&lt;Grado&gt;</text><!--MD5=[aecb8a7de3c56ee924df5d27941d528a]
link ImportarAlumnosView to AlumnoController--><path d="M603.39,95.1 C631.98,108.54 667,125 667,125 C667,125 667,143 667,143 C667,143 564.24,163.29 493.77,177.21 " fill="none" id="ImportarAlumnosView-&gt;AlumnoController-2" style="stroke: #A80036; stroke-width: 1.0;"/><polygon fill="#A80036" points="488.75,178.2,498.3487,180.4056,493.6578,177.2441,496.8193,172.5532,488.75,178.2" style="stroke: #A80036; stroke-width: 1.0;"/><text fill="#000000" font-family="sans-serif" font-size="12" lengthAdjust="spacingAndGlyphs" textLength="179" x="668" y="138.8281">importar(archivo) : ImportResult</text><!--MD5=[af4fca532d8db1a40d6ff0275b29fddc]
link AlumnoController to GradoRepository--><path d="M467.57,209.1 C497.88,222.54 535,239 535,239 C535,239 549.62,263.36 560.95,282.25 " fill="none" id="AlumnoController-&gt;GradoRepository" style="stroke: #A80036; stroke-width: 1.0;"/><polygon fill="#A80036" points="563.75,286.92,562.5495,277.1446,561.1775,282.6325,555.6896,281.2605,563.75,286.92" style="stroke: #A80036; stroke-width: 1.0;"/><text fill="#000000" font-family="sans-serif" font-size="12" lengthAdjust="spacingAndGlyphs" textLength="163" x="546" y="252.8281">obtenerTodos() : List&lt;Grado&gt;</text><!--MD5=[e691b91e365af7f6e0629286b6a28440]
link AlumnoController to AlumnoRepository--><path d="M388.98,209.1 C357.52,222.54 319,239 319,239 C319,239 319,257 319,257 C319,257 319.8,269.52 320.57,281.64 " fill="none" id="AlumnoController-&gt;AlumnoRepository" style="stroke: #A80036; stroke-width: 1.0;"/><polygon fill="#A80036" points="320.9,286.77,324.3012,277.5271,320.5721,281.7808,316.3185,278.0517,320.9,286.77" style="stroke: #A80036; stroke-width: 1.0;"/><text fill="#000000" font-family="sans-serif" font-size="12" lengthAdjust="spacingAndGlyphs" textLength="210" x="320" y="252.8281">guardarLote(alumnos) : List&lt;Alumno&gt;</text><!--MD5=[54c9ac8f4c45471507e3fdbbc2eabefa]
link AlumnoRepository to Alumno--><path d="M322,323.42 C322,340.57 322,366.58 322,383.69 " fill="none" id="AlumnoRepository-Alumno" style="stroke: #A80036; stroke-width: 1.0;"/><!--MD5=[c725cf40068c3a928e8ddae398bb6673]
link Alumno to Grado--><path d="M322,420.42 C322,437.57 322,463.58 322,480.69 " fill="none" id="Alumno-Grado" style="stroke: #A80036; stroke-width: 1.0;"/><!--MD5=[6b3d1f426aab6fddaa642f597f3220ec]
link ImportarAlumnosView to AlumnosAbiertoSalida--><path d="M639.55,89.8 C725.16,103.72 856,125 856,125 C856,125 929.25,151.9 981.51,171.09 " fill="none" id="ImportarAlumnosView-&gt;AlumnosAbiertoSalida" style="stroke: #A80036; stroke-width: 1.0; stroke-dasharray: 7.0,7.0;"/><polygon fill="#A80036" points="986.5,172.92,979.4406,166.0523,981.809,171.1895,976.6718,173.5579,986.5,172.92" style="stroke: #A80036; stroke-width: 1.0;"/><text fill="#000000" font-family="sans-serif" font-size="12" lengthAdjust="spacingAndGlyphs" textLength="121" x="904" y="138.8281">finalizarImportacion()</text><!--MD5=[6b3d1f426aab6fddaa642f597f3220ec]
link ImportarAlumnosView to AlumnosAbiertoSalida--><path d="M639.71,85.32 C770.97,98.53 1034,125 1034,125 C1034,125 1034,143 1034,143 C1034,143 1033.73,155.52 1033.48,167.64 " fill="none" id="ImportarAlumnosView-&gt;AlumnosAbiertoSalida-1" style="stroke: #A80036; stroke-width: 1.0; stroke-dasharray: 7.0,7.0;"/><polygon fill="#A80036" points="1033.37,172.77,1037.5492,163.8518,1033.47,167.771,1029.5508,163.6918,1033.37,172.77" style="stroke: #A80036; stroke-width: 1.0;"/><text fill="#000000" font-family="sans-serif" font-size="12" lengthAdjust="spacingAndGlyphs" textLength="124" x="1035" y="138.8281">cancelarImportacion()</text><!--MD5=[8a07d66d677d169113add983076b59d4]
@startuml importarAlumnos-analisis
skinparamlocked backgroundColor white
skinparam backgroundColor white
skinparam shadowing false
skinparam DefaultFontColor black
skinparam DefaultFontSize 12
skinparam linetype polyline

rectangle #CDEBA5 ":Alumnos Abierto" as AlumnosAbierto

package importarAlumnos as "importarAlumnos()" {
    rectangle #629EF9 ImportarAlumnosView
    rectangle #b5bd68 AlumnoController
    rectangle #F2AC4E AlumnoRepository
    rectangle #F2AC4E GradoRepository
    rectangle #F2AC4E Alumno
    rectangle #F2AC4E Grado
}

rectangle #CDEBA5 ":Alumnos Abierto" as AlumnosAbiertoSalida

AlumnosAbierto -r-> ImportarAlumnosView: importarAlumnos()

ImportarAlumnosView -d-> AlumnoController: obtenerFormatoRequerido() : String
ImportarAlumnosView -d-> AlumnoController: obtenerGradosDisponibles() : List<Grado>
AlumnoController -d-> GradoRepository: obtenerTodos() : List<Grado>

ImportarAlumnosView -d-> AlumnoController: importar(archivo) : ImportResult

AlumnoController -d-> AlumnoRepository: guardarLote(alumnos) : List<Alumno>

AlumnoRepository - - Alumno
Alumno - - Grado

ImportarAlumnosView ..> AlumnosAbiertoSalida: finalizarImportacion()
ImportarAlumnosView ..> AlumnosAbiertoSalida: cancelarImportacion()

@enduml

PlantUML version 1.2020.02(Sun Mar 01 11:22:07 CET 2020)
(GPL source distribution)
Java Runtime: OpenJDK Runtime Environment
JVM: OpenJDK 64-Bit Server VM
Java Version: 21.0.10+7-Ubuntu-125.10
Operating System: Linux
Default Encoding: UTF-8
Language: es
Country: ES
--></g></svg>