<?xml version="1.0" encoding="us-ascii" standalone="no"?><svg xmlns="http://www.w3.org/2000/svg" xmlns:xlink="http://www.w3.org/1999/xlink" contentStyleType="text/css" height="328px" preserveAspectRatio="none" style="width:1152px;height:328px;background:#FFFFFF;" version="1.1" viewBox="0 0 1152 328" width="1152px" zoomAndPan="magnify"><defs/><g><!--cluster crearAlumno--><g id="cluster_crearAlumno"><path d="M8.5,6.016 L94.5,6.016 A3.75,3.75 0 0 1 97,8.516 L104,28.3601 L670.5,28.3601 A2.5,2.5 0 0 1 673,30.8601 L673,318.516 A2.5,2.5 0 0 1 670.5,321.016 L8.5,321.016 A2.5,2.5 0 0 1 6,318.516 L6,8.516 A2.5,2.5 0 0 1 8.5,6.016 " fill="none" style="stroke:#000000;stroke-width:1.5;"/><line style="stroke:#000000;stroke-width:1.5;" x1="6" x2="104" y1="28.3601" y2="28.3601"/><text fill="#000000" font-family="sans-serif" font-size="12" font-weight="bold" lengthAdjust="spacing" textLength="85" x="10" y="20.8441">crearAlumno()</text></g><!--entity CrearAlumnoView--><g id="elem_CrearAlumnoView"><rect fill="#629EF9" height="36.3441" rx="2.5" ry="2.5" style="stroke:#181818;stroke-width:0.5;" width="121" x="535.5" y="41.016"/><text fill="#000000" font-family="sans-serif" font-size="12" lengthAdjust="spacing" textLength="101" x="545.5" y="63.8441">CrearAlumnoView</text></g><!--entity AlumnoController--><g id="elem_AlumnoController"><rect fill="#B5BD68" height="36.3441" rx="2.5" ry="2.5" style="stroke:#181818;stroke-width:0.5;" width="119" x="262.5" y="155.016"/><text fill="#000000" font-family="sans-serif" font-size="12" lengthAdjust="spacing" textLength="99" x="272.5" y="177.8441">AlumnoController</text></g><!--entity AlumnoRepository--><g id="elem_AlumnoRepository"><rect fill="#F2AC4E" height="36.3441" rx="2.5" ry="2.5" style="stroke:#181818;stroke-width:0.5;" width="122" x="128" y="269.016"/><text fill="#000000" font-family="sans-serif" font-size="12" lengthAdjust="spacing" textLength="102" x="138" y="291.8441">AlumnoRepository</text></g><!--entity GradoRepository--><g id="elem_GradoRepository"><rect fill="#F2AC4E" height="36.3441" rx="2.5" ry="2.5" style="stroke:#181818;stroke-width:0.5;" width="114" x="391" y="269.016"/><text fill="#000000" font-family="sans-serif" font-size="12" lengthAdjust="spacing" textLength="94" x="401" y="291.8441">GradoRepository</text></g><!--entity Alumno--><g id="elem_Alumno"><rect fill="#F2AC4E" height="36.3441" rx="2.5" ry="2.5" style="stroke:#181818;stroke-width:0.5;" width="63" x="532.5" y="155.016"/><text fill="#000000" font-family="sans-serif" font-size="12" lengthAdjust="spacing" textLength="43" x="542.5" y="177.8441">Alumno</text></g><!--entity Grado--><g id="elem_Grado"><rect fill="#F2AC4E" height="36.3441" rx="2.5" ry="2.5" style="stroke:#181818;stroke-width:0.5;" width="55" x="591.5" y="269.016"/><text fill="#000000" font-family="sans-serif" font-size="12" lengthAdjust="spacing" textLength="35" x="601.5" y="291.8441">Grado</text></g><!--entity AlumnosAbierto--><g id="elem_AlumnosAbierto"><rect fill="#CDEBA5" height="36.3441" rx="2.5" ry="2.5" style="stroke:#181818;stroke-width:0.5;" width="116" x="726" y="155.016"/><text fill="#000000" font-family="sans-serif" font-size="12" lengthAdjust="spacing" textLength="96" x="736" y="177.8441">:Alumnos Abierto</text></g><!--entity AlumnoAbierta--><g id="elem_AlumnoAbierta"><rect fill="#CDEBA5" height="36.3441" rx="2.5" ry="2.5" style="stroke:#181818;stroke-width:0.5;" width="110" x="954" y="155.016"/><text fill="#000000" font-family="sans-serif" font-size="12" lengthAdjust="spacing" textLength="90" x="964" y="177.8441">:Alumno Abierta</text></g><!--link AlumnosAbierto to CrearAlumnoView--><g id="link_AlumnosAbierto_CrearAlumnoView"><path d="M751.25,154.916 C725.52,141.476 694,125.016 694,125.016 C694,125.016 655.7797,99.6731 626.7497,80.4131 " fill="none" id="AlumnosAbierto-to-CrearAlumnoView" style="stroke:#181818;stroke-width:1.0;"/><polygon fill="#181818" points="621.75,77.096,627.0382,85.4048,625.9164,79.8602,631.4609,78.7385,621.75,77.096" style="stroke:#181818;stroke-width:1.0;"/><text fill="#000000" font-family="sans-serif" font-size="12" lengthAdjust="spacing" textLength="81" x="695" y="120.8441">crearAlumno()</text></g><!--link CrearAlumnoView to AlumnosAbierto--><g id="link_CrearAlumnoView_AlumnosAbierto"><path d="M656.58,75.406 C710.53,89.116 781,107.016 781,107.016 C781,107.016 782.043,129.6824 782.933,148.9424 " fill="none" id="CrearAlumnoView-to-AlumnosAbierto" style="stroke:#181818;stroke-width:1.0;stroke-dasharray:7.0,7.0;"/><polygon fill="#181818" points="783.21,154.936,786.7903,145.761,782.9792,149.9414,778.7988,146.1303,783.21,154.936" style="stroke:#181818;stroke-width:1.0;"/><text fill="#000000" font-family="sans-serif" font-size="12" lengthAdjust="spacing" textLength="147" x="783" y="120.8441">&#171;cancelar&#187; abrirAlumnos()</text></g><!--link CrearAlumnoView to AlumnoController--><g id="link_CrearAlumnoView_AlumnoController"><path d="M535.4,65.266 C393.97,77.536 54,107.016 54,107.016 C54,107.016 54,125.016 54,125.016 C54,125.016 177.2902,146.6398 256.2802,160.4898 " fill="none" id="CrearAlumnoView-to-AlumnoController" style="stroke:#181818;stroke-width:1.0;"/><polygon fill="#181818" points="262.19,161.526,254.0161,156.0318,257.2651,160.6625,252.6344,163.9116,262.19,161.526" style="stroke:#181818;stroke-width:1.0;"/><text fill="#000000" font-family="sans-serif" font-size="12" lengthAdjust="spacing" textLength="235" x="55" y="120.8441">obtenerGradosDisponibles() : List&lt;Grado&gt;</text></g><!--link CrearAlumnoView to AlumnoController--><g id="link_CrearAlumnoView_AlumnoController"><path d="M535.28,71.036 C458.72,84.926 337,107.016 337,107.016 C337,107.016 331.7407,129.83 327.2907,149.09 " fill="none" id="CrearAlumnoView-to-AlumnoController-1" style="stroke:#181818;stroke-width:1.0;"/><polygon fill="#181818" points="325.94,154.936,331.8634,147.0675,327.0656,150.0644,324.0687,145.2666,325.94,154.936" style="stroke:#181818;stroke-width:1.0;"/><text fill="#000000" font-family="sans-serif" font-size="12" lengthAdjust="spacing" textLength="321" x="338" y="120.8441">crear(matricula, nombre, email, curso, id_grado) : Alumno</text></g><!--link AlumnoController to GradoRepository--><g id="link_AlumnoController_GradoRepository"><path d="M353.9,191.246 C378.73,204.666 409,221.016 409,221.016 C409,221.016 423.1142,244.5304 434.6642,263.7904 " fill="none" id="AlumnoController-to-GradoRepository" style="stroke:#181818;stroke-width:1.0;"/><polygon fill="#181818" points="437.75,268.936,436.5517,259.1603,435.1785,264.648,429.6909,263.2747,437.75,268.936" style="stroke:#181818;stroke-width:1.0;"/><text fill="#000000" font-family="sans-serif" font-size="12" lengthAdjust="spacing" textLength="163" x="421" y="234.8441">obtenerTodos() : List&lt;Grado&gt;</text></g><!--link AlumnoController to AlumnoRepository--><g id="link_AlumnoController_AlumnoRepository"><path d="M262.49,184.856 C186.29,198.736 64,221.016 64,221.016 C64,221.016 64,239.016 64,239.016 C64,239.016 102.164,253.3641 137.904,266.8041 " fill="none" id="AlumnoController-to-AlumnoRepository" style="stroke:#181818;stroke-width:1.0;"/><polygon fill="#181818" points="143.52,268.916,136.5039,262.0041,138.84,267.1561,133.688,269.4922,143.52,268.916" style="stroke:#181818;stroke-width:1.0;"/><text fill="#000000" font-family="sans-serif" font-size="12" lengthAdjust="spacing" textLength="202" x="65" y="234.8441">existeMatricula(matricula) : Boolean</text></g><!--link AlumnoController to AlumnoRepository--><g id="link_AlumnoController_AlumnoRepository"><path d="M308.86,191.096 C294.05,210.356 272,239.016 272,239.016 C272,239.016 248.3405,252.4087 224.6505,265.8287 " fill="none" id="AlumnoController-to-AlumnoRepository-1" style="stroke:#181818;stroke-width:1.0;"/><polygon fill="#181818" points="219.43,268.786,229.2324,267.8304,223.7805,266.3216,225.2892,260.8696,219.43,268.786" style="stroke:#181818;stroke-width:1.0;"/><text fill="#000000" font-family="sans-serif" font-size="12" lengthAdjust="spacing" textLength="95" x="287" y="234.8441">guardar(alumno)</text></g><!--link AlumnoController to Alumno--><g id="link_AlumnoController_Alumno"><path d="M381.51,173.016 C429.23,173.016 488.34,173.016 526.5,173.016 " fill="none" id="AlumnoController-to-Alumno" style="stroke:#181818;stroke-width:1.0;"/><polygon fill="#181818" points="532.5,173.016,523.5,169.016,527.5,173.016,523.5,177.016,532.5,173.016" style="stroke:#181818;stroke-width:1.0;"/><text fill="#000000" font-family="sans-serif" font-size="12" lengthAdjust="spacing" textLength="48" x="433" y="165.8441">&#171;create&#187;</text></g><!--link Alumno to Grado--><g id="link_Alumno_Grado"><path d="M582.33,191.246 C596.6,204.666 614,221.016 614,221.016 C614,221.016 616.2,249.676 617.69,268.936 " fill="none" id="Alumno-Grado" style="stroke:#181818;stroke-width:1.0;"/></g><!--link CrearAlumnoView to AlumnoAbierta--><g id="link_CrearAlumnoView_AlumnoAbierta"><path d="M656.53,68.306 C755,81.806 939,107.016 939,107.016 C939,107.016 965.4734,131.5932 986.2134,150.8532 " fill="none" id="CrearAlumnoView-to-AlumnoAbierta" style="stroke:#181818;stroke-width:1.0;stroke-dasharray:7.0,7.0;"/><polygon fill="#181818" points="990.61,154.936,986.737,145.8806,986.9462,151.5336,981.2932,151.7428,990.61,154.936" style="stroke:#181818;stroke-width:1.0;"/><text fill="#000000" font-family="sans-serif" font-size="12" lengthAdjust="spacing" textLength="186" x="958" y="120.8441">&#171;finalizar&#187; editarAlumno(alumno)</text></g><!--SRC=[ZLDVRvim47_tfpXbBuaKAYrQgnL5I2b9zhA-R5DVgmCkrAgnqTaeIwjzzndYf8GsRNd2lj-_kmFxA7MDZ1Lac3-MR1fTf4OPXks3T2JiiMuVi31RgKlOeBBzof8ss2YtDjhjgPdoMcy3ViidWg-pNb59JMvN4zH6xTg344ovGrqgWY_fSdMpk8HHl51DfOs5HIQ9dHa1-lVzNRXwXnPOs6E56o5gdnLBWfm9ES0zQjGxZoSZU1RWdvx5rUnwjRw6z0Ls9saxH6MNMN7rFNYcVW1ib28UmjQpHVfj5M2_g3PMEiExCx0Vx5Vn8Melzfw4-2V4wGmXuYWPzXJ3oIo46DGXAZnfs68C9dEaYJihkvIsDbfcYknu0Z7ybDRDkr8YXjIzuA3BezuVu-LUQNmsLDVAk4B7CcyKJa6RAcEQ0bKerHJoXgsPWYpkorQujGc3F1DpkBCOwA_FHRS7YnUpLkp664Metn3ZerWCytcRqr6IVDgrR90BtnfsbSaXBaHHMFQh2LrS9AS_G-kxaHgLV49E4g12kkFU3xhdLGuVKHSVTKwgKy6CPI3ujOd_]--></g></svg>