<?xml version="1.0" encoding="us-ascii" standalone="no"?><svg xmlns="http://www.w3.org/2000/svg" xmlns:xlink="http://www.w3.org/1999/xlink" contentStyleType="text/css" height="442px" preserveAspectRatio="none" style="width:954px;height:442px;background:#FFFFFF;" version="1.1" viewBox="0 0 954 442" width="954px" zoomAndPan="magnify"><defs/><g><!--cluster importarGrados--><g id="cluster_importarGrados"><path d="M151,6.602 L273,6.602 A3.75,3.75 0 0 1 275.5,9.102 L282.5,31.6699 L665,31.6699 A2.5,2.5 0 0 1 667.5,34.1699 L667.5,433.102 A2.5,2.5 0 0 1 665,435.602 L151,435.602 A2.5,2.5 0 0 1 148.5,433.102 L148.5,9.102 A2.5,2.5 0 0 1 151,6.602 " fill="none" style="stroke:#000000;stroke-width:1.5;"/><line style="stroke:#000000;stroke-width:1.5;" x1="148.5" x2="282.5" y1="31.6699" y2="31.6699"/><text fill="#000000" font-family="sans-serif" font-size="14" font-weight="bold" lengthAdjust="spacing" textLength="121" x="152.5" y="23.5679">importarGrados()</text></g><!--entity ImportarGradosView--><g id="elem_ImportarGradosView"><rect fill="#629EF9" height="39.0679" rx="2.5" ry="2.5" style="stroke:#181818;stroke-width:0.5;" width="159" x="377" y="44.602"/><text fill="#000000" font-family="sans-serif" font-size="14" lengthAdjust="spacing" textLength="139" x="387" y="69.5679">ImportarGradosView</text></g><!--entity GradoController--><g id="elem_GradoController"><rect fill="#B5BD68" height="39.0679" rx="2.5" ry="2.5" style="stroke:#181818;stroke-width:0.5;" width="128" x="272.5" y="162.602"/><text fill="#000000" font-family="sans-serif" font-size="14" lengthAdjust="spacing" textLength="108" x="282.5" y="187.5679">GradoController</text></g><!--entity GradoRepository--><g id="elem_GradoRepository"><rect fill="#F2AC4E" height="39.0679" rx="2.5" ry="2.5" style="stroke:#181818;stroke-width:0.5;" width="132" x="270.5" y="280.602"/><text fill="#000000" font-family="sans-serif" font-size="14" lengthAdjust="spacing" textLength="112" x="280.5" y="305.5679">GradoRepository</text></g><!--entity Grado--><g id="elem_Grado"><rect fill="#F2AC4E" height="39.0679" rx="2.5" ry="2.5" style="stroke:#181818;stroke-width:0.5;" width="61" x="306" y="380.602"/><text fill="#000000" font-family="sans-serif" font-size="14" lengthAdjust="spacing" textLength="41" x="316" y="405.5679">Grado</text></g><!--entity GradosAbierto--><g id="elem_GradosAbierto"><rect fill="#CDEBA5" height="39.0679" rx="2.5" ry="2.5" style="stroke:#181818;stroke-width:0.5;" width="125" x="7" y="44.602"/><text fill="#000000" font-family="sans-serif" font-size="14" lengthAdjust="spacing" textLength="105" x="17" y="69.5679">:Grados Abierto</text></g><!--entity GradosAbiertoSalida--><g id="elem_GradosAbiertoSalida"><rect fill="#CDEBA5" height="39.0679" rx="2.5" ry="2.5" style="stroke:#181818;stroke-width:0.5;" width="125" x="741" y="162.602"/><text fill="#000000" font-family="sans-serif" font-size="14" lengthAdjust="spacing" textLength="105" x="751" y="187.5679">:Grados Abierto</text></g><!--link GradosAbierto to ImportarGradosView--><g id="link_GradosAbierto_ImportarGradosView"><path d="M132.11,64.102 C198.75,64.102 298.37,64.102 370.88,64.102 " fill="none" id="GradosAbierto-to-ImportarGradosView" style="stroke:#181818;stroke-width:1.0;"/><polygon fill="#181818" points="376.88,64.102,367.88,60.102,371.88,64.102,367.88,68.102,376.88,64.102" style="stroke:#181818;stroke-width:1.0;"/><text fill="#000000" font-family="sans-serif" font-size="13" lengthAdjust="spacing" textLength="104" x="202.5" y="56.999">importarGrados()</text></g><!--link ImportarGradosView to GradoController--><g id="link_ImportarGradosView_GradoController"><path d="M376.72,79.982 C300.3,94.242 196.5,113.602 196.5,113.602 C196.5,113.602 196.5,132.602 196.5,132.602 C196.5,132.602 237.6207,146.8475 277.1007,160.5275 " fill="none" id="ImportarGradosView-to-GradoController" style="stroke:#181818;stroke-width:1.0;"/><polygon fill="#181818" points="282.77,162.492,275.5757,155.7658,278.0456,160.8549,272.9564,163.3249,282.77,162.492" style="stroke:#181818;stroke-width:1.0;"/><text fill="#000000" font-family="sans-serif" font-size="13" lengthAdjust="spacing" textLength="215" x="197.5" y="128.499">obtenerFormatoRequerido() : String</text></g><!--link ImportarGradosView to GradoController--><g id="link_ImportarGradosView_GradoController"><path d="M445.64,83.902 C434.1,103.882 417.5,132.602 417.5,132.602 C417.5,132.602 395.5773,145.729 372.7373,159.409 " fill="none" id="ImportarGradosView-to-GradoController-1" style="stroke:#181818;stroke-width:1.0;"/><polygon fill="#181818" points="367.59,162.492,377.3663,161.299,371.8795,159.9228,373.2557,154.4359,367.59,162.492" style="stroke:#181818;stroke-width:1.0;"/><text fill="#000000" font-family="sans-serif" font-size="13" lengthAdjust="spacing" textLength="193" x="428.5" y="128.499">importar(archivo) : ImportResult</text></g><!--link GradoController to GradoRepository--><g id="link_GradoController_GradoRepository"><path d="M336.5,201.742 C336.5,223.382 336.5,252.882 336.5,274.512 " fill="none" id="GradoController-to-GradoRepository" style="stroke:#181818;stroke-width:1.0;"/><polygon fill="#181818" points="336.5,280.512,340.5,271.512,336.5,275.512,332.5,271.512,336.5,280.512" style="stroke:#181818;stroke-width:1.0;"/><text fill="#000000" font-family="sans-serif" font-size="13" lengthAdjust="spacing" textLength="206" x="337.5" y="246.499">guardarLote(grados) : List&lt;Grado&gt;</text></g><!--link GradoRepository to Grado--><g id="link_GradoRepository_Grado"><path d="M336.5,320.002 C336.5,337.462 336.5,363.262 336.5,380.592 " fill="none" id="GradoRepository-Grado" style="stroke:#181818;stroke-width:1.0;"/></g><!--link ImportarGradosView to GradosAbiertoSalida--><g id="link_ImportarGradosView_GradosAbiertoSalida"><path d="M523.28,83.712 C572.34,97.392 630.5,113.602 630.5,113.602 C630.5,113.602 698.9704,140.3211 750.1804,160.3011 " fill="none" id="ImportarGradosView-to-GradosAbiertoSalida" style="stroke:#181818;stroke-width:1.0;stroke-dasharray:7.0,7.0;"/><polygon fill="#181818" points="755.77,162.482,748.8395,155.4843,751.112,160.6646,745.9317,162.9371,755.77,162.482" style="stroke:#181818;stroke-width:1.0;"/><text fill="#000000" font-family="sans-serif" font-size="13" lengthAdjust="spacing" textLength="128" x="677.5" y="128.499">finalizarImportacion()</text></g><!--link ImportarGradosView to GradosAbiertoSalida--><g id="link_ImportarGradosView_GradosAbiertoSalida"><path d="M536.4,75.922 C641.91,90.222 814.5,113.602 814.5,113.602 C814.5,113.602 814.5,132.602 814.5,132.602 C814.5,132.602 812.146,142.9603 809.046,156.6403 " fill="none" id="ImportarGradosView-to-GradosAbiertoSalida-1" style="stroke:#181818;stroke-width:1.0;stroke-dasharray:7.0,7.0;"/><polygon fill="#181818" points="807.72,162.492,813.6101,154.5985,808.825,157.6156,805.808,152.8305,807.72,162.492" style="stroke:#181818;stroke-width:1.0;"/><text fill="#000000" font-family="sans-serif" font-size="13" lengthAdjust="spacing" textLength="131" x="815.5" y="128.499">cancelarImportacion()</text></g><!--SRC=[dP11Jy9048Nl-oiczL8EvK24I6D8i88nuGI9zsaxrWtRdJfTD6Zyxowq1Ad41FUqEtdlctslNcjReM09HbjosugWOhFTFPGIoXpQmX1S9VUpk-aGWlX1CESQfgacSHm0rj2CsebI5MPhB0XqMR4ubDRXXS7fAEm5yAd0dn-BHeFnR3w6nnFbawRthZ0TfldefbcUi7N2nf1qLVF1DBcUDQebLLnhnxBzIwM-_XTyXKRdgDJ942A99cV2nD2jGgdVAeXox-uaZ85JHvPapbAYywbUDoGwvx07CQoSQ5jS03ly8qJ9NlGRxo2DUKdrnhWsqD42qG5px3E6OeEIeopOKLZiT-v02rsxsxrsqdAE7izf2p_tsNv_SgxU69wrzRSFbDQKQRQ-lKiG6TgCJ9Vm3G00]--></g></svg>