<?xml version="1.0" encoding="us-ascii" standalone="no"?><svg xmlns="http://www.w3.org/2000/svg" xmlns:xlink="http://www.w3.org/1999/xlink" contentStyleType="text/css" height="664px" preserveAspectRatio="none" style="width:747px;height:664px;background:#FFFFFF;" version="1.1" viewBox="0 0 747 664" width="747px" zoomAndPan="magnify"><defs/><g><path d="M19.5,7 L721.5,7 A12.5,12.5 0 0 1 734,19.5 L734,34.6094 L7,34.6094 L7,19.5 A12.5,12.5 0 0 1 19.5,7 " fill="#F1F1F1" style="stroke:#F1F1F1;stroke-width:1.0;"/><rect fill="none" height="504.6094" rx="12.5" ry="12.5" style="stroke:#181818;stroke-width:0.5;" width="727" x="7" y="7"/><line style="stroke:#181818;stroke-width:0.5;" x1="7" x2="734" y1="34.6094" y2="34.6094"/><text fill="#000000" font-family="sans-serif" font-size="14" lengthAdjust="spacing" textLength="87" x="327" y="26.5332">eliminarAula()</text><g id="eliminarAula.MostrandoConfirmacion"><rect fill="#F1F1F1" height="50" rx="12.5" ry="12.5" style="stroke:#181818;stroke-width:0.5;" width="50" x="179" y="137.6094"/><line style="stroke:#181818;stroke-width:0.5;" x1="179" x2="229" y1="165.2188" y2="165.2188"/><text fill="#000000" font-family="sans-serif" font-size="14" lengthAdjust="spacing" textLength="4" x="202" y="157.1426">&#160;</text></g><g id="eliminarAula.ConfirmandoEliminacion"><rect fill="#F1F1F1" height="50" rx="12.5" ry="12.5" style="stroke:#181818;stroke-width:0.5;" width="50" x="179" y="324.6094"/><line style="stroke:#181818;stroke-width:0.5;" x1="179" x2="229" y1="352.2188" y2="352.2188"/><text fill="#000000" font-family="sans-serif" font-size="14" lengthAdjust="spacing" textLength="4" x="202" y="344.1426">&#160;</text></g><ellipse cx="204" cy="55.6094" fill="#222222" rx="10" ry="10" style="stroke:#222222;stroke-width:1.0;"/><ellipse cx="204" cy="490.6094" fill="none" rx="11" ry="11" style="stroke:#222222;stroke-width:1.0;"/><ellipse cx="204" cy="490.6094" fill="#222222" rx="6" ry="6" style="stroke:#222222;stroke-width:1.0;"/><!--link *start*eliminarAula to MostrandoConfirmacion--><g id="link_*start*eliminarAula_MostrandoConfirmacion"><path d="M204,65.9294 C204,81.7894 204,108.5194 204,131.2494 " fill="none" id="*start*eliminarAula-to-MostrandoConfirmacion" style="stroke:#008000;stroke-width:1.0;"/><polygon fill="#008000" points="204,137.2494,208,128.2494,204,132.2494,200,128.2494,204,137.2494" style="stroke:#008000;stroke-width:1.0;"/><path d="M209,88.6094 L209,114.6094 L441,114.6094 L441,98.6094 L431,88.6094 L209,88.6094 " fill="#FEFFDD" style="stroke:#181818;stroke-width:0.5;"/><path d="M431,88.6094 L431,98.6094 L441,98.6094 L431,88.6094 " fill="#FEFFDD" style="stroke:#181818;stroke-width:0.5;"/><text fill="#000000" font-family="sans-serif" font-size="13" font-weight="bold" lengthAdjust="spacing" textLength="89" x="215" y="107.1045">Administrador</text><text fill="#000000" font-family="sans-serif" font-size="13" lengthAdjust="spacing" textLength="118" x="308" y="107.1045">solicita eliminar aula</text></g><!--link MostrandoConfirmacion to ConfirmandoEliminacion--><g id="link_MostrandoConfirmacion_ConfirmandoEliminacion"><path d="M204,187.7994 C204,223.2494 204,282.9594 204,318.4194 " fill="none" id="MostrandoConfirmacion-to-ConfirmandoEliminacion" style="stroke:#008000;stroke-width:1.0;"/><polygon fill="#008000" points="204,324.4194,208,315.4194,204,319.4194,200,315.4194,204,324.4194" style="stroke:#008000;stroke-width:1.0;"/><path d="M209,210.6094 L209,301.6094 L534,301.6094 L534,220.6094 L524,210.6094 L209,210.6094 " fill="#FEFFDD" style="stroke:#181818;stroke-width:0.5;"/><path d="M524,210.6094 L524,220.6094 L534,220.6094 L524,210.6094 " fill="#FEFFDD" style="stroke:#181818;stroke-width:0.5;"/><text fill="#000000" font-family="sans-serif" font-size="13" font-weight="bold" lengthAdjust="spacing" textLength="51" x="215" y="229.1045">Sistema</text><text fill="#000000" font-family="sans-serif" font-size="13" lengthAdjust="spacing" textLength="214" x="270" y="229.1045">presenta confirmaci&#243;n de eliminaci&#243;n</text><text fill="#000000" font-family="sans-serif" font-size="13" lengthAdjust="spacing" textLength="201" x="215" y="245.4561">&#8226; Muestra datos del aula a eliminar</text><text fill="#000000" font-family="sans-serif" font-size="13" lengthAdjust="spacing" textLength="304" x="215" y="261.8076">&#8226; Muestra advertencia sobre ex&#225;menes programados</text><text fill="#000000" font-family="sans-serif" font-size="13" lengthAdjust="spacing" textLength="229" x="215" y="278.1592">&#8226; Permite solicitar confirmar eliminaci&#243;n</text><text fill="#000000" font-family="sans-serif" font-size="13" lengthAdjust="spacing" textLength="225" x="215" y="294.5107">&#8226; Permite solicitar cancelar eliminaci&#243;n</text></g><!--link ConfirmandoEliminacion to *end*eliminarAula--><g id="link_ConfirmandoEliminacion_*end*eliminarAula"><path d="M178.92,356.2694 C128.15,367.7394 18,392.6094 18,392.6094 C18,392.6094 18,461.6094 18,461.6094 C18,461.6094 147.5667,481.1171 187.2667,487.0871 " fill="none" id="ConfirmandoEliminacion-to-*end*eliminarAula" style="stroke:#008000;stroke-width:1.0;"/><polygon fill="#008000" points="193.2,487.9794,184.8949,482.6855,188.2556,487.2358,183.7052,490.5965,193.2,487.9794" style="stroke:#008000;stroke-width:1.0;"/><path d="M23,397.6094 L23,456.6094 L364,456.6094 L364,407.6094 L354,397.6094 L23,397.6094 " fill="#FEFFDD" style="stroke:#181818;stroke-width:0.5;"/><path d="M354,397.6094 L354,407.6094 L364,407.6094 L354,397.6094 " fill="#FEFFDD" style="stroke:#181818;stroke-width:0.5;"/><text fill="#000000" font-family="sans-serif" font-size="13" font-weight="bold" lengthAdjust="spacing" textLength="89" x="29" y="416.1045">Administrador</text><text fill="#000000" font-family="sans-serif" font-size="13" lengthAdjust="spacing" textLength="167" x="122" y="416.1045">solicita confirmar eliminaci&#243;n</text><text fill="#000000" font-family="sans-serif" font-size="13" font-weight="bold" lengthAdjust="spacing" textLength="51" x="29" y="432.4561">Sistema</text><text fill="#000000" font-family="sans-serif" font-size="13" lengthAdjust="spacing" textLength="265" x="84" y="432.4561">visualiza y elimina el aula de la base de datos</text><text fill="#000000" font-family="sans-serif" font-size="13" font-weight="bold" lengthAdjust="spacing" textLength="51" x="29" y="448.8076">Sistema</text><text fill="#000000" font-family="sans-serif" font-size="13" lengthAdjust="spacing" textLength="197" x="84" y="448.8076">visualiza y actualiza lista de aulas</text></g><!--link ConfirmandoEliminacion to *end*eliminarAula--><g id="link_ConfirmandoEliminacion_*end*eliminarAula"><path d="M229.06,356.9894 C275.22,368.7394 369,392.6094 369,392.6094 C369,392.6094 369,461.6094 369,461.6094 C369,461.6094 257.4454,480.5352 220.7454,486.7652 " fill="none" id="ConfirmandoEliminacion-to-*end*eliminarAula-1" style="stroke:#FF0000;stroke-width:1.0;"/><polygon fill="#FF0000" points="214.83,487.7694,224.3725,490.2067,219.7595,486.9326,223.0336,482.3195,214.83,487.7694" style="stroke:#FF0000;stroke-width:1.0;"/><path d="M374,406.1094 L374,448.1094 L725,448.1094 L725,416.1094 L715,406.1094 L374,406.1094 " fill="#FEFFDD" style="stroke:#181818;stroke-width:0.5;"/><path d="M715,406.1094 L715,416.1094 L725,416.1094 L715,406.1094 " fill="#FEFFDD" style="stroke:#181818;stroke-width:0.5;"/><text fill="#000000" font-family="sans-serif" font-size="13" font-weight="bold" lengthAdjust="spacing" textLength="89" x="380" y="424.6045">Administrador</text><text fill="#000000" font-family="sans-serif" font-size="13" lengthAdjust="spacing" textLength="163" x="473" y="424.6045">solicita cancelar eliminaci&#243;n</text><text fill="#000000" font-family="sans-serif" font-size="13" font-weight="bold" lengthAdjust="spacing" textLength="51" x="380" y="440.9561">Sistema</text><text fill="#000000" font-family="sans-serif" font-size="13" lengthAdjust="spacing" textLength="275" x="435" y="440.9561">visualiza y descarta la operaci&#243;n de eliminaci&#243;n</text></g><g id="AULAS_ABIERTO"><rect fill="#F1F1F1" height="50" rx="12.5" ry="12.5" style="stroke:#181818;stroke-width:0.5;" width="132" x="304.5" y="608"/><line style="stroke:#181818;stroke-width:0.5;" x1="304.5" x2="436.5" y1="635.6094" y2="635.6094"/><text fill="#000000" font-family="sans-serif" font-size="14" lengthAdjust="spacing" textLength="112" x="314.5" y="627.5332">AULAS_ABIERTO</text></g><!--link eliminarAula to AULAS_ABIERTO--><g id="link_eliminarAula_AULAS_ABIERTO"><path d="M307.03,512.14 C302.4,530.5 299.5,542 299.5,542 C299.5,542 299.5,578 299.5,578 C299.5,578 315.0528,589.8398 333.9628,604.2098 " fill="none" id="eliminarAula-to-AULAS_ABIERTO" style="stroke:#008000;stroke-width:1.0;"/><polygon fill="#008000" points="338.74,607.84,333.9944,599.2099,334.759,604.8148,329.1541,605.5794,338.74,607.84" style="stroke:#008000;stroke-width:1.0;"/><path d="M304.5,547 L304.5,573 L391.5,573 L391.5,557 L381.5,547 L304.5,547 " fill="#FEFFDD" style="stroke:#181818;stroke-width:0.5;"/><path d="M381.5,547 L381.5,557 L391.5,557 L381.5,547 " fill="#FEFFDD" style="stroke:#181818;stroke-width:0.5;"/><text fill="#000000" font-family="sans-serif" font-size="13" lengthAdjust="spacing" textLength="66" x="310.5" y="565.4951">abrirAulas()</text></g><!--link eliminarAula to AULAS_ABIERTO--><g id="link_eliminarAula_AULAS_ABIERTO"><path d="M397.32,512.14 C399.27,530.5 400.5,542 400.5,542 C400.5,542 400.5,578 400.5,578 C400.5,578 394.8257,588.2261 386.8357,602.5961 " fill="none" id="eliminarAula-to-AULAS_ABIERTO-1" style="stroke:#FF0000;stroke-width:1.0;"/><polygon fill="#FF0000" points="383.92,607.84,391.7895,601.9179,386.3498,603.4701,384.7976,598.0303,383.92,607.84" style="stroke:#FF0000;stroke-width:1.0;"/><path d="M405.5,547 L405.5,573 L544.5,573 L544.5,557 L534.5,547 L405.5,547 " fill="#FEFFDD" style="stroke:#181818;stroke-width:0.5;"/><path d="M534.5,547 L534.5,557 L544.5,557 L534.5,547 " fill="#FEFFDD" style="stroke:#181818;stroke-width:0.5;"/><text fill="#000000" font-family="sans-serif" font-size="13" lengthAdjust="spacing" textLength="118" x="411.5" y="565.4951">cancelar eliminaci&#243;n</text></g><!--SRC=[dLFjIiCm5FsVfmZppoOCNs0Cgko7u52S_Xf3Rflh24kJacJ3AOAleg_W8-nDV19luzgjjPqV54hIddlkEUScRY5r1XPIhgH6lywGPqQjymrZpeD7ZagcKeEDbWeuEDxP_z3jTVXJWUpGGu2nSTw25kRCw7jfKqYaqLL8yOT0eo-sW67JundlJu_c5b7F-iCMAcs8oUXSye8Duc4aY47cI67iu2GUScUKJAI7KZm74ijG2vuNCzP8N6dT8h7UUq9zCONGDRFeK5FNf2JTl6ikoWp3ddsylF7n4dC1N80tZX0g2EGxmHKKY1LQZpgHGDPYIuGFczSKDJfgQkOqFxBkGiqLsbIInY82MwgntsKqW44dgEhONN3DiLIIeo7-PKGjychPhgHRWfAFmDS5ZXUfKS3qZi5XlWoH7Yg7n6_NYX2XFATnlt9fKVp7OsEg1pGAT0bOgYHZ9aFRSfHAnS-CLUxf_ZoYsujeSXUTde-kRowhgY6sCXIuRc_FVfrgQ_e0qG_7vXC0]--></g></svg>