<?xml version="1.0" encoding="us-ascii" standalone="no"?><svg xmlns="http://www.w3.org/2000/svg" xmlns:xlink="http://www.w3.org/1999/xlink" contentStyleType="text/css" height="664px" preserveAspectRatio="none" style="width:755px;height:664px;background:#FFFFFF;" version="1.1" viewBox="0 0 755 664" width="755px" zoomAndPan="magnify"><defs/><g><path d="M19.5,7 L729.5,7 A12.5,12.5 0 0 1 742,19.5 L742,34.6094 L7,34.6094 L7,19.5 A12.5,12.5 0 0 1 19.5,7 " fill="#F1F1F1" style="stroke:#F1F1F1;stroke-width:1.0;"/><rect fill="none" height="504.6094" rx="12.5" ry="12.5" style="stroke:#181818;stroke-width:0.5;" width="735" x="7" y="7"/><line style="stroke:#181818;stroke-width:0.5;" x1="7" x2="742" y1="34.6094" y2="34.6094"/><text fill="#000000" font-family="sans-serif" font-size="14" lengthAdjust="spacing" textLength="99" x="325" y="26.5332">eliminarGrado()</text><g id="eliminarGrado.MostrandoConfirmacion"><rect fill="#F1F1F1" height="50" rx="12.5" ry="12.5" style="stroke:#181818;stroke-width:0.5;" width="50" x="183" y="137.6094"/><line style="stroke:#181818;stroke-width:0.5;" x1="183" x2="233" y1="165.2188" y2="165.2188"/><text fill="#000000" font-family="sans-serif" font-size="14" lengthAdjust="spacing" textLength="4" x="206" y="157.1426">&#160;</text></g><g id="eliminarGrado.ConfirmandoEliminacion"><rect fill="#F1F1F1" height="50" rx="12.5" ry="12.5" style="stroke:#181818;stroke-width:0.5;" width="50" x="183" y="324.6094"/><line style="stroke:#181818;stroke-width:0.5;" x1="183" x2="233" y1="352.2188" y2="352.2188"/><text fill="#000000" font-family="sans-serif" font-size="14" lengthAdjust="spacing" textLength="4" x="206" y="344.1426">&#160;</text></g><ellipse cx="208" cy="55.6094" fill="#222222" rx="10" ry="10" style="stroke:#222222;stroke-width:1.0;"/><ellipse cx="208" cy="490.6094" fill="none" rx="11" ry="11" style="stroke:#222222;stroke-width:1.0;"/><ellipse cx="208" cy="490.6094" fill="#222222" rx="6" ry="6" style="stroke:#222222;stroke-width:1.0;"/><!--link *start*eliminarGrado to MostrandoConfirmacion--><g id="link_*start*eliminarGrado_MostrandoConfirmacion"><path d="M208,65.9294 C208,81.7894 208,108.5194 208,131.2494 " fill="none" id="*start*eliminarGrado-to-MostrandoConfirmacion" style="stroke:#008000;stroke-width:1.0;"/><polygon fill="#008000" points="208,137.2494,212,128.2494,208,132.2494,204,128.2494,208,137.2494" style="stroke:#008000;stroke-width:1.0;"/><path d="M213,88.6094 L213,114.6094 L453,114.6094 L453,98.6094 L443,88.6094 L213,88.6094 " fill="#FEFFDD" style="stroke:#181818;stroke-width:0.5;"/><path d="M443,88.6094 L443,98.6094 L453,98.6094 L443,88.6094 " fill="#FEFFDD" style="stroke:#181818;stroke-width:0.5;"/><text fill="#000000" font-family="sans-serif" font-size="13" font-weight="bold" lengthAdjust="spacing" textLength="89" x="219" y="107.1045">Administrador</text><text fill="#000000" font-family="sans-serif" font-size="13" lengthAdjust="spacing" textLength="126" x="312" y="107.1045">solicita eliminar grado</text></g><!--link MostrandoConfirmacion to ConfirmandoEliminacion--><g id="link_MostrandoConfirmacion_ConfirmandoEliminacion"><path d="M208,187.7994 C208,223.2494 208,282.9594 208,318.4194 " fill="none" id="MostrandoConfirmacion-to-ConfirmandoEliminacion" style="stroke:#008000;stroke-width:1.0;"/><polygon fill="#008000" points="208,324.4194,212,315.4194,208,319.4194,204,315.4194,208,324.4194" style="stroke:#008000;stroke-width:1.0;"/><path d="M213,210.6094 L213,301.6094 L529,301.6094 L529,220.6094 L519,210.6094 L213,210.6094 " fill="#FEFFDD" style="stroke:#181818;stroke-width:0.5;"/><path d="M519,210.6094 L519,220.6094 L529,220.6094 L519,210.6094 " fill="#FEFFDD" style="stroke:#181818;stroke-width:0.5;"/><text fill="#000000" font-family="sans-serif" font-size="13" font-weight="bold" lengthAdjust="spacing" textLength="51" x="219" y="229.1045">Sistema</text><text fill="#000000" font-family="sans-serif" font-size="13" lengthAdjust="spacing" textLength="214" x="274" y="229.1045">presenta confirmaci&#243;n de eliminaci&#243;n</text><text fill="#000000" font-family="sans-serif" font-size="13" lengthAdjust="spacing" textLength="209" x="219" y="245.4561">&#8226; Muestra datos del grado a eliminar</text><text fill="#000000" font-family="sans-serif" font-size="13" lengthAdjust="spacing" textLength="295" x="219" y="261.8076">&#8226; Muestra advertencia sobre asignaturas asociadas</text><text fill="#000000" font-family="sans-serif" font-size="13" lengthAdjust="spacing" textLength="229" x="219" y="278.1592">&#8226; Permite solicitar confirmar eliminaci&#243;n</text><text fill="#000000" font-family="sans-serif" font-size="13" lengthAdjust="spacing" textLength="225" x="219" y="294.5107">&#8226; Permite solicitar cancelar eliminaci&#243;n</text></g><!--link ConfirmandoEliminacion to *end*eliminarGrado--><g id="link_ConfirmandoEliminacion_*end*eliminarGrado"><path d="M182.77,356.1894 C131.09,367.6094 18,392.6094 18,392.6094 C18,392.6094 18,461.6094 18,461.6094 C18,461.6094 151.1141,481.225 191.3041,487.145 " fill="none" id="ConfirmandoEliminacion-to-*end*eliminarGrado" style="stroke:#008000;stroke-width:1.0;"/><polygon fill="#008000" points="197.24,488.0194,188.919,482.7505,192.2934,487.2907,187.7532,490.6651,197.24,488.0194" style="stroke:#008000;stroke-width:1.0;"/><path d="M23,397.6094 L23,456.6094 L372,456.6094 L372,407.6094 L362,397.6094 L23,397.6094 " fill="#FEFFDD" style="stroke:#181818;stroke-width:0.5;"/><path d="M362,397.6094 L362,407.6094 L372,407.6094 L362,397.6094 " fill="#FEFFDD" style="stroke:#181818;stroke-width:0.5;"/><text fill="#000000" font-family="sans-serif" font-size="13" font-weight="bold" lengthAdjust="spacing" textLength="89" x="29" y="416.1045">Administrador</text><text fill="#000000" font-family="sans-serif" font-size="13" lengthAdjust="spacing" textLength="167" x="122" y="416.1045">solicita confirmar eliminaci&#243;n</text><text fill="#000000" font-family="sans-serif" font-size="13" font-weight="bold" lengthAdjust="spacing" textLength="51" x="29" y="432.4561">Sistema</text><text fill="#000000" font-family="sans-serif" font-size="13" lengthAdjust="spacing" textLength="273" x="84" y="432.4561">visualiza y elimina el grado de la base de datos</text><text fill="#000000" font-family="sans-serif" font-size="13" font-weight="bold" lengthAdjust="spacing" textLength="51" x="29" y="448.8076">Sistema</text><text fill="#000000" font-family="sans-serif" font-size="13" lengthAdjust="spacing" textLength="205" x="84" y="448.8076">visualiza y actualiza lista de grados</text></g><!--link ConfirmandoEliminacion to *end*eliminarGrado--><g id="link_ConfirmandoEliminacion_*end*eliminarGrado"><path d="M233.3,356.8994 C280.45,368.6094 377,392.6094 377,392.6094 C377,392.6094 377,461.6094 377,461.6094 C377,461.6094 262.0493,480.6586 224.7493,486.8386 " fill="none" id="ConfirmandoEliminacion-to-*end*eliminarGrado-1" style="stroke:#FF0000;stroke-width:1.0;"/><polygon fill="#FF0000" points="218.83,487.8194,228.3628,490.2945,223.7628,487.0021,227.0551,482.4021,218.83,487.8194" style="stroke:#FF0000;stroke-width:1.0;"/><path d="M382,406.1094 L382,448.1094 L733,448.1094 L733,416.1094 L723,406.1094 L382,406.1094 " fill="#FEFFDD" style="stroke:#181818;stroke-width:0.5;"/><path d="M723,406.1094 L723,416.1094 L733,416.1094 L723,406.1094 " fill="#FEFFDD" style="stroke:#181818;stroke-width:0.5;"/><text fill="#000000" font-family="sans-serif" font-size="13" font-weight="bold" lengthAdjust="spacing" textLength="89" x="388" y="424.6045">Administrador</text><text fill="#000000" font-family="sans-serif" font-size="13" lengthAdjust="spacing" textLength="163" x="481" y="424.6045">solicita cancelar eliminaci&#243;n</text><text fill="#000000" font-family="sans-serif" font-size="13" font-weight="bold" lengthAdjust="spacing" textLength="51" x="388" y="440.9561">Sistema</text><text fill="#000000" font-family="sans-serif" font-size="13" lengthAdjust="spacing" textLength="275" x="443" y="440.9561">visualiza y descarta la operaci&#243;n de eliminaci&#243;n</text></g><g id="GRADOS_ABIERTO"><rect fill="#F1F1F1" height="50" rx="12.5" ry="12.5" style="stroke:#181818;stroke-width:0.5;" width="148" x="300.5" y="608"/><line style="stroke:#181818;stroke-width:0.5;" x1="300.5" x2="448.5" y1="635.6094" y2="635.6094"/><text fill="#000000" font-family="sans-serif" font-size="14" lengthAdjust="spacing" textLength="128" x="310.5" y="627.5332">GRADOS_ABIERTO</text></g><!--link eliminarGrado to GRADOS_ABIERTO--><g id="link_eliminarGrado_GRADOS_ABIERTO"><path d="M306.56,512.14 C301.61,530.5 298.5,542 298.5,542 C298.5,542 298.5,578 298.5,578 C298.5,578 315.3785,589.9954 335.6085,604.3654 " fill="none" id="eliminarGrado-to-GRADOS_ABIERTO" style="stroke:#008000;stroke-width:1.0;"/><polygon fill="#008000" points="340.5,607.84,335.4791,599.3671,336.4237,604.9445,330.8463,605.8891,340.5,607.84" style="stroke:#008000;stroke-width:1.0;"/><path d="M303.5,547 L303.5,573 L399.5,573 L399.5,557 L389.5,547 L303.5,547 " fill="#FEFFDD" style="stroke:#181818;stroke-width:0.5;"/><path d="M389.5,547 L389.5,557 L399.5,557 L389.5,547 " fill="#FEFFDD" style="stroke:#181818;stroke-width:0.5;"/><text fill="#000000" font-family="sans-serif" font-size="13" lengthAdjust="spacing" textLength="75" x="309.5" y="565.4951">abrirGrados()</text></g><!--link eliminarGrado to GRADOS_ABIERTO--><g id="link_eliminarGrado_GRADOS_ABIERTO"><path d="M404.89,512.14 C407.11,530.5 408.5,542 408.5,542 C408.5,542 408.5,578 408.5,578 C408.5,578 401.9574,588.393 392.9074,602.763 " fill="none" id="eliminarGrado-to-GRADOS_ABIERTO-1" style="stroke:#FF0000;stroke-width:1.0;"/><polygon fill="#FF0000" points="389.71,607.84,397.8909,602.3561,392.3745,603.6091,391.1215,598.0928,389.71,607.84" style="stroke:#FF0000;stroke-width:1.0;"/><path d="M413.5,547 L413.5,573 L552.5,573 L552.5,557 L542.5,547 L413.5,547 " fill="#FEFFDD" style="stroke:#181818;stroke-width:0.5;"/><path d="M542.5,547 L542.5,557 L552.5,557 L542.5,547 " fill="#FEFFDD" style="stroke:#181818;stroke-width:0.5;"/><text fill="#000000" font-family="sans-serif" font-size="13" lengthAdjust="spacing" textLength="118" x="419.5" y="565.4951">cancelar eliminaci&#243;n</text></g><!--SRC=[dPDVJi904CRVznGJV04JumK82IenFXWC-4Q8cNP7ic6xsymk96XCF8jNy0ZUn9CuBL0e0lv9NxRTRxxvpRVRC3KkHyOCh74K5pb1xksYU54gH8m4P4rc7F8re_Q00HgrByrM0vxNseOyehZr8J8wxI-zUpISOMgygqlMEoBgBUrAZHgTZk5iT39X8ZS-wnomSbwSl2kWfwgTTBfQ74oXr9xRvqa7WhScDH4hV9WKcugSXg9QgRtEjTu767UR3wKnPLYspPa2EMcRLgOVxmvq5MFvhZvVt-1sHWK0Q8m-YC8k2M63N9EXdXD7Sgb16IvXaXJDn66SiSI9mSk6nb3Mt15dHY3N8N25mzyvzeZHfMHtjPlazkTIYqwEyI-7T01l9zov2JEqvWbXiTP15Pj4R14I35Gior2FrMCQLsih2YngIf_mgpcPz7-ct9lh4KXD8KMMIfdCvyG7RbD5_A9K_M_TFfBhGVUgFtpeNjpq1lVzEZScR9ObeTdQIk2RsshmOru_t9ul]--></g></svg>