<?xml version="1.0" encoding="us-ascii" standalone="no"?><svg xmlns="http://www.w3.org/2000/svg" xmlns:xlink="http://www.w3.org/1999/xlink" contentStyleType="text/css" height="522px" preserveAspectRatio="none" style="width:1982px;height:522px;background:#FFFFFF;" version="1.1" viewBox="0 0 1982 522" width="1982px" zoomAndPan="magnify"><defs/><g><!--cluster abrirProfesores--><g id="cluster_abrirProfesores"><path d="M155.5,6.016 L256.5,6.016 A3.75,3.75 0 0 1 259,8.516 L266,28.3601 L915.5,28.3601 A2.5,2.5 0 0 1 918,30.8601 L918,512.516 A2.5,2.5 0 0 1 915.5,515.016 L155.5,515.016 A2.5,2.5 0 0 1 153,512.516 L153,8.516 A2.5,2.5 0 0 1 155.5,6.016 " fill="none" style="stroke:#000000;stroke-width:1.5;"/><line style="stroke:#000000;stroke-width:1.5;" x1="153" x2="266" y1="28.3601" y2="28.3601"/><text fill="#000000" font-family="sans-serif" font-size="12" font-weight="bold" lengthAdjust="spacing" textLength="100" x="157" y="20.8441">abrirProfesores()</text></g><!--entity ListarProfesoresView--><g id="elem_ListarProfesoresView"><rect fill="#629EF9" height="36.3441" rx="2.5" ry="2.5" style="stroke:#181818;stroke-width:0.5;" width="138" x="764" y="41.016"/><text fill="#000000" font-family="sans-serif" font-size="12" lengthAdjust="spacing" textLength="118" x="774" y="63.8441">ListarProfesoresView</text></g><!--entity ProfesorController--><g id="elem_ProfesorController"><rect fill="#B5BD68" height="36.3441" rx="2.5" ry="2.5" style="stroke:#181818;stroke-width:0.5;" width="124" x="339" y="155.016"/><text fill="#000000" font-family="sans-serif" font-size="12" lengthAdjust="spacing" textLength="104" x="349" y="177.8441">ProfesorController</text></g><!--entity ProfesorRepository--><g id="elem_ProfesorRepository"><rect fill="#F2AC4E" height="36.3441" rx="2.5" ry="2.5" style="stroke:#181818;stroke-width:0.5;" width="127" x="338.5" y="269.016"/><text fill="#000000" font-family="sans-serif" font-size="12" lengthAdjust="spacing" textLength="107" x="348.5" y="291.8441">ProfesorRepository</text></g><!--entity Profesor--><g id="elem_Profesor"><rect fill="#F2AC4E" height="36.3441" rx="2.5" ry="2.5" style="stroke:#181818;stroke-width:0.5;" width="68" x="368" y="366.016"/><text fill="#000000" font-family="sans-serif" font-size="12" lengthAdjust="spacing" textLength="48" x="378" y="388.8441">Profesor</text></g><!--entity Asignatura--><g id="elem_Asignatura"><rect fill="#F2AC4E" height="36.3441" rx="2.5" ry="2.5" style="stroke:#181818;stroke-width:0.5;" width="81" x="361.5" y="463.016"/><text fill="#000000" font-family="sans-serif" font-size="12" lengthAdjust="spacing" textLength="61" x="371.5" y="485.8441">Asignatura</text></g><!--entity SistemaDisponible--><g id="elem_SistemaDisponible"><rect fill="#CDEBA5" height="36.3441" rx="2.5" ry="2.5" style="stroke:#181818;stroke-width:0.5;" width="130" x="7" y="41.016"/><text fill="#000000" font-family="sans-serif" font-size="12" lengthAdjust="spacing" textLength="110" x="17" y="63.8441">:Sistema Disponible</text></g><!--entity SistemaDisponibleSalida--><g id="elem_SistemaDisponibleSalida"><rect fill="#CDEBA5" height="36.3441" rx="2.5" ry="2.5" style="stroke:#181818;stroke-width:0.5;" width="130" x="934" y="155.016"/><text fill="#000000" font-family="sans-serif" font-size="12" lengthAdjust="spacing" textLength="110" x="944" y="177.8441">:Sistema Disponible</text></g><!--entity CrearProfesor--><g id="elem_CrearProfesor"><rect fill="#CDEBA5" height="36.3441" rx="2.5" ry="2.5" style="stroke:#181818;stroke-width:0.5;" width="181" x="1099.5" y="155.016"/><text fill="#000000" font-family="sans-serif" font-size="12" lengthAdjust="spacing" textLength="161" x="1109.5" y="177.8441">:Collaboration CrearProfesor</text></g><!--entity EditarProfesor--><g id="elem_EditarProfesor"><rect fill="#CDEBA5" height="36.3441" rx="2.5" ry="2.5" style="stroke:#181818;stroke-width:0.5;" width="182" x="1316" y="155.016"/><text fill="#000000" font-family="sans-serif" font-size="12" lengthAdjust="spacing" textLength="162" x="1326" y="177.8441">:Collaboration EditarProfesor</text></g><!--entity EliminarProfesor--><g id="elem_EliminarProfesor"><rect fill="#CDEBA5" height="36.3441" rx="2.5" ry="2.5" style="stroke:#181818;stroke-width:0.5;" width="195" x="1533.5" y="155.016"/><text fill="#000000" font-family="sans-serif" font-size="12" lengthAdjust="spacing" textLength="175" x="1543.5" y="177.8441">:Collaboration EliminarProfesor</text></g><!--entity ImportarProfesores--><g id="elem_ImportarProfesores"><rect fill="#CDEBA5" height="36.3441" rx="2.5" ry="2.5" style="stroke:#181818;stroke-width:0.5;" width="212" x="1764" y="155.016"/><text fill="#000000" font-family="sans-serif" font-size="12" lengthAdjust="spacing" textLength="192" x="1774" y="177.8441">:Collaboration ImportarProfesores</text></g><!--link SistemaDisponible to ListarProfesoresView--><g id="link_SistemaDisponible_ListarProfesoresView"><path d="M137.21,59.016 C279.76,59.016 612.03,59.016 757.99,59.016 " fill="none" id="SistemaDisponible-to-ListarProfesoresView" style="stroke:#181818;stroke-width:1.0;"/><polygon fill="#181818" points="763.99,59.016,754.99,55.016,758.99,59.016,754.99,63.016,763.99,59.016" style="stroke:#181818;stroke-width:1.0;"/><text fill="#000000" font-family="sans-serif" font-size="12" lengthAdjust="spacing" textLength="96" x="402.5" y="51.8441">abrirProfesores()</text></g><!--link ListarProfesoresView to ProfesorController--><g id="link_ListarProfesoresView_ProfesorController"><path d="M763.94,65.296 C603.28,77.576 218,107.016 218,107.016 C218,107.016 218,125.016 218,125.016 C218,125.016 279.9285,140.924 332.9785,154.544 " fill="none" id="ListarProfesoresView-to-ProfesorController" style="stroke:#181818;stroke-width:1.0;"/><polygon fill="#181818" points="338.79,156.036,331.0674,149.9236,333.9471,154.7927,329.078,157.6723,338.79,156.036" style="stroke:#181818;stroke-width:1.0;"/><text fill="#000000" font-family="sans-serif" font-size="12" lengthAdjust="spacing" textLength="313" x="219" y="120.8441">listarProfesores(filtros, pagina) : PagedResult&lt;Profesor&gt;</text></g><!--link ListarProfesoresView to ProfesorController--><g id="link_ListarProfesoresView_ProfesorController"><path d="M763.79,72.676 C687.67,86.596 576,107.016 576,107.016 C576,107.016 537,125.016 537,125.016 C537,125.016 495.0409,139.5162 456.1509,152.9562 " fill="none" id="ListarProfesoresView-to-ProfesorController-1" style="stroke:#181818;stroke-width:1.0;"/><polygon fill="#181818" points="450.48,154.916,460.2929,155.7569,455.2058,153.2829,457.6798,148.1957,450.48,154.916" style="stroke:#181818;stroke-width:1.0;"/><text fill="#000000" font-family="sans-serif" font-size="12" lengthAdjust="spacing" textLength="324" x="577" y="120.8441">filtrarProfesores(criterio, pagina) : PagedResult&lt;Profesor&gt;</text></g><!--link ProfesorController to ProfesorRepository--><g id="link_ProfesorController_ProfesorRepository"><path d="M338.82,188.626 C280.1,202.426 201,221.016 201,221.016 C201,221.016 201,239.016 201,239.016 C201,239.016 273.6776,256.0097 332.5576,269.7797 " fill="none" id="ProfesorController-to-ProfesorRepository" style="stroke:#181818;stroke-width:1.0;"/><polygon fill="#181818" points="338.4,271.146,330.5473,265.2016,333.5314,270.0074,328.7256,272.9914,338.4,271.146" style="stroke:#181818;stroke-width:1.0;"/><text fill="#000000" font-family="sans-serif" font-size="12" lengthAdjust="spacing" textLength="326" x="202" y="234.8441">obtenerPaginados(filtros, pagina) : PagedResult&lt;Profesor&gt;</text></g><!--link ProfesorController to ProfesorRepository--><g id="link_ProfesorController_ProfesorRepository"><path d="M449.03,191.116 C486.77,204.556 533,221.016 533,221.016 C533,221.016 533,239.016 533,239.016 C533,239.016 492.7675,253.4498 455.3075,266.8898 " fill="none" id="ProfesorController-to-ProfesorRepository-1" style="stroke:#181818;stroke-width:1.0;"/><polygon fill="#181818" points="449.66,268.916,459.4821,269.6417,454.3663,267.2275,456.7804,262.1117,449.66,268.916" style="stroke:#181818;stroke-width:1.0;"/><text fill="#000000" font-family="sans-serif" font-size="12" lengthAdjust="spacing" textLength="328" x="534" y="234.8441">buscarPaginados(criterio, pagina) : PagedResult&lt;Profesor&gt;</text></g><!--link ProfesorRepository to Profesor--><g id="link_ProfesorRepository_Profesor"><path d="M402,305.436 C402,322.586 402,348.596 402,365.706 " fill="none" id="ProfesorRepository-Profesor" style="stroke:#181818;stroke-width:1.0;"/></g><!--link Profesor to Asignatura--><g id="link_Profesor_Asignatura"><path d="M402,402.436 C402,419.586 402,445.596 402,462.706 " fill="none" id="Profesor-Asignatura" style="stroke:#181818;stroke-width:1.0;"/></g><!--link ListarProfesoresView to SistemaDisponibleSalida--><g id="link_ListarProfesoresView_SistemaDisponibleSalida"><path d="M861.23,77.246 C883.21,90.666 910,107.016 910,107.016 C910,107.016 944.4047,132.1372 970.7747,151.3972 " fill="none" id="ListarProfesoresView-to-SistemaDisponibleSalida" style="stroke:#181818;stroke-width:1.0;stroke-dasharray:7.0,7.0;"/><polygon fill="#181818" points="975.62,154.936,970.7114,146.3976,971.5823,151.987,965.9929,152.8579,975.62,154.936" style="stroke:#181818;stroke-width:1.0;"/><text fill="#000000" font-family="sans-serif" font-size="12" lengthAdjust="spacing" textLength="108" x="934" y="120.8441">completarGestion()</text></g><!--link ListarProfesoresView to CrearProfesor--><g id="link_ListarProfesoresView_CrearProfesor"><path d="M902.28,74.956 C966.11,88.716 1051,107.016 1051,107.016 C1051,107.016 1106.8651,133.1341 1148.0451,152.3941 " fill="none" id="ListarProfesoresView-to-CrearProfesor" style="stroke:#181818;stroke-width:1.0;stroke-dasharray:7.0,7.0;"/><polygon fill="#181818" points="1153.48,154.936,1147.0222,147.4998,1148.9509,152.8177,1143.633,154.7464,1153.48,154.936" style="stroke:#181818;stroke-width:1.0;"/><text fill="#000000" font-family="sans-serif" font-size="12" lengthAdjust="spacing" textLength="86" x="1089" y="120.8441">crearProfesor()</text></g><!--link ListarProfesoresView to EditarProfesor--><g id="link_ListarProfesoresView_EditarProfesor"><path d="M902.35,69.306 C1004.64,82.996 1184,107.016 1184,107.016 C1184,107.016 1276.5798,133.9969 1342.6498,153.2569 " fill="none" id="ListarProfesoresView-to-EditarProfesor" style="stroke:#181818;stroke-width:1.0;stroke-dasharray:7.0,7.0;"/><polygon fill="#181818" points="1348.41,154.936,1340.8891,148.5771,1343.6098,153.5367,1338.6502,156.2574,1348.41,154.936" style="stroke:#181818;stroke-width:1.0;"/><text fill="#000000" font-family="sans-serif" font-size="12" lengthAdjust="spacing" textLength="89" x="1244" y="120.8441">editarProfesor()</text></g><!--link ListarProfesoresView to EliminarProfesor--><g id="link_ListarProfesoresView_EliminarProfesor"><path d="M902.18,66.406 C1041.35,79.256 1342,107.016 1342,107.016 C1342,107.016 1463.5862,134.3594 1549.2162,153.6194 " fill="none" id="ListarProfesoresView-to-EliminarProfesor" style="stroke:#181818;stroke-width:1.0;stroke-dasharray:7.0,7.0;"/><polygon fill="#181818" points="1555.07,154.936,1547.1671,149.0586,1550.1919,153.8388,1545.4116,156.8636,1555.07,154.936" style="stroke:#181818;stroke-width:1.0;"/><text fill="#000000" font-family="sans-serif" font-size="12" lengthAdjust="spacing" textLength="102" x="1420" y="120.8441">eliminarProfesor()</text></g><!--link ListarProfesoresView to ImportarProfesores--><g id="link_ListarProfesoresView_ImportarProfesores"><path d="M902.16,64.676 C1078.48,76.546 1531,107.016 1531,107.016 C1531,107.016 1674.5974,134.5461 1775.0374,153.8061 " fill="none" id="ListarProfesoresView-to-ImportarProfesores" style="stroke:#181818;stroke-width:1.0;stroke-dasharray:7.0,7.0;"/><polygon fill="#181818" points="1780.93,154.936,1772.8443,149.3127,1776.0195,153.9944,1771.3377,157.1695,1780.93,154.936" style="stroke:#181818;stroke-width:1.0;"/><text fill="#000000" font-family="sans-serif" font-size="12" lengthAdjust="spacing" textLength="118" x="1622" y="120.8441">importarProfesores()</text></g><!--SRC=[hLHTQzj047o_Nx6uBmdKWPecD28ONDakXJwO6Fg-ajRAajETs3jZtDB_thDRHz-kqrPFkjdPMTzerkwPJOc21IIOFkTYjoQBhRO2koVsfDnBtJrXPdTiSjYWTlNAd3QurNvfZV_LckYWrKzOypU2TvDQKRCXloy9IgltXuDIGgb7ask2D_5yyN5s2wDepSvJWJ1dLrh3YQOHe8FVS8KgLORXc1DW8YmhiHjoLiWTsACMTdKzWkyAmbCRUJUvNopluKjGnXhtAzEkJKrka-pk0vn8SRYWMAr9siJbP1Q_NxmG7wcqZhsL_H-80-MPuzoWtmgg7_zcrnerPzWh4RwbniGAUhO6Og7AZQDM0xb0OP6nRqaqeKiqD1TisYejy0ATpqLffV5vZqfTMAcEPJ2MyRGt7X5qygLK7n76MP3enYOAsz1aNsrOXw9x2oNcuPBN4C4gf3jx91TMwk74d2hLbODnRKgLkGXiuicGh8wIcVsRAPLSc5BbzVHo06if7N1Xm8JZhscua4huCnAs_zU6PEjIhBdmYYczzxcvcGvjM0IfBKfDeUaJkKC6GpO6HHgh5LhhntDzpNsAW1hdivsj7GgzBUHSTtTl8k0E5XH-0W00]--></g></svg>