<?xml version="1.0" encoding="us-ascii" standalone="no"?><svg xmlns="http://www.w3.org/2000/svg" xmlns:xlink="http://www.w3.org/1999/xlink" contentStyleType="text/css" height="666px" preserveAspectRatio="none" style="width:630px;height:666px;background:#FFFFFF;" version="1.1" viewBox="0 0 630 666" width="630px" zoomAndPan="magnify"><defs/><g><path d="M101,7 L402,7 A12.5,12.5 0 0 1 414.5,19.5 L414.5,34.6094 L88.5,34.6094 L88.5,19.5 A12.5,12.5 0 0 1 101,7 " fill="#F1F1F1" style="stroke:#F1F1F1;stroke-width:1.0;"/><rect fill="none" height="506.6094" rx="12.5" ry="12.5" style="stroke:#181818;stroke-width:0.5;" width="326" x="88.5" y="7"/><line style="stroke:#181818;stroke-width:0.5;" x1="88.5" x2="414.5" y1="34.6094" y2="34.6094"/><text fill="#000000" font-family="sans-serif" font-size="14" lengthAdjust="spacing" textLength="104" x="199.5" y="26.5332">abrirExamenes()</text><g id="abrirExamenes.MostrandoLista"><rect fill="#F1F1F1" height="50" rx="12.5" ry="12.5" style="stroke:#181818;stroke-width:0.5;" width="50" x="100.5" y="137.6094"/><line style="stroke:#181818;stroke-width:0.5;" x1="100.5" x2="150.5" y1="165.2188" y2="165.2188"/><text fill="#000000" font-family="sans-serif" font-size="14" lengthAdjust="spacing" textLength="4" x="123.5" y="157.1426">&#160;</text></g><g id="abrirExamenes.FiltrandoLista"><rect fill="#F1F1F1" height="50" rx="12.5" ry="12.5" style="stroke:#181818;stroke-width:0.5;" width="50" x="100.5" y="358.6094"/><line style="stroke:#181818;stroke-width:0.5;" x1="100.5" x2="150.5" y1="386.2188" y2="386.2188"/><text fill="#000000" font-family="sans-serif" font-size="14" lengthAdjust="spacing" textLength="4" x="123.5" y="378.1426">&#160;</text></g><ellipse cx="125.5" cy="55.6094" fill="#222222" rx="10" ry="10" style="stroke:#222222;stroke-width:1.0;"/><ellipse cx="125.5" cy="492.6094" fill="none" rx="11" ry="11" style="stroke:#222222;stroke-width:1.0;"/><ellipse cx="125.5" cy="492.6094" fill="#222222" rx="6" ry="6" style="stroke:#222222;stroke-width:1.0;"/><!--link *start*abrirExamenes to MostrandoLista--><g id="link_*start*abrirExamenes_MostrandoLista"><path d="M125.5,65.9294 C125.5,81.7894 125.5,108.5194 125.5,131.2494 " fill="none" id="*start*abrirExamenes-to-MostrandoLista" style="stroke:#008000;stroke-width:1.0;"/><polygon fill="#008000" points="125.5,137.2494,129.5,128.2494,125.5,132.2494,121.5,128.2494,125.5,137.2494" style="stroke:#008000;stroke-width:1.0;"/><path d="M130.5,88.6094 L130.5,114.6094 L378.5,114.6094 L378.5,98.6094 L368.5,88.6094 L130.5,88.6094 " fill="#FEFFDD" style="stroke:#181818;stroke-width:0.5;"/><path d="M368.5,88.6094 L368.5,98.6094 L378.5,98.6094 L368.5,88.6094 " fill="#FEFFDD" style="stroke:#181818;stroke-width:0.5;"/><text fill="#000000" font-family="sans-serif" font-size="13" font-weight="bold" lengthAdjust="spacing" textLength="89" x="136.5" y="107.1045">Administrador</text><text fill="#000000" font-family="sans-serif" font-size="13" lengthAdjust="spacing" textLength="134" x="229.5" y="107.1045">solicita abrir ex&#225;menes</text></g><!--link MostrandoLista to FiltrandoLista--><g id="link_MostrandoLista_FiltrandoLista"><path d="M125.5,187.8794 C125.5,230.0894 125.5,310.5094 125.5,352.5594 " fill="none" id="MostrandoLista-to-FiltrandoLista" style="stroke:#008000;stroke-width:1.0;"/><polygon fill="#008000" points="125.5,358.5594,129.5,349.5594,125.5,353.5594,121.5,349.5594,125.5,358.5594" style="stroke:#008000;stroke-width:1.0;"/><path d="M130.5,210.6094 L130.5,334.6094 L379.5,334.6094 L379.5,220.6094 L369.5,210.6094 L130.5,210.6094 " fill="#FEFFDD" style="stroke:#181818;stroke-width:0.5;"/><path d="M369.5,210.6094 L369.5,220.6094 L379.5,220.6094 L369.5,210.6094 " fill="#FEFFDD" style="stroke:#181818;stroke-width:0.5;"/><text fill="#000000" font-family="sans-serif" font-size="13" font-weight="bold" lengthAdjust="spacing" textLength="51" x="136.5" y="229.1045">Sistema</text><text fill="#000000" font-family="sans-serif" font-size="13" lengthAdjust="spacing" textLength="160" x="191.5" y="229.1045">presenta lista de ex&#225;menes</text><text fill="#000000" font-family="sans-serif" font-size="13" lengthAdjust="spacing" textLength="228" x="136.5" y="245.4561">&#8226; C&#243;digo, asignatura, fecha programada</text><text fill="#000000" font-family="sans-serif" font-size="13" lengthAdjust="spacing" textLength="219" x="136.5" y="261.8076">&#8226; Aula asignada, profesor responsable</text><text fill="#000000" font-family="sans-serif" font-size="13" lengthAdjust="spacing" textLength="163" x="136.5" y="278.1592">&#8226; Permite solicitar filtrar lista</text><text fill="#000000" font-family="sans-serif" font-size="13" lengthAdjust="spacing" textLength="223" x="136.5" y="294.5107">&#8226; Permite solicitar crear examen nuevo</text><text fill="#000000" font-family="sans-serif" font-size="13" lengthAdjust="spacing" textLength="202" x="136.5" y="310.8623">&#8226; Permite solicitar eliminar examen</text><text fill="#000000" font-family="sans-serif" font-size="13" lengthAdjust="spacing" textLength="189" x="136.5" y="327.2139">&#8226; Permite solicitar editar examen</text></g><!--link FiltrandoLista to FiltrandoLista--><g id="link_FiltrandoLista_FiltrandoLista"><path d="M150.68,372.0294 C160.41,371.5194 168.5,375.3794 168.5,383.6094 C168.5,391.8394 166.4018,396.0134 156.6718,395.5034 " fill="none" id="FiltrandoLista-to-FiltrandoLista" style="stroke:#008000;stroke-width:1.0;"/><polygon fill="#008000" points="150.68,395.1894,159.4583,399.655,155.6731,395.4511,159.877,391.6659,150.68,395.1894" style="stroke:#008000;stroke-width:1.0;"/><path d="M173.5,362.6094 L173.5,404.6094 L388.5,404.6094 L388.5,372.6094 L378.5,362.6094 L173.5,362.6094 " fill="#FEFFDD" style="stroke:#181818;stroke-width:0.5;"/><path d="M378.5,362.6094 L378.5,372.6094 L388.5,372.6094 L378.5,362.6094 " fill="#FEFFDD" style="stroke:#181818;stroke-width:0.5;"/><text fill="#000000" font-family="sans-serif" font-size="13" font-weight="bold" lengthAdjust="spacing" textLength="89" x="179.5" y="381.1045">Administrador</text><text fill="#000000" font-family="sans-serif" font-size="13" lengthAdjust="spacing" textLength="101" x="272.5" y="381.1045">solicita filtrar lista</text><text fill="#000000" font-family="sans-serif" font-size="13" font-weight="bold" lengthAdjust="spacing" textLength="51" x="179.5" y="397.4561">Sistema</text><text fill="#000000" font-family="sans-serif" font-size="13" lengthAdjust="spacing" textLength="120" x="234.5" y="397.4561">presenta lista filtrada</text></g><!--link FiltrandoLista to *end*abrirExamenes--><g id="link_FiltrandoLista_*end*abrirExamenes"><path d="M125.5,408.6194 C125.5,431.5394 125.5,458.9694 125.5,475.5294 " fill="none" id="FiltrandoLista-to-*end*abrirExamenes" style="stroke:#008000;stroke-width:1.0;"/><polygon fill="#008000" points="125.5,481.5294,129.5,472.5294,125.5,476.5294,121.5,472.5294,125.5,481.5294" style="stroke:#008000;stroke-width:1.0;"/><path d="M130.5,432.6094 L130.5,458.6094 L405.5,458.6094 L405.5,442.6094 L395.5,432.6094 L130.5,432.6094 " fill="#FEFFDD" style="stroke:#181818;stroke-width:0.5;"/><path d="M395.5,432.6094 L395.5,442.6094 L405.5,442.6094 L395.5,432.6094 " fill="#FEFFDD" style="stroke:#181818;stroke-width:0.5;"/><text fill="#000000" font-family="sans-serif" font-size="13" font-weight="bold" lengthAdjust="spacing" textLength="89" x="136.5" y="451.1045">Administrador</text><text fill="#000000" font-family="sans-serif" font-size="13" lengthAdjust="spacing" textLength="161" x="229.5" y="451.1045">solicita una de las opciones</text></g><g id="EXAMEN_ABIERTO"><rect fill="#F1F1F1" height="50" rx="12.5" ry="12.5" style="stroke:#181818;stroke-width:0.5;" width="143" x="7" y="610"/><line style="stroke:#181818;stroke-width:0.5;" x1="7" x2="150" y1="637.6094" y2="637.6094"/><text fill="#000000" font-family="sans-serif" font-size="14" lengthAdjust="spacing" textLength="123" x="17" y="629.5332">EXAMEN_ABIERTO</text></g><g id="EXAMENES_ABIERTO"><rect fill="#F1F1F1" height="50" rx="12.5" ry="12.5" style="stroke:#181818;stroke-width:0.5;" width="161" x="249" y="610"/><line style="stroke:#181818;stroke-width:0.5;" x1="249" x2="410" y1="637.6094" y2="637.6094"/><text fill="#000000" font-family="sans-serif" font-size="14" lengthAdjust="spacing" textLength="141" x="259" y="629.5332">EXAMENES_ABIERTO</text></g><g id="SISTEMA_DISPONIBLE"><rect fill="#F1F1F1" height="50" rx="12.5" ry="12.5" style="stroke:#181818;stroke-width:0.5;" width="167" x="445" y="610"/><line style="stroke:#181818;stroke-width:0.5;" x1="445" x2="612" y1="637.6094" y2="637.6094"/><text fill="#000000" font-family="sans-serif" font-size="14" lengthAdjust="spacing" textLength="147" x="455" y="629.5332">SISTEMA_DISPONIBLE</text></g><!--link abrirExamenes to EXAMEN_ABIERTO--><g id="link_abrirExamenes_EXAMEN_ABIERTO"><path d="M88.43,453.45 C45.78,503.65 11.5,544 11.5,544 C11.5,544 11.5,580 11.5,580 C11.5,580 26.0173,591.7062 43.8573,606.0762 " fill="none" id="abrirExamenes-to-EXAMEN_ABIERTO" style="stroke:#008000;stroke-width:1.0;"/><polygon fill="#008000" points="48.53,609.84,44.0302,601.0792,44.6361,606.7035,39.0118,607.3094,48.53,609.84" style="stroke:#008000;stroke-width:1.0;"/><path d="M16.5,549 L16.5,575 L125.5,575 L125.5,559 L115.5,549 L16.5,549 " fill="#FEFFDD" style="stroke:#181818;stroke-width:0.5;"/><path d="M115.5,549 L115.5,559 L125.5,559 L115.5,549 " fill="#FEFFDD" style="stroke:#181818;stroke-width:0.5;"/><text fill="#000000" font-family="sans-serif" font-size="13" lengthAdjust="spacing" textLength="88" x="22.5" y="567.4951">editarExamen()</text></g><!--link abrirExamenes to EXAMEN_ABIERTO--><g id="link_abrirExamenes_EXAMEN_ABIERTO"><path d="M158.74,514.01 C144.54,552.66 134.5,580 134.5,580 C134.5,580 122.7802,591.3063 107.8702,605.6763 " fill="none" id="abrirExamenes-to-EXAMEN_ABIERTO-1" style="stroke:#008000;stroke-width:1.0;"/><polygon fill="#008000" points="103.55,609.84,112.806,606.4746,107.1501,606.3703,107.2544,600.7144,103.55,609.84" style="stroke:#008000;stroke-width:1.0;"/><path d="M151.5,549 L151.5,575 L257.5,575 L257.5,559 L247.5,549 L151.5,549 " fill="#FEFFDD" style="stroke:#181818;stroke-width:0.5;"/><path d="M247.5,549 L247.5,559 L257.5,559 L247.5,549 " fill="#FEFFDD" style="stroke:#181818;stroke-width:0.5;"/><text fill="#000000" font-family="sans-serif" font-size="13" lengthAdjust="spacing" textLength="85" x="157.5" y="567.4951">crearExamen()</text></g><!--link abrirExamenes to EXAMENES_ABIERTO--><g id="link_abrirExamenes_EXAMENES_ABIERTO"><path d="M304.39,514.09 C312.6,553.27 318.6322,582.077 323.2022,603.937 " fill="none" id="abrirExamenes-to-EXAMENES_ABIERTO" style="stroke:#008000;stroke-width:1.0;"/><polygon fill="#008000" points="324.43,609.81,326.5037,600.1819,323.4068,604.9158,318.6729,601.819,324.43,609.81" style="stroke:#008000;stroke-width:1.0;"/><path d="M322.5,549 L322.5,575 L444.5,575 L444.5,559 L434.5,549 L322.5,549 " fill="#FEFFDD" style="stroke:#181818;stroke-width:0.5;"/><path d="M434.5,549 L434.5,559 L444.5,559 L434.5,549 " fill="#FEFFDD" style="stroke:#181818;stroke-width:0.5;"/><text fill="#000000" font-family="sans-serif" font-size="13" lengthAdjust="spacing" textLength="101" x="328.5" y="567.4951">eliminarExamen()</text></g><!--link abrirExamenes to SISTEMA_DISPONIBLE--><g id="link_abrirExamenes_SISTEMA_DISPONIBLE"><path d="M414.63,480.88 C453.63,533.31 486.35,577.3151 507.05,605.1551 " fill="none" id="abrirExamenes-to-SISTEMA_DISPONIBLE" style="stroke:#008000;stroke-width:1.0;"/><polygon fill="#008000" points="510.63,609.97,508.4699,600.361,507.6466,605.9576,502.05,605.1343,510.63,609.97" style="stroke:#008000;stroke-width:1.0;"/><path d="M492.5,549 L492.5,575 L623.5,575 L623.5,559 L613.5,549 L492.5,549 " fill="#FEFFDD" style="stroke:#181818;stroke-width:0.5;"/><path d="M613.5,549 L613.5,559 L623.5,559 L613.5,549 " fill="#FEFFDD" style="stroke:#181818;stroke-width:0.5;"/><text fill="#000000" font-family="sans-serif" font-size="13" lengthAdjust="spacing" textLength="110" x="498.5" y="567.4951">completarGestion()</text></g><!--SRC=[dPDVQi904CRVznIBVT6Yz08Yn3OjWlzeV2X8aJKxsiNDRjXDYb8AlKfxXHx1c_GadMoq9858DJu4Ttypyyqt4xiHAcQ6HLGA1Sak1XfhkSl-468JbW1bIoEClsKHAB2KMTeedJHR3VfsP1luGsAaRMAOudeeyBnyTozayOxChvzfPtwrDW3gkTEhn5AYDCPgbUdRaEwov_58A94nN9lkpR97hPOY5CWwNHIs-q-dZ83Yr8NZGqWbSR5cHLErP82d435NB3PWGM6yT5au5EhzV7pHs_qt5slTnbR5Mh4aDQnDLn2-C0pLQtIQSUP8BvNiG75ay7O5LXkA1MAjB5jASDmKJ2HGqB5DGrTEhiabr32X0PPvaGs9gXHUTGq8Kg2XVsmTnVDNpXoD9QJit3ccdfXZkR_J0yXPjFHVcd3PpX6IAZTXYMkhur3eubAHTqBAdqQnaF_aZVpnmkiF_CVPf5mpzp8FQxOAmYzBvoPzGJO_g95tM8YpKWQ3OEQFlCNT89XEneF-qA-8r54i0Tj-09kWaSMqlm00]--></g></svg>