<?xml version="1.0" encoding="us-ascii" standalone="no"?><svg xmlns="http://www.w3.org/2000/svg" xmlns:xlink="http://www.w3.org/1999/xlink" contentStyleType="text/css" height="744px" preserveAspectRatio="none" style="width:580px;height:744px;background:#FFFFFF;" version="1.1" viewBox="0 0 580 744" width="580px" zoomAndPan="magnify"><defs/><g><path d="M19.5,7 L435.5,7 A12.5,12.5 0 0 1 448,19.5 L448,34.6094 L7,34.6094 L7,19.5 A12.5,12.5 0 0 1 19.5,7 " fill="#F1F1F1" style="stroke:#F1F1F1;stroke-width:1.0;"/><rect fill="none" height="568.6094" rx="12.5" ry="12.5" style="stroke:#181818;stroke-width:0.5;" width="441" x="7" y="7"/><line style="stroke:#181818;stroke-width:0.5;" x1="7" x2="448" y1="34.6094" y2="34.6094"/><text fill="#000000" font-family="sans-serif" font-size="14" lengthAdjust="spacing" textLength="90" x="182.5" y="26.5332">iniciarSesion()</text><g id="iniciarSesion.SolicitandoAcceso"><rect fill="#F1F1F1" height="50" rx="12.5" ry="12.5" style="stroke:#181818;stroke-width:0.5;" width="50" x="128" y="137.6094"/><line style="stroke:#181818;stroke-width:0.5;" x1="128" x2="178" y1="165.2188" y2="165.2188"/><text fill="#000000" font-family="sans-serif" font-size="14" lengthAdjust="spacing" textLength="4" x="151" y="157.1426">&#160;</text></g><g id="iniciarSesion.ProporcionandoCredenciales"><rect fill="#F1F1F1" height="50" rx="12.5" ry="12.5" style="stroke:#181818;stroke-width:0.5;" width="50" x="19" y="292.6094"/><line style="stroke:#181818;stroke-width:0.5;" x1="19" x2="69" y1="320.2188" y2="320.2188"/><text fill="#000000" font-family="sans-serif" font-size="14" lengthAdjust="spacing" textLength="4" x="42" y="312.1426">&#160;</text></g><g id="elem_c"><polygon fill="#F1F1F1" points="145,447.6094,157,459.6094,145,471.6094,133,459.6094,145,447.6094" style="stroke:#181818;stroke-width:0.5;"/></g><ellipse cx="153" cy="55.6094" fill="#222222" rx="10" ry="10" style="stroke:#222222;stroke-width:1.0;"/><ellipse cx="145" cy="554.6094" fill="none" rx="11" ry="11" style="stroke:#222222;stroke-width:1.0;"/><ellipse cx="145" cy="554.6094" fill="#222222" rx="6" ry="6" style="stroke:#222222;stroke-width:1.0;"/><!--link *start*iniciarSesion to SolicitandoAcceso--><g id="link_*start*iniciarSesion_SolicitandoAcceso"><path d="M153,65.9294 C153,81.7894 153,108.5194 153,131.2494 " fill="none" id="*start*iniciarSesion-to-SolicitandoAcceso" style="stroke:#008000;stroke-width:1.0;"/><polygon fill="#008000" points="153,137.2494,157,128.2494,153,132.2494,149,128.2494,153,137.2494" style="stroke:#008000;stroke-width:1.0;"/><path d="M158,88.6094 L158,114.6094 L386,114.6094 L386,98.6094 L376,88.6094 L158,88.6094 " fill="#FEFFDD" style="stroke:#181818;stroke-width:0.5;"/><path d="M376,88.6094 L376,98.6094 L386,98.6094 L376,88.6094 " fill="#FEFFDD" style="stroke:#181818;stroke-width:0.5;"/><text fill="#000000" font-family="sans-serif" font-size="13" font-weight="bold" lengthAdjust="spacing" textLength="48" x="164" y="107.1045">Usuario</text><text fill="#000000" font-family="sans-serif" font-size="13" lengthAdjust="spacing" textLength="155" x="216" y="107.1045">solicita acceder al sistema</text></g><!--link SolicitandoAcceso to ProporcionandoCredenciales--><g id="link_SolicitandoAcceso_ProporcionandoCredenciales"><path d="M127.93,175.3094 C101.3,187.7394 63,205.6094 63,205.6094 C63,205.6094 54.7228,253.9655 49.1328,286.6055 " fill="none" id="SolicitandoAcceso-to-ProporcionandoCredenciales" style="stroke:#008000;stroke-width:1.0;"/><polygon fill="#008000" points="48.12,292.5194,53.5818,284.3237,48.964,287.5911,45.6966,282.9733,48.12,292.5194" style="stroke:#008000;stroke-width:1.0;"/><path d="M68,210.6094 L68,269.6094 L244,269.6094 L244,220.6094 L234,210.6094 L68,210.6094 " fill="#FEFFDD" style="stroke:#181818;stroke-width:0.5;"/><path d="M234,210.6094 L234,220.6094 L244,220.6094 L234,210.6094 " fill="#FEFFDD" style="stroke:#181818;stroke-width:0.5;"/><text fill="#000000" font-family="sans-serif" font-size="13" font-weight="bold" lengthAdjust="spacing" textLength="51" x="74" y="229.1045">Sistema</text><text fill="#000000" font-family="sans-serif" font-size="13" lengthAdjust="spacing" textLength="100" x="129" y="229.1045">permite introducir</text><text fill="#000000" font-family="sans-serif" font-size="13" lengthAdjust="spacing" textLength="51" x="74" y="245.4561">&#8226; usuario</text><text fill="#000000" font-family="sans-serif" font-size="13" lengthAdjust="spacing" textLength="73" x="74" y="261.8076">&#8226; contrase&#241;a</text></g><!--link ProporcionandoCredenciales to c--><g id="link_ProporcionandoCredenciales_c"><path d="M34.69,343.0394 C31.17,352.2794 28,360.6094 28,360.6094 C28,360.6094 28,429.6094 28,429.6094 C28,429.6094 102.4159,448.0571 129.9959,454.8871 " fill="none" id="ProporcionandoCredenciales-to-c" style="stroke:#008000;stroke-width:1.0;"/><polygon fill="#008000" points="135.82,456.3294,128.0454,450.2832,130.9666,455.1275,126.1224,458.0487,135.82,456.3294" style="stroke:#008000;stroke-width:1.0;"/><path d="M33,365.6094 L33,424.6094 L244,424.6094 L244,375.6094 L234,365.6094 L33,365.6094 " fill="#FEFFDD" style="stroke:#181818;stroke-width:0.5;"/><path d="M234,365.6094 L234,375.6094 L244,375.6094 L234,365.6094 " fill="#FEFFDD" style="stroke:#181818;stroke-width:0.5;"/><text fill="#000000" font-family="sans-serif" font-size="13" font-weight="bold" lengthAdjust="spacing" textLength="133" x="39" y="384.1045">UsuarioNoRegistrado</text><text fill="#000000" font-family="sans-serif" font-size="13" lengthAdjust="spacing" textLength="53" x="176" y="384.1045">introduce</text><text fill="#000000" font-family="sans-serif" font-size="13" lengthAdjust="spacing" textLength="51" x="39" y="400.4561">&#8226; usuario</text><text fill="#000000" font-family="sans-serif" font-size="13" lengthAdjust="spacing" textLength="73" x="39" y="416.8076">&#8226; contrase&#241;a</text></g><!--link c to SolicitandoAcceso--><g id="link_c_SolicitandoAcceso"><path d="M153.87,456.1394 C179.02,449.1194 249,429.6094 249,429.6094 C249,429.6094 249,205.6094 249,205.6094 C249,205.6094 212.1674,189.4932 183.7174,177.0532 " fill="none" id="c-to-SolicitandoAcceso" style="stroke:#FF0000;stroke-width:1.0;"/><polygon fill="#FF0000" points="178.22,174.6494,184.8636,181.92,182.8012,176.6525,188.0687,174.5901,178.22,174.6494" style="stroke:#FF0000;stroke-width:1.0;"/><path d="M254,304.6094 L254,330.6094 L439,330.6094 L439,314.6094 L429,304.6094 L254,304.6094 " fill="#FEFFDD" style="stroke:#181818;stroke-width:0.5;"/><path d="M429,304.6094 L429,314.6094 L439,314.6094 L429,304.6094 " fill="#FEFFDD" style="stroke:#181818;stroke-width:0.5;"/><text fill="#000000" font-family="sans-serif" font-size="13" lengthAdjust="spacing" textLength="164" x="260" y="323.1045">usuario:contrase&#241;a no v&#225;lida</text></g><!--link c to *end*iniciarSesion--><g id="link_c_*end*iniciarSesion"><path d="M145,471.6394 C145,489.8294 145,519.8394 145,537.4394 " fill="none" id="c-to-*end*iniciarSesion" style="stroke:#008000;stroke-width:1.0;"/><polygon fill="#008000" points="145,543.4394,149,534.4394,145,538.4394,141,534.4394,145,543.4394" style="stroke:#008000;stroke-width:1.0;"/><path d="M150,494.6094 L150,520.6094 L317,520.6094 L317,504.6094 L307,494.6094 L150,494.6094 " fill="#FEFFDD" style="stroke:#181818;stroke-width:0.5;"/><path d="M307,494.6094 L307,504.6094 L317,504.6094 L307,494.6094 " fill="#FEFFDD" style="stroke:#181818;stroke-width:0.5;"/><text fill="#000000" font-family="sans-serif" font-size="13" lengthAdjust="spacing" textLength="146" x="156" y="513.1045">usuario:contrase&#241;a v&#225;lida</text></g><g id="SISTEMA_DISPONIBLE"><rect fill="#F1F1F1" height="50" rx="12.5" ry="12.5" style="stroke:#181818;stroke-width:0.5;" width="167" x="144" y="688"/><line style="stroke:#181818;stroke-width:0.5;" x1="144" x2="311" y1="715.6094" y2="715.6094"/><text fill="#000000" font-family="sans-serif" font-size="14" lengthAdjust="spacing" textLength="147" x="154" y="707.5332">SISTEMA_DISPONIBLE</text></g><!--link iniciarSesion to SISTEMA_DISPONIBLE--><g id="link_iniciarSesion_SISTEMA_DISPONIBLE"><path d="M227.5,576.09 C227.5,622.51 227.5,657.4 227.5,681.91 " fill="none" id="iniciarSesion-to-SISTEMA_DISPONIBLE" style="stroke:#008000;stroke-width:1.0;"/><polygon fill="#008000" points="227.5,687.91,231.5,678.91,227.5,682.91,223.5,678.91,227.5,687.91" style="stroke:#008000;stroke-width:1.0;"/><path d="M232.5,611 L232.5,653 L573.5,653 L573.5,621 L563.5,611 L232.5,611 " fill="#FEFFDD" style="stroke:#181818;stroke-width:0.5;"/><path d="M563.5,611 L563.5,621 L573.5,621 L563.5,611 " fill="#FEFFDD" style="stroke:#181818;stroke-width:0.5;"/><text fill="#000000" font-family="sans-serif" font-size="13" lengthAdjust="spacing" textLength="320" x="238.5" y="629.4951">Usuario autenticado &#8594; [Administrador|Profesor|Alumno]</text><text fill="#000000" font-family="sans-serif" font-size="13" lengthAdjust="spacing" textLength="110" x="238.5" y="645.8467">completarGestion()</text></g><!--SRC=[fPFHIiCm58RlynI7UQF2y5vAeUgGWSvXzMeCoTBZ34kJagJ2S89NFe1le6_WC-nDV1BFshgrRbF11We9_pd_bp-9cqYTSSjJK5AZdsO8cL7JnOGnvxb7a5eAoMsCJXeDt46hiRAxru87ne2-Kj-YGQhOA59vhXCJ2O7Eh4lwrcJ62cgoK1rRJ51JOuKEeAOM40JYpaY1OLWQ3VQ7q1xiZ2sY7hR3TQ-oN1kg9cRQpQHO24RXjSkvbIOu68NWgZBWL9IW1Qx0IUSnvOKSTLBsW8gd-AsRrL6sxsahKbnQ5aWPsbGMeNjhabn8MwW-djuWBycNSs58mntEtvkqAz8VygqZYz_2wfbB71EavKaPt1ST_WDEB1W8QUFvRIQgJ0vhpKa4z_DN9PDlFYkFvJxfrlozxyQcZumrNqFZ4dRZgyvvT7FIZViNlUxHMOSrdAemWUSUjPU2meIFvnSOH4bANSjuxOmExPOIiBD8vQasGoPCcYdqt9wYyyM3OqkWJm00]--></g></svg>