<?xml version="1.0" encoding="us-ascii" standalone="no"?><svg xmlns="http://www.w3.org/2000/svg" xmlns:xlink="http://www.w3.org/1999/xlink" contentStyleType="text/css" height="835px" preserveAspectRatio="none" style="width:447px;height:835px;background:#FFFFFF;" version="1.1" viewBox="0 0 447 835" width="447px" zoomAndPan="magnify"><defs/><g><path d="M19.5,7 L421.5,7 A12.5,12.5 0 0 1 434,19.5 L434,34.6094 L7,34.6094 L7,19.5 A12.5,12.5 0 0 1 19.5,7 " fill="#F1F1F1" style="stroke:#F1F1F1;stroke-width:1.0;"/><rect fill="none" height="675.6094" rx="12.5" ry="12.5" style="stroke:#181818;stroke-width:0.5;" width="427" x="7" y="7"/><line style="stroke:#181818;stroke-width:0.5;" x1="7" x2="434" y1="34.6094" y2="34.6094"/><text fill="#000000" font-family="sans-serif" font-size="14" lengthAdjust="spacing" textLength="71" x="185" y="26.5332">crearAula()</text><g id="crearAula.MostrandoFormulario"><rect fill="#F1F1F1" height="50" rx="12.5" ry="12.5" style="stroke:#181818;stroke-width:0.5;" width="50" x="19" y="137.6094"/><line style="stroke:#181818;stroke-width:0.5;" x1="19" x2="69" y1="165.2188" y2="165.2188"/><text fill="#000000" font-family="sans-serif" font-size="14" lengthAdjust="spacing" textLength="4" x="42" y="157.1426">&#160;</text></g><g id="crearAula.GuardandoDatos"><rect fill="#F1F1F1" height="50" rx="12.5" ry="12.5" style="stroke:#181818;stroke-width:0.5;" width="50" x="19" y="528.6094"/><line style="stroke:#181818;stroke-width:0.5;" x1="19" x2="69" y1="556.2188" y2="556.2188"/><text fill="#000000" font-family="sans-serif" font-size="14" lengthAdjust="spacing" textLength="4" x="42" y="548.1426">&#160;</text></g><g id="crearAula.ValidandoDatos"><rect fill="#F1F1F1" height="50" rx="12.5" ry="12.5" style="stroke:#181818;stroke-width:0.5;" width="50" x="19" y="373.6094"/><line style="stroke:#181818;stroke-width:0.5;" x1="19" x2="69" y1="401.2188" y2="401.2188"/><text fill="#000000" font-family="sans-serif" font-size="14" lengthAdjust="spacing" textLength="4" x="42" y="393.1426">&#160;</text></g><ellipse cx="44" cy="55.6094" fill="#222222" rx="10" ry="10" style="stroke:#222222;stroke-width:1.0;"/><ellipse cx="44" cy="661.6094" fill="none" rx="11" ry="11" style="stroke:#222222;stroke-width:1.0;"/><ellipse cx="44" cy="661.6094" fill="#222222" rx="6" ry="6" style="stroke:#222222;stroke-width:1.0;"/><!--link *start*crearAula to MostrandoFormulario--><g id="link_*start*crearAula_MostrandoFormulario"><path d="M44,65.9294 C44,81.7894 44,108.5194 44,131.2494 " fill="none" id="*start*crearAula-to-MostrandoFormulario" style="stroke:#008000;stroke-width:1.0;"/><polygon fill="#008000" points="44,137.2494,48,128.2494,44,132.2494,40,128.2494,44,137.2494" style="stroke:#008000;stroke-width:1.0;"/><path d="M49,88.6094 L49,114.6094 L265,114.6094 L265,98.6094 L255,88.6094 L49,88.6094 " fill="#FEFFDD" style="stroke:#181818;stroke-width:0.5;"/><path d="M255,88.6094 L255,98.6094 L265,98.6094 L255,88.6094 " fill="#FEFFDD" style="stroke:#181818;stroke-width:0.5;"/><text fill="#000000" font-family="sans-serif" font-size="13" font-weight="bold" lengthAdjust="spacing" textLength="89" x="55" y="107.1045">Administrador</text><text fill="#000000" font-family="sans-serif" font-size="13" lengthAdjust="spacing" textLength="102" x="148" y="107.1045">solicita crear aula</text></g><!--link MostrandoFormulario to ValidandoDatos--><g id="link_MostrandoFormulario_ValidandoDatos"><path d="M44,187.7694 C44,232.7294 44,322.7194 44,367.5794 " fill="none" id="MostrandoFormulario-to-ValidandoDatos" style="stroke:#008000;stroke-width:1.0;"/><polygon fill="#008000" points="44,373.5794,48,364.5794,44,368.5794,40,364.5794,44,373.5794" style="stroke:#008000;stroke-width:1.0;"/><path d="M49,210.6094 L49,350.6094 L306,350.6094 L306,220.6094 L296,210.6094 L49,210.6094 " fill="#FEFFDD" style="stroke:#181818;stroke-width:0.5;"/><path d="M296,210.6094 L296,220.6094 L306,220.6094 L296,210.6094 " fill="#FEFFDD" style="stroke:#181818;stroke-width:0.5;"/><text fill="#000000" font-family="sans-serif" font-size="13" font-weight="bold" lengthAdjust="spacing" textLength="51" x="55" y="229.1045">Sistema</text><text fill="#000000" font-family="sans-serif" font-size="13" lengthAdjust="spacing" textLength="181" x="110" y="229.1045">presenta formulario de creaci&#243;n</text><text fill="#000000" font-family="sans-serif" font-size="13" lengthAdjust="spacing" textLength="199" x="55" y="245.4561">&#8226; Permite introducir c&#243;digo de aula</text><text fill="#000000" font-family="sans-serif" font-size="13" lengthAdjust="spacing" textLength="207" x="55" y="261.8076">&#8226; Permite introducir nombre del aula</text><text fill="#000000" font-family="sans-serif" font-size="13" lengthAdjust="spacing" textLength="224" x="55" y="278.1592">&#8226; Permite introducir capacidad m&#225;xima</text><text fill="#000000" font-family="sans-serif" font-size="13" lengthAdjust="spacing" textLength="205" x="55" y="294.5107">&#8226; Permite introducir edificio y planta</text><text fill="#000000" font-family="sans-serif" font-size="13" lengthAdjust="spacing" textLength="182" x="55" y="310.8623">&#8226; Permite introducir tipo de aula</text><text fill="#000000" font-family="sans-serif" font-size="13" lengthAdjust="spacing" textLength="178" x="55" y="327.2139">&#8226; Permite solicitar guardar aula</text><text fill="#000000" font-family="sans-serif" font-size="13" lengthAdjust="spacing" textLength="209" x="55" y="343.5654">&#8226; Permite solicitar cancelar creaci&#243;n</text></g><!--link ValidandoDatos to GuardandoDatos--><g id="link_ValidandoDatos_GuardandoDatos"><path d="M44,423.8494 C44,452.4994 44,493.8794 44,522.4794 " fill="none" id="ValidandoDatos-to-GuardandoDatos" style="stroke:#008000;stroke-width:1.0;"/><polygon fill="#008000" points="44,528.4794,48,519.4794,44,523.4794,40,519.4794,44,528.4794" style="stroke:#008000;stroke-width:1.0;"/><path d="M49,446.6094 L49,505.6094 L394,505.6094 L394,456.6094 L384,446.6094 L49,446.6094 " fill="#FEFFDD" style="stroke:#181818;stroke-width:0.5;"/><path d="M384,446.6094 L384,456.6094 L394,456.6094 L384,446.6094 " fill="#FEFFDD" style="stroke:#181818;stroke-width:0.5;"/><text fill="#000000" font-family="sans-serif" font-size="13" font-weight="bold" lengthAdjust="spacing" textLength="89" x="55" y="465.1045">Administrador</text><text fill="#000000" font-family="sans-serif" font-size="13" lengthAdjust="spacing" textLength="192" x="148" y="465.1045">introduce datos y solicita guardar</text><text fill="#000000" font-family="sans-serif" font-size="13" font-weight="bold" lengthAdjust="spacing" textLength="51" x="55" y="481.4561">Sistema</text><text fill="#000000" font-family="sans-serif" font-size="13" lengthAdjust="spacing" textLength="242" x="110" y="481.4561">presenta validaci&#243;n de campos requeridos</text><text fill="#000000" font-family="sans-serif" font-size="13" font-weight="bold" lengthAdjust="spacing" textLength="51" x="55" y="497.8076">Sistema</text><text fill="#000000" font-family="sans-serif" font-size="13" lengthAdjust="spacing" textLength="269" x="110" y="497.8076">presenta validaci&#243;n de que el c&#243;digo sea &#250;nico</text></g><!--link GuardandoDatos to *end*crearAula--><g id="link_GuardandoDatos_*end*crearAula"><path d="M44,578.6594 C44,601.2594 44,627.9894 44,644.4094 " fill="none" id="GuardandoDatos-to-*end*crearAula" style="stroke:#008000;stroke-width:1.0;"/><polygon fill="#008000" points="44,650.4094,48,641.4094,44,645.4094,40,641.4094,44,650.4094" style="stroke:#008000;stroke-width:1.0;"/><path d="M49,601.6094 L49,627.6094 L425,627.6094 L425,611.6094 L415,601.6094 L49,601.6094 " fill="#FEFFDD" style="stroke:#181818;stroke-width:0.5;"/><path d="M415,601.6094 L415,611.6094 L425,611.6094 L415,601.6094 " fill="#FEFFDD" style="stroke:#181818;stroke-width:0.5;"/><text fill="#000000" font-family="sans-serif" font-size="13" font-weight="bold" lengthAdjust="spacing" textLength="51" x="55" y="620.1045">Sistema</text><text fill="#000000" font-family="sans-serif" font-size="13" lengthAdjust="spacing" textLength="300" x="110" y="620.1045">visualiza y guarda la nueva aula en la base de datos</text></g><g id="AULA_ABIERTA"><rect fill="#F1F1F1" height="50" rx="12.5" ry="12.5" style="stroke:#181818;stroke-width:0.5;" width="121" x="79" y="779"/><line style="stroke:#181818;stroke-width:0.5;" x1="79" x2="200" y1="806.6094" y2="806.6094"/><text fill="#000000" font-family="sans-serif" font-size="14" lengthAdjust="spacing" textLength="101" x="89" y="798.5332">AULA_ABIERTA</text></g><g id="AULAS_ABIERTO"><rect fill="#F1F1F1" height="50" rx="12.5" ry="12.5" style="stroke:#181818;stroke-width:0.5;" width="132" x="235.5" y="779"/><line style="stroke:#181818;stroke-width:0.5;" x1="235.5" x2="367.5" y1="806.6094" y2="806.6094"/><text fill="#000000" font-family="sans-serif" font-size="14" lengthAdjust="spacing" textLength="112" x="245.5" y="798.5332">AULAS_ABIERTO</text></g><!--link crearAula to AULA_ABIERTA--><g id="link_crearAula_AULA_ABIERTA"><path d="M160.73,683.23 C153.63,723.28 148.6074,751.6021 144.7974,773.0921 " fill="none" id="crearAula-to-AULA_ABIERTA" style="stroke:#008000;stroke-width:1.0;"/><polygon fill="#008000" points="143.75,779,149.2597,770.8365,144.6228,774.0768,141.3825,769.4399,143.75,779" style="stroke:#008000;stroke-width:1.0;"/><path d="M160.5,718 L160.5,744 L247.5,744 L247.5,728 L237.5,718 L160.5,718 " fill="#FEFFDD" style="stroke:#181818;stroke-width:0.5;"/><path d="M237.5,718 L237.5,728 L247.5,728 L237.5,718 " fill="#FEFFDD" style="stroke:#181818;stroke-width:0.5;"/><text fill="#000000" font-family="sans-serif" font-size="13" lengthAdjust="spacing" textLength="66" x="166.5" y="736.4951">editarAula()</text></g><!--link crearAula to AULAS_ABIERTO--><g id="link_crearAula_AULAS_ABIERTO"><path d="M280.27,683.23 C287.37,723.28 292.3926,751.6021 296.2026,773.0921 " fill="none" id="crearAula-to-AULAS_ABIERTO" style="stroke:#008000;stroke-width:1.0;"/><polygon fill="#008000" points="297.25,779,299.6175,769.4399,296.3772,774.0768,291.7403,770.8365,297.25,779" style="stroke:#008000;stroke-width:1.0;"/><path d="M295.5,718 L295.5,744 L382.5,744 L382.5,728 L372.5,718 L295.5,718 " fill="#FEFFDD" style="stroke:#181818;stroke-width:0.5;"/><path d="M372.5,718 L372.5,728 L382.5,728 L372.5,718 " fill="#FEFFDD" style="stroke:#181818;stroke-width:0.5;"/><text fill="#000000" font-family="sans-serif" font-size="13" lengthAdjust="spacing" textLength="66" x="301.5" y="736.4951">abrirAulas()</text></g><!--SRC=[ZLF1RjGm4BtxAqRBfI1L_42rKX0K8HLHjS2bgj34dgv6JUnqxAnO41A_0h_G6zVz4xw4YRVf9glDqkGIny_llPatZhVi6nIieM9FQTKGDA5QTGjZOi94O8LGYhP2m0YpnzNHynbyxp4pVNNtVOX9qBjm6gHMZ70O0zwsAAu3lCOKudZlCrOys3DNBwxX-EhPGeZyzV5y7paO7vGW-CxzhJafvuMhsNC7T45ENfPpYA5YomatTG3gIKFUGJwfZp7xY8V2EyPs9IzLZchCOerG9AzYDrigjscXvVMzDtz__ePpafgLWtsIu5hB0dPzxtYHiTdW1Co7kXHIL7KGPh5HEOSEwlMlhrnF0idnZJOdm0gQ2jNt531nizzStrs1HOvM3a4iUajLz_7OZpu9OyPT7WMmCpN_pxnthgtAPAlj53pOd0nkcMraSpavh1ib4BfhITYf-XCFAXuqfZxOI0ZhFvvj69GyhcjKiWx_mK5RScnLy1jgRPkIG2-eRsc9EG4Wt_qeCNRZicd3Llc7CTjRFPGjFfqLNufNxzvSV2p6-ZeggR_uWnAcQIuVU3wCUR0KpWVYaESV]--></g></svg>