<?xml version="1.0" encoding="us-ascii" standalone="no"?><svg xmlns="http://www.w3.org/2000/svg" xmlns:xlink="http://www.w3.org/1999/xlink" contentStyleType="text/css" height="713px" preserveAspectRatio="none" style="width:749px;height:713px;background:#FFFFFF;" version="1.1" viewBox="0 0 749 713" width="749px" zoomAndPan="magnify"><defs/><g><path d="M19.5,7 L723.5,7 A12.5,12.5 0 0 1 736,19.5 L736,34.6094 L7,34.6094 L7,19.5 A12.5,12.5 0 0 1 19.5,7 " fill="#F1F1F1" style="stroke:#F1F1F1;stroke-width:1.0;"/><rect fill="none" height="553.6094" rx="12.5" ry="12.5" style="stroke:#181818;stroke-width:0.5;" width="729" x="7" y="7"/><line style="stroke:#181818;stroke-width:0.5;" x1="7" x2="736" y1="34.6094" y2="34.6094"/><text fill="#000000" font-family="sans-serif" font-size="14" lengthAdjust="spacing" textLength="208" x="267.5" y="26.5332">descargarCalendarioExamenes()</text><g id="descargarCalendarioExamenes.SeleccionandoFormato"><rect fill="#F1F1F1" height="50" rx="12.5" ry="12.5" style="stroke:#181818;stroke-width:0.5;" width="50" x="187" y="137.6094"/><line style="stroke:#181818;stroke-width:0.5;" x1="187" x2="237" y1="165.2188" y2="165.2188"/><text fill="#000000" font-family="sans-serif" font-size="14" lengthAdjust="spacing" textLength="4" x="210" y="157.1426">&#160;</text></g><g id="descargarCalendarioExamenes.GenerandoArchivo"><rect fill="#F1F1F1" height="50" rx="12.5" ry="12.5" style="stroke:#181818;stroke-width:0.5;" width="50" x="187" y="341.6094"/><line style="stroke:#181818;stroke-width:0.5;" x1="187" x2="237" y1="369.2188" y2="369.2188"/><text fill="#000000" font-family="sans-serif" font-size="14" lengthAdjust="spacing" textLength="4" x="210" y="361.1426">&#160;</text></g><ellipse cx="212" cy="55.6094" fill="#222222" rx="10" ry="10" style="stroke:#222222;stroke-width:1.0;"/><ellipse cx="212" cy="539.6094" fill="none" rx="11" ry="11" style="stroke:#222222;stroke-width:1.0;"/><ellipse cx="212" cy="539.6094" fill="#222222" rx="6" ry="6" style="stroke:#222222;stroke-width:1.0;"/><!--link *start*descargarCalendarioExamenes to SeleccionandoFormato--><g id="link_*start*descargarCalendarioExamenes_SeleccionandoFormato"><path d="M212,65.9294 C212,81.7894 212,108.5194 212,131.2494 " fill="none" id="*start*descargarCalendarioExamenes-to-SeleccionandoFormato" style="stroke:#008000;stroke-width:1.0;"/><polygon fill="#008000" points="212,137.2494,216,128.2494,212,132.2494,208,128.2494,212,137.2494" style="stroke:#008000;stroke-width:1.0;"/><path d="M217,88.6094 L217,114.6094 L496,114.6094 L496,98.6094 L486,88.6094 L217,88.6094 " fill="#FEFFDD" style="stroke:#181818;stroke-width:0.5;"/><path d="M486,88.6094 L486,98.6094 L496,98.6094 L486,88.6094 " fill="#FEFFDD" style="stroke:#181818;stroke-width:0.5;"/><text fill="#000000" font-family="sans-serif" font-size="13" font-weight="bold" lengthAdjust="spacing" textLength="89" x="223" y="107.1045">Administrador</text><text fill="#000000" font-family="sans-serif" font-size="13" lengthAdjust="spacing" textLength="165" x="316" y="107.1045">solicita descargar calendario</text></g><!--link SeleccionandoFormato to GenerandoArchivo--><g id="link_SeleccionandoFormato_GenerandoArchivo"><path d="M212,187.9794 C212,226.9094 212,296.6894 212,335.4694 " fill="none" id="SeleccionandoFormato-to-GenerandoArchivo" style="stroke:#008000;stroke-width:1.0;"/><polygon fill="#008000" points="212,341.4694,216,332.4694,212,336.4694,208,332.4694,212,341.4694" style="stroke:#008000;stroke-width:1.0;"/><path d="M217,210.6094 L217,318.6094 L484,318.6094 L484,220.6094 L474,210.6094 L217,210.6094 " fill="#FEFFDD" style="stroke:#181818;stroke-width:0.5;"/><path d="M474,210.6094 L474,220.6094 L484,220.6094 L474,210.6094 " fill="#FEFFDD" style="stroke:#181818;stroke-width:0.5;"/><text fill="#000000" font-family="sans-serif" font-size="13" font-weight="bold" lengthAdjust="spacing" textLength="51" x="223" y="229.1045">Sistema</text><text fill="#000000" font-family="sans-serif" font-size="13" lengthAdjust="spacing" textLength="181" x="278" y="229.1045">presenta opciones de descarga</text><text fill="#000000" font-family="sans-serif" font-size="13" lengthAdjust="spacing" textLength="246" x="223" y="245.4561">&#8226; Permite seleccionar formato (PDF/Excel)</text><text fill="#000000" font-family="sans-serif" font-size="13" lengthAdjust="spacing" textLength="232" x="223" y="261.8076">&#8226; Permite seleccionar per&#237;odo a exportar</text><text fill="#000000" font-family="sans-serif" font-size="13" lengthAdjust="spacing" textLength="243" x="223" y="278.1592">&#8226; Permite seleccionar informaci&#243;n a incluir</text><text fill="#000000" font-family="sans-serif" font-size="13" lengthAdjust="spacing" textLength="194" x="223" y="294.5107">&#8226; Permite solicitar generar archivo</text><text fill="#000000" font-family="sans-serif" font-size="13" lengthAdjust="spacing" textLength="213" x="223" y="310.8623">&#8226; Permite solicitar cancelar descarga</text></g><!--link GenerandoArchivo to *end*descargarCalendarioExamenes--><g id="link_GenerandoArchivo_*end*descargarCalendarioExamenes"><path d="M186.64,373.0994 C134.05,384.4894 18,409.6094 18,409.6094 C18,409.6094 18,510.6094 18,510.6094 C18,510.6094 154.6815,530.3323 195.3515,536.2023 " fill="none" id="GenerandoArchivo-to-*end*descargarCalendarioExamenes" style="stroke:#008000;stroke-width:1.0;"/><polygon fill="#008000" points="201.29,537.0594,192.9537,531.8147,196.3413,536.3451,191.8109,539.7327,201.29,537.0594" style="stroke:#008000;stroke-width:1.0;"/><path d="M23,414.6094 L23,505.6094 L381,505.6094 L381,424.6094 L371,414.6094 L23,414.6094 " fill="#FEFFDD" style="stroke:#181818;stroke-width:0.5;"/><path d="M371,414.6094 L371,424.6094 L381,424.6094 L371,414.6094 " fill="#FEFFDD" style="stroke:#181818;stroke-width:0.5;"/><text fill="#000000" font-family="sans-serif" font-size="13" font-weight="bold" lengthAdjust="spacing" textLength="89" x="29" y="433.1045">Administrador</text><text fill="#000000" font-family="sans-serif" font-size="13" lengthAdjust="spacing" textLength="244" x="122" y="433.1045">introduce preferencias y solicita descargar</text><text fill="#000000" font-family="sans-serif" font-size="13" font-weight="bold" lengthAdjust="spacing" textLength="51" x="29" y="449.4561">Sistema</text><text fill="#000000" font-family="sans-serif" font-size="13" lengthAdjust="spacing" textLength="245" x="84" y="449.4561">visualiza y genera el archivo del calendario</text><text fill="#000000" font-family="sans-serif" font-size="13" font-weight="bold" lengthAdjust="spacing" textLength="51" x="29" y="465.8076">Sistema</text><text fill="#000000" font-family="sans-serif" font-size="13" lengthAdjust="spacing" textLength="237" x="84" y="465.8076">visualiza y prepara archivo para descarga</text><text fill="#000000" font-family="sans-serif" font-size="13" font-weight="bold" lengthAdjust="spacing" textLength="51" x="29" y="482.1592">Sistema</text><text fill="#000000" font-family="sans-serif" font-size="13" lengthAdjust="spacing" textLength="167" x="84" y="482.1592">presenta enlace de descarga</text><text fill="#000000" font-family="sans-serif" font-size="13" font-weight="bold" lengthAdjust="spacing" textLength="89" x="29" y="498.5107">Administrador</text><text fill="#000000" font-family="sans-serif" font-size="13" lengthAdjust="spacing" textLength="146" x="122" y="498.5107">solicita descargar archivo</text></g><!--link GenerandoArchivo to *end*descargarCalendarioExamenes--><g id="link_GenerandoArchivo_*end*descargarCalendarioExamenes"><path d="M237.3,373.7194 C285.56,385.3694 386,409.6094 386,409.6094 C386,409.6094 386,510.6094 386,510.6094 C386,510.6094 266.9038,529.7763 228.8038,535.9063 " fill="none" id="GenerandoArchivo-to-*end*descargarCalendarioExamenes-1" style="stroke:#FF0000;stroke-width:1.0;"/><polygon fill="#FF0000" points="222.88,536.8594,232.4011,539.3789,227.8165,536.0651,231.1303,531.4805,222.88,536.8594" style="stroke:#FF0000;stroke-width:1.0;"/><path d="M391,439.1094 L391,481.1094 L727,481.1094 L727,449.1094 L717,439.1094 L391,439.1094 " fill="#FEFFDD" style="stroke:#181818;stroke-width:0.5;"/><path d="M717,439.1094 L717,449.1094 L727,449.1094 L717,439.1094 " fill="#FEFFDD" style="stroke:#181818;stroke-width:0.5;"/><text fill="#000000" font-family="sans-serif" font-size="13" font-weight="bold" lengthAdjust="spacing" textLength="89" x="397" y="457.6045">Administrador</text><text fill="#000000" font-family="sans-serif" font-size="13" lengthAdjust="spacing" textLength="151" x="490" y="457.6045">solicita cancelar descarga</text><text fill="#000000" font-family="sans-serif" font-size="13" font-weight="bold" lengthAdjust="spacing" textLength="51" x="397" y="473.9561">Sistema</text><text fill="#000000" font-family="sans-serif" font-size="13" lengthAdjust="spacing" textLength="260" x="452" y="473.9561">visualiza y descarta la generaci&#243;n del archivo</text></g><g id="CALENDARIO_ABIERTO"><rect fill="#F1F1F1" height="50" rx="12.5" ry="12.5" style="stroke:#181818;stroke-width:0.5;" width="176" x="283.5" y="657"/><line style="stroke:#181818;stroke-width:0.5;" x1="283.5" x2="459.5" y1="684.6094" y2="684.6094"/><text fill="#000000" font-family="sans-serif" font-size="14" lengthAdjust="spacing" textLength="156" x="293.5" y="676.5332">CALENDARIO_ABIERTO</text></g><!--link descargarCalendarioExamenes to CALENDARIO_ABIERTO--><g id="link_descargarCalendarioExamenes_CALENDARIO_ABIERTO"><path d="M282.17,561.1 C276.2,579.56 272.5,591 272.5,591 C272.5,591 272.5,627 272.5,627 C272.5,627 295.5819,639.5981 321.9419,653.9681 " fill="none" id="descargarCalendarioExamenes-to-CALENDARIO_ABIERTO" style="stroke:#008000;stroke-width:1.0;"/><polygon fill="#008000" points="327.21,656.84,321.2225,649.0202,322.8199,654.4468,317.3933,656.0443,327.21,656.84" style="stroke:#008000;stroke-width:1.0;"/><path d="M277.5,596 L277.5,622 L420.5,622 L420.5,606 L410.5,596 L277.5,596 " fill="#FEFFDD" style="stroke:#181818;stroke-width:0.5;"/><path d="M410.5,596 L410.5,606 L420.5,606 L410.5,596 " fill="#FEFFDD" style="stroke:#181818;stroke-width:0.5;"/><text fill="#000000" font-family="sans-serif" font-size="13" lengthAdjust="spacing" textLength="122" x="283.5" y="614.4951">consultarCalendario()</text></g><!--link descargarCalendarioExamenes to CALENDARIO_ABIERTO--><g id="link_descargarCalendarioExamenes_CALENDARIO_ABIERTO"><path d="M423.83,561.1 C427.33,579.56 429.5,591 429.5,591 C429.5,591 429.5,627 429.5,627 C429.5,627 417.2821,638.3823 401.8421,652.7523 " fill="none" id="descargarCalendarioExamenes-to-CALENDARIO_ABIERTO-1" style="stroke:#FF0000;stroke-width:1.0;"/><polygon fill="#FF0000" points="397.45,656.84,406.7633,653.6365,401.1101,653.4336,401.313,647.7804,397.45,656.84" style="stroke:#FF0000;stroke-width:1.0;"/><path d="M434.5,596 L434.5,622 L561.5,622 L561.5,606 L551.5,596 L434.5,596 " fill="#FEFFDD" style="stroke:#181818;stroke-width:0.5;"/><path d="M551.5,596 L551.5,606 L561.5,606 L551.5,596 " fill="#FEFFDD" style="stroke:#181818;stroke-width:0.5;"/><text fill="#000000" font-family="sans-serif" font-size="13" lengthAdjust="spacing" textLength="106" x="440.5" y="614.4951">cancelar descarga</text></g><!--SRC=[ZLJ1Qjj04BtlLopknIw4_40mg8bJ0YK9IMyXbCdkn1socXMpSh1J2lsMtdlg9-HF-YKTsR9aERPYT90MlNbltfkHqXDn0GAv3SHOBWgqHGoBwc1CAg54wp4va2d8AGHa3q9nCeSS6PE5P0SzxuUZWVsnvXdefVXR3EWSHGRsyJnA3cNi8ZvhgLHlCt7VwJaQS_VntXxTVPWA8jyVZNTpS5IAo9MH9tFoCCvyJaof5F1HJeuVnZR5G8vAQ2rPr_Hiz6uh3cDsqNVqttIuhNshkfZ3KhKGJCYg6ekAKrFpRQZctw_VzXeb9oL8ZQxOnrfsU7rsVZoPEmoZlTW2vVLFzD62nNaHfGJPYoLUCZjw_SkA9tPXHblmEYQnqwLFiL3Rt8romDgUFZIcsYYta-h4g6CzO6h4fKG_SrWb-OY2x4YtPB5ZdDlHFrEQGQ0NKFJAYyMmTgDbONF-FRKgN7qaJUNoqBZTDs_a00uxqpvqBTU1zmSfw0-FiL5vEwuUvokCLWMe4rnjZczpR9lyQKpVps9pzAVPbydbMNPpSVKj-tGnkVbwrRNW8gTPA3TvXgEDEDxHgPDvLsN_vlu7]--></g></svg>