<?xml version="1.0" encoding="us-ascii" standalone="no"?><svg xmlns="http://www.w3.org/2000/svg" xmlns:xlink="http://www.w3.org/1999/xlink" contentStyleType="text/css" height="1015px" preserveAspectRatio="none" style="width:1320px;height:1015px;background:#FFFFFF;" version="1.1" viewBox="0 0 1320 1015" width="1320px" zoomAndPan="magnify"><defs/><g><rect fill="#FFFFFF" height="289.4411" style="stroke:#181818;stroke-width:1.0;" width="10" x="577" y="540.5058"/><rect fill="#FFFFFF" height="30.3441" style="stroke:#181818;stroke-width:1.0;" width="10" x="693" y="215.0647"/><rect fill="#FFFFFF" height="30.3441" style="stroke:#181818;stroke-width:1.0;" width="10" x="693" y="324.4411"/><rect fill="#FFFFFF" height="212.4088" style="stroke:#181818;stroke-width:1.0;" width="10" x="816.5" y="587.1941"/><rect fill="#FFFFFF" height="182.0647" style="stroke:#181818;stroke-width:1.0;" width="10" x="961.5" y="617.5382"/><rect fill="#FFFFFF" height="60.6882" style="stroke:#181818;stroke-width:1.0;" width="10" x="1106.5" y="678.2264"/><rect fill="none" height="220.097" style="stroke:#000000;stroke-width:1.5;" width="748" x="10" y="142.6882"/><line style="stroke:#181818;stroke-width:0.5;stroke-dasharray:5.0,5.0;" x1="47" x2="47" y1="81.3441" y2="934.6352"/><line style="stroke:#181818;stroke-width:0.5;stroke-dasharray:5.0,5.0;" x1="395.5" x2="395.5" y1="81.3441" y2="934.6352"/><line style="stroke:#181818;stroke-width:0.5;stroke-dasharray:5.0,5.0;" x1="582" x2="582" y1="81.3441" y2="934.6352"/><line style="stroke:#181818;stroke-width:0.5;stroke-dasharray:5.0,5.0;" x1="698" x2="698" y1="81.3441" y2="934.6352"/><line style="stroke:#181818;stroke-width:0.5;stroke-dasharray:5.0,5.0;" x1="821" x2="821" y1="81.3441" y2="934.6352"/><line style="stroke:#181818;stroke-width:0.5;stroke-dasharray:5.0,5.0;" x1="966.5" x2="966.5" y1="81.3441" y2="934.6352"/><line style="stroke:#181818;stroke-width:0.5;stroke-dasharray:5.0,5.0;" x1="1111.5" x2="1111.5" y1="81.3441" y2="934.6352"/><line style="stroke:#181818;stroke-width:0.5;stroke-dasharray:5.0,5.0;" x1="1285" x2="1285" y1="81.3441" y2="934.6352"/><text fill="#000000" font-family="sans-serif" font-size="12" lengthAdjust="spacing" textLength="48" x="20" y="77.8281">Profesor</text><ellipse cx="47" cy="13.5" fill="#E2E2F0" rx="8" ry="8" style="stroke:#181818;stroke-width:0.5;"/><path d="M47,21.5 L47,48.5 M34,29.5 L60,29.5 M47,48.5 L34,63.5 M47,48.5 L60,63.5 " fill="none" style="stroke:#181818;stroke-width:0.5;"/><text fill="#000000" font-family="sans-serif" font-size="12" lengthAdjust="spacing" textLength="48" x="20" y="946.4633">Profesor</text><ellipse cx="47" cy="958.4793" fill="#E2E2F0" rx="8" ry="8" style="stroke:#181818;stroke-width:0.5;"/><path d="M47,966.4793 L47,993.4793 M34,974.4793 L60,974.4793 M47,993.4793 L34,1008.4793 M47,993.4793 L60,1008.4793 " fill="none" style="stroke:#181818;stroke-width:0.5;"/><rect fill="#E2E2F0" height="63.0323" rx="2.5" ry="2.5" style="stroke:#181818;stroke-width:0.5;" width="197" x="297.5" y="17.3118"/><text fill="#000000" font-family="sans-serif" font-size="12" font-style="italic" lengthAdjust="spacing" textLength="65" x="363.5" y="37.1399">&#171;Boundary&#187;</text><text fill="#000000" font-family="sans-serif" font-size="12" lengthAdjust="spacing" textLength="183" x="304.5" y="53.484">ComunicarIncidenciaComponent</text><text fill="#000000" font-family="sans-serif" font-size="12" lengthAdjust="spacing" textLength="52" x="370" y="69.8281">(Angular)</text><rect fill="#E2E2F0" height="63.0323" rx="2.5" ry="2.5" style="stroke:#181818;stroke-width:0.5;" width="197" x="297.5" y="933.6352"/><text fill="#000000" font-family="sans-serif" font-size="12" font-style="italic" lengthAdjust="spacing" textLength="65" x="363.5" y="953.4633">&#171;Boundary&#187;</text><text fill="#000000" font-family="sans-serif" font-size="12" lengthAdjust="spacing" textLength="183" x="304.5" y="969.8074">ComunicarIncidenciaComponent</text><text fill="#000000" font-family="sans-serif" font-size="12" lengthAdjust="spacing" textLength="52" x="370" y="986.1515">(Angular)</text><rect fill="#E2E2F0" height="63.0323" rx="2.5" ry="2.5" style="stroke:#181818;stroke-width:0.5;" width="112" x="526" y="17.3118"/><text fill="#000000" font-family="sans-serif" font-size="12" font-style="italic" lengthAdjust="spacing" textLength="65" x="549.5" y="37.1399">&#171;Boundary&#187;</text><text fill="#000000" font-family="sans-serif" font-size="12" lengthAdjust="spacing" textLength="98" x="533" y="53.484">IncidenciaService</text><text fill="#000000" font-family="sans-serif" font-size="12" lengthAdjust="spacing" textLength="52" x="556" y="69.8281">(Angular)</text><rect fill="#E2E2F0" height="63.0323" rx="2.5" ry="2.5" style="stroke:#181818;stroke-width:0.5;" width="112" x="526" y="933.6352"/><text fill="#000000" font-family="sans-serif" font-size="12" font-style="italic" lengthAdjust="spacing" textLength="65" x="549.5" y="953.4633">&#171;Boundary&#187;</text><text fill="#000000" font-family="sans-serif" font-size="12" lengthAdjust="spacing" textLength="98" x="533" y="969.8074">IncidenciaService</text><text fill="#000000" font-family="sans-serif" font-size="12" lengthAdjust="spacing" textLength="52" x="556" y="986.1515">(Angular)</text><rect fill="#E2E2F0" height="63.0323" rx="2.5" ry="2.5" style="stroke:#181818;stroke-width:0.5;" width="100" x="648" y="17.3118"/><text fill="#000000" font-family="sans-serif" font-size="12" font-style="italic" lengthAdjust="spacing" textLength="65" x="665.5" y="37.1399">&#171;Boundary&#187;</text><text fill="#000000" font-family="sans-serif" font-size="12" lengthAdjust="spacing" textLength="86" x="655" y="53.484">ExamenService</text><text fill="#000000" font-family="sans-serif" font-size="12" lengthAdjust="spacing" textLength="52" x="672" y="69.8281">(Angular)</text><rect fill="#E2E2F0" height="63.0323" rx="2.5" ry="2.5" style="stroke:#181818;stroke-width:0.5;" width="100" x="648" y="933.6352"/><text fill="#000000" font-family="sans-serif" font-size="12" font-style="italic" lengthAdjust="spacing" textLength="65" x="665.5" y="953.4633">&#171;Boundary&#187;</text><text fill="#000000" font-family="sans-serif" font-size="12" lengthAdjust="spacing" textLength="86" x="655" y="969.8074">ExamenService</text><text fill="#000000" font-family="sans-serif" font-size="12" lengthAdjust="spacing" textLength="52" x="672" y="986.1515">(Angular)</text><rect fill="#E2E2F0" height="63.0323" rx="2.5" ry="2.5" style="stroke:#181818;stroke-width:0.5;" width="127" x="758" y="17.3118"/><text fill="#000000" font-family="sans-serif" font-size="12" font-style="italic" lengthAdjust="spacing" textLength="52" x="795.5" y="37.1399">&#171;Control&#187;</text><text fill="#000000" font-family="sans-serif" font-size="12" lengthAdjust="spacing" textLength="113" x="765" y="53.484">IncidenciaController</text><text fill="#000000" font-family="sans-serif" font-size="12" lengthAdjust="spacing" textLength="44" x="799.5" y="69.8281">(NestJS)</text><rect fill="#E2E2F0" height="63.0323" rx="2.5" ry="2.5" style="stroke:#181818;stroke-width:0.5;" width="127" x="758" y="933.6352"/><text fill="#000000" font-family="sans-serif" font-size="12" font-style="italic" lengthAdjust="spacing" textLength="52" x="795.5" y="953.4633">&#171;Control&#187;</text><text fill="#000000" font-family="sans-serif" font-size="12" lengthAdjust="spacing" textLength="113" x="765" y="969.8074">IncidenciaController</text><text fill="#000000" font-family="sans-serif" font-size="12" lengthAdjust="spacing" textLength="44" x="799.5" y="986.1515">(NestJS)</text><rect fill="#E2E2F0" height="63.0323" rx="2.5" ry="2.5" style="stroke:#181818;stroke-width:0.5;" width="112" x="910.5" y="17.3118"/><text fill="#000000" font-family="sans-serif" font-size="12" font-style="italic" lengthAdjust="spacing" textLength="52" x="940.5" y="37.1399">&#171;Control&#187;</text><text fill="#000000" font-family="sans-serif" font-size="12" lengthAdjust="spacing" textLength="98" x="917.5" y="53.484">IncidenciaService</text><text fill="#000000" font-family="sans-serif" font-size="12" lengthAdjust="spacing" textLength="44" x="944.5" y="69.8281">(NestJS)</text><rect fill="#E2E2F0" height="63.0323" rx="2.5" ry="2.5" style="stroke:#181818;stroke-width:0.5;" width="112" x="910.5" y="933.6352"/><text fill="#000000" font-family="sans-serif" font-size="12" font-style="italic" lengthAdjust="spacing" textLength="52" x="940.5" y="953.4633">&#171;Control&#187;</text><text fill="#000000" font-family="sans-serif" font-size="12" lengthAdjust="spacing" textLength="98" x="917.5" y="969.8074">IncidenciaService</text><text fill="#000000" font-family="sans-serif" font-size="12" lengthAdjust="spacing" textLength="44" x="944.5" y="986.1515">(NestJS)</text><rect fill="#E2E2F0" height="63.0323" rx="2.5" ry="2.5" style="stroke:#181818;stroke-width:0.5;" width="130" x="1046.5" y="17.3118"/><text fill="#000000" font-family="sans-serif" font-size="12" font-style="italic" lengthAdjust="spacing" textLength="74" x="1074.5" y="37.1399">&#171;Data Access&#187;</text><text fill="#000000" font-family="sans-serif" font-size="12" lengthAdjust="spacing" textLength="116" x="1053.5" y="53.484">IncidenciaRepository</text><text fill="#000000" font-family="sans-serif" font-size="12" lengthAdjust="spacing" textLength="62" x="1080.5" y="69.8281">(TypeORM)</text><rect fill="#E2E2F0" height="63.0323" rx="2.5" ry="2.5" style="stroke:#181818;stroke-width:0.5;" width="130" x="1046.5" y="933.6352"/><text fill="#000000" font-family="sans-serif" font-size="12" font-style="italic" lengthAdjust="spacing" textLength="74" x="1074.5" y="953.4633">&#171;Data Access&#187;</text><text fill="#000000" font-family="sans-serif" font-size="12" lengthAdjust="spacing" textLength="116" x="1053.5" y="969.8074">IncidenciaRepository</text><text fill="#000000" font-family="sans-serif" font-size="12" lengthAdjust="spacing" textLength="62" x="1080.5" y="986.1515">(TypeORM)</text><text fill="#000000" font-family="sans-serif" font-size="12" lengthAdjust="spacing" textLength="39" x="1263" y="77.8281">MySQL</text><path d="M1267.5,29 C1267.5,19 1285.5,19 1285.5,19 C1285.5,19 1303.5,19 1303.5,29 L1303.5,55 C1303.5,65 1285.5,65 1285.5,65 C1285.5,65 1267.5,65 1267.5,55 L1267.5,29 " fill="#E2E2F0" style="stroke:#181818;stroke-width:1.5;"/><path d="M1267.5,29 C1267.5,39 1285.5,39 1285.5,39 C1285.5,39 1303.5,39 1303.5,29 " fill="none" style="stroke:#181818;stroke-width:1.5;"/><text fill="#000000" font-family="sans-serif" font-size="12" lengthAdjust="spacing" textLength="39" x="1263" y="946.4633">MySQL</text><path d="M1267.5,959.9793 C1267.5,949.9793 1285.5,949.9793 1285.5,949.9793 C1285.5,949.9793 1303.5,949.9793 1303.5,959.9793 L1303.5,985.9793 C1303.5,995.9793 1285.5,995.9793 1285.5,995.9793 C1285.5,995.9793 1267.5,995.9793 1267.5,985.9793 L1267.5,959.9793 " fill="#E2E2F0" style="stroke:#181818;stroke-width:1.5;"/><path d="M1267.5,959.9793 C1267.5,969.9793 1285.5,969.9793 1285.5,969.9793 C1285.5,969.9793 1303.5,969.9793 1303.5,959.9793 " fill="none" style="stroke:#181818;stroke-width:1.5;"/><rect fill="#FFFFFF" height="289.4411" style="stroke:#181818;stroke-width:1.0;" width="10" x="577" y="540.5058"/><rect fill="#FFFFFF" height="30.3441" style="stroke:#181818;stroke-width:1.0;" width="10" x="693" y="215.0647"/><rect fill="#FFFFFF" height="30.3441" style="stroke:#181818;stroke-width:1.0;" width="10" x="693" y="324.4411"/><rect fill="#FFFFFF" height="212.4088" style="stroke:#181818;stroke-width:1.0;" width="10" x="816.5" y="587.1941"/><rect fill="#FFFFFF" height="182.0647" style="stroke:#181818;stroke-width:1.0;" width="10" x="961.5" y="617.5382"/><rect fill="#FFFFFF" height="60.6882" style="stroke:#181818;stroke-width:1.0;" width="10" x="1106.5" y="678.2264"/><rect fill="#EEEEEE" height="3" style="stroke:#EEEEEE;stroke-width:1.0;" width="1313" x="0" y="112.5162"/><line style="stroke:#000000;stroke-width:1.0;" x1="0" x2="1313" y1="112.5162" y2="112.5162"/><line style="stroke:#000000;stroke-width:1.0;" x1="0" x2="1313" y1="115.5162" y2="115.5162"/><rect fill="#EEEEEE" height="24.3441" style="stroke:#000000;stroke-width:2.0;" width="266" x="523.5" y="101.3441"/><text fill="#000000" font-family="sans-serif" font-size="12" font-weight="bold" lengthAdjust="spacing" textLength="249" x="529.5" y="118.1722">Inicializaci&#243;n: Carga de Datos del Examen</text><path d="M10,142.6882 L71,142.6882 L71,151.0323 L61,161.0323 L10,161.0323 L10,142.6882 " fill="#EEEEEE" style="stroke:#000000;stroke-width:1.5;"/><rect fill="none" height="220.097" style="stroke:#000000;stroke-width:1.5;" width="748" x="10" y="142.6882"/><text fill="#000000" font-family="sans-serif" font-size="12" font-weight="bold" lengthAdjust="spacing" textLength="16" x="25" y="156.5163">alt</text><text fill="#000000" font-family="sans-serif" font-size="12" font-weight="bold" lengthAdjust="spacing" textLength="277" x="86" y="157.5163">[Con Examen ID espec&#237;fico (desde Calendario)]</text><polygon fill="#181818" points="384,180.7206,394,184.7206,384,188.7206,388,184.7206" style="stroke:#181818;stroke-width:1.0;"/><line style="stroke:#181818;stroke-width:1.0;" x1="47" x2="390" y1="184.7206" y2="184.7206"/><text fill="#000000" font-family="sans-serif" font-size="12" lengthAdjust="spacing" textLength="145" x="149" y="179.2045">inicializaConId(examenId)</text><polygon fill="#181818" points="681,211.0647,691,215.0647,681,219.0647,685,215.0647" style="stroke:#181818;stroke-width:1.0;"/><line style="stroke:#181818;stroke-width:1.0;" x1="396" x2="687" y1="215.0647" y2="215.0647"/><text fill="#000000" font-family="sans-serif" font-size="12" lengthAdjust="spacing" textLength="138" x="475.5" y="209.5487">obtenerPorId(examenId)</text><polygon fill="#181818" points="407,241.4088,397,245.4088,407,249.4088,403,245.4088" style="stroke:#181818;stroke-width:1.0;"/><line style="stroke:#181818;stroke-width:1.0;" x1="401" x2="697" y1="245.4088" y2="245.4088"/><text fill="#000000" font-family="sans-serif" font-size="12" lengthAdjust="spacing" textLength="104" x="495" y="239.8928">ExamenDetailsDto</text><line style="stroke:#000000;stroke-width:1.0;stroke-dasharray:2.0,2.0;" x1="10" x2="758" y1="254.4088" y2="254.4088"/><text fill="#000000" font-family="sans-serif" font-size="12" font-weight="bold" lengthAdjust="spacing" textLength="205" x="15" y="267.2369">[Sin Examen ID (Apertura Directa)]</text><polygon fill="#181818" points="384,290.097,394,294.097,384,298.097,388,294.097" style="stroke:#181818;stroke-width:1.0;"/><line style="stroke:#181818;stroke-width:1.0;" x1="47" x2="390" y1="294.097" y2="294.097"/><text fill="#000000" font-family="sans-serif" font-size="12" lengthAdjust="spacing" textLength="84" x="179.5" y="288.581">inicializaSinId()</text><polygon fill="#181818" points="681,320.4411,691,324.4411,681,328.4411,685,324.4411" style="stroke:#181818;stroke-width:1.0;"/><line style="stroke:#181818;stroke-width:1.0;" x1="396" x2="687" y1="324.4411" y2="324.4411"/><text fill="#000000" font-family="sans-serif" font-size="12" lengthAdjust="spacing" textLength="231" x="429" y="318.9251">listarExamenesAsignados(emailProfesor)</text><polygon fill="#181818" points="407,350.7853,397,354.7853,407,358.7853,403,354.7853" style="stroke:#181818;stroke-width:1.0;"/><line style="stroke:#181818;stroke-width:1.0;" x1="401" x2="697" y1="354.7853" y2="354.7853"/><text fill="#000000" font-family="sans-serif" font-size="12" lengthAdjust="spacing" textLength="137" x="478.5" y="349.2692">List&lt;ExamenDetailsDto&gt;</text><rect fill="#EEEEEE" height="3" style="stroke:#EEEEEE;stroke-width:1.0;" width="1313" x="0" y="390.9573"/><line style="stroke:#000000;stroke-width:1.0;" x1="0" x2="1313" y1="390.9573" y2="390.9573"/><line style="stroke:#000000;stroke-width:1.0;" x1="0" x2="1313" y1="393.9573" y2="393.9573"/><rect fill="#EEEEEE" height="24.3441" style="stroke:#000000;stroke-width:2.0;" width="209" x="552" y="379.7853"/><text fill="#000000" font-family="sans-serif" font-size="12" font-weight="bold" lengthAdjust="spacing" textLength="192" x="558" y="396.6133">Captura y Env&#237;o de la Incidencia</text><polygon fill="#181818" points="384,432.4735,394,436.4735,384,440.4735,388,436.4735" style="stroke:#181818;stroke-width:1.0;"/><line style="stroke:#181818;stroke-width:1.0;" x1="47" x2="390" y1="436.4735" y2="436.4735"/><text fill="#000000" font-family="sans-serif" font-size="12" lengthAdjust="spacing" textLength="325" x="59" y="430.9575">seleccionarTipoYDescripcion(tipo, descripcion, evidencias)</text><line style="stroke:#181818;stroke-width:1.0;" x1="396" x2="438" y1="466.8176" y2="466.8176"/><line style="stroke:#181818;stroke-width:1.0;" x1="438" x2="438" y1="466.8176" y2="479.8176"/><line style="stroke:#181818;stroke-width:1.0;" x1="397" x2="438" y1="479.8176" y2="479.8176"/><polygon fill="#181818" points="407,475.8176,397,479.8176,407,483.8176,403,479.8176" style="stroke:#181818;stroke-width:1.0;"/><text fill="#000000" font-family="sans-serif" font-size="12" lengthAdjust="spacing" textLength="92" x="403" y="461.3016">validarCampos()</text><polygon fill="#181818" points="384,506.1617,394,510.1617,384,514.1617,388,510.1617" style="stroke:#181818;stroke-width:1.0;"/><line style="stroke:#181818;stroke-width:1.0;" x1="47" x2="390" y1="510.1617" y2="510.1617"/><text fill="#000000" font-family="sans-serif" font-size="12" lengthAdjust="spacing" textLength="100" x="171.5" y="504.6457">enviarIncidencia()</text><polygon fill="#181818" points="565,536.5058,575,540.5058,565,544.5058,569,540.5058" style="stroke:#181818;stroke-width:1.0;"/><line style="stroke:#181818;stroke-width:1.0;" x1="396" x2="571" y1="540.5058" y2="540.5058"/><text fill="#000000" font-family="sans-serif" font-size="12" lengthAdjust="spacing" textLength="162" x="405.5" y="534.9898">reportar(crearIncidenciaDto)</text><polygon fill="#181818" points="804.5,583.1941,814.5,587.1941,804.5,591.1941,808.5,587.1941" style="stroke:#181818;stroke-width:1.0;"/><line style="stroke:#181818;stroke-width:1.0;" x1="587" x2="810.5" y1="587.1941" y2="587.1941"/><text fill="#000000" font-family="sans-serif" font-size="12" lengthAdjust="spacing" textLength="99" x="652.25" y="565.3339">POST /incidencias</text><text fill="#000000" font-family="sans-serif" font-size="12" lengthAdjust="spacing" textLength="117" x="643.25" y="581.678">(CrearIncidenciaDto)</text><polygon fill="#181818" points="949.5,613.5382,959.5,617.5382,949.5,621.5382,953.5,617.5382" style="stroke:#181818;stroke-width:1.0;"/><line style="stroke:#181818;stroke-width:1.0;" x1="826.5" x2="955.5" y1="617.5382" y2="617.5382"/><text fill="#000000" font-family="sans-serif" font-size="12" lengthAdjust="spacing" textLength="56" x="866" y="612.0221">crear(dto)</text><polygon fill="#181818" points="1099.5,643.8823,1109.5,647.8823,1099.5,651.8823,1103.5,647.8823" style="stroke:#181818;stroke-width:1.0;"/><line style="stroke:#181818;stroke-width:1.0;" x1="971.5" x2="1105.5" y1="647.8823" y2="647.8823"/><text fill="#000000" font-family="sans-serif" font-size="12" lengthAdjust="spacing" textLength="62" x="1010.5" y="642.3663">create(dto)</text><polygon fill="#181818" points="1094.5,674.2264,1104.5,678.2264,1094.5,682.2264,1098.5,678.2264" style="stroke:#181818;stroke-width:1.0;"/><line style="stroke:#181818;stroke-width:1.0;" x1="971.5" x2="1100.5" y1="678.2264" y2="678.2264"/><text fill="#000000" font-family="sans-serif" font-size="12" lengthAdjust="spacing" textLength="90" x="994" y="672.7104">save(incidencia)</text><polygon fill="#181818" points="1273.5,704.5705,1283.5,708.5705,1273.5,712.5705,1277.5,708.5705" style="stroke:#181818;stroke-width:1.0;"/><line style="stroke:#181818;stroke-width:1.0;" x1="1116.5" x2="1279.5" y1="708.5705" y2="708.5705"/><text fill="#000000" font-family="sans-serif" font-size="12" lengthAdjust="spacing" textLength="145" x="1128.5" y="703.0545">INSERT INTO Incidencia ...</text><polygon fill="#181818" points="982.5,734.9146,972.5,738.9146,982.5,742.9146,978.5,738.9146" style="stroke:#181818;stroke-width:1.0;"/><line style="stroke:#181818;stroke-width:1.0;stroke-dasharray:2.0,2.0;" x1="976.5" x2="1110.5" y1="738.9146" y2="738.9146"/><text fill="#000000" font-family="sans-serif" font-size="12" lengthAdjust="spacing" textLength="111" x="986" y="733.3986">incidenciaPersistida</text><polygon fill="#181818" points="837.5,765.2587,827.5,769.2587,837.5,773.2587,833.5,769.2587" style="stroke:#181818;stroke-width:1.0;"/><line style="stroke:#181818;stroke-width:1.0;stroke-dasharray:2.0,2.0;" x1="831.5" x2="960.5" y1="769.2587" y2="769.2587"/><text fill="#000000" font-family="sans-serif" font-size="12" lengthAdjust="spacing" textLength="111" x="838.5" y="763.7427">incidenciaPersistida</text><polygon fill="#181818" points="598,795.6029,588,799.6029,598,803.6029,594,799.6029" style="stroke:#181818;stroke-width:1.0;"/><line style="stroke:#181818;stroke-width:1.0;stroke-dasharray:2.0,2.0;" x1="592" x2="820.5" y1="799.6029" y2="799.6029"/><text fill="#000000" font-family="sans-serif" font-size="12" lengthAdjust="spacing" textLength="157" x="625.75" y="794.0868">201 Created (IncidenciaDto)</text><polygon fill="#181818" points="407,825.947,397,829.947,407,833.947,403,829.947" style="stroke:#181818;stroke-width:1.0;"/><line style="stroke:#181818;stroke-width:1.0;stroke-dasharray:2.0,2.0;" x1="401" x2="581" y1="829.947" y2="829.947"/><text fill="#000000" font-family="sans-serif" font-size="12" lengthAdjust="spacing" textLength="77" x="450.5" y="824.4309">IncidenciaDto</text><line style="stroke:#181818;stroke-width:1.0;" x1="396" x2="438" y1="860.2911" y2="860.2911"/><line style="stroke:#181818;stroke-width:1.0;" x1="438" x2="438" y1="860.2911" y2="873.2911"/><line style="stroke:#181818;stroke-width:1.0;" x1="397" x2="438" y1="873.2911" y2="873.2911"/><polygon fill="#181818" points="407,869.2911,397,873.2911,407,877.2911,403,873.2911" style="stroke:#181818;stroke-width:1.0;"/><text fill="#000000" font-family="sans-serif" font-size="12" lengthAdjust="spacing" textLength="155" x="403" y="854.7751">mostrarConfirmacionExito()</text><line style="stroke:#181818;stroke-width:1.0;" x1="396" x2="438" y1="903.6352" y2="903.6352"/><line style="stroke:#181818;stroke-width:1.0;" x1="438" x2="438" y1="903.6352" y2="916.6352"/><line style="stroke:#181818;stroke-width:1.0;" x1="397" x2="438" y1="916.6352" y2="916.6352"/><polygon fill="#181818" points="407,912.6352,397,916.6352,407,920.6352,403,916.6352" style="stroke:#181818;stroke-width:1.0;"/><text fill="#000000" font-family="sans-serif" font-size="12" lengthAdjust="spacing" textLength="126" x="403" y="898.1192">navegarAlCalendario()</text><!--SRC=[bLHDRzf04BtlhnXnCbAQDZcYW4HiAb7bWmPwgDJBi1x8Aikkkxiu8V-ff_w4_B6ElNmOajAKY_7kUszctipOFoXJeCC5J54-p9rTcZorsZful5U1XD_U-tlCxQCoSvYXzisRZ6QurE6pDI5IfvgrtWQCrJF1sNbJbtukoKYw9kznJdsjvWOacK1E29I1zLeZPsVahMi1UkXNPuB9GKbLe0dGIkrYQPH4DpHIvQoca8yAQrZcXqdwPhxKwDer_TiGBYukgphHhNgzVQ4TVqokL99UiyUkF28mUC85cMFamTExugTibhDQasEL6_BXopYAfC5fLbZVlwU09Zjc_q_o7HNMA_PvnVp9gg3Rk-ieKDsmGeO1kHEIcyOgERzDqHEqhbVZhrSrCBiKejk58VT5eLRFADNBRzE15DqS8ITW2UlvZuPe6dIx0dK0JcvpCio0V47ovTTCIGj9Jfw9AMggt5EsBO1_zK30XrxLsWweRK0M6kO9rLB3F68PKWDZ8pfWfu4CkP5rhw0yUwh4G1lqcX-PcsWnqOm2AkspO6jGJg-un2i3OzMiBEaNvCBI8MJAaGnul1ecSuflLw6L3-YYDFc-vnNYPVK9BJYjpVByHrLNh7TnM5hlhxMPl6vrYaLTpWe6fdpvPQicQuJTL5KTtY_FaoOfbJNe9ggmtpFoqgcYEaa27vomnlRa1AXSA_css7Z0AYKRnFEG8g-yPuiEWf0fLVFJaEp8rJfqmF5CEpOmaOwQG2wwBVRB5IAIc5qlOWT6j-C9V5HRakUDIO_fL3mXQZQhn0pgm4c-XwkZhMFLMnTXWI9k_yPZISakYOPC1H0rYj7P9ME7D-F1tOGVazjcSqvFJzUuRLexmH4vpqF1Del61DJQCPET8M-IOhaDpyy_dK5QbvD3Sc1L8q9bGkCrUhTkmQQ_UsnnEA2YEIaBwuFZIR5cfjm2gwaQFF5tBjcR9yDcpj7rzUvBaxJ_0000]--></g></svg>