<?xml version="1.0" encoding="us-ascii" standalone="no"?><svg xmlns="http://www.w3.org/2000/svg" xmlns:xlink="http://www.w3.org/1999/xlink" contentStyleType="text/css" height="903px" preserveAspectRatio="none" style="width:799px;height:903px;background:#FFFFFF;" version="1.1" viewBox="0 0 799 903" width="799px" zoomAndPan="magnify"><defs/><g><path d="M19.5,7 L773.4015,7 A12.5,12.5 0 0 1 785.9015,19.5 L785.9015,34.6094 L7,34.6094 L7,19.5 A12.5,12.5 0 0 1 19.5,7 " fill="#F1F1F1" style="stroke:#F1F1F1;stroke-width:1.0;"/><rect fill="none" height="743.6094" rx="12.5" ry="12.5" style="stroke:#181818;stroke-width:0.5;" width="778.9015" x="7" y="7"/><line style="stroke:#181818;stroke-width:0.5;" x1="7" x2="785.9015" y1="34.6094" y2="34.6094"/><text fill="#000000" font-family="sans-serif" font-size="14" lengthAdjust="spacing" textLength="97" x="347.9508" y="26.5332">importarAulas()</text><g id="importarAulas.SeleccionandoArchivo"><rect fill="#F1F1F1" height="50" rx="12.5" ry="12.5" style="stroke:#181818;stroke-width:0.5;" width="50" x="207.9015" y="137.6094"/><line style="stroke:#181818;stroke-width:0.5;" x1="207.9015" x2="257.9015" y1="165.2188" y2="165.2188"/><text fill="#000000" font-family="sans-serif" font-size="14" lengthAdjust="spacing" textLength="4" x="230.9015" y="157.1426">&#160;</text></g><g id="importarAulas.ProcesandoImportacion"><rect fill="#F1F1F1" height="50" rx="12.5" ry="12.5" style="stroke:#181818;stroke-width:0.5;" width="50" x="207.9015" y="341.6094"/><line style="stroke:#181818;stroke-width:0.5;" x1="207.9015" x2="257.9015" y1="369.2188" y2="369.2188"/><text fill="#000000" font-family="sans-serif" font-size="14" lengthAdjust="spacing" textLength="4" x="230.9015" y="361.1426">&#160;</text></g><g id="importarAulas.MostrandoResultados"><rect fill="#F1F1F1" height="50" rx="12.5" ry="12.5" style="stroke:#181818;stroke-width:0.5;" width="50" x="26.9015" y="497.6094"/><line style="stroke:#181818;stroke-width:0.5;" x1="26.9015" x2="76.9015" y1="525.2188" y2="525.2188"/><text fill="#000000" font-family="sans-serif" font-size="14" lengthAdjust="spacing" textLength="4" x="49.9015" y="517.1426">&#160;</text></g><ellipse cx="232.9015" cy="55.6094" fill="#222222" rx="10" ry="10" style="stroke:#222222;stroke-width:1.0;"/><ellipse cx="261.9015" cy="729.6094" fill="none" rx="11" ry="11" style="stroke:#222222;stroke-width:1.0;"/><ellipse cx="261.9015" cy="729.6094" fill="#222222" rx="6" ry="6" style="stroke:#222222;stroke-width:1.0;"/><!--link *start*importarAulas to SeleccionandoArchivo--><g id="link_*start*importarAulas_SeleccionandoArchivo"><path d="M232.9015,65.9294 C232.9015,81.7894 232.9015,108.5194 232.9015,131.2494 " fill="none" id="*start*importarAulas-to-SeleccionandoArchivo" style="stroke:#008000;stroke-width:1.0;"/><polygon fill="#008000" points="232.9015,137.2494,236.9015,128.2494,232.9015,132.2494,228.9015,128.2494,232.9015,137.2494" style="stroke:#008000;stroke-width:1.0;"/><path d="M237.9015,88.6094 L237.9015,114.6094 L478.9015,114.6094 L478.9015,98.6094 L468.9015,88.6094 L237.9015,88.6094 " fill="#FEFFDD" style="stroke:#181818;stroke-width:0.5;"/><path d="M468.9015,88.6094 L468.9015,98.6094 L478.9015,98.6094 L468.9015,88.6094 " fill="#FEFFDD" style="stroke:#181818;stroke-width:0.5;"/><text fill="#000000" font-family="sans-serif" font-size="13" font-weight="bold" lengthAdjust="spacing" textLength="89" x="243.9015" y="107.1045">Administrador</text><text fill="#000000" font-family="sans-serif" font-size="13" lengthAdjust="spacing" textLength="127" x="336.9015" y="107.1045">solicita importar aulas</text></g><!--link SeleccionandoArchivo to ProcesandoImportacion--><g id="link_SeleccionandoArchivo_ProcesandoImportacion"><path d="M232.9015,187.9794 C232.9015,226.9094 232.9015,296.6894 232.9015,335.4694 " fill="none" id="SeleccionandoArchivo-to-ProcesandoImportacion" style="stroke:#008000;stroke-width:1.0;"/><polygon fill="#008000" points="232.9015,341.4694,236.9015,332.4694,232.9015,336.4694,228.9015,332.4694,232.9015,341.4694" style="stroke:#008000;stroke-width:1.0;"/><path d="M237.9015,210.6094 L237.9015,318.6094 L498.9015,318.6094 L498.9015,220.6094 L488.9015,210.6094 L237.9015,210.6094 " fill="#FEFFDD" style="stroke:#181818;stroke-width:0.5;"/><path d="M488.9015,210.6094 L488.9015,220.6094 L498.9015,220.6094 L488.9015,210.6094 " fill="#FEFFDD" style="stroke:#181818;stroke-width:0.5;"/><text fill="#000000" font-family="sans-serif" font-size="13" font-weight="bold" lengthAdjust="spacing" textLength="51" x="243.9015" y="229.1045">Sistema</text><text fill="#000000" font-family="sans-serif" font-size="13" lengthAdjust="spacing" textLength="185" x="298.9015" y="229.1045">presenta interfaz de importaci&#243;n</text><text fill="#000000" font-family="sans-serif" font-size="13" lengthAdjust="spacing" textLength="236" x="243.9015" y="245.4561">&#8226; Permite seleccionar archivo CSV/Excel</text><text fill="#000000" font-family="sans-serif" font-size="13" lengthAdjust="spacing" textLength="222" x="243.9015" y="261.8076">&#8226; Muestra formato de archivo requerido</text><text fill="#000000" font-family="sans-serif" font-size="13" lengthAdjust="spacing" textLength="203" x="243.9015" y="278.1592">&#8226; Muestra tipos de aula disponibles</text><text fill="#000000" font-family="sans-serif" font-size="13" lengthAdjust="spacing" textLength="212" x="243.9015" y="294.5107">&#8226; Permite solicitar iniciar importaci&#243;n</text><text fill="#000000" font-family="sans-serif" font-size="13" lengthAdjust="spacing" textLength="227" x="243.9015" y="310.8623">&#8226; Permite solicitar cancelar importaci&#243;n</text></g><!--link ProcesandoImportacion to MostrandoResultados--><g id="link_ProcesandoImportacion_MostrandoResultados"><path d="M207.6915,372.6794 C152.1015,383.8494 23.9015,409.6094 23.9015,409.6094 C23.9015,409.6094 23.9015,478.6094 23.9015,478.6094 C23.9015,478.6094 26.5789,482.7205 32.9889,492.5705 " fill="none" id="ProcesandoImportacion-to-MostrandoResultados" style="stroke:#008000;stroke-width:1.0;"/><polygon fill="#008000" points="36.2615,497.5994,34.7052,487.8743,33.5344,493.4086,28,492.2378,36.2615,497.5994" style="stroke:#008000;stroke-width:1.0;"/><path d="M28.9015,414.6094 L28.9015,473.6094 L423.9015,473.6094 L423.9015,424.6094 L413.9015,414.6094 L28.9015,414.6094 " fill="#FEFFDD" style="stroke:#181818;stroke-width:0.5;"/><path d="M413.9015,414.6094 L413.9015,424.6094 L423.9015,424.6094 L413.9015,414.6094 " fill="#FEFFDD" style="stroke:#181818;stroke-width:0.5;"/><text fill="#000000" font-family="sans-serif" font-size="13" font-weight="bold" lengthAdjust="spacing" textLength="89" x="34.9015" y="433.1045">Administrador</text><text fill="#000000" font-family="sans-serif" font-size="13" lengthAdjust="spacing" textLength="281" x="127.9015" y="433.1045">introduce selecci&#243;n de archivo y solicita importar</text><text fill="#000000" font-family="sans-serif" font-size="13" font-weight="bold" lengthAdjust="spacing" textLength="51" x="34.9015" y="449.4561">Sistema</text><text fill="#000000" font-family="sans-serif" font-size="13" lengthAdjust="spacing" textLength="248" x="89.9015" y="449.4561">visualiza y procesa el archivo seleccionado</text><text fill="#000000" font-family="sans-serif" font-size="13" font-weight="bold" lengthAdjust="spacing" textLength="51" x="34.9015" y="465.8076">Sistema</text><text fill="#000000" font-family="sans-serif" font-size="13" lengthAdjust="spacing" textLength="233" x="89.9015" y="465.8076">visualiza y valida c&#243;digos &#250;nicos de aula</text></g><!--link MostrandoResultados to *end*importarAulas--><g id="link_MostrandoResultados_*end*importarAulas"><path d="M63.9515,547.8494 C88.0515,596.3294 139.9015,700.6094 139.9015,700.6094 C139.9015,700.6094 215.374,717.9255 245.224,724.7855 " fill="none" id="MostrandoResultados-to-*end*importarAulas" style="stroke:#008000;stroke-width:1.0;"/><polygon fill="#008000" points="251.0715,726.1294,243.1961,720.2152,246.1986,725.0095,241.4043,728.012,251.0715,726.1294" style="stroke:#008000;stroke-width:1.0;"/><path d="M144.9015,571.6094 L144.9015,695.6094 L423.9015,695.6094 L423.9015,581.6094 L413.9015,571.6094 L144.9015,571.6094 " fill="#FEFFDD" style="stroke:#181818;stroke-width:0.5;"/><path d="M413.9015,571.6094 L413.9015,581.6094 L423.9015,581.6094 L413.9015,571.6094 " fill="#FEFFDD" style="stroke:#181818;stroke-width:0.5;"/><text fill="#000000" font-family="sans-serif" font-size="13" font-weight="bold" lengthAdjust="spacing" textLength="51" x="150.9015" y="590.1045">Sistema</text><text fill="#000000" font-family="sans-serif" font-size="13" lengthAdjust="spacing" textLength="203" x="205.9015" y="590.1045">presenta resultados de importaci&#243;n</text><text fill="#000000" font-family="sans-serif" font-size="13" lengthAdjust="spacing" textLength="224" x="150.9015" y="606.4561">&#8226; Muestra n&#250;mero de aulas importadas</text><text fill="#000000" font-family="sans-serif" font-size="13" lengthAdjust="spacing" textLength="256" x="150.9015" y="622.8076">&#8226; Muestra aulas que no se pudieron importar</text><text fill="#000000" font-family="sans-serif" font-size="13" lengthAdjust="spacing" textLength="171" x="150.9015" y="639.1592">&#8226; Muestra c&#243;digos duplicados</text><text fill="#000000" font-family="sans-serif" font-size="13" lengthAdjust="spacing" textLength="188" x="150.9015" y="655.5107">&#8226; Permite solicitar revisar errores</text><text fill="#000000" font-family="sans-serif" font-size="13" lengthAdjust="spacing" textLength="222" x="150.9015" y="671.8623">&#8226; Permite solicitar finalizar importaci&#243;n</text><text fill="#000000" font-family="sans-serif" font-size="13" font-weight="bold" lengthAdjust="spacing" textLength="89" x="150.9015" y="688.2139">Administrador</text><text fill="#000000" font-family="sans-serif" font-size="13" lengthAdjust="spacing" textLength="160" x="243.9015" y="688.2139">solicita finalizar importaci&#243;n</text></g><!--link ProcesandoImportacion to *end*importarAulas--><g id="link_ProcesandoImportacion_*end*importarAulas"><path d="M258.1215,373.0094 C311.0615,384.3594 428.9015,409.6094 428.9015,409.6094 C428.9015,409.6094 428.9015,700.6094 428.9015,700.6094 C428.9015,700.6094 315.3789,719.6473 278.5189,725.8273 " fill="none" id="ProcesandoImportacion-to-*end*importarAulas" style="stroke:#FF0000;stroke-width:1.0;"/><polygon fill="#FF0000" points="272.6015,726.8194,282.1391,729.2761,277.5327,725.9926,280.8162,721.3863,272.6015,726.8194" style="stroke:#FF0000;stroke-width:1.0;"/><path d="M433.9015,501.6094 L433.9015,543.6094 L776.9015,543.6094 L776.9015,511.6094 L766.9015,501.6094 L433.9015,501.6094 " fill="#FEFFDD" style="stroke:#181818;stroke-width:0.5;"/><path d="M766.9015,501.6094 L766.9015,511.6094 L776.9015,511.6094 L766.9015,501.6094 " fill="#FEFFDD" style="stroke:#181818;stroke-width:0.5;"/><text fill="#000000" font-family="sans-serif" font-size="13" font-weight="bold" lengthAdjust="spacing" textLength="89" x="439.9015" y="520.1045">Administrador</text><text fill="#000000" font-family="sans-serif" font-size="13" lengthAdjust="spacing" textLength="165" x="532.9015" y="520.1045">solicita cancelar importaci&#243;n</text><text fill="#000000" font-family="sans-serif" font-size="13" font-weight="bold" lengthAdjust="spacing" textLength="51" x="439.9015" y="536.4561">Sistema</text><text fill="#000000" font-family="sans-serif" font-size="13" lengthAdjust="spacing" textLength="267" x="494.9015" y="536.4561">visualiza y descarta el proceso de importaci&#243;n</text></g><g id="AULAS_ABIERTO"><rect fill="#F1F1F1" height="50" rx="12.5" ry="12.5" style="stroke:#181818;stroke-width:0.5;" width="132" x="330.5" y="847"/><line style="stroke:#181818;stroke-width:0.5;" x1="330.5" x2="462.5" y1="874.6094" y2="874.6094"/><text fill="#000000" font-family="sans-serif" font-size="14" lengthAdjust="spacing" textLength="112" x="340.5" y="866.5332">AULAS_ABIERTO</text></g><!--link importarAulas to AULAS_ABIERTO--><g id="link_importarAulas_AULAS_ABIERTO"><path d="M330.78,751.19 C327.48,769.82 325.5,781 325.5,781 C325.5,781 325.5,817 325.5,817 C325.5,817 341.0528,828.8398 359.9628,843.2098 " fill="none" id="importarAulas-to-AULAS_ABIERTO" style="stroke:#008000;stroke-width:1.0;"/><polygon fill="#008000" points="364.74,846.84,359.9944,838.2099,360.759,843.8148,355.1541,844.5794,364.74,846.84" style="stroke:#008000;stroke-width:1.0;"/><path d="M330.5,786 L330.5,812 L417.5,812 L417.5,796 L407.5,786 L330.5,786 " fill="#FEFFDD" style="stroke:#181818;stroke-width:0.5;"/><path d="M407.5,786 L407.5,796 L417.5,796 L407.5,786 " fill="#FEFFDD" style="stroke:#181818;stroke-width:0.5;"/><text fill="#000000" font-family="sans-serif" font-size="13" lengthAdjust="spacing" textLength="66" x="336.5" y="804.4951">abrirAulas()</text></g><!--link importarAulas to AULAS_ABIERTO--><g id="link_importarAulas_AULAS_ABIERTO"><path d="M424.27,751.19 C425.66,769.82 426.5,781 426.5,781 C426.5,781 426.5,817 426.5,817 C426.5,817 420.8257,827.2261 412.8357,841.5961 " fill="none" id="importarAulas-to-AULAS_ABIERTO-1" style="stroke:#FF0000;stroke-width:1.0;"/><polygon fill="#FF0000" points="409.92,846.84,417.7895,840.9179,412.3498,842.4701,410.7976,837.0303,409.92,846.84" style="stroke:#FF0000;stroke-width:1.0;"/><path d="M431.5,786 L431.5,812 L572.5,812 L572.5,796 L562.5,786 L431.5,786 " fill="#FEFFDD" style="stroke:#181818;stroke-width:0.5;"/><path d="M562.5,786 L562.5,796 L572.5,796 L562.5,786 " fill="#FEFFDD" style="stroke:#181818;stroke-width:0.5;"/><text fill="#000000" font-family="sans-serif" font-size="13" lengthAdjust="spacing" textLength="120" x="437.5" y="804.4951">cancelar importaci&#243;n</text></g><!--SRC=[ZLJRQjj047tVhrZSbxOGyWF1e9Oy118QuhOl8PJrxZWT8kseivAfKmhzblv2tlBgF-cNTDQsBclBIf11idHcpfmpHmeFw4l3fj0vUgXM9UYIybNyerIeJ0KQYvAuCfpLkGbQVfFapjjt4_shmKxa4CGCSh0MoHllA6Fx7PUK8gwPB8Ju-6BRBA9Jo1M5YYFY1aATLyPHKEhs_Pq-kNrppm3-xcGwpEH9kf2FaXxKsNoQkG8zncwE-EnqFjM1ShHOcLQSDb6B0kzqh5Pgg772FAnWdtecj52O3Md94C17Kby1ByoZTgsx5jTFNltxyrTV0nSeJK8xW0otu_yu-tfw_jD2la5UrH0rwGLnOIgAtHeWmuyQ61qbm0fB2XkOYDKEGqaUvpc4b7Zd3SkSSX7FHsTieTPu6MiVszavw5RYvz2wNrwaMCdaQjlw9RHz8rQ7gzvVon93RN9yD08kjsDgoDiEtHx4pP7IfLmue-twoU6zsBn-5lSwktjU32XDd92Clov7tDKF9QbPkry_5y3KJ18Qf3CXmMqVId1aJf6jozgXrFdEkJww5UhgKXpUx6iu6mpYavo1cVXes1ReDrRkHMZyzJrIz8hSCRXZNe_m3STy91KEWZK2Z8dQXeiETjLE-rkfz6FRJqNsvJARVSi-N9pVVFwKpcpcZCt7kAVzeDTEyqYd5rxZ_m00]--></g></svg>