<?xml version="1.0" encoding="us-ascii" standalone="no"?><svg xmlns="http://www.w3.org/2000/svg" xmlns:xlink="http://www.w3.org/1999/xlink" contentStyleType="text/css" height="328px" preserveAspectRatio="none" style="width:1239px;height:328px;background:#FFFFFF;" version="1.1" viewBox="0 0 1239 328" width="1239px" zoomAndPan="magnify"><defs/><g><!--cluster crearProfesor--><g id="cluster_crearProfesor"><path d="M153.5,6.016 L242.5,6.016 A3.75,3.75 0 0 1 245,8.516 L252,28.3601 L844.5,28.3601 A2.5,2.5 0 0 1 847,30.8601 L847,318.516 A2.5,2.5 0 0 1 844.5,321.016 L153.5,321.016 A2.5,2.5 0 0 1 151,318.516 L151,8.516 A2.5,2.5 0 0 1 153.5,6.016 " fill="none" style="stroke:#000000;stroke-width:1.5;"/><line style="stroke:#000000;stroke-width:1.5;" x1="151" x2="252" y1="28.3601" y2="28.3601"/><text fill="#000000" font-family="sans-serif" font-size="12" font-weight="bold" lengthAdjust="spacing" textLength="88" x="155" y="20.8441">crearProfesor()</text></g><!--entity CrearProfesorView--><g id="elem_CrearProfesorView"><rect fill="#629EF9" height="36.3441" rx="2.5" ry="2.5" style="stroke:#181818;stroke-width:0.5;" width="126" x="461" y="41.016"/><text fill="#000000" font-family="sans-serif" font-size="12" lengthAdjust="spacing" textLength="106" x="471" y="63.8441">CrearProfesorView</text></g><!--entity ProfesorController--><g id="elem_ProfesorController"><rect fill="#B5BD68" height="36.3441" rx="2.5" ry="2.5" style="stroke:#181818;stroke-width:0.5;" width="124" x="253" y="155.016"/><text fill="#000000" font-family="sans-serif" font-size="12" lengthAdjust="spacing" textLength="104" x="263" y="177.8441">ProfesorController</text></g><!--entity ProfesorRepository--><g id="elem_ProfesorRepository"><rect fill="#F2AC4E" height="36.3441" rx="2.5" ry="2.5" style="stroke:#181818;stroke-width:0.5;" width="127" x="259.5" y="269.016"/><text fill="#000000" font-family="sans-serif" font-size="12" lengthAdjust="spacing" textLength="107" x="269.5" y="291.8441">ProfesorRepository</text></g><!--entity Profesor--><g id="elem_Profesor"><rect fill="#F2AC4E" height="36.3441" rx="2.5" ry="2.5" style="stroke:#181818;stroke-width:0.5;" width="68" x="462" y="155.016"/><text fill="#000000" font-family="sans-serif" font-size="12" lengthAdjust="spacing" textLength="48" x="472" y="177.8441">Profesor</text></g><!--entity ProfesoresAbierto--><g id="elem_ProfesoresAbierto"><rect fill="#CDEBA5" height="36.3441" rx="2.5" ry="2.5" style="stroke:#181818;stroke-width:0.5;" width="128" x="7" y="41.016"/><text fill="#000000" font-family="sans-serif" font-size="12" lengthAdjust="spacing" textLength="108" x="17" y="63.8441">:Profesores Abierto</text></g><!--entity ProfesorAbierto--><g id="elem_ProfesorAbierto"><rect fill="#CDEBA5" height="36.3441" rx="2.5" ry="2.5" style="stroke:#181818;stroke-width:0.5;" width="115" x="863.5" y="155.016"/><text fill="#000000" font-family="sans-serif" font-size="12" lengthAdjust="spacing" textLength="95" x="873.5" y="177.8441">:Profesor Abierto</text></g><!--entity ProfesoresAbiertoSalida--><g id="elem_ProfesoresAbiertoSalida"><rect fill="#CDEBA5" height="36.3441" rx="2.5" ry="2.5" style="stroke:#181818;stroke-width:0.5;" width="128" x="1105" y="155.016"/><text fill="#000000" font-family="sans-serif" font-size="12" lengthAdjust="spacing" textLength="108" x="1115" y="177.8441">:Profesores Abierto</text></g><!--link ProfesoresAbierto to CrearProfesorView--><g id="link_ProfesoresAbierto_CrearProfesorView"><path d="M135.42,59.016 C222.02,59.016 368.98,59.016 454.89,59.016 " fill="none" id="ProfesoresAbierto-to-CrearProfesorView" style="stroke:#181818;stroke-width:1.0;"/><polygon fill="#181818" points="460.89,59.016,451.89,55.016,455.89,59.016,451.89,63.016,460.89,59.016" style="stroke:#181818;stroke-width:1.0;"/><text fill="#000000" font-family="sans-serif" font-size="12" lengthAdjust="spacing" textLength="86" x="255" y="51.8441">crearProfesor()</text></g><!--link CrearProfesorView to ProfesorController--><g id="link_CrearProfesorView_ProfesorController"><path d="M460.95,69.136 C366.44,82.806 199,107.016 199,107.016 C199,107.016 199,125.016 199,125.016 C199,125.016 234.0694,139.2223 267.2294,152.6623 " fill="none" id="CrearProfesorView-to-ProfesorController" style="stroke:#181818;stroke-width:1.0;"/><polygon fill="#181818" points="272.79,154.916,265.9516,147.8283,268.1561,153.0379,262.9466,155.2425,272.79,154.916" style="stroke:#181818;stroke-width:1.0;"/><text fill="#000000" font-family="sans-serif" font-size="12" lengthAdjust="spacing" textLength="280" x="200" y="120.8441">obtenerDepartamentosDisponibles() : List&lt;String&gt;</text></g><!--link CrearProfesorView to ProfesorController--><g id="link_CrearProfesorView_ProfesorController"><path d="M513.75,77.096 C502.2,96.356 485,125.016 485,125.016 C485,125.016 431.243,139.8771 382.633,153.3171 " fill="none" id="CrearProfesorView-to-ProfesorController-1" style="stroke:#181818;stroke-width:1.0;"/><polygon fill="#181818" points="376.85,154.916,386.5905,156.373,381.6692,153.5836,384.4586,148.6623,376.85,154.916" style="stroke:#181818;stroke-width:1.0;"/><text fill="#000000" font-family="sans-serif" font-size="12" lengthAdjust="spacing" textLength="305" x="496" y="120.8441">crear(codigo, nombre, email, departamento) : Profesor</text></g><!--link ProfesorController to ProfesorRepository--><g id="link_ProfesorController_ProfesorRepository"><path d="M277.89,191.116 C248.72,204.556 213,221.016 213,221.016 C213,221.016 213,239.016 213,239.016 C213,239.016 246.0024,253.1189 277.4624,266.5589 " fill="none" id="ProfesorController-to-ProfesorRepository" style="stroke:#181818;stroke-width:1.0;"/><polygon fill="#181818" points="282.98,268.916,276.2751,261.7019,278.382,266.9517,273.1322,269.0587,282.98,268.916" style="stroke:#181818;stroke-width:1.0;"/><text fill="#000000" font-family="sans-serif" font-size="12" lengthAdjust="spacing" textLength="158" x="214" y="234.8441">existeEmail(email) : Boolean</text></g><!--link ProfesorController to ProfesorRepository--><g id="link_ProfesorController_ProfesorRepository"><path d="M337.73,191.246 C355.43,204.666 377,221.016 377,221.016 C377,221.016 377,239.016 377,239.016 C377,239.016 362.7347,251.4256 347.3247,264.8456 " fill="none" id="ProfesorController-to-ProfesorRepository-1" style="stroke:#181818;stroke-width:1.0;"/><polygon fill="#181818" points="342.8,268.786,352.214,265.8919,346.5706,265.5023,346.9601,259.8589,342.8,268.786" style="stroke:#181818;stroke-width:1.0;"/><text fill="#000000" font-family="sans-serif" font-size="12" lengthAdjust="spacing" textLength="101" x="378" y="234.8441">guardar(profesor)</text></g><!--link ProfesorController to Profesor--><g id="link_ProfesorController_Profesor"><path d="M377.04,173.016 C405.49,173.016 432.11,173.016 455.99,173.016 " fill="none" id="ProfesorController-to-Profesor" style="stroke:#181818;stroke-width:1.0;"/><polygon fill="#181818" points="461.99,173.016,452.99,169.016,456.99,173.016,452.99,177.016,461.99,173.016" style="stroke:#181818;stroke-width:1.0;"/><text fill="#000000" font-family="sans-serif" font-size="12" lengthAdjust="spacing" textLength="48" x="395.5" y="165.8441">&#171;create&#187;</text></g><!--link CrearProfesorView to ProfesorAbierto--><g id="link_CrearProfesorView_ProfesorAbierto"><path d="M587.12,70.386 C671.34,84.226 810,107.016 810,107.016 C810,107.016 853.7724,132.6441 886.6624,151.9041 " fill="none" id="CrearProfesorView-to-ProfesorAbierto" style="stroke:#181818;stroke-width:1.0;stroke-dasharray:7.0,7.0;"/><polygon fill="#181818" points="891.84,154.936,886.0949,146.9364,887.5253,152.4094,882.0523,153.8398,891.84,154.936" style="stroke:#181818;stroke-width:1.0;"/><text fill="#000000" font-family="sans-serif" font-size="12" lengthAdjust="spacing" textLength="231" x="840" y="120.8441">&#171;finalizar&#187; editarProfesor(nuevoProfesor)</text></g><!--link CrearProfesorView to ProfesoresAbiertoSalida--><g id="link_CrearProfesorView_ProfesoresAbiertoSalida"><path d="M587.24,65.366 C732.97,77.676 1080,107.016 1080,107.016 C1080,107.016 1114.4047,132.1372 1140.7747,151.3972 " fill="none" id="CrearProfesorView-to-ProfesoresAbiertoSalida" style="stroke:#181818;stroke-width:1.0;stroke-dasharray:7.0,7.0;"/><polygon fill="#181818" points="1145.62,154.936,1140.7114,146.3976,1141.5823,151.987,1135.9929,152.8579,1145.62,154.936" style="stroke:#181818;stroke-width:1.0;"/><text fill="#000000" font-family="sans-serif" font-size="12" lengthAdjust="spacing" textLength="60" x="1104" y="120.8441">&#171;cancelar&#187;</text></g><!--SRC=[fLB1JkD03BtFLrZTIv5QfAqM154LgQJjYGEY4dSduuOHqt7acMwt8FwTIO4GaWg4DhVulNdFVhP_CAv2mGtaM3oKmbkdCxOiiBitWPHlS7-FcdV6bR16wzl8dDQujM79Bhm-pMtKEavOcKU2tvCMQ8sZiAy8AhRx-aSfeIAWAot1hso-k9gTmI2v4LwJPo4FizoG11u0UlWelrMLgg8vbWI54CexNdC7doh3am4yAOXVo-vyShbONaBM9juPsdLv-LckpoyQzonE9cmjIPUudCooFuk6U4iLUnDOzjyGrVFNCHmDuJs2_yblXTPeLAe7m5Z6QJ-P13gfAjNZm5Z7f_sm4k0ya2EPKxo5W1joWVtS-8gToItvuGaaS6rycAw2nDDBVoH-Q6nOi3ObZy3n9XSQ0MtGs17ebcNjqWIl-bAVBJvsc03zYytHefOS7eHhgIjcI-YE2abBA87fjEunK9h-oBNSekWuMlM67Styz3Jj7aPjk3OkRlWH9Ks1j0cjrRaj_UMRHlDhoSx176P1Lv2jbTKB]--></g></svg>