<?xml version="1.0" encoding="us-ascii" standalone="no"?><svg xmlns="http://www.w3.org/2000/svg" xmlns:xlink="http://www.w3.org/1999/xlink" contentStyleType="text/css" height="425px" preserveAspectRatio="none" style="width:1226px;height:425px;background:#FFFFFF;" version="1.1" viewBox="0 0 1226 425" width="1226px" zoomAndPan="magnify"><defs/><g><!--cluster importarProfesores--><g id="cluster_importarProfesores"><path d="M153.5,6.016 L278.5,6.016 A3.75,3.75 0 0 1 281,8.516 L288,28.3601 L958.5,28.3601 A2.5,2.5 0 0 1 961,30.8601 L961,415.516 A2.5,2.5 0 0 1 958.5,418.016 L153.5,418.016 A2.5,2.5 0 0 1 151,415.516 L151,8.516 A2.5,2.5 0 0 1 153.5,6.016 " fill="none" style="stroke:#000000;stroke-width:1.5;"/><line style="stroke:#000000;stroke-width:1.5;" x1="151" x2="288" y1="28.3601" y2="28.3601"/><text fill="#000000" font-family="sans-serif" font-size="12" font-weight="bold" lengthAdjust="spacing" textLength="124" x="155" y="20.8441">importarProfesores()</text></g><!--entity ImportarProfesoresView--><g id="elem_ImportarProfesoresView"><rect fill="#629EF9" height="36.3441" rx="2.5" ry="2.5" style="stroke:#181818;stroke-width:0.5;" width="157" x="524.5" y="41.016"/><text fill="#000000" font-family="sans-serif" font-size="12" lengthAdjust="spacing" textLength="137" x="534.5" y="63.8441">ImportarProfesoresView</text></g><!--entity ProfesorController--><g id="elem_ProfesorController"><rect fill="#B5BD68" height="36.3441" rx="2.5" ry="2.5" style="stroke:#181818;stroke-width:0.5;" width="124" x="380" y="155.016"/><text fill="#000000" font-family="sans-serif" font-size="12" lengthAdjust="spacing" textLength="104" x="390" y="177.8441">ProfesorController</text></g><!--entity ProfesorRepository--><g id="elem_ProfesorRepository"><rect fill="#F2AC4E" height="36.3441" rx="2.5" ry="2.5" style="stroke:#181818;stroke-width:0.5;" width="127" x="378.5" y="269.016"/><text fill="#000000" font-family="sans-serif" font-size="12" lengthAdjust="spacing" textLength="107" x="388.5" y="291.8441">ProfesorRepository</text></g><!--entity Profesor--><g id="elem_Profesor"><rect fill="#F2AC4E" height="36.3441" rx="2.5" ry="2.5" style="stroke:#181818;stroke-width:0.5;" width="68" x="408" y="366.016"/><text fill="#000000" font-family="sans-serif" font-size="12" lengthAdjust="spacing" textLength="48" x="418" y="388.8441">Profesor</text></g><!--entity ProfesoresAbierto--><g id="elem_ProfesoresAbierto"><rect fill="#CDEBA5" height="36.3441" rx="2.5" ry="2.5" style="stroke:#181818;stroke-width:0.5;" width="128" x="7" y="41.016"/><text fill="#000000" font-family="sans-serif" font-size="12" lengthAdjust="spacing" textLength="108" x="17" y="63.8441">:Profesores Abierto</text></g><!--entity ProfesoresAbiertoSalida--><g id="elem_ProfesoresAbiertoSalida"><rect fill="#CDEBA5" height="36.3441" rx="2.5" ry="2.5" style="stroke:#181818;stroke-width:0.5;" width="128" x="1030" y="155.016"/><text fill="#000000" font-family="sans-serif" font-size="12" lengthAdjust="spacing" textLength="108" x="1040" y="177.8441">:Profesores Abierto</text></g><!--link ProfesoresAbierto to ImportarProfesoresView--><g id="link_ProfesoresAbierto_ImportarProfesoresView"><path d="M135.17,59.016 C232.86,59.016 412.67,59.016 518.34,59.016 " fill="none" id="ProfesoresAbierto-to-ImportarProfesoresView" style="stroke:#181818;stroke-width:1.0;"/><polygon fill="#181818" points="524.34,59.016,515.34,55.016,519.34,59.016,515.34,63.016,524.34,59.016" style="stroke:#181818;stroke-width:1.0;"/><text fill="#000000" font-family="sans-serif" font-size="12" lengthAdjust="spacing" textLength="118" x="270.75" y="51.8441">importarProfesores()</text></g><!--link ImportarProfesoresView to ProfesorController--><g id="link_ImportarProfesoresView_ProfesorController"><path d="M524.15,69.186 C406.57,82.866 199,107.016 199,107.016 C199,107.016 199,125.016 199,125.016 C199,125.016 301.8492,144.9063 373.8492,158.8363 " fill="none" id="ImportarProfesoresView-to-ProfesorController" style="stroke:#181818;stroke-width:1.0;"/><polygon fill="#181818" points="379.74,159.976,371.6637,154.3393,374.831,159.0263,370.1441,162.1937,379.74,159.976" style="stroke:#181818;stroke-width:1.0;"/><text fill="#000000" font-family="sans-serif" font-size="12" lengthAdjust="spacing" textLength="198" x="200" y="120.8441">obtenerFormatoRequerido() : String</text></g><!--link ImportarProfesoresView to ProfesorController--><g id="link_ImportarProfesoresView_ProfesorController"><path d="M543.33,77.116 C496.44,90.556 439,107.016 439,107.016 C439,107.016 439,125.016 439,125.016 C439,125.016 439.6563,135.3783 440.5163,148.7983 " fill="none" id="ImportarProfesoresView-to-ProfesorController-1" style="stroke:#181818;stroke-width:1.0;"/><polygon fill="#181818" points="440.9,154.786,444.3162,145.5486,440.5802,149.7963,436.3326,146.0603,440.9,154.786" style="stroke:#181818;stroke-width:1.0;"/><text fill="#000000" font-family="sans-serif" font-size="12" lengthAdjust="spacing" textLength="280" x="440" y="120.8441">obtenerDepartamentosDisponibles() : List&lt;String&gt;</text></g><!--link ImportarProfesoresView to ProfesorController--><g id="link_ImportarProfesoresView_ProfesorController"><path d="M647.39,77.116 C682.27,90.556 725,107.016 725,107.016 C725,107.016 725,125.016 725,125.016 C725,125.016 593.3289,146.8826 510.0289,160.7226 " fill="none" id="ImportarProfesoresView-to-ProfesorController-2" style="stroke:#181818;stroke-width:1.0;"/><polygon fill="#181818" points="504.11,161.706,513.6439,164.1768,509.0424,160.8865,512.3327,156.285,504.11,161.706" style="stroke:#181818;stroke-width:1.0;"/><text fill="#000000" font-family="sans-serif" font-size="12" lengthAdjust="spacing" textLength="179" x="726" y="120.8441">importar(archivo) : ImportResult</text></g><!--link ProfesorController to ProfesorRepository--><g id="link_ProfesorController_ProfesorRepository"><path d="M442,191.026 C442,212.076 442,241.716 442,262.846 " fill="none" id="ProfesorController-to-ProfesorRepository" style="stroke:#181818;stroke-width:1.0;"/><polygon fill="#181818" points="442,268.846,446,259.846,442,263.846,438,259.846,442,268.846" style="stroke:#181818;stroke-width:1.0;"/><text fill="#000000" font-family="sans-serif" font-size="12" lengthAdjust="spacing" textLength="228" x="443" y="234.8441">guardarLote(profesores) : List&lt;Profesor&gt;</text></g><!--link ProfesorRepository to Profesor--><g id="link_ProfesorRepository_Profesor"><path d="M442,305.436 C442,322.586 442,348.596 442,365.706 " fill="none" id="ProfesorRepository-Profesor" style="stroke:#181818;stroke-width:1.0;"/></g><!--link ImportarProfesoresView to ProfesoresAbiertoSalida--><g id="link_ImportarProfesoresView_ProfesoresAbiertoSalida"><path d="M681.88,71.936 C774.02,85.866 914,107.016 914,107.016 C914,107.016 987.7367,133.638 1041.0667,152.898 " fill="none" id="ImportarProfesoresView-to-ProfesoresAbiertoSalida" style="stroke:#181818;stroke-width:1.0;stroke-dasharray:7.0,7.0;"/><polygon fill="#181818" points="1046.71,154.936,1039.6038,148.1168,1042.0073,153.2377,1036.8864,155.6411,1046.71,154.936" style="stroke:#181818;stroke-width:1.0;"/><text fill="#000000" font-family="sans-serif" font-size="12" lengthAdjust="spacing" textLength="121" x="963" y="120.8441">finalizarImportacion()</text></g><!--link ImportarProfesoresView to ProfesoresAbiertoSalida--><g id="link_ImportarProfesoresView_ProfesoresAbiertoSalida"><path d="M681.73,67.566 C820.24,80.856 1093,107.016 1093,107.016 C1093,107.016 1093.3466,129.6768 1093.6466,148.9368 " fill="none" id="ImportarProfesoresView-to-ProfesoresAbiertoSalida-1" style="stroke:#181818;stroke-width:1.0;stroke-dasharray:7.0,7.0;"/><polygon fill="#181818" points="1093.74,154.936,1097.5993,145.8748,1093.6621,149.9366,1089.6003,145.9994,1093.74,154.936" style="stroke:#181818;stroke-width:1.0;"/><text fill="#000000" font-family="sans-serif" font-size="12" lengthAdjust="spacing" textLength="124" x="1094" y="120.8441">cancelarImportacion()</text></g><!--SRC=[fP9DZzf038RlyoiiUe53LYegQ3Uga2WVKgKzh43QkvEOO36CKyzGnAxwtpi8Dg5yg2hDQMA_xpEsntx5haB5DMIOhqgLZIj6OaLXk-H0njTvlyH2jknAMA3rfvanBN1ZmrHSE5Wp6rdN1ND-8_ZSFKbQTXHs5K4bThV_CKOf3-XAI_1fD9vy6_QWbRweBCYBaeTXngH1Me0Ucl0nQamLByUIWDULQ40zSKP3wpBSxhJWtK3yJYxkTvycqoVuVg5-PTgUYxDULlGVws96iL4LQqdFXTFkSFHbKWjdL8dd8BhxYz3y-h-fpD5oWSPS923HP72ZonIkpSgOwsf8YaYw744AaWLof5FHDGQPqOyDAHVIxa0Ayw1nfUv5ZYdkKC0rkI1-pBuInvdTLndHp-p3rmD_yEz5VxJUHisN_5Fsn0DZHZukSpFBnlKdhNdS5CeDQe7wB87QLLr1NUM7PT1G6pSaIRC7j_fuU1ZSUlKK5kpYwGtrQCvPN7p8Ur0vkfpiEUat]--></g></svg>