<?xml version="1.0" encoding="us-ascii" standalone="no"?><svg xmlns="http://www.w3.org/2000/svg" xmlns:xlink="http://www.w3.org/1999/xlink" contentStyleType="text/css" height="328px" preserveAspectRatio="none" style="width:783px;height:328px;background:#FFFFFF;" version="1.1" viewBox="0 0 783 328" width="783px" zoomAndPan="magnify"><defs/><g><!--cluster eliminarAula--><g id="cluster_eliminarAula"><path d="M8.5,6.016 L95.5,6.016 A3.75,3.75 0 0 1 98,8.516 L105,28.3601 L435.5,28.3601 A2.5,2.5 0 0 1 438,30.8601 L438,318.516 A2.5,2.5 0 0 1 435.5,321.016 L8.5,321.016 A2.5,2.5 0 0 1 6,318.516 L6,8.516 A2.5,2.5 0 0 1 8.5,6.016 " fill="none" style="stroke:#000000;stroke-width:1.5;"/><line style="stroke:#000000;stroke-width:1.5;" x1="6" x2="105" y1="28.3601" y2="28.3601"/><text fill="#000000" font-family="sans-serif" font-size="12" font-weight="bold" lengthAdjust="spacing" textLength="86" x="10" y="20.8441">eliminarAula()</text></g><!--entity EliminarAulaView--><g id="elem_EliminarAulaView"><rect fill="#629EF9" height="36.3441" rx="2.5" ry="2.5" style="stroke:#181818;stroke-width:0.5;" width="117" x="304.5" y="41.016"/><text fill="#000000" font-family="sans-serif" font-size="12" lengthAdjust="spacing" textLength="97" x="314.5" y="63.8441">EliminarAulaView</text></g><!--entity AulaController--><g id="elem_AulaController"><rect fill="#B5BD68" height="36.3441" rx="2.5" ry="2.5" style="stroke:#181818;stroke-width:0.5;" width="101" x="115.5" y="155.016"/><text fill="#000000" font-family="sans-serif" font-size="12" lengthAdjust="spacing" textLength="81" x="125.5" y="177.8441">AulaController</text></g><!--entity AulaRepository--><g id="elem_AulaRepository"><rect fill="#F2AC4E" height="36.3441" rx="2.5" ry="2.5" style="stroke:#181818;stroke-width:0.5;" width="104" x="47" y="269.016"/><text fill="#000000" font-family="sans-serif" font-size="12" lengthAdjust="spacing" textLength="84" x="57" y="291.8441">AulaRepository</text></g><!--entity ExamenRepository--><g id="elem_ExamenRepository"><rect fill="#F2AC4E" height="36.3441" rx="2.5" ry="2.5" style="stroke:#181818;stroke-width:0.5;" width="124" x="186" y="269.016"/><text fill="#000000" font-family="sans-serif" font-size="12" lengthAdjust="spacing" textLength="104" x="196" y="291.8441">ExamenRepository</text></g><!--entity Aula--><g id="elem_Aula"><rect fill="#F2AC4E" height="36.3441" rx="2.5" ry="2.5" style="stroke:#181818;stroke-width:0.5;" width="45" x="123.5" y="41.016"/><text fill="#000000" font-family="sans-serif" font-size="12" lengthAdjust="spacing" textLength="25" x="133.5" y="63.8441">Aula</text></g><!--entity AulasAbierto--><g id="elem_AulasAbierto"><rect fill="#CDEBA5" height="36.3441" rx="2.5" ry="2.5" style="stroke:#181818;stroke-width:0.5;" width="98" x="558" y="155.016"/><text fill="#000000" font-family="sans-serif" font-size="12" lengthAdjust="spacing" textLength="78" x="568" y="177.8441">:Aulas Abierto</text></g><!--link AulasAbierto to EliminarAulaView--><g id="link_AulasAbierto_EliminarAulaView"><path d="M557.72,156.366 C514.66,142.696 459,125.016 459,125.016 C459,125.016 421.6385,99.7196 393.1885,80.4596 " fill="none" id="AulasAbierto-to-EliminarAulaView" style="stroke:#181818;stroke-width:1.0;"/><polygon fill="#181818" points="388.22,77.096,393.4304,85.4538,392.3604,79.899,397.9152,78.829,388.22,77.096" style="stroke:#181818;stroke-width:1.0;"/><text fill="#000000" font-family="sans-serif" font-size="12" lengthAdjust="spacing" textLength="103" x="460" y="120.8441">eliminarAula(aula)</text></g><!--link EliminarAulaView to AulasAbierto--><g id="link_EliminarAulaView_AulasAbierto"><path d="M421.74,73.486 C482.32,87.376 568,107.016 568,107.016 C568,107.016 582.1142,130.5304 593.6642,149.7904 " fill="none" id="EliminarAulaView-to-AulasAbierto" style="stroke:#181818;stroke-width:1.0;stroke-dasharray:7.0,7.0;"/><polygon fill="#181818" points="596.75,154.936,595.5517,145.1603,594.1785,150.648,588.6909,149.2747,596.75,154.936" style="stroke:#181818;stroke-width:1.0;"/><text fill="#000000" font-family="sans-serif" font-size="12" lengthAdjust="spacing" textLength="126" x="579" y="120.8441">&#171;finalizar&#187; abrirAulas()</text></g><!--link EliminarAulaView to AulasAbierto--><g id="link_EliminarAulaView_AulasAbierto"><path d="M421.75,67.886 C521.67,81.266 714,107.016 714,107.016 C714,107.016 714,125.016 714,125.016 C714,125.016 682.0235,139.0632 651.4235,152.5032 " fill="none" id="EliminarAulaView-to-AulasAbierto-1" style="stroke:#181818;stroke-width:1.0;stroke-dasharray:7.0,7.0;"/><polygon fill="#181818" points="645.93,154.916,655.7788,154.9591,650.5079,152.9053,652.5617,147.6345,645.93,154.916" style="stroke:#181818;stroke-width:1.0;"/><text fill="#000000" font-family="sans-serif" font-size="12" lengthAdjust="spacing" textLength="60" x="715" y="120.8441">&#171;cancelar&#187;</text></g><!--link EliminarAulaView to AulaController--><g id="link_EliminarAulaView_AulaController"><path d="M304.15,68.966 C214.5,82.606 54,107.016 54,107.016 C54,107.016 54,125.016 54,125.016 C54,125.016 87.6976,139.1539 119.7176,152.5939 " fill="none" id="EliminarAulaView-to-AulaController" style="stroke:#181818;stroke-width:1.0;"/><polygon fill="#181818" points="125.25,154.916,118.4995,147.7445,120.6397,152.9809,115.4033,155.1211,125.25,154.916" style="stroke:#181818;stroke-width:1.0;"/><text fill="#000000" font-family="sans-serif" font-size="12" lengthAdjust="spacing" textLength="243" x="55" y="120.8441">verificarExamenesAsociados(aula) : Integer</text></g><!--link EliminarAulaView to AulaController--><g id="link_EliminarAulaView_AulaController"><path d="M347.24,77.096 C329.46,96.356 303,125.016 303,125.016 C303,125.016 260.6952,139.5287 221.5252,152.9687 " fill="none" id="EliminarAulaView-to-AulaController-1" style="stroke:#181818;stroke-width:1.0;"/><polygon fill="#181818" points="215.85,154.916,225.661,155.7786,220.5793,153.2933,223.0646,148.2116,215.85,154.916" style="stroke:#181818;stroke-width:1.0;"/><text fill="#000000" font-family="sans-serif" font-size="12" lengthAdjust="spacing" textLength="78" x="321" y="120.8441">eliminar(aula)</text></g><!--link AulaController to ExamenRepository--><g id="link_AulaController_ExamenRepository"><path d="M178.83,191.246 C188.82,204.666 201,221.016 201,221.016 C201,221.016 218.2154,244.8131 232.1354,264.0731 " fill="none" id="AulaController-to-ExamenRepository" style="stroke:#181818;stroke-width:1.0;"/><polygon fill="#181818" points="235.65,268.936,233.62,259.2986,232.7212,264.8836,227.1362,263.9848,235.65,268.936" style="stroke:#181818;stroke-width:1.0;"/><text fill="#000000" font-family="sans-serif" font-size="12" lengthAdjust="spacing" textLength="162" x="215" y="234.8441">contarPorAula(aula) : Integer</text></g><!--link AulaController to AulaRepository--><g id="link_AulaController_AulaRepository"><path d="M148.03,191.246 C134.05,204.666 117,221.016 117,221.016 C117,221.016 110.6603,243.8934 105.3303,263.1534 " fill="none" id="AulaController-to-AulaRepository" style="stroke:#181818;stroke-width:1.0;"/><polygon fill="#181818" points="103.73,268.936,109.9855,261.3289,105.0636,264.1171,102.2753,259.1952,103.73,268.936" style="stroke:#181818;stroke-width:1.0;"/><text fill="#000000" font-family="sans-serif" font-size="12" lengthAdjust="spacing" textLength="78" x="118" y="234.8441">eliminar(aula)</text></g><!--SRC=[ZP91Jy9048Nl-oiczG87I2H2j25DQYc9DwE9zsaxBHkMtMPt4S7utzrIDDk2aPwsCzzxCszRi-QoHeqRo31VLrfjPP4eeJJiLjmICxzziy92xRYie4HX_Cw2IjmAkrJIjj9CEA_Bm2i_4DnElARWako-9gYLs3SlZ6dABSfA4DmaY_Gnda8Gnbk11kACaxOgWERSL4u5ncet4Yi24dp39Ugcsr21NnWC0_Xau1vln6poa2uV8FMuDqwxFfPDis9sVvoQk21Q2K6w3oqdSNAN7g4NgfNXLkdz7r3wWHkI_sAD5_jYp8yB8psApZOEE-47xifno5YVWb7XjDqO8RoJvYNFKRTRaOcDohdxugRrWH2UfANAHUvAMxj-bX1oHw1-LjukdiULM_taEMMvDBbxrMUIyq7ZSTJvTKAOpqj727v07KM0cUP7sWo6rwbpb3c9Hio-0G00]--></g></svg>