<?xml version="1.0" encoding="us-ascii" standalone="no"?><svg xmlns="http://www.w3.org/2000/svg" xmlns:xlink="http://www.w3.org/1999/xlink" contentStyleType="text/css" height="328px" preserveAspectRatio="none" style="width:1015px;height:328px;background:#FFFFFF;" version="1.1" viewBox="0 0 1015 328" width="1015px" zoomAndPan="magnify"><defs/><g><!--cluster editarAula--><g id="cluster_editarAula"><path d="M8.5,6.016 L80.5,6.016 A3.75,3.75 0 0 1 83,8.516 L90,28.3601 L420.5,28.3601 A2.5,2.5 0 0 1 423,30.8601 L423,318.516 A2.5,2.5 0 0 1 420.5,321.016 L8.5,321.016 A2.5,2.5 0 0 1 6,318.516 L6,8.516 A2.5,2.5 0 0 1 8.5,6.016 " fill="none" style="stroke:#000000;stroke-width:1.5;"/><line style="stroke:#000000;stroke-width:1.5;" x1="6" x2="90" y1="28.3601" y2="28.3601"/><text fill="#000000" font-family="sans-serif" font-size="12" font-weight="bold" lengthAdjust="spacing" textLength="71" x="10" y="20.8441">editarAula()</text></g><!--entity EditarAulaView--><g id="elem_EditarAulaView"><rect fill="#629EF9" height="36.3441" rx="2.5" ry="2.5" style="stroke:#181818;stroke-width:0.5;" width="104" x="303" y="41.016"/><text fill="#000000" font-family="sans-serif" font-size="12" lengthAdjust="spacing" textLength="84" x="313" y="63.8441">EditarAulaView</text></g><!--entity AulaController--><g id="elem_AulaController"><rect fill="#B5BD68" height="36.3441" rx="2.5" ry="2.5" style="stroke:#181818;stroke-width:0.5;" width="101" x="22.5" y="155.016"/><text fill="#000000" font-family="sans-serif" font-size="12" lengthAdjust="spacing" textLength="81" x="32.5" y="177.8441">AulaController</text></g><!--entity AulaRepository--><g id="elem_AulaRepository"><rect fill="#F2AC4E" height="36.3441" rx="2.5" ry="2.5" style="stroke:#181818;stroke-width:0.5;" width="104" x="22" y="269.016"/><text fill="#000000" font-family="sans-serif" font-size="12" lengthAdjust="spacing" textLength="84" x="32" y="291.8441">AulaRepository</text></g><!--entity Aula--><g id="elem_Aula"><rect fill="#F2AC4E" height="36.3441" rx="2.5" ry="2.5" style="stroke:#181818;stroke-width:0.5;" width="45" x="211.5" y="155.016"/><text fill="#000000" font-family="sans-serif" font-size="12" lengthAdjust="spacing" textLength="25" x="221.5" y="177.8441">Aula</text></g><!--entity AulasAbierto--><g id="elem_AulasAbierto"><rect fill="#CDEBA5" height="36.3441" rx="2.5" ry="2.5" style="stroke:#181818;stroke-width:0.5;" width="98" x="530" y="155.016"/><text fill="#000000" font-family="sans-serif" font-size="12" lengthAdjust="spacing" textLength="78" x="540" y="177.8441">:Aulas Abierto</text></g><!--entity AulaAbierta--><g id="elem_AulaAbierta"><rect fill="#CDEBA5" height="36.3441" rx="2.5" ry="2.5" style="stroke:#181818;stroke-width:0.5;" width="92" x="803" y="155.016"/><text fill="#000000" font-family="sans-serif" font-size="12" lengthAdjust="spacing" textLength="72" x="813" y="177.8441">:Aula Abierta</text></g><!--link AulasAbierto to EditarAulaView--><g id="link_AulasAbierto_EditarAulaView"><path d="M529.88,154.916 C491.28,141.476 444,125.016 444,125.016 C444,125.016 409.5953,99.8949 383.2253,80.6349 " fill="none" id="AulasAbierto-to-EditarAulaView" style="stroke:#181818;stroke-width:1.0;"/><polygon fill="#181818" points="378.38,77.096,383.2886,85.6345,382.4177,80.0451,388.0071,79.1741,378.38,77.096" style="stroke:#181818;stroke-width:1.0;"/><text fill="#000000" font-family="sans-serif" font-size="12" lengthAdjust="spacing" textLength="90" x="445" y="120.8441">editarAula(aula)</text></g><!--link EditarAulaView to AulasAbierto--><g id="link_EditarAulaView_AulasAbierto"><path d="M407.03,73.236 C461.74,87.136 540,107.016 540,107.016 C540,107.016 554.1142,130.5304 565.6642,149.7904 " fill="none" id="EditarAulaView-to-AulasAbierto" style="stroke:#181818;stroke-width:1.0;stroke-dasharray:7.0,7.0;"/><polygon fill="#181818" points="568.75,154.936,567.5517,145.1603,566.1785,150.648,560.6909,149.2747,568.75,154.936" style="stroke:#181818;stroke-width:1.0;"/><text fill="#000000" font-family="sans-serif" font-size="12" lengthAdjust="spacing" textLength="126" x="552" y="120.8441">&#171;finalizar&#187; abrirAulas()</text></g><!--link EditarAulaView to AulasAbierto--><g id="link_EditarAulaView_AulasAbierto"><path d="M407.24,67.416 C500.74,80.646 687,107.016 687,107.016 C687,107.016 687,125.016 687,125.016 C687,125.016 654.6815,139.0816 623.8015,152.5216 " fill="none" id="EditarAulaView-to-AulasAbierto-1" style="stroke:#181818;stroke-width:1.0;stroke-dasharray:7.0,7.0;"/><polygon fill="#181818" points="618.3,154.916,628.1486,154.992,622.8846,152.9207,624.956,147.6567,618.3,154.916" style="stroke:#181818;stroke-width:1.0;"/><text fill="#000000" font-family="sans-serif" font-size="12" lengthAdjust="spacing" textLength="60" x="688" y="120.8441">&#171;cancelar&#187;</text></g><!--link EditarAulaView to AulaController--><g id="link_EditarAulaView_AulaController"><path d="M302.8,68.416 C218.81,81.936 63,107.016 63,107.016 C63,107.016 63,125.016 63,125.016 C63,125.016 65.2336,135.4969 68.0836,148.9169 " fill="none" id="EditarAulaView-to-AulaController" style="stroke:#181818;stroke-width:1.0;"/><polygon fill="#181818" points="69.33,154.786,71.3731,145.1514,68.2913,149.8951,63.5476,146.8133,69.33,154.786" style="stroke:#181818;stroke-width:1.0;"/><text fill="#000000" font-family="sans-serif" font-size="12" lengthAdjust="spacing" textLength="348" x="64" y="120.8441">actualizar(aula, nombre, capacidad, edificio, planta, tipo) : Aula</text></g><!--link AulaController to Aula--><g id="link_AulaController_Aula"><path d="M123.94,173.016 C153.24,173.016 182.6,173.016 205.19,173.016 " fill="none" id="AulaController-to-Aula" style="stroke:#181818;stroke-width:1.0;"/><polygon fill="#181818" points="211.19,173.016,202.19,169.016,206.19,173.016,202.19,177.016,211.19,173.016" style="stroke:#181818;stroke-width:1.0;"/><text fill="#000000" font-family="sans-serif" font-size="12" lengthAdjust="spacing" textLength="51" x="142" y="165.8441">&#171;update&#187;</text></g><!--link AulaController to AulaRepository--><g id="link_AulaController_AulaRepository"><path d="M73.15,191.026 C73.34,212.076 73.6061,241.7163 73.7961,262.8463 " fill="none" id="AulaController-to-AulaRepository" style="stroke:#181818;stroke-width:1.0;"/><polygon fill="#181818" points="73.85,268.846,77.7689,259.8104,73.805,263.8462,69.7692,259.8824,73.85,268.846" style="stroke:#181818;stroke-width:1.0;"/><text fill="#000000" font-family="sans-serif" font-size="12" lengthAdjust="spacing" textLength="87" x="75" y="234.8441">actualizar(aula)</text></g><!--link EditarAulaView to AulaAbierta--><g id="link_EditarAulaView_AulaAbierta"><path d="M407.14,66.116 C515.91,78.826 757,107.016 757,107.016 C757,107.016 792.6697,132.2138 819.9297,151.4738 " fill="none" id="EditarAulaView-to-AulaAbierta" style="stroke:#181818;stroke-width:1.0;stroke-dasharray:7.0,7.0;"/><polygon fill="#181818" points="824.83,154.936,819.7877,146.4758,820.7464,152.0508,815.1714,153.0096,824.83,154.936" style="stroke:#181818;stroke-width:1.0;"/><text fill="#000000" font-family="sans-serif" font-size="12" lengthAdjust="spacing" textLength="45" x="782" y="120.8441">&#171;editar&#187;</text></g><!--link AulaAbierta to AulaAbierta--><g id="link_AulaAbierta_AulaAbierta"><path d="M895.21,162.596 C914.08,161.936 930,165.416 930,173.016 C930,180.616 920.0763,184.3058 901.2063,183.6458 " fill="none" id="AulaAbierta-to-AulaAbierta" style="stroke:#181818;stroke-width:1.0;"/><polygon fill="#181818" points="895.21,183.436,904.0647,187.7482,900.2069,183.6108,904.3443,179.7531,895.21,183.436" style="stroke:#181818;stroke-width:1.0;"/><text fill="#000000" font-family="sans-serif" font-size="12" lengthAdjust="spacing" textLength="66" x="936" y="177.8441">editarAula()</text></g><!--SRC=[ZP7TRi8m38NlynHMTmCIHHeQQ5IeKbVA0spIxjqcBH4XYT9K2AQz-z8Ve9GnhLUr_Htxs2btN6eqk8SKirrXL2Lfh8GoSDXooqXvgPTRfEh0PG4vYh9VMRCSAs4tIjfMcWhNwtVWWvyOFCzwHS4biqVDG2jnh0D23Ciioa8mU8hNoLiq1o-8Ae4bH2bdnYeFwlywqoKUIZe5NXHTJ8Xs7h5Wm2YtQ1hM8Tur78qz-2BWlbxpnMoPR9QGNAXFpWv3A9sdTF7QZ8lTpaO9mSmGsioY-2Lfe7UcLScjCiS_8F9DI7zby8qV3em4lMr6xkGu9kIM09ywrQsp032p5Gf-GjEe9Y3LFZLi0XcwCt6AT59tpdd6rGIqG6aTPBbMOmXQT-IsP-kkpWMmMbMQecLXU0UTpLmlS6VcVeNfDEm_PJsWNRiRqEN1zmTS_sqVTZtVjswRSzaw2KF0rF26Bftu7zeCPSP4O-e7]--></g></svg>