<?xml version="1.0" encoding="us-ascii" standalone="no"?><svg xmlns="http://www.w3.org/2000/svg" xmlns:xlink="http://www.w3.org/1999/xlink" contentStyleType="text/css" height="328px" preserveAspectRatio="none" style="width:1032px;height:328px;background:#FFFFFF;" version="1.1" viewBox="0 0 1032 328" width="1032px" zoomAndPan="magnify"><defs/><g><!--cluster descargarCalendarioExamenes--><g id="cluster_descargarCalendarioExamenes"><path d="M153.5,6.016 L347.5,6.016 A3.75,3.75 0 0 1 350,8.516 L357,28.3601 L867.5,28.3601 A2.5,2.5 0 0 1 870,30.8601 L870,318.516 A2.5,2.5 0 0 1 867.5,321.016 L153.5,321.016 A2.5,2.5 0 0 1 151,318.516 L151,8.516 A2.5,2.5 0 0 1 153.5,6.016 " fill="none" style="stroke:#000000;stroke-width:1.5;"/><line style="stroke:#000000;stroke-width:1.5;" x1="151" x2="357" y1="28.3601" y2="28.3601"/><text fill="#000000" font-family="sans-serif" font-size="12" font-weight="bold" lengthAdjust="spacing" textLength="193" x="155" y="20.8441">descargarCalendarioExamenes()</text></g><!--entity DescargarCalendarioView--><g id="elem_DescargarCalendarioView"><rect fill="#629EF9" height="36.3441" rx="2.5" ry="2.5" style="stroke:#181818;stroke-width:0.5;" width="166" x="588" y="41.016"/><text fill="#000000" font-family="sans-serif" font-size="12" lengthAdjust="spacing" textLength="146" x="598" y="63.8441">DescargarCalendarioView</text></g><!--entity CalendarioController--><g id="elem_CalendarioController"><rect fill="#B5BD68" height="36.3441" rx="2.5" ry="2.5" style="stroke:#181818;stroke-width:0.5;" width="137" x="492.5" y="155.016"/><text fill="#000000" font-family="sans-serif" font-size="12" lengthAdjust="spacing" textLength="117" x="502.5" y="177.8441">CalendarioController</text></g><!--entity ExamenRepository--><g id="elem_ExamenRepository"><rect fill="#F2AC4E" height="36.3441" rx="2.5" ry="2.5" style="stroke:#181818;stroke-width:0.5;" width="124" x="511" y="269.016"/><text fill="#000000" font-family="sans-serif" font-size="12" lengthAdjust="spacing" textLength="104" x="521" y="291.8441">ExamenRepository</text></g><!--entity Examen--><g id="elem_Examen"><rect fill="#F2AC4E" height="36.3441" rx="2.5" ry="2.5" style="stroke:#181818;stroke-width:0.5;" width="65" x="168.5" y="155.016"/><text fill="#000000" font-family="sans-serif" font-size="12" lengthAdjust="spacing" textLength="45" x="178.5" y="177.8441">Examen</text></g><!--entity ExportService--><g id="elem_ExportService"><rect fill="#F2AC4E" height="36.3441" rx="2.5" ry="2.5" style="stroke:#181818;stroke-width:0.5;" width="97" x="200.5" y="269.016"/><text fill="#000000" font-family="sans-serif" font-size="12" lengthAdjust="spacing" textLength="77" x="210.5" y="291.8441">ExportService</text></g><!--entity Session--><g id="elem_Session"><rect fill="#F2AC4E" height="36.3441" rx="2.5" ry="2.5" style="stroke:#181818;stroke-width:0.5;" width="66" x="269" y="155.016"/><text fill="#000000" font-family="sans-serif" font-size="12" lengthAdjust="spacing" textLength="46" x="279" y="177.8441">:Session</text></g><!--entity CalendarioAbierto--><g id="elem_CalendarioAbierto"><rect fill="#CDEBA5" height="36.3441" rx="2.5" ry="2.5" style="stroke:#181818;stroke-width:0.5;" width="128" x="7" y="41.016"/><text fill="#000000" font-family="sans-serif" font-size="12" lengthAdjust="spacing" textLength="108" x="17" y="63.8441">:Calendario Abierto</text></g><!--entity CalendarioAbiertoSalida--><g id="elem_CalendarioAbiertoSalida"><rect fill="#CDEBA5" height="36.3441" rx="2.5" ry="2.5" style="stroke:#181818;stroke-width:0.5;" width="128" x="898" y="155.016"/><text fill="#000000" font-family="sans-serif" font-size="12" lengthAdjust="spacing" textLength="108" x="908" y="177.8441">:Calendario Abierto</text></g><!--link CalendarioAbierto to DescargarCalendarioView--><g id="link_CalendarioAbierto_DescargarCalendarioView"><path d="M135.21,59.016 C244.57,59.016 460.86,59.016 581.91,59.016 " fill="none" id="CalendarioAbierto-to-DescargarCalendarioView" style="stroke:#181818;stroke-width:1.0;"/><polygon fill="#181818" points="587.91,59.016,578.91,55.016,582.91,59.016,578.91,63.016,587.91,59.016" style="stroke:#181818;stroke-width:1.0;"/><text fill="#000000" font-family="sans-serif" font-size="12" lengthAdjust="spacing" textLength="126" x="298.5" y="51.8441">descargarCalendario()</text></g><!--link DescargarCalendarioView to CalendarioController--><g id="link_DescargarCalendarioView_CalendarioController"><path d="M627.34,77.116 C593.03,90.556 551,107.016 551,107.016 C551,107.016 551,125.016 551,125.016 C551,125.016 553.2336,135.4969 556.0836,148.9169 " fill="none" id="DescargarCalendarioView-to-CalendarioController" style="stroke:#181818;stroke-width:1.0;"/><polygon fill="#181818" points="557.33,154.786,559.3731,145.1514,556.2913,149.8951,551.5476,146.8133,557.33,154.786" style="stroke:#181818;stroke-width:1.0;"/><text fill="#000000" font-family="sans-serif" font-size="12" lengthAdjust="spacing" textLength="273" x="552" y="120.8441">generarArchivo(periodo, formato, opciones) : File</text></g><!--reverse link Session to CalendarioController--><g id="link_Session_CalendarioController"><path d="M341.07,173.016 C380.55,173.016 441.61,173.016 492.45,173.016 " fill="none" id="Session-backto-CalendarioController" style="stroke:#181818;stroke-width:1.0;"/><polygon fill="#181818" points="335.07,173.016,344.07,177.016,340.07,173.016,344.07,169.016,335.07,173.016" style="stroke:#181818;stroke-width:1.0;"/><text fill="#000000" font-family="sans-serif" font-size="12" lengthAdjust="spacing" textLength="121" x="353.25" y="165.8441">obtenerActor() : Actor</text></g><!--link CalendarioController to ExamenRepository--><g id="link_CalendarioController_ExamenRepository"><path d="M562.82,191.026 C565.08,212.076 568.2619,241.7501 570.5219,262.8801 " fill="none" id="CalendarioController-to-ExamenRepository" style="stroke:#181818;stroke-width:1.0;"/><polygon fill="#181818" points="571.16,268.846,574.1802,259.4717,570.6282,263.8744,566.2255,260.3225,571.16,268.846" style="stroke:#181818;stroke-width:1.0;"/><text fill="#000000" font-family="sans-serif" font-size="12" lengthAdjust="spacing" textLength="279" x="568" y="234.8441">obtenerPorPeriodo(periodo, actor) : List&lt;Examen&gt;</text></g><!--link CalendarioController to ExportService--><g id="link_CalendarioController_ExportService"><path d="M492.26,186.736 C417.04,200.656 307,221.016 307,221.016 C307,221.016 285.414,245.1985 268.234,264.4585 " fill="none" id="CalendarioController-to-ExportService" style="stroke:#181818;stroke-width:1.0;"/><polygon fill="#181818" points="264.24,268.936,273.216,264.8824,267.5683,265.2048,267.2459,259.5571,264.24,268.936" style="stroke:#181818;stroke-width:1.0;"/><text fill="#000000" font-family="sans-serif" font-size="12" lengthAdjust="spacing" textLength="249" x="308" y="234.8441">exportar(examenes, formato, opciones) : File</text></g><!--reverse link Examen to ExportService--><g id="link_Examen_ExportService"><path d="M200.0154,197.2406 C199.4454,210.6606 199,221.016 199,221.016 C199,221.016 199,239.016 199,239.016 C199,239.016 216.4,255.366 230.67,268.786 " fill="none" id="Examen-backto-ExportService" style="stroke:#181818;stroke-width:1.0;"/><polygon fill="#181818" points="200.27,191.246,195.8917,200.0682,200.0578,196.2415,203.8845,200.4077,200.27,191.246" style="stroke:#181818;stroke-width:1.0;"/><text fill="#000000" font-family="sans-serif" font-size="12" lengthAdjust="spacing" textLength="38" x="200" y="234.8441">&#171;read&#187;</text></g><!--link DescargarCalendarioView to CalendarioAbiertoSalida--><g id="link_DescargarCalendarioView_CalendarioAbiertoSalida"><path d="M728.85,77.116 C774.31,90.556 830,107.016 830,107.016 C830,107.016 866,125.016 866,125.016 C866,125.016 894.2312,138.8376 921.6812,152.2776 " fill="none" id="DescargarCalendarioView-to-CalendarioAbiertoSalida" style="stroke:#181818;stroke-width:1.0;stroke-dasharray:7.0,7.0;"/><polygon fill="#181818" points="927.07,154.916,920.7458,147.3659,922.5794,152.7173,917.2279,154.5509,927.07,154.916" style="stroke:#181818;stroke-width:1.0;"/><text fill="#000000" font-family="sans-serif" font-size="12" lengthAdjust="spacing" textLength="57" x="867" y="120.8441">&#171;finalizar&#187;</text></g><!--link DescargarCalendarioView to CalendarioAbiertoSalida--><g id="link_DescargarCalendarioView_CalendarioAbiertoSalida"><path d="M754.05,75.146 C829.47,88.886 929,107.016 929,107.016 C929,107.016 940.8334,130.3262 950.6134,149.5862 " fill="none" id="DescargarCalendarioView-to-CalendarioAbiertoSalida-1" style="stroke:#181818;stroke-width:1.0;stroke-dasharray:7.0,7.0;"/><polygon fill="#181818" points="953.33,154.936,952.8217,145.1003,951.0662,150.4779,945.6886,148.7224,953.33,154.936" style="stroke:#181818;stroke-width:1.0;"/><text fill="#000000" font-family="sans-serif" font-size="12" lengthAdjust="spacing" textLength="60" x="938" y="120.8441">&#171;cancelar&#187;</text></g><!--SRC=[fL9DRzf04BtlhnYv5oFLaOgIgB6G9TU1KmvHaNeVsuDPPTcnPfSG4lM_Tmq8N88vj3xDxllODpDsBzgsABY24gkNHdXjwu8D2soMsfDoHzmjiUQDjWqiqBW-yaWBN1i_O-ltqj84hyk4kNud-3RkWKPRyjkMe6MpxGvA2LKURMC8lXIFqn_v7KHfWOPiZQ8PybAJU8u07Pok3xTAjU5nR0XgSXLAWtBYJDzmHPPSfuokuF4eWWy5uUj5kHy_J6SFePbFib-QDkViygwixx_tyXMXUs5ZICwfit5Ut4vX__XFQjbfpxAzIXi4MnO_9tdL5GrmedHEpccskm4UQlNx_yO-HwDhLEeJ08aasT3GqajBYaTA3V0XgOFPfPccq8J52KekrLA_SjnIm6l-2WkM5VfGS5k5HicD88MPDjGFUpA2n8Gd3bD9WKlV-UPLs4ZSANVLWB8BTxx5eyKpo_C-qoaRTcQTwvDsVhANPkggUs-_AT3kY1BJuSUzrkvVMaZMnx0fJ2P2M6VPyE1lRhAXfNVoXRQXVaS97lzeKQ6joEmS_W00]--></g></svg>