<?xml version="1.0" encoding="us-ascii" standalone="no"?><svg xmlns="http://www.w3.org/2000/svg" xmlns:xlink="http://www.w3.org/1999/xlink" contentStyleType="text/css" height="680px" preserveAspectRatio="none" style="width:752px;height:680px;background:#FFFFFF;" version="1.1" viewBox="0 0 752 680" width="752px" zoomAndPan="magnify"><defs/><g><path d="M19.5,7 L726.5,7 A12.5,12.5 0 0 1 739,19.5 L739,34.6094 L7,34.6094 L7,19.5 A12.5,12.5 0 0 1 19.5,7 " fill="#F1F1F1" style="stroke:#F1F1F1;stroke-width:1.0;"/><rect fill="none" height="520.6094" rx="12.5" ry="12.5" style="stroke:#181818;stroke-width:0.5;" width="732" x="7" y="7"/><line style="stroke:#181818;stroke-width:0.5;" x1="7" x2="739" y1="34.6094" y2="34.6094"/><text fill="#000000" font-family="sans-serif" font-size="14" lengthAdjust="spacing" textLength="93" x="326.5" y="26.5332">editarAlumno()</text><g id="editarAlumno.EditandoDatos"><rect fill="#F1F1F1" height="50" rx="12.5" ry="12.5" style="stroke:#181818;stroke-width:0.5;" width="50" x="193" y="137.6094"/><line style="stroke:#181818;stroke-width:0.5;" x1="193" x2="243" y1="165.2188" y2="165.2188"/><text fill="#000000" font-family="sans-serif" font-size="14" lengthAdjust="spacing" textLength="4" x="216" y="157.1426">&#160;</text></g><g id="editarAlumno.GuardandoDatos"><rect fill="#F1F1F1" height="50" rx="12.5" ry="12.5" style="stroke:#181818;stroke-width:0.5;" width="50" x="193" y="357.6094"/><line style="stroke:#181818;stroke-width:0.5;" x1="193" x2="243" y1="385.2188" y2="385.2188"/><text fill="#000000" font-family="sans-serif" font-size="14" lengthAdjust="spacing" textLength="4" x="216" y="377.1426">&#160;</text></g><ellipse cx="218" cy="55.6094" fill="#222222" rx="10" ry="10" style="stroke:#222222;stroke-width:1.0;"/><ellipse cx="218" cy="506.6094" fill="none" rx="11" ry="11" style="stroke:#222222;stroke-width:1.0;"/><ellipse cx="218" cy="506.6094" fill="#222222" rx="6" ry="6" style="stroke:#222222;stroke-width:1.0;"/><!--link *start*editarAlumno to EditandoDatos--><g id="link_*start*editarAlumno_EditandoDatos"><path d="M218,65.9294 C218,81.7894 218,108.5194 218,131.2494 " fill="none" id="*start*editarAlumno-to-EditandoDatos" style="stroke:#008000;stroke-width:1.0;"/><polygon fill="#008000" points="218,137.2494,222,128.2494,218,132.2494,214,128.2494,218,137.2494" style="stroke:#008000;stroke-width:1.0;"/><path d="M223,88.6094 L223,114.6094 L460,114.6094 L460,98.6094 L450,88.6094 L223,88.6094 " fill="#FEFFDD" style="stroke:#181818;stroke-width:0.5;"/><path d="M450,88.6094 L450,98.6094 L460,98.6094 L450,88.6094 " fill="#FEFFDD" style="stroke:#181818;stroke-width:0.5;"/><text fill="#000000" font-family="sans-serif" font-size="13" font-weight="bold" lengthAdjust="spacing" textLength="89" x="229" y="107.1045">Administrador</text><text fill="#000000" font-family="sans-serif" font-size="13" lengthAdjust="spacing" textLength="123" x="322" y="107.1045">solicita editar alumno</text></g><!--link EditandoDatos to GuardandoDatos--><g id="link_EditandoDatos_GuardandoDatos"><path d="M192.89,170.7294 C150.67,182.7194 70,205.6094 70,205.6094 C70,205.6094 70,339.6094 70,339.6094 C70,339.6094 144.8982,360.8603 187.1182,372.8503 " fill="none" id="EditandoDatos-to-GuardandoDatos" style="stroke:#008000;stroke-width:1.0;"/><polygon fill="#008000" points="192.89,374.4894,185.3251,368.1829,188.0802,373.1234,183.1396,375.8785,192.89,374.4894" style="stroke:#008000;stroke-width:1.0;"/><path d="M75,210.6094 L75,334.6094 L341,334.6094 L341,220.6094 L331,210.6094 L75,210.6094 " fill="#FEFFDD" style="stroke:#181818;stroke-width:0.5;"/><path d="M331,210.6094 L331,220.6094 L341,220.6094 L331,210.6094 " fill="#FEFFDD" style="stroke:#181818;stroke-width:0.5;"/><text fill="#000000" font-family="sans-serif" font-size="13" font-weight="bold" lengthAdjust="spacing" textLength="51" x="81" y="229.1045">Sistema</text><text fill="#000000" font-family="sans-serif" font-size="13" lengthAdjust="spacing" textLength="149" x="136" y="229.1045">presenta datos de edici&#243;n</text><text fill="#000000" font-family="sans-serif" font-size="13" lengthAdjust="spacing" textLength="195" x="81" y="245.4561">&#8226; Permite introducir nuevo nombre</text><text fill="#000000" font-family="sans-serif" font-size="13" lengthAdjust="spacing" textLength="183" x="81" y="261.8076">&#8226; Permite introducir nuevo email</text><text fill="#000000" font-family="sans-serif" font-size="13" lengthAdjust="spacing" textLength="184" x="81" y="278.1592">&#8226; Permite introducir nuevo curso</text><text fill="#000000" font-family="sans-serif" font-size="13" lengthAdjust="spacing" textLength="245" x="81" y="294.5107">&#8226; Permite solicitar cambiar grado asociado</text><text fill="#000000" font-family="sans-serif" font-size="13" lengthAdjust="spacing" textLength="203" x="81" y="310.8623">&#8226; Permite solicitar guardar cambios</text><text fill="#000000" font-family="sans-serif" font-size="13" lengthAdjust="spacing" textLength="201" x="81" y="327.2139">&#8226; Permite solicitar cancelar edici&#243;n</text></g><!--link GuardandoDatos to EditandoDatos--><g id="link_GuardandoDatos_EditandoDatos"><path d="M243.29,373.3094 C280.59,361.0694 346,339.6094 346,339.6094 C346,339.6094 346,205.6094 346,205.6094 C346,205.6094 286.2909,186.0201 248.9909,173.7801 " fill="none" id="GuardandoDatos-to-EditandoDatos" style="stroke:#008000;stroke-width:1.0;"/><polygon fill="#008000" points="243.29,171.9094,250.5942,178.5161,248.0408,173.4683,253.0885,170.9149,243.29,171.9094" style="stroke:#008000;stroke-width:1.0;"/><path d="M351,243.1094 L351,302.1094 L629,302.1094 L629,253.1094 L619,243.1094 L351,243.1094 " fill="#FEFFDD" style="stroke:#181818;stroke-width:0.5;"/><path d="M619,243.1094 L619,253.1094 L629,253.1094 L619,243.1094 " fill="#FEFFDD" style="stroke:#181818;stroke-width:0.5;"/><text fill="#000000" font-family="sans-serif" font-size="13" font-weight="bold" lengthAdjust="spacing" textLength="89" x="357" y="261.6045">Administrador</text><text fill="#000000" font-family="sans-serif" font-size="13" lengthAdjust="spacing" textLength="147" x="450" y="261.6045">solicita modificar campos</text><text fill="#000000" font-family="sans-serif" font-size="13" font-weight="bold" lengthAdjust="spacing" textLength="51" x="357" y="277.9561">Sistema</text><text fill="#000000" font-family="sans-serif" font-size="13" lengthAdjust="spacing" textLength="188" x="412" y="277.9561">permite introducir nuevos valores</text><text fill="#000000" font-family="sans-serif" font-size="13" font-weight="bold" lengthAdjust="spacing" textLength="51" x="357" y="294.3076">Sistema</text><text fill="#000000" font-family="sans-serif" font-size="13" lengthAdjust="spacing" textLength="202" x="412" y="294.3076">permite seleccionar grado diferente</text></g><!--link GuardandoDatos to *end*editarAlumno--><g id="link_GuardandoDatos_*end*editarAlumno"><path d="M192.67,388.9294 C138.85,400.2294 18,425.6094 18,425.6094 C18,425.6094 18,477.6094 18,477.6094 C18,477.6094 159.7678,497.4583 201.3078,503.2683 " fill="none" id="GuardandoDatos-to-*end*editarAlumno" style="stroke:#008000;stroke-width:1.0;"/><polygon fill="#008000" points="207.25,504.0994,198.8908,498.8913,202.2982,503.4068,197.7827,506.8142,207.25,504.0994" style="stroke:#008000;stroke-width:1.0;"/><path d="M23,430.6094 L23,472.6094 L393,472.6094 L393,440.6094 L383,430.6094 L23,430.6094 " fill="#FEFFDD" style="stroke:#181818;stroke-width:0.5;"/><path d="M383,430.6094 L383,440.6094 L393,440.6094 L383,430.6094 " fill="#FEFFDD" style="stroke:#181818;stroke-width:0.5;"/><text fill="#000000" font-family="sans-serif" font-size="13" font-weight="bold" lengthAdjust="spacing" textLength="89" x="29" y="449.1045">Administrador</text><text fill="#000000" font-family="sans-serif" font-size="13" lengthAdjust="spacing" textLength="127" x="122" y="449.1045">solicita guardar y salir</text><text fill="#000000" font-family="sans-serif" font-size="13" font-weight="bold" lengthAdjust="spacing" textLength="51" x="29" y="465.4561">Sistema</text><text fill="#000000" font-family="sans-serif" font-size="13" lengthAdjust="spacing" textLength="294" x="84" y="465.4561">visualiza y actualiza el alumno en la base de datos</text></g><!--link GuardandoDatos to *end*editarAlumno--><g id="link_GuardandoDatos_*end*editarAlumno"><path d="M243.03,389.4494 C292.49,400.9894 398,425.6094 398,425.6094 C398,425.6094 398,477.6094 398,477.6094 C398,477.6094 273.3986,496.9868 234.6486,503.0168 " fill="none" id="GuardandoDatos-to-*end*editarAlumno-1" style="stroke:#FF0000;stroke-width:1.0;"/><polygon fill="#FF0000" points="228.72,503.9394,238.228,506.5079,233.6605,503.1706,236.9979,498.6031,228.72,503.9394" style="stroke:#FF0000;stroke-width:1.0;"/><path d="M403,430.6094 L403,472.6094 L730,472.6094 L730,440.6094 L720,430.6094 L403,430.6094 " fill="#FEFFDD" style="stroke:#181818;stroke-width:0.5;"/><path d="M720,430.6094 L720,440.6094 L730,440.6094 L720,430.6094 " fill="#FEFFDD" style="stroke:#181818;stroke-width:0.5;"/><text fill="#000000" font-family="sans-serif" font-size="13" font-weight="bold" lengthAdjust="spacing" textLength="89" x="409" y="449.1045">Administrador</text><text fill="#000000" font-family="sans-serif" font-size="13" lengthAdjust="spacing" textLength="139" x="502" y="449.1045">solicita cancelar edici&#243;n</text><text fill="#000000" font-family="sans-serif" font-size="13" font-weight="bold" lengthAdjust="spacing" textLength="51" x="409" y="465.4561">Sistema</text><text fill="#000000" font-family="sans-serif" font-size="13" lengthAdjust="spacing" textLength="251" x="464" y="465.4561">visualiza y descarta los cambios realizados</text></g><g id="ALUMNOS_ABIERTO"><rect fill="#F1F1F1" height="50" rx="12.5" ry="12.5" style="stroke:#181818;stroke-width:0.5;" width="154" x="296" y="624"/><line style="stroke:#181818;stroke-width:0.5;" x1="296" x2="450" y1="651.6094" y2="651.6094"/><text fill="#000000" font-family="sans-serif" font-size="14" lengthAdjust="spacing" textLength="134" x="306" y="643.5332">ALUMNOS_ABIERTO</text></g><!--link editarAlumno to ALUMNOS_ABIERTO--><g id="link_editarAlumno_ALUMNOS_ABIERTO"><path d="M301.26,528.11 C296.18,546.51 293,558 293,558 C293,558 293,594 293,594 C293,594 310.9361,606.1144 332.2361,620.4844 " fill="none" id="editarAlumno-to-ALUMNOS_ABIERTO" style="stroke:#008000;stroke-width:1.0;"/><polygon fill="#008000" points="337.21,623.84,331.9862,615.4906,333.0651,621.0436,327.5121,622.1225,337.21,623.84" style="stroke:#008000;stroke-width:1.0;"/><path d="M298,563 L298,589 L403,589 L403,573 L393,563 L298,563 " fill="#FEFFDD" style="stroke:#181818;stroke-width:0.5;"/><path d="M393,563 L393,573 L403,573 L393,563 " fill="#FEFFDD" style="stroke:#181818;stroke-width:0.5;"/><text fill="#000000" font-family="sans-serif" font-size="13" lengthAdjust="spacing" textLength="84" x="304" y="581.4951">abrirAlumnos()</text></g><!--link editarAlumno to ALUMNOS_ABIERTO--><g id="link_editarAlumno_ALUMNOS_ABIERTO"><path d="M407.97,528.11 C410.45,546.51 412,558 412,558 C412,558 412,594 412,594 C412,594 404.3433,604.6062 393.9633,618.9762 " fill="none" id="editarAlumno-to-ALUMNOS_ABIERTO-1" style="stroke:#FF0000;stroke-width:1.0;"/><polygon fill="#FF0000" points="390.45,623.84,398.9625,618.8865,393.3778,619.7868,392.4774,614.2021,390.45,623.84" style="stroke:#FF0000;stroke-width:1.0;"/><path d="M417,563 L417,589 L532,589 L532,573 L522,563 L417,563 " fill="#FEFFDD" style="stroke:#181818;stroke-width:0.5;"/><path d="M522,563 L522,573 L532,573 L522,563 " fill="#FEFFDD" style="stroke:#181818;stroke-width:0.5;"/><text fill="#000000" font-family="sans-serif" font-size="13" lengthAdjust="spacing" textLength="94" x="423" y="581.4951">cancelar edici&#243;n</text></g><!--SRC=[hLHjIkH04FtVfoXc_pY2x0M6WH5515sNrVqrY5Iwow6mqnsgau5PMTYpx1KymjvaJs8bPZuIcQ0Y-P5ELxrwhruLIGyS2XJCmNEWSbKG5D6lwWzZKeab0JakKMQ-oaC4J33QlJWOZ-1ndJdIHnDEwtXmyGJBcBgXimh5RMDcVdWBH_Cl2o4AjqVJ7ZH4HSPGItimasmwSpa7JgMWYpBvcaqXHSzM8Qr8m4QKeU2W1XlJATYXwadfSrqh3-NOi1H2YOAokAQAQpon_EyfcFz__i9tafmLpQ6Kw2hB0g6YPLG9UIOqdACSx8TJR2KfTbBMRGjOp3FMzwBsH1sEblMm9tdHjDo2jETz9OCbhuTDarixkwPzpkZowFYUxOkkGh5zz_Vuac29FkfezW4IURAMOzZueqGaEabwMqkwdUzfP6tl2X9wbhwi9QTAxt-X9g0jspFvTcc1b0GXmqJrXZMhDYXJo7r0vElf3iXqb7GkYl9AsMuD23LXjolljp6TtyIkYxEBdvVVhgxlPiVdfpzkhhfYCHDkGUbWlDDllrpRxM2nWSrz1W00]--></g></svg>