<?xml version="1.0" encoding="us-ascii" standalone="no"?><svg xmlns="http://www.w3.org/2000/svg" xmlns:xlink="http://www.w3.org/1999/xlink" contentStyleType="text/css" height="442px" preserveAspectRatio="none" style="width:1867px;height:442px;background:#FFFFFF;" version="1.1" viewBox="0 0 1867 442" width="1867px" zoomAndPan="magnify"><defs/><g><!--cluster abrirExamenes--><g id="cluster_abrirExamenes"><path d="M179,6.602 L293,6.602 A3.75,3.75 0 0 1 295.5,9.102 L302.5,31.6699 L937,31.6699 A2.5,2.5 0 0 1 939.5,34.1699 L939.5,433.102 A2.5,2.5 0 0 1 937,435.602 L179,435.602 A2.5,2.5 0 0 1 176.5,433.102 L176.5,9.102 A2.5,2.5 0 0 1 179,6.602 " fill="none" style="stroke:#000000;stroke-width:1.5;"/><line style="stroke:#000000;stroke-width:1.5;" x1="176.5" x2="302.5" y1="31.6699" y2="31.6699"/><text fill="#000000" font-family="sans-serif" font-size="14" font-weight="bold" lengthAdjust="spacing" textLength="113" x="180.5" y="23.5679">abrirExamenes()</text></g><!--entity ListarExamenesView--><g id="elem_ListarExamenesView"><rect fill="#629EF9" height="39.0679" rx="2.5" ry="2.5" style="stroke:#181818;stroke-width:0.5;" width="156" x="767.5" y="44.602"/><text fill="#000000" font-family="sans-serif" font-size="14" lengthAdjust="spacing" textLength="136" x="777.5" y="69.5679">ListarExamenesView</text></g><!--entity ExamenController--><g id="elem_ExamenController"><rect fill="#B5BD68" height="39.0679" rx="2.5" ry="2.5" style="stroke:#181818;stroke-width:0.5;" width="140" x="348.5" y="162.602"/><text fill="#000000" font-family="sans-serif" font-size="14" lengthAdjust="spacing" textLength="120" x="358.5" y="187.5679">ExamenController</text></g><!--entity ExamenRepository--><g id="elem_ExamenRepository"><rect fill="#F2AC4E" height="39.0679" rx="2.5" ry="2.5" style="stroke:#181818;stroke-width:0.5;" width="144" x="347.5" y="280.602"/><text fill="#000000" font-family="sans-serif" font-size="14" lengthAdjust="spacing" textLength="124" x="357.5" y="305.5679">ExamenRepository</text></g><!--entity Examen--><g id="elem_Examen"><rect fill="#F2AC4E" height="39.0679" rx="2.5" ry="2.5" style="stroke:#181818;stroke-width:0.5;" width="73" x="383" y="380.602"/><text fill="#000000" font-family="sans-serif" font-size="14" lengthAdjust="spacing" textLength="53" x="393" y="405.5679">Examen</text></g><!--entity SistemaDisponible--><g id="elem_SistemaDisponible"><rect fill="#CDEBA5" height="39.0679" rx="2.5" ry="2.5" style="stroke:#181818;stroke-width:0.5;" width="153" x="7" y="44.602"/><text fill="#000000" font-family="sans-serif" font-size="14" lengthAdjust="spacing" textLength="133" x="17" y="69.5679">:Sistema Disponible</text></g><!--entity SistemaDisponibleSalida--><g id="elem_SistemaDisponibleSalida"><rect fill="#CDEBA5" height="39.0679" rx="2.5" ry="2.5" style="stroke:#181818;stroke-width:0.5;" width="153" x="956" y="162.602"/><text fill="#000000" font-family="sans-serif" font-size="14" lengthAdjust="spacing" textLength="133" x="966" y="187.5679">:Sistema Disponible</text></g><!--entity CrearExamen--><g id="elem_CrearExamen"><rect fill="#CDEBA5" height="39.0679" rx="2.5" ry="2.5" style="stroke:#181818;stroke-width:0.5;" width="208" x="1144.5" y="162.602"/><text fill="#000000" font-family="sans-serif" font-size="14" lengthAdjust="spacing" textLength="188" x="1154.5" y="187.5679">:Collaboration CrearExamen</text></g><!--entity EditarExamen--><g id="elem_EditarExamen"><rect fill="#CDEBA5" height="39.0679" rx="2.5" ry="2.5" style="stroke:#181818;stroke-width:0.5;" width="211" x="1388" y="162.602"/><text fill="#000000" font-family="sans-serif" font-size="14" lengthAdjust="spacing" textLength="191" x="1398" y="187.5679">:Collaboration EditarExamen</text></g><!--entity EliminarExamen--><g id="elem_EliminarExamen"><rect fill="#CDEBA5" height="39.0679" rx="2.5" ry="2.5" style="stroke:#181818;stroke-width:0.5;" width="227" x="1634" y="162.602"/><text fill="#000000" font-family="sans-serif" font-size="14" lengthAdjust="spacing" textLength="207" x="1644" y="187.5679">:Collaboration EliminarExamen</text></g><!--link SistemaDisponible to ListarExamenesView--><g id="link_SistemaDisponible_ListarExamenesView"><path d="M160.05,64.102 C305.54,64.102 614.53,64.102 761.29,64.102 " fill="none" id="SistemaDisponible-to-ListarExamenesView" style="stroke:#181818;stroke-width:1.0;"/><polygon fill="#181818" points="767.29,64.102,758.29,60.102,762.29,64.102,758.29,68.102,767.29,64.102" style="stroke:#181818;stroke-width:1.0;"/><text fill="#000000" font-family="sans-serif" font-size="13" lengthAdjust="spacing" textLength="97" x="415.25" y="56.999">abrirExamenes()</text></g><!--link ListarExamenesView to ExamenController--><g id="link_ListarExamenesView_ExamenController"><path d="M767.46,71.522 C607.11,84.702 255.5,113.602 255.5,113.602 C255.5,113.602 255.5,132.602 255.5,132.602 C255.5,132.602 304.2292,147.1006 350.1992,160.7806 " fill="none" id="ListarExamenesView-to-ExamenController" style="stroke:#181818;stroke-width:1.0;"/><polygon fill="#181818" points="355.95,162.492,348.4647,156.0911,351.1577,161.0659,346.183,163.7588,355.95,162.492" style="stroke:#181818;stroke-width:1.0;"/><text fill="#000000" font-family="sans-serif" font-size="13" lengthAdjust="spacing" textLength="285" x="256.5" y="128.499">listarExamenes(pagina) : PagedResult&lt;Examen&gt;</text></g><!--link ListarExamenesView to ExamenController--><g id="link_ListarExamenesView_ExamenController"><path d="M767.49,79.652 C690.91,93.942 585.5,113.602 585.5,113.602 C585.5,113.602 546.5,132.602 546.5,132.602 C546.5,132.602 509.3307,146.6858 473.2307,160.3658 " fill="none" id="ListarExamenesView-to-ExamenController-1" style="stroke:#181818;stroke-width:1.0;"/><polygon fill="#181818" points="467.62,162.492,477.4534,163.0432,472.2956,160.7202,474.6186,155.5623,467.62,162.492" style="stroke:#181818;stroke-width:1.0;"/><text fill="#000000" font-family="sans-serif" font-size="13" lengthAdjust="spacing" textLength="336" x="586.5" y="128.499">filtrarExamenes(criterio, pagina) : PagedResult&lt;Examen&gt;</text></g><!--link ExamenController to ExamenRepository--><g id="link_ExamenController_ExamenRepository"><path d="M348.46,200.612 C292.89,214.502 224.5,231.602 224.5,231.602 C224.5,231.602 224.5,250.602 224.5,250.602 C224.5,250.602 286.0775,265.9132 341.6175,279.7332 " fill="none" id="ExamenController-to-ExamenRepository" style="stroke:#181818;stroke-width:1.0;"/><polygon fill="#181818" points="347.44,281.182,339.6722,275.1271,342.588,279.9746,337.7405,282.8904,347.44,281.182" style="stroke:#181818;stroke-width:1.0;"/><text fill="#000000" font-family="sans-serif" font-size="13" lengthAdjust="spacing" textLength="306" x="225.5" y="246.499">obtenerPaginados(pagina) : PagedResult&lt;Examen&gt;</text></g><!--link ExamenController to ExamenRepository--><g id="link_ExamenController_ExamenRepository"><path d="M463.78,201.712 C497.06,215.392 536.5,231.602 536.5,231.602 C536.5,231.602 536.5,250.602 536.5,250.602 C536.5,250.602 502.9426,264.5143 469.9426,278.1943 " fill="none" id="ExamenController-to-ExamenRepository-1" style="stroke:#181818;stroke-width:1.0;"/><polygon fill="#181818" points="464.4,280.492,474.2457,280.7406,469.0189,278.5773,471.1822,273.3504,464.4,280.492" style="stroke:#181818;stroke-width:1.0;"/><text fill="#000000" font-family="sans-serif" font-size="13" lengthAdjust="spacing" textLength="346" x="537.5" y="246.499">buscarPaginados(criterio, pagina) : PagedResult&lt;Examen&gt;</text></g><!--link ExamenRepository to Examen--><g id="link_ExamenRepository_Examen"><path d="M419.5,320.002 C419.5,337.462 419.5,363.262 419.5,380.592 " fill="none" id="ExamenRepository-Examen" style="stroke:#181818;stroke-width:1.0;"/></g><!--link ListarExamenesView to SistemaDisponibleSalida--><g id="link_ListarExamenesView_SistemaDisponibleSalida"><path d="M878.5,83.712 C902.76,97.392 931.5,113.602 931.5,113.602 C931.5,113.602 969.7518,139.1676 999.6418,159.1476 " fill="none" id="ListarExamenesView-to-SistemaDisponibleSalida" style="stroke:#181818;stroke-width:1.0;stroke-dasharray:7.0,7.0;"/><polygon fill="#181818" points="1004.63,162.482,999.3706,154.155,1000.4732,159.7033,994.9248,160.8059,1004.63,162.482" style="stroke:#181818;stroke-width:1.0;"/><text fill="#000000" font-family="sans-serif" font-size="13" lengthAdjust="spacing" textLength="115" x="959.5" y="128.499">completarGestion()</text></g><!--link ListarExamenesView to CrearExamen--><g id="link_ListarExamenesView_CrearExamen"><path d="M923.76,81.052 C993.13,95.182 1083.5,113.602 1083.5,113.602 C1083.5,113.602 1148.5867,140.2302 1197.4267,160.2102 " fill="none" id="ListarExamenesView-to-CrearExamen" style="stroke:#181818;stroke-width:1.0;stroke-dasharray:7.0,7.0;"/><polygon fill="#181818" points="1202.98,162.482,1196.1646,155.3721,1198.3523,160.5888,1193.1355,162.7765,1202.98,162.482" style="stroke:#181818;stroke-width:1.0;"/><text fill="#000000" font-family="sans-serif" font-size="13" lengthAdjust="spacing" textLength="86" x="1128.5" y="128.499">crearExamen()</text></g><!--link ListarExamenesView to EditarExamen--><g id="link_ListarExamenesView_EditarExamen"><path d="M923.82,75.152 C1034.54,89.362 1223.5,113.602 1223.5,113.602 C1223.5,113.602 1333.6093,141.1263 1413.5393,161.1163 " fill="none" id="ListarExamenesView-to-EditarExamen" style="stroke:#181818;stroke-width:1.0;stroke-dasharray:7.0,7.0;"/><polygon fill="#181818" points="1419.36,162.572,1411.5994,156.5079,1414.5094,161.3589,1409.6584,164.2689,1419.36,162.572" style="stroke:#181818;stroke-width:1.0;"/><text fill="#000000" font-family="sans-serif" font-size="13" lengthAdjust="spacing" textLength="91" x="1296.5" y="128.499">editarExamen()</text></g><!--link ListarExamenesView to EliminarExamen--><g id="link_ListarExamenesView_EliminarExamen"><path d="M923.57,71.972 C1075.57,85.352 1396.5,113.602 1396.5,113.602 C1396.5,113.602 1541.318,141.4485 1645.228,161.4385 " fill="none" id="ListarExamenesView-to-EliminarExamen" style="stroke:#181818;stroke-width:1.0;stroke-dasharray:7.0,7.0;"/><polygon fill="#181818" points="1651.12,162.572,1643.0377,156.9438,1646.21,161.6274,1641.5264,164.7997,1651.12,162.572" style="stroke:#181818;stroke-width:1.0;"/><text fill="#000000" font-family="sans-serif" font-size="13" lengthAdjust="spacing" textLength="104" x="1491.5" y="128.499">eliminarExamen()</text></g><!--SRC=[hP9FQy904CNl-oc6zABGU90gRIY2ZR6N7aIXzqqobS5DTjbTQQNqktVzlubH0crkCxxtCo_pp8fAnJKlG529TgCGb1IRxS2OnipoSYaGxk99yZ8UG10jo5WiE4p8A5bIAZ00Rk2mFcyPKpnRyIK2JpNfv8iNMABPQeFAfjCDu9k1Uxo_6_QVakaJl3agFodV2J_hmdIGviD7s4jYMLejXK1Tbqtxu_WXESZcgAGXA_Ncfepz_EqBBBYWd3SYOlUIF9MQMv8bn1gF8NSaRsxXJdAo5Rk_QECNL51P9LHMZ5r4Wr27euRhH50xBMEN8WXpPwvVB785z9KTnPVk7ReGmSorA9-ZMGlxlFzvn5ZT3-49Uhvl13ArZgPdErWkMsBF18Szrg4nIcEI3n9MUr4oJHOroNludr3fscJSozIQtv2WrnjTgsu4cIoKG6TvHRCjYple5OJNMMSx3zSTVaqZG6-wuQaKqxagi_Fz0W00]--></g></svg>