<?xml version="1.0" encoding="us-ascii" standalone="no"?><svg xmlns="http://www.w3.org/2000/svg" xmlns:xlink="http://www.w3.org/1999/xlink" contentStyleType="text/css" height="786px" preserveAspectRatio="none" style="width:1023px;height:786px;background:#FFFFFF;" version="1.1" viewBox="0 0 1023 786" width="1023px" zoomAndPan="magnify"><defs/><g><path d="M19.5,7 L997.5,7 A12.5,12.5 0 0 1 1010,19.5 L1010,34.6094 L7,34.6094 L7,19.5 A12.5,12.5 0 0 1 19.5,7 " fill="#F1F1F1" style="stroke:#F1F1F1;stroke-width:1.0;"/><rect fill="none" height="626.6094" rx="12.5" ry="12.5" style="stroke:#181818;stroke-width:0.5;" width="1003" x="7" y="7"/><line style="stroke:#181818;stroke-width:0.5;" x1="7" x2="1010" y1="34.6094" y2="34.6094"/><text fill="#000000" font-family="sans-serif" font-size="14" lengthAdjust="spacing" textLength="111" x="453" y="26.5332">crearAsignatura()</text><g id="crearAsignatura.MostrandoFormulario"><rect fill="#F1F1F1" height="50" rx="12.5" ry="12.5" style="stroke:#181818;stroke-width:0.5;" width="50" x="415" y="137.6094"/><line style="stroke:#181818;stroke-width:0.5;" x1="415" x2="465" y1="165.2188" y2="165.2188"/><text fill="#000000" font-family="sans-serif" font-size="14" lengthAdjust="spacing" textLength="4" x="438" y="157.1426">&#160;</text></g><g id="crearAsignatura.GuardandoDatos"><rect fill="#F1F1F1" height="50" rx="12.5" ry="12.5" style="stroke:#181818;stroke-width:0.5;" width="50" x="19" y="479.6094"/><line style="stroke:#181818;stroke-width:0.5;" x1="19" x2="69" y1="507.2188" y2="507.2188"/><text fill="#000000" font-family="sans-serif" font-size="14" lengthAdjust="spacing" textLength="4" x="42" y="499.1426">&#160;</text></g><g id="crearAsignatura.ValidandoDatos"><rect fill="#F1F1F1" height="50" rx="12.5" ry="12.5" style="stroke:#181818;stroke-width:0.5;" width="50" x="19" y="357.6094"/><line style="stroke:#181818;stroke-width:0.5;" x1="19" x2="69" y1="385.2188" y2="385.2188"/><text fill="#000000" font-family="sans-serif" font-size="14" lengthAdjust="spacing" textLength="4" x="42" y="377.1426">&#160;</text></g><g id="crearAsignatura.SeleccionandoGrado"><rect fill="#F1F1F1" height="50" rx="12.5" ry="12.5" style="stroke:#181818;stroke-width:0.5;" width="50" x="562" y="357.6094"/><line style="stroke:#181818;stroke-width:0.5;" x1="562" x2="612" y1="385.2188" y2="385.2188"/><text fill="#000000" font-family="sans-serif" font-size="14" lengthAdjust="spacing" textLength="4" x="585" y="377.1426">&#160;</text></g><ellipse cx="440" cy="55.6094" fill="#222222" rx="10" ry="10" style="stroke:#222222;stroke-width:1.0;"/><ellipse cx="44" cy="612.6094" fill="none" rx="11" ry="11" style="stroke:#222222;stroke-width:1.0;"/><ellipse cx="44" cy="612.6094" fill="#222222" rx="6" ry="6" style="stroke:#222222;stroke-width:1.0;"/><!--link *start*crearAsignatura to MostrandoFormulario--><g id="link_*start*crearAsignatura_MostrandoFormulario"><path d="M440,65.9294 C440,81.7894 440,108.5194 440,131.2494 " fill="none" id="*start*crearAsignatura-to-MostrandoFormulario" style="stroke:#008000;stroke-width:1.0;"/><polygon fill="#008000" points="440,137.2494,444,128.2494,440,132.2494,436,128.2494,440,137.2494" style="stroke:#008000;stroke-width:1.0;"/><path d="M445,88.6094 L445,114.6094 L697,114.6094 L697,98.6094 L687,88.6094 L445,88.6094 " fill="#FEFFDD" style="stroke:#181818;stroke-width:0.5;"/><path d="M687,88.6094 L687,98.6094 L697,98.6094 L687,88.6094 " fill="#FEFFDD" style="stroke:#181818;stroke-width:0.5;"/><text fill="#000000" font-family="sans-serif" font-size="13" font-weight="bold" lengthAdjust="spacing" textLength="89" x="451" y="107.1045">Administrador</text><text fill="#000000" font-family="sans-serif" font-size="13" lengthAdjust="spacing" textLength="138" x="544" y="107.1045">solicita crear asignatura</text></g><!--link MostrandoFormulario to SeleccionandoGrado--><g id="link_MostrandoFormulario_SeleccionandoGrado"><path d="M440.14,187.7094 C440.41,235.9094 441,339.6094 441,339.6094 C441,339.6094 514.3939,360.7203 556.1339,372.7303 " fill="none" id="MostrandoFormulario-to-SeleccionandoGrado" style="stroke:#008000;stroke-width:1.0;"/><polygon fill="#008000" points="561.9,374.3894,554.357,368.0567,557.095,373.0068,552.1449,375.7448,561.9,374.3894" style="stroke:#008000;stroke-width:1.0;"/><path d="M446,210.6094 L446,334.6094 L707,334.6094 L707,220.6094 L697,210.6094 L446,210.6094 " fill="#FEFFDD" style="stroke:#181818;stroke-width:0.5;"/><path d="M697,210.6094 L697,220.6094 L707,220.6094 L697,210.6094 " fill="#FEFFDD" style="stroke:#181818;stroke-width:0.5;"/><text fill="#000000" font-family="sans-serif" font-size="13" font-weight="bold" lengthAdjust="spacing" textLength="51" x="452" y="229.1045">Sistema</text><text fill="#000000" font-family="sans-serif" font-size="13" lengthAdjust="spacing" textLength="181" x="507" y="229.1045">presenta formulario de creaci&#243;n</text><text fill="#000000" font-family="sans-serif" font-size="13" lengthAdjust="spacing" textLength="235" x="452" y="245.4561">&#8226; Permite introducir c&#243;digo de asignatura</text><text fill="#000000" font-family="sans-serif" font-size="13" lengthAdjust="spacing" textLength="240" x="452" y="261.8076">&#8226; Permite introducir nombre de asignatura</text><text fill="#000000" font-family="sans-serif" font-size="13" lengthAdjust="spacing" textLength="226" x="452" y="278.1592">&#8226; Permite introducir n&#250;mero de cr&#233;ditos</text><text fill="#000000" font-family="sans-serif" font-size="13" lengthAdjust="spacing" textLength="209" x="452" y="294.5107">&#8226; Permite solicitar seleccionar grado</text><text fill="#000000" font-family="sans-serif" font-size="13" lengthAdjust="spacing" textLength="214" x="452" y="310.8623">&#8226; Permite solicitar guardar asignatura</text><text fill="#000000" font-family="sans-serif" font-size="13" lengthAdjust="spacing" textLength="209" x="452" y="327.2139">&#8226; Permite solicitar cancelar creaci&#243;n</text></g><!--link SeleccionandoGrado to MostrandoFormulario--><g id="link_SeleccionandoGrado_MostrandoFormulario"><path d="M612.3,373.1094 C648.82,360.8394 712,339.6094 712,339.6094 C712,339.6094 712,205.6094 712,205.6094 C712,205.6094 538.3698,178.7943 471.0298,168.4043 " fill="none" id="SeleccionandoGrado-to-MostrandoFormulario" style="stroke:#008000;stroke-width:1.0;"/><polygon fill="#008000" points="465.1,167.4894,473.3848,172.815,470.0415,168.2518,474.6047,164.9085,465.1,167.4894" style="stroke:#008000;stroke-width:1.0;"/><path d="M717,243.1094 L717,302.1094 L1001,302.1094 L1001,253.1094 L991,243.1094 L717,243.1094 " fill="#FEFFDD" style="stroke:#181818;stroke-width:0.5;"/><path d="M991,243.1094 L991,253.1094 L1001,253.1094 L991,243.1094 " fill="#FEFFDD" style="stroke:#181818;stroke-width:0.5;"/><text fill="#000000" font-family="sans-serif" font-size="13" font-weight="bold" lengthAdjust="spacing" textLength="89" x="723" y="261.6045">Administrador</text><text fill="#000000" font-family="sans-serif" font-size="13" lengthAdjust="spacing" textLength="147" x="816" y="261.6045">solicita seleccionar grado</text><text fill="#000000" font-family="sans-serif" font-size="13" font-weight="bold" lengthAdjust="spacing" textLength="51" x="723" y="277.9561">Sistema</text><text fill="#000000" font-family="sans-serif" font-size="13" lengthAdjust="spacing" textLength="208" x="778" y="277.9561">presenta lista de grados disponibles</text><text fill="#000000" font-family="sans-serif" font-size="13" font-weight="bold" lengthAdjust="spacing" textLength="89" x="723" y="294.3076">Administrador</text><text fill="#000000" font-family="sans-serif" font-size="13" lengthAdjust="spacing" textLength="107" x="816" y="294.3076">introduce un grado</text></g><!--link MostrandoFormulario to ValidandoDatos--><g id="link_MostrandoFormulario_ValidandoDatos"><path d="M414.97,166.3994 C330.77,175.7794 63,205.6094 63,205.6094 C63,205.6094 52.4548,303.3441 47.2448,351.5441 " fill="none" id="MostrandoFormulario-to-ValidandoDatos" style="stroke:#008000;stroke-width:1.0;"/><polygon fill="#008000" points="46.6,357.5094,51.544,348.9914,47.1373,352.5383,43.5904,348.1316,46.6,357.5094" style="stroke:#008000;stroke-width:1.0;"/><path d="M68,259.6094 L68,285.6094 L431,285.6094 L431,269.6094 L421,259.6094 L68,259.6094 " fill="#FEFFDD" style="stroke:#181818;stroke-width:0.5;"/><path d="M421,259.6094 L421,269.6094 L431,269.6094 L421,259.6094 " fill="#FEFFDD" style="stroke:#181818;stroke-width:0.5;"/><text fill="#000000" font-family="sans-serif" font-size="13" font-weight="bold" lengthAdjust="spacing" textLength="89" x="74" y="278.1045">Administrador</text><text fill="#000000" font-family="sans-serif" font-size="13" lengthAdjust="spacing" textLength="249" x="167" y="278.1045">introduce todos los datos y solicita guardar</text></g><!--link ValidandoDatos to GuardandoDatos--><g id="link_ValidandoDatos_GuardandoDatos"><path d="M44,407.8894 C44,428.7094 44,452.5494 44,473.3594 " fill="none" id="ValidandoDatos-to-GuardandoDatos" style="stroke:#008000;stroke-width:1.0;"/><polygon fill="#008000" points="44,479.3594,48,470.3594,44,474.3594,40,470.3594,44,479.3594" style="stroke:#008000;stroke-width:1.0;"/><path d="M49,430.6094 L49,456.6094 L367,456.6094 L367,440.6094 L357,430.6094 L49,430.6094 " fill="#FEFFDD" style="stroke:#181818;stroke-width:0.5;"/><path d="M357,430.6094 L357,440.6094 L367,440.6094 L357,430.6094 " fill="#FEFFDD" style="stroke:#181818;stroke-width:0.5;"/><text fill="#000000" font-family="sans-serif" font-size="13" font-weight="bold" lengthAdjust="spacing" textLength="51" x="55" y="449.1045">Sistema</text><text fill="#000000" font-family="sans-serif" font-size="13" lengthAdjust="spacing" textLength="242" x="110" y="449.1045">presenta validaci&#243;n de campos requeridos</text></g><!--link GuardandoDatos to *end*crearAsignatura--><g id="link_GuardandoDatos_*end*crearAsignatura"><path d="M44,529.6594 C44,552.2594 44,578.9894 44,595.4094 " fill="none" id="GuardandoDatos-to-*end*crearAsignatura" style="stroke:#008000;stroke-width:1.0;"/><polygon fill="#008000" points="44,601.4094,48,592.4094,44,596.4094,40,592.4094,44,601.4094" style="stroke:#008000;stroke-width:1.0;"/><path d="M49,552.6094 L49,578.6094 L461,578.6094 L461,562.6094 L451,552.6094 L49,552.6094 " fill="#FEFFDD" style="stroke:#181818;stroke-width:0.5;"/><path d="M451,552.6094 L451,562.6094 L461,562.6094 L451,552.6094 " fill="#FEFFDD" style="stroke:#181818;stroke-width:0.5;"/><text fill="#000000" font-family="sans-serif" font-size="13" font-weight="bold" lengthAdjust="spacing" textLength="51" x="55" y="571.1045">Sistema</text><text fill="#000000" font-family="sans-serif" font-size="13" lengthAdjust="spacing" textLength="336" x="110" y="571.1045">visualiza y guarda la nueva asignatura en la base de datos</text></g><g id="ASIGNATURA_ABIERTO"><rect fill="#F1F1F1" height="50" rx="12.5" ry="12.5" style="stroke:#181818;stroke-width:0.5;" width="175" x="314" y="730"/><line style="stroke:#181818;stroke-width:0.5;" x1="314" x2="489" y1="757.6094" y2="757.6094"/><text fill="#000000" font-family="sans-serif" font-size="14" lengthAdjust="spacing" textLength="155" x="324" y="749.5332">ASIGNATURA_ABIERTO</text></g><g id="ASIGNATURAS_ABIERTO"><rect fill="#F1F1F1" height="50" rx="12.5" ry="12.5" style="stroke:#181818;stroke-width:0.5;" width="184" x="524.5" y="730"/><line style="stroke:#181818;stroke-width:0.5;" x1="524.5" x2="708.5" y1="757.6094" y2="757.6094"/><text fill="#000000" font-family="sans-serif" font-size="14" lengthAdjust="spacing" textLength="164" x="534.5" y="749.5332">ASIGNATURAS_ABIERTO</text></g><!--link crearAsignatura to ASIGNATURA_ABIERTO--><g id="link_crearAsignatura_ASIGNATURA_ABIERTO"><path d="M431.16,634.1 C421.32,673.9 414.2725,702.396 408.9225,723.996 " fill="none" id="crearAsignatura-to-ASIGNATURA_ABIERTO" style="stroke:#008000;stroke-width:1.0;"/><polygon fill="#008000" points="407.48,729.82,413.5265,722.0457,408.6821,724.9667,405.7611,720.1223,407.48,729.82" style="stroke:#008000;stroke-width:1.0;"/><path d="M427.5,669 L427.5,695 L550.5,695 L550.5,679 L540.5,669 L427.5,669 " fill="#FEFFDD" style="stroke:#181818;stroke-width:0.5;"/><path d="M540.5,669 L540.5,679 L550.5,679 L540.5,669 " fill="#FEFFDD" style="stroke:#181818;stroke-width:0.5;"/><text fill="#000000" font-family="sans-serif" font-size="13" lengthAdjust="spacing" textLength="102" x="433.5" y="687.4951">editarAsignatura()</text></g><!--link crearAsignatura to ASIGNATURAS_ABIERTO--><g id="link_crearAsignatura_ASIGNATURAS_ABIERTO"><path d="M586.56,634.1 C596.5,673.9 603.6173,702.3985 609.0073,723.9985 " fill="none" id="crearAsignatura-to-ASIGNATURAS_ABIERTO" style="stroke:#008000;stroke-width:1.0;"/><polygon fill="#008000" points="610.46,729.82,612.162,720.1193,609.2494,724.9688,604.4,722.0562,610.46,729.82" style="stroke:#008000;stroke-width:1.0;"/><path d="M605.5,669 L605.5,695 L728.5,695 L728.5,679 L718.5,669 L605.5,669 " fill="#FEFFDD" style="stroke:#181818;stroke-width:0.5;"/><path d="M718.5,669 L718.5,679 L728.5,679 L718.5,669 " fill="#FEFFDD" style="stroke:#181818;stroke-width:0.5;"/><text fill="#000000" font-family="sans-serif" font-size="13" lengthAdjust="spacing" textLength="102" x="611.5" y="687.4951">abrirAsignaturas()</text></g><!--SRC=[bLJDZjCm4BxxAKRb0aWhNc1LAGYssWC_sYvSLYiqYOTgj8uTnacbWf1u5cwSzyQrRyAJOBljnkccjAINrFxy_SoCu-_ODYXOWs5BxQeXQ9nPnJzA-HPRWae8fV2yiDXsWe0U9djhJvzDuDiEFmc_W7dZV2jejRjmKdS6XTqGCEjGT0IymjRvuTv7D7neRqw6gegTZVipGUsKkdb-2sStJnP2P6_FfcFYeAmB9Cx6f7Vgl9mMkcRB4QYTdByef-2TuOfRt6GEOhk0Ygo6T3uyIetHv_8Z5lV5vq6OQaooZP0d6sG_ztHwK_YAr_TM_Vdn4zwJr1musBRYT5UnGBM-rxn8sCpg0R1rTIbq8dRzkoRPcbZ_qXoRa6DtXHBm3r455YdfE6wHkYs7n7jWXROY4ryUuk-AhzJZmXvh-_zq_N6MGuqoOH5ZUHBCWsRVECkb8J-kiIikGMUtt7sgO-EqTnkE9-hLMXVjcMWndeLLdtRRaSp7K6TWOU-odZJDoqINMfWc2Uici0fzwKWusCgKX_G3vN2r_octPDy5eQyOicqYWK6m7Iqn6pOW6vTBzEaAf6Bq-j-Lsl_AvHQA-UNiRN7zuQhuLBoyV7rr_MxeY7IStFnpc4KxZNW-peobS7ROvyn_0G00]--></g></svg>