<?xml version="1.0" encoding="us-ascii" standalone="no"?><svg xmlns="http://www.w3.org/2000/svg" xmlns:xlink="http://www.w3.org/1999/xlink" contentStyleType="text/css" height="682px" preserveAspectRatio="none" style="width:760px;height:682px;background:#FFFFFF;" version="1.1" viewBox="0 0 760 682" width="760px" zoomAndPan="magnify"><defs/><g><path d="M165.5,7 L466.5,7 A12.5,12.5 0 0 1 479,19.5 L479,34.6094 L153,34.6094 L153,19.5 A12.5,12.5 0 0 1 165.5,7 " fill="#F1F1F1" style="stroke:#F1F1F1;stroke-width:1.0;"/><rect fill="none" height="522.6094" rx="12.5" ry="12.5" style="stroke:#181818;stroke-width:0.5;" width="326" x="153" y="7"/><line style="stroke:#181818;stroke-width:0.5;" x1="153" x2="479" y1="34.6094" y2="34.6094"/><text fill="#000000" font-family="sans-serif" font-size="14" lengthAdjust="spacing" textLength="93" x="269.5" y="26.5332">abrirAlumnos()</text><g id="abrirAlumnos.MostrandoLista"><rect fill="#F1F1F1" height="50" rx="12.5" ry="12.5" style="stroke:#181818;stroke-width:0.5;" width="50" x="165" y="137.6094"/><line style="stroke:#181818;stroke-width:0.5;" x1="165" x2="215" y1="165.2188" y2="165.2188"/><text fill="#000000" font-family="sans-serif" font-size="14" lengthAdjust="spacing" textLength="4" x="188" y="157.1426">&#160;</text></g><g id="abrirAlumnos.FiltrandoLista"><rect fill="#F1F1F1" height="50" rx="12.5" ry="12.5" style="stroke:#181818;stroke-width:0.5;" width="50" x="165" y="374.6094"/><line style="stroke:#181818;stroke-width:0.5;" x1="165" x2="215" y1="402.2188" y2="402.2188"/><text fill="#000000" font-family="sans-serif" font-size="14" lengthAdjust="spacing" textLength="4" x="188" y="394.1426">&#160;</text></g><ellipse cx="190" cy="55.6094" fill="#222222" rx="10" ry="10" style="stroke:#222222;stroke-width:1.0;"/><ellipse cx="190" cy="508.6094" fill="none" rx="11" ry="11" style="stroke:#222222;stroke-width:1.0;"/><ellipse cx="190" cy="508.6094" fill="#222222" rx="6" ry="6" style="stroke:#222222;stroke-width:1.0;"/><!--link *start*abrirAlumnos to MostrandoLista--><g id="link_*start*abrirAlumnos_MostrandoLista"><path d="M190,65.9294 C190,81.7894 190,108.5194 190,131.2494 " fill="none" id="*start*abrirAlumnos-to-MostrandoLista" style="stroke:#008000;stroke-width:1.0;"/><polygon fill="#008000" points="190,137.2494,194,128.2494,190,132.2494,186,128.2494,190,137.2494" style="stroke:#008000;stroke-width:1.0;"/><path d="M195,88.6094 L195,114.6094 L432,114.6094 L432,98.6094 L422,88.6094 L195,88.6094 " fill="#FEFFDD" style="stroke:#181818;stroke-width:0.5;"/><path d="M422,88.6094 L422,98.6094 L432,98.6094 L422,88.6094 " fill="#FEFFDD" style="stroke:#181818;stroke-width:0.5;"/><text fill="#000000" font-family="sans-serif" font-size="13" font-weight="bold" lengthAdjust="spacing" textLength="89" x="201" y="107.1045">Administrador</text><text fill="#000000" font-family="sans-serif" font-size="13" lengthAdjust="spacing" textLength="123" x="294" y="107.1045">solicita abrir alumnos</text></g><!--link MostrandoLista to FiltrandoLista--><g id="link_MostrandoLista_FiltrandoLista"><path d="M190,187.8694 C190,233.0194 190,323.4294 190,368.4794 " fill="none" id="MostrandoLista-to-FiltrandoLista" style="stroke:#008000;stroke-width:1.0;"/><polygon fill="#008000" points="190,374.4794,194,365.4794,190,369.4794,186,365.4794,190,374.4794" style="stroke:#008000;stroke-width:1.0;"/><path d="M195,210.6094 L195,350.6094 L464,350.6094 L464,220.6094 L454,210.6094 L195,210.6094 " fill="#FEFFDD" style="stroke:#181818;stroke-width:0.5;"/><path d="M454,210.6094 L454,220.6094 L464,220.6094 L454,210.6094 " fill="#FEFFDD" style="stroke:#181818;stroke-width:0.5;"/><text fill="#000000" font-family="sans-serif" font-size="13" font-weight="bold" lengthAdjust="spacing" textLength="51" x="201" y="229.1045">Sistema</text><text fill="#000000" font-family="sans-serif" font-size="13" lengthAdjust="spacing" textLength="149" x="256" y="229.1045">presenta lista de alumnos</text><text fill="#000000" font-family="sans-serif" font-size="13" lengthAdjust="spacing" textLength="248" x="201" y="245.4561">&#8226; Matr&#237;cula, nombre, email de cada alumno</text><text fill="#000000" font-family="sans-serif" font-size="13" lengthAdjust="spacing" textLength="194" x="201" y="261.8076">&#8226; Grado matriculado, curso actual</text><text fill="#000000" font-family="sans-serif" font-size="13" lengthAdjust="spacing" textLength="163" x="201" y="278.1592">&#8226; Permite solicitar filtrar lista</text><text fill="#000000" font-family="sans-serif" font-size="13" lengthAdjust="spacing" textLength="219" x="201" y="294.5107">&#8226; Permite solicitar crear alumno nuevo</text><text fill="#000000" font-family="sans-serif" font-size="13" lengthAdjust="spacing" textLength="198" x="201" y="310.8623">&#8226; Permite solicitar eliminar alumno</text><text fill="#000000" font-family="sans-serif" font-size="13" lengthAdjust="spacing" textLength="185" x="201" y="327.2139">&#8226; Permite solicitar editar alumno</text><text fill="#000000" font-family="sans-serif" font-size="13" lengthAdjust="spacing" textLength="207" x="201" y="343.5654">&#8226; Permite solicitar importar alumnos</text></g><!--link FiltrandoLista to FiltrandoLista--><g id="link_FiltrandoLista_FiltrandoLista"><path d="M215.18,388.0294 C224.91,387.5194 233,391.3794 233,399.6094 C233,407.8394 230.9018,412.0134 221.1718,411.5034 " fill="none" id="FiltrandoLista-to-FiltrandoLista" style="stroke:#008000;stroke-width:1.0;"/><polygon fill="#008000" points="215.18,411.1894,223.9583,415.655,220.1731,411.4511,224.377,407.6659,215.18,411.1894" style="stroke:#008000;stroke-width:1.0;"/><path d="M238,378.6094 L238,420.6094 L453,420.6094 L453,388.6094 L443,378.6094 L238,378.6094 " fill="#FEFFDD" style="stroke:#181818;stroke-width:0.5;"/><path d="M443,378.6094 L443,388.6094 L453,388.6094 L443,378.6094 " fill="#FEFFDD" style="stroke:#181818;stroke-width:0.5;"/><text fill="#000000" font-family="sans-serif" font-size="13" font-weight="bold" lengthAdjust="spacing" textLength="89" x="244" y="397.1045">Administrador</text><text fill="#000000" font-family="sans-serif" font-size="13" lengthAdjust="spacing" textLength="101" x="337" y="397.1045">solicita filtrar lista</text><text fill="#000000" font-family="sans-serif" font-size="13" font-weight="bold" lengthAdjust="spacing" textLength="51" x="244" y="413.4561">Sistema</text><text fill="#000000" font-family="sans-serif" font-size="13" lengthAdjust="spacing" textLength="120" x="299" y="413.4561">presenta lista filtrada</text></g><!--link FiltrandoLista to *end*abrirAlumnos--><g id="link_FiltrandoLista_*end*abrirAlumnos"><path d="M190,424.6194 C190,447.5394 190,474.9694 190,491.5294 " fill="none" id="FiltrandoLista-to-*end*abrirAlumnos" style="stroke:#008000;stroke-width:1.0;"/><polygon fill="#008000" points="190,497.5294,194,488.5294,190,492.5294,186,488.5294,190,497.5294" style="stroke:#008000;stroke-width:1.0;"/><path d="M195,448.6094 L195,474.6094 L470,474.6094 L470,458.6094 L460,448.6094 L195,448.6094 " fill="#FEFFDD" style="stroke:#181818;stroke-width:0.5;"/><path d="M460,448.6094 L460,458.6094 L470,458.6094 L460,448.6094 " fill="#FEFFDD" style="stroke:#181818;stroke-width:0.5;"/><text fill="#000000" font-family="sans-serif" font-size="13" font-weight="bold" lengthAdjust="spacing" textLength="89" x="201" y="467.1045">Administrador</text><text fill="#000000" font-family="sans-serif" font-size="13" lengthAdjust="spacing" textLength="161" x="294" y="467.1045">solicita una de las opciones</text></g><g id="ALUMNO_ABIERTO"><rect fill="#F1F1F1" height="50" rx="12.5" ry="12.5" style="stroke:#181818;stroke-width:0.5;" width="145" x="44.5" y="626"/><line style="stroke:#181818;stroke-width:0.5;" x1="44.5" x2="189.5" y1="653.6094" y2="653.6094"/><text fill="#000000" font-family="sans-serif" font-size="14" lengthAdjust="spacing" textLength="125" x="54.5" y="645.5332">ALUMNO_ABIERTO</text></g><g id="ALUMNOS_ABIERTO"><rect fill="#F1F1F1" height="50" rx="12.5" ry="12.5" style="stroke:#181818;stroke-width:0.5;" width="154" x="286" y="626"/><line style="stroke:#181818;stroke-width:0.5;" x1="286" x2="440" y1="653.6094" y2="653.6094"/><text fill="#000000" font-family="sans-serif" font-size="14" lengthAdjust="spacing" textLength="134" x="296" y="645.5332">ALUMNOS_ABIERTO</text></g><g id="SISTEMA_DISPONIBLE"><rect fill="#F1F1F1" height="50" rx="12.5" ry="12.5" style="stroke:#181818;stroke-width:0.5;" width="167" x="577.5" y="626"/><line style="stroke:#181818;stroke-width:0.5;" x1="577.5" x2="744.5" y1="653.6094" y2="653.6094"/><text fill="#000000" font-family="sans-serif" font-size="14" lengthAdjust="spacing" textLength="147" x="587.5" y="645.5332">SISTEMA_DISPONIBLE</text></g><!--link abrirAlumnos to ALUMNO_ABIERTO--><g id="link_abrirAlumnos_ALUMNO_ABIERTO"><path d="M152.83,422.41 C78.15,492.39 6,560 6,560 C6,560 6,596 6,596 C6,596 32.3942,608.846 61.9442,623.216 " fill="none" id="abrirAlumnos-to-ALUMNO_ABIERTO" style="stroke:#008000;stroke-width:1.0;"/><polygon fill="#008000" points="67.34,625.84,60.9956,618.3069,62.8435,623.6534,57.497,625.5013,67.34,625.84" style="stroke:#008000;stroke-width:1.0;"/><path d="M11,565 L11,591 L116,591 L116,575 L106,565 L11,565 " fill="#FEFFDD" style="stroke:#181818;stroke-width:0.5;"/><path d="M106,565 L106,575 L116,575 L106,565 " fill="#FEFFDD" style="stroke:#181818;stroke-width:0.5;"/><text fill="#000000" font-family="sans-serif" font-size="13" lengthAdjust="spacing" textLength="84" x="17" y="583.4951">editarAlumno()</text></g><!--link abrirAlumnos to ALUMNO_ABIERTO--><g id="link_abrirAlumnos_ALUMNO_ABIERTO"><path d="M179.69,530.13 C159.13,569.44 143.8023,598.7641 132.3923,620.5641 " fill="none" id="abrirAlumnos-to-ALUMNO_ABIERTO-1" style="stroke:#008000;stroke-width:1.0;"/><polygon fill="#008000" points="129.61,625.88,137.3274,619.761,131.9286,621.4501,130.2395,616.0513,129.61,625.88" style="stroke:#008000;stroke-width:1.0;"/><path d="M165,565 L165,591 L267,591 L267,575 L257,565 L165,565 " fill="#FEFFDD" style="stroke:#181818;stroke-width:0.5;"/><path d="M257,565 L257,575 L267,575 L257,565 " fill="#FEFFDD" style="stroke:#181818;stroke-width:0.5;"/><text fill="#000000" font-family="sans-serif" font-size="13" lengthAdjust="spacing" textLength="81" x="171" y="583.4951">crearAlumno()</text></g><!--link abrirAlumnos to ALUMNOS_ABIERTO--><g id="link_abrirAlumnos_ALUMNOS_ABIERTO"><path d="M313.31,530.01 C313.12,548.47 313,560 313,560 C313,560 313,596 313,596 C313,596 323.2428,607.0681 336.5528,621.4381 " fill="none" id="abrirAlumnos-to-ALUMNOS_ABIERTO" style="stroke:#008000;stroke-width:1.0;"/><polygon fill="#008000" points="340.63,625.84,337.4488,616.5191,337.2323,622.1718,331.5796,621.9553,340.63,625.84" style="stroke:#008000;stroke-width:1.0;"/><path d="M318,565 L318,591 L436,591 L436,575 L426,565 L318,565 " fill="#FEFFDD" style="stroke:#181818;stroke-width:0.5;"/><path d="M426,565 L426,575 L436,575 L426,565 " fill="#FEFFDD" style="stroke:#181818;stroke-width:0.5;"/><text fill="#000000" font-family="sans-serif" font-size="13" lengthAdjust="spacing" textLength="97" x="324" y="583.4951">eliminarAlumno()</text></g><!--link abrirAlumnos to ALUMNOS_ABIERTO--><g id="link_abrirAlumnos_ALUMNOS_ABIERTO"><path d="M431.68,530.01 C439.88,548.47 445,560 445,560 C445,560 445,596 445,596 C445,596 426.5323,608.172 404.6923,622.542 " fill="none" id="abrirAlumnos-to-ALUMNOS_ABIERTO-1" style="stroke:#008000;stroke-width:1.0;"/><polygon fill="#008000" points="399.68,625.84,409.3971,624.2346,403.8569,623.0917,404.9999,617.5515,399.68,625.84" style="stroke:#008000;stroke-width:1.0;"/><path d="M450,565 L450,591 L577,591 L577,575 L567,565 L450,565 " fill="#FEFFDD" style="stroke:#181818;stroke-width:0.5;"/><path d="M567,565 L567,575 L577,575 L567,565 " fill="#FEFFDD" style="stroke:#181818;stroke-width:0.5;"/><text fill="#000000" font-family="sans-serif" font-size="13" lengthAdjust="spacing" textLength="106" x="456" y="583.4951">importarAlumnos()</text></g><!--link abrirAlumnos to SISTEMA_DISPONIBLE--><g id="link_abrirAlumnos_SISTEMA_DISPONIBLE"><path d="M479.34,442.68 C538.02,504.89 590,560 590,560 C590,560 617.224,594.5092 638.254,621.1692 " fill="none" id="abrirAlumnos-to-SISTEMA_DISPONIBLE" style="stroke:#008000;stroke-width:1.0;"/><polygon fill="#008000" points="641.97,625.88,639.5366,616.3365,638.8734,621.9543,633.2555,621.2911,641.97,625.88" style="stroke:#008000;stroke-width:1.0;"/><path d="M622,565 L622,591 L753,591 L753,575 L743,565 L622,565 " fill="#FEFFDD" style="stroke:#181818;stroke-width:0.5;"/><path d="M743,565 L743,575 L753,575 L743,565 " fill="#FEFFDD" style="stroke:#181818;stroke-width:0.5;"/><text fill="#000000" font-family="sans-serif" font-size="13" lengthAdjust="spacing" textLength="110" x="628" y="583.4951">completarGestion()</text></g><!--SRC=[hLHTIiD047xVKmprnKgB5v12YhKKMYkcFXMHRNQKfViJTXEXYE1PVFSKtiIJEDaqDGcqM35v2Ddz_cPs4h-M9kMEQr3IOBP94LAhDiKBOpxZ6G9VEUaYbMjZFN0FdVh2QRS3BnMoGpS1PjPdZXjXfvBMctjNKjNtsFBi7lhBaoU7QExxWnONcB74jQP8jsONgq4aj3Iom0ZhBivN0_1MoKGIDiG2NkPYQ0G4CbsCjMJhZgr4RSEOLb7pO9Kwz6Y8huAAm9tRrzixp7ZcFZ-INF4UEUkLmnuGKwe2c731j-W07XS5W2QAB1Z2zY39dRV0aopdAc1kq6b9QQeA7Jo6hAxqtuD97FAg3M1oVBPxWAWazNA7tOSIuN4G8tLgtG_gf_cCDRjxJECFd7Ip3OSFgSGA_hjCD8x71CbDc095WstJH5g3jTfV6MjyEdMVQ7etkvu_HCF9w7OnRrgM7IzPfzrQxZ-fXN4uNYpUasqxC_ycM8tExdVo6yLu4Yz6i-ZXSXBVpAydm-ceLRFLgK9I7QFFw5Jggjy0]--></g></svg>