<?xml version="1.0" encoding="us-ascii" standalone="no"?><svg xmlns="http://www.w3.org/2000/svg" xmlns:xlink="http://www.w3.org/1999/xlink" contentStyleType="text/css" height="382px" preserveAspectRatio="none" style="width:1594px;height:382px;background:#FFFFFF;" version="1.1" viewBox="0 0 1594 382" width="1594px" zoomAndPan="magnify"><defs/><g><!--cluster abrirAulas--><g id="cluster_abrirAulas"><path d="M155.5,41.016 L226.5,41.016 A3.75,3.75 0 0 1 229,43.516 L236,63.3601 L628.5,63.3601 A2.5,2.5 0 0 1 631,65.8601 L631,372.516 A2.5,2.5 0 0 1 628.5,375.016 L155.5,375.016 A2.5,2.5 0 0 1 153,372.516 L153,43.516 A2.5,2.5 0 0 1 155.5,41.016 " fill="none" style="stroke:#000000;stroke-width:1.5;"/><line style="stroke:#000000;stroke-width:1.5;" x1="153" x2="236" y1="63.3601" y2="63.3601"/><text fill="#000000" font-family="sans-serif" font-size="12" font-weight="bold" lengthAdjust="spacing" textLength="70" x="157" y="55.8441">abrirAulas()</text></g><!--entity ListarAulasView--><g id="elem_ListarAulasView"><rect fill="#629EF9" height="36.3441" rx="2.5" ry="2.5" style="stroke:#181818;stroke-width:0.5;" width="108" x="507" y="95.016"/><text fill="#000000" font-family="sans-serif" font-size="12" lengthAdjust="spacing" textLength="88" x="517" y="117.8441">ListarAulasView</text></g><!--entity AulaController--><g id="elem_AulaController"><rect fill="#B5BD68" height="36.3441" rx="2.5" ry="2.5" style="stroke:#181818;stroke-width:0.5;" width="101" x="278.5" y="209.016"/><text fill="#000000" font-family="sans-serif" font-size="12" lengthAdjust="spacing" textLength="81" x="288.5" y="231.8441">AulaController</text></g><!--entity AulaRepository--><g id="elem_AulaRepository"><rect fill="#F2AC4E" height="36.3441" rx="2.5" ry="2.5" style="stroke:#181818;stroke-width:0.5;" width="104" x="258" y="323.016"/><text fill="#000000" font-family="sans-serif" font-size="12" lengthAdjust="spacing" textLength="84" x="268" y="345.8441">AulaRepository</text></g><!--entity Aula--><g id="elem_Aula"><rect fill="#F2AC4E" height="36.3441" rx="2.5" ry="2.5" style="stroke:#181818;stroke-width:0.5;" width="45" x="299.5" y="95.016"/><text fill="#000000" font-family="sans-serif" font-size="12" lengthAdjust="spacing" textLength="25" x="309.5" y="117.8441">Aula</text></g><!--entity SistemaDisponible--><g id="elem_SistemaDisponible"><rect fill="#CDEBA5" height="36.3441" rx="2.5" ry="2.5" style="stroke:#181818;stroke-width:0.5;" width="130" x="7" y="95.016"/><text fill="#000000" font-family="sans-serif" font-size="12" lengthAdjust="spacing" textLength="110" x="17" y="117.8441">:Sistema Disponible</text></g><!--entity SistemaDisponibleSalida--><g id="elem_SistemaDisponibleSalida"><rect fill="#CDEBA5" height="36.3441" rx="2.5" ry="2.5" style="stroke:#181818;stroke-width:0.5;" width="130" x="647" y="209.016"/><text fill="#000000" font-family="sans-serif" font-size="12" lengthAdjust="spacing" textLength="110" x="657" y="231.8441">:Sistema Disponible</text></g><!--entity CrearAula--><g id="elem_CrearAula"><rect fill="#CDEBA5" height="36.3441" rx="2.5" ry="2.5" style="stroke:#181818;stroke-width:0.5;" width="158" x="812" y="209.016"/><text fill="#000000" font-family="sans-serif" font-size="12" lengthAdjust="spacing" textLength="138" x="822" y="231.8441">:Collaboration CrearAula</text></g><!--entity EditarAula--><g id="elem_EditarAula"><rect fill="#CDEBA5" height="36.3441" rx="2.5" ry="2.5" style="stroke:#181818;stroke-width:0.5;" width="159" x="1004.5" y="209.016"/><text fill="#000000" font-family="sans-serif" font-size="12" lengthAdjust="spacing" textLength="139" x="1014.5" y="231.8441">:Collaboration EditarAula</text></g><!--entity EliminarAula--><g id="elem_EliminarAula"><rect fill="#CDEBA5" height="36.3441" rx="2.5" ry="2.5" style="stroke:#181818;stroke-width:0.5;" width="172" x="1199" y="209.016"/><text fill="#000000" font-family="sans-serif" font-size="12" lengthAdjust="spacing" textLength="152" x="1209" y="231.8441">:Collaboration EliminarAula</text></g><!--entity ImportarAulas--><g id="elem_ImportarAulas"><rect fill="#CDEBA5" height="36.3441" rx="2.5" ry="2.5" style="stroke:#181818;stroke-width:0.5;" width="182" x="1406" y="209.016"/><text fill="#000000" font-family="sans-serif" font-size="12" lengthAdjust="spacing" textLength="162" x="1416" y="231.8441">:Collaboration ImportarAulas</text></g><!--link SistemaDisponible to ListarAulasView--><g id="link_SistemaDisponible_ListarAulasView"><path d="M90.38,94.866 C114.28,71.256 153,33.016 153,33.016 C153,33.016 362,33.016 362,33.016 C362,33.016 451.5633,69.0174 510.2733,92.6274 " fill="none" id="SistemaDisponible-to-ListarAulasView" style="stroke:#181818;stroke-width:1.0;"/><polygon fill="#181818" points="515.84,94.866,508.9823,87.7969,511.2011,93.0005,505.9975,95.2192,515.84,94.866" style="stroke:#181818;stroke-width:1.0;"/><text fill="#000000" font-family="sans-serif" font-size="12" lengthAdjust="spacing" textLength="66" x="289" y="20.8441">abrirAulas()</text></g><!--link ListarAulasView to AulaController--><g id="link_ListarAulasView_AulaController"><path d="M506.65,122.416 C419.21,135.936 257,161.016 257,161.016 C257,161.016 257,179.016 257,179.016 C257,179.016 277.0263,192.0854 297.5763,205.5054 " fill="none" id="ListarAulasView-to-AulaController" style="stroke:#181818;stroke-width:1.0;"/><polygon fill="#181818" points="302.6,208.786,297.2516,200.5159,298.4136,206.0521,292.8774,207.2141,302.6,208.786" style="stroke:#181818;stroke-width:1.0;"/><text fill="#000000" font-family="sans-serif" font-size="12" lengthAdjust="spacing" textLength="134" x="258" y="174.8441">listarAulas() : List&lt;Aula&gt;</text></g><!--link ListarAulasView to AulaController--><g id="link_ListarAulasView_AulaController"><path d="M516.97,131.116 C482.38,144.556 440,161.016 440,161.016 C440,161.016 396.2276,186.6441 363.3376,205.9041 " fill="none" id="ListarAulasView-to-AulaController-1" style="stroke:#181818;stroke-width:1.0;"/><polygon fill="#181818" points="358.16,208.936,367.9477,207.8398,362.4747,206.4094,363.9051,200.9364,358.16,208.936" style="stroke:#181818;stroke-width:1.0;"/><text fill="#000000" font-family="sans-serif" font-size="12" lengthAdjust="spacing" textLength="177" x="441" y="174.8441">filtrarAulas(criterio) : List&lt;Aula&gt;</text></g><!--link AulaController to AulaRepository--><g id="link_AulaController_AulaRepository"><path d="M282.43,245.116 C245.83,258.556 201,275.016 201,275.016 C201,275.016 201,293.016 201,293.016 C201,293.016 233.6604,307.1004 264.8304,320.5404 " fill="none" id="AulaController-to-AulaRepository" style="stroke:#181818;stroke-width:1.0;"/><polygon fill="#181818" points="270.34,322.916,263.6593,315.6794,265.7486,320.9363,260.4918,323.0256,270.34,322.916" style="stroke:#181818;stroke-width:1.0;"/><text fill="#000000" font-family="sans-serif" font-size="12" lengthAdjust="spacing" textLength="153" x="202" y="288.8441">obtenerTodas() : List&lt;Aula&gt;</text></g><!--link AulaController to AulaRepository--><g id="link_AulaController_AulaRepository"><path d="M340.37,245.246 C349.21,258.666 360,275.016 360,275.016 C360,275.016 360,293.016 360,293.016 C360,293.016 346.9708,305.2556 332.7008,318.6756 " fill="none" id="AulaController-to-AulaRepository-1" style="stroke:#181818;stroke-width:1.0;"/><polygon fill="#181818" points="328.33,322.786,337.6265,319.5342,331.9723,319.3606,332.1459,313.7064,328.33,322.786" style="stroke:#181818;stroke-width:1.0;"/><text fill="#000000" font-family="sans-serif" font-size="12" lengthAdjust="spacing" textLength="214" x="361" y="288.8441">buscarPorCriterio(criterio) : List&lt;Aula&gt;</text></g><!--link ListarAulasView to SistemaDisponibleSalida--><g id="link_ListarAulasView_SistemaDisponibleSalida"><path d="M583.93,131.026 C612.31,152.076 655.5514,184.141 684.0314,205.271 " fill="none" id="ListarAulasView-to-SistemaDisponibleSalida" style="stroke:#181818;stroke-width:1.0;stroke-dasharray:7.0,7.0;"/><polygon fill="#181818" points="688.85,208.846,684.0054,200.271,684.8345,205.8668,679.2387,206.6959,688.85,208.846" style="stroke:#181818;stroke-width:1.0;"/><text fill="#000000" font-family="sans-serif" font-size="12" lengthAdjust="spacing" textLength="168" x="646" y="174.8441">&#171;finalizar&#187; completarGestion()</text></g><!--link ListarAulasView to CrearAula--><g id="link_ListarAulasView_CrearAula"><path d="M615.29,123.756 C692.03,137.526 823,161.016 823,161.016 C823,161.016 848.6537,185.5292 868.7937,204.7892 " fill="none" id="ListarAulasView-to-CrearAula" style="stroke:#181818;stroke-width:1.0;stroke-dasharray:7.0,7.0;"/><polygon fill="#181818" points="873.13,208.936,869.3901,199.8249,869.5164,205.4803,863.861,205.6066,873.13,208.936" style="stroke:#181818;stroke-width:1.0;"/><text fill="#000000" font-family="sans-serif" font-size="12" lengthAdjust="spacing" textLength="108" x="842" y="174.8441">&#171;crear&#187; crearAula()</text></g><!--link ListarAulasView to EditarAula--><g id="link_ListarAulasView_EditarAula"><path d="M615.09,120.406 C723.91,133.256 959,161.016 959,161.016 C959,161.016 1008.7967,186.908 1045.8367,206.168 " fill="none" id="ListarAulasView-to-EditarAula" style="stroke:#181818;stroke-width:1.0;stroke-dasharray:7.0,7.0;"/><polygon fill="#181818" points="1051.16,208.936,1045.0203,201.2351,1046.7239,206.6293,1041.3296,208.3329,1051.16,208.936" style="stroke:#181818;stroke-width:1.0;"/><text fill="#000000" font-family="sans-serif" font-size="12" lengthAdjust="spacing" textLength="138" x="993" y="174.8441">&#171;editar&#187; editarAula(aula)</text></g><!--link ListarAulasView to EliminarAula--><g id="link_ListarAulasView_EliminarAula"><path d="M615.21,118.416 C759.15,130.096 1140,161.016 1140,161.016 C1140,161.016 1198.465,187.2215 1241.425,206.4815 " fill="none" id="ListarAulasView-to-EliminarAula" style="stroke:#181818;stroke-width:1.0;stroke-dasharray:7.0,7.0;"/><polygon fill="#181818" points="1246.9,208.936,1240.3239,201.6042,1242.3375,206.8906,1237.0512,208.9042,1246.9,208.936" style="stroke:#181818;stroke-width:1.0;"/><text fill="#000000" font-family="sans-serif" font-size="12" lengthAdjust="spacing" textLength="164" x="1179" y="174.8441">&#171;eliminar&#187; eliminarAula(aula)</text></g><!--link ListarAulasView to ImportarAulas--><g id="link_ListarAulasView_ImportarAulas"><path d="M615.06,117.226 C793.43,127.826 1352,161.016 1352,161.016 C1352,161.016 1410.465,187.2215 1453.425,206.4815 " fill="none" id="ListarAulasView-to-ImportarAulas" style="stroke:#181818;stroke-width:1.0;stroke-dasharray:7.0,7.0;"/><polygon fill="#181818" points="1458.9,208.936,1452.3239,201.6042,1454.3375,206.8906,1449.0512,208.9042,1458.9,208.936" style="stroke:#181818;stroke-width:1.0;"/><text fill="#000000" font-family="sans-serif" font-size="12" lengthAdjust="spacing" textLength="152" x="1391" y="174.8441">&#171;importar&#187; importarAulas()</text></g><!--SRC=[fPHDQzj048Rl-oi6z-8S7AXfGYACm9NjKkWXn27tbJHsXgnsnUmQuvJ-z-xAjhJ-2gOLkipC-xoQrOnatqdNacK5kIpUbsnMkioCCWphDt8eR5ktRx8qQz9BM4Xbuye45tAbtCnejqLpvRtE2-RqWV1r61KLQNIR6g4sQXC28HWB9_LI8Np99jFluple9NEo3Yi94xArqPGhx86qi4jtMI5g_t2vH90v4uzNoglytUl2_aqFVWlmL_IW- -7ZTFO8lxoVtCfU2TV7glmkB-yV8DGpVnesIY4VYsR3SVPjseYUiJQMdE7D9oBnv_-EF9UAIddMmiz3oTomT6GqP8pRipK-RNG5EIt9HMWNNiCggaZ7T9IuWlzPrORtGsaC3Z92dBmG6F0WFHvb0l46275KXa7fcSF19duvMr7_1fB6SnJ2L1nAExmRUG8cTwYHNqnvob_Nm8AKutq71VjFaidyGoVvoXQIdmndEuzBPYTjtTwcbrOkWT5euIUfw4Doca9XgbgXft-W3QFph_cSMxjuWIz24DXzyWBKhLoWi8ayXcswxtynyW8RBLn3x-B0HwLF70usBbZGBk4jAAxvxly2]--></g></svg>