<?xml version="1.0" encoding="us-ascii" standalone="no"?><svg xmlns="http://www.w3.org/2000/svg" xmlns:xlink="http://www.w3.org/1999/xlink" contentStyleType="text/css" height="786px" preserveAspectRatio="none" style="width:391px;height:786px;background:#FFFFFF;" version="1.1" viewBox="0 0 391 786" width="391px" zoomAndPan="magnify"><defs/><g><path d="M19.5,7 L365.5,7 A12.5,12.5 0 0 1 378,19.5 L378,34.6094 L7,34.6094 L7,19.5 A12.5,12.5 0 0 1 19.5,7 " fill="#F1F1F1" style="stroke:#F1F1F1;stroke-width:1.0;"/><rect fill="none" height="626.6094" rx="12.5" ry="12.5" style="stroke:#181818;stroke-width:0.5;" width="371" x="7" y="7"/><line style="stroke:#181818;stroke-width:0.5;" x1="7" x2="378" y1="34.6094" y2="34.6094"/><text fill="#000000" font-family="sans-serif" font-size="14" lengthAdjust="spacing" textLength="83" x="151" y="26.5332">crearGrado()</text><g id="crearGrado.MostrandoFormulario"><rect fill="#F1F1F1" height="50" rx="12.5" ry="12.5" style="stroke:#181818;stroke-width:0.5;" width="50" x="19" y="137.6094"/><line style="stroke:#181818;stroke-width:0.5;" x1="19" x2="69" y1="165.2188" y2="165.2188"/><text fill="#000000" font-family="sans-serif" font-size="14" lengthAdjust="spacing" textLength="4" x="42" y="157.1426">&#160;</text></g><g id="crearGrado.GuardandoDatos"><rect fill="#F1F1F1" height="50" rx="12.5" ry="12.5" style="stroke:#181818;stroke-width:0.5;" width="50" x="19" y="479.6094"/><line style="stroke:#181818;stroke-width:0.5;" x1="19" x2="69" y1="507.2188" y2="507.2188"/><text fill="#000000" font-family="sans-serif" font-size="14" lengthAdjust="spacing" textLength="4" x="42" y="499.1426">&#160;</text></g><g id="crearGrado.ValidandoDatos"><rect fill="#F1F1F1" height="50" rx="12.5" ry="12.5" style="stroke:#181818;stroke-width:0.5;" width="50" x="19" y="341.6094"/><line style="stroke:#181818;stroke-width:0.5;" x1="19" x2="69" y1="369.2188" y2="369.2188"/><text fill="#000000" font-family="sans-serif" font-size="14" lengthAdjust="spacing" textLength="4" x="42" y="361.1426">&#160;</text></g><ellipse cx="44" cy="55.6094" fill="#222222" rx="10" ry="10" style="stroke:#222222;stroke-width:1.0;"/><ellipse cx="44" cy="612.6094" fill="none" rx="11" ry="11" style="stroke:#222222;stroke-width:1.0;"/><ellipse cx="44" cy="612.6094" fill="#222222" rx="6" ry="6" style="stroke:#222222;stroke-width:1.0;"/><!--link *start*crearGrado to MostrandoFormulario--><g id="link_*start*crearGrado_MostrandoFormulario"><path d="M44,65.9294 C44,81.7894 44,108.5194 44,131.2494 " fill="none" id="*start*crearGrado-to-MostrandoFormulario" style="stroke:#008000;stroke-width:1.0;"/><polygon fill="#008000" points="44,137.2494,48,128.2494,44,132.2494,40,128.2494,44,137.2494" style="stroke:#008000;stroke-width:1.0;"/><path d="M49,88.6094 L49,114.6094 L273,114.6094 L273,98.6094 L263,88.6094 L49,88.6094 " fill="#FEFFDD" style="stroke:#181818;stroke-width:0.5;"/><path d="M263,88.6094 L263,98.6094 L273,98.6094 L263,88.6094 " fill="#FEFFDD" style="stroke:#181818;stroke-width:0.5;"/><text fill="#000000" font-family="sans-serif" font-size="13" font-weight="bold" lengthAdjust="spacing" textLength="89" x="55" y="107.1045">Administrador</text><text fill="#000000" font-family="sans-serif" font-size="13" lengthAdjust="spacing" textLength="110" x="148" y="107.1045">solicita crear grado</text></g><!--link MostrandoFormulario to ValidandoDatos--><g id="link_MostrandoFormulario_ValidandoDatos"><path d="M44,187.9794 C44,226.9094 44,296.6894 44,335.4694 " fill="none" id="MostrandoFormulario-to-ValidandoDatos" style="stroke:#008000;stroke-width:1.0;"/><polygon fill="#008000" points="44,341.4694,48,332.4694,44,336.4694,40,332.4694,44,341.4694" style="stroke:#008000;stroke-width:1.0;"/><path d="M49,210.6094 L49,318.6094 L306,318.6094 L306,220.6094 L296,210.6094 L49,210.6094 " fill="#FEFFDD" style="stroke:#181818;stroke-width:0.5;"/><path d="M296,210.6094 L296,220.6094 L306,220.6094 L296,210.6094 " fill="#FEFFDD" style="stroke:#181818;stroke-width:0.5;"/><text fill="#000000" font-family="sans-serif" font-size="13" font-weight="bold" lengthAdjust="spacing" textLength="51" x="55" y="229.1045">Sistema</text><text fill="#000000" font-family="sans-serif" font-size="13" lengthAdjust="spacing" textLength="181" x="110" y="229.1045">presenta formulario de creaci&#243;n</text><text fill="#000000" font-family="sans-serif" font-size="13" lengthAdjust="spacing" textLength="210" x="55" y="245.4561">&#8226; Permite introducir c&#243;digo del grado</text><text fill="#000000" font-family="sans-serif" font-size="13" lengthAdjust="spacing" textLength="215" x="55" y="261.8076">&#8226; Permite introducir nombre del grado</text><text fill="#000000" font-family="sans-serif" font-size="13" lengthAdjust="spacing" textLength="181" x="55" y="278.1592">&#8226; Permite introducir descripci&#243;n</text><text fill="#000000" font-family="sans-serif" font-size="13" lengthAdjust="spacing" textLength="186" x="55" y="294.5107">&#8226; Permite solicitar guardar grado</text><text fill="#000000" font-family="sans-serif" font-size="13" lengthAdjust="spacing" textLength="209" x="55" y="310.8623">&#8226; Permite solicitar cancelar creaci&#243;n</text></g><!--link ValidandoDatos to GuardandoDatos--><g id="link_ValidandoDatos_GuardandoDatos"><path d="M44,391.6094 C44,416.3194 44,448.6094 44,473.3894 " fill="none" id="ValidandoDatos-to-GuardandoDatos" style="stroke:#008000;stroke-width:1.0;"/><polygon fill="#008000" points="44,479.3894,48,470.3894,44,474.3894,40,470.3894,44,479.3894" style="stroke:#008000;stroke-width:1.0;"/><path d="M49,414.6094 L49,456.6094 L367,456.6094 L367,424.6094 L357,414.6094 L49,414.6094 " fill="#FEFFDD" style="stroke:#181818;stroke-width:0.5;"/><path d="M357,414.6094 L357,424.6094 L367,424.6094 L357,414.6094 " fill="#FEFFDD" style="stroke:#181818;stroke-width:0.5;"/><text fill="#000000" font-family="sans-serif" font-size="13" font-weight="bold" lengthAdjust="spacing" textLength="89" x="55" y="433.1045">Administrador</text><text fill="#000000" font-family="sans-serif" font-size="13" lengthAdjust="spacing" textLength="192" x="148" y="433.1045">introduce datos y solicita guardar</text><text fill="#000000" font-family="sans-serif" font-size="13" font-weight="bold" lengthAdjust="spacing" textLength="51" x="55" y="449.4561">Sistema</text><text fill="#000000" font-family="sans-serif" font-size="13" lengthAdjust="spacing" textLength="242" x="110" y="449.4561">presenta validaci&#243;n de campos requeridos</text></g><!--link GuardandoDatos to *end*crearGrado--><g id="link_GuardandoDatos_*end*crearGrado"><path d="M44,529.6594 C44,552.2594 44,578.9894 44,595.4094 " fill="none" id="GuardandoDatos-to-*end*crearGrado" style="stroke:#008000;stroke-width:1.0;"/><polygon fill="#008000" points="44,601.4094,48,592.4094,44,596.4094,40,592.4094,44,601.4094" style="stroke:#008000;stroke-width:1.0;"/><path d="M49,552.6094 L49,578.6094 L369,578.6094 L369,562.6094 L359,552.6094 L49,552.6094 " fill="#FEFFDD" style="stroke:#181818;stroke-width:0.5;"/><path d="M359,552.6094 L359,562.6094 L369,562.6094 L359,552.6094 " fill="#FEFFDD" style="stroke:#181818;stroke-width:0.5;"/><text fill="#000000" font-family="sans-serif" font-size="13" font-weight="bold" lengthAdjust="spacing" textLength="51" x="55" y="571.1045">Sistema</text><text fill="#000000" font-family="sans-serif" font-size="13" lengthAdjust="spacing" textLength="244" x="110" y="571.1045">guarda el nuevo grado en la base de datos</text></g><g id="GRADO_ABIERTO"><rect fill="#F1F1F1" height="50" rx="12.5" ry="12.5" style="stroke:#181818;stroke-width:0.5;" width="139" x="34" y="730"/><line style="stroke:#181818;stroke-width:0.5;" x1="34" x2="173" y1="757.6094" y2="757.6094"/><text fill="#000000" font-family="sans-serif" font-size="14" lengthAdjust="spacing" textLength="119" x="44" y="749.5332">GRADO_ABIERTO</text></g><g id="GRADOS_ABIERTO"><rect fill="#F1F1F1" height="50" rx="12.5" ry="12.5" style="stroke:#181818;stroke-width:0.5;" width="148" x="208.5" y="730"/><line style="stroke:#181818;stroke-width:0.5;" x1="208.5" x2="356.5" y1="757.6094" y2="757.6094"/><text fill="#000000" font-family="sans-serif" font-size="14" lengthAdjust="spacing" textLength="128" x="218.5" y="749.5332">GRADOS_ABIERTO</text></g><!--link crearGrado to GRADO_ABIERTO--><g id="link_crearGrado_GRADO_ABIERTO"><path d="M128.17,634.1 C119.98,673.9 114.1281,702.3429 109.6881,723.9429 " fill="none" id="crearGrado-to-GRADO_ABIERTO" style="stroke:#008000;stroke-width:1.0;"/><polygon fill="#008000" points="108.48,729.82,114.2102,721.8097,109.4867,724.9224,106.374,720.1989,108.48,729.82" style="stroke:#008000;stroke-width:1.0;"/><path d="M126.5,669 L126.5,695 L222.5,695 L222.5,679 L212.5,669 L126.5,669 " fill="#FEFFDD" style="stroke:#181818;stroke-width:0.5;"/><path d="M212.5,669 L212.5,679 L222.5,679 L212.5,669 " fill="#FEFFDD" style="stroke:#181818;stroke-width:0.5;"/><text fill="#000000" font-family="sans-serif" font-size="13" lengthAdjust="spacing" textLength="75" x="132.5" y="687.4951">editarGrado()</text></g><!--link crearGrado to GRADOS_ABIERTO--><g id="link_crearGrado_GRADOS_ABIERTO"><path d="M257.55,634.1 C265.83,673.9 271.7463,702.3461 276.2463,723.9461 " fill="none" id="crearGrado-to-GRADOS_ABIERTO" style="stroke:#008000;stroke-width:1.0;"/><polygon fill="#008000" points="277.47,729.82,279.5503,720.1934,276.4502,724.9251,271.7185,721.825,277.47,729.82" style="stroke:#008000;stroke-width:1.0;"/><path d="M273.5,669 L273.5,695 L369.5,695 L369.5,679 L359.5,669 L273.5,669 " fill="#FEFFDD" style="stroke:#181818;stroke-width:0.5;"/><path d="M359.5,669 L359.5,679 L369.5,679 L359.5,669 " fill="#FEFFDD" style="stroke:#181818;stroke-width:0.5;"/><text fill="#000000" font-family="sans-serif" font-size="13" lengthAdjust="spacing" textLength="75" x="279.5" y="687.4951">abrirGrados()</text></g><!--SRC=[XLDBJiCm5Dpx54zb0qWL5wWg5HKg5gYeHMog2ht4ZyfgOeVdf5A5a3WBL-WHUXDEWfqq92xz99jORpmpdedjKkaC6LD8bAPydH5a9bdxXH0snvmWPa8UCKe3QA7JB2-lEl1HephkTUD7OtD6BSszuRH8a9K90QC2MNh047DZmzaB9ger4xFhENHd5micqlDk_n0v26qSWT7U_rBqelv0faeh3vI6UpTH7wn9LAnoh4u22pyHf2MKMzqZn27cjlAUittDgTEZ54krZCcITcfl3PMiKepLTgF5pzStF16dod4edREHHQmOukr6geN79ZkBHu3Qf17JUPma6xFA_elMURWeoZBu04-3YL77bFYFlnFKsGaHvX94jbVq-Pfgw-ve9TcwAMxdysZKgz96QQxC6jFC4J2z5yHAElN6SMWhSEn-jvFDLYx0vQuBMfagDI07HeZG-aegwutSfn2jwnF4CnaCnw-3suUxoVCub2NfWzzTiPRrKqpJmrGOiQgss3RLBm00]--></g></svg>