<?xml version="1.0" encoding="us-ascii" standalone="no"?><svg xmlns="http://www.w3.org/2000/svg" xmlns:xlink="http://www.w3.org/1999/xlink" contentStyleType="text/css" height="382px" preserveAspectRatio="none" style="width:1062px;height:382px;background:#FFFFFF;" version="1.1" viewBox="0 0 1062 382" width="1062px" zoomAndPan="magnify"><defs/><g><!--cluster eliminarProfesor--><g id="cluster_eliminarProfesor"><path d="M153.5,41.016 L263.5,41.016 A3.75,3.75 0 0 1 266,43.516 L273,63.3601 L629.5,63.3601 A2.5,2.5 0 0 1 632,65.8601 L632,372.516 A2.5,2.5 0 0 1 629.5,375.016 L153.5,375.016 A2.5,2.5 0 0 1 151,372.516 L151,43.516 A2.5,2.5 0 0 1 153.5,41.016 " fill="none" style="stroke:#000000;stroke-width:1.5;"/><line style="stroke:#000000;stroke-width:1.5;" x1="151" x2="273" y1="63.3601" y2="63.3601"/><text fill="#000000" font-family="sans-serif" font-size="12" font-weight="bold" lengthAdjust="spacing" textLength="109" x="155" y="55.8441">eliminarProfesor()</text></g><!--entity EliminarProfesorView--><g id="elem_EliminarProfesorView"><rect fill="#629EF9" height="36.3441" rx="2.5" ry="2.5" style="stroke:#181818;stroke-width:0.5;" width="140" x="403" y="95.016"/><text fill="#000000" font-family="sans-serif" font-size="12" lengthAdjust="spacing" textLength="120" x="413" y="117.8441">EliminarProfesorView</text></g><!--entity ProfesorController--><g id="elem_ProfesorController"><rect fill="#B5BD68" height="36.3441" rx="2.5" ry="2.5" style="stroke:#181818;stroke-width:0.5;" width="124" x="450" y="209.016"/><text fill="#000000" font-family="sans-serif" font-size="12" lengthAdjust="spacing" textLength="104" x="460" y="231.8441">ProfesorController</text></g><!--entity ProfesorRepository--><g id="elem_ProfesorRepository"><rect fill="#F2AC4E" height="36.3441" rx="2.5" ry="2.5" style="stroke:#181818;stroke-width:0.5;" width="127" x="448.5" y="323.016"/><text fill="#000000" font-family="sans-serif" font-size="12" lengthAdjust="spacing" textLength="107" x="458.5" y="345.8441">ProfesorRepository</text></g><!--entity Profesor--><g id="elem_Profesor"><rect fill="#F2AC4E" height="36.3441" rx="2.5" ry="2.5" style="stroke:#181818;stroke-width:0.5;" width="68" x="235" y="95.016"/><text fill="#000000" font-family="sans-serif" font-size="12" lengthAdjust="spacing" textLength="48" x="245" y="117.8441">Profesor</text></g><!--entity ProfesoresAbierto--><g id="elem_ProfesoresAbierto"><rect fill="#CDEBA5" height="36.3441" rx="2.5" ry="2.5" style="stroke:#181818;stroke-width:0.5;" width="128" x="7" y="95.016"/><text fill="#000000" font-family="sans-serif" font-size="12" lengthAdjust="spacing" textLength="108" x="17" y="117.8441">:Profesores Abierto</text></g><!--entity ExamenRepository--><g id="elem_ExamenRepository"><rect fill="#F2AC4E" height="36.3441" rx="2.5" ry="2.5" style="stroke:#181818;stroke-width:0.5;" width="124" x="648" y="323.016"/><text fill="#000000" font-family="sans-serif" font-size="12" lengthAdjust="spacing" textLength="104" x="658" y="345.8441">ExamenRepository</text></g><!--entity PreferenciaRepository--><g id="elem_PreferenciaRepository"><rect fill="#F2AC4E" height="36.3441" rx="2.5" ry="2.5" style="stroke:#181818;stroke-width:0.5;" width="144" x="862" y="323.016"/><text fill="#000000" font-family="sans-serif" font-size="12" lengthAdjust="spacing" textLength="124" x="872" y="345.8441">PreferenciaRepository</text></g><!--entity ProfesoresAbiertoSalida--><g id="elem_ProfesoresAbiertoSalida"><rect fill="#CDEBA5" height="36.3441" rx="2.5" ry="2.5" style="stroke:#181818;stroke-width:0.5;" width="128" x="669" y="209.016"/><text fill="#000000" font-family="sans-serif" font-size="12" lengthAdjust="spacing" textLength="108" x="679" y="231.8441">:Profesores Abierto</text></g><!--link ProfesoresAbierto to EliminarProfesorView--><g id="link_ProfesoresAbierto_EliminarProfesorView"><path d="M89.15,94.866 C112.76,71.256 151,33.016 151,33.016 C151,33.016 321,33.016 321,33.016 C321,33.016 388.3507,68.4611 433.2007,92.0711 " fill="none" id="ProfesoresAbierto-to-EliminarProfesorView" style="stroke:#181818;stroke-width:1.0;"/><polygon fill="#181818" points="438.51,94.866,432.4094,87.1341,434.0856,92.5369,428.6828,94.2132,438.51,94.866" style="stroke:#181818;stroke-width:1.0;"/><text fill="#000000" font-family="sans-serif" font-size="12" lengthAdjust="spacing" textLength="150" x="213" y="20.8441">eliminarProfesor(profesor)</text></g><!--link EliminarProfesorView to ProfesorController--><g id="link_EliminarProfesorView_ProfesorController"><path d="M402.79,126.056 C321.61,139.986 199,161.016 199,161.016 C199,161.016 199,179.016 199,179.016 C199,179.016 352.5766,202.0748 443.8566,215.7848 " fill="none" id="EliminarProfesorView-to-ProfesorController" style="stroke:#181818;stroke-width:1.0;"/><polygon fill="#181818" points="449.79,216.676,441.484,211.3836,444.8455,215.9334,440.2957,219.2949,449.79,216.676" style="stroke:#181818;stroke-width:1.0;"/><text fill="#000000" font-family="sans-serif" font-size="12" lengthAdjust="spacing" textLength="268" x="200" y="174.8441">verificarExamenesAsignados(profesor) : Integer</text></g><!--link EliminarProfesorView to ProfesorController--><g id="link_EliminarProfesorView_ProfesorController"><path d="M478.92,131.026 C486.25,152.076 496.6988,182.0491 504.0488,203.1791 " fill="none" id="EliminarProfesorView-to-ProfesorController-1" style="stroke:#181818;stroke-width:1.0;"/><polygon fill="#181818" points="506.02,208.846,506.8411,199.0315,504.3773,204.1236,499.2852,201.6598,506.02,208.846" style="stroke:#181818;stroke-width:1.0;"/><text fill="#000000" font-family="sans-serif" font-size="12" lengthAdjust="spacing" textLength="102" x="495" y="174.8441">eliminar(profesor)</text></g><!--link ProfesorController to ExamenRepository--><g id="link_ProfesorController_ExamenRepository"><path d="M552.75,245.116 C584.77,258.556 624,275.016 624,275.016 C624,275.016 657.1336,300.058 682.6136,319.318 " fill="none" id="ProfesorController-to-ExamenRepository" style="stroke:#181818;stroke-width:1.0;"/><polygon fill="#181818" points="687.4,322.936,682.6323,314.3181,683.4113,319.921,677.8083,320.7,687.4,322.936" style="stroke:#181818;stroke-width:1.0;"/><text fill="#000000" font-family="sans-serif" font-size="12" lengthAdjust="spacing" textLength="209" x="648" y="288.8441">contarPorProfesor(profesor) : Integer</text></g><!--link ProfesorController to PreferenciaRepository--><g id="link_ProfesorController_PreferenciaRepository"><path d="M574.07,236.256 C675.59,249.736 866,275.016 866,275.016 C866,275.016 891.6537,299.5292 911.7937,318.7892 " fill="none" id="ProfesorController-to-PreferenciaRepository" style="stroke:#181818;stroke-width:1.0;"/><polygon fill="#181818" points="916.13,322.936,912.3901,313.8249,912.5164,319.4803,906.861,319.6066,916.13,322.936" style="stroke:#181818;stroke-width:1.0;"/><text fill="#000000" font-family="sans-serif" font-size="12" lengthAdjust="spacing" textLength="169" x="885" y="288.8441">eliminarPorProfesor(profesor)</text></g><!--link ProfesorController to ProfesorRepository--><g id="link_ProfesorController_ProfesorRepository"><path d="M512,245.026 C512,266.076 512,295.716 512,316.846 " fill="none" id="ProfesorController-to-ProfesorRepository" style="stroke:#181818;stroke-width:1.0;"/><polygon fill="#181818" points="512,322.846,516,313.846,512,317.846,508,313.846,512,322.846" style="stroke:#181818;stroke-width:1.0;"/><text fill="#000000" font-family="sans-serif" font-size="12" lengthAdjust="spacing" textLength="102" x="513" y="288.8441">eliminar(profesor)</text></g><!--link EliminarProfesorView to ProfesoresAbiertoSalida--><g id="link_EliminarProfesorView_ProfesoresAbiertoSalida"><path d="M521.39,131.116 C559.42,144.556 606,161.016 606,161.016 C606,161.016 656.6589,186.9423 694.2889,206.2023 " fill="none" id="EliminarProfesorView-to-ProfesoresAbiertoSalida" style="stroke:#181818;stroke-width:1.0;stroke-dasharray:7.0,7.0;"/><polygon fill="#181818" points="699.63,208.936,693.4409,201.2748,695.1791,206.6579,689.7959,208.3962,699.63,208.936" style="stroke:#181818;stroke-width:1.0;"/><text fill="#000000" font-family="sans-serif" font-size="12" lengthAdjust="spacing" textLength="57" x="641" y="174.8441">&#171;finalizar&#187;</text></g><!--link EliminarProfesorView to ProfesoresAbiertoSalida--><g id="link_EliminarProfesorView_ProfesoresAbiertoSalida"><path d="M543.21,128.116 C612.13,141.966 707,161.016 707,161.016 C707,161.016 716.2427,184.1048 723.9427,203.3648 " fill="none" id="EliminarProfesorView-to-ProfesoresAbiertoSalida-1" style="stroke:#181818;stroke-width:1.0;stroke-dasharray:7.0,7.0;"/><polygon fill="#181818" points="726.17,208.936,726.5432,199.0942,724.3139,204.2933,719.1148,202.064,726.17,208.936" style="stroke:#181818;stroke-width:1.0;"/><text fill="#000000" font-family="sans-serif" font-size="12" lengthAdjust="spacing" textLength="60" x="714" y="174.8441">&#171;cancelar&#187;</text></g><!--SRC=[dL9DRy8m3BtdLrZT1GuW3GsqLQWIWoBjDWrfTxTrIqH8gYICmRJ_lZ2-kZPiOZabzlFpytFCWiiIDIuXmNHHQBMIsLW9fM4zvvQOEUND73ErvhA078MfPYQKuqhOgP9sNve8n-K7pFYMuBPNIGekoMvAWbA9pUx1cARKeYm4mSru4Z-E-X24prhbP9Gc0wE4axOg03Hm3X-YZ9MkEHO49FYIIzH7o0uUr8EjTW0V3DofD1tq7kBf0yGrx2kdTHsQz9DiS7-ICNOZQYK4wJfmsXkDx-8Jy8LAPRXLUlC7a7t-yEEGZTznIR92uYEWd3J9bACVTxMrCnGyGyOQ2UZeJkIrAsnieLKUBct6V1NGoHnNqyyGtaZpdAUezyExxeONqdrAS-Q449wafSBvpveSU-wwTo6a3k5KA8_8Ak5rSe-3LmU-9CcxguftFcM_aDM_c5-CTvnkDxgq-126mzmL2Bv57KN_gazHfYI-oxy0]--></g></svg>